<svg xmlns="http://www.w3.org/2000/svg" width="224.452" height="61.05" viewBox="0 0 224.452 61.05">
  <path id="Pfad_142" data-name="Pfad 142" d="M815.252,390.713h0c-.841-6.829-7.258-11.343-15.192-14.97-10.926-4.995-23.353-7.643-36.379-9.278-6.169-.774-12.046-.871-17.893.977,1.432,1,3.126.975,4.773,1.144,16.637,1.7,32.283,5.151,45.878,11.834,15.109,7.429,15.141,20.162.319,27.827a99.517,99.517,0,0,1-20.779,7.594c-20.462,5.3-41.98,6.136-63.537,6.159-20.406.022-40.83-.632-60.853-3.693-15.994-2.445-31.217-5.949-43.742-13.323-9.558-5.628-11.148-12.625-3.841-18.087a30.119,30.119,0,0,1,8.335-4.091c22.332-7.573,46.649-10.209,71.238-11.564,13.72-.757,27.62-.1,41.439-.085,2.6.979,5.411.517,8.155.494h0a38.532,38.532,0,0,0,8.892.8l1.123.22.108.021,21.942,4.3a9.042,9.042,0,0,0,4.871,1.152,4.115,4.115,0,0,0-3.009-1.655h0a96.064,96.064,0,0,0-21.917-4.679h0c-1.443-.18-2.878-.154-4.362-.46-12.091-2.486-24.559-3.276-37.182-3.537a347.4,347.4,0,0,0-53.484,2.741c-15.918,2.14-31.682,4.821-45.49,10.855-15.495,6.772-17.188,17.228-4.268,26.063,7.417,5.072,16.608,8.293,26.442,10.839,17.143,4.439,35.12,6.136,53.338,7.309,26.052,1.677,52.089,2.45,77.757-1.519,24.366-3.767,47.938-8.723,58.276-26.129v-7.21A3.731,3.731,0,0,1,815.252,390.713Z" transform="translate(-591.757 -365.941)" fill="#fee069"/>
</svg>
