<svg xmlns="http://www.w3.org/2000/svg" viewBox="0 0 1723.77 513.87"><title>team-slogan</title><g id="Ebene_2" data-name="Ebene 2"><g id="Ebene_1-2" data-name="Ebene 1"><path d="M34,165.07q1,2,1.93,4.55c.65,1.69,1.29,3.46,1.94,5.31a49.14,49.14,0,0,0,6.77,7.84,58.84,58.84,0,0,0,7.36,5.3c.77.51,1.58,1,2.42,1.52s1.77,1.1,2.81,1.77a41.36,41.36,0,0,0,16.35-3.79A64.74,64.74,0,0,0,88,178.34a125.24,125.24,0,0,0,13-12.64q6.19-6.94,12.19-14.28l2.33-3,4.06-4.81,2.71-3.28,1.94,4.8,3.29,7.84c.51,1.18,1,2.31,1.45,3.41s.87,2.23,1.26,3.41q4.65,11.63,9.49,21.11a34.4,34.4,0,0,0,12.77,14.28,9.54,9.54,0,0,1,2.62-2,7.59,7.59,0,0,1,3.58-.76,17.44,17.44,0,0,1,4.64.76,81.32,81.32,0,0,0,17.14-18.58,166.08,166.08,0,0,0,13.45-24.14,294.78,294.78,0,0,0,10.94-27.68q4.94-14.53,9.58-29.2,3.68-11.37,7.36-22.5t7.94-21.74a105.54,105.54,0,0,0-2.42-15.8,50.18,50.18,0,0,0-4.46-11.88,51.49,51.49,0,0,0-6.58-9.48,77.86,77.86,0,0,0-9-8.59,84,84,0,0,0-4.74,10q-2.43,6-4.94,13.15T192.6,41.84q-2.41,7.95-4.74,16Q184.56,69,181.28,79.5T174.6,99a152.15,152.15,0,0,1-7,15.92,41.88,41.88,0,0,1-7.45,10.75l-9.3,9.35a17.48,17.48,0,0,1-1.83-5.44c-.33-1.93-.62-3.83-.88-5.68a47.68,47.68,0,0,1-.38-6.07c0-2.7,0-4.8.09-6.32s.23-3.37.49-5.56.71-5.22,1.35-9.1,1.61-9.61,2.91-17.19q.57-3.8,1.26-7.84c.45-2.69.87-5.35,1.25-8s.74-5,1.07-7.21.55-3.95.68-5.3a32.8,32.8,0,0,0-2.23-5.06l-2.81-5.06q-1.15-2-2.42-4.17t-2.61-4.93a16.24,16.24,0,0,1-6.1-4.29c-1.87-2-3.52-4-4.94-5.82A62.75,62.75,0,0,0,129,32q-3.67,6.44-7.55,14t-7.65,15.92q-3.78,8.34-7.26,15.68-3.87,8.6-6.68,14.78t-5.42,11.38a107.08,107.08,0,0,1-5.71,10q-3.09,4.81-7.55,10.62-3.28,4.3-6.77,8.09a76.63,76.63,0,0,1-6.3,6.32,20.22,20.22,0,0,1-6.09,4q1-9.34,2-17.18t2-13.4q1.17-6.57,2.33-11.63,1.35-6.31,3.67-15t4.75-18.08q2.41-9.34,4.64-18.58T84.87,32.1a64,64,0,0,1-7.36-8.21,86.94,86.94,0,0,1-6.38-10.24A10.5,10.5,0,0,1,68.61,12a11.63,11.63,0,0,1-2.52-3.16q-4.26,1-7.94,6.32a72.89,72.89,0,0,0-6.87,12.76,149.85,149.85,0,0,0-5.81,16.31q-2.61,8.85-4.74,16.68-2.32,8.85-4.55,21.24T32,106.55q-1.94,12-3.39,22.12t-2,14.41a108.69,108.69,0,0,0,3.29,11.12Q31.63,159,34,165.07Z"/><path d="M229.25,27.17a17.16,17.16,0,0,1-.39,6.7c.9,2.37,1.68,4.64,2.33,6.83a29.68,29.68,0,0,0,2.32,5.81,13.66,13.66,0,0,0,3.58,4.3,10.65,10.65,0,0,0,6.1,2,27.73,27.73,0,0,1,6.39-2.65q4.44-1.4,11.81-2.91a124.82,124.82,0,0,1-2.81,17.82q-1.84,7.47-4.16,16.31a53.19,53.19,0,0,1-1.75,10.49q-1.35,4.92-3.09,9.86T246,112.11a83.39,83.39,0,0,0-3,11.76q-2.33,6.57-4.84,13.77t-5.43,15a42.51,42.51,0,0,0-7.55.64q-3.48.63-7,1.39c-2.33.5-4.72,1-7.17,1.51a54.91,54.91,0,0,1-8.32,1,37.92,37.92,0,0,0-2.52,3.16,9.18,9.18,0,0,0-1.16,5.19c.52,2.69,1,5.52,1.45,8.46s1,5.78,1.74,8.47A46.86,46.86,0,0,0,205,190.1a16.6,16.6,0,0,0,4.36,5.81,51.63,51.63,0,0,0,13.75-2.4q6.76-2.14,13.26-4a64.09,64.09,0,0,1,12.77-2.4,26.09,26.09,0,0,1,12.3,2,1.68,1.68,0,0,0,.38-1.64c-.13-.76.13-1.22.78-1.39,3.1-.33,6.45-.76,10.06-1.26a34.76,34.76,0,0,1,11,.25,28.42,28.42,0,0,1,2.9-3.67,3.14,3.14,0,0,1,3.29-1.13c.91-1.52,1.84-3.29,2.81-5.31a22.39,22.39,0,0,0,1.94-5.94,10.24,10.24,0,0,0-.49-5.44q-1-2.52-4.64-3.79a4.7,4.7,0,0,0-1.26-3.66,12.29,12.29,0,0,0-2.81-1.9,18.12,18.12,0,0,1-2.9-1.77c-.91-.67-1.49-1.93-1.74-3.79H267.58c1-2.86,1.9-5.44,2.61-7.71s1.42-4.59,2.13-7,1.49-4.89,2.33-7.59,1.9-6,3.19-9.85q-.19-2.54,1.65-11t4.35-19.21q2.52-10.74,4.94-22t3.39-19.59c3.87-.16,7.84-.38,11.9-.63a85.21,85.21,0,0,0,11.72-1.52,58.64,58.64,0,0,0,10.35-3A23.45,23.45,0,0,0,334,34.63c0-1.68,0-3.41.1-5.18a22.68,22.68,0,0,0-.29-4.8A7,7,0,0,0,332,21a7.71,7.71,0,0,0-4.36-2q-1.35-6.32-4.93-8.85a19.45,19.45,0,0,0-8.13-3.28,54.88,54.88,0,0,0-9.1-.76,20,20,0,0,1-8-1.52q-9.28.76-20.23,1.26t-21,1a11.71,11.71,0,0,1-5.62,2.65q-3.28.63-6.87,1l-7.26.76a27.17,27.17,0,0,0-7,1.64,7.59,7.59,0,0,1-.19,4.43c-.52,1.94-1.29,3.07-2.32,3.41Q228.87,22.75,229.25,27.17Z"/><path d="M329.1,56.88a7.71,7.71,0,0,0-4-3.42,9.39,9.39,0,0,0-5.72-.88,107.55,107.55,0,0,0-3.77,14.54Q314.2,74.83,313,83T310.42,99.6a118.71,118.71,0,0,1-4,16.18c.13,1,.23,2.32.3,3.91a25.82,25.82,0,0,1-.2,4.55,18.28,18.28,0,0,1-.77,3.54c-.33.93-.81,1.14-1.45.64a19.45,19.45,0,0,1,.67,8.72c-.45,2.78-1,5.65-1.64,8.59s-1.2,6-1.65,9.1a26.81,26.81,0,0,0,.68,10.24h-2.13q1,2,1.74,4.17c.52,1.43,1.1,2.07,1.74,1.9a7.82,7.82,0,0,0-.29,3.54c.2,1,.42,2,.68,2.9a20,20,0,0,1,.58,3,11,11,0,0,1-.38,3.91c1.67-.16,2.71.47,3.09,1.9s.78,2.91,1.16,4.42a4.24,4.24,0,0,1,3.1.51,19.31,19.31,0,0,1,1.74,1.52,12.29,12.29,0,0,0,1.75,1.39,3.64,3.64,0,0,0,2.9.12,13.92,13.92,0,0,0,2.61-2.78q1.06-1.52,4.17-.76a64.36,64.36,0,0,0,5.9-12.89,80,80,0,0,0,3-16.43,1.15,1.15,0,0,0,.68-1,1.15,1.15,0,0,1,.68-1q4.25,5.06,7.55,8.72a64.35,64.35,0,0,0,7.16,6.83,91.43,91.43,0,0,0,9.1,6.44,143.77,143.77,0,0,0,13.55,7.33q16.84,8.34,27.68,11.63t17.81-.25a4.86,4.86,0,0,0,3.2-1.77,20.18,20.18,0,0,0,2.22-3.29l1.94-3.54a12,12,0,0,1,2.32-3,4.67,4.67,0,0,0-1.84-.13c-.58.09-.93-.21-1.06-.88a11.44,11.44,0,0,0,1.64-5.44,30,30,0,0,0-.29-7.2,40.36,40.36,0,0,0-1.93-7.58,24.3,24.3,0,0,0-3.49-6.58c-3.48-.5-6.26-.92-8.32-1.26s-4-.72-5.81-1.14-3.84-1-6.1-1.77-5.39-1.72-9.39-2.91-7.13-2.18-9.39-3a29.07,29.07,0,0,1-6.19-3.16,61.49,61.49,0,0,1-6-4.68q-3.2-2.77-9-7.33c.25-1,.09-1.51-.49-1.51s-.87-.34-.87-1a138.37,138.37,0,0,1,17.23-8,109.62,109.62,0,0,0,17.91-8.84,49.37,49.37,0,0,0,14.32-13.4q5.91-8.22,6.68-21.62a25.31,25.31,0,0,0-.19-3.41,24.87,24.87,0,0,0-.48-2.53,12.69,12.69,0,0,1-.39-2.27,8,8,0,0,1,.29-2.66,79.42,79.42,0,0,1-3.1-9.35q-1.35-5.06-2.81-10a89.33,89.33,0,0,0-3.29-9.36,30.65,30.65,0,0,0-4.55-7.71V30.08c-1-.84-2-1.72-3-2.65s-2-1.81-3-2.66a38.58,38.58,0,0,0-9.48-12.26q-5.82-4.92-10.46-9.22a24.69,24.69,0,0,0-14.9,7.58,76,76,0,0,0-10.75,14.54q-4.74,8.2-9.39,16.81A64,64,0,0,1,329.1,56.88Zm22.27,24.64a57.9,57.9,0,0,1,5.32-9.1q3-4.17,6.1-8.09a55.72,55.72,0,0,0,5.61-8.72q4.46,2,8.52,7.71t5,15q-7.95,4.31-16.85,9a55,55,0,0,1-17,5.94A41,41,0,0,1,351.37,81.52Z"/><path d="M483.9,181q-.78-.51-1.26,0a2.12,2.12,0,0,0-.58,1.26,3.91,3.91,0,0,0,.1,1.52c.12.5.38.67.77.5a2,2,0,0,0,1,1.52l2.23,1.77a18.23,18.23,0,0,1,2.42,2.4,4.82,4.82,0,0,1,1.16,3.16q4.44,3,7.64,3.16a11.84,11.84,0,0,0,5.91-1.26,34.62,34.62,0,0,0,5.32-3.42,23.35,23.35,0,0,1,5.91-3.28,3.77,3.77,0,0,0,0-2.41,8.35,8.35,0,0,1-.78-1.89q1.74.25,3.39-2.78a45.74,45.74,0,0,0,3-6.95c.9-2.61,1.68-5.1,2.32-7.46a25.46,25.46,0,0,0,1-4.3q2.91-2.26,7.65-5.69a119.2,119.2,0,0,1,10.26-6.57,117.55,117.55,0,0,1,11.33-5.69,43.12,43.12,0,0,1,11.22-3.28c0,.17-.16,1.31-.48,3.41s-.65,4.34-1,6.7-.61,4.59-.87,6.7-.39,3.25-.39,3.41a27.25,27.25,0,0,0,2.62,13,64.15,64.15,0,0,0,6.68,10.74l-1,2.28a9.86,9.86,0,0,1,4,2.4,38.07,38.07,0,0,0,3.58,3.16q4.07-1.77,8.23-3.92a24.82,24.82,0,0,0,7.35-5.81,26.89,26.89,0,0,0,5-8.85,34.31,34.31,0,0,0,1.46-13,14.21,14.21,0,0,1-1.26-7.46,18.41,18.41,0,0,0-.29-6.69,17,17,0,0,0,2.9-5.06,64.9,64.9,0,0,0,2-6.19c.59-2.11,1.2-4.21,1.84-6.32a20.28,20.28,0,0,1,2.52-5.44A185.55,185.55,0,0,1,610,101.49q2.24-10.74,4-22.11-.19-9.87-.58-19.09t-1-18.07a28.63,28.63,0,0,1-5.71-8.6q-2.22-5.05-4.16-10.74T598.7,11.63a77.76,77.76,0,0,0-4.45-10.37,13.34,13.34,0,0,0-7.17,5.44,30.45,30.45,0,0,0-4.35,9.73,53.81,53.81,0,0,0-1.65,12,54.34,54.34,0,0,0,1,12.26A3.84,3.84,0,0,0,579.73,43a10.85,10.85,0,0,1-1.94,3,93.13,93.13,0,0,1-.39,24q-1.74,11.9-2.9,24a61.3,61.3,0,0,1-10.74,5.56,114.14,114.14,0,0,1-11.62,3.92q-5.91,1.64-12,3.28t-11.71,3.42q.77-2.53-.39-2.91a1.89,1.89,0,0,1-1.36-1.65q1-5,2-12.38t2.13-15.17q1-7.83,1.74-15.42t.87-13.4a82.1,82.1,0,0,0-5-10.11q-2.71-4.55-5.33-9.1t-4.84-9.35a52.83,52.83,0,0,1-3.58-11.12q-7.17,2.52-10.45,11.24a88.87,88.87,0,0,0-4.75,20.23Q498,52.59,497.55,65t-1.84,22.49a4.06,4.06,0,0,0-1.65-.12q-.68.12-.87,1.14a19.68,19.68,0,0,1,.78,6.19,57,57,0,0,1-.58,8,46.35,46.35,0,0,1-1.84,7.84,20.8,20.8,0,0,1-3,6.07,120.42,120.42,0,0,1-1.36,14,41.62,41.62,0,0,1-4.84,14.29,7.36,7.36,0,0,1,.58,3.54,16.51,16.51,0,0,1-.68,3c-.32,1-.61,2.11-.87,3.29a13.2,13.2,0,0,0,0,4.55c-.51-.68-.93-.8-1.25-.38a4.79,4.79,0,0,0-.78,1.89c-.19.85-.35,1.73-.48,2.66a4.53,4.53,0,0,1-.78,2.15,50.14,50.14,0,0,1,2.62,8.08A23,23,0,0,0,483.9,181Z"/><path d="M748.11,112.24l-3.48-1.77a5.46,5.46,0,0,1-1-.89c-.39-.42-.71-.79-1-1.13a22.61,22.61,0,0,0-2.42-2.66,7.33,7.33,0,0,0-4.55-1.64,15.36,15.36,0,0,1-1.35-1.52,9.83,9.83,0,0,1-1-1.51l-.77-3-2.52.25a13.57,13.57,0,0,0-5.42,1.52,5.92,5.92,0,0,0-2.32-.25,93.82,93.82,0,0,1-3.1-12.77q-1.17-6.69-2.13-14-.78-5.05-1.65-10.24t-1.84-10.23q-.2-6.31-.77-11.5t-1.36-10.5c-.26-1.51-.48-3-.67-4.55s-.42-3.2-.68-5.05l-1-2.28a14.54,14.54,0,0,0-6-4.42q-3.87-1.63-7.94-2.91-2.32-1-4.45-1.77a11.55,11.55,0,0,1-3.1-1.51l-3.09-2.53-2.33,4.3a146.12,146.12,0,0,1-10,17.31,36.41,36.41,0,0,1-11.32,11l-3.49-.76a5.64,5.64,0,0,0-2.22.38,11.81,11.81,0,0,0-1.65.88l-2.13-.25-1.35,2.53A57.54,57.54,0,0,0,645,50.56q-2,5.05-3.78,10.11c-1,2.87-2.1,5.65-3.19,8.34a96.37,96.37,0,0,1-4.36,9.1,10.88,10.88,0,0,0-.39,2.66,11.27,11.27,0,0,0,.2,2.14q-1.74,5.07-3.58,9.86t-3.59,9.61q-5.61,14.91-10.74,29.07t-10,29.58l-.19,5.3-2.52,2.53,2.9,3.79A12.26,12.26,0,0,1,607,177.2c.26,1.18.45,2.32.58,3.42a15.81,15.81,0,0,0,1,3.66l1.17,2a17,17,0,0,1,3.38,2.91q1.45,1.65,3.78,4.68l2.52.25a11,11,0,0,0,2.41-.25c.71-.17,1.91-.51,3.59-1l2.9-.51.58-3.29a8.35,8.35,0,0,1,2.71-2,32,32,0,0,0,2.81-1.77,7.53,7.53,0,0,0,2.42-3l.77-3.29a33.85,33.85,0,0,1,.87-7.58c.58-2.53,1.2-5.14,1.84-7.84.52-1.68,1-3.37,1.46-5.05a44.53,44.53,0,0,0,1.06-5.31,7,7,0,0,1,1-1,4.16,4.16,0,0,0,1-1.27l1.93-2.27-.77-2.78a2.56,2.56,0,0,1,.09-1.52,4.84,4.84,0,0,1,.68-1.52l2.52-.5L650,139c.26-1.17.55-2.4.87-3.66a36.14,36.14,0,0,1,1.26-3.92,15.45,15.45,0,0,0,1.55,5.81,9.22,9.22,0,0,0,.58,6.32c.9,1.69,1.68,3,2.32,4l.88,1.14a2,2,0,0,1,.48,1.13l.58,2.78,2.13.26a34.88,34.88,0,0,0,7,.75,35.89,35.89,0,0,0,9.29-1.13q4.26-1.14,8.71-2.66c2.07-.67,4.13-1.3,6.2-1.89a15.29,15.29,0,0,1,7.94.38q.38,8.09-1.55,11.25t-7.75,5.18L684,167.09l3.87,5.82q.76,1,1.35,1.89a10.11,10.11,0,0,0,1.36,1.65,18.91,18.91,0,0,1,2.8,4,5,5,0,0,1,.1,3.54l-.77,3.79,2.51,1.52a11.91,11.91,0,0,1,2.52,2,22.47,22.47,0,0,0,2.23,2,11.26,11.26,0,0,0,4,1.77,20,20,0,0,0,9.3-2.91,32.69,32.69,0,0,0,8-6.82,46.59,46.59,0,0,0,6.2-9.35A70.2,70.2,0,0,0,732,164.31a59.72,59.72,0,0,0,.1-11.25c-.32-3.62-.74-7.11-1.26-10.49a27.76,27.76,0,0,1-.48-3.54,23.85,23.85,0,0,0-.48-3.28,40.56,40.56,0,0,0,9.77-8.35A36.88,36.88,0,0,0,746.18,117ZM677.26,112q-5.81.76-12.58,1.27a14.22,14.22,0,0,1-2.62.25,15,15,0,0,0-2.61.25q2.5-5.55,5.23-10.61l.19-.26A129.46,129.46,0,0,1,672.23,88a171.19,171.19,0,0,1,9.29-14.66l1-2.53q2.12,9.85,4,19.59t3.39,19.09A101.68,101.68,0,0,1,677.26,112Z"/><path d="M798.79,196.16a19,19,0,0,0,4.17-1.89,7.8,7.8,0,0,0,2.8-2.91,73.07,73.07,0,0,0,23.14-8.72,180.67,180.67,0,0,0,21.39-14.54q2.72-3,3.49-4a25,25,0,0,0,1.54-2.28c.52-.84,1.29-2.18,2.33-4,.83-1.5,2.27-3.9,4.29-7.16.17,1.84.36,3.68.6,5.52q.69,5.18,1.36,10.11c.45,3.28.81,6.19,1.06,8.72a7.67,7.67,0,0,1,3.2,4.55,12.65,12.65,0,0,0,2.23,4.8A24.13,24.13,0,0,0,882,192.37a52.16,52.16,0,0,0,14.52,2.53,75.39,75.39,0,0,0,15-1c5-.85,9.26-1.68,12.88-2.53a7.48,7.48,0,0,1,3,.63,5.62,5.62,0,0,0,3.58.13q8.71-2,15.78-3.41a48.7,48.7,0,0,0,12.77-4.3,33.49,33.49,0,0,0,10.26-8.22A42.83,42.83,0,0,0,976,166a111.06,111.06,0,0,0,3.67,10.68,59.64,59.64,0,0,0,5.23,10.24,15.69,15.69,0,0,0,7.45,6.44,7.61,7.61,0,0,0,2.9-1.51q1.17-1,3.87-.51-.39-2-.87-2.28c-.32-.16-.22-.67.29-1.51,2.45.17,4.17-.46,5.13-1.9a13.78,13.78,0,0,0,2-5.18q.57-3,1-6.19a8.88,8.88,0,0,1,2.33-5.19,9.33,9.33,0,0,1-.49-5.05,16.44,16.44,0,0,1,1.46-4.17c.64-1.27,1.32-2.53,2-3.79a13,13,0,0,0,1.45-4.18c1,0,1.81-.75,2.32-2.27s1-3.2,1.55-5.06,1.1-3.62,1.74-5.3a5.28,5.28,0,0,1,2.91-3.29,103.07,103.07,0,0,0,12,28.06,112.31,112.31,0,0,0,17,21q6.39,3,10.35,2.15a14.77,14.77,0,0,0,7-3.67,48.2,48.2,0,0,0,5.52-6.06,21.45,21.45,0,0,1,5.81-5.31c-.65-2-.68-3.24-.1-3.67s.81-1.39.68-2.9c1,.17,1.61.46,1.74.88s.52.3,1.16-.38q2.33-5.55,4.46-11.12a27,27,0,0,1,5.8-9.35,120.37,120.37,0,0,1,3.1-14.29q2.13-7.71,3.87-15a110.35,110.35,0,0,1,.58-14.91q.78-6.83,1.75-13.15t2.13-12.89q1.15-6.57,1.74-14.16a12.06,12.06,0,0,0,3.29-4.29,28.78,28.78,0,0,0,1.84-5.56q.67-3,1.26-6.07a23.48,23.48,0,0,1,1.74-5.56,33.35,33.35,0,0,0-3.1-10.49q-2.32-4.68-5-9.74a11.54,11.54,0,0,1-5.81-3,55.73,55.73,0,0,1-4.45-4.93,39.28,39.28,0,0,0-4.55-4.8A11.13,11.13,0,0,0,1085.81,4a38.66,38.66,0,0,0-2.42,8c-.58,3-1.16,5.85-1.74,8.72a83.36,83.36,0,0,1-2.13,8.34,21.82,21.82,0,0,1-3.39,6.83q-1.74,14.66-3.38,28.81a222.19,222.19,0,0,1-4.65,26.55,103,103,0,0,1-8.13,22.49,46.79,46.79,0,0,1-13.46,16.44A104.59,104.59,0,0,1,1045,115q-.2-7.33,0-14.28t.38-13.66a114.88,114.88,0,0,0-.38-13.27c.51.17.87.13,1.06-.12a3.77,3.77,0,0,0,.48-.89,3.4,3.4,0,0,1,.49-.88,1.24,1.24,0,0,1,1.06-.38,11.47,11.47,0,0,1-.29-5.18,19.22,19.22,0,0,1,1.26-3.54,15.78,15.78,0,0,0,1.16-3.67,12.89,12.89,0,0,0-.58-5.56c.65.34,1.1.3,1.36-.13s.7-.54,1.35-.37a6.36,6.36,0,0,1-1-2.79,5.68,5.68,0,0,1,.2-1.64,2.84,2.84,0,0,0,.09-1.26,7,7,0,0,0-1.06-2.15c.26-.67.58-.84,1-.51s.71,0,1-1a41.55,41.55,0,0,0-4-13.52,45,45,0,0,0-7.26-10.49,53.14,53.14,0,0,0-9.39-8,81.73,81.73,0,0,0-10.55-5.94q-6,17.21-12.49,35t-13,35.39Q989.4,93.79,983,110.85t-12,32.73a12.57,12.57,0,0,1,1.84,5.19,32.26,32.26,0,0,0,.77,3.56,5.82,5.82,0,0,0-.44-.66,3.31,3.31,0,0,1-3.48-1,22.41,22.41,0,0,1-2.62-3.66c-.84-1.43-1.71-2.87-2.61-4.3a7,7,0,0,0-3.29-2.91,55.32,55.32,0,0,1-11.71,3.41,31,31,0,0,0-11.13,4.18,66.47,66.47,0,0,0-12.1.5c-3.29.51-6.49,1-9.59,1.52a89.17,89.17,0,0,1-9.87,1,57.17,57.17,0,0,1-13.16-1.27A127.73,127.73,0,0,1,899,133.85q3.09-7.2,6.58-13.78a14.59,14.59,0,0,0,6.29,1.27,14.77,14.77,0,0,1,6.29,1.26,8.29,8.29,0,0,1,5.33-.88,7.55,7.55,0,0,0,5.13-.89,2.57,2.57,0,0,0,1.64,1H932A24.68,24.68,0,0,0,942,120.33a39.61,39.61,0,0,0,8.62-4.55,73.59,73.59,0,0,0,7.65-6.2q3.68-3.4,7.55-6.7a13.22,13.22,0,0,0,.58-5.81,24.07,24.07,0,0,0-1.36-5.31A5.31,5.31,0,0,1,961,90.62a19.22,19.22,0,0,1-3.39-3.54c-1.1-1.42-2.16-2.9-3.2-4.42a19.46,19.46,0,0,0-3.29-3.79,3,3,0,0,1,.39-1.77,2.39,2.39,0,0,0,.19-1.77q-9.48.51-19.36,1.64a75.54,75.54,0,0,1-18,.13,15.31,15.31,0,0,1-.48-4.8,15.36,15.36,0,0,0-.87-5.56l4.16-1.52a9,9,0,0,0,3.58-2.53,7.8,7.8,0,0,0,4,0c1.09-.33,2.09-.67,3-1a10.53,10.53,0,0,1,2.61-.63,5.17,5.17,0,0,1,2.81.63,38.87,38.87,0,0,1,10.26-6.07,72.48,72.48,0,0,1,10.36-3.16q5.12-1.14,10.06-2.15a43.67,43.67,0,0,0,9.39-3,30.51,30.51,0,0,0,8.42-5.81,34,34,0,0,0,7.07-10.62,17.84,17.84,0,0,1-.39-3.16,9.4,9.4,0,0,1,.2-2c.12-.59.22-1.22.29-1.9a21.06,21.06,0,0,0-.1-3.28,43.74,43.74,0,0,1-8.13-5.94,25.94,25.94,0,0,1-6-8.73c.12.85.06,1.39-.2,1.65a.69.69,0,0,1-.87.12,12.52,12.52,0,0,0-1.16-.5,3.25,3.25,0,0,0-1.06-.25A8.11,8.11,0,0,0,971.34,8a8.65,8.65,0,0,1,.1,1.39,2.18,2.18,0,0,1-2.13-1.77h-1.26c-.32,0-.55-.25-.68-.75Q957.5,9.09,950,10.24t-14.52,2.53q-7,1.38-14.32,3.53a174.27,174.27,0,0,0-16.65,5.95q-5.24,1.52-9.88,2.65a44.81,44.81,0,0,0-8.61,3,31.26,31.26,0,0,0-7.26,4.81,24.7,24.7,0,0,0-5.61,7.45,69.54,69.54,0,0,1,1.54,10c.26,3.28.65,6.53,1.17,9.73A67.88,67.88,0,0,0,878,69.39a25.8,25.8,0,0,0,4.75,8.72,99.14,99.14,0,0,1-3.39,10.49q-1.85,4.68-3.58,9.23c-1.17,3-2.26,6.15-3.3,9.35s-2,6.66-2.9,10.37c-1-.34-1.64,0-1.84.88a1.86,1.86,0,0,1-1.45,1.64,9.54,9.54,0,0,1-.1,4.05,21.13,21.13,0,0,1-1.35,3.92c-.58,1.26-1.16,2.57-1.74,3.92a18.92,18.92,0,0,0-.87,2.5c-.15-.6-.33-1.22-.55-1.87q-1-2.91-2-6.07a47.44,47.44,0,0,1-1.65-6.19,3.35,3.35,0,0,1-2.51-2,34.39,34.39,0,0,0-4.75-7.71,82.35,82.35,0,0,0-5.9-6.44q-3.11-3-6.1-6.19a41.87,41.87,0,0,1-5.32-7,90.65,90.65,0,0,1,7.64-10.87,116.62,116.62,0,0,0,7.85-10.74A59.5,59.5,0,0,0,855,56.88a45.44,45.44,0,0,0,2.23-16.18,2,2,0,0,0-1.36-1.52c-.64-.16-.9-.76-.77-1.77a15.54,15.54,0,0,0-1.45-6.82A24.29,24.29,0,0,0,850,25c-1.49-1.69-3-3.33-4.65-4.93a28.8,28.8,0,0,1-4.16-5.19A4.35,4.35,0,0,1,838,13.4q-1.46-1.51-3.1-3.41a25.65,25.65,0,0,0-3.58-3.42,7,7,0,0,0-4.45-1.51c-.65.34-.71.88-.2,1.64s.52,1,0,.88a9.84,9.84,0,0,0-4.84-2.65,4.86,4.86,0,0,1-3.48-2.15,7.74,7.74,0,0,1-3.29.89c-1.29.08-2.65.12-4.07.12s-2.78,0-4.06.13a6.05,6.05,0,0,0-3.3,1.14A54.15,54.15,0,0,0,784.28,7q-9.1,2.66-16.07,5.44c-.65-.67-1-.84-1-.51s-.39.34-1.16,0q-5.62,1.51-11.62,3.54a54.94,54.94,0,0,0-11.32,5.31,44.51,44.51,0,0,0-9.59,8,28.31,28.31,0,0,0-6.19,11.5A69.54,69.54,0,0,0,736,58.65a37,37,0,0,0,13.46,12.13,10,10,0,0,1,4.84-.88,5.26,5.26,0,0,0,4.45-1.9,16.87,16.87,0,0,1,1.84-6.83,6.23,6.23,0,0,1,4.74-3,29.67,29.67,0,0,1,.2,8.85,49.21,49.21,0,0,1-1.65,7.2q-1.07,3.42-2,7a26.62,26.62,0,0,0-.78,8.09A88.94,88.94,0,0,0,758,101.37q-.78,4.8-1.45,9t-1.84,8.6a68.28,68.28,0,0,1-4.07,10.74,3,3,0,0,0,.39,1.77,8.69,8.69,0,0,1,.77,1.26,10.24,10.24,0,0,0-2.51,4.43,48.69,48.69,0,0,0-1.26,5.43c-.33,1.86-.68,3.67-1.07,5.44a8.79,8.79,0,0,1-2.32,4.42,18.05,18.05,0,0,1,1.55,6.32,3.33,3.33,0,0,0-1.94,1.77,12.62,12.62,0,0,0-.87,2.91,30.41,30.41,0,0,0-.39,3.54c-.06,1.26-.16,2.48-.29,3.66a29,29,0,0,0,2.71,7.21c1.17,2.11,1.42,3.83.78,5.18,1.16.34,2.06,1.39,2.71,3.16a6.81,6.81,0,0,1,.58,3.92,9.24,9.24,0,0,1,2.9,1.64,11.4,11.4,0,0,1,1.75,2l1.55,2.28a8.13,8.13,0,0,0,2.32,2.15c.77-1,1.58-1.44,2.42-1.27l4,.76a10.36,10.36,0,0,0,3-3.54,48.05,48.05,0,0,0,2.42-4.8c1.42,1.35,3.09,2.78,5,4.29a29.32,29.32,0,0,0,5.61,3.54,9.66,9.66,0,0,0,4.55,1.14c1.23-.09,1.91-1.14,2-3.16a1.94,1.94,0,0,1,1.06,1.64,1.92,1.92,0,0,0,1.07,1.65c1.41-.34,3-.68,4.74-1A40.29,40.29,0,0,0,798.79,196.16ZM797.44,43.23a74.58,74.58,0,0,1,23.62-2.78A105,105,0,0,1,808.47,57a59,59,0,0,1-16.26,12.26,20.14,20.14,0,0,0-6.29-8.84,64.53,64.53,0,0,1-8-7.59A55.09,55.09,0,0,1,797.44,43.23Zm-19,115.52q2.5-9.85,5.23-20.22t5.22-19a56.72,56.72,0,0,0,10.07-3,60.51,60.51,0,0,1,10.55-3.16,31.64,31.64,0,0,1,11.62-.13q6.09,1,13.45,6.32a8.23,8.23,0,0,1-1,5.56,17.79,17.79,0,0,1-3.29,3.67q-1.94,1.63-3.87,3.41A8.46,8.46,0,0,0,824,137q-5.61,2.79-10.84,5.94c-3.48,2.11-7,4.22-10.65,6.32A105.37,105.37,0,0,1,791.25,155,57.6,57.6,0,0,1,778.47,158.75Z"/><path d="M1179.24,70.78a10,10,0,0,1,4.84-.88,5.26,5.26,0,0,0,4.45-1.9,16.87,16.87,0,0,1,1.84-6.83,6.23,6.23,0,0,1,4.75-3,29.63,29.63,0,0,1,.19,8.85,49.21,49.21,0,0,1-1.65,7.2q-1.07,3.42-2,7a26.32,26.32,0,0,0-.77,8.09,87.74,87.74,0,0,0-3.1,12.14q-.78,4.8-1.45,9t-1.84,8.6a68.28,68.28,0,0,1-4.07,10.74,3,3,0,0,0,.39,1.77,8.69,8.69,0,0,1,.77,1.26,10.24,10.24,0,0,0-2.51,4.43,48.69,48.69,0,0,0-1.26,5.43c-.33,1.86-.68,3.67-1.07,5.44a8.79,8.79,0,0,1-2.32,4.42,18.05,18.05,0,0,1,1.55,6.32,3.33,3.33,0,0,0-1.94,1.77,12.62,12.62,0,0,0-.87,2.91,30.41,30.41,0,0,0-.39,3.54c-.06,1.26-.16,2.48-.29,3.66a29,29,0,0,0,2.71,7.21c1.17,2.11,1.42,3.83.78,5.18,1.16.34,2.06,1.39,2.71,3.16a6.81,6.81,0,0,1,.58,3.92,9.24,9.24,0,0,1,2.9,1.64,11.4,11.4,0,0,1,1.75,2l1.55,2.28a8.13,8.13,0,0,0,2.32,2.15c.77-1,1.58-1.44,2.42-1.27l4,.76a10.36,10.36,0,0,0,3-3.54,46,46,0,0,0,2.42-4.8q2.13,2,5,4.29a29.32,29.32,0,0,0,5.61,3.54,9.66,9.66,0,0,0,4.55,1.14c1.23-.09,1.91-1.14,2-3.16a1.92,1.92,0,0,1,1.06,1.64,1.94,1.94,0,0,0,1.07,1.65c1.42-.34,3-.68,4.74-1a40.94,40.94,0,0,0,4.94-1.27,18.91,18.91,0,0,0,4.16-1.89,7.9,7.9,0,0,0,2.81-2.91,73.1,73.1,0,0,0,23.13-8.72,180.67,180.67,0,0,0,21.39-14.54q2.72-3,3.49-4a25,25,0,0,0,1.54-2.28c.52-.84,1.29-2.18,2.33-4,.81-1.46,2.2-3.79,4.15-6.94.11,1.95.25,3.92.46,5.93a82.72,82.72,0,0,0,6.48,15.67A51,51,0,0,0,1308,185a35.16,35.16,0,0,0,12.48,7.84,29.66,29.66,0,0,0,15.49,1q8.91,2.52,15.49,1.26a57.2,57.2,0,0,0,13.55-4.55,16.21,16.21,0,0,0,6.58-.38,50.09,50.09,0,0,0,7.36-2.4,74.5,74.5,0,0,0,7.16-3.41,41,41,0,0,0,6-3.92c2.2-.67,4.32-1.3,6.39-1.9a17.7,17.7,0,0,0,5.81-2.9,46.92,46.92,0,0,1,8.52-7.46,26.64,26.64,0,0,0,7.74-8.22,17.11,17.11,0,0,0,4.45-5.94,42.87,42.87,0,0,0,3.1-8.46,55.23,55.23,0,0,0,1.49-8.88c.17.85.32,1.71.5,2.56a97.16,97.16,0,0,0,5.62,17.69,43.36,43.36,0,0,0,9.19,13.9,12.87,12.87,0,0,1,6.2,4.18,75.32,75.32,0,0,1,4.45,6.19,160.22,160.22,0,0,0,23.62,8.21,115,115,0,0,0,25,3.92,14.69,14.69,0,0,1,4.94-1.64,36.7,36.7,0,0,1,5.23-.38c1.74,0,3.41.09,5,.25a16.92,16.92,0,0,0,4.16,0c2.58-2.53,5.16-5.09,7.75-7.71a87.85,87.85,0,0,0,7.16-8.21A22.2,22.2,0,0,0,1538,167a23.38,23.38,0,0,0-2.9-6.45,61.92,61.92,0,0,0-4.06-5.44,38.24,38.24,0,0,1-4-5.68q-17-.26-34.37-1.65a114.44,114.44,0,0,1-32.81-7.45c-.9-2.36-1.78-4.68-2.61-7a31.24,31.24,0,0,1-1.65-8.22c.9-1.52,1.74-3,2.52-4.55a14.89,14.89,0,0,0,1.16-6.57q3.48-4.56,7-9.23t7.26-9a67.51,67.51,0,0,1,8.13-7.84,34.42,34.42,0,0,1,9.78-5.56,37.25,37.25,0,0,1,7.26-8,54.15,54.15,0,0,1,8.9-6,96.39,96.39,0,0,1,9.87-4.54q5.13-2,11.14-4.05a20.33,20.33,0,0,0,9.19-7.2,31.58,31.58,0,0,0,5.71-11.88,22.42,22.42,0,0,0-.39-12.39q-1.93-5.94-8.9-8.72a7.84,7.84,0,0,1,.58-2.53c.26-.51.06-1.18-.58-2a6.9,6.9,0,0,1-4-1.9,3,3,0,0,0-3.19-.88c.12-.34.41-1,.87-2s.16-1.6-.87-1.77c-.39,1.19-.75,1.69-1.07,1.52A3.87,3.87,0,0,1,1524.82,9a17.51,17.51,0,0,0-1.45-1.64,2,2,0,0,0-1.94-.5,34.52,34.52,0,0,1-3.87,1.39,2.61,2.61,0,0,1-3.29-1.39,13.34,13.34,0,0,1-4,4.8,56.36,56.36,0,0,1-5,3.28c-1.74,1-3.49,2.11-5.23,3.29a16.67,16.67,0,0,0-4.36,4.3,27.59,27.59,0,0,0-8.51,4.3,85.56,85.56,0,0,0-7.17,6.06,76.78,76.78,0,0,1-7.26,6.07,28.84,28.84,0,0,1-8.61,4.3,14.12,14.12,0,0,1-2.9,3.91l-3.49,3.29a30.75,30.75,0,0,0-3.29,3.67,13.93,13.93,0,0,0-2.32,4.8,3.37,3.37,0,0,0-2.13-.76q-3.3,4.8-6.68,9.48t-6.49,9.86a100.26,100.26,0,0,0-5.61,10.87,79,79,0,0,0-4.26,12.51c-.11,5.1,0,10.42.3,15.94-.31-1-.61-2-.94-3a58.12,58.12,0,0,1-1.74-6.69,22.81,22.81,0,0,1-.29-7,237.83,237.83,0,0,1-10.07-24.9q-4.46-13-9.87-24.9a7,7,0,0,0,.58-3.79c-.13-1.17-.58-1.81-1.36-1.89s-1.16-.8-1.16-2.15a6.62,6.62,0,0,0,3.1-4.68c.51-2.27,1.1-4.42,1.74-6.44a22.36,22.36,0,0,0-.87-3c-.32-.84-.65-1.6-1-2.27a16.5,16.5,0,0,1-.87-2.28,32.09,32.09,0,0,1-.77-3.28c-.65-.17-1.07-.09-1.26.25s-.61.5-1.26.5a8,8,0,0,0-1.74-4.29c-.91-1-1.81-2-2.71-2.91a24.85,24.85,0,0,1-2.52-3,9.05,9.05,0,0,1-1.35-4.68q-2.72-3.54-6-3.92a13.36,13.36,0,0,1-6.2-2.4,32.43,32.43,0,0,0-4.45,4.55,28.14,28.14,0,0,0-3.29,6.32,24.15,24.15,0,0,1-4,.51,29.86,29.86,0,0,0-3.39.25q-2.72,4.8-4.65,7.83a18,18,0,0,1-6.19,5.57v3.28a10.32,10.32,0,0,0-3.29,2,29.19,29.19,0,0,0-2.62,2.79,24.57,24.57,0,0,1-2.71,2.78,8.25,8.25,0,0,1-3.38,1.77,15.47,15.47,0,0,1-2.23,3.79,33.6,33.6,0,0,1-2.71,2.9,35.25,35.25,0,0,0-2.71,2.91,11.76,11.76,0,0,0-2,3.79,4.92,4.92,0,0,0-2,1.77,27.64,27.64,0,0,0-1.54,2.53,7,7,0,0,1-1.55,2,1.8,1.8,0,0,1-2.23,0l-12.87,20A159.63,159.63,0,0,0,1301,99.6a121.75,121.75,0,0,0-7.94,25.91c-.51,2.65-.89,5.39-1.16,8.2-.11-.37-.22-.74-.35-1.12q-1-2.91-2-6.07a45.83,45.83,0,0,1-1.64-6.19,3.37,3.37,0,0,1-2.52-2,34.36,34.36,0,0,0-4.74-7.71,84.48,84.48,0,0,0-5.91-6.44q-3.09-3-6.1-6.19a41.87,41.87,0,0,1-5.32-7,89.6,89.6,0,0,1,7.65-10.87,118.43,118.43,0,0,0,7.84-10.74,59.5,59.5,0,0,0,6.09-12.51,45.44,45.44,0,0,0,2.23-16.18,2,2,0,0,0-1.35-1.52c-.65-.16-.91-.76-.78-1.77a15.54,15.54,0,0,0-1.45-6.82,24.29,24.29,0,0,0-3.68-5.56q-2.22-2.54-4.64-4.93a28.43,28.43,0,0,1-4.17-5.19,4.35,4.35,0,0,1-3.19-1.51q-1.45-1.51-3.1-3.41a25.65,25.65,0,0,0-3.58-3.42,7,7,0,0,0-4.45-1.51c-.65.34-.71.88-.2,1.64s.52,1,0,.88a9.84,9.84,0,0,0-4.84-2.65,4.86,4.86,0,0,1-3.48-2.15,7.74,7.74,0,0,1-3.29.89c-1.29.08-2.65.12-4.07.12s-2.77,0-4.06.13a6,6,0,0,0-3.29,1.14A54.18,54.18,0,0,0,1214.09,7Q1205,9.61,1198,12.39c-.65-.67-1-.84-1-.51s-.39.34-1.16,0q-5.62,1.51-11.62,3.54A54.94,54.94,0,0,0,1173,20.73a44.21,44.21,0,0,0-9.58,8,28.21,28.21,0,0,0-6.2,11.5,69.24,69.24,0,0,0,8.62,18.46A36.87,36.87,0,0,0,1179.24,70.78Zm145.25,61.3a72,72,0,0,1,4.36-10.24c1.67-3.2,3.39-6.36,5.13-9.48a60.66,60.66,0,0,0,4.55-10.49c.77-.33,1.22-.42,1.35-.25s.52,0,1.16-.5a81.11,81.11,0,0,1,12.1-15.43q6.69-6.57,13.46-13.65a9.39,9.39,0,0,0,2.61,2,6.3,6.3,0,0,0,2.91.75,4.2,4.2,0,0,0,2.61-.88,5.88,5.88,0,0,0,1.74-3.41c.9,1.18,1.74,1.35,2.52.5a6.72,6.72,0,0,0,1.55-2.53,162.38,162.38,0,0,1,8.51,20.35,123,123,0,0,0,8.72,19.85,25.61,25.61,0,0,0,.29,4.55,19.08,19.08,0,0,0,1.26,3.79,12.69,12.69,0,0,1-1.75,6.57,20.39,20.39,0,0,0-2.51,5.31q-7.56,5.06-14.52,10a32.88,32.88,0,0,1-15.1,5.94c-1,0-1.55.76-1.55,2.27a45.92,45.92,0,0,0-10.07,1.27,104.45,104.45,0,0,1-11.23,1.89,39.46,39.46,0,0,1-10.93-.25,15.57,15.57,0,0,1-9.2-5.18A43.47,43.47,0,0,1,1324.49,132.08Zm-60.07-12.51a8.23,8.23,0,0,1-1,5.56,17.79,17.79,0,0,1-3.29,3.67q-1.94,1.63-3.87,3.41a8.46,8.46,0,0,0-2.52,4.8q-5.61,2.79-10.84,5.94t-10.65,6.32a105.37,105.37,0,0,1-11.22,5.69,57.44,57.44,0,0,1-12.78,3.79q2.52-9.85,5.23-20.22t5.22-19a56.72,56.72,0,0,0,10.07-3,60.51,60.51,0,0,1,10.55-3.16,31.64,31.64,0,0,1,11.62-.13Q1257.06,114.26,1264.42,119.57Zm-37.17-76.34a74.65,74.65,0,0,1,23.62-2.78A104.93,104.93,0,0,1,1238.29,57,59.2,59.2,0,0,1,1222,69.26a20.14,20.14,0,0,0-6.29-8.84,65.23,65.23,0,0,1-8-7.59A55.09,55.09,0,0,1,1227.25,43.23Z"/><path d="M1541.72,143.84c.52.5.74.92.68,1.26s-.16.85-.29,1.52a1.37,1.37,0,0,0-.49,1.26.85.85,0,0,1-.67,1,6.06,6.06,0,0,0-.68,3.67,16.77,16.77,0,0,0,.87,3.16,10.35,10.35,0,0,1,.68,3,5.05,5.05,0,0,1-1.26,3.29,37,37,0,0,1,4.07,3.79,6.92,6.92,0,0,0-1.07,5,27.92,27.92,0,0,0,1.55,5.19c.71,1.77,1.42,3.7,2.13,5.81a20.85,20.85,0,0,1,1.06,6.7,7.65,7.65,0,0,1,3.1,1.77c.9.84,1.81,1.73,2.71,2.65a13.11,13.11,0,0,0,2.9,2.28,7.32,7.32,0,0,0,3.68.88,33.63,33.63,0,0,0,11.91-11.5q4.74-7.46,9-15.92t8.81-16.69a47.14,47.14,0,0,1,11.32-13.78,3.25,3.25,0,0,0,2,.76,1.82,1.82,0,0,1,1.64,1.27,53.11,53.11,0,0,0,6.68,9.22q3.78,4.17,7.84,8.47c2.2,2,4.61,4.22,7.26,6.57a41.46,41.46,0,0,0,5.71,4.55,5.17,5.17,0,0,0,3.29.51,4.43,4.43,0,0,1,3.49,1,7.56,7.56,0,0,1,.87,1.77,2.58,2.58,0,0,0,1.06,1.52,51.55,51.55,0,0,0,16.46,5.56,101.45,101.45,0,0,0,19.55.76,37.22,37.22,0,0,0,13.07-12q4.93-7.46,5.32-19.34a56.45,56.45,0,0,1-3.77-4.42q-1.65-2.15-3.39-4.17a45.61,45.61,0,0,0-3.68-3.8,17.71,17.71,0,0,0-4.84-3c-.77-.16-1.13.13-1.06.89a1.16,1.16,0,0,1-.87,1.39q-8.72,0-16.85-.26a53.8,53.8,0,0,1-15.1-2.52,34.83,34.83,0,0,1-12.58-7.33q-5.61-5.06-9.1-14.92a6.8,6.8,0,0,1,2-3.29,8.07,8.07,0,0,0,2.23-3.28c.51-.17,1-.29,1.36-.38a6.57,6.57,0,0,1,1.35-.13,13.16,13.16,0,0,1,2.61-4.29q1.65-1.77,3.49-3.42c1.22-1.09,2.42-2.23,3.58-3.41a16.28,16.28,0,0,0,2.9-4,112.73,112.73,0,0,1,10.36-9.36c3.42-2.69,6.78-5.31,10.07-7.83s6.51-5.19,9.68-8a88.48,88.48,0,0,0,9.39-9.73,30.87,30.87,0,0,1,1.84-5.94c.7-1.6,1.32-3.07,1.84-4.42a16.21,16.21,0,0,0-1.36-6.7,13.86,13.86,0,0,0-2.81-3.67c-1.1-1-2.19-2.06-3.29-3.16a13,13,0,0,1-2.81-4.93,6.49,6.49,0,0,1-5.22-3.41c-1.29-2.1-2.59-4.08-3.87-5.94a55.45,55.45,0,0,0-5.52,3.29,28.77,28.77,0,0,1-5.91,3c-.13,1.35.07,2.15.58,2.4s.71,1,.59,2.15a10.91,10.91,0,0,0-2-1.26c-.71-.34-1.71-.17-3,.5Q1649,29.07,1645.2,32T1637.94,38q-3.5,3.16-6.88,6.83c-2.26,2.44-4.87,5-7.84,7.71q-5.61,5.82-13.16,12.39a89.63,89.63,0,0,0-13.17,14.15,59.38,59.38,0,0,1,.88-7.08,65.71,65.71,0,0,1,1.83-7.58,44.78,44.78,0,0,1,2.91-7.2,24.62,24.62,0,0,1,3.87-5.69,3,3,0,0,1-.77-1.64,2.94,2.94,0,0,1,.29-1.27,8.38,8.38,0,0,0,.48-1.39,6.47,6.47,0,0,0,0-2.27,10.15,10.15,0,0,0,4.45-6.45A21.36,21.36,0,0,0,1611,30a35.07,35.07,0,0,0-2.71-8.6,27.91,27.91,0,0,0-4.46-6.95l-3.48.76a10.36,10.36,0,0,1-1.55-2.91,16.36,16.36,0,0,0-1.35-2.91,10.5,10.5,0,0,1-3.3-.5,16.11,16.11,0,0,1-2.9-1.27c-.9-.5-1.84-1-2.81-1.39a12.57,12.57,0,0,0-3.19-.88,19.7,19.7,0,0,0-6.1,7.08,69.08,69.08,0,0,0-3.87,9q-1.65,4.68-3.29,9.23a29.17,29.17,0,0,1-4.16,7.83A211.48,211.48,0,0,1,1562,64.59q-3.59,12-7.16,23.89t-6.58,24.39a162.17,162.17,0,0,0-4,27.68l-1.94,1C1541.65,141.9,1541.46,142.66,1541.72,143.84Z"/><path d="M187.78,404.16q3.67-11.39,7.36-22.5t7.94-21.74a105.34,105.34,0,0,0-2.42-15.8,50,50,0,0,0-4.46-11.88,51.49,51.49,0,0,0-6.58-9.48,77.1,77.1,0,0,0-9-8.6,83.44,83.44,0,0,0-4.74,10q-2.43,5.94-4.94,13.15T166,352.46q-2.42,8-4.74,16.05-3.28,11.13-6.58,21.62T148,409.59a152.37,152.37,0,0,1-7,15.93,42,42,0,0,1-7.45,10.74l-9.29,9.35a17.18,17.18,0,0,1-1.84-5.43c-.33-1.94-.62-3.83-.87-5.69a47.46,47.46,0,0,1-.39-6.07q0-4,.1-6.32t.48-5.56q.39-3.29,1.35-9.1T126,390.25c.39-2.52.8-5.14,1.26-7.83s.87-5.35,1.25-8,.75-5,1.07-7.2.55-4,.68-5.31a33.23,33.23,0,0,0-2.23-5.06l-2.81-5.05q-1.16-2-2.42-4.17t-2.61-4.93a16.16,16.16,0,0,1-6.1-4.3c-1.87-2-3.52-4-4.93-5.81a62.35,62.35,0,0,0-6.78,10q-3.68,6.45-7.55,14t-7.65,15.93Q83.45,380.9,80,388.23q-3.87,8.59-6.68,14.79t-5.42,11.37a106.29,106.29,0,0,1-5.71,10q-3.09,4.8-7.55,10.62-3.29,4.29-6.77,8.09a79.74,79.74,0,0,1-6.29,6.32,20.37,20.37,0,0,1-6.1,4q1-9.34,2-17.19t2-13.4q1.17-6.57,2.33-11.62,1.35-6.33,3.67-15.05t4.75-18.07q2.41-9.35,4.64-18.58t3.39-16.81a64.1,64.1,0,0,1-7.36-8.22,86.74,86.74,0,0,1-6.38-10.23A10.57,10.57,0,0,1,42,322.63a11.63,11.63,0,0,1-2.52-3.16q-4.26,1-7.93,6.32a72.34,72.34,0,0,0-6.88,12.77,147.61,147.61,0,0,0-5.8,16.3q-2.62,8.85-4.75,16.69-2.33,8.85-4.55,21.23T5.42,417.17q-1.93,12-3.39,22.12T0,453.7a108.18,108.18,0,0,0,3.29,11.13Q5,469.63,7.36,475.7c.64,1.35,1.29,2.86,1.93,4.54s1.29,3.46,1.94,5.31A48.69,48.69,0,0,0,18,493.39a57.81,57.81,0,0,0,7.36,5.31c.77.5,1.58,1,2.42,1.52s1.77,1.09,2.81,1.77A41.25,41.25,0,0,0,47,498.19,64.51,64.51,0,0,0,61.37,489a127.32,127.32,0,0,0,13-12.64q6.19-7,12.2-14.28l2.32-3,4.06-4.8,2.71-3.29,1.94,4.81,3.29,7.83c.52,1.18,1,2.32,1.45,3.42s.87,2.23,1.26,3.41q4.65,11.63,9.49,21.1a34.43,34.43,0,0,0,12.77,14.29,9.58,9.58,0,0,1,2.62-2A7.74,7.74,0,0,1,132,503a17.92,17.92,0,0,1,4.65.75,81.09,81.09,0,0,0,17.13-18.58A164.11,164.11,0,0,0,167.26,461a293.7,293.7,0,0,0,10.94-27.68Q183.14,418.83,187.78,404.16Z"/><path d="M321.52,422.86,318,421.09a5.32,5.32,0,0,1-1-.88c-.38-.42-.71-.8-1-1.14a25.47,25.47,0,0,0-2.42-2.65,7.3,7.3,0,0,0-4.55-1.65,14.25,14.25,0,0,1-1.36-1.51,10.41,10.41,0,0,1-1-1.52l-.77-3-2.52.25a13.62,13.62,0,0,0-5.42,1.52,5.8,5.8,0,0,0-2.32-.26,96.34,96.34,0,0,1-3.1-12.76q-1.16-6.7-2.13-14c-.52-3.37-1.06-6.78-1.64-10.24s-1.2-6.86-1.84-10.24q-.19-6.31-.78-11.5c-.38-3.45-.84-6.95-1.35-10.49-.26-1.52-.49-3-.68-4.55s-.42-3.2-.68-5.06l-1-2.27a14.45,14.45,0,0,0-6-4.42,82.39,82.39,0,0,0-7.93-2.91c-1.55-.67-3-1.27-4.46-1.77a11.28,11.28,0,0,1-3.09-1.52l-3.1-2.53-2.32,4.3a147.13,147.13,0,0,1-10,17.32,36.51,36.51,0,0,1-11.33,11l-3.48-.76a5.66,5.66,0,0,0-2.23.38,11.86,11.86,0,0,0-1.65.89l-2.13-.25-1.35,2.52a57.91,57.91,0,0,0-5.13,9.86c-1.36,3.38-2.61,6.74-3.78,10.11-1,2.87-2.1,5.65-3.19,8.35a97.56,97.56,0,0,1-4.36,9.1,10.74,10.74,0,0,0-.38,2.65,11.32,11.32,0,0,0,.19,2.15q-1.74,5.06-3.58,9.86t-3.58,9.6q-5.62,14.92-10.75,29.07t-10,29.58l-.19,5.31-2.52,2.53,2.91,3.79a12.38,12.38,0,0,1,1.16,4.55c.26,1.18.45,2.32.58,3.41a15.33,15.33,0,0,0,1,3.67l1.16,2a16.78,16.78,0,0,1,3.39,2.91c1,1.1,2.22,2.65,3.77,4.67l2.52.26a10.44,10.44,0,0,0,2.42-.26c.71-.17,1.9-.5,3.58-1l2.9-.5.58-3.29a8.21,8.21,0,0,1,2.71-2,32.85,32.85,0,0,0,2.81-1.77,7.5,7.5,0,0,0,2.42-3l.78-3.28a33.87,33.87,0,0,1,.87-7.59q.87-3.78,1.84-7.83.76-2.52,1.45-5.06a44.36,44.36,0,0,0,1.06-5.3,7,7,0,0,1,1-1,4,4,0,0,0,1-1.26l1.93-2.28-.77-2.78a2.47,2.47,0,0,1,.1-1.51,4.63,4.63,0,0,1,.67-1.52l2.52-.5.78-3.29c.25-1.18.54-2.4.87-3.67a35.37,35.37,0,0,1,1.26-3.92,15.25,15.25,0,0,0,1.54,5.82,9.28,9.28,0,0,0,.58,6.32c.91,1.68,1.68,3,2.33,4l.87,1.14a2,2,0,0,1,.48,1.14l.58,2.78,2.13.25a34.27,34.27,0,0,0,7,.76,35.82,35.82,0,0,0,9.29-1.14q4.26-1.14,8.72-2.65c2.06-.67,4.13-1.31,6.19-1.9s4.71-.46,7.94.38q.39,8.1-1.55,11.25t-7.74,5.18l-6.39,2.28,3.87,5.81c.51.68,1,1.31,1.35,1.9a10,10,0,0,0,1.36,1.64,19.7,19.7,0,0,1,2.81,4,5.07,5.07,0,0,1,.09,3.54l-.77,3.8,2.52,1.51a12,12,0,0,1,2.51,2,23.65,23.65,0,0,0,2.23,2,11.51,11.51,0,0,0,4,1.77,20,20,0,0,0,9.29-2.91,32.34,32.34,0,0,0,8-6.83,45.89,45.89,0,0,0,6.2-9.35,70.07,70.07,0,0,0,4.55-11.75,59.71,59.71,0,0,0,.09-11.25q-.48-5.43-1.25-10.49a29.92,29.92,0,0,1-.49-3.54,21.25,21.25,0,0,0-.48-3.29,40.74,40.74,0,0,0,9.77-8.34,37.16,37.16,0,0,0,6.49-10.36Zm-70.86-.25q-5.81.76-12.58,1.26a14.26,14.26,0,0,1-2.62.26,14,14,0,0,0-2.61.25c1.68-3.71,3.42-7.24,5.23-10.62l.19-.25a131.14,131.14,0,0,1,7.36-14.91,172.3,172.3,0,0,1,9.29-14.67l1-2.52q2.13,9.85,4,19.59t3.39,19.08A103.84,103.84,0,0,1,250.66,422.61Z"/><path d="M438.21,340.46a15.18,15.18,0,0,0-1.35-5.31q-1.17-2.53-2.62-5.19c-1-1.77-1.9-3.58-2.8-5.43a29.35,29.35,0,0,1-2.13-5.82,56.94,56.94,0,0,0-24.39-3.91,91,91,0,0,0-22.66,4.67q-11,3.79-21.58,8.6a117.1,117.1,0,0,1-21,7.33c-.25.84-.13,1.26.39,1.26s.78.34.78,1q-4.06,1.53-8.71,3.67a50.13,50.13,0,0,0-8.91,5.31,41.35,41.35,0,0,0-7.84,7.71,30.2,30.2,0,0,0-5.32,11.12,22.3,22.3,0,0,1-.1,6.32q-.49,2.28-1.26,6.32a9.28,9.28,0,0,1,1.36,5.18c-.13,1.61-.39,3.67-.78,6.2a29.58,29.58,0,0,0,2.61,4.93,52.43,52.43,0,0,1,2.81,4.67c1.42-.33,2.32-.12,2.71.63a12.87,12.87,0,0,1,1,2.66,49.21,49.21,0,0,0,14,5.31,108.25,108.25,0,0,0,15.39,2,54.39,54.39,0,0,1,5.61,2q2.32,1,4.65-1a45,45,0,0,0,9.48,5,62.69,62.69,0,0,1,10.65,5.57,1.87,1.87,0,0,1,.87.25c.32.17.68.34,1.07.5a2.45,2.45,0,0,0,.38,1.52,8.85,8.85,0,0,0,.78.89,2.59,2.59,0,0,1,.58.88,3.17,3.17,0,0,1,0,1.52,14.78,14.78,0,0,1-1.74,4.67,31.17,31.17,0,0,1-2.52,3.54q-1.37,1.65-2.62,3.42a11.8,11.8,0,0,0-1.83,4.29q-5.43,3.56-11.13,7.71a121.62,121.62,0,0,1-12,7.71,61.89,61.89,0,0,1-13.36,5.57,37.22,37.22,0,0,1-15,1,8,8,0,0,0-3.29,4.93A24,24,0,0,0,318,476q.19,3.29.49,6.44a11.29,11.29,0,0,1-.68,5.44,1.26,1.26,0,0,0,.29,1.26,8.8,8.8,0,0,0,1,.89,1.51,1.51,0,0,1,.58.76c.06.25-.17.63-.68,1.13l-.39,1a4.53,4.53,0,0,0-.19,1.52c.64,0,.93.47.87,1.39s.22,1.48.87,1.64a18.14,18.14,0,0,0,2,4.81,49,49,0,0,0,2.8,4,17.26,17.26,0,0,1,5.13-.25c1.74.16,3.49.29,5.23.38a18,18,0,0,0,4.84-.38,7.4,7.4,0,0,0,4-2.53c-.39,1.18-.23,1.68.48,1.52a3.36,3.36,0,0,1,1.84,0,129.78,129.78,0,0,0,17.23-8.22,104.58,104.58,0,0,0,16.55-11.63,82.39,82.39,0,0,0,14-15.54,68.18,68.18,0,0,0,9.48-20,32.51,32.51,0,0,0,1.65-11.88q-.28-6.07-.68-13.65a35.52,35.52,0,0,0-4.35-9,22.47,22.47,0,0,1-3.59-8c-.77-1.18-1.45-1.6-2-1.26s-1.13-.34-1.64-2a22,22,0,0,0-.58-6.19,23.33,23.33,0,0,0-2.52-6.44,19.5,19.5,0,0,0-4.26-5.19,10.15,10.15,0,0,0-6-2.4,6.72,6.72,0,0,0-2.52-4.42,15,15,0,0,0-4.35-2.15c-1.62-.51-3.2-1.05-4.75-1.64a7.24,7.24,0,0,1-3.68-3.16c.26-1,.2-1.69-.19-2a1.84,1.84,0,0,1-.39-1.77,59.67,59.67,0,0,0,7.36-1.39,10.41,10.41,0,0,0,5.61-3.41,10.85,10.85,0,0,0,5.81-.63q3.09-1.14,6.29-2.28a21.09,21.09,0,0,1,6.1-1.26c1.94-.08,3.61.88,5,2.91,4.64-.67,9.87-1.27,15.68-1.77a44.18,44.18,0,0,1,17.42,2,58.9,58.9,0,0,0,4.84-3.79q2.33-2,4.45-4.05,1-5.31-.48-8.47A26.55,26.55,0,0,0,438.21,340.46Z"/><path d="M529.41,444.35q7.26-6.57,14.62-13.15,10.26-8.83,20.23-18.07a93.76,93.76,0,0,0,17.52-22.37,44,44,0,0,1,3.68-3.79,15.11,15.11,0,0,0,3.29-4.55q4.65-3.8,9.49-7.84a43.69,43.69,0,0,0,8.32-9.23,34,34,0,0,0,4.94-11.75,38.1,38.1,0,0,0-.29-15.42,10.39,10.39,0,0,1-4.65-3.92,16.49,16.49,0,0,1-2.13-7.71q-4.45-6.06-10.65-7.2a21.82,21.82,0,0,0-12.39,1.39,54.07,54.07,0,0,0-17.13-1.27q-8.41.76-16.55.76A40.86,40.86,0,0,0,533,317.7a93.65,93.65,0,0,0-19,2.53,4.68,4.68,0,0,1-1.64-.25,7.31,7.31,0,0,0-2.81,0,24.93,24.93,0,0,1-2.42,1.39,20.53,20.53,0,0,1-2.81,1.14,43.2,43.2,0,0,0-1.16,11.63,52.36,52.36,0,0,0,1.65,11.62,46,46,0,0,0,4.06,10.37,26.38,26.38,0,0,0,6.29,7.83q4.46-.24,8-.5c2.39-.17,4.74-.42,7.07-.76,2.83-.33,6.22-.76,10.16-1.26a86.64,86.64,0,0,1,11.13-.76l7-.26-5,6.32a9.25,9.25,0,0,1-3.78,5.19,23.14,23.14,0,0,0-4.36,3.66,8.23,8.23,0,0,0-1.06,1.14,7.72,7.72,0,0,1-1.07,1.14,6.4,6.4,0,0,1-.77,3.79,3.86,3.86,0,0,1-3.29,1,59.48,59.48,0,0,1-8.9,9q-4.85,3.93-9.88,7.71-6,4.56-11.61,9.48a54.29,54.29,0,0,0-9.49,10.75l-1.94,1.51a7.11,7.11,0,0,0-3.58,1.9,39.73,39.73,0,0,0-3.77,3.92q-1.93,2-4.07,4.17a16.66,16.66,0,0,1-4.84,3.41q-2.33,5.82-4.16,10.87a67.63,67.63,0,0,0-2.9,10.62,82.28,82.28,0,0,0-1.36,11.63,111.06,111.06,0,0,0,.29,13.65,7.59,7.59,0,0,1,2.32,3.28,32.86,32.86,0,0,1,1.17,3.54,7.09,7.09,0,0,0,.77,2.53l2.32.76.2,3a9.45,9.45,0,0,0,2.13,5.06q1.94,2.54,4.26,5.05c1.8,1.68,3.41,3.29,4.84,4.81l3.67-3.54,2.71,6.57c1,.34,1.94.67,2.71,1,.91.17,1.78.29,2.62.38s1.71.13,2.61.13a34.47,34.47,0,0,0,7.45-.76q3.39-.76,7.26-2c2.33-.68,4.81-1.36,7.46-2s6-1.6,10-2.78c.38-.67.77-1.3,1.16-1.89a13.25,13.25,0,0,1,1.55-1.9l5-4.3L545,503.5c1.8-.84,3.55-1.55,5.22-2.15s3.42-1.22,5.23-1.89q12.39-4.8,23.52-10.37a53.07,53.07,0,0,0,18.68-15.42,54,54,0,0,0,.59-9.48,12.43,12.43,0,0,0-3.1-7.2l-4.07,5.81-.77-8.34a4.46,4.46,0,0,0-1-2.4,16.48,16.48,0,0,0-2.52-2.15,20.39,20.39,0,0,1-2.42-1.89,10.85,10.85,0,0,1-2.22-2.91c-1.81.67-3.58,1.43-5.33,2.27s-3.51,1.69-5.32,2.53q-4.46,2.28-9.1,4.17a25.27,25.27,0,0,1-9.68,1.9,17.35,17.35,0,0,1-3.58,2q-1.85.76-3.39,1.26c-1.29.51-2.55,1.06-3.77,1.65a36.69,36.69,0,0,0-4.75,2.91l-2.12-.51a6.32,6.32,0,0,0-2.42.63l-3.2,1.39a23.77,23.77,0,0,1-3.77,1.77,11.78,11.78,0,0,1-4.17.76,8.06,8.06,0,0,1-6.58-3.54l-2.13-3,2.52-2.78A187.72,187.72,0,0,1,529.41,444.35Z"/><path d="M735.26,350.31c-.91-3-1.74-6.19-2.52-9.48a69.44,69.44,0,0,1-1.55-11.75q-2.52-3.54-5.51-7.08a62,62,0,0,0-6.49-6.57,13.28,13.28,0,0,0-6.58,8.59,7.65,7.65,0,0,0-.48,2.15,4.66,4.66,0,0,0,.48,2.4l.58,3.29q-.39,5.06-4.07,7.33-.39,8.34-1.74,17.95a183,183,0,0,1-3.77,19.21,138.32,138.32,0,0,1-6.1,18.58A93.91,93.91,0,0,1,689.18,411a138.58,138.58,0,0,1-9.29,12.26,79.23,79.23,0,0,1-9.29,9.23,57,57,0,0,1-10.45,6.95,83.5,83.5,0,0,1-12.59,5.18l-4.26.51-1.16-4.05a63.43,63.43,0,0,1-1.93-11.88,121.93,121.93,0,0,1-.29-14.79,120.53,120.53,0,0,1,1.54-15.29,64.91,64.91,0,0,1,3.59-13.4A48.17,48.17,0,0,0,643.3,375q-1.54-5.68-3.29-11c-.64-1.85-1.23-3.62-1.74-5.31s-1-3.45-1.35-5.3a11.91,11.91,0,0,1-5.23-4.93,38.87,38.87,0,0,1-2.71-5.94,25.37,25.37,0,0,0-2.42-5.06q-1.06-1.51-4.55-1.26a50.81,50.81,0,0,1-2.62,4.67,8.46,8.46,0,0,1-4.93,3.67,51.4,51.4,0,0,0-1.26,5.81c-.32,2-.61,4.22-.87,6.57-.26,2.7-.62,5.53-1.07,8.47a67.48,67.48,0,0,1-2,9c.39.5.71,1.86,1,4l-.39,1.27a126.29,126.29,0,0,0-3.58,31q-.11,17.58.68,38.3v4.8a9.3,9.3,0,0,0,1.26,1.77c.45.51.87,1,1.25,1.52l5,7.58-3.87,1.52a37.9,37.9,0,0,1,2.61,5.81c.71,2,1.38,4.05,2,6.07q2.13,5.56,4.07,10.11a15.37,15.37,0,0,0,5.81,7.08,4.32,4.32,0,0,1,2.51,1,6.69,6.69,0,0,1,2.13,3.29q3.29.51,5.81.76a51.94,51.94,0,0,0,5.23.25c1.8.17,3.64.3,5.51.38a48,48,0,0,1,6.68.88q9.87-5.31,17.52-10a102,102,0,0,0,13.75-10,72,72,0,0,0,11-12.13,93,93,0,0,0,9.39-16.94l2.32-3.54,3.1-1,1.16-7.83,4.65,2.27a11,11,0,0,0,1.26-2.53c.45-1.17.8-2,1.06-2.53.52-1.34,1.07-2.69,1.65-4a16.66,16.66,0,0,1,2-3.54q2.13-6.06,5.52-14.28t6.87-16.05l.39-2.78q.77-7.33,1.64-14a121.25,121.25,0,0,1,2.81-14.29,53.55,53.55,0,0,0-1.45-9.86Q736.62,354.62,735.26,350.31Z"/><path d="M885.6,424.13a35.52,35.52,0,0,0-4.35-9,22.26,22.26,0,0,1-3.58-8q-1.17-1.77-2-1.26c-.58.34-1.13-.34-1.64-2a22,22,0,0,0-.58-6.19,23.33,23.33,0,0,0-2.52-6.44,19.5,19.5,0,0,0-4.26-5.19,10.15,10.15,0,0,0-6-2.4,6.72,6.72,0,0,0-2.52-4.42,15,15,0,0,0-4.35-2.15c-1.62-.51-3.2-1.05-4.75-1.64a7.24,7.24,0,0,1-3.68-3.16c.26-1,.2-1.69-.19-2a1.84,1.84,0,0,1-.39-1.77,59.67,59.67,0,0,0,7.36-1.39,10.41,10.41,0,0,0,5.61-3.41,10.85,10.85,0,0,0,5.81-.63c2.07-.76,4.16-1.52,6.29-2.28a21.09,21.09,0,0,1,6.1-1.26c1.94-.08,3.61.88,5,2.91,4.64-.67,9.87-1.27,15.68-1.77a44.18,44.18,0,0,1,17.42,2,58.9,58.9,0,0,0,4.84-3.79q2.33-2,4.45-4.05,1-5.31-.48-8.47a26.55,26.55,0,0,0-3.78-5.93,15.18,15.18,0,0,0-1.35-5.31q-1.17-2.53-2.61-5.19t-2.81-5.43a29.35,29.35,0,0,1-2.13-5.82,56.94,56.94,0,0,0-24.39-3.91,90.82,90.82,0,0,0-22.65,4.67q-11,3.79-21.59,8.6a117.28,117.28,0,0,1-21,7.33c-.27.84-.14,1.26.38,1.26s.78.34.78,1q-4.07,1.53-8.72,3.67a50.41,50.41,0,0,0-8.9,5.31,41.35,41.35,0,0,0-7.84,7.71,30.2,30.2,0,0,0-5.32,11.12,22.3,22.3,0,0,1-.1,6.32c-.32,1.52-.75,3.63-1.26,6.32a9.28,9.28,0,0,1,1.36,5.18c-.13,1.61-.39,3.67-.78,6.2a28.87,28.87,0,0,0,2.62,4.93c1,1.43,1.9,3,2.8,4.67,1.42-.33,2.33-.12,2.71.63a12.87,12.87,0,0,1,1,2.66,49.21,49.21,0,0,0,14,5.31,108.64,108.64,0,0,0,15.39,2,54.39,54.39,0,0,1,5.61,2q2.33,1,4.65-1a45,45,0,0,0,9.48,5,62.69,62.69,0,0,1,10.65,5.57,1.87,1.87,0,0,1,.87.25c.32.17.68.34,1.07.5a2.45,2.45,0,0,0,.38,1.52,8.85,8.85,0,0,0,.78.89,2.59,2.59,0,0,1,.58.88,3.17,3.17,0,0,1,0,1.52,14.78,14.78,0,0,1-1.74,4.67,31.17,31.17,0,0,1-2.52,3.54q-1.37,1.65-2.61,3.42a11.64,11.64,0,0,0-1.84,4.29q-5.43,3.56-11.13,7.71a121.62,121.62,0,0,1-12,7.71,61.89,61.89,0,0,1-13.36,5.57,37.22,37.22,0,0,1-15,1,8,8,0,0,0-3.29,4.93,24,24,0,0,0-.39,6.19q.2,3.29.49,6.44a11.29,11.29,0,0,1-.68,5.44,1.26,1.26,0,0,0,.29,1.26,8.8,8.8,0,0,0,1,.89,1.51,1.51,0,0,1,.58.76c.06.25-.16.63-.68,1.13l-.39,1a4.53,4.53,0,0,0-.19,1.52c.64,0,.94.47.87,1.39s.23,1.48.87,1.64a18.14,18.14,0,0,0,2,4.81,49,49,0,0,0,2.8,4A17.26,17.26,0,0,1,811,506c1.74.16,3.49.29,5.23.38A18,18,0,0,0,821,506a7.4,7.4,0,0,0,4-2.53c-.39,1.18-.23,1.68.48,1.52a3.36,3.36,0,0,1,1.84,0,129.78,129.78,0,0,0,17.23-8.22,104.13,104.13,0,0,0,16.55-11.63,82.39,82.39,0,0,0,14-15.54,68.18,68.18,0,0,0,9.48-20,32.51,32.51,0,0,0,1.65-11.88Q886,431.71,885.6,424.13Z"/><path d="M1130,435a185.28,185.28,0,0,1,3.19-22.88q2.23-10.74,4-22.12-.2-9.86-.58-19.08t-1-18.08a28.5,28.5,0,0,1-5.71-8.6q-2.22-5-4.16-10.74t-3.87-11.25a77.61,77.61,0,0,0-4.45-10.36,13.33,13.33,0,0,0-7.17,5.43,30.51,30.51,0,0,0-4.35,9.74,56.72,56.72,0,0,0-.68,24.26,3.83,3.83,0,0,0-2.32,2.28,10.79,10.79,0,0,1-1.94,3,93.21,93.21,0,0,1-.39,24q-1.74,11.88-2.9,24a60.63,60.63,0,0,1-10.74,5.56,111.73,111.73,0,0,1-11.62,3.92q-5.91,1.65-12,3.29t-11.71,3.41q.76-2.52-.39-2.91a1.88,1.88,0,0,1-1.36-1.64q1-5.06,2-12.39t2.13-15.16c.7-5.22,1.28-10.37,1.74-15.42s.74-9.52.87-13.4a80.71,80.71,0,0,0-5-10.11q-2.72-4.56-5.33-9.1c-1.74-3-3.36-6.15-4.84-9.36a52.64,52.64,0,0,1-3.58-11.12q-7.17,2.53-10.45,11.25a88.91,88.91,0,0,0-4.75,20.22q-1.44,11.51-1.93,23.89t-1.84,22.5a3.92,3.92,0,0,0-1.65-.13q-.68.14-.87,1.14a19.75,19.75,0,0,1,.78,6.2,57.07,57.07,0,0,1-.58,8,46.24,46.24,0,0,1-1.84,7.83,20.8,20.8,0,0,1-3,6.07,118.43,118.43,0,0,1-1.36,14,41.64,41.64,0,0,1-4.84,14.28,7.36,7.36,0,0,1,.58,3.54,17.68,17.68,0,0,1-.68,3c-.32,1-.61,2.1-.87,3.28a13.21,13.21,0,0,0,0,4.55c-.51-.67-.93-.8-1.26-.38a5.08,5.08,0,0,0-.77,1.9c-.19.84-.35,1.73-.48,2.65,0,.24-.08.45-.12.66a21.43,21.43,0,0,0-1.88-3.56,60.47,60.47,0,0,0-4.06-5.44,38.34,38.34,0,0,1-4-5.69q-17-.24-34.36-1.64a114.18,114.18,0,0,1-32.82-7.46c-.9-2.36-1.77-4.67-2.61-6.95a31.07,31.07,0,0,1-1.65-8.22c.9-1.51,1.75-3,2.52-4.55a14.83,14.83,0,0,0,1.16-6.57q3.48-4.54,7-9.23t7.26-9a68.2,68.2,0,0,1,8.13-7.83,34.45,34.45,0,0,1,9.78-5.57,37.49,37.49,0,0,1,7.26-8,54.74,54.74,0,0,1,8.9-5.94,95.64,95.64,0,0,1,9.88-4.55q5.12-2,11.13-4a20.24,20.24,0,0,0,9.19-7.21,31.29,31.29,0,0,0,5.71-11.88,22.33,22.33,0,0,0-.38-12.39q-1.93-5.93-8.91-8.72a7.84,7.84,0,0,1,.58-2.52c.26-.51.07-1.18-.58-2a6.83,6.83,0,0,1-4-1.89A3,3,0,0,0,992,323c.13-.33.42-1,.87-2s.16-1.6-.87-1.77c-.39,1.18-.75,1.69-1.07,1.52a4.14,4.14,0,0,1-1.16-1.14,15.29,15.29,0,0,0-1.45-1.64,2,2,0,0,0-1.94-.51,32.64,32.64,0,0,1-3.87,1.39,2.61,2.61,0,0,1-3.29-1.39,13.15,13.15,0,0,1-4,4.8,56.46,56.46,0,0,1-5,3.29c-1.74,1-3.49,2.11-5.23,3.29a16.44,16.44,0,0,0-4.35,4.29,28,28,0,0,0-8.52,4.3,87.52,87.52,0,0,0-7.16,6.07,79.27,79.27,0,0,1-7.26,6.06,28.9,28.9,0,0,1-8.62,4.3,14,14,0,0,1-2.9,3.92l-3.49,3.29a30.65,30.65,0,0,0-3.29,3.66,13.93,13.93,0,0,0-2.32,4.8,3.42,3.42,0,0,0-2.13-.75q-3.3,4.8-6.68,9.48t-6.48,9.86A98.5,98.5,0,0,0,896.21,399,79,79,0,0,0,892,411.49c-.12,6.06,0,12.43.49,19.08a132.47,132.47,0,0,0,2.71,19.34,96.23,96.23,0,0,0,5.61,17.7,43.32,43.32,0,0,0,9.2,13.9,12.82,12.82,0,0,1,6.19,4.17c1.55,1.94,3,4,4.45,6.19a160.22,160.22,0,0,0,23.62,8.22,115.65,115.65,0,0,0,25,3.92,14.93,14.93,0,0,1,4.94-1.65,36.79,36.79,0,0,1,5.23-.37,48,48,0,0,1,5,.25,16.92,16.92,0,0,0,4.16,0q3.87-3.8,7.75-7.71a86.7,86.7,0,0,0,7.16-8.22,28.37,28.37,0,0,0,.18-3.11c.09.37.19.75.27,1.09a22.94,22.94,0,0,0,3.19,7.33q-.78-.5-1.26,0a2.17,2.17,0,0,0-.58,1.26,3.9,3.9,0,0,0,.1,1.52c.12.51.38.68.77.51a2,2,0,0,0,1,1.51l2.23,1.77a18.85,18.85,0,0,1,2.42,2.4,4.84,4.84,0,0,1,1.16,3.16c3,2,5.51,3.08,7.64,3.16a11.74,11.74,0,0,0,5.91-1.26,34.54,34.54,0,0,0,5.32-3.41,23.2,23.2,0,0,1,5.91-3.29,3.73,3.73,0,0,0,0-2.4,8.46,8.46,0,0,1-.78-1.9q1.74.27,3.39-2.78a45.31,45.31,0,0,0,3-6.95c.9-2.61,1.68-5.09,2.32-7.45a25.67,25.67,0,0,0,1-4.3q2.91-2.28,7.65-5.69a119.2,119.2,0,0,1,10.26-6.57,116.25,116.25,0,0,1,11.32-5.69,43.74,43.74,0,0,1,11.23-3.29q0,.26-.48,3.42c-.32,2.11-.65,4.34-1,6.7s-.61,4.59-.87,6.69-.39,3.25-.39,3.42a27.21,27.21,0,0,0,2.62,13,64.43,64.43,0,0,0,6.67,10.75l-1,2.27a10,10,0,0,1,4,2.4,38.07,38.07,0,0,0,3.58,3.16q4.07-1.75,8.22-3.91a24.61,24.61,0,0,0,7.36-5.82,26.89,26.89,0,0,0,5-8.85,34.28,34.28,0,0,0,1.46-13,14.33,14.33,0,0,1-1.26-7.46,18.45,18.45,0,0,0-.29-6.7,16.91,16.91,0,0,0,2.9-5.05c.78-2,1.45-4.09,2-6.2s1.2-4.21,1.84-6.32A20.21,20.21,0,0,1,1130,435Z"/><path d="M1720.68,339.82q-2.33-4.67-5-9.73a11.74,11.74,0,0,1-5.81-3,57.34,57.34,0,0,1-4.45-4.93,39.34,39.34,0,0,0-4.55-4.81,11.16,11.16,0,0,0-5.9-2.65,38,38,0,0,0-2.42,8q-.87,4.42-1.74,8.72c-.58,2.87-1.3,5.65-2.13,8.35a21.76,21.76,0,0,1-3.39,6.82q-1.74,14.67-3.39,28.82a221.66,221.66,0,0,1-4.65,26.54,103.27,103.27,0,0,1-8.13,22.5,46.82,46.82,0,0,1-13.45,16.43,105.92,105.92,0,0,1-1.55-15.17q-.19-7.32,0-14.28t.39-13.65a112.61,112.61,0,0,0-.39-13.27c.52.17.87.13,1.07-.13a3.51,3.51,0,0,0,.48-.88,3.77,3.77,0,0,1,.48-.89,1.3,1.3,0,0,1,1.07-.38,11.19,11.19,0,0,1-.29-5.18,19.48,19.48,0,0,1,1.26-3.54,15.55,15.55,0,0,0,1.16-3.66,13,13,0,0,0-.58-5.56c.64.34,1.09.29,1.35-.13s.71-.54,1.36-.38a6.33,6.33,0,0,1-1-2.78,5.72,5.72,0,0,1,.19-1.64,2.88,2.88,0,0,0,.1-1.27,7.25,7.25,0,0,0-1.06-2.15c.25-.67.58-.84,1-.5s.71,0,1-1a41.61,41.61,0,0,0-4-13.53,45.1,45.1,0,0,0-7.26-10.49,53.51,53.51,0,0,0-9.39-8,81.07,81.07,0,0,0-10.55-5.94q-6,17.19-12.48,35t-13,35.39q-6.49,17.58-12.88,34.63t-12,32.74a12.72,12.72,0,0,1,1.84,5.18,29.31,29.31,0,0,0,.76,3.56,6.64,6.64,0,0,0-.43-.65,3.32,3.32,0,0,1-3.49-1,23.12,23.12,0,0,1-2.61-3.67q-1.26-2.14-2.61-4.3a7,7,0,0,0-3.29-2.9,56.44,56.44,0,0,1-11.72,3.41,31.31,31.31,0,0,0-11.13,4.17,66.41,66.41,0,0,0-12.1.51c-3.29.5-6.48,1-9.58,1.51a84.83,84.83,0,0,1-9.87,1,57.67,57.67,0,0,1-13.17-1.26,129.5,129.5,0,0,1,5.42-15.29q3.11-7.22,6.58-13.78A14.67,14.67,0,0,0,1521,432a14.81,14.81,0,0,1,6.29,1.27,8.32,8.32,0,0,1,5.32-.89,7.59,7.59,0,0,0,5.13-.88,2.63,2.63,0,0,0,1.65,1h1.64a24.75,24.75,0,0,0,10.07-1.52,38.76,38.76,0,0,0,8.62-4.55,72.35,72.35,0,0,0,7.64-6.19q3.67-3.42,7.55-6.7a12.94,12.94,0,0,0,.58-5.81,24.32,24.32,0,0,0-1.35-5.31,5.33,5.33,0,0,1-4.07-1.14,20.6,20.6,0,0,1-3.39-3.54c-1.09-1.43-2.16-2.91-3.19-4.42a19.46,19.46,0,0,0-3.29-3.79,3,3,0,0,1,.39-1.77,2.45,2.45,0,0,0,.19-1.77q-9.49.51-19.36,1.64a76.06,76.06,0,0,1-18,.13,15.62,15.62,0,0,1-.49-4.81,15,15,0,0,0-.87-5.56c1.42-.5,2.81-1,4.16-1.52a8.7,8.7,0,0,0,3.58-2.52,7.8,7.8,0,0,0,4,0c1.1-.34,2.1-.67,3-1a10.75,10.75,0,0,1,2.62-.64,5.23,5.23,0,0,1,2.8.64,38.8,38.8,0,0,1,10.27-6.07,71.48,71.48,0,0,1,10.35-3.16q5.13-1.14,10.07-2.15a43.67,43.67,0,0,0,9.39-3,30.49,30.49,0,0,0,8.42-5.82,34.19,34.19,0,0,0,7.07-10.61,18,18,0,0,1-.39-3.16,9.6,9.6,0,0,1,.19-2,15,15,0,0,0,.29-1.89,20.87,20.87,0,0,0-.09-3.29,42.93,42.93,0,0,1-8.14-5.94,25.79,25.79,0,0,1-6-8.72c.13.85.07,1.39-.19,1.64a.68.68,0,0,1-.87.13,11,11,0,0,0-1.16-.51,3.58,3.58,0,0,0-1.07-.25,7,7,0,0,0,.1,1.14,9.76,9.76,0,0,1,.1,1.39,2.17,2.17,0,0,1-2.13-1.77h-1.26c-.33,0-.55-.25-.68-.76q-9.87,2.28-17.42,3.41t-14.52,2.53q-7,1.39-14.33,3.54a173.16,173.16,0,0,0-16.65,5.94c-3.19.93-6.2,1.74-9.07,2.45-.12-.39-.23-.79-.37-1.18l-1.55-2a14,14,0,0,1-1.36-1.39c-.51-.59-1.1-1.3-1.74-2.15-.9-1.17-1.87-2.4-2.9-3.66a15.27,15.27,0,0,0-3.49-3.16q-3.28-8.08-13.36-8.09a20,20,0,0,0-2.32.13,7.26,7.26,0,0,1-2.32-.13l-4.07.25a122.11,122.11,0,0,0-21.29,4q-9.49,2.78-15.3,4.8a59.51,59.51,0,0,0-6.39,2.53,2.53,2.53,0,0,1-1.74,1.26,11.67,11.67,0,0,1-2.51.25c-1,.17-2.17.38-3.39.64a6.2,6.2,0,0,0-3.39,2.14q-4.65,1.53-9.29,3.54-3.6,1.58-7.08,3.14c-.18-.71-.38-1.41-.63-2.12l-1.55-2a14.09,14.09,0,0,1-1.35-1.39c-.52-.59-1.1-1.3-1.74-2.15-.91-1.17-1.88-2.4-2.91-3.66a15,15,0,0,0-3.48-3.16q-3.3-8.08-13.36-8.09a20,20,0,0,0-2.32.13,7.32,7.32,0,0,1-2.33-.13l-4.06.25a122.41,122.41,0,0,0-21.3,4q-9.48,2.78-15.29,4.8a57.91,57.91,0,0,0-6.39,2.53,2.57,2.57,0,0,1-1.74,1.26,11.77,11.77,0,0,1-2.52.25c-1,.17-2.16.38-3.39.64a6.21,6.21,0,0,0-3.38,2.14q-4.65,1.53-9.3,3.54c-3.09,1.35-6.13,2.7-9.09,4.05s-6,2.65-9.1,3.92-6.13,2.4-9.1,3.41l-1.94,2.53c-.13.34-.84,1.6-2.13,3.79l-.38,3a12.23,12.23,0,0,0,.19,4.8,7.68,7.68,0,0,1,.77,2.66,2.27,2.27,0,0,1-.38,1.39l-1.17,3,2.33,2a18.21,18.21,0,0,1,1.74,2.78c.51,1,1.09,2.19,1.74,3.53s1.26,2.66,1.84,3.92a17.07,17.07,0,0,0,3.78,4.68,12.06,12.06,0,0,0,1.35.38,5.16,5.16,0,0,0,1.16.13,14.25,14.25,0,0,0,1.65.63,5.08,5.08,0,0,1,1.64,1.39c-.26.84-.51,1.86-.77,3a13.54,13.54,0,0,0-.19,4,44.81,44.81,0,0,0-1.94,5.56c-.52,1.85-1,3.71-1.35,5.56-.39,1.35-.75,2.7-1.07,4a4.5,4.5,0,0,1-2.42,3c-.65-.68-1.32-1.35-2-2a19.6,19.6,0,0,1-2-2.28l-2.91-1.26a51.45,51.45,0,0,0-5.23,1.89,19.89,19.89,0,0,0-5.22,3.29,18.48,18.48,0,0,0-3.88,4.75l-.54-.08a15.29,15.29,0,0,1-1.35-1.51,10.41,10.41,0,0,1-1-1.52l-.77-3-2.52.25a13.57,13.57,0,0,0-5.42,1.52,5.84,5.84,0,0,0-2.32-.26,93.31,93.31,0,0,1-3.1-12.76q-1.17-6.7-2.13-14-.78-5.06-1.65-10.24T1236.85,363q-.19-6.31-.77-11.5T1234.72,341c-.26-1.52-.48-3-.67-4.55s-.42-3.2-.68-5.06l-1-2.27a14.45,14.45,0,0,0-6-4.42,82.58,82.58,0,0,0-7.94-2.91c-1.55-.67-3-1.27-4.45-1.77a11.52,11.52,0,0,1-3.1-1.52l-3.09-2.53-2.33,4.3a147.13,147.13,0,0,1-10,17.32,36.38,36.38,0,0,1-11.32,11l-3.49-.76a5.64,5.64,0,0,0-2.22.38,11.32,11.32,0,0,0-1.65.89l-2.13-.25-1.35,2.52a57.91,57.91,0,0,0-5.13,9.86c-1.36,3.38-2.62,6.74-3.78,10.11-1,2.87-2.1,5.65-3.19,8.35a97.56,97.56,0,0,1-4.36,9.1,10.8,10.8,0,0,0-.39,2.65,11.3,11.3,0,0,0,.2,2.15q-1.74,5.06-3.58,9.86t-3.59,9.6q-5.61,14.92-10.74,29.07t-10,29.58l-.19,5.31-2.52,2.53,2.9,3.79a12.14,12.14,0,0,1,1.17,4.55c.26,1.18.45,2.32.58,3.41a15.75,15.75,0,0,0,1,3.67l1.17,2a16.72,16.72,0,0,1,3.38,2.91c1,1.1,2.23,2.65,3.78,4.67l2.52.26a10.5,10.5,0,0,0,2.42-.26c.7-.17,1.9-.5,3.58-1l2.9-.5.58-3.29a8.21,8.21,0,0,1,2.71-2c.9-.51,1.84-1.09,2.81-1.77a7.5,7.5,0,0,0,2.42-3l.77-3.28a33.87,33.87,0,0,1,.87-7.59c.58-2.52,1.2-5.13,1.84-7.83q.78-2.52,1.45-5.06a42.46,42.46,0,0,0,1.07-5.3,7,7,0,0,1,1-1,4.31,4.31,0,0,0,1-1.26l1.93-2.28-.77-2.78a2.53,2.53,0,0,1,.09-1.51,4.84,4.84,0,0,1,.68-1.52l2.52-.5.77-3.29c.26-1.18.55-2.4.87-3.67a35.37,35.37,0,0,1,1.26-3.92,15.45,15.45,0,0,0,1.55,5.82,9.22,9.22,0,0,0,.58,6.32c.9,1.68,1.68,3,2.32,4l.88,1.14a2,2,0,0,1,.48,1.14l.58,2.78,2.13.25a34.2,34.2,0,0,0,7,.76,35.88,35.88,0,0,0,9.29-1.14q4.26-1.14,8.71-2.65c2.07-.67,4.13-1.31,6.2-1.9s4.71-.46,7.94.38q.38,8.1-1.55,11.25t-7.75,5.18l-6.39,2.28,3.88,5.81c.51.68,1,1.31,1.35,1.9a10,10,0,0,0,1.36,1.64,19.17,19.17,0,0,1,2.8,4,5.07,5.07,0,0,1,.1,3.54l-.77,3.8,2.51,1.51a11.71,11.71,0,0,1,2.52,2,21.4,21.4,0,0,0,2.23,2,11.45,11.45,0,0,0,4,1.77,20,20,0,0,0,9.3-2.91,32.52,32.52,0,0,0,8-6.83,46.31,46.31,0,0,0,6.2-9.35,70.94,70.94,0,0,0,4.55-11.75,60.57,60.57,0,0,0,.09-11.25q-.48-5.43-1.26-10.49a27.76,27.76,0,0,1-.48-3.54,24,24,0,0,0-.48-3.29,40,40,0,0,0,7.22-5.64,26.69,26.69,0,0,0,8.61,11.46c-.26,1.35-.52,2.61-.77,3.79s-.52,2.44-.78,3.79a105.26,105.26,0,0,0-2.42,11.76,50.9,50.9,0,0,0,.49,14.78,24.64,24.64,0,0,0,1.74,4.05l1.93,3.54c.52,1,1,2,1.55,2.9a22.71,22.71,0,0,1,1.36,2.91l2.32,2.53a18.24,18.24,0,0,1,1.94.63,20.61,20.61,0,0,1,1.93.88c1,.51,2,1,3,1.52a7.58,7.58,0,0,0,4.55.25,17.45,17.45,0,0,0,5-5.68,24.52,24.52,0,0,0,2.9-8.47,18.33,18.33,0,0,0-1-10.37,6,6,0,0,1,.2-1.51,13.83,13.83,0,0,1,.58-1.77c.25-1,.54-2.11.87-3.29a14.41,14.41,0,0,0,.48-3.79c.13,0,.2,0,.2-.13a5.9,5.9,0,0,1,1.74-.63l-.2-4.55a32.94,32.94,0,0,0,1.65-3.41,20.75,20.75,0,0,0,1.06-3.41q.39-1.51.78-2.91a6.5,6.5,0,0,1,1.55-2.65c1.16-.51,2.38-1,3.68-1.52a10.41,10.41,0,0,1,3.87-.76,2.31,2.31,0,0,1,.77.13,9.87,9.87,0,0,0,2.52-.13A31.55,31.55,0,0,1,1320,448c2.65-.59,5.39-1.23,8.23-1.9q3.09-.51,6.2-1.14t7.74-1.64a10.16,10.16,0,0,0,3.48-.63c1.17-.42,2.26-.8,3.29-1.14a16.16,16.16,0,0,1,7-1l1.94.76,1.16-2,3.18-5.29a55.63,55.63,0,0,0,2,6.05,27,27,0,0,0,8.9,12.14c-.26,1.35-.51,2.61-.77,3.79s-.52,2.44-.77,3.79a103.05,103.05,0,0,0-2.42,11.76,51.21,51.21,0,0,0,.48,14.78,24.64,24.64,0,0,0,1.74,4.05l1.94,3.54c.51,1,1,2,1.55,2.9a22.66,22.66,0,0,1,1.35,2.91l2.33,2.53a18.85,18.85,0,0,1,1.93.63,20.77,20.77,0,0,1,1.94.88c1,.51,2,1,3,1.52s2.48.59,4.55.25a17.54,17.54,0,0,0,5-5.68,24.31,24.31,0,0,0,2.9-8.47,18.33,18.33,0,0,0-1-10.37,6,6,0,0,1,.19-1.51,15.61,15.61,0,0,1,.58-1.77c.26-1,.55-2.11.87-3.29a14.41,14.41,0,0,0,.49-3.79c.12,0,.19,0,.19-.13a5.9,5.9,0,0,1,1.74-.63l-.19-4.55a34.94,34.94,0,0,0,1.64-3.41,20.78,20.78,0,0,0,1.07-3.41c.26-1,.51-2,.77-2.91a6.61,6.61,0,0,1,1.55-2.65c1.16-.51,2.39-1,3.68-1.52a10.45,10.45,0,0,1,3.87-.76,2.36,2.36,0,0,1,.78.13,9.79,9.79,0,0,0,2.51-.13,31.63,31.63,0,0,1,7.46-2.65c2.64-.59,5.38-1.23,8.22-1.9,2.07-.34,4.13-.72,6.2-1.14s4.64-1,7.74-1.64a10.22,10.22,0,0,0,3.49-.63c1.16-.42,2.25-.8,3.29-1.14a16.12,16.12,0,0,1,7-1l1.93.76,1.16-2,9.1-15.16.58-2.53a12.87,12.87,0,0,0-1-4.43,6.6,6.6,0,0,0-1.75-2.4l-1.35-2.53a8.6,8.6,0,0,0-1.26-.88l-2-1.14,1.16-4-2.13-.25,1.74-2.28h-7.55a72.7,72.7,0,0,0-11.52.89q-5.5.88-10.93,2.15c-2.85.5-5.52,1-8,1.39s-5.06.8-7.64,1.13l-.78-3a8.77,8.77,0,0,1,.1-3.92,8.08,8.08,0,0,1,1.26-2.91l1-2.52a25.88,25.88,0,0,1,3.88-14.92c.12-1,.22-2,.29-2.91s.16-1.8.29-2.65a34.73,34.73,0,0,0,.58-3.67,21.27,21.27,0,0,0,0-3.91,8.26,8.26,0,0,1,1.74-1.27,15.93,15.93,0,0,0,4.06-2.78,95,95,0,0,1,13.17-5.18,154.88,154.88,0,0,1,15.49-4.05q7.93-1.64,15.58-2.52,2.85-.33,5.43-.54a68.62,68.62,0,0,1,1.21,8.37c.26,3.29.64,6.54,1.16,9.74a69.36,69.36,0,0,0,2.23,9.48,26,26,0,0,0,4.74,8.72,96.13,96.13,0,0,1-3.39,10.49q-1.83,4.68-3.58,9.23t-3.29,9.35q-1.55,4.8-2.9,10.36c-1-.33-1.65,0-1.84.89a1.89,1.89,0,0,1-1.45,1.64,9.66,9.66,0,0,1-.1,4,20.66,20.66,0,0,1-1.36,3.92c-.58,1.27-1.16,2.57-1.74,3.92a18.92,18.92,0,0,0-1.26,4.3,51.05,51.05,0,0,0-.29,9.48c.2,3.45.52,6.91,1,10.36s.9,6.83,1.36,10.11.8,6.2,1.06,8.72a7.74,7.74,0,0,1,3.2,4.55,12.76,12.76,0,0,0,2.22,4.81,24.2,24.2,0,0,0,11.62,8.09,52,52,0,0,0,14.52,2.52,73.93,73.93,0,0,0,15-1q7.45-1.26,12.87-2.52a7.44,7.44,0,0,1,3,.63,5.65,5.65,0,0,0,3.59.12q8.7-2,15.77-3.41a48.53,48.53,0,0,0,12.78-4.3,33.31,33.31,0,0,0,10.26-8.21,42.83,42.83,0,0,0,6.17-10.17q1.58,5.44,3.66,10.67a60.72,60.72,0,0,0,5.23,10.24,15.77,15.77,0,0,0,7.45,6.45,7.53,7.53,0,0,0,2.91-1.52c.77-.67,2.06-.84,3.87-.5q-.39-2-.87-2.28c-.33-.17-.23-.67.29-1.52q3.68.26,5.13-1.89a13.76,13.76,0,0,0,2-5.19q.59-3,1-6.19a8.84,8.84,0,0,1,2.32-5.18,9.43,9.43,0,0,1-.48-5.05,16.64,16.64,0,0,1,1.45-4.18c.65-1.26,1.32-2.52,2-3.79a12.83,12.83,0,0,0,1.46-4.17c1,0,1.8-.76,2.32-2.27s1-3.2,1.55-5.06,1.09-3.62,1.74-5.31a5.25,5.25,0,0,1,2.9-3.28,102.91,102.91,0,0,0,12,28.06,112.67,112.67,0,0,0,17,21q6.39,3,10.36,2.14a14.71,14.71,0,0,0,7-3.66,47.6,47.6,0,0,0,5.52-6.07,21.41,21.41,0,0,1,5.8-5.31q-1-3-.09-3.66c.58-.42.8-1.39.67-2.91,1,.17,1.62.47,1.75.89s.51.29,1.16-.38q2.33-5.56,4.45-11.13a27.32,27.32,0,0,1,5.81-9.35,116.39,116.39,0,0,1,3.1-14.28q2.13-7.71,3.87-15A108.89,108.89,0,0,1,1710,412q.77-6.83,1.74-13.14T1713.9,386c.77-4.38,1.36-9.1,1.74-14.16a12,12,0,0,0,3.29-4.3,27.27,27.27,0,0,0,1.84-5.56q.68-3,1.26-6.07a24.6,24.6,0,0,1,1.74-5.56A33.16,33.16,0,0,0,1720.68,339.82Zm-520.22,82.79q-5.81.76-12.58,1.26a14.26,14.26,0,0,1-2.62.26,14,14,0,0,0-2.61.25c1.67-3.71,3.42-7.24,5.23-10.62l.19-.25a129.49,129.49,0,0,1,7.36-14.91,169.85,169.85,0,0,1,9.29-14.67l1-2.52q2.11,9.85,4,19.59t3.39,19.08A103.7,103.7,0,0,1,1200.46,422.61Zm191.38-34.38a13.54,13.54,0,0,0-.19,4,48.34,48.34,0,0,0-1.94,5.56c-.51,1.85-1,3.71-1.35,5.56-.39,1.35-.75,2.7-1.07,4a4.5,4.5,0,0,1-2.42,3c-.64-.68-1.32-1.35-2-2a19.6,19.6,0,0,1-2-2.28l-2.91-1.26a51.31,51.31,0,0,0-5.22,1.89,20.1,20.1,0,0,0-5.23,3.29,16.7,16.7,0,0,0-2.54,2.74l-.32-.6a8.6,8.6,0,0,0-1.26-.88l-2-1.14,1.17-4-2.13-.25,1.74-2.28h-7.55a72.7,72.7,0,0,0-11.52.89q-5.52.88-10.94,2.15c-2.84.5-5.52,1-8,1.39s-5.07.8-7.65,1.13l-.77-3a8.92,8.92,0,0,1,.09-3.92,8.08,8.08,0,0,1,1.26-2.91l1-2.52a25.87,25.87,0,0,1,3.87-14.92c.13-1,.23-2,.29-2.91s.16-1.8.29-2.65a32.32,32.32,0,0,0,.58-3.67,19.64,19.64,0,0,0,0-3.91,8.51,8.51,0,0,1,1.75-1.27,16.11,16.11,0,0,0,4.06-2.78,94,94,0,0,1,13.17-5.18,155.4,155.4,0,0,1,15.48-4.05q7.93-1.64,15.59-2.52c1.06-.13,2.1-.23,3.11-.33l-.15,1.21a12.63,12.63,0,0,0,.19,4.8,7.53,7.53,0,0,1,.78,2.66,2.21,2.21,0,0,1-.39,1.39l-1.16,3,2.32,2a16.78,16.78,0,0,1,1.74,2.78c.52,1,1.1,2.19,1.75,3.53L1383,378a17,17,0,0,0,3.77,4.68,12.16,12.16,0,0,0,1.36.38,5,5,0,0,0,1.16.13,13.63,13.63,0,0,0,1.64.63,5.19,5.19,0,0,1,1.65,1.39C1392.36,386,1392.1,387.06,1391.84,388.23Z"/></g></g></svg>