<?xml version="1.0" encoding="utf-8"?>
<!-- Generator: Adobe Illustrator 24.0.1, SVG Export Plug-In . SVG Version: 6.00 Build 0)  -->
<svg version="1.1" id="Ebene_1" xmlns="http://www.w3.org/2000/svg" xmlns:xlink="http://www.w3.org/1999/xlink" x="0px" y="0px"
	 viewBox="0 0 1780.1 513.9" style="enable-background:new 0 0 1780.1 513.9;" xml:space="preserve">
<style type="text/css">
	.st0{fill:#FFDA48;}
</style>
<title>team-slogan</title>
<g id="Ebene_2_1_">
	<g id="Ebene_1-2">
		<path d="M34,165.1c0.7,1.3,1.3,2.8,1.9,4.6c0.7,1.7,1.3,3.5,1.9,5.3c2,2.8,4.2,5.5,6.8,7.8c2.3,2,4.8,3.7,7.4,5.3
			c0.8,0.5,1.6,1,2.4,1.5s1.8,1.1,2.8,1.8c5.7-0.1,11.2-1.4,16.4-3.8c5.2-2.4,10-5.5,14.4-9.2c4.6-3.9,9-8.1,13-12.6
			c4.1-4.6,8.2-9.4,12.2-14.3l2.3-3l4.1-4.8l2.7-3.3l1.9,4.8l3.3,7.8c0.5,1.2,1,2.3,1.4,3.4s0.9,2.2,1.3,3.4
			c3.1,7.8,6.3,14.8,9.5,21.1c2.8,5.9,7.2,10.8,12.8,14.3c0.8-0.8,1.6-1.5,2.6-2c1.1-0.5,2.3-0.8,3.6-0.8c1.6,0,3.1,0.3,4.6,0.8
			c6.6-5.3,12.4-11.5,17.1-18.6c5.1-7.7,9.6-15.7,13.4-24.1c4.1-9,7.8-18.3,10.9-27.7c3.3-9.7,6.5-19.4,9.6-29.2
			c2.5-7.6,4.9-15.1,7.4-22.5s5.1-14.7,7.9-21.7c-0.4-5.3-1.2-10.6-2.4-15.8c-1-4.1-2.5-8.1-4.5-11.9c-1.8-3.4-4-6.6-6.6-9.5
			c-2.8-3.1-5.8-6-9-8.6c-1.8,3.2-3.4,6.6-4.7,10c-1.6,4-3.3,8.4-4.9,13.1s-3.3,9.8-5,15.1c-1.6,5.3-3.2,10.6-4.7,16
			c-2.2,7.4-4.4,14.7-6.6,21.7c-2.2,7-4.4,13.5-6.7,19.5c-2,5.4-4.4,10.8-7,15.9c-1.9,4-4.4,7.6-7.4,10.8l-9.3,9.4
			c-0.9-1.7-1.5-3.5-1.8-5.4c-0.3-1.9-0.6-3.8-0.9-5.7c-0.3-2-0.4-4-0.4-6.1c0-2.7,0-4.8,0.1-6.3s0.2-3.4,0.5-5.6s0.7-5.2,1.4-9.1
			s1.6-9.6,2.9-17.2c0.4-2.5,0.8-5.1,1.3-7.8c0.4-2.7,0.9-5.3,1.3-8s0.7-5,1.1-7.2s0.6-4,0.7-5.3c-0.6-1.7-1.3-3.4-2.2-5.1l-2.8-5.1
			c-0.8-1.3-1.6-2.7-2.4-4.2c-0.8-1.4-1.7-3.1-2.6-4.9c-2.3-0.9-4.4-2.4-6.1-4.3c-1.9-2-3.5-4-4.9-5.8c-2.6,3.1-4.8,6.5-6.8,10
			c-2.4,4.3-5,9-7.6,14c-2.6,5-5.1,10.3-7.7,15.9c-2.5,5.6-4.9,10.8-7.3,15.7c-2.6,5.7-4.8,10.7-6.7,14.8c-1.9,4.1-3.7,7.9-5.4,11.4
			c-1.7,3.4-3.6,6.8-5.7,10c-2.1,3.2-4.6,6.7-7.6,10.6c-2.2,2.9-4.4,5.6-6.8,8.1c-2,2.2-4.1,4.3-6.3,6.3c-1.8,1.7-3.8,3-6.1,4
			c0.7-6.2,1.3-12,2-17.2c0.7-5.2,1.3-9.7,2-13.4c0.8-4.4,1.6-8.3,2.3-11.6c0.9-4.2,2.1-9.2,3.7-15s3.1-11.8,4.8-18.1
			c1.6-6.2,3.2-12.4,4.6-18.6s2.6-11.8,3.5-16.8c-2.7-2.5-5.1-5.3-7.4-8.2c-2.4-3.3-4.5-6.7-6.4-10.2c-0.9-0.4-1.8-1-2.5-1.6
			c-1-0.9-1.9-2-2.5-3.2c-2.8,0.7-5.5,2.8-7.9,6.3c-2.7,4-5,8.3-6.9,12.8c-2.2,5.3-4.2,10.8-5.8,16.3c-1.7,5.9-3.3,11.5-4.7,16.7
			c-1.5,5.9-3.1,13-4.5,21.2c-1.5,8.3-2.9,16.4-4.2,24.4c-1.3,8-2.4,15.4-3.4,22.1c-1,6.7-1.6,11.5-2,14.4c0.9,3.8,2,7.5,3.3,11.1
			C31.1,157.4,32.4,161,34,165.1z"/>
		<path d="M229.3,27.2c0.3,2.2,0.2,4.5-0.4,6.7c0.9,2.4,1.7,4.6,2.3,6.8c0.6,2,1.3,4,2.3,5.8c0.9,1.7,2.1,3.1,3.6,4.3
			c1.8,1.3,3.9,2,6.1,2c2-1.1,4.2-2,6.4-2.7c3-0.9,6.9-1.9,11.8-2.9c-0.5,6-1.4,12-2.8,17.8c-1.2,5-2.6,10.4-4.2,16.3
			c-0.2,3.5-0.8,7.1-1.8,10.5c-0.9,3.3-1.9,6.6-3.1,9.9s-2.4,6.8-3.6,10.4c-1.3,3.8-2.3,7.8-3,11.8c-1.6,4.4-3.2,9-4.8,13.8
			c-1.7,4.8-3.5,9.8-5.4,15c-2.5,0-5.1,0.2-7.6,0.6c-2.3,0.4-4.7,0.9-7,1.4c-2.3,0.5-4.7,1-7.2,1.5c-2.7,0.5-5.5,0.9-8.3,1
			c-0.9,1-1.7,2.1-2.5,3.2c-0.9,1.6-1.3,3.4-1.2,5.2c0.5,2.7,1,5.5,1.4,8.5s1,5.8,1.7,8.5c0.7,2.6,1.6,5.2,2.8,7.6
			c1,2.2,2.5,4.2,4.4,5.8c4.7-0.2,9.3-1,13.8-2.4c4.5-1.4,8.9-2.8,13.3-4c4.2-1.2,8.4-2,12.8-2.4c4.2-0.3,8.4,0.3,12.3,2
			c0.4-0.4,0.6-1.1,0.4-1.6c-0.1-0.8,0.1-1.2,0.8-1.4c3.1-0.3,6.5-0.8,10.1-1.3c3.7-0.5,7.4-0.4,11,0.3c0.9-1.3,1.8-2.5,2.9-3.7
			c0.8-1,2.1-1.5,3.3-1.1c0.9-1.5,1.8-3.3,2.8-5.3c0.9-1.9,1.6-3.9,1.9-5.9c0.3-1.8,0.2-3.7-0.5-5.4c-0.7-1.7-2.2-2.9-4.6-3.8
			c0.1-1.3-0.3-2.7-1.3-3.7c-0.8-0.8-1.8-1.4-2.8-1.9c-1-0.5-2-1.1-2.9-1.8c-0.9-0.7-1.5-1.9-1.7-3.8h-13.2c1-2.9,1.9-5.4,2.6-7.7
			s1.4-4.6,2.1-7s1.5-4.9,2.3-7.6s1.9-6,3.2-9.8c-0.1-1.7,0.4-5.4,1.6-11c1.2-5.6,2.7-12,4.4-19.2c1.7-7.2,3.3-14.5,4.9-22
			s2.7-14,3.4-19.6c3.9-0.2,7.8-0.4,11.9-0.6c3.9-0.2,7.9-0.7,11.7-1.5c3.5-0.7,7-1.7,10.4-3c2.9-1.1,5.6-2.8,7.9-4.9
			c0-1.7,0-3.4,0.1-5.2c0.1-1.6,0-3.2-0.3-4.8c-0.2-1.4-0.9-2.6-1.8-3.7c-1.2-1.1-2.7-1.8-4.4-2c-0.9-4.2-2.5-7.2-4.9-8.9
			c-2.4-1.7-5.2-2.8-8.1-3.3c-3-0.5-6.1-0.8-9.1-0.8c-2.7,0-5.5-0.5-8-1.5c-6.2,0.5-12.9,0.9-20.2,1.3c-7.3,0.3-14.3,0.7-21,1
			c-1.6,1.4-3.5,2.3-5.6,2.7c-2.2,0.4-4.5,0.8-6.9,1l-7.3,0.8c-2.4,0.2-4.7,0.8-7,1.6c0.4,1.5,0.3,3-0.2,4.4
			c-0.5,1.9-1.3,3.1-2.3,3.4C228.2,22.1,229,24.2,229.3,27.2z"/>
		<path d="M329.1,56.9c-0.9-1.6-2.3-2.8-4-3.4c-1.8-0.9-3.8-1.2-5.7-0.9c-1.6,4.8-2.9,9.6-3.8,14.5c-0.9,5.1-1.8,10.4-2.6,15.9
			s-1.7,11-2.6,16.6c-1,5.5-2.3,10.9-4,16.2c0.1,1,0.2,2.3,0.3,3.9c0.1,1.5,0,3-0.2,4.6c-0.1,1.2-0.4,2.4-0.8,3.5
			c-0.3,0.9-0.8,1.1-1.5,0.6c0.9,2.8,1.1,5.8,0.7,8.7c-0.5,2.8-1,5.6-1.6,8.6s-1.2,6-1.6,9.1c-0.4,3.4-0.2,6.9,0.7,10.2h-2.1
			c0.7,1.3,1.2,2.7,1.7,4.2c0.5,1.4,1.1,2.1,1.7,1.9c-0.4,1.1-0.5,2.4-0.3,3.5c0.2,1,0.4,2,0.7,2.9c0.3,1,0.5,2,0.6,3
			c0.1,1.3,0,2.6-0.4,3.9c1.7-0.2,2.7,0.5,3.1,1.9s0.8,2.9,1.2,4.4c1.1-0.2,2.2-0.1,3.1,0.5c0.6,0.5,1.2,1,1.7,1.5
			c0.5,0.5,1.1,1,1.8,1.4c0.9,0.4,2,0.5,2.9,0.1c1-0.8,1.9-1.7,2.6-2.8c0.7-1,2.1-1.3,4.2-0.8c2.4-4.1,4.4-8.4,5.9-12.9
			c1.6-5.4,2.6-10.9,3-16.4c0.4-0.2,0.7-0.6,0.7-1s0.3-0.8,0.7-1c2.8,3.4,5.4,6.3,7.5,8.7c2.2,2.5,4.6,4.7,7.2,6.8
			c2.9,2.3,5.9,4.5,9.1,6.4c4.4,2.7,8.9,5.1,13.5,7.3c11.2,5.6,20.5,9.4,27.7,11.6s13.2,2.1,17.8-0.3c1.3-0.2,2.4-0.8,3.2-1.8
			c0.8-1,1.6-2.1,2.2-3.3l1.9-3.5c0.6-1.1,1.4-2.1,2.3-3c-0.6-0.2-1.2-0.2-1.8-0.1c-0.6,0.1-0.9-0.2-1.1-0.9c1-1.6,1.6-3.5,1.6-5.4
			c0.2-2.4,0.1-4.8-0.3-7.2c-0.4-2.6-1-5.1-1.9-7.6c-0.8-2.4-2-4.6-3.5-6.6c-3.5-0.5-6.3-0.9-8.3-1.3s-4-0.7-5.8-1.1s-3.8-1-6.1-1.8
			s-5.4-1.7-9.4-2.9s-7.1-2.2-9.4-3c-2.2-0.8-4.3-1.9-6.2-3.2c-2.1-1.4-4.1-3-6-4.7c-2.1-1.8-5.1-4.3-9-7.3c0.3-1,0.1-1.5-0.5-1.5
			s-0.9-0.3-0.9-1c5.6-3.1,11.3-5.7,17.2-8c6.2-2.4,12.2-5.4,17.9-8.8c5.6-3.5,10.5-8,14.3-13.4c3.9-5.5,6.2-12.7,6.7-21.6
			c0-1.1,0-2.3-0.2-3.4c-0.1-0.9-0.3-1.7-0.5-2.5c-0.2-0.7-0.3-1.5-0.4-2.3c-0.1-0.9,0-1.8,0.3-2.7c-1.2-3-2.3-6.2-3.1-9.3
			c-0.9-3.4-1.8-6.7-2.8-10c-0.9-3.2-2-6.3-3.3-9.4c-1.1-2.8-2.7-5.4-4.5-7.7v-3.8c-1-0.8-2-1.7-3-2.6s-2-1.8-3-2.7
			c-2.3-4.7-5.5-8.9-9.5-12.3c-3.9-3.3-7.4-6.4-10.5-9.2c-5.7,0.7-11,3.4-14.9,7.6c-4.1,4.4-7.8,9.3-10.8,14.5
			c-3.2,5.5-6.3,11.1-9.4,16.8C336.9,47.6,333.3,52.5,329.1,56.9z M351.4,81.5c1.5-3.2,3.3-6.2,5.3-9.1c2-2.8,4-5.5,6.1-8.1
			c2.1-2.7,4-5.6,5.6-8.7c3,1.3,5.8,3.9,8.5,7.7c2.7,3.8,4.4,8.8,5,15c-5.3,2.9-10.9,5.9-16.9,9c-5.3,2.9-11,4.9-17,5.9
			C348.6,89.2,349.7,85.2,351.4,81.5z"/>
		<path d="M483.9,181c-0.5-0.3-0.9-0.3-1.3,0c-0.3,0.3-0.5,0.8-0.6,1.3c-0.1,0.5,0,1,0.1,1.5c0.1,0.5,0.4,0.7,0.8,0.5
			c0.1,0.6,0.4,1.2,1,1.5l2.2,1.8c0.9,0.7,1.7,1.5,2.4,2.4c0.8,0.9,1.2,2,1.2,3.2c3,2,5.5,3.1,7.6,3.2c2,0.1,4.1-0.3,5.9-1.3
			c1.9-1,3.7-2.1,5.3-3.4c1.8-1.4,3.8-2.5,5.9-3.3c0.3-0.8,0.3-1.6,0-2.4c-0.3-0.6-0.6-1.2-0.8-1.9c1.2,0.2,2.3-0.8,3.4-2.8
			c1.2-2.2,2.2-4.6,3-6.9c0.9-2.6,1.7-5.1,2.3-7.5c0.5-1.4,0.8-2.8,1-4.3c1.9-1.5,4.5-3.4,7.7-5.7c3.3-2.4,6.7-4.6,10.3-6.6
			c3.7-2.1,7.5-4,11.3-5.7c3.6-1.6,7.3-2.7,11.2-3.3c0,0.2-0.2,1.3-0.5,3.4s-0.7,4.3-1,6.7s-0.6,4.6-0.9,6.7s-0.4,3.3-0.4,3.4
			c-0.2,4.5,0.7,8.9,2.6,13c1.9,3.8,4.1,7.4,6.7,10.7l-1,2.3c1.5,0.5,2.9,1.3,4,2.4c1.1,1.1,2.3,2.2,3.6,3.2
			c2.7-1.2,5.5-2.5,8.2-3.9c2.8-1.5,5.3-3.4,7.3-5.8c2.2-2.6,3.9-5.6,5-8.9c1.3-4.2,1.8-8.6,1.5-13c-1.1-2.3-1.5-4.9-1.3-7.5
			c0.3-2.2,0.2-4.5-0.3-6.7c1.3-1.5,2.2-3.2,2.9-5.1c0.8-2,1.4-4.1,2-6.2c0.6-2.1,1.2-4.2,1.8-6.3c0.6-1.9,1.4-3.8,2.5-5.4
			c0.6-7.7,1.7-15.3,3.2-22.9c1.5-7.2,2.8-14.5,4-22.1c-0.1-6.6-0.3-12.9-0.6-19.1s-0.6-12.2-1-18.1c-2.4-2.5-4.3-5.4-5.7-8.6
			c-1.5-3.4-2.9-6.9-4.2-10.7s-2.6-7.5-3.8-11.2c-1.2-3.6-2.7-7-4.5-10.4c-2.9,0.9-5.5,2.9-7.2,5.4c-2,3-3.5,6.3-4.3,9.7
			c-1,3.9-1.6,8-1.7,12c-0.1,4.1,0.2,8.2,1,12.3c-1.1,0.4-2,1.2-2.4,2.3c-0.5,1.1-1.1,2.1-1.9,3c0.9,8,0.8,16.1-0.4,24
			c-1.2,7.9-2.1,15.9-2.9,24c-3.4,2.2-7,4.1-10.7,5.6c-3.8,1.5-7.7,2.8-11.6,3.9c-3.9,1.1-7.9,2.2-12,3.3c-4.1,1.1-8,2.2-11.7,3.4
			c0.5-1.7,0.4-2.7-0.4-2.9c-0.8-0.2-1.3-0.9-1.4-1.7c0.7-3.3,1.3-7.5,2-12.4s1.4-10,2.1-15.2c0.7-5.2,1.2-10.4,1.7-15.4
			s0.8-9.5,0.9-13.4c-1.4-3.5-3.1-6.9-5-10.1c-1.8-3-3.6-6.1-5.3-9.1c-1.7-3-3.4-6.2-4.8-9.4c-1.6-3.6-2.8-7.3-3.6-11.1
			c-4.8,1.7-8.3,5.4-10.5,11.2c-2.4,6.5-4,13.3-4.8,20.2c-1,7.7-1.6,15.7-1.9,24c-0.3,8.3-0.9,15.8-1.8,22.5
			c-0.5-0.2-1.1-0.2-1.6-0.1c-0.5,0.1-0.7,0.5-0.9,1.1c0.6,2,0.9,4.1,0.8,6.2c0,2.7-0.2,5.4-0.6,8c-0.4,2.7-1,5.3-1.8,7.8
			c-0.7,2.2-1.7,4.2-3,6.1c-0.2,4.7-0.6,9.4-1.4,14c-0.7,5-2.4,9.9-4.8,14.3c0.5,1.1,0.7,2.3,0.6,3.5c-0.1,1-0.4,2-0.7,3
			c-0.3,1-0.6,2.1-0.9,3.3c-0.3,1.5-0.3,3,0,4.6c-0.5-0.7-0.9-0.8-1.3-0.4c-0.4,0.6-0.7,1.2-0.8,1.9c-0.2,0.9-0.4,1.7-0.5,2.7
			c-0.1,0.8-0.3,1.5-0.8,2.1c1.1,2.6,2,5.3,2.6,8.1C481.3,176.3,482.4,178.8,483.9,181z"/>
		<path d="M748.1,112.2l-3.5-1.8c-0.4-0.3-0.7-0.6-1-0.9c-0.4-0.4-0.7-0.8-1-1.1c-0.7-0.9-1.5-1.8-2.4-2.7c-1.3-1-2.9-1.6-4.5-1.6
			c-0.5-0.5-0.9-1-1.3-1.5c-0.4-0.5-0.7-1-1-1.5l-0.8-3l-2.5,0.3c-1.9,0.1-3.7,0.6-5.4,1.5c-0.7-0.2-1.5-0.3-2.3-0.3
			c-1.3-4.2-2.4-8.4-3.1-12.8c-0.8-4.5-1.5-9.1-2.1-14c-0.5-3.4-1.1-6.8-1.7-10.2c-0.6-3.5-1.2-6.9-1.8-10.2
			c-0.1-4.2-0.4-8-0.8-11.5s-0.8-7-1.4-10.5c-0.3-1.5-0.5-3-0.7-4.5s-0.4-3.2-0.7-5l-1-2.3c-1.6-2-3.6-3.5-6-4.4
			c-2.6-1.1-5.2-2.1-7.9-2.9c-1.5-0.7-3-1.3-4.5-1.8c-1.1-0.3-2.1-0.9-3.1-1.5l-3.1-2.5l-2.3,4.3c-2.9,6-6.3,11.8-10,17.3
			c-2.9,4.5-6.8,8.2-11.3,11l-3.5-0.8c-0.8,0-1.5,0.1-2.2,0.4c-0.6,0.2-1.1,0.5-1.7,0.9l-2.1-0.3l-1.3,2.5c-2,3.1-3.7,6.4-5,9.8
			c-1.3,3.4-2.6,6.7-3.8,10.1c-1,2.9-2.1,5.6-3.2,8.3c-1.3,3.1-2.7,6.1-4.4,9.1c-0.2,0.9-0.4,1.8-0.4,2.7c0,0.7,0.1,1.4,0.2,2.1
			c-1.2,3.4-2.4,6.7-3.6,9.9s-2.4,6.4-3.6,9.6c-3.7,9.9-7.3,19.6-10.7,29.1s-6.8,19.3-10,29.6l-0.2,5.3l-2.5,2.5l2.9,3.8
			c0.7,1.4,1.1,3,1.2,4.5c0.3,1.2,0.5,2.3,0.6,3.4c0.2,1.3,0.5,2.5,1,3.7l1.2,2c1.2,0.8,2.4,1.8,3.4,2.9c1,1.1,2.2,2.7,3.8,4.7
			l2.5,0.3c0.8,0,1.6-0.1,2.4-0.3c0.7-0.2,1.9-0.5,3.6-1l2.9-0.5l0.6-3.3c0.8-0.8,1.7-1.5,2.7-2c1-0.5,1.9-1.1,2.8-1.8
			c1.1-0.8,1.9-1.8,2.4-3l0.8-3.3c0-2.6,0.3-5.1,0.9-7.6c0.6-2.5,1.2-5.1,1.8-7.8c0.5-1.7,1-3.4,1.5-5.1c0.5-1.7,0.8-3.5,1.1-5.3
			c0.3-0.4,0.6-0.7,1-1c0.4-0.4,0.8-0.8,1-1.3l1.9-2.3l-0.8-2.8c-0.1-0.5-0.1-1,0.1-1.5c0.1-0.5,0.4-1.1,0.7-1.5l2.5-0.5l0.7-3.4
			c0.3-1.2,0.5-2.4,0.9-3.7c0.3-1.3,0.8-2.6,1.3-3.9c0.1,2,0.7,4,1.5,5.8c-0.6,2.1-0.4,4.3,0.6,6.3c0.9,1.7,1.7,3,2.3,4l0.9,1.1
			c0.3,0.3,0.4,0.7,0.5,1.1l0.6,2.8l2.1,0.3c2.3,0.5,4.6,0.7,7,0.8c3.1,0,6.3-0.3,9.3-1.1c2.8-0.8,5.7-1.6,8.7-2.7
			c2.1-0.7,4.1-1.3,6.2-1.9c2.6-0.6,5.4-0.4,7.9,0.4c0.3,5.4-0.3,9.1-1.5,11.3c-1.3,2.1-3.9,3.8-7.8,5.2l-6.5,2.4l3.9,5.8
			c0.5,0.7,1,1.3,1.3,1.9c0.4,0.6,0.8,1.1,1.4,1.6c1.1,1.2,2,2.6,2.8,4c0.5,1.1,0.5,2.4,0.1,3.5l-0.8,3.8l2.5,1.5
			c0.9,0.5,1.8,1.2,2.5,2c0.7,0.7,1.4,1.4,2.2,2c1.2,0.8,2.6,1.4,4,1.8c3.3-0.2,6.5-1.2,9.3-2.9c3-1.8,5.7-4.1,8-6.8
			c2.4-2.9,4.5-6,6.2-9.4c1.9-3.8,3.4-7.7,4.5-11.7c0.4-3.7,0.4-7.5,0.1-11.3c-0.3-3.6-0.7-7.1-1.3-10.5c-0.2-1.2-0.4-2.4-0.5-3.5
			c-0.1-1.1-0.2-2.2-0.5-3.3c3.7-2.2,7-5.1,9.8-8.3c2.7-3.1,4.9-6.6,6.5-10.4L748.1,112.2z M677.3,112c-3.9,0.5-8.1,0.9-12.6,1.3
			c-0.9,0.2-1.7,0.2-2.6,0.3c-0.9,0-1.7,0.1-2.6,0.3c1.7-3.7,3.4-7.2,5.2-10.6l0.2-0.3c2.1-5.1,4.6-10.1,7.4-14.9
			c2.8-5,5.9-9.9,9.3-14.7l1-2.5c1.4,6.6,2.7,13.1,4,19.6c1.3,6.5,2.4,12.9,3.4,19.1C685.8,110.6,681.5,111.4,677.3,112z"/>
		<path d="M798.8,196.2c1.5-0.5,2.9-1.1,4.2-1.9c1.2-0.7,2.1-1.7,2.8-2.9c8.2-1.6,16-4.5,23.1-8.7c7.5-4.3,14.6-9.2,21.4-14.5
			c1.8-2,3-3.3,3.5-4c0.6-0.7,1.1-1.5,1.5-2.3c0.5-0.8,1.3-2.2,2.3-4c0.8-1.5,2.3-3.9,4.3-7.2c0.2,1.8,0.4,3.7,0.6,5.5
			c0.5,3.5,0.9,6.8,1.4,10.1c0.5,3.3,0.8,6.2,1.1,8.7c1.6,1.1,2.7,2.7,3.2,4.6c0.4,1.7,1.2,3.4,2.2,4.8c3,3.8,7,6.6,11.6,8
			c4.7,1.5,9.6,2.4,14.5,2.5c5,0.2,10-0.2,15-1c5-0.9,9.3-1.7,12.9-2.5c1,0,2.1,0.2,3,0.6c1.1,0.4,2.4,0.5,3.6,0.1
			c5.8-1.3,11.1-2.5,15.8-3.4c4.4-0.8,8.7-2.3,12.8-4.3c3.9-2,7.4-4.8,10.3-8.2c2.5-3.1,4.6-6.5,6.2-10.2c1,3.6,2.3,7.2,3.7,10.7
			c1.4,3.6,3.2,7,5.2,10.2c1.7,2.9,4.3,5.1,7.5,6.4c1.1-0.3,2.1-0.8,2.9-1.5c0.8-0.7,2.1-0.8,3.9-0.5c-0.3-1.3-0.5-2.1-0.9-2.3
			c-0.3-0.2-0.2-0.7,0.3-1.5c2.5,0.2,4.2-0.5,5.1-1.9c1-1.6,1.7-3.3,2-5.2c0.4-2,0.7-4.1,1-6.2c0.2-1.9,1-3.8,2.3-5.2
			c-0.6-1.6-0.8-3.4-0.5-5.1c0.3-1.4,0.8-2.9,1.5-4.2c0.6-1.3,1.3-2.5,2-3.8c0.7-1.3,1.2-2.7,1.5-4.2c1,0,1.8-0.8,2.3-2.3
			s1-3.2,1.5-5.1s1.1-3.6,1.7-5.3c0.4-1.5,1.5-2.7,2.9-3.3c2.6,9.9,6.6,19.4,12,28.1c4.8,7.7,10.5,14.7,17,21
			c4.3,2,7.7,2.7,10.3,2.1c2.6-0.6,5-1.8,7-3.7c2-1.9,3.9-3.9,5.5-6.1c1.6-2.1,3.6-3.9,5.8-5.3c-0.7-2-0.7-3.2-0.1-3.7
			s0.8-1.4,0.7-2.9c1,0.2,1.6,0.5,1.7,0.9s0.5,0.3,1.2-0.4c1.6-3.7,3-7.4,4.5-11.1c1.3-3.5,3.2-6.7,5.8-9.4
			c0.7-4.8,1.8-9.6,3.1-14.3c1.4-5.1,2.7-10.1,3.9-15c-0.1-5,0.1-10,0.6-14.9c0.5-4.6,1.1-8.9,1.8-13.2c0.6-4.2,1.4-8.5,2.1-12.9
			c0.8-4.4,1.3-9.1,1.7-14.2c1.4-1.2,2.5-2.6,3.3-4.3c0.8-1.8,1.4-3.6,1.8-5.6c0.4-2,0.9-4,1.3-6.1c0.3-1.9,0.9-3.8,1.7-5.6
			c-0.4-3.6-1.5-7.2-3.1-10.5c-1.5-3.1-3.2-6.4-5-9.7c-2.2-0.4-4.2-1.5-5.8-3c-1.6-1.6-3.1-3.2-4.4-4.9c-1.4-1.7-2.9-3.3-4.6-4.8
			c-1.7-1.5-3.7-2.5-5.9-2.8c-1.1,2.6-1.9,5.3-2.4,8c-0.6,3-1.2,5.9-1.7,8.7c-0.6,2.8-1.3,5.6-2.1,8.3c-0.7,2.5-1.9,4.8-3.4,6.8
			c-1.2,9.8-2.3,19.4-3.4,28.8c-1,8.9-2.6,17.8-4.7,26.6c-1.8,7.8-4.6,15.3-8.1,22.5c-3.2,6.4-7.8,12.1-13.5,16.4
			c-0.9-5-1.4-10.1-1.5-15.2c-0.1-4.9-0.1-9.6,0-14.3s0.3-9.2,0.4-13.7c0.1-4.4,0-8.9-0.4-13.3c0.5,0.2,0.9,0.1,1.1-0.1
			c0.2-0.3,0.4-0.6,0.5-0.9c0.1-0.3,0.3-0.6,0.5-0.9c0.3-0.3,0.7-0.4,1.1-0.4c-0.5-1.7-0.6-3.5-0.3-5.2c0.3-1.2,0.7-2.4,1.3-3.5
			c0.5-1.2,0.9-2.4,1.2-3.7c0.2-1.9,0-3.8-0.6-5.6c0.7,0.3,1.1,0.3,1.4-0.1s0.7-0.5,1.3-0.4c-0.5-0.8-0.9-1.8-1-2.8
			c0-0.6,0.1-1.1,0.2-1.6c0.1-0.4,0.2-0.8,0.1-1.3c-0.2-0.8-0.6-1.5-1.1-2.2c0.3-0.7,0.6-0.8,1-0.5s0.7,0,1-1
			c-0.6-4.7-1.9-9.3-4-13.5c-1.9-3.8-4.4-7.4-7.3-10.5c-2.8-3-6-5.7-9.4-8c-3.4-2.2-6.9-4.2-10.5-5.9c-4,11.5-8.2,23.1-12.5,35
			s-8.7,23.7-13,35.4c-4.3,11.8-8.6,23.3-12.9,34.7s-8.3,22.3-12,32.7c1,1.6,1.6,3.3,1.8,5.2c0.2,1.2,0.4,2.4,0.8,3.6
			c-0.1-0.2-0.3-0.5-0.4-0.7c-1.3,0.4-2.6,0-3.5-1c-1-1.1-1.9-2.4-2.6-3.7c-0.8-1.4-1.7-2.9-2.6-4.3c-0.8-1.3-1.9-2.3-3.3-2.9
			c-3.8,1.6-7.7,2.7-11.7,3.4c-3.9,0.7-7.7,2.1-11.1,4.2c-4-0.2-8.1,0-12.1,0.5c-3.3,0.5-6.5,1-9.6,1.5c-3.3,0.5-6.6,0.9-9.9,1
			c-4.4,0.1-8.8-0.3-13.2-1.3c1.5-5.2,3.3-10.3,5.4-15.3c2.1-4.8,4.3-9.4,6.6-13.8c2,0.9,4.1,1.3,6.3,1.3c2.2,0,4.3,0.4,6.3,1.3
			c1.6-0.9,3.5-1.2,5.3-0.9c1.8,0.3,3.6,0,5.1-0.9c0.4,0.5,1,0.9,1.6,1h1.7c3.4,0.2,6.8-0.3,10-1.5c3-1.2,5.9-2.7,8.6-4.6
			c2.7-1.9,5.2-4,7.7-6.2c2.5-2.3,5-4.5,7.5-6.7c0.6-1.9,0.8-3.9,0.6-5.8c-0.2-1.8-0.7-3.6-1.4-5.3c-1.4,0.2-2.9-0.2-4-1.1
			c-1.3-1-2.4-2.2-3.4-3.5c-1.1-1.4-2.2-2.9-3.2-4.4c-0.9-1.4-2-2.7-3.3-3.8c-0.1-0.6,0.1-1.2,0.4-1.8c0.3-0.5,0.4-1.2,0.2-1.8
			c-6.3,0.3-12.8,0.9-19.4,1.6c-6,0.8-12,0.8-18,0.1c-0.4-1.6-0.6-3.2-0.5-4.8c0.1-1.9-0.2-3.8-0.9-5.6l4.2-1.5
			c1.4-0.5,2.6-1.4,3.6-2.5c1.3,0.3,2.7,0.3,4,0c1.1-0.3,2.1-0.7,3-1c0.8-0.3,1.7-0.5,2.6-0.6c1-0.1,2,0.2,2.8,0.6
			c3.1-2.5,6.5-4.6,10.3-6.1c3.4-1.3,6.8-2.4,10.4-3.2c3.4-0.8,6.8-1.5,10.1-2.2c3.2-0.6,6.4-1.6,9.4-3c3.1-1.4,6-3.4,8.4-5.8
			c3-3.1,5.4-6.7,7.1-10.6c-0.2-1-0.4-2.1-0.4-3.2c0-0.7,0.1-1.3,0.2-2c0.1-0.6,0.2-1.2,0.3-1.9c0.1-1.1,0-2.2-0.1-3.3
			c-2.9-1.7-5.7-3.7-8.1-5.9c-2.6-2.5-4.6-5.4-6-8.7c0.1,0.8,0.1,1.4-0.2,1.7c-0.2,0.2-0.6,0.3-0.9,0.1c-0.4-0.2-0.8-0.4-1.2-0.5
			c-0.3-0.1-0.7-0.2-1.1-0.3c0,0.4,0,0.7,0,1.1c0.1,0.5,0.1,0.9,0.1,1.4c-1,0-1.9-0.7-2.1-1.8H968c-0.3,0-0.5-0.3-0.7-0.8
			c-6.6,1.5-12.4,2.6-17.4,3.4c-5,0.8-9.8,1.6-14.5,2.5c-4.7,0.9-9.4,2.1-14.3,3.5c-5.6,1.7-11.2,3.7-16.7,6c-3.5,1-6.8,1.9-9.9,2.6
			c-3,0.7-5.8,1.7-8.6,3c-2.6,1.3-5.1,2.9-7.3,4.8c-2.3,2.1-4.2,4.6-5.6,7.5c0.8,3.3,1.3,6.6,1.5,10c0.3,3.3,0.7,6.5,1.2,9.7
			c0.5,3.2,1.2,6.4,2.1,9.5c1,3.2,2.6,6.1,4.8,8.7c-0.9,3.6-2.1,7.1-3.4,10.5c-1.2,3.1-2.4,6.2-3.6,9.2c-1.2,3-2.3,6.2-3.3,9.3
			s-2,6.7-2.9,10.4c-1-0.3-1.6,0-1.8,0.9c-0.1,0.8-0.7,1.5-1.5,1.6c0.3,1.3,0.2,2.7-0.1,4.1c-0.3,1.3-0.8,2.7-1.3,3.9
			c-0.6,1.3-1.2,2.6-1.7,3.9c-0.3,0.8-0.6,1.6-0.9,2.5c-0.2-0.6-0.3-1.2-0.5-1.9c-0.7-1.9-1.3-4-2-6.1c-0.7-2-1.2-4.1-1.7-6.2
			c-1.1-0.2-2.1-0.9-2.5-2c-1.2-2.8-2.8-5.4-4.8-7.7c-1.9-2.2-3.8-4.4-5.9-6.4c-2.1-2-4.1-4.1-6.1-6.2c-2-2.1-3.8-4.5-5.3-7
			c2.3-3.8,4.8-7.4,7.6-10.9c2.8-3.4,5.4-7,7.8-10.7c2.5-3.9,4.5-8.1,6.1-12.5c1.7-5.2,2.5-10.7,2.2-16.2c-0.1-0.7-0.7-1.3-1.4-1.5
			c-0.6-0.2-0.9-0.8-0.8-1.8c0-2.4-0.5-4.7-1.5-6.8c-1-2-2.2-3.9-3.6-5.6c-1.5-1.7-3-3.3-4.7-4.9c-1.6-1.6-3-3.3-4.2-5.2
			c-1.2,0-2.4-0.6-3.2-1.5c-1-1-2-2.1-3.1-3.4c-1.1-1.3-2.3-2.4-3.6-3.4c-1.3-1-2.8-1.5-4.5-1.5c-0.7,0.3-0.7,0.9-0.2,1.6
			s0.5,1,0,0.9c-1.3-1.3-3-2.2-4.8-2.7c-1.4-0.2-2.7-1-3.5-2.2c-1,0.5-2.1,0.8-3.3,0.9c-1.3,0.1-2.7,0.1-4.1,0.1s-2.8,0-4.1,0.1
			c-1.2,0-2.3,0.4-3.3,1.1c-6.5-0.5-13.1,0.1-19.3,1.9c-6.1,1.8-11.4,3.6-16.1,5.4c-0.7-0.7-1-0.8-1-0.5s-0.4,0.3-1.2,0
			c-3.7,1-7.6,2.2-11.6,3.5c-4,1.3-7.8,3.1-11.3,5.3c-3.6,2.2-6.8,4.9-9.6,8c-2.9,3.3-5.1,7.2-6.2,11.5c2,6.5,4.9,12.7,8.7,18.4
			c3.4,5.1,8,9.3,13.5,12.1c1.5-0.7,3.2-1,4.8-0.9c1.7,0.1,3.4-0.6,4.5-1.9c0.1-2.4,0.8-4.7,1.8-6.8c1-1.7,2.8-2.8,4.7-3
			c0.5,2.9,0.6,5.9,0.2,8.8c-0.4,2.4-0.9,4.8-1.7,7.2c-0.7,2.3-1.4,4.6-2,7c-0.7,2.6-0.9,5.4-0.8,8.1c-1.3,3.9-2.3,8-3.1,12.1
			c-0.5,3.2-1,6.2-1.5,9c-0.4,2.8-1.1,5.7-1.8,8.6c-1.1,3.7-2.4,7.3-4.1,10.7c-0.1,0.6,0.1,1.2,0.4,1.8c0.3,0.4,0.5,0.8,0.8,1.3
			c-1.2,1.2-2.1,2.8-2.5,4.4c-0.5,1.8-0.9,3.6-1.3,5.4c-0.3,1.9-0.7,3.7-1.1,5.4c-0.3,1.7-1.1,3.2-2.3,4.4c0.9,2,1.4,4.1,1.5,6.3
			c-0.9,0.3-1.6,0.9-1.9,1.8c-0.4,0.9-0.7,1.9-0.9,2.9c-0.2,1.2-0.3,2.4-0.4,3.5c-0.1,1.3-0.2,2.5-0.3,3.7c0.6,2.5,1.5,4.9,2.7,7.2
			c1.2,2.1,1.4,3.8,0.8,5.2c1.2,0.3,2.1,1.4,2.7,3.2c0.6,1.2,0.8,2.6,0.6,3.9c1.1,0.4,2,0.9,2.9,1.6c0.7,0.6,1.2,1.3,1.8,2l1.5,2.3
			c0.6,0.9,1.4,1.6,2.3,2.1c0.8-1,1.6-1.4,2.4-1.3l4,0.8c1.3-0.9,2.3-2.1,3-3.5c0.9-1.6,1.7-3.2,2.4-4.8c1.4,1.4,3.1,2.8,5,4.3
			c1.7,1.4,3.6,2.6,5.6,3.5c1.4,0.7,3,1.1,4.5,1.1c1.2-0.1,1.9-1.1,2-3.2c0.6,0.3,1,0.9,1.1,1.6c0,0.7,0.4,1.3,1.1,1.6
			c1.4-0.3,3-0.7,4.7-1C795.5,197.1,797.2,196.7,798.8,196.2z M797.4,43.2c7.7-2.2,15.6-3.1,23.6-2.8c-3.6,5.9-7.9,11.5-12.6,16.5
			c-4.7,5-10.2,9.1-16.3,12.3c-1.2-3.5-3.4-6.5-6.3-8.8c-2.9-2.3-5.6-4.8-8-7.6C783.7,48.4,790.4,45.1,797.4,43.2z M778.4,158.8
			c1.7-6.6,3.4-13.3,5.2-20.2c1.8-6.9,3.6-13.2,5.2-19c3.4-0.7,6.8-1.7,10.1-3c3.4-1.4,6.9-2.4,10.5-3.2c3.8-0.8,7.8-0.8,11.6-0.1
			c4.1,0.7,8.5,2.8,13.5,6.3c0.3,1.9,0,3.9-1,5.6c-0.9,1.4-2,2.6-3.3,3.7c-1.3,1.1-2.6,2.2-3.9,3.4c-1.3,1.3-2.2,3-2.4,4.8
			c-3.7,1.9-7.4,3.8-10.8,5.9c-3.5,2.1-7,4.2-10.7,6.3c-3.6,2.1-7.4,4.1-11.3,5.7C787.1,156.7,782.9,158,778.4,158.8L778.4,158.8z"
			/>
		<path d="M1179.2,70.8c1.5-0.7,3.2-1,4.8-0.9c1.7,0.1,3.4-0.6,4.4-1.9c0.1-2.4,0.8-4.7,1.8-6.8c1-1.7,2.8-2.8,4.8-3
			c0.5,2.9,0.6,5.9,0.2,8.8c-0.4,2.4-0.9,4.8-1.7,7.2c-0.7,2.3-1.4,4.6-2,7c-0.7,2.6-0.9,5.4-0.8,8.1c-1.3,4-2.4,8-3.1,12.1
			c-0.5,3.2-1,6.2-1.4,9c-0.4,2.8-1.1,5.7-1.8,8.6c-1.1,3.7-2.4,7.3-4.1,10.7c-0.1,0.6,0.1,1.2,0.4,1.8c0.3,0.4,0.5,0.8,0.8,1.3
			c-1.2,1.2-2.1,2.8-2.5,4.4c-0.5,1.8-0.9,3.6-1.3,5.4c-0.3,1.9-0.7,3.7-1.1,5.4c-0.3,1.7-1.1,3.2-2.3,4.4c0.9,2,1.4,4.1,1.6,6.3
			c-0.9,0.3-1.6,0.9-1.9,1.8c-0.4,0.9-0.7,1.9-0.9,2.9c-0.2,1.2-0.3,2.4-0.4,3.5c-0.1,1.3-0.2,2.5-0.3,3.7c0.6,2.5,1.5,4.9,2.7,7.2
			c1.2,2.1,1.4,3.8,0.8,5.2c1.2,0.3,2.1,1.4,2.7,3.2c0.6,1.2,0.8,2.6,0.6,3.9c1.1,0.4,2,0.9,2.9,1.6c0.7,0.6,1.2,1.3,1.8,2l1.6,2.3
			c0.6,0.9,1.4,1.6,2.3,2.1c0.8-1,1.6-1.4,2.4-1.3l4,0.8c1.3-0.9,2.3-2.1,3-3.5c0.9-1.6,1.7-3.2,2.4-4.8c1.4,1.3,3.1,2.8,5,4.3
			c1.7,1.4,3.6,2.6,5.6,3.5c1.4,0.7,3,1.1,4.6,1.1c1.2-0.1,1.9-1.1,2-3.2c0.6,0.3,1,0.9,1.1,1.6c0,0.7,0.4,1.3,1.1,1.6
			c1.4-0.3,3-0.7,4.7-1c1.7-0.3,3.3-0.7,4.9-1.3c1.5-0.5,2.9-1.1,4.2-1.9c1.2-0.7,2.1-1.7,2.8-2.9c8.1-1.6,16-4.5,23.1-8.7
			c7.5-4.3,14.6-9.2,21.4-14.5c1.8-2,3-3.3,3.5-4c0.6-0.7,1.1-1.5,1.5-2.3c0.5-0.8,1.3-2.2,2.3-4c0.8-1.5,2.2-3.8,4.2-6.9
			c0.1,1.9,0.3,3.9,0.5,5.9c1.6,5.4,3.8,10.7,6.5,15.7c2.5,4.6,5.7,8.8,9.5,12.4c3.6,3.5,7.8,6.1,12.5,7.8c5,1.7,10.3,2,15.5,1
			c5.9,1.7,11.1,2.1,15.5,1.3c4.7-0.9,9.2-2.5,13.6-4.6c2.2,0.3,4.4,0.2,6.6-0.4c2.5-0.6,5-1.4,7.4-2.4c2.4-1,4.8-2.1,7.2-3.4
			c2.1-1.1,4.1-2.4,6-3.9c2.2-0.7,4.3-1.3,6.4-1.9c2.1-0.6,4.1-1.6,5.8-2.9c2.5-2.8,5.4-5.3,8.5-7.5c3.1-2.2,5.8-5,7.7-8.2
			c1.9-1.6,3.4-3.7,4.4-5.9c1.3-2.7,2.4-5.5,3.1-8.5c0.7-2.9,1.2-5.9,1.5-8.9c0.2,0.9,0.3,1.7,0.5,2.6c1.3,6.1,3.2,12,5.6,17.7
			c2.1,5.2,5.3,9.9,9.2,13.9c2.4,0.7,4.6,2.2,6.2,4.2c1.6,2,3.1,4.1,4.4,6.2c7.6,3.3,15.5,6.1,23.6,8.2c8.2,2.2,16.5,3.5,25,3.9
			c1.5-0.8,3.2-1.4,4.9-1.6c1.7-0.3,3.5-0.4,5.2-0.4c1.7,0,3.4,0.1,5,0.3c1.4,0.2,2.8,0.2,4.2,0c2.6-2.5,5.2-5.1,7.8-7.7
			c2.6-2.6,4.9-5.3,7.2-8.2c0.4-2.9,0.3-5.8-0.4-8.6c-0.6-2.3-1.6-4.5-2.9-6.4c-1.3-1.9-2.6-3.7-4.1-5.4c-1.5-1.8-2.8-3.7-4-5.7
			c-11.3-0.2-22.8-0.7-34.4-1.6c-11.2-0.9-22.3-3.4-32.8-7.4c-0.9-2.4-1.8-4.7-2.6-7c-0.9-2.7-1.5-5.4-1.7-8.2
			c0.9-1.5,1.7-3,2.5-4.6c0.9-2.1,1.3-4.3,1.2-6.6c2.3-3,4.7-6.1,7-9.2s4.8-6.1,7.3-9c2.5-2.8,5.2-5.5,8.1-7.8
			c2.9-2.4,6.2-4.3,9.8-5.6c2-3,4.5-5.7,7.3-8c2.8-2.3,5.7-4.3,8.9-6c3.2-1.7,6.5-3.2,9.9-4.5c3.4-1.3,7.1-2.7,11.1-4
			c3.7-1.4,6.9-4,9.2-7.2c2.7-3.5,4.7-7.6,5.7-11.9c1-4.1,0.9-8.4-0.4-12.4c-1.3-4-4.3-6.9-8.9-8.7c0.1-0.9,0.2-1.7,0.6-2.5
			c0.3-0.5,0.1-1.2-0.6-2c-1.5-0.2-2.9-0.8-4-1.9c-0.8-0.9-2-1.3-3.2-0.9c0.1-0.3,0.4-1,0.9-2s0.2-1.6-0.9-1.8
			c-0.4,1.2-0.8,1.7-1.1,1.5c-0.4-0.3-0.8-0.6-1.2-1c-0.4-0.6-0.9-1.1-1.4-1.6c-0.5-0.5-1.3-0.7-1.9-0.5c-1.3,0.5-2.6,1-3.9,1.4
			c-1.3,0.5-2.7-0.1-3.3-1.4c-0.9,1.9-2.3,3.5-4,4.8c-1.6,1.2-3.3,2.3-5,3.3c-1.7,1-3.5,2.1-5.2,3.3c-1.7,1.2-3.2,2.6-4.4,4.3
			c-3.1,0.9-5.9,2.4-8.5,4.3c-2.5,1.9-4.9,3.9-7.2,6.1c-2.3,2.2-4.7,4.2-7.3,6.1c-2.6,1.9-5.5,3.4-8.6,4.3c-0.7,1.5-1.7,2.8-2.9,3.9
			l-3.5,3.3c-1.2,1.1-2.3,2.4-3.3,3.7c-1.1,1.4-1.9,3.1-2.3,4.8c-0.6-0.5-1.4-0.8-2.1-0.8c-2.2,3.2-4.4,6.4-6.7,9.5
			c-2.3,3.1-4.4,6.4-6.5,9.9c-2.1,3.5-4,7.1-5.6,10.9c-1.8,4-3.2,8.2-4.3,12.5c-0.1,5.1,0,10.4,0.3,15.9c-0.3-1-0.6-2-0.9-3
			c-0.7-2.2-1.3-4.4-1.7-6.7c-0.5-2.3-0.6-4.7-0.3-7c-3.8-8.1-7.2-16.4-10.1-24.9c-3-8.7-6.3-17-9.9-24.9c0.5-1.2,0.7-2.5,0.6-3.8
			c-0.1-1.2-0.6-1.8-1.4-1.9s-1.2-0.8-1.2-2.2c1.7-1,2.8-2.7,3.1-4.7c0.5-2.3,1.1-4.4,1.7-6.4c-0.2-1-0.5-2-0.9-3
			c-0.3-0.8-0.7-1.6-1-2.3c-0.3-0.7-0.6-1.5-0.9-2.3c-0.3-1.1-0.6-2.2-0.8-3.3c-0.7-0.2-1.1-0.1-1.3,0.3s-0.6,0.5-1.3,0.5
			c-0.1-1.6-0.7-3.1-1.7-4.3c-0.9-1-1.8-2-2.7-2.9c-0.9-0.9-1.8-1.9-2.5-3c-0.9-1.4-1.3-3-1.3-4.7c-1.8-2.4-3.8-3.7-6-3.9
			c-2.2-0.3-4.4-1.1-6.2-2.4c-1.6,1.4-3.1,2.9-4.4,4.6c-1.4,2-2.5,4.1-3.3,6.3c-1.3,0.3-2.7,0.5-4,0.5c-1.1,0-2.3,0.1-3.4,0.3
			c-1.8,3.2-3.4,5.8-4.7,7.8c-1.6,2.3-3.7,4.2-6.2,5.6v3.3c-1.2,0.5-2.3,1.1-3.3,2c-0.9,0.9-1.8,1.8-2.6,2.8c-0.8,1-1.7,1.9-2.7,2.8
			c-1,0.8-2.1,1.5-3.4,1.8c-0.6,1.4-1.3,2.6-2.2,3.8c-0.8,1-1.8,2-2.7,2.9c-1,0.9-1.9,1.9-2.7,2.9c-0.9,1.1-1.6,2.4-2,3.8
			c-0.8,0.4-1.5,1-2,1.8c-0.6,0.8-1.1,1.7-1.5,2.5c-0.4,0.8-0.9,1.4-1.6,2c-0.7,0.5-1.6,0.5-2.2,0l-12.9,20
			c-4.5,7.1-8.5,14.5-11.9,22.2c-3.6,8.3-6.3,17-7.9,25.9c-0.5,2.6-0.9,5.4-1.2,8.2c-0.1-0.4-0.2-0.7-0.3-1.1c-0.7-1.9-1.3-4-2-6.1
			c-0.7-2-1.2-4.1-1.6-6.2c-1.1-0.2-2.1-0.9-2.5-2c-1.2-2.8-2.8-5.4-4.7-7.7c-1.9-2.2-3.8-4.4-5.9-6.4c-2.1-2-4.1-4.1-6.1-6.2
			c-2-2.1-3.8-4.5-5.3-7c2.3-3.8,4.8-7.4,7.7-10.9c2.8-3.4,5.4-7,7.8-10.7c2.5-3.9,4.6-8.1,6.1-12.5c1.7-5.2,2.5-10.7,2.2-16.2
			c-0.1-0.7-0.7-1.3-1.3-1.5c-0.7-0.2-0.9-0.8-0.8-1.8c0-2.4-0.5-4.7-1.4-6.8c-1-2-2.2-3.9-3.7-5.6c-1.5-1.7-3-3.3-4.6-4.9
			c-1.6-1.6-3-3.3-4.2-5.2c-1.2,0-2.4-0.6-3.2-1.5c-1-1-2-2.1-3.1-3.4c-1.1-1.3-2.3-2.4-3.6-3.4c-1.3-1-2.8-1.5-4.4-1.5
			c-0.7,0.3-0.7,0.9-0.2,1.6s0.5,1,0,0.9c-1.3-1.3-3-2.2-4.8-2.7c-1.4-0.2-2.7-1-3.5-2.2c-1,0.5-2.1,0.8-3.3,0.9
			c-1.3,0.1-2.7,0.1-4.1,0.1s-2.8,0-4.1,0.1c-1.2,0-2.3,0.4-3.3,1.1c-6.5-0.5-13.1,0.1-19.4,2c-6.1,1.7-11.4,3.5-16.1,5.4
			c-0.7-0.7-1-0.8-1-0.5s-0.4,0.3-1.2,0c-3.7,1-7.6,2.2-11.6,3.5c-3.9,1.3-7.7,3.1-11.2,5.3c-3.6,2.2-6.8,4.9-9.6,8
			c-2.9,3.3-5.1,7.2-6.2,11.5c1.9,6.5,4.9,12.8,8.6,18.5C1169.2,63.8,1173.8,67.9,1179.2,70.8z M1324.5,132.1
			c1.2-3.5,2.6-6.9,4.4-10.2c1.7-3.2,3.4-6.4,5.1-9.5c1.8-3.3,3.4-6.9,4.6-10.5c0.8-0.3,1.2-0.4,1.3-0.3s0.5,0,1.2-0.5
			c3.4-5.6,7.5-10.8,12.1-15.4c4.5-4.4,8.9-8.9,13.5-13.7c0.7,0.8,1.6,1.5,2.6,2c0.9,0.5,1.9,0.7,2.9,0.8c0.9,0,1.9-0.3,2.6-0.9
			c0.9-0.9,1.6-2.1,1.7-3.4c0.9,1.2,1.7,1.3,2.5,0.5c0.7-0.7,1.2-1.6,1.6-2.5c3.3,6.6,6.1,13.4,8.5,20.3c2.3,6.9,5.2,13.5,8.7,19.8
			c0,1.5,0.1,3,0.3,4.6c0.3,1.3,0.7,2.6,1.3,3.8c0,2.3-0.6,4.6-1.8,6.6c-1.1,1.6-1.9,3.4-2.5,5.3c-5,3.4-9.9,6.7-14.5,10
			c-4.5,3.2-9.6,5.3-15.1,5.9c-1,0-1.6,0.8-1.6,2.3c-3.4,0-6.8,0.5-10.1,1.3c-3.7,0.8-7.5,1.5-11.2,1.9c-3.6,0.4-7.3,0.3-10.9-0.3
			c-3.6-0.6-6.8-2.4-9.2-5.2C1322.5,140.5,1323.2,136.2,1324.5,132.1z M1264.4,119.6c0.3,1.9,0,3.9-1,5.6c-0.9,1.4-2,2.6-3.3,3.7
			c-1.3,1.1-2.6,2.2-3.9,3.4c-1.3,1.3-2.2,3-2.5,4.8c-3.7,1.9-7.4,3.8-10.8,5.9c-3.5,2.1-7,4.2-10.7,6.3c-3.6,2.1-7.4,4-11.2,5.7
			c-4.1,1.8-8.4,3-12.8,3.8c1.7-6.6,3.4-13.3,5.2-20.2s3.5-13.2,5.2-19c3.4-0.7,6.8-1.7,10.1-3c3.4-1.4,6.9-2.4,10.6-3.2
			c3.8-0.8,7.8-0.8,11.6-0.1C1255,113.9,1259.5,116,1264.4,119.6z M1227.3,43.2c7.7-2.2,15.6-3.1,23.6-2.8
			c-3.6,5.9-7.8,11.5-12.6,16.5c-4.7,5-10.2,9.1-16.3,12.3c-1.2-3.5-3.4-6.5-6.3-8.8c-2.9-2.3-5.6-4.8-8-7.6
			C1213.5,48.4,1220.2,45.1,1227.3,43.2z"/>
		<path d="M1541.7,143.8c0.5,0.5,0.7,0.9,0.7,1.3s-0.2,0.9-0.3,1.5c-0.4,0.3-0.6,0.8-0.5,1.3c0.1,0.5-0.2,0.9-0.7,1c0,0,0,0,0,0
			c-0.6,1.1-0.8,2.4-0.7,3.7c0.2,1.1,0.5,2.1,0.9,3.2c0.4,1,0.6,2,0.7,3c0,1.2-0.5,2.4-1.3,3.3c1.4,1.2,2.8,2.4,4.1,3.8
			c-1,1.5-1.4,3.3-1.1,5c0.3,1.8,0.9,3.5,1.6,5.2c0.7,1.8,1.4,3.7,2.1,5.8c0.7,2.2,1.1,4.4,1.1,6.7c1.2,0.3,2.2,0.9,3.1,1.8
			c0.9,0.8,1.8,1.7,2.7,2.6c0.9,0.9,1.8,1.7,2.9,2.3c1.1,0.6,2.4,0.9,3.7,0.9c4.9-2.8,9-6.7,11.9-11.5c3.2-5,6.2-10.3,9-15.9
			c2.8-5.6,5.8-11.2,8.8-16.7c2.9-5.3,6.7-9.9,11.3-13.8c0.6,0.5,1.3,0.7,2,0.8c0.8,0,1.4,0.5,1.6,1.3c1.9,3.3,4.1,6.4,6.7,9.2
			c2.5,2.8,5.1,5.6,7.8,8.5c2.2,2,4.6,4.2,7.3,6.6c1.8,1.7,3.7,3.2,5.7,4.6c1,0.5,2.2,0.7,3.3,0.5c1.3-0.2,2.5,0.2,3.5,1
			c0.4,0.5,0.7,1.1,0.9,1.8c0.2,0.6,0.5,1.2,1.1,1.5c5.1,2.8,10.7,4.7,16.5,5.6c6.5,0.9,13,1.1,19.6,0.8c5.3-2.9,9.7-7,13.1-12
			c3.3-5,5.1-11.4,5.3-19.3c-1.3-1.4-2.6-2.9-3.8-4.4c-1.1-1.4-2.2-2.8-3.4-4.2c-1.2-1.3-2.4-2.6-3.7-3.8c-1.4-1.3-3.1-2.3-4.8-3
			c-0.8-0.2-1.1,0.1-1.1,0.9c0.1,0.6-0.2,1.2-0.9,1.4c-5.8,0-11.4-0.1-16.8-0.3c-5.1-0.1-10.2-1-15.1-2.5c-4.7-1.5-8.9-4-12.6-7.3
			c-3.7-3.4-6.8-8.3-9.1-14.9c0.3-1.3,1-2.4,2-3.3c1-0.9,1.8-2,2.2-3.3c0.5-0.2,1-0.3,1.4-0.4c0.4-0.1,0.9-0.1,1.3-0.1
			c0.6-1.6,1.5-3,2.6-4.3c1.1-1.2,2.3-2.3,3.5-3.4c1.2-1.1,2.4-2.2,3.6-3.4c1.2-1.2,2.1-2.5,2.9-4c3.3-3.3,6.7-6.5,10.4-9.4
			c3.4-2.7,6.8-5.3,10.1-7.8s6.5-5.2,9.7-8c3.4-3,6.5-6.3,9.4-9.7c0.4-2,1-4,1.8-5.9c0.7-1.6,1.3-3.1,1.8-4.4c0-2.3-0.4-4.6-1.4-6.7
			c-0.7-1.4-1.7-2.6-2.8-3.7c-1.1-1-2.2-2.1-3.3-3.2c-1.3-1.4-2.2-3.1-2.8-4.9c-2.2-0.2-4.2-1.5-5.2-3.4c-1.3-2.1-2.6-4.1-3.9-5.9
			c-1.9,1-3.7,2.1-5.5,3.3c-1.8,1.2-3.8,2.2-5.9,3c-0.1,1.4,0.1,2.1,0.6,2.4s0.7,1,0.6,2.1c-0.6-0.5-1.3-0.9-2-1.3
			c-0.7-0.3-1.7-0.2-3,0.5c-2.5,2.4-5.1,4.6-7.6,6.6c-2.5,2-5,4-7.3,6c-2.3,2.1-4.6,4.4-6.9,6.8c-2.3,2.4-4.9,5-7.8,7.7
			c-3.7,3.9-8.1,8-13.2,12.4c-4.9,4.2-9.3,9-13.2,14.2c0.2-2.4,0.4-4.7,0.9-7.1c0.5-2.6,1.1-5.1,1.8-7.6c0.8-2.5,1.7-4.9,2.9-7.2
			c1-2.1,2.3-4,3.9-5.7c-0.4-0.5-0.7-1-0.8-1.6c0-0.4,0.1-0.9,0.3-1.3c0.2-0.4,0.4-0.9,0.5-1.4c0.1-0.8,0.1-1.5,0-2.3
			c2.3-1.5,3.9-3.8,4.4-6.5c0.6-2.8,0.7-5.7,0.2-8.5c-0.5-3-1.4-5.9-2.7-8.6c-1.1-2.5-2.6-4.9-4.5-6.9l-3.5,0.8
			c-0.7-0.9-1.2-1.9-1.6-2.9c-0.4-1-0.8-2-1.3-2.9c-1.1,0-2.2-0.2-3.3-0.5c-1-0.3-2-0.8-2.9-1.3c-0.9-0.5-1.8-1-2.8-1.4
			c-1-0.4-2.1-0.7-3.2-0.9c-2.6,1.8-4.7,4.3-6.1,7.1c-1.5,2.9-2.8,5.9-3.9,9c-1.1,3.1-2.2,6.2-3.3,9.2c-1,2.8-2.4,5.4-4.2,7.8
			c-1.4,8.8-3.3,17.5-5.8,26.1c-2.4,8-4.8,16-7.2,23.9c-2.4,7.9-4.6,16.1-6.6,24.4c-2.1,9.1-3.5,18.4-4,27.7l-1.9,1
			C1541.7,141.9,1541.5,142.7,1541.7,143.8z"/>
		<path d="M187.8,404.2c2.4-7.6,4.9-15.1,7.4-22.5c2.5-7.4,5.1-14.7,7.9-21.7c-0.4-5.3-1.2-10.6-2.4-15.8c-1-4.1-2.5-8.1-4.5-11.9
			c-1.8-3.4-4-6.6-6.6-9.5c-2.8-3.1-5.8-6-9-8.6c-1.8,3.2-3.4,6.6-4.7,10c-1.6,4-3.3,8.3-4.9,13.1s-3.3,9.9-4.9,15.1
			c-1.6,5.3-3.2,10.7-4.7,16c-2.2,7.4-4.4,14.6-6.6,21.6c-2.2,7-4.4,13.5-6.7,19.5c-2,5.4-4.4,10.8-7,15.9
			c-1.9,3.9-4.4,7.6-7.4,10.7l-9.3,9.4c-0.9-1.7-1.5-3.5-1.8-5.4c-0.3-1.9-0.6-3.8-0.9-5.7c-0.3-2-0.4-4-0.4-6.1
			c0-2.7,0-4.8,0.1-6.3s0.2-3.4,0.5-5.6c0.3-2.2,0.7-5.2,1.3-9.1c0.6-3.9,1.6-9.6,2.9-17.2c0.4-2.5,0.8-5.1,1.3-7.8s0.9-5.4,1.3-8
			s0.8-5,1.1-7.2s0.6-4,0.7-5.3c-0.6-1.7-1.3-3.4-2.2-5.1l-2.8-5c-0.8-1.3-1.6-2.7-2.4-4.2s-1.7-3.1-2.6-4.9
			c-2.3-0.9-4.4-2.4-6.1-4.3c-1.9-2-3.5-4-4.9-5.8c-2.6,3.1-4.8,6.5-6.8,10c-2.5,4.3-5,9-7.6,14c-2.6,5-5.1,10.3-7.7,15.9
			c-2.5,5.6-4.9,10.8-7.2,15.7c-2.6,5.7-4.8,10.7-6.7,14.8c-1.9,4.1-3.7,7.9-5.4,11.4c-1.7,3.4-3.6,6.8-5.7,10
			c-2.1,3.2-4.6,6.7-7.5,10.6c-2.2,2.9-4.5,5.6-6.8,8.1c-2,2.2-4.1,4.3-6.3,6.3c-1.8,1.7-3.8,3-6.1,4c0.7-6.2,1.3-12,2-17.2
			s1.3-9.7,2-13.4c0.8-4.4,1.6-8.3,2.3-11.6c0.9-4.2,2.1-9.2,3.7-15c1.5-5.8,3.1-11.8,4.8-18.1c1.6-6.2,3.2-12.4,4.6-18.6
			s2.6-11.8,3.4-16.8c-2.7-2.5-5.1-5.3-7.4-8.2c-2.4-3.3-4.5-6.7-6.4-10.2c-0.9-0.4-1.8-1-2.5-1.6c-1-0.9-1.9-2-2.5-3.2
			c-2.8,0.7-5.5,2.8-7.9,6.3c-2.7,4-5,8.3-6.9,12.8c-2.3,5.3-4.2,10.8-5.8,16.3c-1.7,5.9-3.3,11.5-4.8,16.7
			c-1.6,5.9-3.1,13-4.6,21.2c-1.5,8.3-2.9,16.4-4.1,24.4c-1.3,8-2.4,15.4-3.4,22.1c-1,6.7-1.7,11.5-2,14.4c0.9,3.8,2,7.5,3.3,11.1
			c1.1,3.2,2.5,6.8,4.1,10.9c0.6,1.4,1.3,2.9,1.9,4.5s1.3,3.5,1.9,5.3c2,2.8,4.2,5.5,6.8,7.8c2.3,2,4.8,3.7,7.4,5.3
			c0.8,0.5,1.6,1,2.4,1.5s1.8,1.1,2.8,1.8c5.7-0.1,11.3-1.4,16.4-3.8c5.2-2.4,10-5.5,14.4-9.2c4.6-3.9,9-8.1,13-12.6
			c4.1-4.7,8.2-9.4,12.2-14.3l2.3-3l4.1-4.8l2.7-3.3l1.9,4.8l3.3,7.8c0.5,1.2,1,2.3,1.4,3.4s0.9,2.2,1.3,3.4
			c3.1,7.8,6.3,14.8,9.5,21.1c2.8,5.9,7.2,10.8,12.8,14.3c0.8-0.8,1.6-1.5,2.6-2c1.1-0.6,2.3-0.8,3.5-0.9c1.6,0,3.1,0.3,4.6,0.8
			c6.6-5.3,12.4-11.5,17.1-18.6c5.2-7.7,9.7-15.7,13.5-24.2c4.1-9,7.8-18.3,10.9-27.7C181.5,423.7,184.7,413.9,187.8,404.2z"/>
		<path d="M321.5,422.9l-3.5-1.8c-0.4-0.3-0.7-0.5-1-0.9c-0.4-0.4-0.7-0.8-1-1.1c-0.7-0.9-1.6-1.8-2.4-2.6c-1.3-1.1-2.9-1.6-4.5-1.6
			c-0.5-0.5-0.9-1-1.4-1.5c-0.4-0.5-0.7-1-1-1.5l-0.8-3l-2.5,0.3c-1.9,0.1-3.7,0.6-5.4,1.5c-0.7-0.2-1.5-0.3-2.3-0.3
			c-1.3-4.2-2.4-8.4-3.1-12.8c-0.8-4.5-1.5-9.1-2.1-14c-0.5-3.4-1.1-6.8-1.6-10.2s-1.2-6.9-1.8-10.2c-0.1-4.2-0.4-8-0.8-11.5
			c-0.4-3.5-0.8-7-1.4-10.5c-0.3-1.5-0.5-3-0.7-4.5s-0.4-3.2-0.7-5.1l-1-2.3c-1.6-2-3.6-3.5-6-4.4c-2.6-1.1-5.2-2.1-7.9-2.9
			c-1.5-0.7-3-1.3-4.5-1.8c-1.1-0.3-2.1-0.9-3.1-1.5l-3.1-2.5l-2.3,4.3c-2.9,6-6.3,11.8-10,17.3c-2.9,4.4-6.8,8.2-11.3,11l-3.5-0.8
			c-0.8,0-1.5,0.1-2.2,0.4c-0.6,0.3-1.1,0.6-1.6,0.9l-2.1-0.3l-1.4,2.5c-2,3.1-3.7,6.4-5.1,9.9c-1.4,3.4-2.6,6.7-3.8,10.1
			c-1,2.9-2.1,5.6-3.2,8.4c-1.3,3.1-2.8,6.1-4.4,9.1c-0.2,0.9-0.4,1.8-0.4,2.6c0,0.7,0.1,1.4,0.2,2.1c-1.2,3.4-2.4,6.7-3.6,9.9
			c-1.2,3.2-2.4,6.4-3.6,9.6c-3.7,9.9-7.3,19.6-10.8,29.1c-3.4,9.4-6.8,19.3-10,29.6l-0.2,5.3l-2.5,2.5l2.9,3.8
			c0.7,1.4,1.1,3,1.2,4.5c0.3,1.2,0.4,2.3,0.6,3.4c0.2,1.3,0.5,2.5,1,3.7l1.2,2c1.3,0.8,2.4,1.8,3.4,2.9c1,1.1,2.2,2.6,3.8,4.7
			l2.5,0.3c0.8,0,1.6-0.1,2.4-0.3c0.7-0.2,1.9-0.5,3.6-1l2.9-0.5l0.6-3.3c0.8-0.8,1.7-1.5,2.7-2c1-0.5,1.9-1.1,2.8-1.8
			c1.1-0.8,1.9-1.8,2.4-3l0.8-3.3c0-2.6,0.3-5.1,0.9-7.6c0.6-2.5,1.2-5.1,1.8-7.8c0.5-1.7,1-3.4,1.4-5.1c0.5-1.7,0.8-3.5,1.1-5.3
			c0.3-0.4,0.6-0.7,1-1c0.4-0.3,0.8-0.8,1-1.3l1.9-2.3l-0.8-2.8c-0.1-0.5-0.1-1,0.1-1.5c0.1-0.5,0.4-1.1,0.7-1.5l2.5-0.5l0.8-3.3
			c0.3-1.2,0.5-2.4,0.9-3.7c0.3-1.3,0.8-2.6,1.3-3.9c0.1,2,0.6,4,1.5,5.8c-0.6,2.1-0.4,4.3,0.6,6.3c0.9,1.7,1.7,3,2.3,4l0.9,1.1
			c0.3,0.3,0.4,0.7,0.5,1.1l0.6,2.8l2.1,0.3c2.3,0.5,4.6,0.7,7,0.8c3.1,0,6.3-0.4,9.3-1.1c2.8-0.8,5.7-1.6,8.7-2.6
			c2.1-0.7,4.1-1.3,6.2-1.9s4.7-0.5,7.9,0.4c0.3,5.4-0.3,9.1-1.5,11.3s-3.9,3.8-7.7,5.2l-6.4,2.3l3.9,5.8c0.5,0.7,1,1.3,1.4,1.9
			c0.4,0.6,0.8,1.1,1.4,1.6c1.1,1.2,2,2.6,2.8,4c0.5,1.1,0.5,2.4,0.1,3.5l-0.8,3.8l2.5,1.5c0.9,0.6,1.8,1.2,2.5,2
			c0.7,0.7,1.4,1.4,2.2,2c1.2,0.8,2.6,1.4,4,1.8c3.3-0.2,6.5-1.2,9.3-2.9c3-1.8,5.7-4.1,8-6.8c2.4-2.9,4.5-6,6.2-9.4
			c1.9-3.8,3.4-7.7,4.5-11.8c0.4-3.7,0.4-7.5,0.1-11.3c-0.3-3.6-0.7-7.1-1.3-10.5c-0.2-1.2-0.4-2.4-0.5-3.5
			c-0.1-1.1-0.2-2.2-0.5-3.3c3.7-2.2,7-5.1,9.8-8.3c2.7-3.1,4.9-6.6,6.5-10.4L321.5,422.9z M250.7,422.6c-3.9,0.5-8.1,0.9-12.6,1.3
			c-0.9,0.2-1.7,0.3-2.6,0.3c-0.9,0-1.7,0.1-2.6,0.3c1.7-3.7,3.4-7.2,5.2-10.6l0.2-0.3c2.1-5.1,4.6-10.1,7.4-14.9
			c2.8-5,5.9-9.9,9.3-14.7l1-2.5c1.4,6.6,2.8,13.1,4,19.6s2.4,12.9,3.4,19.1C259.1,421.2,254.9,422,250.7,422.6L250.7,422.6z"/>
		<path d="M438.2,340.5c-0.1-1.8-0.6-3.6-1.4-5.3c-0.8-1.7-1.7-3.4-2.6-5.2c-1-1.8-1.9-3.6-2.8-5.4c-0.9-1.9-1.6-3.8-2.1-5.8
			c-7.7-3.1-16.1-4.4-24.4-3.9c-7.7,0.6-15.3,2.2-22.7,4.7c-7.3,2.5-14.5,5.4-21.6,8.6c-6.8,3.1-13.8,5.6-21,7.3
			c-0.3,0.8-0.1,1.3,0.4,1.3s0.8,0.3,0.8,1c-2.7,1-5.6,2.2-8.7,3.7c-3.1,1.5-6.1,3.2-8.9,5.3c-2.9,2.2-5.6,4.8-7.8,7.7
			c-2.5,3.3-4.3,7.1-5.3,11.1c0.3,2.1,0.2,4.2-0.1,6.3c-0.3,1.5-0.7,3.6-1.3,6.3c1,1.6,1.4,3.4,1.4,5.2c-0.1,1.6-0.4,3.7-0.8,6.2
			c0.7,1.7,1.6,3.4,2.6,4.9c1,1.5,2,3.1,2.8,4.7c1.4-0.3,2.3-0.1,2.7,0.6c0.4,0.8,0.8,1.7,1,2.7c4.4,2.5,9.1,4.3,14,5.3
			c5.1,1,10.2,1.7,15.4,2c1.9,0.6,3.8,1.2,5.6,2c1.5,0.7,3.1,0.3,4.6-1c2.9,2,6.1,3.7,9.5,5c3.7,1.5,7.3,3.4,10.6,5.6
			c0.3,0,0.6,0.1,0.9,0.3c0.3,0.2,0.7,0.3,1.1,0.5c0,0.5,0.1,1.1,0.4,1.5c0.2,0.3,0.5,0.6,0.8,0.9c0.3,0.3,0.4,0.6,0.6,0.9
			c0.1,0.5,0.1,1,0,1.5c-0.3,1.6-0.9,3.2-1.7,4.7c-0.8,1.2-1.6,2.4-2.5,3.5c-0.9,1.1-1.8,2.2-2.6,3.4c-0.9,1.3-1.5,2.8-1.8,4.3
			c-3.6,2.4-7.3,4.9-11.1,7.7c-3.8,2.8-7.9,5.4-12,7.7c-4.2,2.4-8.7,4.2-13.4,5.6c-4.9,1.4-10,1.7-15,1c-1.7,1.2-2.9,2.9-3.3,4.9
			c-0.4,2.1-0.5,4.2-0.4,6.3c0.1,2.2,0.3,4.3,0.5,6.4c0.2,1.8,0,3.7-0.7,5.4c-0.1,0.4,0,0.9,0.3,1.3c0.3,0.3,0.6,0.6,1,0.9
			c0.3,0.2,0.5,0.5,0.6,0.8c0.1,0.3-0.2,0.6-0.7,1.1l-0.4,1c-0.1,0.5-0.2,1-0.2,1.5c0.6,0,0.9,0.5,0.9,1.4s0.2,1.5,0.9,1.6
			c0.4,1.7,1.1,3.3,2,4.8c0.9,1.4,1.8,2.7,2.8,4c1.7-0.3,3.4-0.4,5.1-0.3c1.7,0.2,3.5,0.3,5.2,0.4c1.6,0.1,3.3,0,4.8-0.4
			c1.6-0.4,3-1.3,4-2.5c-0.4,1.2-0.2,1.7,0.5,1.5c0.6-0.2,1.2-0.2,1.8,0c5.9-2.3,11.7-5.1,17.2-8.2c5.9-3.3,11.4-7.2,16.5-11.6
			c5.3-4.6,10-9.8,14-15.5c4.2-6.1,7.4-12.9,9.5-20c1.3-3.8,1.8-7.9,1.6-11.9c-0.2-4-0.4-8.6-0.7-13.6c-1-3.2-2.5-6.2-4.4-9
			c-1.7-2.4-2.9-5.1-3.6-8c-0.8-1.2-1.5-1.6-2-1.3s-1.1-0.3-1.6-2c0.1-2.1-0.1-4.2-0.6-6.2c-0.5-2.3-1.4-4.4-2.5-6.4
			c-1.1-2-2.6-3.7-4.3-5.2c-1.7-1.4-3.8-2.3-6-2.4c-0.2-1.7-1.1-3.3-2.5-4.4c-1.3-0.9-2.8-1.7-4.4-2.1c-1.6-0.5-3.2-1-4.8-1.6
			c-1.6-0.6-2.9-1.7-3.7-3.2c0.3-1,0.2-1.7-0.2-2c-0.4-0.5-0.6-1.2-0.4-1.8c2.5-0.3,4.9-0.8,7.4-1.4c2.2-0.5,4.2-1.7,5.6-3.4
			c2,0.3,4,0.1,5.8-0.6c2.1-0.8,4.2-1.5,6.3-2.3c2-0.7,4-1.1,6.1-1.3c1.9-0.1,3.6,0.9,5,2.9c4.6-0.7,9.9-1.3,15.7-1.8
			c5.9-0.5,11.8,0.2,17.4,2c1.7-1.2,3.3-2.4,4.8-3.8c1.6-1.3,3-2.7,4.5-4c0.7-3.5,0.5-6.4-0.5-8.5
			C441,344.2,439.7,342.2,438.2,340.5z"/>
		<path d="M529.4,444.4c4.8-4.4,9.7-8.8,14.6-13.1c6.8-5.9,13.6-11.9,20.2-18.1c6.9-6.5,12.9-14.1,17.5-22.4
			c1.1-1.3,2.4-2.6,3.7-3.8c1.4-1.3,2.5-2.8,3.3-4.5c3.1-2.5,6.3-5.1,9.5-7.8c3.2-2.7,6-5.8,8.3-9.2c2.4-3.6,4-7.6,4.9-11.8
			c1-5.1,0.9-10.4-0.3-15.4c-1.9-0.8-3.5-2.2-4.7-3.9c-1.3-2.4-2.1-5-2.1-7.7c-3-4-6.5-6.4-10.7-7.2c-4.2-0.8-8.5-0.3-12.4,1.4
			c-5.6-1.3-11.4-1.8-17.1-1.3c-5.6,0.5-11.1,0.8-16.5,0.8c-4.7-1.7-9.7-2.6-14.7-2.5c-6.4,0.2-12.8,1-19,2.5
			c-0.6,0-1.1-0.1-1.6-0.3c-0.9-0.2-1.9-0.2-2.8,0c-0.8,0.5-1.6,1-2.4,1.4c-0.9,0.4-1.8,0.8-2.8,1.1c-0.9,3.8-1.3,7.7-1.2,11.6
			c0.1,3.9,0.7,7.8,1.6,11.6c0.9,3.6,2.3,7.1,4.1,10.4c1.6,3,3.7,5.6,6.3,7.8c3-0.2,5.6-0.3,8-0.5c2.4-0.2,4.7-0.4,7.1-0.8
			c2.8-0.3,6.2-0.8,10.2-1.3c3.7-0.5,7.4-0.7,11.1-0.8l7-0.3l-5,6.3c-0.6,2.1-1.9,4-3.8,5.2c-1.6,1-3.1,2.3-4.4,3.7
			c-0.4,0.3-0.7,0.7-1.1,1.1c-0.3,0.4-0.7,0.8-1.1,1.1c0.1,1.3-0.1,2.6-0.8,3.8c-0.9,0.8-2.1,1.2-3.3,1c-2.6,3.3-5.6,6.3-8.9,9
			c-3.2,2.6-6.5,5.2-9.9,7.7c-4,3-7.9,6.2-11.6,9.5c-3.6,3.1-6.8,6.8-9.5,10.8l-1.9,1.5c-1.4,0.3-2.6,0.9-3.6,1.9
			c-1.3,1.2-2.6,2.5-3.8,3.9c-1.3,1.3-2.6,2.7-4.1,4.2c-1.4,1.4-3,2.6-4.8,3.4c-1.6,3.9-2.9,7.5-4.2,10.9c-1.3,3.5-2.2,7-2.9,10.6
			c-0.7,3.8-1.2,7.7-1.4,11.6c-0.2,4.6-0.1,9.1,0.3,13.6c1.1,0.9,1.9,2,2.3,3.3c0.5,1.2,0.8,2.3,1.2,3.5c0.1,0.9,0.4,1.7,0.8,2.5
			l2.3,0.8l0.2,3c0.2,1.9,0.9,3.6,2.1,5.1c1.3,1.7,2.7,3.4,4.3,5c1.8,1.7,3.4,3.3,4.8,4.8l3.7-3.5l2.7,6.6c1,0.3,1.9,0.7,2.7,1
			c0.9,0.2,1.8,0.3,2.6,0.4s1.7,0.1,2.6,0.1c2.5,0,5-0.2,7.5-0.8c2.3-0.5,4.7-1.2,7.3-2c2.3-0.7,4.8-1.4,7.5-2s6-1.6,10-2.8
			c0.4-0.7,0.8-1.3,1.2-1.9c0.5-0.7,1-1.3,1.5-1.9l5-4.3l-0.2,5.3c1.8-0.8,3.5-1.5,5.2-2.1s3.4-1.2,5.2-1.9
			c8.3-3.2,16.1-6.7,23.5-10.4c7.3-3.6,13.7-8.9,18.7-15.4c0.5-3.1,0.7-6.3,0.6-9.5c-0.2-2.7-1.3-5.2-3.1-7.2l-4.1,5.8l-0.8-8.3
			c-0.1-0.9-0.4-1.7-1-2.4c-0.8-0.8-1.6-1.5-2.5-2.1c-0.9-0.6-1.7-1.2-2.4-1.9c-0.9-0.8-1.7-1.8-2.2-2.9c-1.8,0.7-3.6,1.4-5.3,2.3
			s-3.5,1.7-5.3,2.5c-3,1.5-6,2.9-9.1,4.2c-3.1,1.3-6.4,1.9-9.7,1.9c-1.1,0.8-2.3,1.5-3.6,2c-1.2,0.5-2.4,0.9-3.4,1.3
			c-1.3,0.5-2.5,1.1-3.8,1.6c-1.7,0.8-3.2,1.8-4.8,2.9l-2.1-0.5c-0.8,0-1.7,0.3-2.4,0.6l-3.2,1.4c-1.2,0.7-2.5,1.3-3.8,1.8
			c-1.3,0.5-2.7,0.8-4.2,0.8c-2.6,0-5.1-1.4-6.6-3.5l-2.1-3l2.5-2.8C519.8,453.6,524.5,448.8,529.4,444.4z"/>
		<path d="M735.3,350.3c-0.9-3-1.7-6.2-2.5-9.5c-0.9-3.9-1.4-7.8-1.5-11.8c-1.7-2.4-3.5-4.7-5.5-7.1c-2-2.3-4.2-4.5-6.5-6.6
			c-3.3,1.8-5.7,4.9-6.6,8.6c-0.3,0.7-0.4,1.4-0.5,2.1c-0.1,0.8,0.1,1.7,0.5,2.4l0.6,3.3c-0.3,3.4-1.6,5.8-4.1,7.3
			c-0.3,5.6-0.8,11.5-1.7,18c-0.9,6.5-2.2,12.9-3.8,19.2c-1.6,6.3-3.6,12.5-6.1,18.6c-2.3,5.6-5,11-8.3,16.1
			c-2.9,4.3-6,8.3-9.3,12.3c-2.8,3.3-5.9,6.4-9.3,9.2c-3.2,2.7-6.7,5-10.5,7c-4,2.1-8.3,3.8-12.6,5.2l-4.3,0.5l-1.2-4
			c-1-3.9-1.7-7.9-1.9-11.9c-0.4-4.9-0.5-9.9-0.3-14.8c0.2-5.1,0.7-10.2,1.5-15.3c0.7-4.6,1.9-9.1,3.6-13.4
			c-0.2-3.6-0.8-7.2-1.8-10.7c-1-3.8-2.1-7.5-3.3-11c-0.6-1.9-1.2-3.6-1.7-5.3s-1-3.5-1.3-5.3c-2.2-1.1-4-2.8-5.2-4.9
			c-1.1-1.9-2-3.9-2.7-5.9c-0.6-1.8-1.4-3.5-2.4-5.1c-0.7-1-2.2-1.4-4.5-1.3c-0.8,1.6-1.7,3.2-2.6,4.7c-1.1,1.8-2.9,3.1-4.9,3.7
			c-0.5,1.9-1,3.9-1.3,5.8c-0.3,2-0.6,4.2-0.9,6.6c-0.3,2.7-0.6,5.5-1.1,8.5c-0.5,3-1.1,6-2,9c0.4,0.5,0.7,1.9,1,4l-0.4,1.3
			c-2.5,10.1-3.7,20.6-3.6,31c-0.1,11.7,0.2,24.5,0.7,38.3v4.8c0.3,0.6,0.8,1.2,1.3,1.8c0.5,0.5,0.9,1,1.3,1.5l5,7.6l-3.9,1.5
			c1,1.9,1.9,3.8,2.6,5.8c0.7,2,1.4,4,2,6.1c1.4,3.7,2.8,7.1,4.1,10.1c1.2,2.9,3.2,5.4,5.8,7.1c0.9,0.1,1.8,0.4,2.5,1
			c1,0.9,1.8,2,2.1,3.3c2.2,0.3,4.1,0.6,5.8,0.8c1.7,0.2,3.5,0.3,5.2,0.3c1.8,0.2,3.6,0.3,5.5,0.4c2.2,0.1,4.5,0.4,6.7,0.9
			c6.6-3.5,12.4-6.9,17.5-10c4.9-2.9,9.5-6.3,13.8-10c4.1-3.6,7.8-7.7,11-12.1c3.7-5.3,6.9-11,9.4-16.9l2.3-3.5l3.1-1l1.2-7.8
			l4.7,2.3c0.5-0.8,1-1.6,1.3-2.5c0.5-1.2,0.8-2,1.1-2.5c0.5-1.3,1.1-2.7,1.7-4c0.5-1.3,1.2-2.4,2-3.5c1.4-4,3.3-8.8,5.5-14.3
			c2.3-5.5,4.5-10.8,6.9-16l0.4-2.8c0.5-4.9,1.1-9.6,1.6-14c0.6-4.8,1.6-9.6,2.8-14.3c-0.2-3.3-0.7-6.6-1.5-9.9
			C737,356,736.2,353.2,735.3,350.3z"/>
		<path d="M885.6,424.1c-1-3.2-2.5-6.2-4.3-9c-1.7-2.4-2.9-5.1-3.6-8c-0.8-1.2-1.4-1.6-2-1.3c-0.6,0.3-1.1-0.3-1.6-2
			c0.1-2.1-0.1-4.2-0.6-6.2c-0.5-2.3-1.4-4.4-2.5-6.4c-1.1-2-2.6-3.7-4.3-5.2c-1.7-1.4-3.8-2.3-6-2.4c-0.2-1.7-1.1-3.3-2.5-4.4
			c-1.3-0.9-2.8-1.7-4.3-2.1c-1.6-0.5-3.2-1-4.8-1.6c-1.6-0.6-2.9-1.7-3.7-3.2c0.3-1,0.2-1.7-0.2-2c-0.4-0.5-0.6-1.2-0.4-1.8
			c2.5-0.3,4.9-0.8,7.4-1.4c2.2-0.5,4.2-1.7,5.6-3.4c2,0.3,4,0.1,5.8-0.6c2.1-0.8,4.2-1.5,6.3-2.3c2-0.7,4-1.1,6.1-1.3
			c1.9-0.1,3.6,0.9,5,2.9c4.6-0.7,9.9-1.3,15.7-1.8c5.9-0.5,11.8,0.2,17.4,2c1.7-1.2,3.3-2.4,4.8-3.8c1.6-1.3,3-2.7,4.5-4
			c0.7-3.5,0.5-6.4-0.5-8.5c-1-2.1-2.3-4.1-3.8-5.9c-0.1-1.8-0.6-3.6-1.3-5.3c-0.8-1.7-1.7-3.4-2.6-5.2c-1-1.8-1.9-3.6-2.8-5.4
			c-0.9-1.9-1.6-3.8-2.1-5.8c-7.7-3.1-16.1-4.4-24.4-3.9c-7.7,0.6-15.3,2.2-22.7,4.7c-7.3,2.5-14.5,5.4-21.6,8.6
			c-6.8,3.1-13.8,5.6-21,7.3c-0.3,0.8-0.1,1.3,0.4,1.3s0.8,0.3,0.8,1c-2.7,1-5.6,2.2-8.7,3.7c-3.1,1.5-6.1,3.2-8.9,5.3
			c-2.9,2.2-5.6,4.8-7.8,7.7c-2.5,3.3-4.3,7.1-5.3,11.1c0.3,2.1,0.2,4.2-0.1,6.3c-0.3,1.5-0.8,3.6-1.3,6.3c1,1.6,1.4,3.4,1.4,5.2
			c-0.1,1.6-0.4,3.7-0.8,6.2c0.7,1.7,1.6,3.4,2.6,4.9c1,1.4,1.9,3,2.8,4.7c1.4-0.3,2.3-0.1,2.7,0.6c0.4,0.8,0.8,1.7,1,2.7
			c4.4,2.5,9.1,4.3,14,5.3c5.1,1,10.2,1.7,15.4,2c1.9,0.6,3.8,1.2,5.6,2c1.6,0.7,3.1,0.3,4.7-1c2.9,2,6.1,3.7,9.5,5
			c3.7,1.5,7.3,3.4,10.7,5.6c0.3,0,0.6,0.1,0.9,0.3c0.3,0.2,0.7,0.3,1.1,0.5c0,0.5,0.1,1.1,0.4,1.5c0.2,0.3,0.5,0.6,0.8,0.9
			c0.3,0.3,0.4,0.6,0.6,0.9c0.1,0.5,0.1,1,0,1.5c-0.3,1.6-0.9,3.2-1.7,4.7c-0.8,1.2-1.6,2.4-2.5,3.5c-0.9,1.1-1.8,2.2-2.6,3.4
			c-0.9,1.3-1.5,2.8-1.8,4.3c-3.6,2.4-7.3,4.9-11.1,7.7c-3.8,2.8-7.9,5.4-12,7.7c-4.2,2.4-8.7,4.2-13.4,5.6c-4.9,1.4-10,1.7-15,1
			c-1.7,1.2-2.9,2.9-3.3,4.9c-0.4,2-0.5,4.1-0.4,6.2c0.1,2.2,0.3,4.3,0.5,6.4c0.2,1.8,0,3.7-0.7,5.4c-0.1,0.4,0,0.9,0.3,1.3
			c0.3,0.3,0.6,0.6,1,0.9c0.3,0.2,0.5,0.5,0.6,0.8c0.1,0.3-0.2,0.6-0.7,1.1l-0.4,1c-0.1,0.5-0.2,1-0.2,1.5c0.6,0,0.9,0.5,0.9,1.4
			s0.2,1.5,0.9,1.6c0.4,1.7,1.1,3.3,2,4.8c0.9,1.4,1.8,2.7,2.8,4c1.7-0.3,3.5-0.3,5.2-0.1c1.7,0.2,3.5,0.3,5.2,0.4
			c1.6,0.1,3.2,0,4.8-0.4c1.6-0.4,3-1.3,4-2.5c-0.4,1.2-0.2,1.7,0.5,1.5c0.6-0.2,1.2-0.2,1.8,0c5.9-2.3,11.7-5.1,17.2-8.2
			c5.9-3.3,11.4-7.2,16.5-11.6c5.3-4.6,10-9.8,14-15.5c4.2-6.1,7.4-12.9,9.5-20c1.3-3.8,1.8-7.9,1.7-11.9
			C886.1,433.7,885.9,429.2,885.6,424.1z"/>
		<path d="M1130,435c0.6-7.7,1.7-15.3,3.2-22.9c1.5-7.2,2.8-14.5,4-22.1c-0.1-6.6-0.3-12.9-0.6-19.1c-0.3-6.1-0.6-12.2-1-18.1
			c-2.4-2.5-4.3-5.4-5.7-8.6c-1.5-3.3-2.9-6.9-4.2-10.7s-2.6-7.6-3.9-11.3c-1.2-3.6-2.7-7-4.4-10.4c-2.9,0.9-5.5,2.8-7.2,5.4
			c-2,3-3.5,6.3-4.3,9.7c-2,7.9-2.2,16.2-0.7,24.3c-1.1,0.4-1.9,1.2-2.3,2.3c-0.5,1.1-1.1,2.1-1.9,3c0.9,8,0.8,16.1-0.4,24
			c-1.2,7.9-2.1,15.9-2.9,24c-3.4,2.2-7,4.1-10.7,5.6c-3.8,1.5-7.7,2.8-11.6,3.9c-3.9,1.1-7.9,2.2-12,3.3c-4.1,1.1-8,2.2-11.7,3.4
			c0.5-1.7,0.4-2.7-0.4-2.9c-0.7-0.2-1.3-0.9-1.4-1.6c0.7-3.4,1.3-7.5,2-12.4c0.7-4.9,1.4-9.9,2.1-15.2c0.7-5.2,1.3-10.4,1.7-15.4
			s0.7-9.5,0.9-13.4c-1.4-3.5-3.1-6.9-5-10.1c-1.8-3-3.6-6.1-5.3-9.1c-1.7-3-3.4-6.1-4.8-9.4c-1.6-3.6-2.8-7.3-3.6-11.1
			c-4.8,1.7-8.3,5.4-10.4,11.3c-2.4,6.5-4,13.3-4.8,20.2c-1,7.7-1.6,15.6-1.9,23.9s-0.9,15.8-1.8,22.5c-0.5-0.2-1.1-0.2-1.7-0.1
			c-0.5,0.1-0.7,0.5-0.9,1.1c0.6,2,0.9,4.1,0.8,6.2c0,2.7-0.2,5.4-0.6,8c-0.4,2.7-1,5.3-1.8,7.8c-0.7,2.2-1.7,4.2-3,6.1
			c-0.2,4.7-0.6,9.4-1.4,14c-0.7,5-2.4,9.9-4.8,14.3c0.5,1.1,0.7,2.3,0.6,3.5c-0.1,1-0.4,2-0.7,3c-0.3,1-0.6,2.1-0.9,3.3
			c-0.3,1.5-0.3,3,0,4.5c-0.5-0.7-0.9-0.8-1.3-0.4c-0.4,0.6-0.6,1.2-0.8,1.9c-0.2,0.8-0.3,1.7-0.5,2.6c0,0.2-0.1,0.5-0.1,0.7
			c-0.5-1.2-1.1-2.4-1.9-3.6c-1.3-1.9-2.6-3.7-4.1-5.4c-1.5-1.8-2.8-3.7-4-5.7c-11.3-0.2-22.8-0.7-34.4-1.6
			c-11.2-0.9-22.3-3.4-32.8-7.5c-0.9-2.4-1.8-4.7-2.6-7c-0.9-2.7-1.5-5.4-1.7-8.2c0.9-1.5,1.8-3,2.5-4.5c0.9-2.1,1.3-4.3,1.2-6.6
			c2.3-3,4.7-6.1,7-9.2c2.3-3.1,4.8-6.1,7.3-9c2.5-2.8,5.2-5.4,8.1-7.8c2.9-2.4,6.2-4.3,9.8-5.6c2-3,4.5-5.7,7.3-8
			c2.8-2.3,5.7-4.3,8.9-5.9c3.2-1.7,6.5-3.2,9.9-4.5c3.4-1.3,7.1-2.7,11.1-4c3.7-1.4,6.9-4,9.2-7.2c2.7-3.5,4.7-7.6,5.7-11.9
			c1-4.1,0.9-8.4-0.4-12.4c-1.3-4-4.3-6.9-8.9-8.7c0.1-0.9,0.2-1.7,0.6-2.5c0.3-0.5,0.1-1.2-0.6-2c-1.5-0.2-2.9-0.8-4-1.9
			c-0.8-0.9-2-1.2-3.2-0.8c0.1-0.3,0.4-1,0.9-2s0.2-1.6-0.9-1.8c-0.4,1.2-0.8,1.7-1.1,1.5c-0.5-0.3-0.9-0.7-1.2-1.1
			c-0.4-0.6-0.9-1.1-1.5-1.6c-0.5-0.5-1.2-0.7-1.9-0.5c-1.3,0.5-2.6,1-3.9,1.4c-1.3,0.5-2.7-0.1-3.3-1.4c-0.9,1.9-2.3,3.5-4,4.8
			c-1.6,1.2-3.3,2.3-5,3.3c-1.7,1-3.5,2.1-5.2,3.3c-1.7,1.1-3.2,2.6-4.3,4.3c-3.1,0.9-5.9,2.4-8.5,4.3c-2.5,1.9-4.9,3.9-7.2,6.1
			c-2.3,2.2-4.7,4.2-7.3,6.1c-2.6,1.9-5.5,3.4-8.6,4.3c-0.7,1.5-1.7,2.8-2.9,3.9l-3.5,3.3c-1.2,1.1-2.3,2.4-3.3,3.7
			c-1.1,1.4-1.9,3.1-2.3,4.8c-0.6-0.5-1.4-0.7-2.1-0.8c-2.2,3.2-4.4,6.4-6.7,9.5c-2.3,3.1-4.4,6.4-6.5,9.9
			c-2.1,3.5-3.9,7.1-5.6,10.9c-1.7,4-3.2,8.2-4.2,12.5c-0.1,6.1,0,12.4,0.5,19.1c0.4,6.5,1.3,13,2.7,19.3c1.3,6.1,3.2,12,5.6,17.7
			c2.1,5.2,5.3,9.9,9.2,13.9c2.4,0.7,4.6,2.2,6.2,4.2c1.5,1.9,3,4,4.5,6.2c7.6,3.4,15.5,6.1,23.6,8.2c8.2,2.2,16.5,3.5,25,3.9
			c1.5-0.8,3.2-1.4,4.9-1.6c1.7-0.2,3.5-0.4,5.2-0.4c1.7,0,3.3,0.1,5,0.3c1.4,0.2,2.8,0.2,4.2,0c2.6-2.5,5.2-5.1,7.8-7.7
			c2.6-2.6,4.9-5.3,7.2-8.2c0.1-1,0.2-2.1,0.2-3.1c0.1,0.4,0.2,0.8,0.3,1.1c0.6,2.6,1.7,5.1,3.2,7.3c-0.5-0.3-0.9-0.3-1.3,0
			c-0.3,0.3-0.5,0.8-0.6,1.3c-0.1,0.5,0,1,0.1,1.5c0.1,0.5,0.4,0.7,0.8,0.5c0.1,0.6,0.4,1.2,1,1.5l2.2,1.8c0.9,0.7,1.7,1.5,2.4,2.4
			c0.8,0.9,1.2,2,1.2,3.2c3,2,5.5,3.1,7.6,3.2c2,0.1,4.1-0.3,5.9-1.3c1.9-1,3.7-2.1,5.3-3.4c1.8-1.4,3.8-2.5,5.9-3.3
			c0.3-0.8,0.3-1.6,0-2.4c-0.3-0.6-0.6-1.2-0.8-1.9c1.2,0.2,2.3-0.7,3.4-2.8c1.2-2.2,2.2-4.6,3-7c0.9-2.6,1.7-5.1,2.3-7.5
			c0.5-1.4,0.8-2.8,1-4.3c1.9-1.5,4.5-3.4,7.7-5.7c3.3-2.4,6.7-4.6,10.3-6.6c3.7-2.1,7.4-4,11.3-5.7c3.6-1.6,7.4-2.7,11.2-3.3
			c0,0.2-0.2,1.3-0.5,3.4c-0.3,2.1-0.7,4.3-1,6.7s-0.6,4.6-0.9,6.7s-0.4,3.3-0.4,3.4c-0.2,4.5,0.7,8.9,2.6,13
			c1.9,3.8,4.1,7.4,6.7,10.8l-1,2.3c1.5,0.5,2.9,1.3,4,2.4c1.1,1.1,2.3,2.2,3.6,3.2c2.7-1.2,5.5-2.5,8.2-3.9
			c2.8-1.5,5.3-3.4,7.4-5.8c2.2-2.6,3.9-5.6,5-8.9c1.3-4.2,1.8-8.6,1.5-13c-1.1-2.3-1.5-4.9-1.3-7.5c0.3-2.2,0.2-4.5-0.3-6.7
			c1.3-1.5,2.2-3.2,2.9-5c0.8-2,1.4-4.1,2-6.2s1.2-4.2,1.8-6.3C1128.1,438.5,1128.9,436.7,1130,435z"/>
		<path d="M1720.7,339.8c-1.6-3.1-3.2-6.4-5-9.7c-2.2-0.4-4.2-1.5-5.8-3c-1.6-1.6-3.1-3.2-4.4-4.9c-1.4-1.7-2.9-3.3-4.6-4.8
			c-1.7-1.4-3.7-2.4-5.9-2.6c-1.1,2.6-1.9,5.3-2.4,8c-0.6,2.9-1.2,5.9-1.7,8.7c-0.6,2.9-1.3,5.6-2.1,8.4c-0.7,2.5-1.9,4.8-3.4,6.8
			c-1.2,9.8-2.3,19.4-3.4,28.8c-1,8.9-2.6,17.8-4.7,26.5c-1.8,7.8-4.6,15.3-8.1,22.5c-3.2,6.4-7.8,12.1-13.4,16.4
			c-0.9-5-1.4-10.1-1.6-15.2c-0.1-4.9-0.1-9.6,0-14.3c0.1-4.6,0.3-9.2,0.4-13.6c0.1-4.4,0-8.9-0.4-13.3c0.5,0.2,0.9,0.1,1.1-0.1
			c0.2-0.3,0.4-0.6,0.5-0.9c0.1-0.3,0.3-0.6,0.5-0.9c0.3-0.3,0.7-0.4,1.1-0.4c-0.5-1.7-0.6-3.5-0.3-5.2c0.3-1.2,0.7-2.4,1.3-3.5
			c0.5-1.2,0.9-2.4,1.2-3.7c0.2-1.9,0-3.8-0.6-5.6c0.6,0.3,1.1,0.3,1.3-0.1s0.7-0.5,1.4-0.4c-0.5-0.8-0.9-1.8-1-2.8
			c0-0.6,0-1.1,0.2-1.6c0.1-0.4,0.2-0.8,0.1-1.3c-0.2-0.8-0.6-1.5-1.1-2.1c0.3-0.7,0.6-0.8,1-0.5s0.7,0,1-1c-0.6-4.7-1.9-9.3-4-13.5
			c-1.9-3.8-4.4-7.4-7.3-10.5c-2.8-3-6-5.7-9.4-8c-3.4-2.2-6.9-4.2-10.6-5.9c-4,11.5-8.2,23.1-12.5,35c-4.3,11.9-8.7,23.7-13,35.4
			c-4.3,11.7-8.6,23.3-12.9,34.6s-8.3,22.3-12,32.7c1,1.6,1.6,3.3,1.8,5.2c0.2,1.2,0.4,2.4,0.8,3.6c-0.1-0.2-0.3-0.4-0.4-0.6
			c-1.3,0.4-2.6,0-3.5-1c-1-1.1-1.9-2.4-2.6-3.7c-0.8-1.4-1.7-2.9-2.6-4.3c-0.8-1.3-1.9-2.3-3.3-2.9c-3.8,1.6-7.7,2.7-11.7,3.4
			c-3.9,0.7-7.7,2.1-11.1,4.2c-4-0.2-8.1,0-12.1,0.5c-3.3,0.5-6.5,1-9.6,1.5c-3.3,0.5-6.6,0.9-9.9,1c-4.4,0.1-8.8-0.3-13.2-1.3
			c1.5-5.2,3.3-10.3,5.4-15.3c2.1-4.8,4.3-9.4,6.6-13.8c2,0.9,4.1,1.3,6.3,1.3c2.2,0,4.3,0.4,6.3,1.3c1.6-0.9,3.5-1.2,5.3-0.9
			c1.8,0.3,3.6,0,5.1-0.9c0.4,0.5,1,0.9,1.7,1h1.6c3.4,0.2,6.9-0.3,10.1-1.5c3.1-1.1,5.9-2.7,8.6-4.5c2.7-1.9,5.2-4,7.6-6.2
			c2.4-2.3,5-4.5,7.6-6.7c0.6-1.9,0.8-3.9,0.6-5.8c-0.2-1.8-0.7-3.6-1.3-5.3c-1.5,0.2-2.9-0.2-4.1-1.1c-1.3-1-2.4-2.2-3.4-3.5
			c-1.1-1.4-2.2-2.9-3.2-4.4c-0.9-1.4-2-2.7-3.3-3.8c-0.1-0.6,0.1-1.2,0.4-1.8c0.3-0.5,0.4-1.2,0.2-1.8c-6.3,0.3-12.8,0.9-19.4,1.6
			c-6,0.8-12,0.8-18,0.1c-0.4-1.6-0.6-3.2-0.5-4.8c0.1-1.9-0.2-3.8-0.9-5.6c1.4-0.5,2.8-1,4.2-1.5c1.4-0.5,2.6-1.4,3.6-2.5
			c1.3,0.3,2.7,0.3,4,0c1.1-0.3,2.1-0.7,3-1c0.8-0.3,1.7-0.5,2.6-0.6c1-0.1,1.9,0.2,2.8,0.6c3.1-2.5,6.6-4.6,10.3-6.1
			c3.4-1.3,6.8-2.4,10.3-3.2c3.4-0.8,6.8-1.5,10.1-2.1c3.2-0.6,6.4-1.6,9.4-3c3.1-1.5,6-3.4,8.4-5.8c3-3.1,5.4-6.7,7.1-10.6
			c-0.2-1-0.4-2.1-0.4-3.2c0-0.7,0.1-1.3,0.2-2c0.1-0.6,0.2-1.3,0.3-1.9c0.1-1.1,0-2.2-0.1-3.3c-2.9-1.7-5.7-3.6-8.1-5.9
			c-2.6-2.5-4.6-5.4-6-8.7c0.1,0.9,0.1,1.4-0.2,1.6c-0.2,0.3-0.6,0.3-0.9,0.1c-0.4-0.2-0.8-0.4-1.2-0.5c-0.3-0.1-0.7-0.2-1.1-0.3
			c0,0.4,0,0.8,0.1,1.1c0.1,0.5,0.1,0.9,0.1,1.4c-1,0-1.9-0.7-2.1-1.8h-1.3c-0.3,0-0.6-0.3-0.7-0.8c-6.6,1.5-12.4,2.7-17.4,3.4
			c-5,0.8-9.9,1.6-14.5,2.5c-4.7,0.9-9.4,2.1-14.3,3.5c-5.6,1.7-11.2,3.7-16.7,5.9c-3.2,0.9-6.2,1.7-9.1,2.5
			c-0.1-0.4-0.2-0.8-0.4-1.2l-1.6-2c-0.5-0.4-0.9-0.9-1.4-1.4c-0.5-0.6-1.1-1.3-1.7-2.1c-0.9-1.2-1.9-2.4-2.9-3.7
			c-1-1.2-2.2-2.3-3.5-3.2c-2.2-5.4-6.6-8.1-13.4-8.1c-0.8,0-1.5,0-2.3,0.1c-0.8,0.1-1.6,0-2.3-0.1l-4.1,0.3c-7.2,0.7-14.3,2-21.3,4
			c-6.3,1.9-11.4,3.5-15.3,4.8c-2.2,0.7-4.3,1.6-6.4,2.5c-0.4,0.7-1,1.1-1.7,1.3c-0.8,0.2-1.7,0.3-2.5,0.3c-1,0.2-2.2,0.4-3.4,0.6
			c-1.3,0.3-2.5,1.1-3.4,2.1c-3.1,1-6.2,2.2-9.3,3.5c-2.4,1.1-4.8,2.1-7.1,3.1c-0.2-0.7-0.4-1.4-0.6-2.1l-1.6-2
			c-0.5-0.4-0.9-0.9-1.3-1.4c-0.5-0.6-1.1-1.3-1.7-2.1c-0.9-1.2-1.9-2.4-2.9-3.7c-1-1.2-2.2-2.3-3.5-3.2c-2.2-5.4-6.7-8.1-13.4-8.1
			c-0.8,0-1.5,0-2.3,0.1c-0.8,0.1-1.6,0-2.3-0.1l-4.1,0.3c-7.2,0.7-14.3,2-21.3,4c-6.3,1.9-11.4,3.5-15.3,4.8
			c-2.2,0.7-4.3,1.6-6.4,2.5c-0.4,0.7-1,1.1-1.7,1.3c-0.8,0.2-1.7,0.3-2.5,0.3c-1,0.2-2.2,0.4-3.4,0.6c-1.3,0.3-2.5,1.1-3.4,2.1
			c-3.1,1-6.2,2.2-9.3,3.5c-3.1,1.4-6.1,2.7-9.1,4s-6,2.6-9.1,3.9s-6.1,2.4-9.1,3.4l-1.9,2.5c-0.1,0.3-0.8,1.6-2.1,3.8l-0.4,3
			c-0.3,1.6-0.2,3.2,0.2,4.8c0.4,0.8,0.7,1.7,0.8,2.7c0,0.5-0.1,1-0.4,1.4l-1.2,3l2.3,2c0.7,0.9,1.2,1.8,1.7,2.8
			c0.5,1,1.1,2.2,1.7,3.5s1.3,2.7,1.8,3.9c1,1.8,2.3,3.4,3.8,4.7c0.4,0.2,0.9,0.3,1.3,0.4c0.4,0.1,0.8,0.1,1.2,0.1
			c0.5,0.2,1.1,0.5,1.7,0.6c0.6,0.3,1.2,0.8,1.6,1.4c-0.3,0.8-0.5,1.9-0.8,3c-0.3,1.3-0.3,2.7-0.2,4c-0.8,1.8-1.4,3.7-1.9,5.6
			c-0.5,1.9-1,3.7-1.3,5.6c-0.4,1.4-0.8,2.7-1.1,4c-0.3,1.3-1.2,2.4-2.4,3c-0.7-0.7-1.3-1.4-2-2c-0.7-0.7-1.4-1.5-2-2.3l-2.9-1.3
			c-1.8,0.5-3.5,1.2-5.2,1.9c-1.9,0.8-3.7,1.9-5.2,3.3c-1.5,1.4-2.9,3-3.9,4.8l-0.5-0.1c-0.5-0.5-0.9-1-1.3-1.5
			c-0.4-0.5-0.7-1-1-1.5l-0.8-3l-2.5,0.3c-1.9,0.1-3.7,0.6-5.4,1.5c-0.7-0.2-1.5-0.3-2.3-0.3c-1.3-4.2-2.4-8.4-3.1-12.8
			c-0.8-4.5-1.5-9.1-2.1-14c-0.5-3.4-1.1-6.8-1.7-10.2c-0.6-3.5-1.2-6.8-1.9-10.1c-0.1-4.2-0.4-8-0.8-11.5s-0.8-7-1.4-10.5
			c-0.3-1.5-0.5-3-0.7-4.5s-0.4-3.2-0.7-5.1l-1-2.3c-1.6-2-3.6-3.5-6-4.4c-2.6-1.1-5.2-2.1-7.9-2.9c-1.6-0.7-3-1.3-4.4-1.8
			c-1.1-0.3-2.1-0.9-3.1-1.5l-3.1-2.5l-2.3,4.3c-2.9,6-6.3,11.8-10,17.3c-2.9,4.5-6.8,8.2-11.3,11l-3.5-0.8c-0.8,0-1.5,0.1-2.2,0.4
			c-0.6,0.3-1.1,0.5-1.7,0.9l-2.1-0.3l-1.3,2.5c-2,3.1-3.7,6.4-5.1,9.9c-1.4,3.4-2.6,6.7-3.8,10.1c-1,2.9-2.1,5.6-3.2,8.4
			c-1.3,3.1-2.8,6.1-4.4,9.1c-0.2,0.9-0.4,1.8-0.4,2.6c0,0.7,0.1,1.4,0.2,2.1c-1.2,3.4-2.4,6.7-3.6,9.9c-1.2,3.2-2.4,6.4-3.6,9.6
			c-3.7,9.9-7.3,19.6-10.7,29.1s-6.8,19.3-10,29.6l-0.2,5.3l-2.5,2.5l2.9,3.8c0.7,1.4,1.1,3,1.2,4.5c0.3,1.2,0.4,2.3,0.6,3.4
			c0.2,1.3,0.5,2.5,1,3.7l1.2,2c1.3,0.8,2.4,1.8,3.4,2.9c1,1.1,2.2,2.6,3.8,4.7l2.5,0.3c0.8,0,1.6-0.1,2.4-0.3
			c0.7-0.2,1.9-0.5,3.6-1l2.9-0.5l0.6-3.3c0.8-0.8,1.7-1.5,2.7-2c0.9-0.5,1.8-1.1,2.8-1.8c1.1-0.8,1.9-1.8,2.4-3l0.8-3.3
			c0-2.6,0.3-5.1,0.9-7.6c0.6-2.5,1.2-5.1,1.8-7.8c0.5-1.7,1-3.4,1.4-5.1c0.5-1.7,0.8-3.5,1.1-5.3c0.3-0.4,0.6-0.7,1-1
			c0.4-0.4,0.7-0.8,1-1.3l1.9-2.3l-0.8-2.8c-0.1-0.5-0.1-1,0.1-1.5c0.1-0.5,0.4-1.1,0.7-1.5l2.5-0.5l0.8-3.3
			c0.3-1.2,0.6-2.4,0.9-3.7c0.3-1.3,0.8-2.6,1.3-3.9c0.1,2,0.7,4,1.6,5.8c-0.6,2.1-0.4,4.3,0.6,6.3c0.9,1.7,1.7,3,2.3,4l0.9,1.1
			c0.3,0.3,0.4,0.7,0.5,1.1l0.6,2.8l2.1,0.3c2.3,0.5,4.6,0.7,7,0.8c3.1,0,6.3-0.4,9.3-1.1c2.8-0.8,5.7-1.6,8.7-2.6
			c2.1-0.7,4.1-1.3,6.2-1.9s4.7-0.5,7.9,0.4c0.3,5.4-0.3,9.2-1.6,11.3c-1.3,2.1-3.9,3.8-7.8,5.2l-6.4,2.3l3.9,5.8
			c0.5,0.7,1,1.3,1.3,1.9c0.4,0.6,0.8,1.1,1.4,1.6c1.1,1.2,2,2.6,2.8,4c0.5,1.1,0.5,2.4,0.1,3.5l-0.8,3.8l2.5,1.5
			c0.9,0.5,1.8,1.2,2.5,2c0.7,0.7,1.4,1.4,2.2,2c1.2,0.8,2.6,1.4,4,1.8c3.3-0.2,6.5-1.2,9.3-2.9c3-1.8,5.7-4.1,8-6.8
			c2.4-2.9,4.5-6,6.2-9.4c1.9-3.8,3.4-7.7,4.6-11.8c0.4-3.7,0.4-7.5,0.1-11.3c-0.3-3.6-0.7-7.1-1.3-10.5c-0.2-1.2-0.4-2.4-0.5-3.5
			c-0.1-1.1-0.2-2.2-0.5-3.3c2.6-1.6,5-3.5,7.2-5.6c1.8,4.5,4.7,8.5,8.6,11.5c-0.3,1.4-0.5,2.6-0.8,3.8s-0.5,2.4-0.8,3.8
			c-1,3.9-1.8,7.8-2.4,11.8c-0.6,4.9-0.4,9.9,0.5,14.8c0.5,1.4,1,2.8,1.7,4l1.9,3.5c0.5,1,1,2,1.6,2.9c0.5,0.9,1,1.9,1.4,2.9
			l2.3,2.5c0.7,0.2,1.3,0.4,1.9,0.6c0.7,0.3,1.3,0.6,1.9,0.9c1,0.5,2,1,3,1.5c1.5,0.5,3,0.6,4.6,0.3c2.1-1.5,3.8-3.4,5-5.7
			c1.5-2.6,2.5-5.5,2.9-8.5c0.7-3.5,0.3-7.1-1-10.4c0-0.5,0.1-1,0.2-1.5c0.2-0.6,0.3-1.2,0.6-1.8c0.3-1,0.5-2.1,0.9-3.3
			c0.3-1.2,0.5-2.5,0.5-3.8c0.1,0,0.2,0,0.2-0.1c0.5-0.3,1.1-0.5,1.7-0.6l-0.2-4.5c0.6-1.1,1.2-2.2,1.7-3.4c0.5-1.1,0.8-2.2,1.1-3.4
			c0.3-1,0.5-2,0.8-2.9c0.3-1,0.8-1.9,1.6-2.6c1.2-0.5,2.4-1,3.7-1.5c1.2-0.5,2.5-0.8,3.9-0.8c0.3,0,0.5,0,0.8,0.1
			c0.8,0.1,1.7,0,2.5-0.1c2.4-1.2,4.9-2.1,7.5-2.7c2.7-0.6,5.4-1.2,8.2-1.9c2.1-0.3,4.1-0.7,6.2-1.1c2.1-0.4,4.7-1,7.7-1.6
			c1.2,0,2.4-0.2,3.5-0.6c1.2-0.4,2.3-0.8,3.3-1.1c2.2-0.8,4.6-1.2,7-1l1.9,0.8l1.2-2l3.2-5.3c0.6,2.1,1.2,4.1,2,6
			c1.8,4.8,4.8,9,8.9,12.1c-0.3,1.4-0.5,2.6-0.8,3.8s-0.5,2.4-0.8,3.8c-1,3.9-1.8,7.8-2.4,11.8c-0.6,4.9-0.4,9.9,0.5,14.8
			c0.5,1.4,1,2.8,1.7,4l1.9,3.5c0.5,1,1,2,1.6,2.9c0.5,0.9,1,1.9,1.3,2.9l2.3,2.5c0.7,0.2,1.3,0.4,1.9,0.6c0.7,0.3,1.3,0.6,1.9,0.9
			c1,0.5,2,1,3,1.5s2.5,0.6,4.6,0.3c2.1-1.5,3.8-3.4,5-5.7c1.5-2.6,2.5-5.5,2.9-8.5c0.7-3.5,0.3-7.1-1-10.4c0-0.5,0.1-1,0.2-1.5
			c0.2-0.6,0.4-1.2,0.6-1.8c0.3-1,0.6-2.1,0.9-3.3c0.3-1.2,0.5-2.5,0.5-3.8c0.1,0,0.2,0,0.2-0.1c0.5-0.3,1.1-0.5,1.7-0.6l-0.2-4.5
			c0.6-1.1,1.2-2.2,1.6-3.4c0.5-1.1,0.8-2.2,1.1-3.4c0.3-1,0.5-2,0.8-2.9c0.3-1,0.8-1.9,1.6-2.6c1.2-0.5,2.4-1,3.7-1.5
			c1.2-0.5,2.5-0.8,3.9-0.8c0.3,0,0.5,0,0.8,0.1c0.8,0.1,1.7,0,2.5-0.1c2.4-1.2,4.9-2.1,7.5-2.6c2.6-0.6,5.4-1.2,8.2-1.9
			c2.1-0.3,4.1-0.7,6.2-1.1s4.6-1,7.7-1.6c1.2,0,2.4-0.2,3.5-0.6c1.2-0.4,2.3-0.8,3.3-1.1c2.2-0.8,4.6-1.2,7-1l1.9,0.8l1.2-2
			l9.1-15.2l0.6-2.5c-0.1-1.5-0.4-3-1-4.4c-0.4-0.9-1-1.7-1.8-2.4l-1.3-2.5c-0.4-0.3-0.8-0.6-1.3-0.9l-2-1.1l1.2-4l-2.1-0.3l1.7-2.3
			h-7.6c-3.9,0-7.7,0.3-11.5,0.9c-3.7,0.6-7.3,1.3-10.9,2.1c-2.8,0.5-5.5,1-8,1.4s-5.1,0.8-7.6,1.1l-0.8-3c-0.3-1.3-0.2-2.6,0.1-3.9
			c0.2-1,0.7-2,1.3-2.9l1-2.5c-0.3-5.3,1.1-10.5,3.9-14.9c0.1-1,0.2-2,0.3-2.9s0.2-1.8,0.3-2.6c0.3-1.2,0.5-2.4,0.6-3.7
			c0.1-1.3,0.1-2.6,0-3.9c0.5-0.5,1.1-0.9,1.7-1.3c1.5-0.7,2.9-1.6,4.1-2.8c4.3-2.1,8.7-3.8,13.2-5.2c5.1-1.6,10.3-3,15.5-4
			c5.3-1.1,10.5-1.9,15.6-2.5c1.9-0.2,3.7-0.4,5.4-0.5c0.6,2.8,1,5.6,1.2,8.4c0.3,3.3,0.6,6.5,1.2,9.7c0.5,3.2,1.3,6.4,2.2,9.5
			c1,3.2,2.6,6.1,4.7,8.7c-0.9,3.6-2.1,7.1-3.4,10.5c-1.2,3.1-2.4,6.2-3.6,9.2s-2.3,6.2-3.3,9.4c-1,3.2-2,6.7-2.9,10.4
			c-1-0.3-1.7,0-1.8,0.9c-0.1,0.8-0.7,1.5-1.4,1.6c0.2,1.3,0.2,2.7-0.1,4c-0.3,1.3-0.8,2.7-1.4,3.9c-0.6,1.3-1.2,2.6-1.7,3.9
			c-0.6,1.4-1,2.8-1.3,4.3c-0.4,3.1-0.5,6.3-0.3,9.5c0.2,3.5,0.5,6.9,1,10.4s0.9,6.8,1.4,10.1s0.8,6.2,1.1,8.7
			c1.6,1.1,2.7,2.7,3.2,4.5c0.4,1.7,1.2,3.4,2.2,4.8c3,3.8,7,6.6,11.6,8.1c4.7,1.5,9.6,2.4,14.5,2.5c5,0.2,10-0.2,15-1
			c5-0.8,9.3-1.7,12.9-2.5c1,0,2.1,0.2,3,0.6c1.2,0.4,2.4,0.5,3.6,0.1c5.8-1.3,11.1-2.5,15.8-3.4c4.4-0.8,8.7-2.3,12.8-4.3
			c3.9-2,7.4-4.8,10.3-8.2c2.5-3.1,4.6-6.5,6.2-10.2c1.1,3.6,2.3,7.2,3.7,10.7c1.4,3.6,3.2,7,5.2,10.2c1.7,2.9,4.3,5.2,7.4,6.5
			c1.1-0.3,2.1-0.8,2.9-1.5c0.8-0.7,2.1-0.8,3.9-0.5c-0.3-1.3-0.5-2.1-0.9-2.3c-0.3-0.2-0.2-0.7,0.3-1.5c2.5,0.2,4.2-0.5,5.1-1.9
			c1-1.6,1.7-3.3,2-5.2c0.4-2,0.7-4.1,1-6.2c0.2-1.9,1-3.8,2.3-5.2c-0.6-1.6-0.8-3.4-0.5-5c0.3-1.5,0.8-2.9,1.4-4.2
			c0.7-1.3,1.3-2.5,2-3.8c0.7-1.3,1.2-2.7,1.5-4.2c1,0,1.8-0.8,2.3-2.3s1-3.2,1.6-5.1s1.1-3.6,1.7-5.3c0.4-1.5,1.5-2.7,2.9-3.3
			c2.6,9.9,6.6,19.4,12,28.1c4.8,7.7,10.5,14.7,17,21c4.3,2,7.7,2.7,10.4,2.1c2.6-0.6,5-1.8,7-3.7c2-1.9,3.9-3.9,5.5-6.1
			c1.6-2.1,3.6-3.9,5.8-5.3c-0.7-2-0.7-3.2-0.1-3.7c0.6-0.4,0.8-1.4,0.7-2.9c1,0.2,1.6,0.5,1.8,0.9s0.5,0.3,1.2-0.4
			c1.6-3.7,3-7.4,4.4-11.1c1.3-3.5,3.3-6.7,5.8-9.4c0.7-4.8,1.8-9.6,3.1-14.3c1.4-5.1,2.7-10.1,3.9-15c-0.2-5,0-10.1,0.5-15.1
			c0.5-4.6,1.1-8.9,1.7-13.1c0.6-4.2,1.4-8.5,2.2-12.9c0.8-4.4,1.4-9.1,1.7-14.2c1.4-1.2,2.5-2.6,3.3-4.3c0.8-1.8,1.4-3.6,1.8-5.6
			c0.5-2,0.9-4,1.3-6.1c0.4-1.9,0.9-3.8,1.7-5.6C1723.3,346.7,1722.3,343.1,1720.7,339.8z M1200.5,422.6c-3.9,0.5-8.1,0.9-12.6,1.3
			c-0.9,0.2-1.7,0.3-2.6,0.3c-0.9,0-1.7,0.1-2.6,0.3c1.7-3.7,3.4-7.2,5.2-10.6l0.2-0.3c2.1-5.1,4.6-10.1,7.4-14.9
			c2.8-5,5.9-9.9,9.3-14.7l1-2.5c1.4,6.6,2.7,13.1,4,19.6c1.3,6.5,2.4,12.9,3.4,19.1C1208.9,421.2,1204.7,422,1200.5,422.6
			L1200.5,422.6z M1391.8,388.2c-0.3,1.3-0.3,2.7-0.2,4c-0.8,1.8-1.4,3.7-1.9,5.6c-0.5,1.9-1,3.7-1.3,5.6c-0.4,1.4-0.8,2.7-1.1,4
			c-0.3,1.3-1.2,2.4-2.4,3c-0.6-0.7-1.3-1.4-2-2c-0.7-0.7-1.4-1.5-2-2.3l-2.9-1.3c-1.8,0.5-3.5,1.2-5.2,1.9
			c-1.9,0.8-3.7,1.9-5.2,3.3c-0.9,0.8-1.8,1.7-2.5,2.7l-0.3-0.6c-0.4-0.3-0.8-0.6-1.3-0.9l-2-1.1l1.2-4l-2.1-0.3l1.7-2.3h-7.6
			c-3.9,0-7.7,0.3-11.5,0.9c-3.7,0.6-7.3,1.3-10.9,2.1c-2.8,0.5-5.5,1-8,1.4s-5.1,0.8-7.7,1.1l-0.8-3c-0.3-1.3-0.2-2.6,0.1-3.9
			c0.2-1,0.7-2,1.3-2.9l1-2.5c-0.3-5.3,1.1-10.5,3.9-14.9c0.1-1,0.2-2,0.3-2.9s0.2-1.8,0.3-2.6c0.3-1.2,0.5-2.4,0.6-3.7
			c0.1-1.3,0.1-2.6,0-3.9c0.5-0.5,1.1-0.9,1.8-1.3c1.5-0.7,2.9-1.7,4.1-2.8c4.3-2.1,8.7-3.8,13.2-5.2c5.1-1.6,10.3-3,15.5-4
			c5.3-1.1,10.5-1.9,15.6-2.5c1.1-0.1,2.1-0.2,3.1-0.3l-0.2,1.2c-0.2,1.6-0.2,3.2,0.2,4.8c0.4,0.8,0.7,1.7,0.8,2.7
			c0,0.5-0.1,1-0.4,1.4l-1.2,3l2.3,2c0.7,0.9,1.3,1.8,1.7,2.8c0.5,1,1.1,2.2,1.8,3.5l1.6,4c1,1.8,2.2,3.4,3.8,4.7
			c0.4,0.2,0.9,0.3,1.4,0.4c0.4,0.1,0.8,0.1,1.2,0.1c0.5,0.2,1.1,0.5,1.6,0.6c0.6,0.3,1.2,0.8,1.7,1.4
			C1392.4,386,1392.1,387.1,1391.8,388.2L1391.8,388.2z"/>
	</g>
</g>
<g id="Ebene_2_2_">
	<g id="Ebene_1-2_1_">
		<path class="st0" d="M1419.2,156.8c-4.8-0.6-15.9,0.7-3.1,0.1C1417.1,157.1,1418.2,157,1419.2,156.8z M1183.1,182.5
			c3.6-0.9,7.3-1.5,11.1-1.8C1190.6,181.7,1186.9,182.3,1183.1,182.5z M1574,161c-4,0.1-12.6-0.5-17.4-1.1
			C1562.4,159.9,1568.2,160.2,1574,161z M1162.1,188.1c2.9-1.1,6-1.7,9.1-2C1167.3,186.5,1164.3,188.3,1162.1,188.1z M1493.3,159.3
			c-10.2-0.2-20-0.2-24.8-1.1C1476.8,158,1485,158.4,1493.3,159.3z M1540.4,160.7c4.1-0.2,8.2,0,12.3,0.6
			C1549.1,161.5,1545.9,160.7,1540.4,160.7z M1188.8,184.8c-5.4,1.2-8.8,1.3-12.2,2.4C1177.2,186,1187.3,184.6,1188.8,184.8z
			 M1165.5,189.4c-5.7,1.8-6.6,1.6-11,2.9C1154,191.4,1164.1,189.3,1165.5,189.4L1165.5,189.4z M1546.5,161.9
			c0.5-0.4,1.4,0.1,3.2,0.1c5.7,0.5,14.3,0.5,18.4,1.3c-6.1-0.1-15-1.1-19.4-0.7c-1.6-0.6-12.3-0.7-10.2-1L1546.5,161.9z
			 M1688.7,171.4c-2.1-0.1-6.9,0.4-6.1-0.5C1685.3,171,1688.5,171,1688.7,171.4z M1109.7,214.2c-3,1-5.3,2.4-8.8,3.4
			C1103.6,215.9,1106.6,214.7,1109.7,214.2z M1072,241.3c-0.3-0.9,3.9-4.5,5.8-4.8C1076,238.3,1074.1,239.9,1072,241.3z
			 M1751.3,181.5c-4.6,0.6-9.3,0.9-14.1,0.8C1741.8,181.4,1746.5,181.2,1751.3,181.5z M1758.7,183.4c-2.3,0.4-4.7,0.6-7,0.5
			C1753.9,183.3,1756.3,183.2,1758.7,183.4z M1741.7,185.8c-0.9-0.5-5.2,0.3-6.1-0.3C1738,184.9,1744.4,184.9,1741.7,185.8z
			 M1749.8,186.1c0.1-0.4-0.5-0.9,0.8-1.1c1.1,0.3,2.1,0.2,3.1,0c-0.7,0.8,1.5,0.5,1.2,1.2C1751.9,186.6,1753,185.7,1749.8,186.1z
			 M1681.8,197.1c-4,0.3-5.6-0.2-9.2,0.1c-0.9-0.9,8.4-0.6,9.2-0.2L1681.8,197.1z M1674.8,198.8c-0.6,0-1.2,0-1,0.4
			c3-0.3,6.1-0.2,9.2,0.2l-10.2-0.3l-0.1-0.5c0.6-0.3,1.4-0.3,2,0L1674.8,198.8z M1719.2,202.6c3.5,0,7-0.2,9.4-0.1
			c-3.1,0.4-6.3,0.4-9.4,0L1719.2,202.6z M1702.1,206.5c-4.2,0.4-22.2,0.3-13.4,0c4.4-0.3,8.9-0.4,13.4-0.1L1702.1,206.5z
			 M1664.1,206.3C1679,206.1,1676.8,207.2,1664.1,206.3z M1642.7,207.7c3.1-0.2,6.1-0.1,9.2,0.3c-3.1,0-6.2-0.1-9.3-0.5
			L1642.7,207.7z M1615,207.8c-1.6-1.1,11.5,0.1,8.2,0C1620.5,207.5,1617.8,207.5,1615,207.8L1615,207.8z M1494.3,204.8
			c3.7-0.3,7.4-0.2,11.1,0.4C1502,204.9,1496.1,205.3,1494.3,204.8L1494.3,204.8z M1493.4,205c-3.4,0-6.7-0.2-10.1-0.6
			c3.4-0.1,6.7,0,10.1,0.4L1493.4,205z M1621.4,210.5c0.4-0.6,2.2,0.5,3.2,0.6c-13.2-0.2-25.4-1.4-38-1.4
			C1598.1,209,1611.2,210.8,1621.4,210.5z M1547,208.1c0.5-1,7.2-0.5,9.1,0.1C1553,208,1550,207.9,1547,208.1L1547,208.1z
			 M1717.2,212.2c-4.1,0.3-8.3,0.3-12.4-0.1C1709.5,212,1713.9,211.9,1717.2,212.2z M1538.8,207.2c1.8,1.1-9.7,0.1-5.1-0.2
			C1534,207.6,1536.3,206.8,1538.8,207.2L1538.8,207.2z M1420.1,206.6c17.8-0.1-4.6,1-9,0.3L1420.1,206.6z M1255.1,221.6
			c10.4-2.2,21.3-2.7,29.6-3.9C1279.2,218.7,1260.6,221.6,1255.1,221.6L1255.1,221.6z M1697.8,214c-3.1,0.2-6.3,0.1-9.5-0.3
			C1691.5,213.5,1694.7,213.6,1697.8,214z M1141.7,192.8c3.5-1.7,7.2-2.9,10.9-3.8C1148.5,190.1,1144,192.6,1141.7,192.8z
			 M1435.6,157c-3.7,0.2-7.5,0.1-11.3-0.3C1428.5,156.6,1432.7,156.6,1435.6,157z M1508.5,158.3c-5.2-0.5-10.3-0.5-15.4,0.1
			c2.1,0.6,10.1-0.1,10.3,1c-8.4,0.4-19.2-3-22.7-1.5c-6.6-0.7-13.7-0.2-23.6-0.5l-3,0c-1.1,0.1-2.1,0-3.2-0.2
			c21-0.8,48.2-0.1,60.6,0.8C1508.8,157.8,1506.3,157.8,1508.5,158.3z M1610.6,162.4c3.1,0.1,9-0.4,10.1,0.7
			C1616.5,162.4,1614.2,163.1,1610.6,162.4z M1544.4,159.3c2.7,0,5.5,0.2,8.2,0.6C1549.9,160.4,1547.1,160.2,1544.4,159.3z
			 M1256.7,172c28.6-3.7,51.1-7.1,82.3-8.8c-22.9,1.3-51.3,5.5-74,8.4c-2.5,0.3-9.4,1.7-9.3,0.7c0-0.3,0.1-0.3,1-0.4L1256.7,172z
			 M1356.2,162.5c-4.7-0.4-14.9,1.2-16.3,0.6c15.3-1,27.6-1.8,39.8-2.2c-12.5,0.7,11.2-1.3,5.2,0.2c11.1-1.4,22.4-1.9,33.7-1.6
			c-2.4,0-4.8,0.2-7.1,0.7c22.6-0.5,45.1-1.4,67.6-0.8c-6.8,0.8-17.3-0.1-26.6,0.7c25.3,0.1,39.6-0.1,60.5,0.8
			c32.2,1.3,65,3.4,95.9,4.8c-1.1-0.2-2.6-0.1-1,0.1c2.6-0.7,9.7,0.1,12.1-0.5c-17.6-0.8-32.3-2.3-49.8-3.3l-7.2-0.4
			c2-0.2,4-0.2,6,0.1c42,2.7,86.7,5.3,129.3,5.7c-3.7,0.2-10-0.2-12,0.5c1-0.1,2,0,3,0.2c-6.3,0.5-12.7,0.4-19-0.2
			c5,0.2,10,0,15-0.5c-19.4-0.1-44.5-0.9-62.4-0.6c11,0.2,30.1,0.6,45.4,1.7c-3,0.5-6.2-0.5-7,0.4c18.2-0.3,34.4,2.3,48.2,0.5
			c7.6-0.8,19.5,0.6,28.9-1.1c6.2,0.5,13.7,0.7,17.2,1.4c-6.1,0.1-16.7,1.3-20,0.3c-9.9,0.2,5.7-0.6,4.9-0.5
			c-4.2-0.1-8.9,0.2-13.5,0.6s-9.2,0.8-13.4,0.8c-0.5-0.4,1.4-0.7-0.1-0.7c-7,0.6-10.9,0.1-18,0c0,0.2,0.8,0.3,1.1,0.5
			c-28.4-0.8-50-2.1-79.6-2.7c2.4-0.1,4.7,0.1,7.1,0.5c-3.8,0.4-19.9-0.5-15.3-1.2c-9.4,0.3-20.4-0.9-31.5-0.4
			c16.1,0.6,32.2,1.5,40.7,2.9c-0.7-0.5-2.4-1,1-0.7c1.1,0.4,1,0.7,2.1,1.1c2.1,0.2,4.1,0.1,6.1-0.2c-1.7,0.1-3.4-0.2-5.1-0.7
			c7.1-0.3,14.2,0,21.3,0.8c-5,0.3-10.6-1.1-12.1-0.1c21.2,2.3,32.8,1.1,53.5,2.4c0.8,0,1-0.2,1-0.5c2.4,0,4.7,0.3,7.1,0.9
			c-2-0.1-4,0-6,0.4c2.9,0,6.9,0.1,7-0.6c-1-0.1-2-0.2-3-0.5c5.2-0.1,8.1,0.1,8.1,0.9c14.7-0.7,20.8,0.9,32.1,0.1
			c-1.2,0.9,14.9-0.7,11.2,1c-2-0.3-4.1-0.2-6,0.3c3.3-0.4,1.7,0.4,1.1,0.7c3.7-0.6,3,0.4,6,0c1.4-1.2,5-0.2,6.8-1.6
			c-1.8-1.2-10.2,0.1-12.2-1c2.5,0.9,16.2-1.2,11.1,0.3c7.9-0.4,13.1-1.3,18.9-1.6c-1.7,0.3,0.5,0.2,1.1,0.4
			c-2.3,0.8-12.5,1.3-9.8,1.9c-2.9-0.1-13.6,1-10.8,1.6c3.6-0.8,7.2-1.2,10.9-1.1c-3,0.6,2.9-0.1,2.1,0.5c-3.2,0.2-1.3,0.8-3.8,1.2
			c-0.5-0.4,1.3-1-0.1-0.7c-3.3,0.5-1.8,0.7-2.9,1.1c-1.6-0.9-5.3,0.7-6.1-0.2c0.8-0.1,2-0.1,2-0.3c-4.4,0-6-1.1-6,0.2
			c-4.7-1.1-13.3,0.7-17.2-0.8c-3.2,0.8-6.6,1.1-9.9,1.1c-0.1-1-7.1-1.2-10.1-0.4c1.7-0.1,3.4,0.1,5.1,0.3
			c-6.9-0.3-18.5,0.7-25.2-0.2c2.3,0,3.1-0.3,3-0.8c-9.9-0.5-25.3-0.2-42.4-1.4c0.8,1.4-13.1-0.6-13.1,1.2c-1.3-1-7.5,0-11.1-0.1
			c9.4,0.6,20.7,0.2,23.3,1.2c6.8-0.6,18.5-0.3,23.2-0.3c-0.7,0.6-4.6,0.3-5,0.9c1.9,0,2.2,0.3,1.1,0.5c4.4,0.2,8.8,0.2,13.1-0.2
			c0.5,0.4-1.1,0.6,0.1,0.7c1.2,0.2,8.5-0.4,9.1-0.3c4.2,1.2,19.2,0.5,16.3,1.6c8-0.1,14.8,0.3,22.1-0.5c-1.3,0.2-2.7,0.2-4.1,0
			c2.7-0.1,12.2-1,10.1-0.4c-1.4,0.2-5.2,0.2-4.9,0.7c9.3,0.8,26.8-1.9,28.3,0.3c1.3-1.3-8,0.2-5,0.5c-4.7-0.1-9.4,0.2-14,1
			c1.6-0.3,4.4,0,2.1,0.3c-2.7,0.2-5.5-0.1-8.2-0.7c-4.6,0.8-9.3,1.2-14,1c2.6-0.6,6.9-0.4,12-1.1c-7.8,0.7-16.5-0.7-27.2,0.9
			c5.2,0.2,10.2-1,13.1-0.5c-6.7,0.3,1.1,0.4,2.1,0.7c-8.1,0.4-16.2,0.1-24.3-0.8c-2.2,0.5-14.6,0.2-20.1,0.4
			c17.1,1,30.7,1.2,50.5,1.2l-0.2-0.9c2.6,0.4,4.6-0.6,6.1-0.1c-0.6,0.4-4.8,0.2-5,0.7c4.7-0.5,9.4-0.5,14.2-0.1
			c-10.7,0.6-16.3,0.3-23.1,1.3c7.3,0,5.4,0,12.2,0.1c-4.3,0.7-8.7,0.7-13.1,0.2c0.1,0.3,4.4,0.6,0.1,0.7c-3.4-1-6.9-1.1-10.2-0.4
			c1.7-0.1,3.4,0,5.1,0.3c-1.4-0.1-2.7,0.1-4,0.4c5.6,0.4,4.3-0.9,7-0.5c-0.8,0.1-1,0.2-1,0.5c6.9,0.1,12.4-0.6,18.1-0.9
			c-1.3,1.1,2.8,0.3,2.2,1.2c-5.5,0.4-11-0.3-12.1,0.7l-3.3-0.6c-3.1,0.1-6.1,0.8-8.9,1.9c4.5-0.1,4.5,0.2,5-0.5
			c0.9,0.5,5.2,0,6.1,0.5c-2.1,0.7-7.9-0.2-12.1,0.8c6.4,0.4,14.4-0.6,18.3,0c-2.4,0-4.7,0.2-7.1,0.6c7.2-0.7,10,1.1,15.3-0.1
			c-1,0.2-2.1,0.1-3.2-0.1c6.4-0.4,12.7-1.4,18.9-3c-1.9,0.9-3.9,1.5-6,1.8c-0.2,0.6,4.7-0.6,3.2,0.5c-3.3,0.6-6.7,1-10.1,1.1
			c4.1,0.2,8.2-0.1,12.1-1c1.2,0.1,0.6,0.9,3.2,0.5c4.5-0.5-4,0.6-9.1,0.8c0.5,1.4-13.3,1.1-18.2,1c4.1-1,11.9,0.1,17.2-0.9
			c-6.8-0.3-13.7-0.2-20.4,0.4c-7.4,0.3-14.9,1-21.2,0.8c4.4-0.1,8.8-0.4,13.1-1.1c-5.4,0.4-10.8,0.4-16.3-0.1
			c-0.8,0.8,2.7,0.5,3.1,1c-1.9,0.2-4.3-0.7-5,0.1c4.3-0.1,0.3,0.2,0.1,0.5c8,0.5,16.5-0.2,24.4-0.5c-2.3,0.2-3.8,0.1-4.1-0.3
			c4,0.8,7.6-0.5,8.2,0.1c-0.3,0.6-2.8-0.2-3,0.7c3.7,0.2,12.8-0.6,17.3,0c-1.1,0.5,0.1,0.3-2,0.6c2.1,0.2,4.2,0,6.2-0.7
			c12.8-0.1,1.1,0-4.9,1.4c2.9,0.5,3.6-0.2,6.3,0c-3.9,0.7-0.1,0.4,1.1,0.7c-8.7,0.9-14.8-1.8-23.4,0.8c5.1-0.3,5.6-0.1,2.1,0.4
			c3.9-0.3,5.7,0.1,10.2-0.4c0.4,1.5-9.3,1-10.1,1.1c-1.7-0.7-13,0.4-18.4-0.3c2.4,0.1,4.8-0.1,7.1-0.5c-6.9,0-12.4,0.4-18.4-0.3
			c4.2,0-0.9-0.7,1.9-1.1c3.3,0.1,8.7-0.5,9.2,0.4c-1.4-0.1-2.7,0-4,0.3c4,0.8,8.5-0.2,12.3,0.4c-3-0.9,4-0.3,2.9-1.1
			c-3.7,0.6-7.5,0.5-11.2-0.1c7.9-0.4,14.4-0.4,19.4,0c-1.4,0-2.7,0.2-4,0.6c3.7-0.2,7.4-0.8,10.9-1.7c-11.5-0.8-32.7,2-34.6-0.2
			c-1.8,0.5-1.8,0.2-0.9,1c-3.8,0.3-8.2-0.7-10.2-0.7c1.1,1-7.8,0.3-11.1,0.8c-0.2-0.3,0.1-0.7-1.1-0.8c-2.4,0.1-1.9,0.9-5,0.7
			c-2.5-0.3-15-1.3-14.2-0.2l-3.3-0.8c-0.5,0.5-2.9,0.7-0.9,1.2c-7-1.3-22.1,0-23.5-1c-0.4,0.7-6,0-7.1,0.5
			c29.6,1.1,50.6,1.4,74.3,0.9c-3.3,0.7-6.1,0.6-11.1,1.1c-1.9-0.1,0.5-0.4-1.1-0.5c-10.8,0.8-19.2-0.6-29.5,0.4
			c0.4-0.9-9.4-1.2-5.1-0.1c-2.7,0-5.5-0.2-8.2-0.7c0.4,1.4-10.5-0.9-12.2,0.3c10.1,0.5,24.8,0.7,31.6,0.9
			c-16.6,1.3-36.3-2.2-47.9-0.9c18.3,1.1,41.9,2.1,60.1,1.2c-0.8,0-2,0-2.1-0.3c13.3,1.3,24.4,0.2,35.7,0.3c-0.8,0-1,0.2-1,0.5
			c5.1-0.3,15.1-0.1,20.5,0.3c-2.8,0.4-6.3-0.2-6.2,0.2c2.1,0.1,4.2,0.3,6.2,0.8c-18.8,0.1-41.6,0.9-60.2,0.9
			c2.1,0.1,4.1,0.4,6.2,0.8c-8-1.4-10.5-0.5-16.4-1c1.8,0,2.7,0.5,3.2,0.1c-4.8-0.6-16.7-0.8-21.4-0.6c13.6,1.2,27.3,1.4,36.9,2.5
			c-10.1,0.2-21-0.9-27.6-0.8c-0.9,0.5,5.9,0.3,2.1,0.6c-4.8-1-9.6-1.2-14.3-0.7c3.7,0.4,12.3-0.3,11.3,1.1
			c-4.4-0.8-12.2-0.3-15.3-0.5c9.1,1.2,15.6,0.4,21.5,1.5c-7.7-0.6-15.4-0.7-23.1-0.2c4.5,0.1,7.6,0.3,7.1-0.3
			c6.1,1.7,15.6,0.8,22.5,1.7c-3.3,0.2-18.7-0.5-12.2,0.5c-11.7-0.5-25-1.4-32.7-0.7c24.3,0.6,58,2.4,92,0.5
			c-2.4,0.3-4.8,0.3-7.2-0.1c4.6-0.1,14.6-0.4,13.4,0.2c-2.4-0.2-5.7-0.5-6.2,0.4c5.5,0.3,10-1,12.3-0.1c-3.1,0-6.1,0.1-9.2,0.6
			c2.4-0.2,4.8-0.1,7.2,0.3c-3.9-0.3-13.3,0-22.7,0.1c-9.4,0.1-19,0.4-23.4,0.4c-3.8-0.4-7.5-0.4-11.3-0.2l1.7,0l3.2,0.1
			c1.9,0,3.2,0.1,0,0.3c-14.1-0.8-32.2-1.4-45-1.3c4.4,0.4,11.5,0.1,14.3,0.8l-18.4-0.5c0.4,1.7-12.9,0.1-18.3,0.7
			c11.8,0.9,34.6,2.3,48,2.2c-2.5-0.4-11.4-0.7-15.3-0.6c-5.4-0.5-8.8-1-9.2-0.9c8.1-0.3,34,1.6,38.9,1.6c0.2-0.2,0-0.4,1-0.5
			c2.1,0.5,4.1,0.6,6.2,0.4c-3,1.7-18.4-0.6-23.5,0.7c2.7-0.1,5.5,0.1,8.2,0.5c-21.3-0.1-33.5-1-51.1-0.7c5.1,0.4,12.9,0.3,16.4,1
			c-4,0.3-17.9-0.9-24.5-0.6l8.2,0.4c0.1,1.6-16.7-0.8-19.3,0.1c6.1,0.4,14.9,0.3,19.4,1.1c-1.3,0.4-11.6,0.8-7.2-0.1
			c-44.6-1.9-80.5-4.2-112.3-3c0.8,0,2,0,2.1,0.3c-16.5-0.4-39.6,0-53.3,1c5.2-0.1,18-0.7,18.1-0.1c-6.7-0.1-16,0.6-21.1,0.2
			c-9-0.5-30.7,0.1-47.1,1.6l37-1.5c1,0,2.5,0,1,0.2c-4,0.3-10.7,0.1-13,0.8c15.3-0.2,2.2-0.2-4-0.1c-7.9,0.2-17.4,1.1-22,1.2
			c-2.5-1.3-8.7,1.2-12,0.5c1.3,0,2.7-0.2,4-0.6c-7.8,0.2-9.4,1.5-16.9,1.8c-1.4-0.6,0.4-0.9-1.1-0.9c-16,1.1-34.4,2.9-50.7,4.9
			c14.2-0.9,40.3-4.6,49.8-4.1c-2.4,1.3-4.1,0-8,0.4c-13.2,1.7-21.5,2.6-36.8,3.9c1.3,0,2.7-0.2,4-0.6c-13.8,2.6-26.6,2.1-45.5,6
			c4.1-0.5,15.5-2.4,14.9-1.8l-8.9,1.3c-21.5,3.2-48.4,7.8-67.7,11.6c1.5-0.5,4.2,0.2,2,0.1c-2.2,0-5.6,0.9-5,0.2
			c-1.4,0.8-5.7,1.2-1.8,1.1c-5.4,1-6.2,1.2-6.9,0.6c-3.7,1.2-12.3,3-16.2,3.6c-2.5,0.7-5,1.3-7.6,1.6c15.1-4,30.3-7,45.2-9.8
			c14.9-2.7,29.4-5.3,43.1-7.3c-24.1,2.8-52.4,8.6-67.6,11.2l-6.7,1.4c-3.4,1-3.5,0.3,0-0.2l6.7-1.5c12.6-2.7,24.7-4.7,36.2-6.6
			l33.3-5.6c-5.7-0.1-16.6,2.2-23.8,2.9c-3.4,0.2,12.1-1.9,14.7-2.8c-7.9,0.9-16.7,3-20.7,3.6c1,0,2.1-0.3,3-0.8
			c-18.3,2.8-52,8.1-74.2,15.8c-1.6-0.8,6.1-1.5,4.4-2.3c-17.4,5.3-26.1,6.9-38.9,11c12.9-6.9,33.2-11.1,40-15
			c-6.3,1.2-15,4.2-21.6,6.1c-1.3,0-2.7,0.1-4,0.3c-6.6,1.6-13.4,4.3-6.6,1.6c3.1-0.9,6.2-2,9.1-3.4c-4,0.9-9.5,3-13,3.9
			c2.7-1.3,4.5-2.5,7-3.7c-6.9,2.4-15.8,6.9-20,8.1c-1-0.5,0.9-1.6,0.2-2.1c2.7-1.4,4.8-1.5,5.3-2.8c-1.7,1-3.4,1.9-5.2,2.5
			c4.8-3,18-7.9,25.4-11c-2.8,1.2-3.5,1-5.7,1.8c-12.2,4.4,2.7-1.2,5.4-2.5c-11.3,3.5-19.7,8.7-28.5,11.4c3.7-1.5,7.2-3.4,10.6-5.5
			c-2.9,1.5-4.3,1.7-6.4,2.6c-1.5,0.7-8,4.2-5.4,2.4c4.7-2.8,17.1-7.1,9.7-5.2c3.4-1.3,6.7-2.9,9.9-4.7c-4.4,1.5-6.6,2.4-7.5,2.6
			c4.7-1.1,2.9-2.9-5.6,2c-4,1.8-0.3-0.3,1.7-1.1c6.7-3.4,9.9-3.2,13.9-5.7c-1.3,0.2-3.6,1-4,0.6c1.6-1.1,3.3-0.5,3.7-1.5
			c-1,0.4-2,0.5-3.1,0.5c-5.3,1.9-12.8,5.7-16.7,7c0.9-0.4,1.8-0.9,2.6-1.5c-0.9,0.5-1.9,0.9-3,1.1c5-1.9,9.8-4.2,14.5-7
			c-7.2,2.8-13.9,5.9-19.5,8.3c4-2.6,16.6-7.4,22-10.2c-10.6,3.3-20.9,7.5-30.9,12.6c1-0.6,1.1-1-0.1-0.5c-2.6,1.8-5.3,3.3-8,4.5
			c3.9-2.9,14.7-7.8,9.6-6c2.9-1.9,5.1-3.3,7.5-4.6c2.8-1.6,5.7-2.9,8.7-4.1c-1.7,0-3.3,0.4-4.9,1.2c-1.9,1.6-4,2.8-6.2,3.7
			c-3.9,2.2-8.7,4.7-10.9,5.8c6.8-4.6,20.7-11.4,28-15.4c-16.1,7.2-29.8,13.9-42.4,21.5c2.1-1.7,3.2-3,4.8-4.5
			c-2.5,1.4-5.2,3-5.9,2.4c6.5-5.1,13.2-9.7,20.2-13.8c-1.8,1.3-3.8,2.1-5.8,2.6c-1.2-0.3,2.2-1.8,2.3-2.4c-2.9,2-6.1,3.6-9.4,4.7
			c1.6-1.6,3.3-3,5-4.3c10.5-4.6,27.6-15.4,41.6-20.3c-18.2,6.1-35.8,14.3-52.6,24.4c0.8-1.1,1.7-2.1,2.8-2.8
			c1.6-1.2,3.7-2.7,5.9-4.2c4.4-2.8,9.3-5.4,11.1-6.3c-0.7,0.4-1.8,1-1.8,1.3c7.3-3.2,15.4-6.5,22.3-9.8c-0.9-0.1-4.7,2-4.2,0.9
			c2.9-1.4,8.5-3.2,9.7-4.1c-3,0.8-6,2-8.8,3.5c-0.8-0.6-6.9,2.1-8.9,3.1s-6.2,2.8-2,0.7c6.6-3.1,13.4-6,15.2-8
			c1.7-1,3.5-0.5,3.9-1.5c-0.1-0.2-1.8,0.5-2.1,0.3c6.9-2.8,16.8-6.2,26.3-9.4c9.5-3.2,18.7-5.7,24.2-7.5c-1.5,0-5,1.3-5.1,0.8
			c8.3-2,10.9-1,18.3-3.4c-2.7,0.8-8.4,1.7-6.1,0.9c5.3-0.4,10.4-2,13.1-2.4c20.2-4.2,44.3-7.7,67.1-11.4
			c-12.4,1.6-27.1,4.5-35.2,5.2c1.4-0.1,2.7-0.4,4-0.9c-10.5,2.3-13,1.8-27.1,4.4c-0.2,0.7,3.1-0.3,3.2,0.2
			c-6.3,1.3-3.5-0.3-6.3-0.2c14.8-2.2,24.1-4,34.2-5c0.3-0.4,1.1-0.6-0.1-0.7c19-2,46.2-7.1,60.4-8.5c-0.8,0.3-2,0.3-2,0.5
			c22-2.8,41.1-5,56.8-5.3l-0.1-0.7c4.5,0.1,8.9-0.2,13.2-1L1356.2,162.5z M1609.1,192c-3.1,0.7-14.9-1.2-16.3,0
			C1600.1,191.7,1606.2,193.3,1609.1,192z M1706.2,186.5c-0.1-0.7,1.5-0.9,2.9-1.1c-5.6-0.7-9.9,0.6-14.2,0.1
			C1694.9,186.3,1702.3,185.8,1706.2,186.5z M1689.9,173.7c-3.4,0.2-0.6,0.8-0.1,1.5c1.6-0.6,3.3-0.6,5-0.1c-2.4-0.9,0.8,0.2,4-0.3
			c-1.3,0.3-2.6,0.4-4,0.3c-1,1,3.4,0.4,4.1,0.9c1.6-0.6,3.2-0.8,4.9-0.7c0.2-0.4-0.4-0.3-1-0.2c1-0.3,2-0.5,3.1-0.5
			C1701,174.7,1695.6,174.2,1689.9,173.7L1689.9,173.7z M1311.7,168c3.4,0,6.7-0.2,10.1-0.7C1318.4,167.3,1315,167.6,1311.7,168
			L1311.7,168z M1545.7,164.2c4.2,1.2,11.1,0.4,20.5,1.2C1565.2,164.8,1551.6,164.6,1545.7,164.2z M1744.5,169
			c-4.6,0.4,1.9,1.6,4.1,0.4C1748.8,168.8,1743.1,170.2,1744.5,169z M1676.7,172.7c-4-0.3-8-0.2-11.9,0.2c2.4,0.5,4.7,0.8,7.1,0.8
			c0-0.2-1.2-0.2-2-0.3c1.5-1.1,14.2-0.2,7-0.8L1676.7,172.7z M1650.6,172.6c2.1,0.7,4.2,0.7,6.2,0.2c-2-0.3-4.1-0.4-6.1-0.1
			L1650.6,172.6z M1707.1,174c4.1,0.7,8.1,0.8,12.1,0.3C1716.8,173.8,1710.4,174.4,1707.1,174z M1721.1,174.8c1.2-0.1,0.5,0.1,0-0.3
			c-0.5-0.4,3.7-0.2,4,0c3.3-0.8-2.5-1.1-5.1-0.7C1719.7,174.4,1720.9,174.4,1721.1,174.8L1721.1,174.8z M1688.7,183
			c-2.6,0.5,5.9,0.1,8.1,0.1c-2.6,0.4-5.3,0.5-8,0.4c-1.3,0.6,9.5-0.1,13.1,0C1700.5,182.5,1693.9,182.9,1688.7,183z M1639.2,185.4
			c5.3-0.1,9.2,0.5,12.4,0.3c-4.1-0.5-8.2-0.7-12.2-0.3L1639.2,185.4z M1644.4,187.6c3.1-0.3,7.2-0.2,11.3-0.3
			c-3.8-0.6-7.5-0.5-11.1,0.3L1644.4,187.6z M1703.4,187.8c3.5,0.3,8.7,0,13.2,0C1712.1,187.4,1707.7,187.4,1703.4,187.8z
			 M1675,188.6l-5.1,0c-1,0.9,3.2,0.4,5.1,0.6L1675,188.6z M1651.6,188.6c-8.3-0.9-16.2-0.5-7.1-0.2
			C1646.9,188.6,1649.3,188.7,1651.6,188.6z M1135.1,222.7c-2.4,0.1-4.7,0.6-7,1.4C1130.5,224,1132.8,223.5,1135.1,222.7
			L1135.1,222.7z M1677,190.4c2.1,0,4.2-0.2,6.2-0.6C1689.1,190.3,1675.5,188.5,1677,190.4z M1677,189.2c-1.7,0.2-3.4,0.2-5.1,0
			C1670.3,190.6,1678.6,190.3,1677,189.2z M1684.1,189.4C1688.4,190.5,1698.1,188.8,1684.1,189.4z M1656.8,189.4
			c4.7,0.5,9.5,0.6,14.1,0.3c-4.9-0.5-19.7-0.7-14.2-0.2L1656.8,189.4z M1627.7,195.8c-7.5-1.4-15.6-0.7-22.7-1.4
			c11.4-0.3,33.6,1.7,37.8,0.6c3.4,0.5,6.8,0.7,10.3,0.7c12,0.4,11.9-0.2-2.1-0.3c12.7-0.5,27.5,0.2,40.8-0.3
			c-46.3-0.9-82.3-0.7-117.4-3.5c0.7,1.6-13.3-0.8-16.3,0.5c3.1,0.6,8.3,0,12.2,0.6c5.3,0.7-2.2,0.3,2,0.1
			c5.7-0.3,18.8,1.3,24.5,1.7c12.4,0.8,21.6,1,30.6,1.3L1627.7,195.8z M1696,195.6c2.8,0.5,9.8-0.1,14.3-0.1
			C1705.5,195.2,1700.7,195.2,1696,195.6z M1623.8,199.4c-0.2-1.2-9.4-0.1-8.2-1.1c-2.5-0.3-2.2,0.4-5.1,0
			C1611.8,199.3,1619.5,199,1623.8,199.4L1623.8,199.4z M1511.7,159.3c3.8,0,10.2,0.5,12.3,0.2c10.1,0.8,22.7,1.4,5.1,0.7
			C1524.6,160.4,1507,159.6,1511.7,159.3z M1718.4,168.2c-5.3-0.8-20.6,0.5-24.1-0.4c4.7,0.3,9.3,0,13.9-0.9
			C1711.7,167.5,1717.1,166.7,1718.4,168.2z M1733.2,166.9c-4.9,0.5-9.9,0.6-14.9,0.4C1723.4,166.8,1738.1,166.7,1733.2,166.9z
			 M1678.6,171.2c-0.8-0.9-6,0.2-8.1-0.7l8,0C1678.2,170.9,1680.1,171.1,1678.6,171.2z M1755.8,171.1c0,0.1-0.7,0.4-1,0
			c2.2-0.4-1.3-0.2,0.9-0.9c2.3,0.2,6.2-0.2,6.2,0.8C1759.8,171.2,1757.8,171.2,1755.8,171.1L1755.8,171.1z M1678.1,176.5
			c-1.2-1.6-6.2,0-8-0.7c4.6-0.9,9.4-0.7,14.1,0.5c-2-0.2-4-0.2-6,0L1678.1,176.5z M1077.1,237.3c6.2-4.9,5.5-3.1,4.1-1.6
			c-0.6-0.4-3,1.3-4,1.4L1077.1,237.3z M1764.8,177.3c-0.7-0.3-1.4-0.4-2.1-0.3c0,0.3-0.7,0.4-0.9,0.7c2.7-0.2,5.4,0,8.2,0.3
			c-4.9,0.6-11.7,0.4-11.2-0.3c1.2,0.5,3.7-1,4.9-1.3c-2,0.4-2.2-0.7-1-0.1C1764.1,176.1,1767.1,176.8,1764.8,177.3z M1754,180.2
			c3.7-0.2,6,0.2,9.2,0.2c-1.4,0-2.7,0.2-4,0.6c14.7-1.1,2.2-0.7,0,0.3c-0.6,0.3,7,0.9,2.1,0.5c-1.7-0.2-3.3-0.2-4.9,0.1
			c1.9,0.2-0.1,0.8-1.8,1.3c0.1-1.4-7.7,0.9-8.1,0.2c2.9-0.7,5.9-1.1,9-1.1c-1-0.7,1.4-1,1.8-1.5c-1.4,0.6-5.2,0.8-5.1,0
			C1752.8,180.7,1753.4,180.5,1754,180.2z M1738.5,183.1c-1.7,0.1-3.4,0.3-5,0.7c3.6,0.1,5.6-1.5,8-0.9c-0.7,0.1-1.4,0.3-2,0.7
			l4-0.4c-2.6-0.6,3.2-1.3,4-0.6c-2.5,0.3-4.5,1.3-2.9,1.5c-3.4,0.2-3.1-0.6-5,0.5c0.3-0.6-3.1-0.1-4.1,0c0.6,0,1.2,0.1,0,0.2
			c-1.1-0.4-2.2-0.5-3.2-0.3l-0.2-1.3c1,0,2.1-0.1,3.1-0.5c-0.6,0-1.2-0.1,0-0.3C1735.3,183.1,1738,182.7,1738.5,183.1z
			 M1726.5,186.4c0.6,0.3,3.9,0.9,2.2,1.1c-0.6-0.5-1.1,0.2-2,0.3c2.1-1.9-4.2-1-7.3-1.4c3.7,0,10.1-1.5,15.1-1.2
			C1731.8,185.5,1729.2,185.8,1726.5,186.4z M1747.3,189.7c-0.5-0.7-6,0.3-7.2-0.2C1743,188.7,1749.1,189.1,1747.3,189.7z
			 M1716.7,198.9c1.4-0.1,2.7-0.1,4.1,0.1c7.2-0.3,5.5,0,2,0.2c-3.5,0.2-8.6,0.2-8.2-0.7c2.8-1,8.7,0.3,11.2-0.8
			c-7.8,0.3-15.7,0-23.6-0.9c9.2,0.7,26.9-0.1,30.8,1C1730.9,197.9,1719.9,198,1716.7,198.9z M1697.1,197c-4.4,0.3-8.8,0.2-13.3-0.1
			c4.8,0.1,9.5-0.1,14.3-0.2c0.3,0.5,1.7-0.2,2,0.2C1699.2,197.2,1698.1,197.2,1697.1,197z M1701.4,198.6c-1,0-2.1,0.2-3.1,0.5
			c4,0.2,7-0.9,8.1-0.4c-7.1,0.8-14.2,0.9-21.4,0.3c7.7-0.3,14.2-0.6,16.3-0.5L1701.4,198.6z M1724.3,201.9
			c-1.5-0.3-6.7,0.4-7.2-0.1c0.6-0.4,11.2-0.9,7.2,0L1724.3,201.9z M1579.5,209.2c-4.1-0.1-14,0.1-16.3-1.2c5.4,0,10.9,0.3,16.3,1
			L1579.5,209.2z M1238.3,224.2c0.6-0.1,1.1,0,0,0.1c-5.7,0.2-9.2,2.2-13.9,1.7c7.7-1.1,14.7-3,17.7-2.9c-1.3,0.1-2.6,0.4-3.9,0.9
			L1238.3,224.2z M1520.8,158.4c4.6,0.3,7.2,0.2,9.3,0.6c-4.4,0.4-8.9,0-13.4-1c2-0.4,4.1-0.3,6.1,0.2
			C1522.1,158.2,1520.8,158.1,1520.8,158.4z"/>
	</g>
</g>
</svg>
