<svg xmlns="http://www.w3.org/2000/svg" viewBox="0 0 207.63 39.86"><defs><style>.cls-1{fill:#fff;}</style></defs><title>gzk-logo-white</title><g id="Ebene_2" data-name="Ebene 2"><g id="Ebene_1-2" data-name="Ebene 1"><path class="cls-1" d="M19.93,6A13.93,13.93,0,1,1,6,19.93,13.95,13.95,0,0,1,19.93,6m0-6A19.93,19.93,0,1,0,39.86,19.93,19.93,19.93,0,0,0,19.93,0Z"/><circle class="cls-1" cx="59.79" cy="19.93" r="9.97"/><circle class="cls-1" cx="89.69" cy="19.93" r="9.97"/><path class="cls-1" d="M127.9,6A13.93,13.93,0,1,1,114,19.93,13.95,13.95,0,0,1,127.9,6m0-6a19.93,19.93,0,1,0,19.93,19.93A19.93,19.93,0,0,0,127.9,0Z"/><circle class="cls-1" cx="167.76" cy="19.93" r="9.97"/><circle class="cls-1" cx="197.66" cy="19.93" r="9.97"/></g></g></svg>