<svg id="Ebene_1" data-name="Ebene 1" xmlns="http://www.w3.org/2000/svg" viewBox="0 0 224.45 61.05"><defs><style>.cls-1{fill:#093;}</style></defs><title>marker</title><path id="Pfad_142" data-name="Pfad 142" class="cls-1" d="M223.49,24.77h0c-.84-6.83-7.25-11.34-15.19-15C197.38,4.81,185,2.16,171.92.52c-6.17-.77-12-.87-17.89,1,1.43,1,3.13,1,4.77,1.15,16.64,1.7,32.29,5.15,45.88,11.83,15.11,7.43,15.14,20.16.32,27.83a99.66,99.66,0,0,1-20.78,7.59c-20.46,5.3-42,6.14-63.54,6.16-20.4,0-40.83-.63-60.85-3.69-16-2.45-31.22-5.95-43.74-13.33C6.53,33.42,4.94,26.42,12.25,21a29.9,29.9,0,0,1,8.33-4.09C42.92,9.29,67.23,6.66,91.82,5.3c13.72-.76,27.62-.1,41.44-.08,2.6,1,5.41.51,8.16.49h0a38.42,38.42,0,0,0,8.89.8l1.12.22.11,0,21.94,4.3a8.91,8.91,0,0,0,4.87,1.15,4.09,4.09,0,0,0-3-1.65h0a96.08,96.08,0,0,0-21.91-4.68h0c-1.45-.18-2.88-.15-4.37-.46C137,2.92,124.5,2.13,111.88,1.87A347.66,347.66,0,0,0,58.4,4.61C42.48,6.75,26.72,9.43,12.91,15.47-2.59,22.24-4.28,32.7,8.64,41.53c7.42,5.07,16.61,8.29,26.44,10.84,17.14,4.44,35.12,6.14,53.34,7.31,26.05,1.68,52.09,2.45,77.76-1.52,24.36-3.77,47.93-8.72,58.27-26.13V24.82A3.44,3.44,0,0,1,223.49,24.77Z" transform="translate(0 0)"/></svg>