<?xml version="1.0" encoding="utf-8"?>
<!-- Generator: Adobe Illustrator 24.0.1, SVG Export Plug-In . SVG Version: 6.00 Build 0)  -->
<svg version="1.1" id="Ebene_1" xmlns="http://www.w3.org/2000/svg" xmlns:xlink="http://www.w3.org/1999/xlink" x="0px" y="0px"
	 viewBox="0 0 224.5 61" style="enable-background:new 0 0 224.5 61;" xml:space="preserve">
<style type="text/css">
	.st0{fill:#C1FF2E;}
</style>
<path id="Pfad_142" class="st0" d="M223.5,24.8L223.5,24.8c-0.8-6.8-7.3-11.3-15.2-15c-10.9-5-23.4-7.6-36.4-9.3
	c-6.2-0.8-12-0.9-17.9,1c1.4,1,3.1,1,4.8,1.1c16.6,1.7,32.3,5.2,45.9,11.8c15.1,7.4,15.1,20.2,0.3,27.8c-6.6,3.3-13.6,5.8-20.8,7.6
	c-20.5,5.3-42,6.1-63.5,6.2c-20.4,0-40.8-0.6-60.9-3.7c-16-2.4-31.2-5.9-43.7-13.3C6.5,33.4,4.9,26.4,12.2,21
	c2.6-1.8,5.4-3.2,8.3-4.1C42.9,9.3,67.2,6.7,91.8,5.3c13.7-0.8,27.6-0.1,41.4-0.1c2.6,1,5.4,0.5,8.2,0.5l0,0
	c2.9,0.6,5.9,0.9,8.9,0.8l1.1,0.2l0.1,0l21.9,4.3c1.5,0.8,3.2,1.2,4.9,1.2c-0.7-1-1.8-1.6-3-1.7l0,0c-7.1-2.4-14.5-4-21.9-4.7l0,0
	c-1.4-0.2-2.9-0.2-4.4-0.5c-12.1-2.5-24.6-3.3-37.2-3.5C94,1.4,76.1,2.3,58.4,4.6C42.5,6.8,26.7,9.4,12.9,15.5
	C-2.6,22.2-4.3,32.7,8.6,41.5c7.4,5.1,16.6,8.3,26.4,10.8c17.1,4.4,35.1,6.1,53.3,7.3c26.1,1.7,52.1,2.5,77.8-1.5
	c24.4-3.8,47.9-8.7,58.3-26.1v-7.2C224.1,24.8,223.8,24.8,223.5,24.8z"/>
</svg>
