<svg xmlns="http://www.w3.org/2000/svg" viewBox="0 0 157.83 28.94"><defs><style>.cls-1{fill:#ffda48;}</style></defs><title>marker-3</title><g id="Ebene_2" data-name="Ebene 2"><g id="Ebene_1-2" data-name="Ebene 1"><path class="cls-1" d="M77.65,1.5c2.85,0,.33-.43-.67,0C77.3,1.56,77.37,1.67,77.65,1.5ZM128,.14c.41-.3,1.79,0,2.58-.09A4.58,4.58,0,0,1,128,.14ZM47,3.31a15.79,15.79,0,0,1-3.77.21A12.6,12.6,0,0,1,47,3.31ZM133.37.63c.47-.38,1.46.07,2.1,0C135,1,134.25.47,133.37.63ZM66.21,3.11c-1,.48-3.18.53-5.37.63C62,3.21,64.19,3.2,66.21,3.11Zm-18.34,1A5.78,5.78,0,0,1,50.55,4C49.34,3.93,48.64,4.29,47.87,4.08Zm84.31-2.29c-.8-.24-1.55.08-2.8-.05C129.7,1.51,132,1.24,132.18,1.79Zm2.57-.09c.31-.16,2.63-.3,2.56.18A13.14,13.14,0,0,1,134.75,1.7ZM51,4.5c.45.26-1.89.09-2.23.35-1-.28-2.89,0-4.23,0,.89-.33,2.74-.11,4-.22.38,0,.57-.24.67,0ZM19.5,6.83c.19.49-.87.14-1.33.2C18.21,6.69,18.91,6.8,19.5,6.83ZM150.21,5.66a11,11,0,0,1-2.11.1C148.42,5.27,149.44,5.55,150.21,5.66Zm6,3.1c.45-.41,1.57,0,1.58.52C157.1,9.08,156.82,9.18,156.25,8.76ZM7.35,13c-.25.24-2,0-3.15-.13A5.47,5.47,0,0,1,7.35,13ZM4.08,14.18c-.12.29-1.11,0-1.59,0A2,2,0,0,1,4.08,14.18Zm3.6.43c-.21.26-1.17,0-1.38.28C5.7,14.51,7.15,14.3,7.68,14.61Zm-4.39.82c-.06-.32.44-.24.29-.63.32,0,.64.07.69-.08.3.07.16.35.18.55C3.76,15.11,4,15.59,3.29,15.43Zm16.42,4.83c.18-.17,2.25-.28,2.06.17C21,20.18,20.61,20.46,19.71,20.26Zm1.58.95c.06-.16.46-.12.46,0v.26l-2.3-.05a4.09,4.09,0,0,1,2.08-.08C21.56,21.24,21.43,21.22,21.29,21.21Zm-10,1.93a4.25,4.25,0,0,1-2.1.16A7.75,7.75,0,0,1,11.26,23.14Zm3.86,1.91c-.3-.29,2.2,0,3,0C20.15,25.29,16.06,25.24,15.12,25.05Zm8.61.16c-2.91.34-3.38-.23,0,0Zm4.87,1c-.26.3-1.47,0-2.1.09C26.1,26.19,28.42,26.06,28.6,26.23Zm6.25.53A5.58,5.58,0,0,0,33,26.63C32.26,26.51,35.21,26.25,34.85,26.76Zm27.44.35c-.38.32-1.74.12-2.51.24A5.2,5.2,0,0,1,62.29,27.11Zm.23.12c.31-.31,1.59-.12,2.28-.23C64.5,27.31,63.21,27.11,62.52,27.23ZM41.36,28.42c-2.87-.23-5.63,0-8.59-.08.23,0,.62-.57.69-.26C35.78,28.4,38.74,27.82,41.36,28.42Zm9-.08a7.47,7.47,0,0,0-2.08-.07C48.72,28,50.23,27.83,50.38,28.34Zm-35.86-.43a9.6,9.6,0,0,1-2.84.13A11.91,11.91,0,0,1,14.52,27.91ZM52.21,28c.57-.2,1.13.25,1.15,0C54.43,28.19,51.84,28.55,52.21,28Zm29-1.16c-1,.53-6,.53-2,.1C79.64,26.91,80.45,26.92,81.2,26.86Zm35.17-1a28,28,0,0,1-6.66.15C111.59,26.07,114,25.61,116.37,25.88ZM18.25,28.75a5.44,5.44,0,0,1-2.13.16A5.85,5.85,0,0,1,18.25,28.75ZM137.59,0a5.54,5.54,0,0,1,2.58.49C139.66.7,138.55.05,137.59,0ZM75.85,1.59c.2.15-1.63.34-2.47.38A10.27,10.27,0,0,1,75.85,1.59ZM56.77,3A132.32,132.32,0,0,1,70,2.4c0,.16-.41.13-.67.17l-.68,0c-2.17.27-3.73,0-5.15.5-.82-.79-3.06.92-4.92.74,0-.55,1.8-.17,2.23-.49-.79-.48-2.23-.13-3.37-.12C57.92,2.92,57.38,3,56.77,3ZM33,3.62c.24-.53,1.53-.14,2.2-.14C34.44,3.75,33.92,3.34,33,3.62Zm14.83-.2a6.26,6.26,0,0,1,1.78-.18A1.62,1.62,0,0,1,47.85,3.42ZM113.61,1c.19,0,.21,0,.23.13.07.51-1.53.28-2.07.31-2.6.09-5.52.05-8.42.06A82.84,82.84,0,0,0,95,1.71C101.93,1,107.08,1.18,113.61,1ZM91.13,2.15a6.23,6.23,0,0,0,3-.13l0,.39c3.44-.64,7.82-.59,12.82-.64,0-.12-.28-.09-.46-.11,1.6-.1,4,0,6.51.08a54.41,54.41,0,0,0,7.35-.25c-.28.18-.09.21,0,.4,2.32-.28,4.48-.3,7.89-.43-.63.18.05.72-1.4.66,0-.25.77-.1.7-.4-3.26,0-3.8.45-6.26.16.07.18.58.11.93.13-1.84.3-5.27,0-8.09.24,2.62.07,5.33.06,8,.06s5.19-.07,7.54.09a8.52,8.52,0,0,0,3-.08c.54.16-.78.33-1.4.24,1.72.5,2.28-.22,4.19-.19,0,.29-.83,0-1.17.11,2.58.57,8.58,1,11.86,1.35-.07.14-.47.07-.48.24.13.4.5-.1.93,0,.46.65,2.07.74,3.69.9,1,.07,0,.23-.48.09-.54.19-1.95-.21-2.12.25a5.35,5.35,0,0,0-2.09-.1c.31.32,1.62.12,2.32.24.18.43-.77.15-.95.35a18.37,18.37,0,0,0,5.35.11c0-.13-.27-.12-.45-.17.89,0,4.78.37,5,1a42,42,0,0,1-5.83,0l-3.4-.16c-1.16,0-2.36,0-3.55,0,3.3.12,7.56,1.83,10.13,1.19a3.48,3.48,0,0,1,1.34.63,3.19,3.19,0,0,1-2.33.21c.07.26.88.17.65.58a1.67,1.67,0,0,1-1.4.16c1.51.42,3.86.44,5.23.93-.11.43-.82.46-1.43.55a7.05,7.05,0,0,0,1.32.62,45.82,45.82,0,0,1-10.55,0c1.81.64,5.24.86,7,1.17-1.1.19-4.76-.24-4.3-.46a1.52,1.52,0,0,0-1.17.44,15.18,15.18,0,0,1,4.06.57c-1.24.39,1.46.07,2.48.33a3.92,3.92,0,0,1-2,0c-.29,0-.25.24,0,.26-2,0-5.07.1-7.51.28,1.33.39,4.39.23,5.41.48a40.49,40.49,0,0,1-4.75-.06,7.55,7.55,0,0,0,3.59.5c-.05.15-.42.08-.68.08,0,.16.4.15.66.19-.92.23-2.77-.18-4.06-.13-.23.08-.25.29-.69.23.13.4.49-.1.9,0-.07.27-.61.24-.92.36,1,.56,1.72-.15,3.37.18.49-.06,1.42.24.44.17-2.16-.59-2.46.5-1.36.16a16.88,16.88,0,0,1-1.81.17,5.72,5.72,0,0,0,2.45.4c-1.75.51,1.22.25,2.44.45.67.26-1,0-1.35,0a5.79,5.79,0,0,1-1.57,0c.32.44,1.7.35,2.66.47a7.92,7.92,0,0,1-3.26.1,24.73,24.73,0,0,0-3.68-.24c.66.25,4.27.34,1.33.32-.52,0-.67.2-1.34.07a21.06,21.06,0,0,0,3.32.3,13.83,13.83,0,0,1,2.9.32,2.77,2.77,0,0,1-1.35.16c.17.49.65.13,1.32.23-.13.41.37.5.16.94-1,.38-3.23-.07-4.89,0a16.48,16.48,0,0,0,1.75.47c-.84.26-2.19.19-3.13.39a5.6,5.6,0,0,0,2.22.1c1.66,0,0,0-1.57.33-.44.06-.53.37-.91.48-1.55.11-3.65-.14-5.09,0,1.67,1.16,6.4.36,9.67,1-3.1.5-5.18,1.24-9.29.88-.35.58,1.44,0,1.08.57-5.3-.74-12.89-.5-17-.36,0,.15.4.11.66.13-.88.08-2.89-.29-4.65-.11.61.24,4.06.06,3.33.24-1.61.24-4.07,0-5.32.45,2.45.09,4.91.14,7.5.1l4,0,4.21.08,1.54,0c.8-.08.79.24,0,.13l-1.54,0c-3.49.24-9.85-.13-15.24.26l9.7.1,10.36.24c-.17.3-1.23,0-1.76.11a11.38,11.38,0,0,1-3.73-.07c-.13.36-.32.37-1.54.37.87-.33-.1-.12-.44-.4.15.31-.62.15-1.1.37-.51,0,.09-.35.44-.25-2.17-.09-4.79-.1-7.44-.17s-5.38-.08-7.82-.09l-2,0c-.17-.27,2.4-.12,3.33-.21-4.31-.52-7.07.57-10.24.16.07.17.56.09.89.1a50.69,50.69,0,0,1-8.28.18c-.89,0-1.19.74-1.79.22,2.11-.71,8-.32,11.18-.84-3.69.08-7.82.23-11.42.45-.34.13.07.2-.2.54-1.69.23-2.09-.36-3.83-.09.07.17.56.08.9.09-.7.5-2.2-.49-2.69.26-1,.11-3.2.06-5,.24-1.42.14-4.32.61-.89.18-.55-.28-2,.05-2.94,0-.36-.05,0-.13.21-.14,3.89-.21,5.59-.33,8.35-.55a60.35,60.35,0,0,0-10.6.79c-1.12.37-3.25.21-4.76.37,0-.29,2.91-.2,4.08-.33-3.12-.18-8.34.14-12.07.32,0-.13.27-.12.45-.16-3.63-.18-7.47-.07-11.69,0s-8.77.28-13.83.28c1,.55-1.32.13-1.61-.1,1-.32,3-.1,4.38-.22-.63-.5-4.4.35-4.39-.43l1.84,0c-1.49-.24-4.65,0-5.55-.22.77-.3,2.54-.05,3.7-.14-4-.6-6.76-.36-11.58-.66.18-.3,1.31,0,1.86-.11-1.17-.77-4.63,0-5.32-.76a1.82,1.82,0,0,0,1.39-.1c.23,0,.18.17.23.27.56,0,2.3,0,4.13-.11a23.88,23.88,0,0,1,4.66,0c-.1,0-.87.09-2.08.26a12.12,12.12,0,0,0-3.47,0,90.07,90.07,0,0,0,10.85-.17c-1.24-.41-4.21.08-4.15-.76-1.72-.09-2.82-.07-4.15-.13.62-.3,2.22-.05,3.22-.14-1.44-.16-3.19-.24-5-.26s-3.6,0-5.19.05c-1.43-.26,1.16-.06,1.16-.11,0-.31-2.54-.05-2.54-.05L18,23a22.83,22.83,0,0,0-5.13,0,3.17,3.17,0,0,1,1.63-.18c-.23-.31-1.45-.12-2.07-.23.52-.47,1.53.1,2.78,0-.11-.44-.87-.23-1.38-.2-.28-.32,2-.18,3-.11.36.17-1.32.19-1.62.05,7.69.93,15.26.71,20.74.92-1.74-.52-4.72-.32-7.36-.26,1.45-.4-2-.31-2.76-.46,1.57-.32,3.72.32,5.06-.45-.1.26.61.3,1.61.25a17.85,17.85,0,0,0-5.28-.43c1.32-.46,2.79.06,4.83-.36-.72.05-2.48-.36-3.45,0-.23-.74,1.71-.24,2.53-.39a4.55,4.55,0,0,0-3.21.11c-.86-.2.67,0,.46-.25-1.5-.19-3.93.21-6.2,0,2.14-.48,5.24-.37,8.27-.64a19.36,19.36,0,0,0-4.81-.08c.09.2.29,0,.68,0-1.32.16-1.88-.29-3.67.31.51-.09.62-.42,1.38-.36-4.17-.24-9.28-.8-13.53-.54.21-.32,1-.28,1.41-.45,0-.25-.78.11-1.37-.07a17.53,17.53,0,0,1,4.6-.3c.05-.15,0-.24-.22-.27,1.28,0,2.54.12,3.85.22A17.46,17.46,0,0,0,23,18.62c0,.12-.29.09-.46.12a60.26,60.26,0,0,0,6.74.53c2.34,0,4.68-.05,6.72-.14-2.62-1-7,.51-10.72-.46,1.53,0,4.81.14,7.07.07-.38-.64-2.8.33-2.73-.39a3.78,3.78,0,0,1-1.83.24c.94-.45-1.24-.47-1.14,0-2.31-.65-4.2-.08-6.61-.53-.35,0,.2.23-.23.26a12,12,0,0,1-2.49-.64c2.66.21,5.16.23,7.83.35l4.16.15,4.64.06c-.26-.29-1.51,0-1.6-.39-.3.51-3.67-.43-5.23.09.42-.22-.1-.38-.22-.66l-.69.38c.16-.58-2.63-.22-3.19-.07s-.59-.36-1.12-.41c-.27,0-.2.23-.24.38-.74-.21-2.74,0-2.49-.45-.46,0-1.46.42-2.29.28.2-.41.2-.26-.21-.53-.41,1.09-5.17-.29-7.77.38.31.46,1.64.37,2.48.54-.06-.18-.57-.14-.91-.18a14.42,14.42,0,0,1,4.35-.18c-.57.37-1.07.27-2.52.14-.24.45,1.33,0,.66.56.85-.35,1.87.15,2.76-.26-.07-.18-.57-.14-.91-.17.1-.44,1.32-.15,2.06-.17.63.23-.5.57.44.55a17.37,17.37,0,0,1-4.13.19c.08.3,1.12.11,1.59.21-1.22.42-3.74,0-4.14.32-.17-.06-2.36.36-2.27-.4a17.56,17.56,0,0,0,2.29,0c-.79-.26-.68-.32.47-.24-1.91-1.11-3.31.22-5.27,0C6.1,18,7,18,6.08,17.78c.61-.19.77.1,1.38-.15-1.33-.59-4-.33-1.1-.62.57.08.73.55,1.36.24-.46-.18-.2,0-.44-.3a6.54,6.54,0,0,1,2-.19,16.17,16.17,0,0,0,1.88-.07c0-.46-.61,0-.66-.3.13-.38.94.18,1.83-.17-.07.23-.41.28-.93.22a38.19,38.19,0,0,0,5.46.14c0-.18-.93-.3,0-.27-.17-.39-.73.05-1.13,0,.1-.25.88-.07.7-.5-1.45-.08-1.53.5-3.64.09.59.54,2.37.27,2.93.54-2.83,0-6.69-.78-9.33-.17,1.19.35,2.95-.19,3.87.16-1.11.17-4.21.47-4.09-.18a7,7,0,0,1-2-.17c.6.15.46-.23.71-.33a5,5,0,0,0,2.72.22c-.64-.28-1.6.17-2.26-.32-.31-.49.78,0,.71-.33-.15-.14-1.14-.3-1.3-.77,1.26.79,3,.86,4.23,1.14-.05.15-.42.08-.69.07,1.17.54,1.83-.49,3.43-.18-.09-.3-1.12-.11-1.58-.21.89-.41,2.67.09,4.09-.19-.94-.44-2.23.08-2.7-.27.21-.27,1.17,0,1.38-.32.12.32.12.2,1.12.18-.46-.47-.76-.58-2-.89l-.7.36c-.23-.54-1.48,0-2.7-.16-.14-.42.78-.1.49-.62,1.29,0,2.53.27,4.05.22.05-.15,0-.24-.21-.28.61-.2.31.48,1.57.21-.06-.18-.56-.14-.89-.17.2-.19.73-.16,1.13-.21-.67-.39-2.13-.13-2.27.28-.95,0,0-.2,0-.39-1,.37-1.32.26-2.94.11a16.55,16.55,0,0,1,2.72-.25c-1.51-.51-2.74-.16-5.16-.34a7.48,7.48,0,0,1,3.16-.16c0-.27-1-.09-1.1-.33.33-.24.76.19,1.35,0l0,.39,5.86-.32c1.78-.08,3.48-.16,5.39-.37-.62-.07-1.61-.06-2.52-.08a8,8,0,0,1-1.95-.21,17.88,17.88,0,0,1-5.41.53c.22-.18,2-.29.47-.38.64-.28,1.77.27,2.91.15-2.38-.67-4.3,0-6-.19,1.13.37,2.09.09,2.67.42a7,7,0,0,1-3.12-.32,3.49,3.49,0,0,1-1.83.5c-.53,0,.11-.35.46-.22a6.59,6.59,0,0,0-3.14-.13c.69-.24-1.4-.73-1.11-.09.38-1.19,4.27-.3,6.34-.8.06-.28-.78-.12-1.1-.22-.47-.3,1.63.07,2.23,0-.08.17-.56.08-.9.08a29,29,0,0,0,4.93,0c-.63-.54,2.66-.16,3.6-.75.13-.07,1.73.31,2,.21s-.08-.17,0-.39a11.53,11.53,0,0,0,2.9.19c-.25-.17-.19-.27.23-.26-.1-.33-1-.24-1.1-.55a28.22,28.22,0,0,1,5.12.51,3.67,3.67,0,0,1,2-.23c1,0,2.1.07,3.13,0-.81,0-2.17-.63-2.45-.13,0-.93-3.06-.12-2.89-.83-3.75.25-7.18.1-9.35.28-.05.28.17.42.65.42-1.48.5-4-.08-5.57.12.38-.36.71,0,1.13-.21-.64-.36-2.22-.2-2.24.29-.93,0-1.86,0-2.21-.38-.87.81-2.78.05-3.84.73,0-.66-.36,0-1.34,0,0,.13.26.12.43.16-.18.48-1-.18-1.36.29-.24-.14.08-.31-.63-.45-.34,0,.07.17,0,.39-.59,0-.13-.52-.85-.46-.17-.29,1.15-.17.48-.36.38.06,1.86-.39,2.44.2C5.55,9.24,3.17,9,2.5,9.17,3.13,8.74.83,8.86.33,8.6c.14-.12.63-.15.24-.25,1.31-.07,2.47.08,4.23.08C3.67,7.78,6.71,8.52,7.27,8c-.46.59-2.32.19-2.73.83.38.69,1.2.08,1.51.65.69.12.53-.36,1.34-.15-.12-.14-.47-.53.26-.38-.17-.32-1.14-.08-1.34,0-.81-.76,2.77-.33,2.49-.71,2.52.24,3.88-.73,7.12-.4,0-.41.65-.48,1.79-.44a1.76,1.76,0,0,1-.67.23c0,.38.91.29,1.53.34,0-.29-.93-.1-1.32-.2a3.7,3.7,0,0,1,1.57-.45c0,.15,0,.24.21.28C23.59,7,26.14,7.85,30.79,7c-.35-.56-1.55.09-2.66-.15a12.59,12.59,0,0,1,4.66,0,1.51,1.51,0,0,1-1.11.26c0,.29.94.06,1.33.13.23-.16.22-.36.45-.53.74-.09.36.28.22.4,1.86-.53,5.36-.63,8.9-.61A19.28,19.28,0,0,0,39,6.28a31.71,31.71,0,0,1-3.31-.17c1,.43-2.5.52-3.33.27.1-.29,1.09,0,1.55-.13-1.62-.06-3.13-.08-4.58-.06s-2.84,0-4.23,0c-2.77.09-5.53.32-8.67.45,0-.11.22-.12.23-.25a18.2,18.2,0,0,1-4,.06c-.33,0,.07.17,0,.4a22.36,22.36,0,0,1-3-.24,9.7,9.7,0,0,0-3,0c-.16,0,3.28,0,1.1.09-.76.66-3.09.2-4.45.43A21.36,21.36,0,0,1,7.21,5.86a8.46,8.46,0,0,0,3.34.19,9.69,9.69,0,0,1,3,0c3,.76,6.6-.45,10.59-.13-.19-.45-.89,0-1.54-.29a70.18,70.18,0,0,1,9.94-.13c-1-.12-2.06-.21-3.2-.26S27.06,5.06,25.86,5C23.47,4.94,21,5,18.91,5c.86.42,1.67.25,3.29.36-1.23.57-3.22,0-4.18,0,0-.15.4-.09.66-.1-.44-.32-1.82-.14-2.62-.26l3.51-.07,3.56-.12,7.12-.17C35,4.41,39.73,4.3,44.31,4c.39.07,1.3-.18,1.34.1l-1.56,0c-1.9.07-3.66.23-5.42.38s-3.51.24-5.43.26c.54.38,2.1.15,2.65.52.34-.07,0-.14-.22-.13,6.76-.05,13.92-.33,20.93-.75,4.56-.28,7.71-.19,13.25-.58-2.1-.3-4.33.22-5.86-.13,4.9-.5,9.9-.34,14.88-.72a3.19,3.19,0,0,0-1.6-.18,25.48,25.48,0,0,1,7.49-.24c-1.4-.51,3.89-.48,1.12-.32,2.68-.26,5.46-.4,8.88-.68C94.47,2.05,92.15,1.75,91.13,2.15Zm-51.51,17c-.32-.63-2.95.05-3.65-.37C36.67,19.51,38,18.8,39.62,19.11ZM16.76,14.2c-1,.27-1.91-.45-3.17,0,.33.13.71.24.65.56C15.11,14.37,16.78,14.66,16.76,14.2Zm1.14-6a23.15,23.15,0,0,1-3.57.48c.26,0,.63,0,.66.16-.14,0-.27,0-.23.13a1.21,1.21,0,0,1,1.09.31C16,9,17,9.3,16.77,8.8c-.34,0-.83,0-.88-.17.72.15,1.39-.27.88.17,1-.25.4-.18,1.1.06C18,8.6,18.66,8.33,17.9,8.2Zm83.32-5.56c-.69.11-2-.09-2.29.22C99.63,2.75,100.92,3,101.22,2.64ZM45,6c2-.22,3.56.35,4.46-.24C48.18,5.87,45.2,5.68,45,6ZM4.94,6.73c.46.54,1.93-.26.91-.32C6.15,7,4.9,6.38,4.94,6.73Zm15.86,1c-1.6.26,1.21-.14,1.54.43-.17,0-.44,0-.45.12A3.82,3.82,0,0,0,23.45,8,5.51,5.51,0,0,0,20.8,7.78Zm5.76.13c-.38,0-1.09-.4-1.33,0A1.1,1.1,0,0,0,26.56,7.91Zm-15.12.76c1.1.05,2.38.22,2.68-.26C13.37,8.59,11.94,8.32,11.44,8.67ZM11,8.91c.08-.17.33-.24.25-.51-.58-.06-1.87.09-1.14.47.07-.12,1-.3.9-.09C10.86,8.77,10.73,8.87,11,8.91Zm4.24,4.29c.81,0,3.22.3,2.93,0-.53-.11-1.64.08-1.79-.23.48,0,2.39.23,1.8,0C17,12.91,15.54,12.69,15.22,13.2Zm13.94,1.6a5.91,5.91,0,0,0-2.71-.06C27.12,14.91,28,14.69,29.16,14.8Zm-1.14,1c-.1-.43-1.94-.57-2.48-.32A16.85,16.85,0,0,1,28,15.83Zm-16.09-.29a19.57,19.57,0,0,0,3-.12C14.44,15.34,12.31,15.14,11.93,15.54Zm9.28.67c.43-.05,1.36.21,1.14-.24l-1.13,0Zm6.81,0c2,0,.25-.35-1.59,0C25.89,16.28,27.19,16.22,28,16.23Zm114.82-2c.68-.06,1.39-.1,1.61-.45C144,14,143,13.81,142.84,14.21ZM19.38,16.57c.47.35.89.13,1.36.29C21.11,15.88,18.08,16.76,19.38,16.57Zm2.51-.21a2.44,2.44,0,0,1-1.14,0C20.43,16.8,22.26,17,21.89,16.36Zm-2.72-.07c-3.15-.38-1,.51,0,0Zm6.12.27c1.21-.18-2.1-.28-3.18-.07A8.79,8.79,0,0,0,25.29,16.56Zm6.57,3.76c2,0,4.09.08,6.86,0,1.27,0,4.19-.66,5.48-.37,1,.21-.72.25.45,0,.88-.2,2.06.18,2.74-.06-.68-.73-3.79.21-3.66-.58-7.8.91-15.9-.38-26.27-.05,3,.29,6.3,0,9.14.51-3.14-.14-3.16.14-.46.12.84-.18,1.57.17,2.29-.22,1,.64,5.92,0,8.46.4C35.35,20.3,33.52,19.74,31.86,20.32Zm-18.54-.89c1,0,2.58.3,3.21,0A8.09,8.09,0,0,0,13.32,19.43Zm19.45,2.86c1-.1,2.72.24,3-.26-.65.1-.6-.19-1.15-.14C34.88,22.44,32.79,21.63,32.77,22.29ZM53,3.91c-3.84.08-1.07,0,1.11-.3.47.28,1.86,0,2.68,0C57.84,3.86,54,4.09,53,3.91Zm-39.13.8c.29.36,1.76.39,3.06.41-.77.44-4.16-.12-5.29.27C11.93,4.8,13.09,5.08,13.87,4.71ZM11.66,5c-.59.4-1.6.06-3.29,0C7.3,5,10.53,4.88,11.66,5Zm8.73,1.6,1.77,0c-.46.47-1.62-.1-1.78.36C20.05,6.92,20.47,6.82,20.39,6.59ZM3.3,7.78c-.48.08-.69.35-1.36.29,0-.55.88-.49,1.39-.68.47.23-.3.3.19.41A.11.11,0,0,1,3.3,7.78ZM20.52,9.62a2.77,2.77,0,0,0-1.34,0c.83-.48,1.43-.68,3.13-.18C21.89,9.69,20.77,8.87,20.52,9.62Zm136-.71c-.23.22-.86.15-1,.46C155.08,9,154.84,8.53,156.47,8.91ZM1.69,10.69c.28-.36.22.22-.24.11.27.13.81.76,1.08.48.12.32-1.42.67-2.53.59a4.83,4.83,0,0,1,1.85-.51c0-.11-.21-.15-.2-.28-.2,0-.41.08-.47.22C.68,11.16,1.36,10.7,1.69,10.69ZM4,12.59c0,.39-.84.4-1.14.17.07.26.62.29.39.69.22-.37,1.21.21,2,.3-.09.36-1.82-.58-1.82.11-.38-.15-.84-.36-.4-.56-.71-.17-.72.15-1.15.17-1.12.39.63-.24.49-.35-.49-.4-3.3-.13,0-.14-.06-.18-.55-.15-.89-.2a17.15,17.15,0,0,1,2.08-.49A.58.58,0,0,0,4,12.59Zm3.79.58c.26,0,.12.14,0,.13,0,.15.4.14.66.18l0,.66c-.38,0-.59,0-.69.21-.25,0-.12-.14,0-.13-.22-.15-1-.3-.91,0-.42-.47-.36,0-1.13-.09.38-.18-.06-.61-.62-.71.18-.37,1.47-.16.89.2l.9.08a.6.6,0,0,0-.43-.3c.55-.38,1,.36,1.79.28-.18-.21-.71-.25-1.11-.36C7.16,13.19,7.77,13.38,7.78,13.17Zm.14,1.33c1.11-.22,2.54.37,3.37.35-.67.2-2.08-.09-1.64.84-.21-.08-.32-.39-.44-.16-.4-.07.37-.46.49-.63C9.31,14.45,8.67,14.84,7.92,14.5ZM6.61,16.76C6.33,17,5.11,16.65,5,17,4.6,16.76,6,16.4,6.61,16.76Zm1.55,4.09c.91-.58,4.88-.48,7-.81-1.16.62-3.57.44-5.34.66.56.46,1.9-.22,2.52.26.2.88-4.67.16-1.4.32a2.12,2.12,0,0,1,.93-.08C11.13,20.82,8.65,20.9,8.16,20.85Zm7.42-.65c.09-.2.4.13.46-.11l3.22.16c-.56.27-2.07-.06-3,0C16,20.37,15.9,20.26,15.58,20.2Zm-.27.77a28.08,28.08,0,0,1,3.68.32,13,13,0,0,1-4.84-.24c.26-.24.92.38,1.84.22A2,2,0,0,0,15.31,21Zm-5.19,1.85c-.89-.4,1.49-.27,1.63-.05C11.62,23,10.46,22.6,10.12,22.82ZM43,28.25a12.24,12.24,0,0,1,3.7-.21C46.18,28.59,43.9,28.29,43,28.25Zm77.15-2.43c-.07-.18-.55-.1-.88-.12.64-.33,2.26.11,4,0-1,.65-1.83-.08-3.09.28C119.88,25.93,120,25.82,120.13,25.82ZM54.31,2.94c-.05-.21,1.37-.26,1.34,0a4,4,0,0,1-2.89.37,13.85,13.85,0,0,1,2-.2C54.75,2.93,54.48,3,54.31,2.94Z"/></g></g></svg>