<svg xmlns="http://www.w3.org/2000/svg" viewBox="0 0 181.09 27.7"><defs><style>.cls-1{fill:#ffda48;}</style></defs><title>marker-4</title><g id="Ebene_2" data-name="Ebene 2"><g id="Ebene_1-2" data-name="Ebene 1"><path class="cls-1" d="M90.33.16c3.26.13.41-.41-.79,0C89.92.21,90,.31,90.33.16Zm57.22,1.27c.46-.28,2,0,2.88,0A5.82,5.82,0,0,1,147.55,1.43ZM54.53,1a21.24,21.24,0,0,1-4.44.22A17.88,17.88,0,0,1,54.53,1Zm99,1.08c.53-.36,1.62.1,2.35.08C155.34,2.5,154.53,1.91,153.55,2.05ZM77,1.24c-1.21.44-3.71.42-6.26.44C72.13,1.19,74.66,1.26,77,1.24Zm-21.41.5a7.5,7.5,0,0,1,3.13-.05C57.31,1.6,56.49,1.94,55.59,1.74ZM152.2,3.18c-.9-.25-1.74,0-3.13-.11C149.42,2.85,152,2.63,152.2,3.18Zm2.87,0c.35-.15,3-.23,2.87.24A15.5,15.5,0,0,1,155.07,3.15ZM59.25,2.21c.52.26-2.21,0-2.61.3-1.14-.29-3.39,0-5,0,1-.32,3.22-.11,4.7-.22.45,0,.67-.23.78,0Zm-37,3.17c.27.47-1,.22-1.55.33C20.73,5.37,21.57,5.41,22.26,5.38ZM172.4,7.18a15.26,15.26,0,0,1-2.36.15C170.38,6.83,171.53,7.09,172.4,7.18Zm6.89,3c.49-.42,1.77,0,1.8.49A4.44,4.44,0,0,1,179.29,10.15ZM8.75,12.77c-.25.27-2.35.25-3.63.29A7.27,7.27,0,0,1,8.75,12.77ZM5.18,14.38c-.1.29-1.28.11-1.81.21A2.48,2.48,0,0,1,5.18,14.38Zm4.16-.06c-.21.29-1.34.17-1.54.46C7.06,14.48,8.69,14.08,9.34,14.32Zm-4.88,1.4c-.12-.31.46-.3.23-.66.37,0,.74,0,.77-.17.36,0,.23.32.29.51C4.94,15.34,5.26,15.79,4.46,15.72Zm19.06,3c.19-.18,2.52-.41,2.33.06C24.92,18.61,24.54,18.91,23.52,18.76Zm1.84.86c.06-.17.51-.15.52,0v.26L23.3,20a5.25,5.25,0,0,1,2.32-.21C25.67,19.63,25.52,19.62,25.36,19.62Zm-11,2.78a5.23,5.23,0,0,1-2.31.36A9.66,9.66,0,0,1,14.34,22.4Zm4.45,1.54c-.35-.25,2.43-.16,3.35-.26C24.36,23.72,19.85,24.05,18.79,23.94Zm9.55-.47c-3.21.51-3.77,0,0,0Zm5.44.75c-.26.3-1.62.1-2.32.2C31,24.31,33.58,24.05,33.78,24.22Zm7,.34a6.32,6.32,0,0,0-2.07-.08C37.87,24.38,41.14,24,40.76,24.56Zm30.7.52c-.44.3-2,.06-2.84.15A6.61,6.61,0,0,1,71.46,25.08Zm.26.13c.35-.3,1.79-.06,2.58-.15C73.94,25.36,72.5,25.12,71.72,25.21ZM48,26.09c-3.22-.26-6.25.15-9.54.1.26,0,.68-.59.77-.28C41.82,26.19,45.09,25.46,48,26.09Zm10-.06a8,8,0,0,0-2.32-.09C56.21,25.63,57.91,25.5,58.07,26Zm-39.68.82a11.11,11.11,0,0,1-3.08.38A14.75,14.75,0,0,1,18.39,26.85Zm41.73-1.11c.64-.18,1.26.27,1.29,0C62.6,26,59.69,26.27,60.12,25.74Zm32.74-.06c-1.13.46-6.88.22-2.32,0C91.07,25.64,92,25.69,92.86,25.68Zm40.44,1a37.78,37.78,0,0,1-7.73-.19C127.75,26.62,130.56,26.28,133.3,26.67Zm-110.77.68a6.81,6.81,0,0,1-2.3.35A6.81,6.81,0,0,1,22.53,27.35ZM158.27,1.56a6.91,6.91,0,0,1,2.86.51C160.57,2.24,159.33,1.6,158.27,1.56Zm-70-1.4c.22.16-1.91.27-2.88.26A14.68,14.68,0,0,1,88.24.16ZM66,.8C69.15.59,76.08.41,81.44.69c0,.16-.47.11-.78.13h-.79c-2.53.17-4.33-.14-6,.3-.92-.82-3.6.81-5.75.57,0-.56,2.09-.11,2.61-.42-.9-.49-2.58-.22-3.92-.23C67.37.76,66.74.77,66,.8Zm-27.95.67c.28-.53,1.82-.18,2.61-.2C39.76,1.56,39.14,1.17,38.07,1.47Zm17.51-.39A7.69,7.69,0,0,1,57.66.91,2.18,2.18,0,0,1,55.58,1.08Zm75.76.55c.22,0,.24.05.26.14.05.51-1.75.21-2.36.2-5.87-.06-13.22-.8-19.06-.61C118.13,1,124,1.54,131.34,1.63Zm-25.6-.06a8.07,8.07,0,0,0,3.39,0V2c4-.43,8.93-.14,14.62.1,0-.13-.32-.11-.52-.14,3.66,0,10.75.92,15.67.51-.32.17-.11.21,0,.4,2.62-.19,5.05-.11,8.89-.12-.71.17,0,.73-1.59.6,0-.24.87-.06.8-.37-3.67-.14-4.3.31-7.06-.08.08.18.66.13,1.05.16-2.08.24-5.93-.16-9.14-.12,5.94.43,12.21.42,17.47.78a10.85,10.85,0,0,0,3.4,0c.61.17-.88.3-1.58.2,1.93.54,2.57-.17,4.71-.09,0,.29-.93,0-1.31.08,2.89.68,9.6,1.11,13.26,1.47-.07.14-.52.07-.53.24.15.4.56-.1,1,0,.53.66,2.34.75,4.14.85,1.14.06,0,.23-.53.11-.6.2-2.18-.16-2.36.28a6.72,6.72,0,0,0-2.34-.1c.34.32,1.81.13,2.59.24.22.44-.85.15-1.06.35a21.58,21.58,0,0,0,6,0c0-.13-.32-.12-.52-.16,1-.08,5.36.26,5.69.94-3.65.39-9-.08-14.34,0,3.7.17,8.55,1.76,11.42,1.06a4.28,4.28,0,0,1,1.53.6,3.91,3.91,0,0,1-2.61.27c.09.26,1,.15.75.56a2.09,2.09,0,0,1-1.57.19c1.72.39,4.38.36,5.95.82-.11.43-.9.48-1.59.58a8.6,8.6,0,0,0,1.52.6,57.32,57.32,0,0,1-12,.2c2.07.64,6,.77,8,1-1.25.21-5.45-.15-4.92-.37a1.85,1.85,0,0,0-1.33.46,19.61,19.61,0,0,1,4.66.49c-1.4.42,1.67,0,2.84.27a5.09,5.09,0,0,1-2.33,0c-.33,0-.28.25,0,.26-2.24,0-5.8.25-8.59.38,1.53.43,5,.19,6.22.43a43.1,43.1,0,0,1-5.46,0,9.38,9.38,0,0,0,4.14.46c-.05.15-.48.09-.79.09,0,.16.47.14.77.17-1,.25-3.19-.11-4.67-.08-.26.07-.28.29-.78.23.15.4.56-.1,1,0-.08.27-.7.23-1.05.35,1.15.56,2-.11,3.88.17.57-.06,1.64.22.51.16-2.5-.54-2.82.52-1.56.19-.25.06-.88.09-2.08.17a7.16,7.16,0,0,0,2.83.39c-2,.55,1.41.22,2.83.4.78.25-1.12.06-1.55.06a8.14,8.14,0,0,1-1.82,0c.37.43,2,.32,3.09.42-2.44.66-4.94-.21-8-.11.77.26,4.95.36,1.54.33-.61,0-.77.2-1.56.07,2.08.4,5.8.23,7.23.59a3.59,3.59,0,0,1-1.56.18c.21.49.76.12,1.54.21-.14.41.44.49.22.93-1.17.41-3.78,0-5.7,0,.71.14,1.26.37,2.05.48-1,.25-2.55.17-3.64.37a7.59,7.59,0,0,0,2.58.11c1.93,0,0,0-1.82.32-.52.06-.61.37-1.06.48-1.81.09-4.26-.17-5.94,0,1.95,1.17,7.48.42,11.33,1-3.63.53-6.06,1.22-10.89.85-.42.58,1.68,0,1.27.58-6.23-.8-15.09-.79-19.85-.84,0,.16.47.13.77.16-1,.05-3.36-.4-5.41-.3.7.27,4.72.23,3.86.38-1.88.17-4.74-.2-6.2.22,5.66.47,11.5.39,18.3.71l1.8.06c.94-.06.92.26,0,.13l-1.8-.06c-4.11.19-11.51-.45-17.78-.3l23.43,1c-.2.29-1.45,0-2.07.06a15.58,15.58,0,0,1-4.37-.16c-.16.35-.39.35-1.82.33,1-.32-.12-.13-.5-.42.16.32-.74.14-1.3.35-.61,0,.1-.36.52-.24l-17.76-.91-2.32-.06c-.18-.28,2.78,0,3.86,0-5-.74-8.22.21-11.85-.39.08.18.65.12,1,.15a66.49,66.49,0,0,1-9.53-.29c-1,0-1.41.66-2.07.11,2.45-.58,9.24.14,12.9-.19-4.25-.14-9-.22-13.15-.21-.39.11.07.2-.26.53-2,.13-2.37-.49-4.38-.32.08.18.64.12,1,.14-.83.46-2.49-.62-3.1.1-1.18.06-3.65-.11-5.67,0-1.63.06-5,.36-1,.12-.61-.3-2.31-.06-3.35-.15-.39-.07,0-.13.26-.13,4.44,0,6.37,0,9.54-.08A77.59,77.59,0,0,0,90,25.41c-1.29.3-3.69,0-5.41.13,0-.28,3.31-.06,4.64-.13-3.51-.32-9.47-.3-13.66-.23,0-.13.31-.1.51-.14-8.17-.63-17.35-.17-28.62-.12,1.16.55-1.47.13-1.81-.1,1.11-.32,3.34-.11,4.89-.23-.69-.5-4.91.36-4.91-.42l2.07-.05c-1.68-.26-5.19.09-6.2-.11.86-.33,2.83-.12,4.12-.24-4.47-.48-7.55-.22-12.92-.31.19-.3,1.45-.1,2.06-.19-1.33-.73-5.14.27-6-.47a2.3,2.3,0,0,0,1.54-.18c.26,0,.21.15.27.25,1.25,0,7.73-.74,9.81-.41-.11,0-1,.12-2.32.32a14.62,14.62,0,0,0-3.87.11c3.4.16,9.15-.24,12.13-.45-1.4-.42-4.72.18-4.67-.67-1.92,0-3.15,0-4.65,0,.69-.32,2.49-.11,3.61-.23a73.79,73.79,0,0,0-11.37.2c-1.61-.18,1.29-.13,1.29-.17,0-.32-2.84.09-2.84.09-2.22,0-9.68-.2-11.62.42a3.94,3.94,0,0,1,1.79-.33c-.28-.29-1.62,0-2.32,0,.53-.52,1.71,0,3.09-.26-.17-.42-1-.15-1.56-.07-.34-.29,2.19-.36,3.35-.39.42.14-1.45.32-1.8.2,8.64.21,17.1-.29,23.27-.21-2-.46-5.32-.21-8.28,0,1.61-.48-2.27-.19-3.11-.29,1.75-.42,4.18.09,5.67-.7-.11.27.69.29,1.82.21a19.74,19.74,0,0,0-6-.22c1.46-.55,3.14-.09,5.42-.55-.8.07-2.8-.31-3.88.1-.29-.74,1.92-.3,2.83-.47a5.39,5.39,0,0,0-3.61.24c-1-.15.76-.05.51-.28-1.7-.1-4.41.43-7,.35a90.93,90.93,0,0,1,9.29-1.08,22,22,0,0,0-5.44.17c.12.19.33-.06.78,0-1.49.24-2.15-.19-4.13.53.57-.13.68-.46,1.54-.45A106.79,106.79,0,0,0,13.17,19c.19-.34,1.05-.38,1.53-.59,0-.25-.86.19-1.55.06a23,23,0,0,1,5.15-.73c0-.15-.07-.23-.27-.25,2.87-.28,5.73.12,9-.59,0,.13-.31.12-.51.15a123.75,123.75,0,0,0,15.29-.18c-3-.9-7.92.65-12.19,0,1.74-.1,5.46-.15,8-.24-.45-.63-3.17.41-3.12-.31a5.33,5.33,0,0,1-2.06.33c1-.5-1.43-.4-1.3,0-2.65-.52-4.76.16-7.52-.15-.4.06.23.22-.25.27a16.39,16.39,0,0,1-2.87-.42C26.63,16.26,32,16.12,39.5,16c-.3-.28-1.71,0-1.82-.35-.33.52-4.2-.35-6,.3.48-.24-.12-.38-.28-.64l-.76.41c.15-.58-3-.06-3.63.12-.81.09-.7-.33-1.31-.35-.3,0-.21.25-.25.4-.85-.16-3.1.21-2.86-.3a17.11,17.11,0,0,1-2.58.5c.2-.43.21-.28-.28-.52-.37,1.14-5.9.18-8.77,1.14.41.39,1.89.19,2.86.28-.08-.18-.65-.09-1-.1a18.41,18.41,0,0,1,4.91-.58c-.61.42-1.19.37-2.84.37-.23.47,1.5-.07.8.5.92-.43,2.12,0,3.09-.52-.09-.17-.65-.08-1-.09.07-.44,1.48-.26,2.32-.35.73.17-.53.61.54.5a23,23,0,0,1-4.65.58c.12.29,1.28,0,1.82.06-1.34.53-4.23.3-4.64.71-.2-.08-2.61.6-2.6-.16,1.15.05,1.55-.24,2.58-.24-.92-.19-.81-.25.51-.28-2.29-.95-3.71.6-5.94.65.3-.2,1.27-.26.24-.41.67-.26.88,0,1.55-.33-1.58-.4-4.56.21-1.32-.47.65,0,.88.46,1.56.07-.54-.13-.23,0-.53-.24,1.12-.5,3.43-.5,4.38-.72-.09-.45-.7,0-.79-.23.11-.39,1.09.09,2.07-.34-.06.23-.44.32-1,.3A48,48,0,0,0,20,15.34c-.06-.17-1.08-.2,0-.26-.23-.38-.83.11-1.29.05.09-.26,1-.15.76-.56-1.67,0-1.71.64-4.14.43.72.48,2.72.05,3.38.26-3.21.31-7.7-.19-10.61.83,1.39.19,3.32-.62,4.4-.33-1.24.26-4.7,1-4.65.34a9.47,9.47,0,0,1-2.34.1c.7.06.49-.29.76-.43a6.37,6.37,0,0,0,3.11-.14c-.76-.19-1.78.38-2.59,0-.43-.45.87-.12.75-.43-.18-.12-1.33-.14-1.58-.59,1.55.62,3.47.46,5,.57,0,.16-.47.13-.77.17,1.39.36,2-.72,3.87-.56-.12-.29-1.28,0-1.82-.06,1-.49,3-.16,4.65-.57-1.12-.35-2.54.28-3.12,0,.21-.29,1.34-.16,1.55-.45.17.31.16.2,1.3.08-.57-.43-.93-.51-2.37-.7l-.76.43c-.33-.51-1.69.11-3.12.13-.21-.4.89-.2.5-.68,1.48-.15,2.92,0,4.67-.19,0-.15-.07-.23-.27-.25.68-.26.41.44,1.82.06-.09-.18-.65-.09-1-.09.21-.21.83-.22,1.28-.31-.81-.33-2.46.06-2.57.49-1.1.06,0-.2,0-.39-1.17.46-1.48.37-3.37.39a21.53,21.53,0,0,1,3.1-.52c-1.79-.36-3.17.09-6,.25a9.3,9.3,0,0,1,3.62-.55c-.08-.27-1.14,0-1.31-.21.35-.28.9.09,1.55-.19l0,.39,13-1.67c-1.44-.07-4.63.24-5.21,0a23.19,23.19,0,0,1-6.2,1c.22-.19,2.23-.46.5-.41.71-.34,2.07.1,3.38-.13-2.82-.43-5,.42-7,.41,1.35.22,2.42-.13,3.13.13a10.42,10.42,0,0,1-3.65,0,4.59,4.59,0,0,1-2,.75c-.61,0,.08-.36.5-.28A8.93,8.93,0,0,0,5.07,12c.76-.33-1.72-.54-1.3.06C4,10.84,8.65,11.2,11,10.43c0-.29-.93,0-1.3-.08-.58-.22,1.89-.17,2.59-.24-.07.18-.65.14-1,.17A38.12,38.12,0,0,0,17,9.8c-.78-.48,3.09-.41,4.13-1.08.15-.09,2,.14,2.34,0s-.1-.16,0-.39a15.37,15.37,0,0,0,3.39,0c-.3-.15-.24-.26.25-.27-.13-.33-1.13-.18-1.32-.48a37.28,37.28,0,0,1,6,.2c.64-.54,3.58-.24,6-.44-.94,0-2.55-.56-2.87-.05,0-1-3.57,0-3.4-.69-4.38.5-8.4.46-10.92.9,0,.28.23.41.79.36-1.69.64-4.73.3-6.49.65.41-.4.82-.09,1.29-.32-.78-.3-2.61,0-2.58.5a6,6,0,0,1-2.62-.16C10,9.51,7.68,9,6.54,9.84c-.07-.66-.43,0-1.56.2,0,.13.33.09.53.11-.15.49-1.19-.05-1.54.46-.3-.1,0-.32-.8-.36-.38.08.11.17,0,.4-.68.07-.23-.5-1.06-.35-.24-.26,1.31-.32.5-.42.45,0,2.11-.64,2.86-.13.68-.46-2.13-.41-2.87-.13.66-.51-2-.08-2.62-.28.14-.13.71-.23.25-.27,1.5-.25,2.88-.25,4.93-.49C3.77,8.09,7.43,8.41,8,7.8c-.46.65-2.69.5-3.07,1.19.53.63,1.4-.08,1.84.44.82,0,.57-.43,1.55-.33-.17-.12-.63-.46.24-.41-.23-.3-1.34.07-1.55.2-1-.64,3.19-.7,2.82-1,3-.1,4.45-1.12,8.3-1.12,0-.41.72-.54,2.06-.61a2.21,2.21,0,0,1-.77.29c.05.38,1.1.2,1.83.2,0-.29-1.1,0-1.56-.08a4.74,4.74,0,0,1,1.8-.59c0,.15.07.23.27.25C27.09,5.29,30.14,6,35.56,5c-.44-.55-1.82.12-3.13,0a15.74,15.74,0,0,1,5.47-.15,2,2,0,0,1-1.3.29c0,.29,1.11,0,1.57.1.27-.17.24-.38.51-.54.87-.12.43.26.27.38a46.91,46.91,0,0,1,10.42-.77c-2.87-.46-5.64-.13-8.1-.34,1.22.39-2.92.59-3.9.37.1-.3,1.28-.09,1.82-.18A146,146,0,0,0,18.61,5.52c.05-.1.26-.14.26-.27a25.69,25.69,0,0,1-4.69.45c-.38.07.11.16,0,.39-2.14.21-4.87-.18-7,.43C7,6.53,11,6.11,8.48,6.46c-.82.75-3.62.61-5.18,1,.85-.64,2.78-1.12,4.36-1.77,2.52.37,5.54-.84,7.55-.58C18.87,5.59,23,4,27.7,4.15c-.24-.44-1,.07-1.83-.2A75,75,0,0,1,37.6,3.33a125.85,125.85,0,0,0-16.18.24c1,.33,2,.13,3.92.13-1.41.64-3.8.18-4.95.31,0-.16.47-.13.77-.16-.54-.28-2.17,0-3.13,0C29.11,2.7,40.65,2.19,51.41,1.69c.46.07,1.53-.19,1.56.1l-1.82,0c-4.48.15-8.25.66-12.79.82.65.37,2.49.09,3.15.44.4-.08,0-.13-.26-.12l24.53-.72c5.32-.16,9,0,15.4-.11-2.4-.41-5,0-6.79-.36,5.73-.35,11.48.1,17.24,0a4,4,0,0,0-1.83-.27,33.11,33.11,0,0,1,8.62.17c-1.58-.59,4.5-.26,1.31-.25,3.1-.11,6.26-.09,10.19-.16C109.56,1.66,106.93,1.23,105.74,1.57ZM46,16.79c-.37-.65-3.35.13-4.15-.29C42.66,17.27,44.15,16.5,46,16.79ZM19.68,13c-1.08.36-2.23-.26-3.63.28.38.1.83.16.8.49C17.8,13.3,19.75,13.44,19.68,13Zm.81-6.08a32.47,32.47,0,0,1-4.14.82c.31,0,.74,0,.79.1-.16,0-.31,0-.26.14a1.61,1.61,0,0,1,1.31.21c.16-.27,1.32-.09,1-.56-.39,0-.95.08-1-.09.86.08,1.61-.41,1,.09,1.17-.35.47-.22,1.31-.05C20.68,7.29,21.39,7,20.49,6.9Zm96.72-4.25c-.79.07-2.24-.21-2.61.08C115.39,2.67,116.85,2.94,117.21,2.65Zm-65,1c2.37-.22,4.16.32,5.21-.23C55.93,3.51,52.44,3.36,52.23,3.65ZM5.1,6.88c.62.47,2.24-.52,1-.44C6.56,6.93,5,6.53,5.1,6.88Zm18.76-.63C22,6.6,25.28,6,25.7,6.59c-.2,0-.52,0-.52.14A5.24,5.24,0,0,0,27,6.28,7.51,7.51,0,0,0,23.86,6.25ZM30.63,6c-.45,0-1.31-.33-1.56,0A1.46,1.46,0,0,0,30.63,6ZM13,8c1.29-.06,2.81,0,3.11-.52C15.22,7.72,13.52,7.59,13,8Zm-.51.28c.08-.18.36-.26.24-.53-.69,0-2.18.28-1.28.57.07-.12,1.14-.39,1-.17C12.31,8.14,12.17,8.25,12.46,8.26Zm5.36,3.88c.93-.1,3.73,0,3.37-.27-.62,0-1.87.24-2.08,0,.56-.06,2.78,0,2.07-.21C19.84,11.68,18.14,11.59,17.82,12.14ZM34,12.76a7.58,7.58,0,0,0-3.11.1C31.62,13,32.61,12.72,34,12.76Zm-1.27,1.1c-.14-.42-2.24-.46-2.86-.17A20.66,20.66,0,0,1,32.69,13.86Zm-18.4.91a25.52,25.52,0,0,0,3.36-.39C17.13,14.33,14.68,14.34,14.29,14.77Zm10.64-.13c.49-.08,1.57.12,1.29-.31l-1.3,0Zm7.78-.39c2.3-.11.27-.35-1.82.06C30.28,14.43,31.76,14.3,32.71,14.25ZM164.2,15.77c.78-.06,1.59-.1,1.84-.45C165.49,15.5,164.37,15.37,164.2,15.77ZM22.87,15.1c.56.32,1,.08,1.57.21C24.79,14.3,21.4,15.38,22.87,15.1Zm2.84-.36a3,3,0,0,1-1.29,0C24.08,15.27,26.18,15.36,25.71,14.74Zm-3.11.11c-3.61-.1-1.05.59,0,0Zm7-.1c1.37-.25-2.41-.16-3.63.11A11.5,11.5,0,0,0,29.61,14.75Zm7.62,3.45c2.28,0,4.63,0,7.76-.2,1.43-.08,4.75-.67,6.21-.39,1.1.21-.81.25.52,0,1-.2,2.33.18,3.1-.06-.76-.73-4.3.21-4.15-.58-8.85.9-18.07-.13-29.77,1,3.38,0,7.12-.39,10.36-.09-3.56,0-3.56.32-.51.15.93-.23,1.77.08,2.58-.35,1.11.57,6.7-.2,9.58.14C41.18,18.08,39.09,17.58,37.23,18.2Zm-21,.31c1.13-.13,2.94.06,3.62-.27A10.88,10.88,0,0,0,16.25,18.51Zm22.07,1.64c1.09-.13,3.06.16,3.35-.35-.73.12-.67-.17-1.29-.1C40.69,20.24,38.32,19.49,38.32,20.15ZM61.59,1.65c-4.49,0-1.25,0,1.31-.28.53.3,2.17,0,3.13.09C67.24,1.7,62.75,1.85,61.59,1.65ZM15.42,3.81c.37.33,2.12.21,3.66.12-.87.51-4.94.27-6.24.77C13.12,4.08,14.53,4.25,15.42,3.81Zm-2.6.49c-.66.44-1.88.2-3.9.43C7.64,4.83,11.47,4.25,12.82,4.3Zm10.48.78L25.38,5c-.51.5-1.91,0-2.07.46C22.92,5.43,23.41,5.31,23.3,5.08Zm-20,3.06a4.85,4.85,0,0,1-1.54.46c-.08-.54,1-.59,1.52-.85.59.16-.31.33.28.38C3.55,8.28,3.34,8.21,3.33,8.14Zm20.33,0a3.43,3.43,0,0,0-1.56.05c.93-.55,1.63-.77,3.64-.38C25.27,8.09,23.91,7.34,23.66,8.1Zm155.89,2.2c-.25.22-1,.17-1.07.47C178,10.37,177.69,10,179.55,10.3ZM1.91,11.23c.28-.39.29.19-.25.14.33.1,1.05.65,1.32.34.18.3-1.54.85-2.82.92a5.89,5.89,0,0,1,2-.75c-.05-.11-.26-.12-.27-.25-.23.06-.46.13-.51.28C.82,11.83,1.53,11.29,1.91,11.23Zm2.94,1.58c.07.39-.9.5-1.29.32.13.25.75.21.55.63.2-.4,1.41.05,2.34,0,0,.37-2.17-.33-2.06.36-.46-.1-1-.25-.54-.51-.84-.07-.8.25-1.29.33-1.21.53.68-.33.5-.42-.62-.33-3.78.31,0-.13C3,13.24,2.4,13.34,2,13.33a23.19,23.19,0,0,1,2.31-.76A.72.72,0,0,0,4.85,12.81Zm4.42.06c.3,0,.15.13,0,.14.05.15.48.09.78.09l0,.66c-.44,0-.67.13-.77.3-.29,0-.14-.13,0-.13-.27-.12-1.16-.17-1,.17-.54-.41-.42,0-1.3.06.4-.22-.15-.59-.81-.62.15-.39,1.66-.35,1.05.08l1,0a.7.7,0,0,0-.53-.24c.58-.45,1.17.23,2.08,0-.22-.19-.84-.16-1.3-.21C8.56,13,9.28,13.09,9.27,12.87Zm.32,1.31c1.25-.39,2.95.05,3.89,0-.75.26-2.38.11-1.77,1-.25-.07-.41-.35-.53-.11-.45,0,.37-.51.49-.68C11.17,13.94,10.49,14.42,9.59,14.18ZM8.4,16.6c-.29.3-1.71.09-1.8.48C6.12,16.87,7.65,16.32,8.4,16.6Zm2.24,3.85c.93-.75,5.4-1,7.71-1.49-1.24.72-4,.76-5.92,1.15.68.4,2.11-.39,2.85,0,.31.86-5.19.6-1.53.45a2.63,2.63,0,0,1,1-.17A16.7,16.7,0,0,0,10.64,20.45Zm8.23-1.38c.08-.21.46.1.51-.15L23,18.78c-.6.32-2.32.14-3.36.26C19.31,19.21,19.24,19.1,18.87,19.07Zm-.23.8a33.33,33.33,0,0,1,4.14,0,16.31,16.31,0,0,1-5.43.21c.26-.27,1.06.29,2.07.05A2.41,2.41,0,0,0,18.64,19.87ZM13,22.19c-1-.32,1.62-.41,1.8-.2C14.72,22.27,13.4,21.94,13,22.19Zm36.78,3.73a15.11,15.11,0,0,1,4.12-.21C53.38,26.26,50.85,26,49.82,25.92Zm87.86.87c-.07-.18-.64-.13-1-.17.76-.3,2.64.21,4.64.15-1.19.6-2.13-.16-3.61.15C137.39,26.89,137.54,26.78,137.68,26.79ZM63.15.71c0-.22,1.61-.24,1.57,0a5.4,5.4,0,0,1-3.4.31A18.66,18.66,0,0,1,63.67.83C63.66.71,63.35.74,63.15.71Z"/></g></g></svg>