<svg xmlns="http://www.w3.org/2000/svg" viewBox="0 0 141.71 29.97"><defs><style>.cls-1{fill:#ffda48;}</style></defs><title>marker-2</title><g id="Ebene_2" data-name="Ebene 2"><g id="Ebene_1-2" data-name="Ebene 1"><path class="cls-1" d="M69.65.17C72.3.2,70-.24,69,.2,69.33.24,69.38.34,69.65.17Zm46.19,1.68c.39-.26,1.61.12,2.33.11A3.8,3.8,0,0,1,115.84,1.85Zm-74.7.84a13.45,13.45,0,0,1-3.4.44A10.08,10.08,0,0,1,41.14,2.69Zm79.49.05c.46-.33,1.3.2,1.89.22C122,3.3,121.43,2.65,120.63,2.74ZM59,1.75c-.94.5-3,.57-5,.74C55,1.92,57.07,1.88,59,1.75ZM42,3.4a4.57,4.57,0,0,1,2.43-.22C43.35,3.17,42.74,3.56,42,3.4Zm77.44.41c-.7-.29-1.4,0-2.51-.26C117.25,3.35,119.35,3.25,119.46,3.81Zm2.31.12c.29-.13,2.39-.07,2.28.4A10.14,10.14,0,0,1,121.77,3.93ZM44.91,3.66c.42.23-1.72.18-2,.45-.91-.22-2.63.2-3.84.22.78-.38,2.47-.27,3.62-.46.34,0,.5-.27.6-.06ZM17,7.75c.19.47-.75.18-1.15.26C15.89,7.67,16.51,7.75,17,7.75ZM135.24,9a9.18,9.18,0,0,1-1.9,0C133.67,8.55,134.55,8.89,135.24,9Zm5.11,3.49c.44-.38,1.4.13,1.36.62C141.08,12.91,140.82,13,140.35,12.53ZM6.47,14.26c-.22.25-1.82,0-2.8-.11A4.33,4.33,0,0,1,6.47,14.26Zm-2.93,1.2c-.11.29-1-.06-1.42,0A1.61,1.61,0,0,1,3.54,15.46Zm3.22.41c-.2.27-1,0-1.24.29C5,15.77,6.28,15.56,6.76,15.87Zm-4,.83c0-.32.4-.23.27-.63.29.05.57.08.62-.07.27.06.14.34.15.54C3.23,16.38,3.42,16.88,2.8,16.7Zm15,4.45c.16-.17,2-.37,1.89.1C18.89,21,18.58,21.32,17.75,21.15Zm1.48.9c.05-.17.42-.15.42,0v.26l-2.1,0a3.41,3.41,0,0,1,1.89-.17C19.48,22.06,19.36,22.05,19.23,22.05Zm-9.16,2.29a3.6,3.6,0,0,1-2,.16A7.15,7.15,0,0,1,10.07,24.34Zm3.64,1.81c-.29-.27,2-.07,2.81-.12C18.38,26.16,14.58,26.3,13.71,26.15Zm8-.22c-2.66.47-3.13-.07,0,0Zm4.5.73c-.21.3-1.32.13-1.9.22C23.9,26.78,26,26.5,26.17,26.66Zm5.73.17a4.24,4.24,0,0,0-1.69,0C29.53,26.74,32.18,26.3,31.9,26.83Zm24.26-1c-.32.33-1.5.17-2.16.3A3.92,3.92,0,0,1,56.16,25.8Zm.2.11c.25-.32,1.37-.15,2-.27C58.07,26,57,25.78,56.36,25.91Zm-18.5,2.15c-2.59-.09-5,.42-7.75.47.21,0,.53-.61.62-.31C32.86,28.42,35.47,27.59,37.86,28.06Zm8-.58a5.21,5.21,0,0,0-1.84,0C44.36,27.18,45.69,27,45.86,27.48ZM13.22,29a8.26,8.26,0,0,1-2.67.19A10.71,10.71,0,0,1,13.22,29Zm34.23-2c.48-.22,1,.2,1-.09C49.4,27.15,47.15,27.62,47.45,27.07Zm25-1.47c-.83.51-5.22.41-1.76.06C71.12,25.62,71.82,25.64,72.47,25.6Zm30.77,1a22.77,22.77,0,0,1-5.87-.33C99,26.4,101.17,26.13,103.24,26.57ZM16.75,29.71a5,5,0,0,1-2,.26A5,5,0,0,1,16.75,29.71ZM124.48,2.53a4.56,4.56,0,0,1,2.26.66C126.27,3.32,125.33,2.63,124.48,2.53ZM68,.23c.18.16-1.53.31-2.31.36A9,9,0,0,1,68,.23ZM50.13,1.88A82.94,82.94,0,0,1,62.51,1c0,.16-.38.13-.63.17l-.63,0c-2,.28-3.5.06-4.82.57-.8-.77-2.83,1-4.56.88,0-.56,1.66-.22,2.05-.56-.75-.45-2.09-.08-3.14,0C51.2,1.76,50.7,1.81,50.13,1.88Zm-21.47,2c.18-.54,1.35-.23,1.94-.27C29.93,3.9,29.44,3.52,28.66,3.85ZM42,2.75a4.81,4.81,0,0,1,1.61-.29A1.4,1.4,0,0,1,42,2.75Zm60.8-1.24c.17,0,.19.06.2.14,0,.52-1.42.18-1.91.16-4.73-.17-10.64-1-15.35-.76C92.11.66,96.81,1.26,102.76,1.51ZM82.12,1.28a5.45,5.45,0,0,0,2.73,0v.39a61.34,61.34,0,0,1,11.78.17c0-.13-.26-.11-.42-.15,3,.05,8.62,1.11,12.59.87-.26.15-.09.2,0,.39,2.12-.12,4.07.08,7.16.21-.59.14,0,.73-1.32.54,0-.24.7,0,.66-.33-2.94-.29-3.47.12-5.66-.36,0,.18.52.14.83.2-1.69.18-4.76-.36-7.34-.38,4.75.57,9.79.76,14,1.38a7,7,0,0,0,2.73.15c.47.2-.73.26-1.28.13,1.5.63,2.07-.06,3.78.15,0,.28-.74,0-1.06,0a33.91,33.91,0,0,0,5,1.21l5.48,1c-.07.13-.43,0-.45.21.08.4.46-.07.83.11.35.7,1.78.92,3.21,1.15.9.13,0,.23-.44.07-.5.15-1.72-.31-1.91.11a4.05,4.05,0,0,0-1.86-.27c.25.33,1.43.26,2.05.43.12.45-.7.08-.89.27a13.57,13.57,0,0,0,4.78.45c0-.13-.24-.14-.39-.19.8,0,4.23.69,4.41,1.39-3,.07-7.12-.78-11.39-1.09,2.93.43,6.59,2.33,8.94,1.88a3.08,3.08,0,0,1,1.14.73,2.61,2.61,0,0,1-2.1.05c0,.26.77.23.52.62-.23.19-.61.24-1.26.06,1.31.52,3.41.71,4.59,1.29-.14.42-.77.4-1.33.45a6.45,6.45,0,0,0,1.13.72,39,39,0,0,1-9.44-.71c1.56.79,4.62,1.17,6.17,1.63-1,.1-4.25-.56-3.82-.74a1.3,1.3,0,0,0-1.09.37,11.07,11.07,0,0,1,3.59.82c-1.14.3,1.3.17,2.19.49a3.11,3.11,0,0,1-1.83-.17c-.26,0-.24.23,0,.26-1.75-.22-4.57-.14-6.75-.23,1.14.54,3.9.54,4.8.85a26.11,26.11,0,0,1-4.26-.37,5.82,5.82,0,0,0,3.17.74c-.05.15-.38.05-.62,0,0,.16.35.16.58.22-.85.18-2.47-.33-3.62-.41-.22.05-.25.26-.64.17.08.41.45-.06.8.12-.09.26-.57.18-.86.27.84.63,1.55,0,3,.45.45,0,1.26.32.38.19-1.88-.7-2.25.32-1.23.08a11.52,11.52,0,0,1-1.64,0,4.51,4.51,0,0,0,2.16.59c-1.63.41,1.07.31,2.15.59.58.29-.88,0-1.21-.05a5.14,5.14,0,0,1-1.42-.08c.24.45,1.5.44,2.35.62-2,.51-3.8-.57-6.21-.64.57.29,3.79.67,1.16.42-.47-.06-.61.15-1.21,0,1.57.51,4.46.63,5.52,1.07a2.25,2.25,0,0,1-1.23.08c.11.5.58.17,1.17.31-.16.39.29.51.06.94-1,.33-2.9-.25-4.38-.39.53.19.92.46,1.52.62-.78.18-2,0-2.84.13a4.55,4.55,0,0,0,2,.27c1.48.13,0,0-1.44.21-.4,0-.5.33-.86.41-1.4,0-3.25-.43-4.56-.33,1.39,1.26,5.69.82,8.57,1.7-2.83.26-4.75.82-8.41.17-.37.56,1.29.09.92.65-4.67-1.14-11.46-1.5-15.08-1.71,0,.16.34.14.57.19a41.18,41.18,0,0,0-4.11-.45c.52.29,3.59.34,2.93.48-1.45.12-3.61-.32-4.75.05,4.3.61,8.75.72,13.91,1.34l1.37.14c.72,0,.68.31,0,.13l-1.37-.14c-3.14,0-8.73-.93-13.53-.92,5.44.5,11.5,1.15,17.77,1.93-.18.28-1.1-.08-1.58-.05a10,10,0,0,1-3.31-.37c-.15.35-.32.34-1.41.25.81-.27-.08-.13-.35-.43.1.32-.57.1-1,.29-.46-.05.1-.35.41-.22-3.87-.48-9.19-1.08-13.47-1.44l-1.76-.1c-.13-.29,2.12.05,3,0-3.77-.85-6.28.09-9-.57.06.18.49.13.78.17A42.2,42.2,0,0,1,86.61,25c-.78,0-1.08.67-1.57.12,1.86-.59,7,.11,9.83-.16-3.24-.2-6.88-.26-10-.24-.29.11.06.2-.2.52-1.48.15-1.8-.48-3.34-.27.06.17.49.1.79.12-.63.47-1.9-.58-2.36.15-.9.07-2.78-.08-4.32.05-1.24.1-3.77.47-.78.15-.47-.29-1.77,0-2.56-.08-.3-.06,0-.13.2-.14,3.38-.08,4.85-.16,7.26-.25a39.4,39.4,0,0,0-9.22.46c-1,.34-2.81.12-4.12.29,0-.3,2.52-.17,3.53-.27a72.71,72.71,0,0,0-10.41.27c0-.13.23-.12.38-.16-6.25-.29-13.28.78-22.34,1.37,1,.49-1.17.2-1.46,0,.87-.38,2.68-.27,3.91-.47-.59-.46-3.91.6-4-.18l1.65-.14c-1.35-.17-4.17.3-5,.13.67-.35,2.28-.22,3.32-.39-3.65-.31-6.11.08-10.52.06.14-.31,1.18-.12,1.68-.23-1.11-.69-4.22.31-4.9-.43a1.6,1.6,0,0,0,1.27-.18c.2,0,.17.15.22.25,1.05.06,6.29-.84,8-.59-.09,0-.78.15-1.86.39a10.4,10.4,0,0,0-3.15.19,65,65,0,0,0,9.78-.82c-1.14-.35-3.78.36-3.78-.49l-3.76.13c.55-.34,2-.19,2.91-.33a64.72,64.72,0,0,0-9.22.38c-1.33-.18,1-.13,1.05-.17,0-.32-2.33.09-2.33.09-1.82,0-7.94-.41-9.6,0a2.9,2.9,0,0,1,1.51-.22c-.22-.3-1.34-.09-1.92-.18.47-.48,1.42.06,2.57-.07-.12-.43-.8-.21-1.28-.16-.26-.31,1.82-.23,2.77-.23.34.16-1.21.26-1.49.13,7.12.62,14,0,18.94-.19-1.6-.39-4.28,0-6.68.17,1.29-.5-1.84-.15-2.53-.27,1.41-.4,3.39,0,4.56-.76-.07.28.57.27,1.47.17a13.65,13.65,0,0,0-4.8-.12c1.16-.57,2.53-.12,4.34-.64-.64.09-2.26-.25-3.12.18-.25-.74,1.53-.34,2.27-.52a3.64,3.64,0,0,0-2.9.29c-.78-.14.61-.05.4-.29-1.36-.07-3.54.46-5.62.36,1.93-.56,4.73-.67,7.45-1.11a15.48,15.48,0,0,0-4.35.21c.09.2.26-.06.62,0-1.19.24-1.72-.18-3.32.51.47-.11.55-.44,1.24-.43-3.8-.08-8.46-.34-12.35,0,.19-.33.88-.29,1.28-.48,0-.25-.7.14-1.25-.05A15.45,15.45,0,0,1,13.58,20c0-.15,0-.24-.2-.27,2.31-.14,4.59.36,7.25-.31,0,.12-.25.11-.41.14a57.28,57.28,0,0,0,12.15-.39c-2.41-.8-6.26.91-9.68.17,1.38-.09,4.34-.16,6.37-.33-.38-.61-2.5.47-2.48-.25a3.25,3.25,0,0,1-1.63.36c.82-.51-1.14-.39-1,0-2.12-.51-3.79.16-6-.22-.32.06.19.23-.2.27a10.36,10.36,0,0,1-2.27-.52c4.81.1,9.06,0,15-.3-.25-.28-1.35.08-1.46-.3-.24.54-3.32-.26-4.7.4.37-.25-.1-.38-.23-.65l-.6.42c.11-.59-2.38-.07-2.87.1-.64.08-.55-.34-1-.37-.24,0-.17.24-.19.4-.68-.18-2.47.15-2.27-.35-.41,0-1.3.49-2.05.38.17-.42.17-.27-.2-.52-.35,1.13-4.68-.11-7,.56.29.43,1.49.35,2.26.52-.06-.18-.52-.14-.83-.18a13,13,0,0,1,3.94-.26c-.5.38-1,.29-2.28.2-.21.45,1.21,0,.61.54.76-.37,1.7.11,2.49-.33-.06-.18-.51-.11-.82-.15.08-.42,1.19-.19,1.86-.24.57.19-.44.58.41.52a12.54,12.54,0,0,1-3.74.34c.08.3,1,.08,1.45.17-1.1.44-3.4.06-3.76.4-.16-.08-2.16.38-2.08-.37.92.15,1.26-.11,2.1,0-.73-.27-.63-.32.42-.24-1.75-1.14-3,.31-4.81.09.26-.17,1-.11.24-.38.56-.19.7.1,1.27-.16-1.21-.57-3.64-.31-1-.61.51.08.65.56,1.23.23-.42-.17-.18,0-.39-.29.94-.38,2.76-.19,3.52-.32,0-.46-.55,0-.6-.3.12-.38.85.18,1.65-.2-.06.24-.36.3-.83.24a24.52,24.52,0,0,0,4.92,0c0-.18-.85-.25,0-.27-.17-.38-.66.08-1,0,.09-.25.79-.1.62-.52-1.3,0-1.37.55-3.27.19.54.53,2.14.23,2.65.46-2.56.15-6-.65-8.42,0,1.07.37,2.67-.3,3.5.09-1,.17-3.82.57-3.7-.11a6.8,6.8,0,0,1-1.85-.16c.55.14.42-.24.65-.34a4.14,4.14,0,0,0,2.46.21c-.58-.27-1.45.18-2-.31-.28-.49.69,0,.64-.34-.13-.14-1-.29-1.16-.76a9.25,9.25,0,0,0,3.8,1.08c0,.16-.38.09-.62.1,1,.49,1.64-.53,3.07-.23-.07-.29-1-.1-1.41-.2.79-.39,2.39.06,3.66-.26-.85-.42-2,.13-2.42-.2.18-.28,1-.08,1.22-.36.12.32.12.2,1,.16-.42-.46-.69-.57-1.79-.84l-.62.37c-.21-.53-1.31,0-2.41-.13-.13-.42.7-.13.44-.64,1.15,0,2.25.27,3.6.16,0-.15,0-.23-.19-.27.54-.21.29.47,1.4.18-.06-.19-.5-.13-.8-.16.18-.19.65-.17,1-.23-.61-.37-1.89-.08-2,.34-.85,0,0-.21,0-.4-.92.41-1.16.28-2.6.14a14.79,14.79,0,0,1,2.41-.27c-1.35-.49-2.43-.15-4.58-.26a5.92,5.92,0,0,1,2.8-.22c0-.28-.86-.09-1-.32.29-.25.67.17,1.19-.07l0,.4c3.92-.33,6.58-.54,9.94-1.06-1.1-.08-3.53.12-4-.1a12.88,12.88,0,0,1-4.77.69c.19-.17,1.73-.33.41-.38.56-.3,1.56.22,2.57.07-2.11-.59-3.79.13-5.33-.08,1,.34,1.84.09,2.35.39a5.76,5.76,0,0,1-2.75-.28,2.71,2.71,0,0,1-1.63.55c-.46,0,.1-.35.42-.23a5.16,5.16,0,0,0-2.77-.11c.6-.23-1.21-.74-1-.11.19-.58,1.12-.64,2.25-.64a11.61,11.61,0,0,0,3.34-.21c0-.28-.69-.1-1-.19-.4-.27,1.44,0,2,0-.07.18-.5.08-.79.09a18.52,18.52,0,0,0,4.32-.09c-.57-.51,2.34-.25,3.15-.9.11-.07,1.53.23,1.76.12s-.08-.16,0-.39a8.71,8.71,0,0,0,2.56.08c-.23-.16-.18-.26.19-.26-.1-.34-.86-.21-1-.51a24,24,0,0,1,4.54.24c.47-.54,2.71-.26,4.54-.53-.72,0-2-.5-2.19,0-.06-.95-2.71.08-2.6-.65-3.29.49-6.31.42-8.19.72,0,.29.16.42.58.4a6.26,6.26,0,0,1-2.42.3,13.15,13.15,0,0,0-2.45,0c.33-.38.62,0,1-.24-.56-.35-1.93-.15-1.95.34-.81,0-1.62,0-1.92-.37-.77.86-2.42.13-3.35.81,0-.66-.32,0-1.17,0,0,.13.22.12.37.16-.17.48-.87-.17-1.2.28-.21-.14.08-.31-.54-.46-.29,0,.06.17,0,.39-.51,0-.09-.52-.72-.49-.14-.28,1-.14.43-.34.33.07,1.62-.34,2.11.23.28-.19-.1-.35-.62-.44a3.89,3.89,0,0,0-1.46-.05C2.87,10,.88,10.08.45,9.8c.13-.11.56-.14.23-.24,1.13-.05,2.11.15,3.63.16-1-.64,1.66.07,2.15-.48-.41.6-2,.21-2.38.85.31.69,1,.08,1.29.64.61.12.47-.36,1.18-.16-.11-.13-.41-.52.22-.38-.14-.32-1-.07-1.16,0-.68-.75,2.4-.35,2.17-.75a9.82,9.82,0,0,0,2.84-.28,10.56,10.56,0,0,1,3.32-.27c0-.4.56-.5,1.55-.52a1.48,1.48,0,0,1-.58.26c0,.38.8.25,1.35.27,0-.29-.82-.06-1.16-.13a2.88,2.88,0,0,1,1.35-.53.21.21,0,0,0,.19.27c3.95-.77,6.23-.06,10.29-1.15-.35-.55-1.37.14-2.36,0a9.65,9.65,0,0,1,4.12-.24,1.2,1.2,0,0,1-1,.33c0,.29.84,0,1.19,0,.19-.17.17-.37.36-.55.65-.14.34.25.22.38A30.72,30.72,0,0,1,37.4,6.19c-2.23-.32-4.33.13-6.21,0,.95.36-2.18.67-2.93.47.07-.3,1-.12,1.37-.22-5.76.14-9.84.72-15.29,1.32,0-.1.19-.13.2-.26a12.41,12.41,0,0,1-3.43.19c-.28,0,.07.17,0,.39-1.57.06-3.5-.53-5.1-.18-.14,0,2.81,0,.94.08-.66.65-2.66.25-3.83.44A19.84,19.84,0,0,1,6.44,7.13a5.94,5.94,0,0,0,2.85.11,8.29,8.29,0,0,1,2.6-.08c2.63.71,5.68-.74,9.15-.55-.19-.44-.78.06-1.35-.23a57.41,57.41,0,0,1,8.71-.67,117.08,117.08,0,0,0-12,.2c.75.38,1.45.18,2.86.22-1,.62-2.79.1-3.62.17,0-.16.35-.11.57-.13-.38-.3-1.57,0-2.27-.14,8-.59,16.56-1.43,24.81-2.47.36,0,1.16-.26,1.21,0l-1.4.13c-3.43.37-6.27,1-9.66,1.3.5.35,1.87,0,2.39.36.3-.09,0-.14-.21-.11,6-.49,12.46-1.21,18.93-1.92,4.2-.46,7.16-.45,12.32-.87-1.95-.32-4,.28-5.48-.06,4.59-.63,9.24-.41,13.87-.7a2.79,2.79,0,0,0-1.48-.21,20.23,20.23,0,0,1,6.94,0c-1.28-.57,3.63-.34,1-.29,2.5-.12,5-.2,8.22-.26C85.2,1.35,83.07.91,82.12,1.28ZM35.64,18.88c-.33-.62-2.64.25-3.3-.13C33,19.48,34.16,18.67,35.64,18.88ZM14.86,15.24c-.85.32-1.71-.37-2.82.08.29.12.63.22.59.54C13.4,15.49,14.9,15.7,14.86,15.24Zm.82-6.05a14.66,14.66,0,0,1-3.1.62c.23,0,.55,0,.57.15-.11,0-.23,0-.19.12a1,1,0,0,1,1,.29c.13-.27,1,0,.79-.52-.29,0-.72,0-.78-.14.64.12,1.22-.33.78.14.87-.3.35-.2,1,0C15.81,9.59,16.35,9.29,15.68,9.19ZM91.35,2.34c-.64.06-1.8-.22-2.1.07C89.89,2.35,91.05,2.63,91.35,2.34ZM39.57,5.47c1.81-.33,3.25.12,4-.5C42.42,5.15,39.7,5.17,39.57,5.47ZM4.48,8c.38.53,1.66-.28.78-.33C5.51,8.23,4.45,7.66,4.48,8Zm13.71.63c-1.38.31,1-.2,1.37.37-.15,0-.39,0-.39.14a3.31,3.31,0,0,0,1.35-.42A4.26,4.26,0,0,0,18.19,8.65Zm5.06-.15c-.34.05-1-.33-1.17,0A.86.86,0,0,0,23.25,8.5ZM10.07,9.86c.95.05,2.07.17,2.32-.32C11.74,9.74,10.49,9.52,10.07,9.86Zm-.4.24c.07-.17.29-.23.22-.51-.51-.06-1.62.11-1,.47.06-.12.87-.3.78-.09C9.57,10,9.45,10.06,9.67,10.1Zm3.8,4.21c.71-.05,2.87.15,2.6-.12-.48-.08-1.45.16-1.6-.14.43,0,2.13.11,1.6-.12C15,13.94,13.74,13.8,13.47,14.31Zm12.51.9a4.77,4.77,0,0,0-2.43.12A22.08,22.08,0,0,0,26,15.21Zm-1,1.11c-.12-.42-1.77-.45-2.25-.17A15.27,15.27,0,0,1,25,16.32Zm-14.44.41a15.27,15.27,0,0,0,2.65-.19C12.82,16.46,10.91,16.32,10.58,16.73Zm8.35.32c.38-.06,1.23.16,1-.28l-1,0ZM25,16.71c1.8-.14.21-.35-1.43.07C23.13,16.89,24.3,16.77,25,16.71Zm102.81.3c.62,0,1.26,0,1.49-.33C128.89,16.83,128,16.63,127.85,17ZM17.3,17.48c.44.33.8.1,1.23.24C18.82,16.73,16.14,17.73,17.3,17.48Zm2.24-.31a1.86,1.86,0,0,1-1,0C18.25,17.68,19.91,17.79,19.54,17.17Zm-2.44,0c-2.84-.24-.85.54,0,0Zm5.51,0c1.07-.25-1.9-.15-2.86.09A6.72,6.72,0,0,0,22.61,17.21Zm6.15,3.37c1.81-.1,3.69-.16,6.16-.45,1.13-.13,3.71-.89,4.88-.68.88.15-.62.29.4,0,.78-.25,1.85.06,2.44-.22-.65-.69-3.37.43-3.31-.36-6.92,1.32-14.27.7-23.67,1.41,2.73.15,5.72-.23,8.31.08-2.84,0-2.85.31-.41.14.75-.22,1.43.08,2.06-.36.91.57,5.34-.33,7.64-.1C31.9,20.35,30.21,19.9,28.76,20.58Zm-16.86,0c.91,0,2.36.23,2.93-.08A7.3,7.3,0,0,0,11.9,20.58Zm17.81,1.91c.87-.16,2.47.08,2.67-.45-.57.16-.55-.14-1-.05C31.62,22.52,29.68,21.83,29.71,22.49ZM46.7,3c-3.52.27-1,0,1-.35.44.26,1.72-.1,2.49-.09C51.17,2.71,47.61,3.1,46.7,3ZM12.11,5.85c.26.35,1.5.36,2.63.31-.66.5-3.57,0-4.53.42C10.45,6,11.45,6.24,12.11,5.85Zm-1.88.33c-.5.39-1.35.05-2.8.11C6.51,6.28,9.28,6,10.23,6.18Zm7.56,1.29,1.54,0c-.38.49-1.42,0-1.54.43C17.51,7.82,17.87,7.7,17.79,7.47ZM3,9.05c-.41.07-.6.33-1.18.26,0-.55.78-.47,1.23-.65.39.24-.28.29.14.41C3.18,9.22,3,9.12,3,9.05Zm15,1.44a2.12,2.12,0,0,0-1.17,0c.71-.52,1.23-.74,2.74-.31C19.23,10.51,18.22,9.74,18,10.49Zm122.51,2.2c-.22.2-.78.09-.9.39C139.29,12.64,139.11,12.2,140.53,12.69Zm-139-.77c.26-.36.18.22-.21.1.23.14.68.79.92.51.1.32-1.27.63-2.25.53a3.91,3.91,0,0,1,1.65-.47c0-.11-.18-.15-.16-.28-.18,0-.36.07-.42.21C.63,12.36,1.25,11.92,1.54,11.92Zm2,1.95c0,.4-.75.38-1,.15.06.26.54.3.33.7.2-.36,1.07.22,1.79.3-.09.36-1.62-.56-1.63.12-.34-.17-.74-.39-.35-.58-.62-.18-.64.14-1,.14-1,.36.57-.22.44-.34-.42-.41-2.92-.21,0-.13,0-.18-.49-.17-.78-.23a14.32,14.32,0,0,1,1.85-.43A.55.55,0,0,0,3.5,13.87Zm3.36.55c.22,0,.1.14,0,.14,0,.15.36.13.59.16l0,.66c-.35,0-.53.06-.62.22-.23,0-.11-.13,0-.13-.19-.14-.87-.29-.81.07-.37-.47-.32-.06-1-.09.34-.18,0-.61-.54-.71.17-.37,1.31-.16.79.2L6,15a.54.54,0,0,0-.38-.29c.5-.39.87.37,1.59.25-.15-.2-.63-.23-1-.33C6.3,14.45,6.84,14.64,6.86,14.42ZM7,15.75c1-.27,2.28.31,3,.3-.6.19-1.86-.09-1.46.84-.19-.09-.29-.38-.4-.16-.36-.05.33-.47.44-.63C8.22,15.65,7.64,16.06,7,15.75ZM5.78,18c-.26.27-1.36-.11-1.48.27C4,18,5.22,17.67,5.78,18Zm1.4,4a6.66,6.66,0,0,1,2.8-.53c1.25-.12,2.64-.21,3.58-.4-1,.63-3.25.55-4.88.75.52.47,1.75-.22,2.32.23.2.91-4.3.2-1.28.35a2,2,0,0,1,.85-.1A12.44,12.44,0,0,0,7.18,22.08Zm6.8-.8c.08-.2.37.12.42-.13h2.94c-.5.3-1.89.05-2.73.13C14.33,21.44,14.28,21.34,14,21.28Zm-.22.79a23.44,23.44,0,0,1,3.38.14c-.59.16-3.37.46-4.44,0,.23-.25.86.36,1.69.16A1.84,1.84,0,0,0,13.76,22.07ZM9,24c-.83-.41,1.39-.27,1.51-.07C10.4,24.24,9.32,23.81,9,24Zm30.3,3.78a9.89,9.89,0,0,1,3.27-.43C42.17,28,40.13,27.8,39.3,27.81Zm67.27-1c0-.19-.48-.15-.78-.19.59-.28,2,.25,3.52.27-.93.55-1.61-.23-2.75.05C106.34,26.9,106.46,26.8,106.57,26.81ZM47.85,1.94c-.06-.21,1.25-.32,1.24-.1a3.46,3.46,0,0,1-2.65.5A10.77,10.77,0,0,1,48.27,2C48.25,1.91,48,2,47.85,1.94Z"/></g></g></svg>