<svg xmlns="http://www.w3.org/2000/svg" viewBox="0 0 170.98 29.51"><defs><style>.cls-1{fill:#ffda48;}</style></defs><title>marker-1</title><g id="Ebene_2" data-name="Ebene 2"><g id="Ebene_1-2" data-name="Ebene 1"><path class="cls-1" d="M85.1,3.67c3,0,.37-.41-.73,0C84.72,3.73,84.78,3.83,85.1,3.67Zm53.21-2.46c.4-.33,1.85-.19,2.66-.34A5,5,0,0,1,138.31,1.21ZM51.77,4.28a19.28,19.28,0,0,1-4.14.07A15,15,0,0,1,51.77,4.28Zm92.16-3.14c.44-.42,1.51-.09,2.18-.19C145.64,1.38,144.82.88,143.93,1.14ZM72.7,4.89c-1.12.44-3.46.42-5.84.43C68.16,4.83,70.52,4.91,72.7,4.89Zm-20,.19a6.54,6.54,0,0,1,2.92,0C54.35,5,53.57,5.32,52.73,5.08Zm90.08-2.65c-.85-.15-1.59.25-2.91.24C140.21,2.42,142.58,1.91,142.81,2.43Zm2.66-.37c.31-.19,2.7-.59,2.68-.11A13.51,13.51,0,0,1,145.47,2.06ZM56.14,5.66c.47.27-2.07,0-2.45.23-1-.32-3.16-.1-4.62-.2,1-.3,3,0,4.38-.07.42,0,.64-.22.73,0ZM21.43,6.85c.21.49-1,.14-1.48.2C20,6.71,20.78,6.82,21.43,6.85ZM162.12,3.73a13,13,0,0,1-2.17.49C160.19,3.68,161.3,3.77,162.12,3.73ZM169,5.68c.39-.49,1.65-.27,1.76.22A4.05,4.05,0,0,1,169,5.68ZM8.07,13c-.27.25-2.24,0-3.45-.1A6.59,6.59,0,0,1,8.07,13ZM4.53,14.16c-.12.29-1.22,0-1.73,0A2.3,2.3,0,0,1,4.53,14.16Zm3.93.4c-.23.26-1.27,0-1.5.29C6.3,14.47,7.88,14.25,8.46,14.56Zm-4.76.86c-.08-.32.47-.25.29-.64.35,0,.7.07.75-.08.33.07.19.34.21.54C4.2,15.1,4.46,15.57,3.7,15.42Zm17.81,4.86c.2-.16,2.44-.21,2.23.24C22.87,20.24,22.48,20.52,21.51,20.28Zm1.7,1c.07-.16.5-.11.49,0v.26l-2.48-.12a4.59,4.59,0,0,1,2.24,0C23.5,21.32,23.36,21.3,23.21,21.28Zm-10.8,1.81a5,5,0,0,1-2.25.14A8.53,8.53,0,0,1,12.41,23.09ZM16.54,25c-.31-.29,2.35.06,3.25,0C21.92,25.3,17.55,25.26,16.54,25Zm9.22.31c-3.12.26-3.62-.32,0,0ZM31,26.48c-.28.29-1.57,0-2.25.05C28.29,26.39,30.78,26.3,31,26.48Zm6.72.77a6.46,6.46,0,0,0-2-.21C34.89,26.9,38.07,26.76,37.68,27.25Zm29.7,1.47c-.42.31-1.9.06-2.75.13A6.56,6.56,0,0,1,67.38,28.72Zm.25.13c.35-.3,1.75-.05,2.5-.14C69.79,29,68.39,28.77,67.63,28.85Zm-23,.28c-3.11-.4-6.07-.13-9.25-.38.25,0,.69-.56.76-.24C38.62,28.94,41.81,28.38,44.63,29.13Zm9.75.31a7.77,7.77,0,0,0-2.25-.17C52.59,29,54.24,28.91,54.38,29.44ZM15.89,27.9a11,11,0,0,1-3,.09A13,13,0,0,1,15.89,27.9Zm40.49,1.31c.62-.17,1.21.3,1.25,0C58.78,29.47,56,29.73,56.38,29.21Zm31.76-.1c-1.07.52-6.66.36-2.25.06C86.41,29.13,87.31,29.15,88.14,29.11Zm39.26-1.38c-1.33.46-6.07.56-7.49.46C122,28.15,124.71,27.6,127.4,27.73Zm-107.55,1a6.34,6.34,0,0,1-2.26.16A6.58,6.58,0,0,1,19.85,28.76ZM148.23.1a5.93,5.93,0,0,1,2.7.15C150.43.48,149.21,0,148.23.1ZM83.16,3.7c.2.16-1.77.3-2.68.31A12.43,12.43,0,0,1,83.16,3.7Zm-20.68.68c2.91-.14,9.36-.3,14.36,0,0,.16-.44.12-.73.14h-.73c-2.36.18-4-.14-5.6.3-.85-.82-3.35.81-5.36.53,0-.55,2-.07,2.44-.38-.84-.5-2.41-.25-3.65-.28C63.73,4.37,63.15,4.37,62.48,4.38Zm-26-.33c.28-.53,1.69-.08,2.43-.06C38,4.24,37.44,3.8,36.44,4.05Zm16.3.38a6.6,6.6,0,0,1,1.95-.11A2,2,0,0,1,52.74,4.43ZM123.31,3c.21,0,.23,0,.25.12.1.51-1.6.36-2.17.4-2.73.2-5.82.26-8.9.31s-6.16.09-8.87.35c3.69-.41,6.89-.57,10-.68S119.88,3.22,123.31,3ZM99.49,4.55a6.87,6.87,0,0,0,3.17-.12v.4C106.36,4.2,111,4.2,116.3,4c0-.12-.3-.08-.49-.1,1.7-.12,4.21-.1,6.87-.14a52.33,52.33,0,0,0,7.72-.65c-.28.19-.08.21,0,.39,2.42-.42,4.67-.62,8.23-1-.64.25.12.73-1.4.77,0-.24.79-.15.7-.45-3.42.24-4,.76-6.56.64.09.18.62.07,1,.07-1.91.43-5.53.39-8.51.71,2.78,0,5.63-.22,8.4-.4s5.45-.43,7.92-.53a9,9,0,0,0,3.14-.4c.59.1-.77.41-1.43.39,1.85.31,2.35-.48,4.35-.65.07.28-.86.13-1.2.24A45,45,0,0,0,151,3l6.53-.35c0,.15-.48.14-.46.31.19.38.51-.18,1-.1.59.59,2.28.42,4,.26,1.06-.11.06.22-.48.18-.53.28-2.05.16-2.16.62a5.81,5.81,0,0,0-2.2.22c.37.27,1.71-.12,2.46-.12.26.4-.78.27-.94.5a18.79,18.79,0,0,0,5.6-.84c0-.13-.31-.07-.51-.08.92-.22,5-.52,5.45.11-3.35.9-8.38,1.24-13.39,2,3.48-.33,8.24.53,10.82-.57a4.08,4.08,0,0,1,1.52.37,3.5,3.5,0,0,1-2.4.64c.12.24,1,0,.78.45-.21.25-.64.41-1.44.41,1.67.14,4.15-.27,5.69,0,0,.45-.77.61-1.4.81a7.69,7.69,0,0,0,1.52.37,51.12,51.12,0,0,1-11.2,1.93c2,.34,5.73-.11,7.67-.12-1.13.39-5.13.65-4.67.35a1.66,1.66,0,0,0-1.17.65,17,17,0,0,1,4.44-.19c-1.25.61,1.57-.21,2.71-.15a4.55,4.55,0,0,1-2.19.36c-.31.06-.22.28,0,.26-2.12.3-5.42,1.1-8,1.61,1.5.22,4.77-.53,5.91-.47a36.83,36.83,0,0,1-5.13.79,8.39,8.39,0,0,0,4-.14c0,.16-.43.16-.72.2,0,.15.46.07.75.06-1,.4-3,.35-4.41.58-.24.11-.22.33-.71.34.2.37.51-.18,1-.1,0,.27-.63.33-.94.49,1.16.39,1.84-.38,3.68-.37.53-.15,1.58,0,.51.08-2.44-.17-2.59.91-1.45.41a19,19,0,0,1-1.94.46,6.66,6.66,0,0,0,2.73,0c-1.83.83,1.36,0,2.73,0,.77.13-1,.23-1.46.29a7.68,7.68,0,0,1-1.71.3c.42.37,1.91,0,3,0-2.21,1-4.7.51-7.6,1,.76.15,4.72-.33,1.5.11-.58.06-.7.3-1.46.28,2,.11,5.51-.57,6.91-.44a3.26,3.26,0,0,1-1.45.41c.27.46.74,0,1.49,0-.08.42.49.41.34.89-1,.57-3.57.55-5.39.81.69,0,1.24.19,2,.19-.9.39-2.4.53-3.4.88a6.89,6.89,0,0,0,2.46-.26c1.83-.28,0,0-1.68.57-.48.14-.53.46-.94.63-1.71.34-4.06.45-5.65.82,2,.91,7.16-.62,10.91-.56-3.38,1-5.58,2.06-10.25,2.35-.32.63,1.62-.22,1.29.41-3,0-6.68.28-10.14.61s-6.73.66-9,.88c0,.15.46.07.76.07-1,.17-3.27-.06-5.24.24.7.2,4.57-.23,3.75,0-1.79.35-4.58.26-5.95.8,5.51,0,11.13-.71,17.7-1.22L147,25c.89-.18.92.14,0,.13l-1.75.15c-3.93.69-11.13.87-17.17,1.58,3.47-.16,7.14-.36,10.94-.63s7.75-.57,11.76-.91c-.16.31-1.39.17-2,.31a14.83,14.83,0,0,1-4.24.37c-.11.37-.33.41-1.71.55,1-.43-.12-.11-.53-.36.2.3-.69.22-1.22.49-.58.05.07-.36.48-.3l-8.43.48-8.81.39-2.24.13c-.2-.27,2.69-.22,3.73-.37-4.86-.3-7.93.89-11.49.55.09.18.63.08,1,.08a60.27,60.27,0,0,1-9.25.31c-1,0-1.33.74-2,.22,2.33-.69,8.94-.4,12.46-1-4.11.17-8.73.4-12.73.61-.37.13.08.2-.23.54-1.87.23-2.31-.37-4.25-.11.08.18.63.09,1,.1-.78.49-2.43-.5-3,.24-1.15.12-3.55,0-5.5.17-1.58.11-4.8.52-1,.16-.6-.29-2.25,0-3.25-.05-.39-.06,0-.14.24-.14,4.31-.14,6.18-.19,9.25-.39a76.53,76.53,0,0,0-11.74.59c-1.25.32-3.58.1-5.25.21,0-.28,3.21-.11,4.5-.2-3.42-.28-9.19-.12-13.26-.1,0-.12.31-.1.5-.13-7.92-.61-16.81-.33-27.73-.76,1.11.6-1.43.07-1.74-.18,1.09-.27,3.24,0,4.74,0-.65-.53-4.76.14-4.72-.64l2,.05c-1.61-.34-5-.17-6-.42.85-.28,2.74,0,4,0-4.3-.69-7.28-.62-12.45-1.05.2-.29,1.4,0,2-.06-1.24-.81-5-.07-5.7-.88a2.11,2.11,0,0,0,1.5-.07c.24,0,.18.17.24.28,1.2.12,7.49-.24,9.46.21-.1,0-.93.06-2.25.18a13.36,13.36,0,0,0-3.73-.13c1.63.18,3.84.26,6,.29s4.28,0,5.71-.07c-1.32-.48-4.55-.05-4.45-.9l-4.48-.28c.68-.28,2.4,0,3.49,0a76.32,76.32,0,0,0-10.94-.53c-1.54-.3,1.24,0,1.25-.08,0-.31-2.74-.12-2.74-.12-2.13-.15-9.26-1-11.18-.56a3.73,3.73,0,0,1,1.76-.17c-.25-.31-1.56-.14-2.23-.26.56-.46,1.65.12,3,0-.12-.44-.93-.24-1.49-.21-.3-.33,2.13-.16,3.24-.08.39.18-1.42.18-1.74,0,4.13.5,8.23.74,12,.95s7.34.3,10.3.5c-1.86-.56-5.09-.52-8-.53,1.58-.38-2.17-.34-3-.5,1.7-.3,4,.37,5.48-.33-.12.26.64.32,1.73.32a18.74,18.74,0,0,0-5.7-.6c1.44-.45,3,.12,5.23-.21-.77,0-2.67-.47-3.72-.13-.23-.76,1.85-.18,2.74-.3a5.11,5.11,0,0,0-3.48,0c-.91-.21.73,0,.51-.24-1.61-.21-4.25.13-6.7-.15,2.32-.4,5.66-.26,8.95-.43a21,21,0,0,0-5.2-.19c.1.2.32,0,.74,0-1.43.14-2-.34-4,.22.56-.08.69-.41,1.51-.33-2.25-.21-4.76-.44-7.28-.59a65.14,65.14,0,0,0-7.33-.16c.22-.32,1-.28,1.51-.44,0-.25-.83.11-1.48-.08a20,20,0,0,1,5-.25c0-.15-.05-.24-.24-.28,2.76,0,5.45.61,8.67.17,0,.12-.31.08-.5.1a92.65,92.65,0,0,0,14.59.81c-2.82-1-7.6.2-11.62-.8l7.67.28c-.4-.66-3.05.22-3-.5a4.52,4.52,0,0,1-2,.19c1-.43-1.34-.49-1.24,0-2.49-.7-4.55-.2-7.15-.72-.39,0,.21.24-.26.25a14.75,14.75,0,0,1-2.69-.65l8.48.52,9.55.49c-.27-.3-1.63-.07-1.72-.46-.35.5-4-.6-5.69-.07.47-.22-.09-.39-.22-.67l-.76.37c.19-.57-2.85-.29-3.45-.16-.78,0-.64-.38-1.22-.45-.29,0-.22.23-.27.39-.79-.24-3,0-2.69-.52a15.58,15.58,0,0,1-2.49.27c.23-.41.22-.26-.22-.54-.46,1.1-5.62-.37-8.44.31.35.44,1.79.37,2.7.55-.07-.18-.62-.14-1-.18a16.37,16.37,0,0,1,4.71-.13c-.62.36-1.16.25-2.73.11-.26.44,1.43.06.71.56.92-.34,2,.17,3-.22-.07-.18-.62-.15-1-.19.11-.43,1.43-.13,2.23-.14.68.24-.55.56.47.56a21.08,21.08,0,0,1-4.47.14c.09.3,1.21.12,1.72.23-1.32.4-4-.09-4.48.27-.18-.09-2.54.35-2.45-.4,1.09.16,1.49-.09,2.48,0-.86-.28-.75-.33.51-.24-2.09-1.15-3.59.24-5.71.05.3-.17,1.23-.12.27-.38.66-.19.83.09,1.5-.16-1.45-.57-4.34-.3-1.2-.61.61.07.79.55,1.47.23-.5-.18-.21,0-.47-.3,1.11-.35,3.3-.15,4.22-.27,0-.46-.67,0-.72-.31.14-.38,1,.19,2-.15-.08.23-.45.28-1,.21a43.32,43.32,0,0,0,5.93.21c0-.18-1-.31,0-.27-.18-.4-.8,0-1.23-.07.11-.24,1-.05.77-.48-1.58-.1-1.67.47-4,0,.64.55,2.57.3,3.18.57-3.07,0-7.28-.87-10.13-.2,1.29.35,3.2-.25,4.2.13-1.2.15-4.57.52-4.45-.15A11.7,11.7,0,0,1,4.65,16c.66.13.5-.24.77-.35a5.94,5.94,0,0,0,3,.2c-.7-.27-1.73.18-2.46-.3-.35-.49.84,0,.77-.34-.17-.14-1.25-.28-1.44-.76,1.4.78,3.23.85,4.63,1.1-.05.15-.46.09-.75.09,1.28.5,2-.52,3.72-.19-.09-.3-1.21-.12-1.71-.22,1-.4,2.9.12,4.45-.15-1-.44-2.43.06-2.95-.3.23-.27,1.28,0,1.51-.3.13.32.13.2,1.22.2-.5-.48-.83-.6-2.17-.92l-.76.35c-.26-.53-1.61,0-3-.16-.15-.42.86-.12.54-.63,1.41,0,2.76.29,4.42.25.05-.15,0-.24-.23-.28.66-.19.35.48,1.72.23-.07-.18-.62-.14-1-.19.22-.18.8-.14,1.24-.19-.73-.39-2.33-.16-2.48.26-1,0,0-.2,0-.4-1.15.36-1.44.24-3.21.08a18.5,18.5,0,0,1,3-.22c-1.66-.54-3-.19-5.65-.34a8.87,8.87,0,0,1,3.46-.18c-.05-.28-1.08-.1-1.21-.33.36-.25.84.17,1.48,0l0,.39c4.84-.22,8.15-.26,12.33-.53-1.35-.18-4.37-.12-4.9-.36a21.41,21.41,0,0,1-5.93.45c.23-.17,2.14-.26.51-.37.7-.27,1.94.29,3.19.19-2.61-.7-4.71,0-6.63-.25,1.24.35,2.29.1,2.93.43a9.25,9.25,0,0,1-3.43-.33,4,4,0,0,1-2,.53c-.58,0,.11-.35.5-.23a7.91,7.91,0,0,0-3.44-.1c.74-.25-1.56-.72-1.23-.08.39-1.2,4.68-.33,7-.86.06-.28-.86-.11-1.21-.21-.52-.28,1.8,0,2.46,0-.09.18-.62.08-1,.08a34.69,34.69,0,0,0,5.41,0c-.7-.56,2.93-.12,4-.71.15-.08,1.91.31,2.2.23s-.09-.17,0-.39a14,14,0,0,0,3.18.28c-.27-.18-.2-.28.26-.26-.1-.33-1.05-.27-1.2-.58a36.65,36.65,0,0,1,5.61.64c.63-.48,3.38,0,5.64-.06-.89,0-2.36-.71-2.69-.23,0-1-3.35-.19-3.15-.9C25.78,9,22,8.66,19.62,8.87c-.06.29.17.43.71.43-1.64.5-4.46-.12-6.14.06.42-.36.78,0,1.24-.19-.7-.38-2.45-.24-2.47.25A5,5,0,0,1,10.53,9c-1,.84-3.07.08-4.23.78,0-.67-.4,0-1.48,0,0,.13.3.12.48.16-.19.48-1.1-.17-1.49.3-.27-.14.08-.31-.71-.44-.37,0,.08.17,0,.39-.64,0-.15-.52-.95-.46-.19-.28,1.27-.18.52-.36.42.06,2-.41,2.69.18C6,9.21,3.38,9,2.66,9.16,3.33,8.73.8,8.87.24,8.6c.15-.11.69-.15.26-.25,1.44-.08,2.72.07,4.67.05-1.27-.64,2.12.07,2.73-.47-.51.6-2.58.21-3,.85.44.69,1.33.08,1.68.64.77.12.58-.36,1.49-.16-.15-.13-.54-.52.27-.38-.19-.32-1.27-.07-1.48,0-.91-.76,3.06-.35,2.75-.73,2.79.2,4.27-.71,7.86-.35,0-.4.72-.46,2-.41a2.38,2.38,0,0,1-.75.22c0,.38,1,.3,1.7.35,0-.29-1-.1-1.46-.2a4.27,4.27,0,0,1,1.73-.45c0,.15,0,.24.23.28,5-.49,7.84.43,13-.25-.37-.57-1.7,0-2.92-.23a14.19,14.19,0,0,1,5.12.18,1.74,1.74,0,0,1-1.23.22c0,.29,1,.09,1.46.19.26-.16.25-.36.51-.51.82-.06.38.28.23.4a43.73,43.73,0,0,1,9.79-.27c-2.66-.58-5.27-.37-7.56-.72,1.12.47-2.76.44-3.67.15.12-.29,1.21,0,1.71-.07A163.72,163.72,0,0,0,18,6.68c.06-.1.26-.12.26-.25a22.31,22.31,0,0,1-4.4,0c-.37,0,.08.18,0,.4-2,0-4.53-.63-6.6-.27-.18,0,3.65,0,1.22.08-.84.66-3.43.22-4.93.46.86-.55,2.71-.82,4.25-1.3,2.31.66,5.24-.28,7.08.16,3.38.81,7.34-.41,11.73.07-.19-.47-1,0-1.69-.34a76.07,76.07,0,0,1,11,.17,73,73,0,0,0-7.4-.64C25.85,5.08,23.15,5,20.79,5c1,.41,1.85.28,3.64.43-1.36.53-3.55-.11-4.63-.08,0-.15.45-.09.73-.1-.48-.32-2-.15-2.91-.29C28,4.79,38.79,5,48.84,4.89c.42.08,1.43-.13,1.45.16l-1.7,0c-4.18,0-7.72.31-12,.22.58.4,2.31.23,2.91.61.37-.06,0-.13-.24-.13,7.43.16,15.27.26,22.92.11,5-.06,8.37.13,14.38,0-2.25-.37-4.7.06-6.34-.35,5.34-.31,10.71,0,16.08-.21A3.62,3.62,0,0,0,84.64,5a28.89,28.89,0,0,1,8-.07c-1.49-.54,4.19-.4,1.21-.3L103.37,4C103.06,4.46,100.59,4.15,99.49,4.55ZM43.11,19.76c-.33-.67-3.21-.05-4-.5C39.89,20.06,41.36,19.38,43.11,19.76ZM18.36,14.21c-1.05.25-2.08-.48-3.45-.07.35.14.76.24.7.57C16.56,14.35,18.38,14.66,18.36,14.21Zm1.29-6a27.89,27.89,0,0,1-3.95.44c.29,0,.7,0,.73.17-.15,0-.29,0-.25.12a1.44,1.44,0,0,1,1.21.33c.16-.26,1.23,0,1-.47-.36,0-.9,0-1-.19.8.16,1.55-.25,1,.19,1.12-.24.45-.17,1.23.06C19.79,8.62,20.49,8.35,19.65,8.22ZM110.25,5c-.74.12-2.11-.07-2.43.25C108.55,5.14,109.92,5.33,110.25,5ZM49.53,6.87c2.23-.13,3.88.47,4.88,0C53,6.87,49.74,6.59,49.53,6.87ZM5.28,6.7c.52.54,2.14-.27,1-.33C6.64,6.91,5.23,6.34,5.28,6.7ZM22.85,7.84c-1.76.2,1.34-.11,1.69.47-.19,0-.48,0-.49.11a4.78,4.78,0,0,0,1.73-.31A6.7,6.7,0,0,0,22.85,7.84Zm6.35.29c-.42,0-1.2-.42-1.46-.07A1.28,1.28,0,0,0,29.2,8.13Zm-16.68.48c1.21.06,2.62.25,3-.23C14.65,8.55,13.07,8.26,12.52,8.61ZM12,8.84c.09-.17.37-.23.28-.51-.65-.07-2.07.08-1.26.46.08-.12,1.11-.29,1-.08C11.88,8.7,11.74,8.8,12,8.84Zm4.67,4.35c.89,0,3.52.33,3.2,0-.58-.1-1.79.08-1.95-.23.52,0,2.61.23,2,0C18.62,12.93,17,12.68,16.68,13.19Zm15.2,1.88A6.68,6.68,0,0,0,28.93,15C29.65,15.14,30.6,14.94,31.88,15.07Zm-1.27,1c-.1-.43-2.1-.6-2.7-.36A21.11,21.11,0,0,1,30.61,16.07ZM13.1,15.49a23.66,23.66,0,0,0,3.22-.08C15.83,15.32,13.51,15.1,13.1,15.49Zm10.09.79c.47,0,1.48.25,1.25-.21L23.2,16Zm7.41.19c2.19,0,.28-.34-1.73-.06C28.28,16.49,29.7,16.45,30.6,16.47Zm125.05-3.09c.72-.16,1.49-.31,1.67-.7C156.83,12.94,155.76,13,155.65,13.38ZM21.2,16.58c.5.37,1,.16,1.47.33C23.08,15.94,19.78,16.75,21.2,16.58Zm2.73-.13a2.88,2.88,0,0,1-1.24-.06C22.33,16.85,24.33,17.09,23.93,16.45Zm-3-.14c-3.42-.39-1,.5,0,0Zm6.65.44c1.32-.15-2.28-.34-3.45-.16A10.75,10.75,0,0,0,27.62,16.75Zm7,3.94c2.18.1,4.43.24,7.43.22,1.38,0,4.58-.44,6-.12,1,.25-.79.23.5,0,1-.16,2.22.26,3,.05-.71-.76-4.13.06-3.95-.72-8.5.53-17.24-1-28.47-.88,3.22.27,6.82.17,9.88.71-3.39-.21-3.42.06-.5.11.91-.16,1.69.2,2.49-.17,1,.63,6.41.23,9.15.7C38.43,20.81,36.47,20.19,34.65,20.69Zm-20-1.3c1.08,0,2.79.33,3.47.07A9.69,9.69,0,0,0,14.61,19.39Zm21,3.31c1.05-.06,2.93.34,3.23-.16-.7.09-.64-.2-1.23-.16C37.85,22.93,35.62,22,35.58,22.7ZM58.33,5.15c-4.19-.08-1.17-.06,1.22-.25.5.3,2,0,2.92.14C63.6,5.3,59.4,5.37,58.33,5.15ZM15.19,4.68c.32.36,2,.41,3.39.45-.85.43-4.62-.18-5.87.2C13,4.74,14.32,5,15.19,4.68Zm-2.46.25C12.08,5.31,11,5,9.06,5,7.86,5,11.48,4.78,12.73,4.93Zm9.69,1.7,1.95.09c-.51.46-1.79-.15-2,.31C22,7,22.51,6.86,22.42,6.63ZM3.49,7.77c-.53.08-.75.35-1.49.29,0-.55,1-.49,1.52-.69.52.23-.33.3.21.41C3.68,7.93,3.48,7.84,3.49,7.77Zm19,1.9a3.05,3.05,0,0,0-1.47-.07c.92-.48,1.59-.65,3.44-.11C24,9.78,22.81,8.92,22.52,9.67ZM169.25,5.78c-.19.26-.87.31-.92.63C167.81,6.08,167.46,5.71,169.25,5.78ZM1.81,10.68c.3-.36.25.22-.25.12.29.13.91.76,1.2.47.13.32-1.54.68-2.76.61a5.55,5.55,0,0,1,2-.52c0-.11-.24-.15-.23-.28-.22,0-.44.08-.51.23C.72,11.16,1.45,10.7,1.81,10.68Zm2.58,1.89c0,.39-.9.4-1.24.18.08.26.68.28.44.69.23-.38,1.32.2,2.21.28-.09.36-2-.57-2,.13-.42-.15-.93-.36-.46-.56-.77-.16-.77.16-1.24.18-1.21.4.67-.25.52-.36-.55-.39-3.6-.1,0-.13-.07-.18-.61-.15-1-.2a19.86,19.86,0,0,1,2.26-.5A.7.7,0,0,0,4.39,12.57Zm4.16.54c.28.05.13.14,0,.13,0,.16.44.15.73.19l0,.65c-.42,0-.64.06-.75.21-.28,0-.13-.14,0-.13-.23-.14-1.07-.28-1,.07-.46-.47-.39-.06-1.23-.08.41-.18-.08-.61-.69-.71.18-.37,1.6-.17,1,.2l1,.06a.69.69,0,0,0-.48-.29c.6-.38,1.08.35,2,.26-.2-.21-.78-.24-1.21-.34C7.86,13.14,8.53,13.33,8.55,13.11Zm.16,1.33c1.22-.24,2.78.35,3.69.35-.74.19-2.27-.11-1.78.82-.23-.08-.35-.38-.49-.16-.42,0,.4-.46.54-.63C10.23,14.37,9.54,14.78,8.71,14.44ZM7.33,16.72C7,17,5.7,16.62,5.58,17,5.15,16.74,6.65,16.37,7.33,16.72Zm1.73,4.07c1-.64,5.25-.44,7.5-.76-1.24.61-3.84.39-5.75.6.61.46,2-.2,2.72.28.21.89-5,.11-1.51.31a2.31,2.31,0,0,1,1-.07C12.26,20.77,9.59,20.81,9.06,20.79Zm8-.6c.1-.2.43.14.5-.1l3.47.17c-.6.27-2.23-.05-3.23,0C17.46,20.37,17.4,20.26,17.05,20.19Zm-.29.78a33.15,33.15,0,0,1,4,.33,14.33,14.33,0,0,1-5.2-.27c.27-.24,1,.39,2,.24A2.26,2.26,0,0,0,16.76,21Zm-5.58,1.79c-1-.42,1.6-.26,1.75,0C12.79,23,11.55,22.54,11.18,22.76Zm35.2,6.29a15.08,15.08,0,0,1,4-.07C49.82,29.51,47.38,29.14,46.38,29.05Zm85.26-1.61c-.09-.18-.63-.07-1-.07.7-.37,2.56,0,4.49-.31-1.09.72-2.08.06-3.48.51C131.37,27.56,131.5,27.45,131.64,27.44ZM59.8,4.24c0-.22,1.5-.21,1.46,0a4.68,4.68,0,0,1-3.16.26,14.61,14.61,0,0,1,2.19-.13C60.28,4.24,60,4.27,59.8,4.24Z"/></g></g></svg>