<svg xmlns="http://www.w3.org/2000/svg" viewBox="0 0 184.84 95.33"><defs><style>.cls-1{fill:#fff;}.cls-2{fill:#c1ff2e;}</style></defs><title>logo_1</title><g id="Ebene_2" data-name="Ebene 2"><g id="Ebene_1-2" data-name="Ebene 1"><path class="cls-1" d="M107,95.23l3.64-17.32c1.23,0,2.37,0,3.51,0,9.52-.07,19-.13,28.57-.24a6.13,6.13,0,0,0,6.45-5.18c.87-3.68,1.83-7.34,2.5-11,.57-3.16-1.21-4.87-4.86-4.89-9.24,0-18.48.13-27.71-.08a42.92,42.92,0,0,1-10.88-1.55c-5.7-1.66-11.37-6.66-9.45-15.73q2.63-12.52,5.71-24.95c2.23-9,8.35-13.76,17.43-13.88,20.8-.3,41.6-.19,62.41-.24.08,0,.16.09.56.32-1.1,5.25-2.15,10.63-3.47,15.94-.14.59-1.82,1.14-2.79,1.15-15.36.07-30.72,0-46.08,0-7.54,0-9,1.17-10.57,8.65-.54,2.56-1.12,5.11-1.48,7.7-.4,2.79.72,4.32,3.48,4.68a59.36,59.36,0,0,0,6.67.35c10,.12,20-.18,30,.41,8,.48,12.68,5.68,12.21,13.75-.38,6.53-1.92,13-3.21,19.46a90.69,90.69,0,0,1-3.07,10.91c-2.4,7.19-7.72,10.75-15.07,11.26-5.31.37-10.64.42-16,.46-8.36.07-16.72,0-25.08,0Z"/><path class="cls-1" d="M94.81,19.2c-2.52,11.88-4.91,23.26-7.34,34.63-1.75,8.24-3.37,16.53-5.37,24.71-3.33,13.65-9.69,16.29-20.8,16.57-15.53.39-31.08.17-46.62,0a31.61,31.61,0,0,1-8.54-1.47c-4.33-1.26-6.53-4-6.08-8.41A199.18,199.18,0,0,1,3.18,64.64C7.44,44,12,23.31,16.29,2.63,16.73.56,17.51,0,19.53,0,25.25.12,31,0,37.23,0c-.64,3.21-1.2,6.09-1.81,9Q29.09,38.88,22.75,68.75c-1.65,7.85-1.19,8.75,6.79,9,9,.3,18.06,0,27.09-.14,3.53-.07,5.54-1.8,6.44-5.64,2.07-8.77,3.93-17.59,5.84-26.4,1.75-8.05,3.42-16.12,5.22-24.16.19-.83,1.07-2.12,1.65-2.14C82,19.14,88.18,19.2,94.81,19.2Z"/><path class="cls-2" d="M110.33,1.21s1.12-.45,1-.68c-15.31.31-31.95.4-47.25,1C57.36,1.85,52,5.19,49.53,11.89a46.33,46.33,0,0,0-2.07,6.67C44.31,33.26,41.25,48,38.17,62.7c-.87,4.12-1.7,8.25-2.56,12.49H54.8c.19-1.7.25-3.16.54-4.58q2.83-14,5.75-27.93c1.4-6.65,2.84-13.28,4.38-19.9a6.82,6.82,0,0,1,6-5.6,49.28,49.28,0,0,1,6.66-.34c7.09,0,14.19.09,21.28,0a2.68,2.68,0,0,0,2.06-1.4C103.05,9.87,105.25,4.7,110.33,1.21Z"/><path class="cls-2" d="M104.62,94.55H76.27c2.18-3.5,4.91-7.08,6.77-11,2.3-4.91,2-5,7.61-5h17.4C106.79,84.34,105.71,89.42,104.62,94.55Z"/></g></g></svg>