<?xml version="1.0" encoding="utf-8"?>
<!-- Generator: Adobe Illustrator 24.0.1, SVG Export Plug-In . SVG Version: 6.00 Build 0)  -->
<svg version="1.1" id="Ebene_1" xmlns="http://www.w3.org/2000/svg" xmlns:xlink="http://www.w3.org/1999/xlink" x="0px" y="0px"
	 viewBox="0 0 1743.8 475.6" style="enable-background:new 0 0 1743.8 475.6;" xml:space="preserve">
<style type="text/css">
	.st0{fill:#FFDA48;}
</style>
<title>portfolio-overview-slogan</title>
<g id="Ebene_2_1_">
	<g id="Ebene_1-2">
		<path d="M180.9,102.2c0.9-2.3,1.6-4.6,2.2-6.7c0.6-2.2,1-4.4,1.3-6.7c0.3-2.5,0.4-5.1,0.4-7.6c0-2.7-0.1-6.4-0.4-11.1
			c1.1-2.5,1.9-5.1,2.4-7.7c0.7-2.9,0.9-5.9,0.5-8.9l-0.6-5.2l4.3,0.5c-0.3-0.8-0.4-1.4-0.6-2c-0.1-0.6-0.3-1.2-0.6-1.8
			c-0.5-1.6-1-3.2-1.4-4.8c-0.4-1.6-0.5-3.3-0.2-5c-2.9-2.6-4.9-6.1-5.8-9.8c-0.3-1-0.9-1.9-1.6-2.6c-0.7-0.6-1.6-1.3-2.6-2.1
			l-0.8-0.5c-0.5-0.4-0.9-0.8-1.3-1.2c-1.1-1.3-1.7-3-1.7-4.7c-0.3-0.3-0.7-0.5-1.1-0.7c-0.4-0.2-0.7-0.4-1.1-0.7
			c-1.8-1.1-3.6-2.1-5.4-2.9c-1.7-0.8-3.5-1.3-5.4-1.3c-1.8,0-3.5,0.6-4.8,1.6c-2.2,7.1-5.8,13.8-10.5,19.6
			c-4.3,5.1-8.8,10-13.6,14.6c-2.5,2.5-4.8,5-7.1,7.4c-2.3,2.4-4.7,5.2-7.5,8.3c-1.3,0.4-2.5,0.9-3.6,1.6c-1.4,0.9-2.7,1.9-4,3
			c-1.8,1.4-3.7,2.8-5.8,4.2c-2.1,1.4-4.5,2.1-7,2.1c-2.1-0.1-4.2-0.7-6-1.9l-1.3-1.9c-0.4-1.6-0.5-3.2-0.5-4.8
			c0.1-1.5,0.2-2.8,0.3-4.1c0.2-1.3,0.4-2.7,0.4-4c-0.1-1.1-0.4-2.1-1-3L89.3,49c1.7-4.5,1.7-9.4,0-13.8c-1.8-4.5-3.9-8.9-6.3-13.2
			c-0.5-0.8-1-1.7-1.4-2.6c-0.4-0.9-0.9-1.9-1.4-2.8c-1.4-0.1-2.7-0.5-4-1.1c-1.4-0.6-2.9-1.1-4.4-1.5c-0.5-0.1-1-0.3-1.4-0.6
			c-0.7-0.5-1.1-1.3-1.3-2.2L68.4,8c-0.9-1.2-1.9-2.3-3.1-3.2c-1.3-0.9-2.6-1.8-4.1-2.5c-2.4,1-4.6,2.3-6.6,3.8
			c-1.8,1.5-3.5,3.3-4.9,5.2c-1.6,2.1-2.9,4.3-4.1,6.6c-1.2,2.4-2.5,5-4,7.9c-0.9,1.7-1.8,3.6-2.8,5.6s-2,4.2-3.2,6.3
			c-2.2,4.1-4.2,8.3-5.9,12.5c-2.3,5.4-4.6,11.4-7.1,17.9s-4.9,13.3-7.3,20.1c-2.5,6.8-4.7,13-6.6,18.5s-3.5,10.1-4.7,13.7
			c-1.2,3.6-1.8,5.5-1.8,5.6c-1.5,4.5-2.2,9.2-2.2,14c-0.1,5.3,0.3,10.5,1.2,15.7c0.8,5,2,9.9,3.7,14.7c1.2,3.9,3.1,7.6,5.5,10.9
			c2,0.4,4,0.6,6,0.7c1.2,0,2.3-0.2,3.4-0.6c1.1-0.5,2.1-1.3,2.8-2.2c1.1-1.5,2.1-3.1,2.8-4.8c1-2.1,2.1-4.8,3.4-8.1
			c0.5-1.1,0.7-2.3,0.6-3.5c0.1-0.8,0.3-1.7,0.4-2.7c0.1-1,0.3-2,0.6-2.9c0.5-1,1.1-2,1.8-2.9c0.6-0.9,1.3-1.7,1.9-2.5
			c0.5-0.4,0.9-0.9,1.4-1.4c0.5-0.7,0.7-1.5,0.8-2.4c-0.2-0.7-0.4-1.5-0.6-2.2c-0.1-0.7-0.1-1.5,0.2-2.2c0.6-2.7,1.7-5.2,3.2-7.5
			c1.4-2.1,2.9-4,4.5-5.9c-0.2-2.8,0-5.5,0.7-8.2c0.7-3.1,1.5-6.2,2.5-9.1c1-3,1.9-5.6,2.9-7.9c1-2.3,1.6-3.8,2-4.6l1.9-3.8l1.7,4.2
			c6.6,16,16.4,23.9,29.3,23.9c5.3-0.1,10.6-1.1,15.6-3.2c5.5-2.2,10.8-4.9,15.8-8c5.2-3.2,10.2-6.7,15-10.6
			c4.8-3.8,9.3-7.5,13.5-11.1c0.3-1.3,0.6-2,1.2-2.1c0.6-0.2,1.2-0.2,1.7-0.2l1.9,0.2v2.6c0.2,1.3-0.2,2.6-1.2,3.5
			c-4.9,20.8-7.3,37.9-7.1,51.4s3.4,22.9,9.6,28.4c1.5,0,3.1-0.4,4.5-1.1c1.5-0.8,2.9-1.7,4.3-2.7c1-0.8,2.1-1.5,3.3-2.1
			c1.2-0.7,2.5-1.2,3.9-1.6c0.3-1,0.6-1.9,1-2.8c0.4-0.9,0.8-2,1.2-3c3.2-8.6,6.2-17.8,9-27.7C180.4,124.2,181.5,113.2,180.9,102.2z
			"/>
		<path d="M220,135.3c-0.1-0.5-0.1-1,0.1-1.4c0.1-0.5,0.4-1,0.7-1.4l2.5-0.5l0.8-3.1c0.3-1.1,0.6-2.2,0.9-3.4
			c0.3-1.2,0.8-2.4,1.3-3.6c0.1,1.9,0.7,3.7,1.6,5.4c-0.6,2-0.4,4.1,0.6,5.9c0.9,1.6,1.7,2.8,2.3,3.8l0.9,1.1
			c0.3,0.3,0.5,0.7,0.5,1.1l0.6,2.6l2.1,0.2c2.3,0.5,4.6,0.7,7,0.7c3.1,0,6.2-0.3,9.3-1c2.8-0.7,5.7-1.5,8.7-2.5
			c2.1-0.6,4.1-1.2,6.2-1.8c2.6-0.5,5.4-0.4,7.9,0.4c0.3,5-0.3,8.5-1.5,10.4s-3.9,3.6-7.7,4.8l-6.4,2.1l3.9,5.4
			c0.5,0.6,1,1.2,1.4,1.8c0.4,0.6,0.8,1.1,1.4,1.5c1.1,1.1,2,2.4,2.8,3.8c0.5,1,0.5,2.2,0.1,3.3l-0.8,3.5l2.5,1.4
			c0.9,0.5,1.8,1.1,2.5,1.9c0.7,0.7,1.4,1.3,2.2,1.9c1.2,0.8,2.6,1.3,4,1.6c3.3-0.2,6.4-1.1,9.3-2.7c3-1.7,5.7-3.8,8-6.3
			c2.4-2.6,4.5-5.5,6.2-8.7c1.9-3.5,3.4-7.1,4.5-10.9c0.4-3.5,0.4-7,0.1-10.4c-0.3-3.4-0.7-6.6-1.3-9.7c-0.2-1.1-0.4-2.2-0.5-3.3
			c-0.1-1-0.2-2-0.5-3c3.6-2,6.9-4.7,9.8-7.7c2.7-2.8,4.9-6.1,6.5-9.6l1.9-4.4l-3.5-1.7c-0.4-0.2-0.7-0.5-1-0.8
			c-0.4-0.3-0.7-0.7-1-1.1c-0.7-0.9-1.6-1.7-2.4-2.5c-1.3-1-2.9-1.5-4.5-1.5c-0.5-0.4-0.9-0.9-1.4-1.4c-0.4-0.4-0.7-0.9-1-1.4
			l-0.7-2.8l-2.5,0.2c-1.9,0.1-3.7,0.6-5.4,1.4c-0.8-0.2-1.5-0.3-2.3-0.2c-1.3-3.9-2.4-7.8-3.1-11.8c-0.8-4.1-1.5-8.5-2.1-13
			c-0.5-3.1-1.1-6.3-1.6-9.5s-1.2-6.4-1.8-9.5c-0.1-3.9-0.4-7.5-0.8-10.7s-0.8-6.5-1.4-9.7c-0.3-1.4-0.5-2.8-0.7-4.2s-0.4-3-0.7-4.7
			l-1-2.1c-1.6-1.9-3.7-3.3-6-4.1c-2.6-1-5.2-1.9-7.9-2.7c-1.5-0.6-3-1.2-4.5-1.6c-1.1-0.3-2.1-0.8-3.1-1.4L258.7,5l-2.3,4
			c-2.9,5.6-6.3,11-10,16.1c-3,4.2-6.8,7.7-11.3,10.2l-3.5-0.7c-0.8,0-1.5,0.1-2.2,0.3c-0.6,0.2-1.1,0.5-1.6,0.8l-2.1-0.2l-1.4,2.3
			c-2,2.9-3.7,5.9-5.1,9.1c-1.3,3.1-2.6,6.3-3.8,9.4c-1,2.7-2.1,5.2-3.2,7.7c-1.3,2.9-2.7,5.7-4.4,8.4c-0.2,0.8-0.4,1.6-0.4,2.5
			c0,0.7,0.1,1.3,0.2,2c-1.2,3.1-2.4,6.2-3.6,9.2s-2.4,5.9-3.5,8.9c-3.7,9.2-7.3,18.2-10.7,27c-3.4,8.8-6.8,17.9-10,27.4l-0.2,4.9
			l-2.5,2.3l2.9,3.5c0.7,1.3,1.1,2.7,1.2,4.2c0.3,1,0.4,2.1,0.6,3.2c0.2,1.2,0.5,2.3,1,3.4l1.2,1.9c1.2,0.8,2.4,1.7,3.4,2.7
			c1,1,2.2,2.5,3.8,4.3l2.5,0.2c0.8,0,1.6-0.1,2.4-0.2c0.7-0.2,1.9-0.5,3.6-0.9l2.9-0.5l0.6-3c0.8-0.8,1.7-1.4,2.7-1.9
			c0.9-0.5,1.8-1,2.8-1.6c1-0.7,1.9-1.7,2.4-2.8l0.8-3c0-2.4,0.3-4.7,0.9-7c0.6-2.4,1.2-4.8,1.8-7.3c0.5-1.6,1-3.1,1.4-4.7
			c0.5-1.6,0.8-3.3,1.1-4.9c0.3-0.3,0.6-0.7,1-0.9c0.4-0.3,0.7-0.7,1-1.2l1.9-2.1L220,135.3z M238.8,95.7l0.2-0.2
			c2.1-4.8,4.6-9.4,7.4-13.8c2.9-4.7,6-9.2,9.3-13.6l1-2.3c1.4,6.1,2.8,12.2,4,18.2c1.2,6,2.4,11.9,3.4,17.7
			c-4.1,1-8.3,1.8-12.6,2.3c-3.9,0.5-8.1,0.9-12.6,1.2c-0.9,0.2-1.7,0.2-2.6,0.2c-0.9,0-1.7,0.1-2.6,0.2
			C235.2,102.1,236.9,98.8,238.8,95.7L238.8,95.7z"/>
		<path d="M526.5,163.4c3-3.3,5.8-8,8.2-14.1c-1,0.2-1.8,0-2.1-0.6c-0.4-0.7-0.7-1.4-0.9-2.2c-0.2-0.9-0.4-1.9-0.6-3.1
			c-0.2-1-0.6-2-1.3-2.8c-1.2,0.4-2.6,0-3.5-0.9c-1-1-1.9-2.2-2.6-3.4c-0.8-1.3-1.7-2.7-2.6-4c-0.8-1.2-1.9-2.2-3.3-2.7
			c-3.8,1.4-7.7,2.5-11.7,3.2c-3.9,0.6-7.7,1.9-11.1,3.9c-4-0.2-8.1,0-12.1,0.5c-3.3,0.5-6.5,0.9-9.6,1.4c-3.3,0.5-6.6,0.8-9.9,0.9
			c-4.4,0.1-8.8-0.3-13.2-1.2c1.5-4.8,3.3-9.6,5.4-14.2c2.1-4.5,4.3-8.7,6.6-12.8c2,0.8,4.1,1.2,6.3,1.2c2.2,0,4.3,0.4,6.3,1.2
			c1.6-0.8,3.5-1.1,5.3-0.8c1.8,0.3,3.6,0,5.1-0.8c0.4,0.5,1,0.8,1.7,0.9h1.6c3.4,0.2,6.8-0.3,10.1-1.4c3-1.1,5.9-2.5,8.6-4.2
			c2.7-1.7,5.2-3.7,7.7-5.8c2.4-2.1,5-4.2,7.5-6.2c0.6-1.7,0.8-3.6,0.6-5.4c-0.3-1.7-0.7-3.3-1.3-4.9c-1.4,0.2-2.9-0.2-4.1-1.1
			c-1.3-1-2.4-2.1-3.4-3.3c-1.1-1.3-2.2-2.7-3.2-4.1c-0.9-1.3-2-2.5-3.3-3.5c-0.1-0.6,0.1-1.1,0.4-1.6c0.3-0.5,0.4-1.1,0.2-1.6
			c-6.3,0.3-12.8,0.8-19.4,1.5c-6,0.7-12,0.7-18,0.1c-0.4-1.4-0.6-3-0.5-4.4c0.1-1.8-0.2-3.5-0.9-5.2c1.4-0.5,2.8-0.9,4.2-1.4
			c1.4-0.5,2.6-1.3,3.6-2.3c1.3,0.3,2.7,0.3,4,0c1.1-0.3,2.1-0.6,3-0.9c0.8-0.3,1.7-0.5,2.6-0.6c1-0.1,1.9,0.2,2.8,0.6
			c3.1-2.4,6.5-4.2,10.2-5.6c3.4-1.2,6.8-2.2,10.4-2.9c3.4-0.7,6.8-1.4,10.1-2c3.2-0.6,6.4-1.5,9.4-2.8c3.1-1.3,5.9-3.1,8.4-5.4
			c3-2.8,5.4-6.1,7.1-9.9c-0.2-1-0.3-1.9-0.4-2.9c0-0.6,0.1-1.3,0.2-1.9c0.1-0.6,0.2-1.2,0.3-1.8c0.1-1,0-2-0.1-3
			c-2.9-1.5-5.6-3.4-8.1-5.5c-2.5-2.2-4.6-5-6-8.1c0.1,0.8,0.1,1.3-0.2,1.5c-0.2,0.2-0.6,0.3-0.9,0.1c-0.4-0.2-0.7-0.3-1.1-0.5
			c-0.3-0.1-0.7-0.2-1.1-0.2c0,0.4,0,0.7,0.1,1.1c0.1,0.4,0.1,0.9,0.1,1.3c-1,0-1.9-0.7-2.1-1.7h-1.3c-0.3,0-0.5-0.2-0.7-0.7
			c-6.6,1.4-12.4,2.5-17.4,3.2c-5,0.7-9.9,1.5-14.5,2.4c-4.7,0.9-9.4,2-14.3,3.3s-10.4,3.2-16.6,5.5c-3.5,0.9-6.8,1.7-9.9,2.5
			c-3,0.7-5.8,1.6-8.6,2.8c-2.6,1.2-5.1,2.7-7.3,4.5c-2.3,1.9-4.2,4.3-5.6,6.9c0.8,3,1.3,6.1,1.5,9.3c0.3,3,0.6,6.1,1.2,9
			c0.5,3,1.3,5.9,2.2,8.8c1,3,2.6,5.7,4.7,8.1c-0.9,3.3-2.1,6.6-3.4,9.7c-1.2,2.9-2.4,5.8-3.6,8.6c-1.2,2.8-2.3,5.7-3.3,8.7
			s-2,6.2-2.9,9.6c-1-0.3-1.6,0-1.8,0.8c-0.1,0.3-0.2,0.7-0.5,0.9v-3.2c0-0.7,0.1-1.4,0.2-2.1l0.4-1.9c0.1-0.6,0.3-1.4,0.6-2.3
			c-0.5-10-2.4-18.7-5.6-26c-3.1-7.1-7.1-13.7-12.1-19.6c-4.9-5.7-10.2-11-16.1-15.7c-5.9-4.8-11.6-9.6-17.1-14.4
			c-3.8-1.2-7.5-2.6-11-4.3c-3.7-1.8-7.5-3.7-11.4-5.6s-7.8-4-11.8-6c-4-2-8-3.8-12.2-5.4c-1.1,2.3-1.8,4.8-2.1,7.3
			c-0.4,2.8-1.1,5.6-2.1,8.2c0.8,3.6,1.6,6.8,2.4,9.5c0.8,2.7,1.3,5.5,1.3,8.3h-3.1c-1,0-1.4,0.7-1.2,2.1c0.3,0.7,0.3,1.5,0,2.2
			c-0.3,1.3-0.5,2.6-0.6,3.9c1.9,8.6,3.2,17.3,3.9,26c0.8,9.1,0.6,18.3-0.4,27.4c-1,0.7-1.8,1.7-2.3,2.8c-0.4,4.9-1.2,9.8-2.3,14.5
			c-1.2,4.7-2.4,9.5-3.9,14.5c0.2,2-0.1,4.1-1.1,5.9c-0.9,1.6-1.6,3.3-2,5.1c0.4,4.5,0.7,8.9,1.1,13.1c0.3,3.9,0.9,7.8,1.9,11.6
			c0.9,3.3,2.4,6.4,4.5,9.1c2.2,2.7,5.2,4.6,8.6,5.5c8.7-4.8,17.5-9.4,26.6-13.7c9-4.2,17.8-9,26.2-14.2
			c8.3-5.1,16.1-11.1,23.2-17.8c6.9-6.7,12.6-14.5,16.8-23.1c0,0.8,0,1.7-0.2,2.5c-0.3,1.3-0.8,2.5-1.4,3.6
			c-0.6,1.2-1.2,2.4-1.7,3.6c-0.6,1.3-1,2.6-1.3,4c-0.4,2.9-0.5,5.9-0.3,8.8c0.2,3.2,0.5,6.4,1,9.6s0.9,6.3,1.4,9.4s0.8,5.8,1.1,8.1
			c1.6,0.9,2.7,2.5,3.2,4.2c0.4,1.6,1.2,3.2,2.2,4.5c3.1,3.6,7.1,6.2,11.6,7.5c4.7,1.4,9.6,2.2,14.5,2.4c5,0.2,10-0.2,15-0.9
			c5-0.8,9.3-1.6,12.9-2.4c1,0,2,0.2,3,0.6c1.2,0.4,2.4,0.4,3.6,0.1c5.8-1.2,11.1-2.3,15.8-3.2c4.4-0.8,8.7-2.1,12.8-4
			C520.1,169.2,523.6,166.6,526.5,163.4z M395.9,98.7c-2.2,2.8-4.6,5.3-7.4,7.5c-2.8,2.2-5.8,4.2-8.9,5.9c-3.2,1.7-6.5,3.4-9.7,4.9
			c-0.7,0.8-1.4,1.6-2.2,2.2c-0.9,0.8-1.6,1.8-2,2.9c-1.8,0.1-3.5,0.5-5.1,1.2c-1.5,0.6-2.9,1.3-4.3,2.1c-1.4,0.8-2.7,1.5-4,2.1
			c-1.4,0.7-2.9,1-4.5,1.2c1.2-7.7,2.1-14.8,2.7-21.3c0.6-6.4,0.9-12.8,0.9-19.2c-0.1-6.3-0.5-12.5-1.3-18.8
			c-0.8-6.2-1.9-12.9-3.5-19.9c0.6-0.7,1.6-1,2.5-0.9c1.7,1.7,3.8,3,6.2,3.6c3.2,1.1,6.3,2.6,9.1,4.6c2,0.1,4,0.7,5.7,1.6
			c1.6,0.9,3.1,1.9,4.5,2.9c1.4,1,2.9,2,4.5,3c1.6,1.1,3.5,1.7,5.4,2c0.8,2.3,2.1,4.4,3.6,6.2c1.5,1.8,3,3.5,4.6,5.2
			s3.2,3.3,4.6,4.9c1.6,1.8,2.8,3.8,3.8,6C400.1,92.3,398.2,95.7,395.9,98.7z"/>
		<path d="M605.3,153.1c0.7,1.3,1.3,2.7,1.9,4.2c0.6,1.6,1.3,3.2,1.9,4.9c2,2.7,4.3,5.1,6.8,7.3c2.3,1.8,4.8,3.5,7.3,4.9
			c0.8,0.5,1.6,0.9,2.4,1.4s1.8,1,2.8,1.6c5.6-0.1,11.2-1.3,16.4-3.5c5.2-2.2,10-5.1,14.4-8.6c4.6-3.6,9-7.5,13-11.7
			c4.1-4.3,8.2-8.7,12.2-13.3l2.3-2.8l4.1-4.5l2.7-3l1.9,4.4l3.3,7.3c0.5,1.1,1,2.1,1.5,3.2s0.9,2.1,1.3,3.2
			c3.1,7.2,6.2,13.7,9.5,19.5c2.9,5.5,7.3,10.1,12.8,13.2c0.8-0.8,1.6-1.4,2.6-1.9c1.1-0.5,2.3-0.7,3.6-0.7c1.6,0,3.1,0.3,4.7,0.7
			c6.6-4.8,12.4-10.6,17.1-17.2c5.1-7.1,9.6-14.6,13.5-22.4c4.1-8.4,7.7-16.9,10.9-25.7c3.3-9,6.5-18,9.6-27.1
			c2.4-7,4.9-14,7.3-20.9c2.5-6.9,5.1-13.6,7.9-20.1c-0.4-4.9-1.2-9.8-2.4-14.7c-1-3.8-2.5-7.5-4.5-11c-1.9-3.2-4.1-6.1-6.6-8.8
			c-2.8-2.9-5.8-5.6-9-8c-1.8,3-3.4,6.1-4.7,9.3c-1.6,3.7-3.3,7.7-4.9,12.2c-1.7,4.5-3.3,9.1-4.9,14.1c-1.6,4.9-3.2,9.9-4.8,14.9
			c-2.2,6.9-4.4,13.5-6.6,20s-4.4,12.5-6.7,18.1c-2,5.1-4.4,10-7,14.8c-1.9,3.7-4.4,7.1-7.5,10l-9.3,8.7c-0.9-1.5-1.5-3.2-1.8-5
			c-0.3-1.8-0.6-3.6-0.9-5.3c-0.3-1.9-0.4-3.7-0.4-5.6c0-2.5,0-4.4,0.1-5.9s0.2-3.1,0.5-5.2s0.7-4.8,1.4-8.4s1.6-8.9,2.9-15.9
			c0.4-2.4,0.8-4.8,1.3-7.3s0.9-5,1.3-7.4c0.4-2.4,0.7-4.6,1.1-6.7c0.3-2,0.5-3.7,0.7-4.9c-0.6-1.6-1.3-3.2-2.2-4.7l-2.8-4.7
			c-0.8-1.3-1.6-2.5-2.4-3.9s-1.7-2.9-2.6-4.6c-2.3-0.9-4.4-2.2-6.1-4c-1.9-1.9-3.5-3.7-4.9-5.4c-2.6,2.9-4.8,6-6.8,9.3
			c-2.5,4-5,8.3-7.5,13c-2.6,4.7-5.1,9.6-7.6,14.8c-2.5,5.2-4.9,10-7.3,14.5c-2.6,5.3-4.8,9.9-6.7,13.7c-1.9,3.8-3.7,7.3-5.4,10.6
			c-1.7,3.2-3.6,6.3-5.7,9.3c-2.1,3-4.6,6.2-7.5,9.8c-2.2,2.7-4.5,5.2-6.8,7.5c-2,2.1-4.1,4-6.3,5.9c-1.8,1.6-3.9,2.9-6.1,3.8
			c0.7-5.8,1.3-11.1,2-16c0.7-4.9,1.3-9,2-12.4c0.8-4.1,1.5-7.7,2.3-10.8c0.9-3.9,2.1-8.6,3.7-14s3.1-11,4.7-16.8
			c1.6-5.8,3.2-11.5,4.7-17.2s2.6-10.9,3.4-15.6c-2.7-2.3-5.1-4.9-7.3-7.6c-2.4-3-4.5-6.2-6.4-9.5c-0.9-0.4-1.8-0.9-2.5-1.5
			c-1-0.8-1.9-1.8-2.5-2.9c-2.8,0.6-5.5,2.6-7.9,5.9c-2.7,3.7-5,7.7-6.9,11.8c-2.2,4.9-4.2,10-5.8,15.2c-1.7,5.5-3.3,10.6-4.7,15.5
			c-1.5,5.5-3.1,12-4.5,19.7s-2.9,15.2-4.2,22.6c-1.3,7.5-2.4,14.3-3.3,20.6c-0.9,6.2-1.6,10.7-2,13.4c0.9,3.5,1.9,6.9,3.2,10.3
			C602.4,146,603.8,149.4,605.3,153.1z"/>
		<path d="M800.2,31.4c0.9,2.2,1.7,4.3,2.3,6.3c0.6,1.9,1.4,3.7,2.3,5.4c0.9,1.6,2.1,2.9,3.6,4c1.8,1.2,3.9,1.8,6.1,1.8
			c2-1.1,4.2-1.9,6.4-2.5c3-0.9,6.9-1.8,11.8-2.7c-0.5,5.6-1.4,11.1-2.8,16.5c-1.2,4.6-2.6,9.7-4.2,15.1c-0.2,3.3-0.8,6.6-1.7,9.7
			c-0.9,3.1-1.9,6.1-3.1,9.1c-1.2,3-2.3,6.2-3.6,9.6c-1.3,3.5-2.3,7.2-3,10.9c-1.5,4.1-3.2,8.3-4.8,12.8c-1.7,4.5-3.5,9.1-5.4,14
			c-2.5,0-5.1,0.2-7.5,0.6c-2.3,0.4-4.7,0.8-7,1.3s-4.7,0.9-7.2,1.4c-2.8,0.5-5.5,0.8-8.3,0.9c-0.9,0.9-1.7,1.9-2.5,2.9
			c-0.9,1.4-1.3,3.1-1.2,4.8c0.5,2.5,1,5.1,1.5,7.9c0.4,2.7,1,5.3,1.7,7.9c0.7,2.4,1.6,4.8,2.7,7c1,2.1,2.5,3.9,4.3,5.4
			c4.7-0.2,9.3-0.9,13.8-2.2c4.5-1.3,8.9-2.6,13.3-3.8c4.2-1.1,8.5-1.9,12.8-2.2c4.2-0.3,8.4,0.3,12.3,1.9c0.4-0.4,0.6-1,0.4-1.5
			c-0.2-0.5,0.1-1.1,0.6-1.3c0,0,0.1,0,0.1,0c3.1-0.3,6.5-0.7,10.1-1.2c3.7-0.5,7.4-0.4,11,0.2c0.9-1.2,1.8-2.4,2.9-3.4
			c0.8-0.9,2.1-1.4,3.3-1.1c0.9-1.4,1.8-3.1,2.8-4.9c0.9-1.7,1.6-3.6,1.9-5.5c0.3-1.7,0.2-3.4-0.5-5c-0.7-1.6-2.2-2.7-4.7-3.5
			c0.1-1.3-0.3-2.5-1.3-3.4c-0.9-0.7-1.8-1.3-2.8-1.8c-1-0.5-2-1-2.9-1.6c-1-0.9-1.7-2.2-1.7-3.5h-13.1c1-2.6,1.9-5,2.6-7.1
			s1.4-4.3,2.1-6.4s1.5-4.5,2.3-7s1.9-5.6,3.2-9.2c-0.1-1.6,0.4-5,1.6-10.2c1.2-5.2,2.7-11.2,4.4-17.8c1.7-6.7,3.3-13.5,4.9-20.4
			c1.4-6,2.6-12.1,3.4-18.2c3-0.1,6-0.3,9-0.4c0.2,0.8,0.5,1.5,0.7,2.2c0.3,1.1,0.6,2.2,0.7,3.4v2.6L876,50c0.6,0.2,1.3,1.1,2.1,2.8
			l1.3,1.9c1.2,0.9,2.6,1.5,4.1,1.8c1.1,0.2,2.3,0.3,3.5,0.3h9.9c1.2-0.5,2.4-0.8,3.7-0.7h4.7c0.9,0,1.8,0,2.7-0.1
			c1-0.1,2-0.5,2.9-1.1c0.8,0.2,1.7,0.3,2.5,0.2c1.6,0,3.3-0.3,4.8-0.7c0.8-0.2,1.5-0.3,2.2-0.3c0.8-0.1,1.6-0.1,2.4-0.1
			c-0.2,1.1-0.5,2.2-0.9,3.3c-0.5,1.3-0.9,2.5-1.5,3.8c-0.8,2-1.5,4-2.1,6c-0.7,1.9-1,4-1,6c-0.6,0.5-1.2,1-1.8,1.6l-2.1,2.6
			c-0.9,4.1-1.9,8.1-3.1,12s-2.4,7.8-3.7,11.5c-2.3,7-4.5,14.3-6.4,21.7c-1.9,7.4-2.8,16.6-2.5,27.5c0.7,1.2,1.2,2.4,1.5,3.8
			l1.1,4.7c0.4,2.1,0.9,4.3,1.5,6.3c0.6,2,1.4,3.9,2.4,5.6c0,0.6-0.1,1.7-0.2,3.3l2.1,1.4c0.9,0.7,2,1.3,3.1,1.6
			c0.3,0.3,0.6,0.5,1,0.6c0.4,0.1,0.7,0.3,1,0.6c0.5,0.9,1.2,1.7,2.1,2.2c0.8,0.4,1.7,0.9,2.9,1.5c0.4,0.8,1,1.5,1.5,2.1l2.7,0.2
			c5.4,0,9.3-1.8,11.6-5.4c2.2-3.1,2.9-7.5,2.1-13.1l-1.9-2.8c-1.1-0.3-2.2-1-2.9-1.9c-0.3-0.3-0.6-0.6-1-0.7
			c-0.4-0.1-0.7-0.4-1-0.7c-0.2-0.8-0.6-1.6-1-2.3c-0.4-0.6-0.8-1.3-1.2-1.9c-0.3-0.8-0.3-1.6-0.2-2.5c0.1-0.9,0.3-1.8,0.6-2.9
			l0.4-2.8c0.1-0.9,0.2-1.9,0.2-2.8c0.6-1.3,1-2.6,1.2-4c-0.1-0.7,0-1.4,0.2-2c0.3-0.9,0.5-1.7,0.8-2.5c0.7-1.9,1.2-3.9,1.5-5.9
			c0.4-0.7,0.8-1.4,1.1-2.1c0.4-1,1-1.8,1.7-2.6l0.8-3.5c0.7-2.2,1.4-4.8,2.2-8c0.8-3.1,2.3-6.1,4.2-8.7c0.6-3,1.5-6,2.6-8.9
			c1.1-2.8,2.4-5.5,3.9-8.1c0.9-3.9,1.9-7.5,2.9-10.7c1-3.2,2.1-6.4,3.3-9.5s2.3-6.3,3.3-9.4s2.2-6.7,3.5-10.8l7.7-1
			c2.8-0.4,5.8-0.8,8.9-1.3c4.3-0.8,8.6-1.5,13.2-2.1c3.3-0.5,6.7-0.8,10-0.9c-0.7,5.8-1.2,11.8-1.4,18c-0.3,7-0.9,13.9-1.8,20.9
			c-0.5-0.2-1.1-0.2-1.7-0.1c-0.4,0.1-0.7,0.4-0.9,1c0.6,1.9,0.8,3.8,0.8,5.8c0,2.5-0.2,4.9-0.6,7.4c-0.4,2.5-1,4.9-1.8,7.3
			c-0.7,2-1.7,3.9-3,5.6c-0.2,4.4-0.6,8.7-1.4,13c-0.7,4.7-2.4,9.2-4.8,13.3c0.5,1,0.7,2.2,0.6,3.3c-0.1,1-0.4,1.9-0.7,2.8
			c-0.3,1-0.6,2-0.9,3c-0.3,1.4-0.3,2.8,0,4.2c-0.5-0.6-0.9-0.7-1.3-0.4c-0.4,0.5-0.6,1.1-0.8,1.8c-0.2,0.8-0.4,1.6-0.5,2.5
			c-0.1,0.7-0.3,1.4-0.8,2c1.1,2.4,2,4.9,2.6,7.5c0.6,2.4,1.7,4.7,3.2,6.8c-0.5-0.3-0.9-0.3-1.3,0c-0.3,0.3-0.5,0.7-0.6,1.2
			c-0.1,0.5,0,1,0.1,1.4c0.1,0.5,0.4,0.6,0.8,0.5c0.1,0.6,0.5,1.1,1,1.4c0.7,0.5,1.4,1,2.2,1.6c0.9,0.7,1.7,1.4,2.4,2.2
			c0.7,0.8,1.2,1.8,1.2,2.9c3,1.9,5.5,2.9,7.7,2.9c2,0.1,4.1-0.3,5.9-1.2c1.9-0.9,3.6-1.9,5.3-3.2c1.8-1.3,3.8-2.3,5.9-3.1
			c0.3-0.7,0.3-1.5,0-2.2c-0.3-0.6-0.6-1.1-0.8-1.8c1.2,0.2,2.3-0.7,3.4-2.6c1.2-2.1,2.2-4.2,3-6.4c0.9-2.4,1.7-4.7,2.3-6.9
			c0.5-1.3,0.8-2.6,1-4c1.9-1.4,4.5-3.2,7.7-5.3c3.3-2.2,6.7-4.2,10.3-6.1c3.7-2,7.5-3.7,11.3-5.3c3.6-1.5,7.4-2.5,11.2-3
			c0,0.2-0.2,1.2-0.5,3.2s-0.7,4-1,6.2s-0.6,4.3-0.9,6.2s-0.4,3-0.4,3.2c-0.2,4.2,0.7,8.4,2.6,12.1c1.9,3.6,4.1,6.9,6.7,10l-1,2.1
			c1.5,0.4,2.9,1.2,4,2.2c1.1,1.1,2.3,2,3.6,2.9c2.7-1.1,5.5-2.3,8.2-3.6c5.8-2.7,10.2-7.6,12.4-13.6c1.3-3.9,1.8-8,1.4-12.1
			c-1.1-2.1-1.5-4.5-1.3-6.9c0.3-2.1,0.2-4.2-0.3-6.2c1.2-1.4,2.2-3,2.9-4.7c0.8-1.9,1.4-3.8,2-5.7c0.6-2,1.2-3.9,1.8-5.9
			c0.6-1.8,1.4-3.5,2.5-5c0.6-7.1,1.7-14.2,3.2-21.2c1.5-6.7,2.8-13.5,4-20.5c-0.1-6.1-0.3-12-0.6-17.7s-0.6-11.3-1-16.8
			c-2.4-2.3-4.3-5-5.7-8c-1.5-3.1-2.9-6.5-4.2-10s-2.6-7-3.9-10.4c-1.2-3.3-2.7-6.5-4.4-9.6c-2.9,0.8-5.4,2.6-7.2,5
			c-2,2.7-3.5,5.8-4.4,9c-1,3.6-1.6,7.4-1.7,11.1c-0.1,3.8,0.2,7.6,1,11.4c-1,0.3-1.9,1.1-2.3,2.1c-0.5,1-1.1,2-1.9,2.8
			c0.9,7.4,0.8,14.9-0.4,22.3c-1.2,7.3-2.1,14.8-2.9,22.3c-3.4,2.1-7,3.8-10.7,5.2c-3.8,1.4-7.7,2.7-11.6,3.8c-3.9,1-7.9,2-12,3
			s-8,2.1-11.7,3.2c0.5-1.6,0.4-2.5-0.4-2.7c-0.7-0.2-1.3-0.8-1.4-1.5c0.7-3.1,1.3-7,2-11.5s1.4-9.2,2.2-14
			c0.7-4.8,1.3-9.6,1.7-14.3s0.7-8.8,0.9-12.4c-1.4-3.2-3.1-6.4-5-9.4c-1.6-2.5-3.1-4.9-4.7-7.4c0-3.9-0.7-7-2.2-9.3
			c-1.6-2.5-3.6-4.9-5.7-7l-0.3-0.3c-0.3-1.1-0.7-2.3-0.9-3.5c-0.6,0.2-1.1,0.4-1.7,0.7c-0.7-0.9-1.3-1.8-1.7-2.8l-2.4-2.1
			c-1.8-0.3-3.7-0.6-5.6-0.7s-4-0.2-6.2-0.2c-5.2,0-10.4,0.4-15.5,1.2L966,7.3c-3.7,0.6-7.4,1.2-10.8,1.8c-3.5,0.5-6.9,1-10.3,1.3
			c-0.8-1.1-1.7-2.1-2.7-2.9c-1.2-1-3.2-1.4-6.2-1.3l-2.1,1.4c-0.3,0.6-0.5,1.2-0.7,1.6s-0.6,1.6-1.3,3.3
			c-6.8,0.5-13.2,1.2-19.2,2.1c-4.9,0.6-9.7,1.1-14.3,1.5c-0.7-2.7-2.2-5-4.4-6.6c-2.5-1.6-5.2-2.6-8.1-3.1c-3-0.5-6.1-0.7-9.1-0.7
			c-2.7,0-5.4-0.4-8-1.4c-6.2,0.5-12.9,0.9-20.2,1.2l-21,0.9c-1.6,1.3-3.6,2.1-5.6,2.5c-2.2,0.4-4.5,0.7-6.9,0.9l-7.3,0.7
			c-2.4,0.2-4.7,0.7-7,1.5c0.4,1.4,0.3,2.8-0.2,4.1c-0.5,1.8-1.3,2.9-2.3,3.2c1.3,1.3,2.1,3.3,2.3,6
			C800.9,27.3,800.7,29.4,800.2,31.4z"/>
		<path d="M1176,155.5c0.9,3.3,2.4,6.3,4.3,9.1c0.2,1.2,0.5,2.3,1,3.4c0.4,0.8,0.8,1.5,1.4,2.2c0.2,0.6,0.5,1.1,0.8,1.6
			c0.5,0.9,0.8,1.8,1.2,2.8c4.7,4.7,10.8,7,18.4,7c5.2,0,10.4-0.9,15.4-2.6c5.1-1.7,9.8-3.4,14.2-5.1c0.6-0.3,1.3-0.5,1.9-0.7
			c0.7-0.1,1.7-0.4,3.3-0.7c1.9,0,3.9-0.1,5.8-0.4c1.9-0.2,3.9-0.5,5.8-0.8s3.6-0.6,5.5-0.7s3.7-0.2,5.5-0.2
			c4.4-0.1,8.8,0.8,12.8,2.6c2.5-0.9,5.2-1.4,7.9-1.4c1.4,0,2.7-0.1,4.1-0.2c0.8-1,1.6-1.9,2.5-2.7c1.5-1,3.1-1.7,4.8-2l-0.4-3
			c0.5-1,0.8-2.1,0.8-3.3c0.1-0.6-0.3-1.8-1.4-3.5l-1.6-11c1.6,4.9,3.7,9.6,6.3,14c2.5,4.4,5.7,8.3,9.5,11.7
			c3.6,3.3,7.9,5.7,12.5,7.3c5,1.6,10.3,1.9,15.5,0.9c5.9,1.6,11.1,1.9,15.5,1.2c4.7-0.9,9.2-2.3,13.6-4.2c2.2,0.3,4.4,0.2,6.6-0.4
			c2.5-0.6,5-1.3,7.3-2.2c2.4-0.9,4.8-2,7.2-3.2c2.1-1,4.1-2.2,6-3.6c2.2-0.6,4.3-1.2,6.4-1.8c2.1-0.5,4-1.5,5.8-2.7
			c2.6-2.6,5.4-5,8.5-6.9c3.1-2,5.7-4.6,7.7-7.6c1.9-1.5,3.4-3.4,4.5-5.5c1.3-2.5,2.3-5.1,3.1-7.9c0.8-2.9,1.3-5.8,1.6-8.8
			c0.3-2.8,0.3-5.7,0-8.6c-0.3-2.1-0.7-4.1-1.3-6.1c-0.7-2-1.3-4-2-6.1c-0.7-2-1.3-4.1-1.7-6.2c-0.5-2.1-0.6-4.3-0.3-6.4
			c-3.8-7.5-7.2-15.2-10.1-23.1c-2.9-7.9-6.2-15.6-9.9-23.1c0.5-1.1,0.7-2.3,0.6-3.5c-0.1-1.1-0.6-1.7-1.3-1.8s-1.2-0.7-1.2-2
			c1.6-0.9,2.8-2.5,3.1-4.3c0.5-2.1,1.1-4.1,1.8-6c-0.2-1-0.5-1.9-0.9-2.8c-0.3-0.8-0.6-1.5-1-2.1c-0.4-0.7-0.6-1.4-0.9-2.1
			c-0.3-1-0.6-2-0.8-3c-0.7-0.1-1.1-0.1-1.3,0.2s-0.6,0.5-1.3,0.5c-0.1-1.5-0.8-2.9-1.7-4c-0.9-0.9-1.8-1.8-2.7-2.7
			c-0.9-0.8-1.8-1.8-2.6-2.7c-0.9-1.3-1.3-2.8-1.4-4.3c-1.4-2-3.6-3.3-6-3.6c-2.2-0.2-4.3-1-6.2-2.2c-1.6,1.3-3.1,2.7-4.4,4.2
			c-1.3,1.8-2.5,3.8-3.3,5.9c-1.3,0.3-2.7,0.4-4,0.5c-1.1,0-2.3,0.1-3.4,0.2c-1.8,3-3.3,5.4-4.6,7.3c-1.6,2.2-3.8,3.9-6.2,5.1v3
			c-1.2,0.4-2.3,1.1-3.3,1.9c-0.9,0.8-1.8,1.7-2.6,2.6c-0.8,0.9-1.7,1.8-2.7,2.6c-1,0.8-2.2,1.4-3.4,1.6c-0.6,1.3-1.3,2.5-2.2,3.5
			c-0.8,1-1.8,1.8-2.7,2.7c-1,0.9-1.9,1.8-2.7,2.7c-0.9,1-1.6,2.2-2,3.5c-0.8,0.4-1.5,0.9-2,1.6c-0.6,0.7-1.1,1.5-1.6,2.3
			c-0.4,0.7-0.9,1.4-1.6,1.9c-0.7,0.5-1.6,0.5-2.2,0l-12.9,18.5c-4.5,6.5-8.5,13.4-11.9,20.6c-3.6,7.7-6.2,15.7-7.9,24
			c-1.8,9.4-2.1,18.9-1,28.4c-1.4-1.3-3-2.4-4.7-3.3c-1.6-0.9-3.3-1.7-4.9-2.5c-1.9-0.8-3.8-1.6-5.4-2.5c-2-1.2-3.8-2.7-5.2-4.6
			c-0.5-0.1-1-0.2-1.6-0.2h-1.2c-0.6,0-1.3,0-1.9-0.1c-0.9-0.4-1.8-1-2.5-1.8c-4.2,0.5-8.4,0.7-12.6,0.7c-5.4,0.2-10.9,0.6-16.3,1.2
			c-5.4,0.6-10.6,2.3-15.2,5.2c-1.5-0.6-3.2-0.9-4.8-0.9c-1.4,0-2.9,0.3-4.3,0.7c0.2-6.2,1.1-12.4,2.7-18.4c1.5-5.4,3.2-10.8,5-16.3
			c1-3,2.1-6,3.1-9c1.2-3.9,2-7.8,2.3-11.8c0.8-0.8,1.4-1.7,1.8-2.7c0.4-1,0.7-2,1-2.9c0.3-0.8,0.5-1.6,0.7-2.3c0.3-1,0.8-2,1.4-2.8
			c0.5-3.5,1.2-7,2.3-10.3c0.9-2.8,1.9-5.6,2.9-8.4c0.9-2.5,1.8-5.1,2.7-7.9c1-3.1,1.8-6.3,2.5-9.5c0.8-0.7,1.5-1.6,1.9-2.6
			c0.5-4.1,0.2-7.4-1.1-10c-1.2-2.6-2.7-5.1-4.4-7.4l-3.3-3.5c-3.2-0.1-6.4-0.9-9.4-2.2c-3.3-1.3-6.5-2.9-9.6-4.8
			c-0.5,0-0.9,0.1-1.3,0.2c-0.3,0.1-0.7,0.3-1,0.5c-1,0.5-1.9,1.1-2.7,1.9c-1.9,9.4-4.1,18.2-6.5,26.5c-2.4,8.3-4.9,16.7-7.4,25.3
			c-1.4,4.7-2.9,9.6-4.4,14.7s-3,10.4-4.6,15.8c-0.1,0.3-0.3,0.7-0.4,1c-0.1,0.5-0.3,1-0.5,1.4c-0.7,1.7-1.3,3.6-1.9,5.6
			c-0.6,1.8-0.7,3.8-0.2,5.6c-1.4,2.2-2.4,4.6-2.9,7.2c-0.7,2.9-1.3,5.8-1.9,8.8c-0.3,1.7-0.6,3.4-1,4.9c-0.7,3.5-1.1,7-1.4,10.5
			c-0.3,3.7-0.2,7.4,0.2,11.1C1174.2,148.4,1175,152,1176,155.5z M1322.2,122.5c1.2-3.3,2.6-6.5,4.3-9.5c1.7-3,3.4-5.9,5.1-8.8
			c1.8-3.1,3.4-6.3,4.6-9.7c0.8-0.3,1.2-0.4,1.4-0.2s0.5,0,1.2-0.5c3.4-5.3,7.5-10.1,12.1-14.3c4.5-4.1,8.9-8.3,13.4-12.7
			c0.8,0.8,1.6,1.4,2.6,1.9c0.9,0.5,1.9,0.7,2.9,0.7c0.9,0,1.8-0.3,2.6-0.8c0.9-0.8,1.6-1.9,1.7-3.2c0.9,1.1,1.8,1.3,2.5,0.5
			c0.7-0.6,1.2-1.5,1.6-2.3c3.3,6.1,6.1,12.4,8.5,18.9c2.3,6.4,5.2,12.5,8.7,18.4c0,1.4,0.1,2.8,0.3,4.2c0.3,1.2,0.7,2.4,1.3,3.5
			c0,2.2-0.6,4.3-1.7,6.1c-1.1,1.5-1.9,3.2-2.5,4.9c-5,3.1-9.9,6.2-14.5,9.3c-4.5,3-9.7,4.9-15.1,5.5c-1,0-1.6,0.7-1.6,2.1
			c-3.4,0-6.8,0.4-10.1,1.2c-3.7,0.8-7.5,1.4-11.2,1.8c-3.6,0.4-7.3,0.3-10.9-0.2c-3.5-0.5-6.8-2.2-9.2-4.8
			C1320.2,130.3,1320.9,126.3,1322.2,122.5L1322.2,122.5z"/>
		<path d="M1653.7,22c0.1-1,0-2-0.1-3c-2.9-1.5-5.6-3.4-8.1-5.5c-2.5-2.2-4.6-5-6-8.1c0.1,0.8,0.1,1.3-0.2,1.5
			c-0.2,0.2-0.6,0.3-0.9,0.1c-0.4-0.2-0.8-0.3-1.2-0.5c-0.3-0.1-0.7-0.2-1.1-0.2c0,0.4,0,0.7,0.1,1.1c0.1,0.4,0.1,0.9,0.1,1.3
			c-1,0-1.9-0.7-2.1-1.6h-1.3c-0.3,0-0.6-0.2-0.7-0.7c-6.6,1.4-12.4,2.5-17.4,3.2c-5,0.7-9.9,1.5-14.5,2.3c-4.7,0.9-9.4,2-14.3,3.3
			c-4.9,1.3-10.4,3.2-16.7,5.5c-3.5,0.9-6.8,1.7-9.9,2.5c-3,0.7-5.8,1.6-8.6,2.8c-0.9,0.4-1.8,0.9-2.7,1.4c0.1-0.7,0.2-1.5,0.2-2.3
			c0.1-0.9-0.1-1.7-0.5-2.5l-1.7-5.6c-0.4-1.3-0.7-2.3-1-3s-0.6-1.6-0.9-2.5s-0.8-2.2-1.4-4.1c-1.4,0.3-2.8,0.3-4.3,0.1
			c-1-0.2-2-0.6-2.9-1.1l-2.7-1.4c-1.2-0.6-2.5-1-3.9-1.2c-6.8,8-13.1,16.3-19.1,24.9c-5,7.3-9.4,14.6-13.4,21.7s-8,14.6-11.9,22.3
			c-3.9,7.7-8.7,16.6-14.4,26.6c-1-4-1.6-8-1.8-12.1c-0.3-4.6-0.7-9.5-1-14.7s-0.7-10.4-1.2-15.7c-0.4-5.1-1.2-10.1-2.3-15.1
			c-1-4.5-2.6-9-4.7-13.1c-1.8-3.8-4.5-7-7.8-9.5c0.3-1.4,0.2-2.9-0.3-4.2c-0.5-1.5-1.2-2.9-2.1-4.1c-1.9-2.6-4.8-4.4-8-5
			c-1.4,1.6-2.8,3.2-4.4,4.6c-1.7,1.5-3,3.4-3.9,5.5c-0.9,2.8-1.3,5.7-1.3,8.6c-0.1,3.7,0.1,7.7,0.4,12.1c0.3,4.4,0.7,8.9,1.2,13.7
			c0.4,4.8,0.7,9.3,0.7,13.5c0,4.4-0.1,8.9-0.4,13.6c-0.3,4.5-0.1,9.1,0.6,13.6c0.2,1.8,0.7,3.6,1.4,5.3c0.7,1.6,1,3.3,0.9,5
			c-0.1,4.1,0.1,8.1,0.6,12.2c0.5,4.4,1.2,8.8,2,13.4c0.8,4.5,1.7,9.1,2.5,13.7c0.8,4.6,1.5,8.9,2,12.8c0.5,0,1,0.5,1.6,1.4
			c0.6,1.1,1,2.3,1.4,3.5c0.4,1.5,0.7,3.1,0.9,4.7c0.2,1.6,0.2,3.3-0.1,4.9c1,0.3,1.9,0.9,2.6,1.8c0.7,0.9,1.4,1.8,2.1,2.8
			c0.7,1,1.4,2.1,2,3.2c0.6,1,1.4,1.9,2.3,2.6c1.8,1.6,4.1,2.7,6.6,2.9c2.4,0.2,4.7-0.3,6.8-1.5c2.4-1.4,4.5-3.4,6.1-5.6
			c2-2.8,3.6-6,4.6-9.4c-0.1-1-0.2-2.1-0.1-3.2c0.1-0.9,0.2-1.7,0.3-2.5c0.1-0.8,0.2-1.6,0.2-2.3c0-1-0.2-2-0.4-3
			c3.1-3.5,6-7.3,8.4-11.4c2.7-4.3,4.3-9.1,4.5-14.2c0.7,0.1,1.3-0.3,1.7-0.9c0.3-0.6,0.6-1.3,1-1.9c0.3-0.6,0.6-1.1,1.1-1.6
			c0.4-0.5,1.1-0.8,1.8-0.7c2.7-7.7,6-15.1,10-22.2c3.9-6.9,8-13.7,12.3-20.2s8.5-12.7,12.8-18.6c2.3-3.2,4.5-6.4,6.6-9.6
			c0.2,1.2,0.3,2.3,0.5,3.5c0.5,3,1.3,5.9,2.2,8.8c1,3,2.6,5.7,4.7,8.1c-0.9,3.3-2.1,6.6-3.4,9.7c-1.2,2.9-2.4,5.8-3.6,8.6
			c-1.2,2.8-2.3,5.7-3.3,8.7s-2,6.2-2.9,9.6c-1-0.3-1.6,0-1.8,0.8c-0.1,0.8-0.7,1.4-1.5,1.5c0.3,1.2,0.2,2.5-0.1,3.8
			c-0.3,1.3-0.8,2.5-1.4,3.6c-0.6,1.2-1.2,2.4-1.7,3.6c-0.6,1.3-1,2.6-1.3,4c-0.4,2.9-0.5,5.9-0.3,8.8c0.2,3.2,0.5,6.4,1,9.6
			s0.9,6.3,1.3,9.4s0.8,5.8,1.1,8.1c1.6,0.9,2.7,2.5,3.2,4.2c0.4,1.6,1.2,3.2,2.2,4.5c3.1,3.6,7.1,6.2,11.6,7.5
			c4.7,1.4,9.6,2.2,14.5,2.4c5,0.2,10-0.2,15-0.9c5-0.8,9.3-1.6,12.9-2.4c1,0,2,0.2,3,0.6c1.2,0.4,2.4,0.4,3.6,0.1
			c5.8-1.2,11.1-2.3,15.8-3.2c4.4-0.8,8.7-2.1,12.8-4c3.9-1.9,7.4-4.4,10.3-7.6c3-3.3,5.8-8,8.2-14.1c-1,0.2-1.8,0-2.1-0.6
			c-0.4-0.7-0.7-1.4-0.9-2.2c-0.2-0.9-0.4-1.9-0.6-3.1c-0.2-1-0.6-2-1.3-2.8c-1.2,0.4-2.6,0-3.5-0.9c-1-1-1.9-2.2-2.6-3.4
			c-0.8-1.3-1.7-2.7-2.6-4c-0.8-1.2-1.9-2.2-3.3-2.7c-3.8,1.4-7.7,2.5-11.7,3.2c-3.9,0.6-7.7,1.9-11.1,3.9c-4-0.2-8.1,0-12.1,0.5
			c-3.3,0.5-6.5,0.9-9.6,1.4c-3.3,0.5-6.6,0.8-9.9,0.9c-4.4,0.1-8.8-0.3-13.2-1.2c1.5-4.8,3.3-9.6,5.4-14.2
			c2.1-4.5,4.3-8.7,6.6-12.8c2,0.8,4.1,1.2,6.3,1.2c2.2,0,4.3,0.4,6.3,1.2c1.6-0.8,3.5-1.1,5.3-0.8c1.8,0.3,3.6,0,5.1-0.8
			c0.4,0.5,1,0.8,1.7,0.9h1.6c3.4,0.2,6.8-0.3,10.1-1.4c3-1.1,5.9-2.5,8.6-4.2c2.7-1.7,5.2-3.7,7.7-5.8c2.5-2.1,5-4.2,7.6-6.2
			c0.6-1.7,0.8-3.6,0.6-5.4c-0.3-1.7-0.7-3.3-1.4-4.9c-1.4,0.2-2.9-0.2-4.1-1.1c-1.3-1-2.4-2.1-3.4-3.3c-1.1-1.3-2.2-2.7-3.2-4.1
			c-0.9-1.3-2-2.5-3.3-3.5c-0.1-0.6,0.1-1.1,0.4-1.6c0.3-0.5,0.4-1.1,0.2-1.6c-6.3,0.3-12.8,0.8-19.4,1.5c-6,0.7-12,0.7-18,0.1
			c-0.4-1.4-0.6-3-0.5-4.4c0.1-1.8-0.2-3.5-0.9-5.2c1.4-0.5,2.8-0.9,4.2-1.4c1.4-0.5,2.6-1.3,3.6-2.3c1.3,0.3,2.7,0.3,4,0
			c1.1-0.3,2.1-0.6,3-0.9c0.8-0.3,1.7-0.5,2.6-0.6c1-0.1,1.9,0.2,2.8,0.6c3.1-2.4,6.6-4.3,10.3-5.6c3.4-1.2,6.8-2.2,10.4-2.9
			c3.4-0.7,6.8-1.4,10.1-2c3.2-0.6,6.4-1.5,9.4-2.8c3.1-1.3,5.9-3.1,8.4-5.4c3-2.8,5.4-6.1,7.1-9.9c-0.2-1-0.3-1.9-0.4-2.9
			c0-0.6,0.1-1.3,0.2-1.9C1653.6,23.3,1653.7,22.6,1653.7,22z"/>
		<path d="M310,436.4c0.1-1.3-0.3-2.5-1.3-3.4c-0.9-0.7-1.8-1.3-2.8-1.8c-1-0.5-2-1-2.9-1.6c-1-0.9-1.7-2.2-1.8-3.5h-13.2
			c1-2.6,1.9-5,2.6-7.1s1.4-4.3,2.1-6.5s1.5-4.5,2.3-7s1.9-5.5,3.2-9.1c-0.1-1.6,0.4-5,1.6-10.2c1.2-5.2,2.7-11.2,4.4-17.8
			c1.7-6.7,3.3-13.5,4.9-20.4c1.4-6,2.6-12.1,3.4-18.2c3.9-0.1,7.8-0.3,11.9-0.6c3.9-0.2,7.8-0.7,11.7-1.4c3.5-0.6,7-1.6,10.4-2.8
			c2.9-1,5.5-2.6,7.8-4.6c0-1.6,0-3.2,0.1-4.8c0.1-1.5,0-3-0.3-4.5c-0.2-1.3-0.9-2.5-1.8-3.4c-1.2-1.1-2.7-1.7-4.4-1.9
			c-0.9-3.9-2.5-6.6-4.9-8.2c-2.5-1.6-5.2-2.6-8.1-3c-3-0.5-6.1-0.7-9.1-0.7c-2.7,0-5.4-0.4-8-1.4c-6.2,0.5-12.9,0.9-20.2,1.2
			l-21,0.9c-1.6,1.3-3.6,2.1-5.6,2.5c-2.2,0.4-4.5,0.7-6.9,0.9l-7.3,0.7c-2.4,0.2-4.7,0.7-7,1.5c0.4,1.4,0.3,2.8-0.2,4.1
			c-0.5,1.8-1.3,2.9-2.3,3.2c1.3,1.3,2.1,3.2,2.3,6c0.3,2.1,0.2,4.2-0.4,6.2c0.9,2.2,1.7,4.3,2.3,6.3c0.6,1.9,1.3,3.7,2.3,5.4
			c0.9,1.6,2.1,2.9,3.6,4c1.8,1.2,3.9,1.9,6.1,1.9c2-1.1,4.2-1.9,6.4-2.5c3-0.9,6.9-1.8,11.8-2.7c-0.5,5.6-1.4,11.1-2.8,16.5
			c-1.2,4.6-2.6,9.7-4.2,15.1c-0.2,3.3-0.8,6.6-1.8,9.7c-0.9,3.1-1.9,6.1-3.1,9.1s-2.4,6.2-3.6,9.6c-1.3,3.6-2.3,7.2-3,10.9
			c-1.5,4.1-3.2,8.3-4.8,12.8s-3.5,9.1-5.4,14c-2.5,0-5.1,0.2-7.6,0.6c-2.3,0.4-4.7,0.8-7,1.3c-2.3,0.5-4.7,0.9-7.2,1.4
			c-2.7,0.5-5.5,0.8-8.3,0.9c-0.9,0.9-1.7,1.9-2.5,2.9c-0.9,1.4-1.3,3.1-1.2,4.8c0.5,2.5,1,5.1,1.4,7.9c0.4,2.6,1,5.3,1.7,7.9
			c0.7,2.4,1.6,4.8,2.7,7c1,2.1,2.5,3.9,4.4,5.4c4.7-0.2,9.3-0.9,13.7-2.2c4.5-1.3,8.9-2.6,13.3-3.8c4.2-1.1,8.5-1.9,12.8-2.2
			c4.2-0.3,8.4,0.3,12.3,1.9c0.4-0.4,0.6-1,0.4-1.5c-0.2-0.5,0.1-1.1,0.6-1.3c0,0,0.1,0,0.1,0c3.1-0.3,6.5-0.7,10.1-1.2
			c3.7-0.5,7.4-0.4,11,0.2c0.9-1.2,1.8-2.3,2.9-3.4c0.8-0.9,2.1-1.3,3.3-1c0.9-1.4,1.8-3.1,2.8-4.9c0.9-1.7,1.6-3.6,1.9-5.5
			c0.3-1.7,0.2-3.4-0.5-5C314,438.3,312.4,437.1,310,436.4z"/>
		<path d="M451.4,306.2c-2.2-0.4-4.2-1.4-5.8-2.8c-1.6-1.4-3.1-3-4.5-4.6c-1.4-1.6-2.9-3.1-4.5-4.5c-1.7-1.4-3.7-2.2-5.9-2.5
			c-1.1,2.4-1.9,4.8-2.4,7.4c-0.6,2.7-1.2,5.4-1.7,8.1c-0.6,2.6-1.3,5.2-2.1,7.7c-0.7,2.3-1.9,4.4-3.4,6.3c-1.2,9.1-2.3,18-3.4,26.7
			c-1,8.3-2.6,16.5-4.7,24.6c-1.8,7.3-4.6,14.3-8.1,20.9c-3.2,6.1-7.8,11.3-13.5,15.2c-0.9-4.6-1.4-9.3-1.5-14.1
			c-0.1-4.5-0.1-9,0-13.3s0.3-8.5,0.4-12.7c0.1-4.1,0-8.2-0.4-12.3c0.5,0.2,0.9,0.1,1.1-0.1c0.2-0.2,0.4-0.5,0.5-0.8
			c0.1-0.3,0.3-0.6,0.5-0.8c0.3-0.3,0.7-0.4,1.1-0.4c-0.5-1.6-0.6-3.2-0.3-4.8c0.3-1.1,0.7-2.2,1.3-3.3c0.5-1.1,0.9-2.2,1.2-3.4
			c0.2-1.7,0-3.5-0.6-5.2c0.6,0.3,1.1,0.3,1.4-0.1s0.7-0.5,1.4-0.4c-0.5-0.8-0.9-1.6-1-2.6c0-0.5,0-1,0.2-1.5
			c0.1-0.4,0.2-0.8,0.1-1.2c-0.2-0.7-0.6-1.4-1.1-2c0.3-0.6,0.6-0.8,1-0.5s0.7,0,1-0.9c-0.6-4.4-1.9-8.6-4-12.5
			c-1.9-3.6-4.4-6.9-7.3-9.7c-2.8-2.8-6-5.3-9.4-7.4c-3.4-2.1-6.9-3.9-10.5-5.5c-4,10.7-8.2,21.5-12.5,32.5
			c-4.3,11-8.7,21.9-13,32.8c-4.3,10.9-8.6,21.6-12.9,32.1s-8.3,20.7-12,30.4c1,1.4,1.6,3.1,1.8,4.8c0.3,1.8,0.8,3.6,1.5,5.3
			c-0.4,0-0.8,0-1.3-0.1c-0.5-0.1-0.7,0.2-0.7,0.8c1.3,3.1,2.4,6.2,3.4,9.4c1.1,3.6,2.4,7.1,3.9,10.5c1.4,3.3,3.2,6.5,5.2,9.5
			c1.8,2.7,4.4,4.8,7.5,6c1.1-0.3,2-0.7,2.9-1.4c0.8-0.6,2.1-0.8,3.9-0.5c-0.3-1.3-0.5-2-0.9-2.1s-0.2-0.6,0.3-1.4
			c2.5,0.1,4.2-0.4,5.1-1.8c1-1.4,1.7-3.1,2-4.8c0.4-1.9,0.7-3.8,1-5.8c0.2-1.8,1-3.5,2.3-4.8c-0.6-1.5-0.8-3.1-0.5-4.7
			c0.3-1.4,0.8-2.7,1.5-3.9c0.6-1.2,1.3-2.4,2-3.5c0.7-1.2,1.2-2.5,1.5-3.9c1,0,1.8-0.7,2.3-2.1s1-3,1.5-4.7
			c0.5-1.7,1.1-3.3,1.7-4.9c0.5-1.4,1.5-2.5,2.9-3c2.6,9.2,6.7,18,12,26c4.9,7.2,10.6,13.7,17,19.5c4.3,1.9,7.7,2.5,10.4,2
			c2.6-0.5,5-1.7,7-3.4c2-1.7,3.8-3.6,5.5-5.6c1.6-2,3.6-3.7,5.8-4.9c-0.6-1.9-0.7-3-0.1-3.4s0.8-1.3,0.7-2.7c1,0.2,1.6,0.4,1.8,0.8
			s0.5,0.3,1.2-0.4c1.6-3.4,3-6.9,4.5-10.3c1.3-3.3,3.3-6.2,5.8-8.7c0.7-4.5,1.8-8.9,3.1-13.3c1.4-4.8,2.7-9.4,3.9-14
			c-0.1-4.6,0-9.2,0.6-13.8c0.5-4.2,1.1-8.3,1.7-12.2c0.6-3.9,1.4-7.9,2.1-12c0.8-4.3,1.4-8.7,1.7-13.1c1.4-1.1,2.5-2.4,3.3-4
			c0.8-1.6,1.4-3.4,1.8-5.2c0.5-1.9,0.9-3.8,1.3-5.6c0.4-1.8,0.9-3.5,1.7-5.1c-0.5-3.4-1.5-6.7-3.1-9.7
			C454.9,312.3,453.3,309.3,451.4,306.2z"/>
		<path d="M1067.3,390.4c0.9-2.4,1.6-4.6,2.2-6.7c0.6-2.2,1-4.4,1.3-6.7c0.3-2.5,0.4-5.1,0.4-7.6c0-2.7-0.1-6.5-0.4-11.1
			c1.1-2.5,1.9-5.1,2.4-7.7c0.7-2.9,0.9-5.9,0.5-8.9l-0.6-5.1l4.3,0.5c-0.3-0.8-0.4-1.4-0.6-2c-0.1-0.6-0.3-1.2-0.6-1.8
			c-0.5-1.6-1-3.2-1.3-4.8c-0.4-1.7-0.5-3.4-0.2-5c-2.9-2.6-4.9-6.1-5.8-9.8c-0.3-1-0.9-1.9-1.6-2.6c-0.7-0.6-1.6-1.3-2.6-2.1
			l-0.8-0.5c-0.5-0.4-0.9-0.7-1.3-1.2c-1.1-1.3-1.8-3-1.8-4.7c-0.3-0.3-0.7-0.5-1.1-0.7c-0.4-0.2-0.7-0.4-1.1-0.7
			c-1.8-1.1-3.6-2-5.4-2.9c-1.7-0.8-3.5-1.3-5.4-1.3c-1.8,0-3.5,0.6-4.8,1.6c-2.2,7.1-5.8,13.8-10.4,19.6c-4.3,5.1-8.8,10-13.5,14.6
			c-2.5,2.5-4.8,5-7.1,7.4c-2.3,2.4-4.7,5.2-7.5,8.3c-1.3,0.4-2.5,0.9-3.6,1.6c-1.4,0.9-2.7,1.9-4,3c-1.8,1.4-3.7,2.8-5.8,4.2
			c-2.1,1.4-4.5,2.1-7,2.1c-2.1-0.1-4.2-0.7-6-1.9l-1.3-1.9c-0.4-1.6-0.5-3.2-0.5-4.8c0.1-1.5,0.2-2.9,0.3-4.1
			c0.2-1.3,0.4-2.7,0.4-4c-0.1-1.1-0.4-2.1-1-3l-0.2-2.6c1.7-4.5,1.7-9.4,0-13.8c-1.8-4.5-4-8.9-6.4-13.1c-0.5-0.8-1-1.7-1.5-2.6
			c-0.5-0.9-0.9-1.9-1.5-2.8c-1.4-0.1-2.7-0.5-4-1.1c-1.4-0.6-2.9-1.1-4.4-1.5c-0.5-0.1-1-0.3-1.5-0.6c-0.7-0.6-1.1-1.4-1.3-2.2
			l-0.6-3.3c-0.9-1.2-1.9-2.3-3.1-3.2c-1.3-0.9-2.6-1.8-4.1-2.5c-2.4,1-4.6,2.3-6.6,3.9c-1.8,1.5-3.5,3.3-4.9,5.2
			c-1.6,2.1-2.9,4.3-4.1,6.6c-1.2,2.4-2.6,5-4,7.9c-0.9,1.7-1.8,3.6-2.8,5.6s-2,4.1-3.2,6.3c-2.2,4.1-4.2,8.3-5.9,12.5
			c-2.3,5.4-4.6,11.4-7.1,17.9c-2.5,6.6-4.9,13.3-7.3,20c-2.5,6.8-4.7,13-6.6,18.5s-3.5,10.1-4.7,13.7c-1.2,3.6-1.8,5.5-1.8,5.6
			c-1.5,4.5-2.2,9.2-2.2,14c0,2.9,0.1,5.8,0.3,8.7l-5.6-0.8c-2.1-0.3-4-0.7-5.8-1.1s-3.8-0.9-6.1-1.6s-5.4-1.6-9.4-2.7
			s-7.1-2-9.4-2.8c-2.2-0.7-4.3-1.7-6.2-2.9c-2.1-1.3-4.1-2.8-6-4.3c-2.1-1.7-5.1-4-9-6.8c0.3-0.9,0.1-1.4-0.5-1.4s-0.9-0.3-0.9-0.9
			c5.6-2.8,11.3-5.3,17.2-7.4c6.3-2.2,12.3-4.9,18.1-8.1c5.6-3.1,10.4-7.4,14.3-12.4c3.9-5.1,6.2-11.8,6.7-20c0-1.9-0.2-3.7-0.7-5.5
			c-0.2-0.7-0.3-1.4-0.4-2.1c-0.1-0.8,0-1.7,0.3-2.5c-1.2-2.8-2.3-5.7-3.1-8.7c-0.9-3.1-1.8-6.2-2.8-9.3c-0.9-3-2-5.9-3.3-8.7
			c-1.1-2.6-2.7-5-4.5-7.1v-3.5c-1-0.8-2-1.6-3-2.5c-1-0.9-2-1.7-3-2.5c-2.3-4.4-5.6-8.3-9.5-11.4c-3.9-3.1-7.4-5.9-10.5-8.6
			c-5.6,0.6-10.8,3.1-14.9,7c-4.1,4-7.7,8.6-10.8,13.5c-3.2,5.1-6.3,10.3-9.4,15.6c-2.9,5-6.5,9.6-10.6,13.6c-0.9-1.5-2.3-2.6-4-3.2
			c-1.8-0.8-3.8-1.1-5.7-0.8c-1.6,4.4-2.9,8.9-3.8,13.5c-1,4.8-1.8,9.7-2.6,14.8c-0.8,5.1-1.6,10.2-2.6,15.4c-1,5.1-2.3,10.1-4,15
			c0.1,0.9,0.2,2.1,0.3,3.6c0.1,1.4,0,2.8-0.2,4.2c-0.1,1.1-0.4,2.2-0.8,3.3c-0.3,0.9-0.8,1-1.5,0.6c0.9,2.6,1.1,5.4,0.7,8.1
			c-0.5,2.6-1,5.2-1.6,8c-0.7,2.7-1.2,5.5-1.7,8.4c-0.2,1.1-0.2,2.3-0.2,3.5c0-0.2-0.1-0.3-0.1-0.5c-0.2-0.9-0.4-2-0.6-3
			c-0.2-1-0.6-2-1.3-2.8c-1.2,0.4-2.6,0-3.5-0.9c-1-1-1.9-2.2-2.6-3.4c-0.8-1.3-1.7-2.7-2.6-4c-0.8-1.2-1.9-2.2-3.3-2.7
			c-3.8,1.4-7.7,2.5-11.7,3.1c-3.9,0.6-7.7,1.9-11.1,3.9c-4-0.2-8.1,0-12.1,0.5c-3.3,0.5-6.5,0.9-9.6,1.4c-3.3,0.5-6.6,0.8-9.9,0.9
			c-4.4,0.1-8.8-0.3-13.2-1.2c1.5-4.8,3.3-9.6,5.4-14.2c2.1-4.5,4.3-8.7,6.6-12.8c2,0.8,4.1,1.2,6.3,1.2c2.2,0,4.3,0.4,6.3,1.2
			c1.6-0.8,3.5-1.1,5.3-0.8c1.8,0.3,3.6,0,5.1-0.8c0.4,0.5,1,0.8,1.6,0.9h1.6c3.4,0.2,6.8-0.3,10.1-1.4c3-1.1,5.9-2.5,8.6-4.2
			c2.7-1.7,5.2-3.7,7.7-5.8c2.4-2.1,5-4.2,7.5-6.2c0.6-1.7,0.8-3.6,0.6-5.4c-0.3-1.7-0.7-3.3-1.4-4.9c-1.4,0.2-2.9-0.2-4.1-1
			c-1.3-1-2.4-2.1-3.4-3.3c-1.1-1.3-2.2-2.7-3.2-4.1c-0.9-1.3-2-2.5-3.3-3.5c-0.1-0.6,0.1-1.1,0.4-1.6c0.3-0.5,0.4-1.1,0.2-1.6
			c-6.3,0.3-12.8,0.8-19.4,1.5c-6,0.7-12,0.7-18,0.1c-0.4-1.4-0.6-3-0.5-4.5c0.1-1.8-0.2-3.5-0.9-5.2c1.4-0.5,2.8-0.9,4.2-1.4
			c1.4-0.5,2.6-1.3,3.6-2.4c1.3,0.3,2.7,0.3,4,0c1.1-0.3,2.1-0.6,3-0.9c0.8-0.3,1.7-0.5,2.6-0.6c1-0.1,1.9,0.2,2.8,0.6
			c3.1-2.4,6.6-4.3,10.3-5.6c3.4-1.2,6.8-2.2,10.4-2.9c3.4-0.7,6.8-1.4,10.1-2c3.2-0.6,6.4-1.5,9.4-2.8c3.1-1.3,5.9-3.1,8.4-5.4
			c3-2.8,5.4-6.1,7.1-9.9c-0.2-1-0.3-1.9-0.4-2.9c0-0.6,0.1-1.3,0.2-1.9c0.1-0.6,0.2-1.2,0.3-1.8c0.1-1,0-2-0.1-3
			c-2.9-1.5-5.6-3.4-8.1-5.5c-2.5-2.2-4.6-5-6-8.1c0.1,0.8,0.1,1.3-0.2,1.5c-0.2,0.2-0.6,0.3-0.9,0.1c-0.4-0.2-0.8-0.3-1.2-0.5
			c-0.3-0.1-0.7-0.2-1.1-0.2c0,0.4,0,0.7,0.1,1.1c0.1,0.4,0.1,0.9,0.1,1.3c-1,0-1.9-0.7-2.1-1.6h-1.3c-0.3,0-0.6-0.2-0.7-0.7
			c-6.6,1.4-12.4,2.5-17.4,3.2c-5,0.7-9.9,1.5-14.6,2.3c-4.7,0.9-9.4,2-14.3,3.3s-10.4,3.2-16.7,5.5c-3.5,0.9-6.8,1.8-9.9,2.5
			c-3,0.7-5.8,1.6-8.6,2.8c-2.6,1.2-5.1,2.7-7.3,4.5c-2.3,1.9-4.2,4.3-5.6,6.9c0.8,3,1.3,6.1,1.5,9.3c0.3,3,0.6,6,1.2,9
			c0.5,3,1.3,5.9,2.2,8.8c1,3,2.6,5.7,4.7,8.1c-0.9,3.3-2.1,6.6-3.4,9.7c-1.2,2.9-2.4,5.7-3.6,8.6c-1.2,2.8-2.3,5.7-3.3,8.7
			s-1.9,5.9-2.8,9.2c-1.1-1.4-2.2-2.8-3.4-4.2c-1.5-2-3.2-3.8-4.8-5.6c-1.7-1.8-3.8-3.4-6-4.6c-2.5-1.7-5.1-3.5-7.9-5.3
			c-2.8-1.8-5.6-3.6-8.3-5.3c-2.7-1.7-5.3-3.4-7.7-5.1c-2.2-1.5-4.3-3.1-6.2-4.9l-16.1,12.9c-0.2,1.4-0.6,2.7-1.2,4
			c-0.6,1.3-0.9,2.8-1,4.2c0.5,0.3,0.9,0.3,1.1,0c0.2-0.3,0.3-0.6,0.4-0.9c0.1-0.3,0.2-0.6,0.3-0.9c0.1-0.3,0.5-0.3,1.2,0
			c0.9,0.8,1.4,1.9,1.3,3c0,1.2-0.5,2.4-1.3,3.3c0.1,3.2,0.9,6.3,2.4,9.1c1.3,2.2,3,4.2,5.1,5.6c-0.6,0.8-1.2,1.6-2,2.2
			c-0.7,0.5-0.9,1.4-0.4,2.1c0.1,0.1,0.2,0.2,0.3,0.3c2.1,0.8,4.2,1.6,6.2,2.6l-23.2,7.4c-8,2.5-16.2,4.3-24.6,5.3
			c-0.6,0.3-1.1,0.9-1.2,1.6c-0.1,0.7-0.5,1.4-1,1.9c-4.1-1.1-8.5-1.4-12.7-1c-4.6,0.4-9.2,0.4-13.8,0.1c-0.2-0.8-0.6-1.5-1.1-2.1
			c-0.5-0.6-0.8-1.4-1.1-2.1c2.6-5.5,5.6-10.7,8.9-15.8c3.5-5.4,7.2-10.6,11.2-15.7s8.2-9.9,12.5-14.4c4.3-4.5,8.6-8.7,12.9-12.4
			c4.1-3.6,8.4-7,12.9-10c4.3-2.9,8.6-5.6,12.8-8.1c4.2-2.5,8.2-4.9,12-7.1c3.6-2.1,7.1-4.5,10.4-7.2c-0.3-0.9-0.3-1.8,0.1-2.7
			c0.4-0.7,0.5-1.5,0.5-2.2c0-1.1-0.5-1.6-1.4-1.6s-1.3-0.5-1.3-1.6c1.2,0,1.7-0.4,1.7-1.2c0-0.9-0.1-1.7-0.4-2.6
			c-0.2-0.8-0.4-1.7-0.5-2.6c-0.1-0.8,0.3-1.2,1.3-1.2c-0.7-2.5-2.1-4.8-4-6.7c-1.7-1.6-3.6-3-5.6-4.2c-2-1.2-3.9-2.4-5.8-3.5
			s-3.4-3.2-4.5-6.2c-0.9-0.3-1.8-0.3-2.6,0.1c-0.8,0.4-2,0-3.4-1.1c-4.1,4.3-8.6,8.3-13.4,11.8c-5,3.6-9.9,7.1-14.8,10.5
			s-9.6,7-14.1,10.8c-4.4,3.6-8.3,7.8-11.6,12.4c-1.3,0.3-2.5,0.9-3.5,1.8c-0.9,0.9-1.7,1.9-2.4,2.9c-0.7,1.1-1.4,2.2-2.1,3.4
			c-0.8,1.3-1.7,2.4-2.8,3.4c-7.2,6.9-13.4,14.7-18.3,23.3c-5.3,9.2-9.8,18.8-13.6,28.7c0.3,1.8,0.2,3.6-0.2,5.4
			c-0.4,1.5-0.6,3.1-0.6,4.7c0.3,0.3,0.6,0.6,1,0.8c0.4,0.2,0.5,0.8,0.4,1.5c0.7,16.4,4.3,29.3,10.8,38.7c6.6,9.4,15.7,14.4,27.3,15
			c1.8,0.1,3.7-0.1,5.4-0.7c1.8-0.6,3.7-0.9,5.6-0.9h5.2c2.3,0,4.7-0.3,7-0.7c0.4-0.3,0.7-0.7,0.9-1.2c0.2-0.5,0.6-0.6,1.3-0.5
			c1.6-0.1,3.1-0.4,4.7-0.7l4.3-0.9c1.5-0.3,3-0.6,4.5-0.7c1.9-0.2,3.7-0.3,5.6-0.2c5-2.3,10.2-4.4,15.4-6.2
			c5.2-1.8,10.4-3.5,15.6-5.2s10.2-3.4,15.1-5.2c4.8-1.8,9.5-4,13.8-6.7c2-1.3,4-2.6,5.9-4.1c0.4,3,0.8,5.9,1.3,8.7
			c0.4,3,0.8,5.7,1.1,8.1c1.6,0.9,2.7,2.5,3.2,4.2c0.4,1.6,1.2,3.2,2.2,4.5c3.1,3.6,7.1,6.2,11.6,7.5c4.7,1.4,9.6,2.2,14.5,2.4
			c5,0.2,10-0.2,15-0.9c5-0.8,9.3-1.6,12.9-2.4c1,0,2,0.2,3,0.6c1.2,0.4,2.4,0.4,3.6,0.1c5.8-1.2,11.1-2.3,15.8-3.2
			c4.4-0.8,8.7-2.1,12.8-4c3.9-1.9,7.4-4.4,10.3-7.6c2.1-2.3,3.9-5,5.3-7.8c0.2,0.4,0.4,0.9,0.5,1.3c0.5,1.3,1.1,1.9,1.8,1.8
			c-0.4,1.1-0.5,2.2-0.3,3.3c0.2,0.9,0.4,1.8,0.7,2.7c0.3,0.9,0.5,1.9,0.6,2.8c0.1,1.2,0,2.5-0.4,3.6c1.7-0.1,2.7,0.4,3.1,1.8
			s0.8,2.7,1.2,4.1c1.1-0.2,2.2-0.1,3.1,0.5c0.6,0.4,1.2,0.9,1.7,1.4c0.5,0.5,1.1,0.9,1.8,1.3c0.9,0.4,2,0.5,2.9,0.1
			c1-0.7,1.9-1.6,2.6-2.6c0.7-0.9,2.1-1.2,4.2-0.7c2.4-3.8,4.4-7.8,5.9-12c1.6-5,2.6-10.1,3-15.2c0.4-0.2,0.7-0.5,0.7-0.9
			c0-0.4,0.3-0.8,0.7-0.9c2.8,3.1,5.3,5.8,7.5,8.1c2.2,2.3,4.6,4.4,7.2,6.3c2.9,2.2,5.9,4.2,9.1,6c4.4,2.5,8.9,4.8,13.5,6.8
			c11.2,5.2,20.5,8.8,27.7,10.8s13.2,2,17.8-0.2c1.2-0.1,2.4-0.7,3.2-1.6c0.8-0.9,1.6-2,2.2-3l1.9-3.3c0-0.1,0.1-0.2,0.1-0.2
			c0.7,1.4,1.6,2.7,2.5,4c2,0.4,4,0.6,6,0.7c1.2,0,2.3-0.2,3.4-0.6c1.1-0.5,2.1-1.3,2.8-2.2c1.1-1.5,2.1-3.1,2.8-4.8
			c1-2.1,2.1-4.8,3.4-8.1c0.5-1.1,0.7-2.3,0.6-3.5c0.1-0.8,0.3-1.7,0.4-2.7c0.1-1,0.3-2,0.6-2.9c0.5-1,1.1-2,1.7-2.9
			c0.7-0.9,1.3-1.7,1.9-2.5c0.5-0.4,0.9-0.9,1.4-1.4c0.5-0.7,0.7-1.5,0.8-2.4c-0.2-0.7-0.4-1.5-0.6-2.2c-0.1-0.7-0.1-1.5,0.2-2.2
			c0.6-2.7,1.7-5.2,3.2-7.5c1.4-2.1,2.9-4,4.5-5.9c-0.2-2.8,0-5.5,0.7-8.2c0.7-3.1,1.6-6.2,2.5-9.1c1-3,1.9-5.6,2.9-7.9
			c1-2.3,1.7-3.8,2-4.6l1.9-3.8l1.8,4.2c6.6,15.9,16.3,23.9,29.2,23.9c5.4-0.1,10.7-1.1,15.6-3.2c5.5-2.2,10.8-4.9,15.8-8
			c5.2-3.2,10.2-6.8,15-10.6c4.8-3.8,9.3-7.5,13.5-11.1c0.3-1.3,0.6-2,1.2-2.1c0.6-0.2,1.2-0.2,1.7-0.2l1.9,0.2v2.6
			c0.2,1.3-0.2,2.6-1.2,3.5c-4.9,20.8-7.3,37.9-7.1,51.4s3.4,22.9,9.6,28.4c1.5,0,3.1-0.3,4.4-1c1.5-0.8,2.9-1.7,4.3-2.7
			c1-0.8,2.1-1.5,3.3-2.1c1.2-0.7,2.5-1.2,3.9-1.6c0.3-1,0.6-1.9,1-2.8c0.4-0.9,0.8-2,1.2-3c3.2-8.6,6.2-17.8,9-27.7
			C1066.8,412.4,1067.9,401.4,1067.3,390.4z M816.8,374.7c0.5-3.8,1.6-7.5,3.3-10.9c1.5-3,3.3-5.8,5.3-8.4c2-2.6,4-5.1,6.1-7.5
			c2.1-2.5,4-5.2,5.6-8.1c3.4,1.6,6.3,4.1,8.5,7.1c2.7,3.5,4.4,8.2,5,14c-5.3,2.7-10.9,5.4-16.8,8.3
			C828.4,371.9,822.7,373.7,816.8,374.7z"/>
		<path d="M1442.3,309.7c-0.1-1.5-0.5-2.9-1.2-4.2l-2.1-1.6c-2.1-1.5-4.2-3.1-6.1-4.8c-1.8-1.5-3.1-3.5-3.8-5.7l-1-3.8l-3.3,0.9
			c-9.2,2.2-16.7,8-22.5,17.4l-1.2,2.1c-0.7,1.7-1.7,3.2-2.9,4.6c-1.2,1.3-2.4,2.6-3.7,3.9l-4.8,5.6l0.4,2.8l-13.6,22.3
			c-0.4,0.3-0.7,0.6-1.1,0.9c-0.3,0.3-0.6,0.6-0.9,0.9c-0.7,0.8-1.4,1.5-2.3,2.1c0.3-2.5,0.2-4.9-0.2-7.4c-0.4-2.3-0.9-4.5-1.6-6.7
			c-0.5-2.2-1-4.4-1.3-6.6c-0.4-2.5-0.6-5-0.6-7.5l-1-3c-0.4-0.5-0.6-1.1-0.8-1.8c-0.2-1-0.2-1.9-0.2-2.9v-2.8l-0.2-3.3l-2.1-0.7
			c-0.3-0.3-0.5-0.7-0.6-1.2c-0.1-0.4-0.2-0.8-0.2-1.2l0.2-2.6l-1.9-1.6c-1.8-1.2-3.5-2.4-5-3.4c-1.6-1-3.1-2-4.7-2.9l-3.9-2.4
			c-1.4-0.9-2.8-1.8-4.1-2.8l-1.9-1.4l-1.9,1.6c-1.9,1.2-3.5,3-4.4,5.2c-0.8,2-1.3,4.2-1.4,6.3c-0.1,2.2,0,4.5,0.3,6.7
			c0.3,2,0.6,3.9,0.9,5.7c-0.2-0.4-0.4-0.9-0.6-1.3c-1.6-2.9-3.2-5.9-5-9c-2.2-0.4-4.2-1.4-5.8-2.8c-1.6-1.4-3.1-3-4.4-4.6
			c-1.4-1.6-2.9-3.1-4.6-4.5c-1.7-1.4-3.7-2.2-5.9-2.5c-1.1,2.4-1.9,4.8-2.4,7.4c-0.6,2.7-1.2,5.4-1.7,8.1c-0.6,2.6-1.3,5.2-2.1,7.7
			c-0.7,2.3-1.9,4.4-3.4,6.3c-1.2,9.1-2.3,18-3.4,26.7c-1,8.3-2.6,16.5-4.7,24.6c-1.8,7.3-4.6,14.3-8.1,20.9
			c-3.2,6.1-7.8,11.3-13.4,15.2c-0.9-4.6-1.4-9.3-1.6-14.1c-0.1-4.5-0.1-9,0-13.3c0.1-4.3,0.3-8.5,0.4-12.7c0.1-4.1,0-8.2-0.4-12.3
			c0.5,0.2,0.9,0.1,1.1-0.1c0.2-0.2,0.4-0.5,0.5-0.8c0.1-0.3,0.3-0.6,0.5-0.8c0.3-0.3,0.7-0.4,1.1-0.4c-0.5-1.6-0.6-3.2-0.3-4.8
			c0.3-1.1,0.7-2.2,1.3-3.3c0.5-1.1,0.9-2.2,1.2-3.4c0.2-1.7,0-3.5-0.6-5.2c0.7,0.3,1.1,0.3,1.4-0.1c0.3-0.4,0.9-0.6,1.3-0.4
			c-0.5-0.8-0.9-1.7-1-2.6c0-0.5,0-1,0.2-1.5c0.1-0.4,0.2-0.8,0.1-1.2c-0.2-0.7-0.6-1.4-1.1-2c0.3-0.6,0.6-0.8,1-0.5s0.7,0,1-0.9
			c-0.6-4.4-1.9-8.6-4-12.5c-1.9-3.6-4.4-6.9-7.3-9.7c-2.8-2.8-6-5.3-9.4-7.4c-3.4-2.1-6.9-3.9-10.6-5.5c-4,10.7-8.2,21.5-12.5,32.5
			c-4.3,11-8.7,21.9-13,32.8c-4.3,10.9-8.6,21.6-12.9,32.1l-0.2,0.4l-1.6-0.7c-0.4-0.2-0.7-0.5-1-0.8c-0.4-0.4-0.7-0.7-1-1
			c-0.7-0.9-1.6-1.7-2.4-2.5c-1.3-1-2.9-1.5-4.6-1.5c-0.5-0.4-0.9-0.9-1.4-1.4c-0.4-0.4-0.7-0.9-1-1.4l-0.8-2.8l-2.5,0.2
			c-1.9,0.1-3.7,0.6-5.4,1.4c-0.8-0.2-1.5-0.3-2.3-0.2c-1.3-3.9-2.4-7.8-3.1-11.8c-0.8-4.1-1.5-8.5-2.1-13c-0.5-3.1-1.1-6.3-1.6-9.5
			s-1.2-6.4-1.8-9.5c-0.1-3.9-0.4-7.5-0.8-10.7s-0.8-6.5-1.4-9.7c-0.3-1.4-0.5-2.8-0.7-4.2s-0.4-3-0.7-4.7l-1-2.1
			c-1.6-1.9-3.7-3.3-6-4.1c-2.6-1-5.2-1.9-7.9-2.7c-1.6-0.6-3-1.2-4.4-1.6c-1.1-0.3-2.1-0.8-3.1-1.4l-3.1-2.4l-2.3,4
			c-2.9,5.6-6.3,10.9-10,16.1c-3,4.2-6.9,7.7-11.3,10.2l-3.5-0.7c-0.8,0-1.5,0.1-2.2,0.4c-0.6,0.2-1.1,0.5-1.6,0.8l-2.1-0.2
			l-1.4,2.3c-2,2.9-3.7,5.9-5.1,9.1c-1.3,3.1-2.6,6.3-3.8,9.4c-1,2.7-2.1,5.2-3.2,7.7c-1.3,2.9-2.8,5.7-4.3,8.4
			c-0.2,0.8-0.4,1.6-0.4,2.5c0,0.7,0.1,1.3,0.2,2c-1.2,3.1-2.4,6.2-3.6,9.1c-1.2,3-2.4,5.9-3.6,8.9c-3.7,9.2-7.3,18.2-10.7,27
			s-6.8,17.9-10,27.4l-0.2,4.9l-2.5,2.3l2.9,3.5c0.7,1.3,1.1,2.7,1.2,4.2c0.2,1,0.4,2.1,0.6,3.2c0.2,1.2,0.5,2.3,1,3.4l1.2,1.9
			c1.2,0.7,2.4,1.7,3.4,2.7c1,1,2.2,2.5,3.8,4.3l2.5,0.2c0.8,0,1.6-0.1,2.4-0.2c0.7-0.2,1.9-0.5,3.6-0.9l2.9-0.5l0.6-3
			c0.8-0.8,1.7-1.4,2.7-1.9c0.9-0.5,1.8-1,2.8-1.6c1-0.7,1.9-1.7,2.4-2.8l0.8-3c0-2.4,0.3-4.7,0.9-7c0.6-2.3,1.2-4.8,1.8-7.3
			c0.5-1.6,1-3.1,1.4-4.7c0.5-1.6,0.8-3.3,1.1-4.9c0.3-0.3,0.6-0.7,1-0.9c0.4-0.3,0.7-0.7,1-1.2l1.9-2.1l-0.8-2.6
			c-0.1-0.5-0.1-1,0.1-1.4c0.1-0.5,0.4-1,0.7-1.4l2.5-0.5l0.8-3c0.3-1.1,0.6-2.2,0.9-3.4c0.3-1.2,0.8-2.4,1.3-3.6
			c0.1,1.9,0.7,3.7,1.6,5.4c-0.6,2-0.4,4.1,0.6,5.9c0.9,1.6,1.7,2.8,2.3,3.8l0.9,1c0.3,0.3,0.5,0.7,0.5,1.1l0.6,2.6l2.1,0.2
			c2.3,0.5,4.6,0.7,7,0.7c3.1,0,6.3-0.3,9.3-1c2.8-0.7,5.7-1.5,8.7-2.5c2.1-0.6,4.1-1.2,6.2-1.8c2.6-0.5,5.4-0.4,7.9,0.4
			c0.3,5-0.3,8.5-1.6,10.4c-1.3,2-3.9,3.6-7.7,4.8l-6.4,2.1l3.9,5.4c0.5,0.6,1,1.2,1.4,1.8c0.4,0.6,0.8,1.1,1.3,1.5
			c1.1,1.1,2,2.4,2.8,3.8c0.5,1,0.5,2.2,0.1,3.3l-0.8,3.5l2.5,1.4c0.9,0.5,1.8,1.1,2.5,1.9c0.7,0.7,1.4,1.3,2.2,1.9
			c1.2,0.8,2.6,1.3,4,1.6c3.3-0.2,6.4-1.1,9.3-2.7c3-1.7,5.7-3.8,8-6.3c2.4-2.6,4.5-5.5,6.2-8.7c1.9-3.5,3.4-7.1,4.6-10.9
			c0.4-3.5,0.4-7,0.1-10.4c-0.3-3.3-0.7-6.6-1.3-9.7c-0.2-1.1-0.4-2.2-0.5-3.3c-0.1-1-0.2-2-0.5-3c3.6-2.1,6.9-4.7,9.8-7.7l0.9-1
			c-2.2,5.5-4.3,10.8-6.3,16c1,1.4,1.6,3.1,1.8,4.8c0.3,1.8,0.8,3.6,1.5,5.3c-0.4,0-0.8,0-1.3-0.1c-0.4-0.1-0.7,0.2-0.7,0.8
			c1.3,3.1,2.4,6.2,3.4,9.4c1.1,3.6,2.4,7.1,3.9,10.5c1.4,3.3,3.2,6.5,5.2,9.5c1.8,2.7,4.4,4.8,7.4,6c1.1-0.3,2-0.7,2.9-1.4
			c0.8-0.6,2.1-0.8,3.9-0.5c-0.3-1.3-0.6-2-0.9-2.1s-0.2-0.6,0.3-1.4c2.4,0.1,4.2-0.4,5.1-1.8c1-1.4,1.7-3.1,2-4.8
			c0.4-1.9,0.7-3.8,1-5.8c0.2-1.8,1-3.5,2.3-4.8c-0.6-1.5-0.8-3.1-0.5-4.7c0.3-1.4,0.8-2.7,1.5-3.9c0.6-1.2,1.3-2.4,2-3.5
			c0.7-1.2,1.2-2.5,1.4-3.9c1,0,1.8-0.7,2.3-2.1s1-3,1.6-4.7c0.5-1.7,1.1-3.3,1.8-4.9c0.5-1.4,1.5-2.5,2.9-3c2.6,9.2,6.7,18,12,26
			c4.9,7.2,10.6,13.7,17,19.5c4.3,1.9,7.7,2.5,10.4,2c2.6-0.5,5-1.7,7-3.4c2-1.7,3.8-3.6,5.5-5.6c1.6-2,3.6-3.7,5.8-4.9
			c-0.7-1.9-0.7-3-0.1-3.4s0.8-1.3,0.7-2.7c1,0.2,1.6,0.4,1.7,0.8s0.5,0.3,1.2-0.4c1.6-3.4,3-6.9,4.5-10.3c1.3-3.3,3.3-6.2,5.8-8.7
			c0.7-4.5,1.8-8.9,3.1-13.3c1.4-4.8,2.7-9.4,3.9-14c-0.1-4.6,0.1-9.2,0.6-13.8c0.5-4.2,1.1-8.3,1.7-12.2s1.4-7.9,2.1-12
			c0.8-4.3,1.4-8.7,1.7-13.1c1.4-1.1,2.5-2.4,3.3-4c0.8-1.6,1.4-3.4,1.8-5.2c0.4-1.7,0.8-3.5,1.2-5.2l-0.1,1
			c0.3,1.5,0.8,2.9,1.4,4.2c0,2.1,0.2,4.2,0.6,6.3c0.4,2,0.8,4.1,1.2,6.1c0.9,3.8,1.4,7.6,1.6,11.5c0.9,3.9,2,7.8,3.4,11.6
			c1.5,4.3,3.3,8.8,5.3,13.5c2.2,2.5,4,5.2,5.4,8.2c-0.8,1.4-1.8,3.4-3,6.1s-2.9,6.3-4.9,10.8c-2.6,5.8-4.4,10.1-5.5,13
			c-1.1,2.9-1.8,5-2.2,6.5c-1.8,2-3.1,4.3-3.9,6.9c-0.8,2.6-1.5,5.2-2.1,7.9c-0.7,2.3-1.2,4.4-1.7,6.3l-0.2,2.6
			c2.4,12.7,9.4,19.9,20.7,21.8l3.3-1.4c0.3-0.3,0.6-0.7,0.9-1.2c0.3-0.4,0.7-0.8,1.1-1.2c0.8-0.9,1.6-2,2.4-3
			c1-1.3,1.8-2.7,2.4-4.2l0.6-2.6c0.1-0.3,0.3-0.8,0.7-1.5s0.6-1.4,0.9-2c0.8-1.4,1.5-2.9,2.2-4.6c0.7-1.6,1.1-3.3,1.3-5
			c5.8-8.6,9.5-16.7,11-24.2c1.4-1.7,2.6-3.6,3.6-5.6c0.9-2.1,1.7-4.3,2.4-6.6c1.4-1.5,2.6-3.3,3.5-5.2c0.9-1.9,1.7-3.8,2.5-5.6
			c0.8-1.7,1.6-3.4,2.3-5c0.7-1.5,1.6-2.9,2.7-4.1l1.6-1.6l-0.4-2.6c1.1-1.3,2-2.8,2.7-4.3c0.7-1.5,1.2-2.9,1.8-4.3s1.2-2.9,1.7-4.1
			c0.6-1.3,1.5-2.6,2.5-3.6l1.2-1.9c0.3-0.9,0.5-1.7,0.7-2.3s0.4-1.3,0.7-2.1l1.1-1.3c0.9-1.2,1.7-2.4,2.4-3.6
			c0.6-1.7,1.4-3.4,2.3-5c0.5-0.7,0.8-1,1-1h2.9l0.8-3.3c0.8-3.7,3-6.9,6.2-8.9l1.6-2.3c0.6-1.7,1.6-3.3,2.7-4.7
			c1.2-1.5,2.5-2.9,3.9-4.2c1.8-1.7,3.6-3.6,5.2-5.5c1.7-2,3.2-5.2,4.6-9.7l-1-3C1442.1,311.3,1442.3,310.5,1442.3,309.7z
			 M1137.7,392c-3.9,0.5-8.1,0.9-12.6,1.2c-0.9,0.2-1.7,0.2-2.6,0.2c-0.9,0-1.8,0.1-2.6,0.2c1.7-3.4,3.4-6.7,5.2-9.9l0.2-0.2
			c2.1-4.8,4.6-9.4,7.4-13.8c2.9-4.7,6-9.2,9.3-13.6l1-2.3c1.4,6.1,2.7,12.2,4,18.2s2.3,11.9,3.4,17.7
			C1146.2,390.7,1141.9,391.5,1137.7,392z"/>
	</g>
</g>
<g id="Ebene_2_2_">
	<g id="Ebene_1-2_1_">
		<path class="st0" d="M1398.8,151c12.3-0.5,1.5-0.8-3,0.2C1396.8,151.3,1397.8,151.2,1398.8,151z M1614.2,153.5
			c3.6,0,7.2,0.2,10.8,0.7C1621.4,154.3,1617.8,154.1,1614.2,153.5z M1264.7,165.2c-4.5,0.9-12.7,2.1-16.5,2.4
			C1253.7,166.4,1259.2,165.7,1264.7,165.2z M1636.9,156.3c3,0,6,0.4,8.9,1C1643.7,157.7,1640.6,156.4,1636.9,156.3z M1348.8,156.5
			c-4.5,1.1-13.9,2-23.6,3C1333,158,1340.9,157,1348.8,156.5z M1268.7,166c3.8-0.9,7.8-1.4,11.7-1.5
			C1275.1,165,1272.1,166,1268.7,166z M1631.8,157.8c-3.4-0.7-6.6-0.5-11.9-1.1C1621.2,156.4,1631.1,156.8,1631.8,157.8z
			 M1642.7,158.8c1.3-0.2,11.3,0.8,10.9,1.7C1649.3,159.7,1648.5,159.9,1642.7,158.8L1642.7,158.8z M1282.4,165.2
			c2,0.1-8.2,1.1-9.7,1.7c-4.3,0-12.6,1.6-18.5,2.2c3.9-1,12.1-1.7,17.4-2.6c1.7-0.2,2.5-0.7,3-0.4L1282.4,165.2z M1145.5,185.3
			c1,0.7-3.7,0.6-5.7,0.9C1139.9,185.7,1143,185.5,1145.5,185.3z M1708.1,178.2c-3.5-0.6-5.9-1.7-8.9-2.3
			C1702.3,176.1,1705.3,176.9,1708.1,178.2z M1732.6,192.7c1.9,0.1,6.3,2.9,6.2,3.7C1736.6,195.4,1734.6,194.1,1732.6,192.7z
			 M1094.7,199.7c-4.5,0.4-9,0.6-13.6,0.5C1085.7,199.4,1090.2,199.3,1094.7,199.7z M1081.1,202.3c-2.3,0.3-4.5,0.4-6.8,0.2
			C1076.6,202,1078.8,201.9,1081.1,202.3z M1096.7,202.3c-0.8,0.5-5,0.3-5.8,0.8C1088.1,202.5,1094.3,202,1096.7,202.3z
			 M1078.2,204.5c-0.4-0.5,1.8-0.5,1-1.1c1,0.2,2,0.1,3-0.2c1.3,0.1,0.8,0.6,0.9,0.9C1080,203.9,1081.2,204.7,1078.2,204.5z
			 M1149.6,207.9c0.7-0.4,9.5-1.4,8.8-0.5c-3.5,0-5,0.6-8.8,0.6L1149.6,207.9z M1156.6,208.9c0.6-0.3,1.3-0.4,2-0.2l0,0.4l-9.8,1.1
			c2.9-0.6,5.8-0.9,8.8-1c0.2-0.4-0.4-0.3-1-0.3L1156.6,208.9z M1114.5,215.8c-3,0.6-6,0.9-9,0.8c2.3-0.3,5.7-0.4,9-0.7
			L1114.5,215.8z M1131.3,217.9c4.3-0.6,8.5-0.9,12.8-1c8.4-0.5-8.8,1.1-12.8,1.1L1131.3,217.9z M1167.7,214.6
			C1155.7,216.4,1153.4,215.7,1167.7,214.6z M1188.4,214c-2.9,0.6-5.9,1-8.8,1.2c2.9-0.7,5.8-1,8.8-1.1L1188.4,214z M1214.8,211.8
			c-2.6,0.1-5.2,0.3-7.8,0.7C1203.9,212.9,1216.2,210.8,1214.8,211.8L1214.8,211.8z M1330,199.3c-1.6,0.7-7.3,0.8-10.6,1.4
			C1322.9,199.8,1326.4,199.4,1330,199.3L1330,199.3z M1330.9,199.3c3.2-0.6,6.4-1,9.6-1.2c-3.2,0.6-6.4,1.1-9.6,1.3L1330.9,199.3z
			 M1242.3,211.2c-12,1-23.5,3-36.2,4.3c1-0.2,2.5-1.3,3-0.8C1218.9,214.2,1231.2,211.6,1242.3,211.2z M1280,206.5
			c-2.9,0.1-5.8,0.4-8.7,0.9C1273,206.7,1279.4,205.7,1280,206.5L1280,206.5z M1129.5,223.1c-3.9,0.6-7.9,1-11.9,1.1
			C1120.8,223.6,1125,223.4,1129.5,223.1z M1287.7,205.2c2.4-0.6,4.7-0.1,4.8-0.6C1297,204.4,1286.1,206.2,1287.7,205.2
			L1287.7,205.2z M1409.9,194.2c-4.2,1-25.7,1.9-8.7,0.5L1409.9,194.2z M1561.1,194.4c-5.3,0.3-23.4-0.6-28.9-1
			C1540.4,193.7,1550.8,193.3,1561.1,194.4L1561.1,194.4z M1145.4,223c-3,0.6-6,1-9,1.1C1139.4,223.6,1142.4,223.2,1145.4,223z
			 M1655,157.4c3.7,0.4,7.4,1.2,10.9,2.4C1663.7,159.8,1659.1,158,1655,157.4z M1390.9,151.5c-3.6,0.6-7.2,1-10.8,1.2
			C1382.9,152.1,1386.9,151.8,1390.9,151.5z M1307.6,159.9c11.7-1.7,37.7-4.6,57.9-5.7c-1,0.3-2,0.5-3,0.5l-2.9,0.2
			c-9.5,1-16.3,1.2-22.6,2.4c-3.5-1.1-13.4,2.8-21.5,3.1c0-1,7.8-1,9.8-1.7c-4.9-0.1-9.9,0.3-14.7,1.2
			C1312.6,159.3,1310.2,159.5,1307.6,159.9z M1203.8,173.3c1-1,6.7-1.1,9.6-1.4C1210,172.7,1207.8,172.3,1203.8,173.3z
			 M1268.6,164.9c2.6-0.6,5.2-1,7.8-1.2C1273.9,164.7,1271.2,165.1,1268.6,164.9z M1553.2,151c0.8,0,0.9,0,1,0.3
			c0.2,0.9-6.6,0.2-9,0.1c-22.1-0.6-49.8-2-71.8-1.3c30.1-1,52.1,0.1,79.9,1L1553.2,151z M1456.9,150.8c4.3,0.3,8.5,0.2,12.8-0.2
			l0,0.7c15-1,33.6-0.7,55,0c0-0.2-1.2-0.1-2-0.3c13.8,0.1,40.4,2.3,58.9,2.5c-1.2,0.2-0.4,0.3,0,0.7c9.9,0.1,18.9,0.9,33.4,1.6
			c-2.7,0.1,0.1,1.3-6,0.7c0-0.4,3.3,0.2,3-0.4c-13.8-1.1-16.1-0.4-26.5-1.6c1.3,0.3,2.6,0.5,3.9,0.5c-7.8,0-22.3-1.2-34.3-1.6
			c22.3,1.4,45.8,2.5,65.7,4.5c2.7,0.1,7.7,1.1,12.9,1c2.3,0.5-3.3,0.2-6-0.3c7.3,1.5,9.7,0.5,17.9,1.5c0,0.5-3.5-0.3-5-0.2
			c5.5,1.2,14.6,2.6,24.1,4.6s19.4,4.2,26.3,6.1c-0.3,0.2-2-0.3-2.1-0.1c0.5,0.8,2.1,0.3,3.9,1c1.9,1.6,8.8,3.5,15.5,5.7
			c4.2,1.5,0,0.4-2-0.4c-2-0.8-8.2-2.6-8.9-2c-2.9-1.1-5.9-1.8-8.9-2.3c1.3,0.7,6.8,1.8,9.8,2.8c0.7,1-3.3-0.6-4.1-0.4
			c7,2.3,15.2,4.5,22.5,6.7c0-0.2-1.1-0.6-1.9-0.9c1.9,0.6,6.8,2.5,11.4,4.6c2.3,1.1,4.5,2.2,6.2,3.1c1.1,0.6,2.1,1.3,3,2.2
			c-17.3-7.4-35.2-13.1-53.4-17c14,3.1,31.7,11.1,42.3,14.3c1.9,0.9,3.7,2,5.4,3.3c-3.3-0.7-6.5-1.8-9.6-3.3
			c0.2,0.5,3.6,1.6,2.5,1.9c-2-0.2-4-0.8-5.9-1.8c7.2,3,14.2,6.5,21.1,10.4c-0.6,0.5-3.4-0.7-5.9-1.7c1.7,1.2,2.9,2.2,5.1,3.5
			c-12.9-5.5-26.9-10.3-43.2-15.3c7.5,2.9,21.7,7.7,28.8,11.2c-2.2-0.8-7.1-2.6-11.2-4.2c-2.2-0.6-4.4-1.5-6.4-2.7
			c-1.5-0.6-3.2-0.8-4.8-0.6c3,0.8,5.9,1.8,8.8,2.9c2.5,0.9,4.8,1.9,7.8,3.4c-5.1-1.2,5.9,2.2,10,4.4c-2.8-0.9-5.6-2-8.3-3.3
			c-1.2-0.4-1,0,0,0.4c-10.2-3.6-20.6-6.4-31.2-8.5c5.5,2,18.2,5.1,22.4,7.1c-5.7-1.6-12.4-3.8-19.7-5.7c4.8,2,9.7,3.6,14.7,4.9
			c-1-0.1-2-0.3-3-0.7c0.9,0.5,1.8,0.8,2.7,1.1c-3.8-0.8-11.5-3.5-16.8-4.7c-1,0.1-2,0.1-3-0.1c0.5,0.8,2.1,0.1,3.7,1
			c-0.3,0.4-2.6-0.1-3.9-0.2c4.1,1.9,7.2,1.4,14,3.9c2,0.5,5.9,2.1,1.8,0.8c-8.8-3.6-10.3-1.8-5.6-1.3c-0.9,0-3.2-0.7-7.5-1.6
			c3.3,1.4,6.7,2.5,10.1,3.3c-7.3-1,5,1.7,9.9,3.7c2.7,1.3-4-1.2-5.5-1.7c-2.2-0.6-3.5-0.7-6.5-1.8c3.5,1.6,7.2,2.9,10.9,4
			c-8.8-1.7-17.5-5.5-28.7-7.7c2.8,1,17.8,4.6,5.5,1.8c-2.2-0.5-2.8-0.3-5.6-1.1c7.5,2.1,20.7,5.3,25.7,7.5c-1.8-0.4-3.6-1-5.3-1.8
			c0.6,1.1,2.7,1,5.4,2c-0.6,0.5,1.4,1.3,0.5,1.8c-4.2-0.6-13.2-3.9-20.1-5.4c2.5,0.8,4.4,1.7,7.2,2.6c-3.5-0.5-9.1-1.9-13-2.4
			c3,0.9,6.1,1.7,9.2,2.2c6.8,1.8,0,0-6.5-0.9c-1.3-0.1-2.6-0.1-3.8,0c-6.5-1.2-15.3-3.1-21.4-3.6c7,2.8,27,4.9,40.2,9.9
			c-12.8-2.5-21.4-3.3-38.6-6.4c-1.6,0.8,6,0.8,4.5,1.6c-22.2-5-55.1-6.8-73-7.7c1,0.3,2,0.5,3,0.4c-3.9-0.2-12.6-1.3-20.2-1.4
			c2.6,0.6,17.6,1.2,14.4,1.3c-7,0-17.7-1.1-23.1-0.6l32.6,2.1c11.3,0.7,23,1.5,35.5,2.8l6.6,0.7c3.4,0.2,3.3,0.8,0,0.2l-6.6-0.7
			c-14.9-1-42.7-3.7-66.1-4.2c13.4,0.6,27.5,1.7,42.1,2.8c14.6,1.1,29.6,2.6,44.5,4.8c-2.5-0.1-5-0.4-7.5-0.8
			c-3.8-0.2-12.3-1.1-16-1.8c-0.6,0.6-1.4,0.5-6.7,0.1c3.8-0.2-0.4-0.3-1.8-0.8c0.6,0.6-2.7,0-4.8,0.3s0.4-0.6,1.9-0.3
			c-18.9-1.7-45.2-3.6-66.2-4.6l-8.7-0.4c-0.7-0.5,10.4,0.2,14.5,0.3c-18.6-1.8-30.7-0.3-44.3-1.5c1.3,0.2,2.6,0.3,3.9,0.2
			c-14.8,0.1-22.8,0-35.7-0.4c-3.8,0-5.2,1.2-7.7,0.3c9-1.3,34.5-0.1,48.2-0.6c-15.9-0.4-33.7-0.4-49.2-0.1c-1.5,0.2,0.3,0.3-1,0.9
			c-7.3,0.3-9-0.7-16.4-0.2c1.3,0.3,2.6,0.3,3.9,0.2c-3,0.9-9.3-0.8-11.6,0.5c-4.4,0.3-13.6,0.3-21.2,0.8c-6,0.4-18.5,1.5-3.9,0.4
			c-2.3-0.4-8.7,0.3-12.5,0.4c-1.5-0.1,0-0.2,1-0.3l35.6-1.7c-15.8,0.1-36.7,1.3-45.3,2.5c-4.8,0.8-13.8,0.9-20.2,1.5
			c0-0.5,12.4-1,17.4-1.4c-13.2,0.2-35.4,1.8-51.1,3.5c0-0.2,1.2-0.3,1.9-0.4c-30.6,1.5-64.7,6.5-107.1,11.9
			c4.4,0.4-5.6,0.9-6.8,0.7c4.2-1.1,12.6-1.7,18.4-2.6c-2.6-0.5-18.4,2.9-18.5,1.5l7.8-1c-6.3,0.3-19.5,2.5-23.4,2.6
			c3.2-0.9,10.7-1.5,15.5-2.2c-16.9,1.2-28.5,3-48.8,4.8c2.6-0.6,5.2-0.9,7.8-1.1c-5.1-0.8-19.5,2.5-22.6,1.3c2,0,3.9-0.2,5.9-0.8
			c1,0,0.8,0.2,1,0.4c4.8-0.4,29.3-4.1,37.1-4.6c-0.4,0-3.6,0.7-8.7,1.5c-3.8,0.2-12.2,1.2-14.6,1.7c12.8-1,34.6-4.2,45.7-5.9
			c-5.3-0.1-17.7,2.4-17.6,0.9l-17.5,2c2.6-0.8,9.4-1.2,13.6-1.9c-12.2,1-29.5,3-42.9,4.8c-3,0.1-1.9-0.1,0-0.2l3-0.3l1.6-0.2
			c-3.6,0.1-7.2,0.4-10.8,1.1c-4.2,0.4-13.4,0.9-22.4,1.6c-9,0.7-18,1.2-21.7,1.8c2.3-0.5,4.6-0.8,6.9-0.8c-2.9-0.1-5.9,0-8.8,0.3
			c2.1-1,6.5-0.2,11.8-0.9c-0.6-0.7-3.7-0.2-6,0.2c-1.3-0.4,8.3-1,12.8-1.3c-2.3,0.6-4.6,0.8-6.9,0.7c32.8-1.2,64.8-5.5,88-8
			c-7.4,0-20,1.9-31.2,3.3c6.1-1.4-8.6,0.5-11.7,0.6c6.6-1.3,15.8-1.3,21.4-3.3c-0.4,0.5,2.6,0.1,6.8-0.4c-7.4,0.3-14.7,1-22.1,2.1
			c5.5-1.5,11.8-1.3,20.4-3.1c-3,0.4-10.5,0.6-14.6,1.7c-1.1-1.2,7.2-1.2,10.7-1.9c-4.6-0.1-9.2,0.5-13.6,1.8
			c-3.7,0.1,2.9-0.3,1.9-0.7c-6.4,0.5-16.6,2.3-26.3,2.9c9.1-1.7,22.2-3.1,35-5.2c-4.6,0.2-15.9,1.4-20.4,2.3c0.5,0.3,1.2-0.2,3-0.3
			c-5.6,1-8,0.4-15.6,2.3c1.9-0.6,3.9-1,5.8-1.2c-17.8,1.5-39.7,2.7-57.7,4.1c1.9-0.6,3.9-1,5.9-1.2c0-0.4-3.3,0.5-6,0.3
			c5.1-0.8,14.6-1.8,19.6-2c0-0.3-0.3-0.4-1-0.4c10.8-1,21.6-1,34.1-3.2c0,0.2-1.2,0.3-1.9,0.4c17.6-0.7,40-3.5,57.4-6
			c-11.3-0.2-29.7,4.5-45.7,4.7c6.5-0.8,20.5-2.2,30.1-3.4c-1.8-0.9-11.9,2-11.7,0.7c-2.6,0.7-5.2,1.1-7.8,1.3
			c4-1.3-5.4-0.3-4.8,0.5c-10,0-17.9,1.9-28.3,2.1c-1.5,0.2,0.9,0.3-1,0.5c-4.8,0-7.5,0.3-10.8-0.1c22.8-1.5,42.8-3.5,71-6.9
			c-1.1-0.4-6.4,0.8-6.8,0.2c-1.2,1-15.7,1.1-22.3,2.8c1.8-0.6-0.5-0.6-1-1l-3,1c0.6-1-11.3,0.8-13.6,1.3c-3,0.4-2.6-0.3-4.9-0.2
			c-1.1,0.1-0.8,0.5-0.9,0.7c-3.2-0.2-11.7,1.2-10.7,0.2c-2,0.1-6.1,1.4-9.7,1.4c0.8-0.8,0.8-0.5-1-0.8c-1.5,2.1-22.2,1.4-33.1,3
			c3.5,0.5,7.1,0.7,10.7,0.6c-1.3-0.2-2.6-0.3-3.9-0.2c4.7-0.7,11-1.3,18.5-1.6c-3.5,0.9-7.1,1.2-10.7,1c-0.9,0.9,5.7-0.3,3,0.8
			c3.5-0.8,8-0.3,11.7-1.4c-1.3-0.2-2.6-0.1-3.9,0.1c0.3-0.8,5.6-0.7,8.7-1.1c2.7,0.1-2,1.1,2,0.8c-5.6,1.1-11,1.2-17.5,1.8
			c2.3,0.2,4.6,0.1,6.9-0.2c-5.1,1.1-16,1.1-17.6,1.8c-0.7,0-10,1.1-9.8-0.2c4.4,0,6-0.5,9.8-0.5c-3.4-0.2-3-0.3,1.9-0.5
			c-8.5-1.5-14.1,1.3-22.5,1.3c1.2-0.3,4.8-0.4,1-0.7c2.5-0.4,3.3,0.2,6-0.5c-6-0.7-17.2,0.1-4.9-0.8c2,0.4,4,0.5,6,0.1
			c-2-0.1-0.8,0-2-0.4c4.3-0.9,13-1,16.6-1.4c-0.3-0.8-2.6,0.2-3-0.3c0.5-0.6,4.1,0.2,7.8-0.8c-0.2,0.4-1.7,0.6-3.9,0.6
			c7.5-0.4,15.8-0.5,23.4-1.6c-0.2-0.3-4.1-0.2,0-0.4c-0.8-0.6-3,0.4-4.8,0.4c0.4-0.5,3.7-0.4,2.9-1.1c-5.2,0.8-10.4,1.3-15.6,1.4
			c4.2,0.3,8.5,0.2,12.7-0.1c-6,0.6-13.3,0.7-20.4,1c-6.5,0.1-13.1,0.5-19.6,1.3c5.2,0.4,12.5-1.2,16.6-0.7
			c-4.7,0.5-17.9,1.9-17.6,0.6c-4.8,0.3-13.2,0-8.8,0.1c2.6,0.1,1.9-0.5,3-0.7c3.9,0.4,7.8,0.4,11.7-0.1c-3.3,0.2-6.5,0.1-9.8-0.1
			c-1.5-0.8,3.3-0.2,3-0.7c-2-0.1-4-0.5-5.9-1.1c6.1,0.9,12.3,1.3,18.5,1.1c-1,0.3-2,0.4-3,0.3c5.2,0.6,7.7-1.2,14.6-1.2
			c-2.3-0.2-4.6-0.1-6.8,0.1c3.7-0.8,11.4-0.6,17.5-1.5c-4.2-0.5-9.5,0.8-11.7,0.3c0.8-0.5,5-0.4,5.8-1c0.6,0.5,0.6,0.3,4.9,0
			c-2.9-0.8-5.8-1.1-8.8-0.9l-3,0.8c-1.2-0.8-6.3,0.3-11.7,0.4c-0.7-0.7,3.3-0.4,1.9-1.2c5.5-0.3,10.9-0.1,17.5-0.7
			c0-0.3-0.3-0.4-1-0.4c2.6-0.5,1.5,0.7,6.8-0.1c-1.3-0.2-2.6-0.2-3.9,0c1.6-0.4,3.2-0.6,4.8-0.7c-3.2-0.4-6.5,0-9.7,1.2
			c-4.1,0.3,0-0.3,0-0.7c-4.2,0.8-8.4,1.2-12.6,0.9c6.4-0.7,4.6-0.5,11.6-1.1c-6.7-0.3-12,0.4-22.3,0.8c4.5-0.8,9-1.1,13.6-1.1
			c-0.3-0.5-4.3,0.1-4.9-0.2c1.4-0.5,3.3,0.2,5.8-0.4l0,0.8c19-1.6,32-3,48.2-5.2c-5.3,0.3-17.2,1.6-19.3,1.3
			c-7.7,1.5-15.4,2.4-23.2,2.7c0.9-0.3,8.3-1,1.9-0.8c2.7-0.7,7.7,0,12.6-0.7c-10.4-0.5-18.5,1.4-26.1,1.4c5,0.2,9-0.3,11.6,0
			c-4.5,0.5-9,0.6-13.5,0.3c-2.5,0.8-5.1,1.2-7.8,1.3c-2.2-0.1,0.4-0.6,1.9-0.5c-4.5-0.3-9-0.2-13.6,0.3c2.9-0.5-6.3-1.1-4.8,0
			c1.2-2,18.3-1.1,27.1-2.6c0.2-0.5-3.4-0.2-4.8-0.2c-2.1-0.4,7.1-0.4,9.7-0.5c-1.3,0.3-2.6,0.4-3.9,0.3c7.2,0.1,13.5-0.8,21.2-1.4
			c-3-0.7,11.5-1.3,15.4-2.7c0.5-0.1,7.6-0.3,8.7-0.5s-0.4-0.2,0-0.7c4.2,0,8.4-0.3,12.6-0.9c-1.1-0.1-0.9-0.4,1-0.5
			c-0.5-0.5-4.2,0-4.9-0.4c4.5-0.3,15.7-1.6,22.2-1.6c2.4-1.1,13.3-1.7,22.2-3c-3.5,0.4-9.5,0.1-10.6,1c-0.2-1.6-13.2,1.4-12.6,0.1
			c-16.2,2.4-31,3.4-40.4,4.7c0,0.5,0.8,0.7,3,0.5c-6.3,1.4-17.5,1.5-24.1,2.3c1.6-0.4,3.2-0.6,4.8-0.7c-3-0.4-9.7,0.3-9.6,1.2
			c-3.2,0.3-6.4,0.3-9.6-0.1c-3.5,1.7-12,0.8-16.4,2.1c-0.1-1.1-1.6-0.1-5.8,0.3c0,0.2,1.2,0.1,1.9,0.1c-0.6,0.8-4.4-0.2-5.8,0.7
			c-1.1-0.2,0.2-0.5-3-0.7c-1.4-0.1,0.4,0.3,0,0.7c-2.5-0.1-0.7-0.9-3.8-0.7c-0.8-0.5,4.9-0.4,1.9-0.6c3.5-0.4,7.1-0.3,10.6,0.1
			c2.6-0.7-7.8-0.9-10.6-0.5c2.6-0.7-7.3-0.3-9.6-0.8c0.5-0.2,2.7-0.3,1-0.4c5.6-0.2,10.7,0.1,18.3-0.2c-5.1-0.9,8.3-0.2,10.6-1.2
			c-1.8,1.1-10,0.7-11.6,1.9c1.9,1.1,5.2-0.1,6.7,0.9c3,0.1,2.2-0.7,5.8-0.5c-0.6-0.2-2.2-0.8,1-0.7c-1.9-0.3-3.9-0.2-5.8,0.3
			c-3.8-1.1,11.9-1.1,10.6-1.8c11-0.2,16.5-2.2,30.7-2.8c-0.1-0.7,2.7-1,7.6-1.4c-0.9,0.3-1.9,0.5-2.8,0.7c0.1,0.6,4,0.2,6.7,0
			c-1.9-0.2-3.9-0.1-5.8,0.2c2.2-0.7,4.4-1.1,6.7-1.4c0,0.3,0.3,0.4,1,0.4c19.6-2.8,30.9-2.7,50.9-6.5c-1.6-0.8-6.7,0.9-11.6,1.1
			c6.7-1.3,13.5-2.1,20.2-2.5c-1.5,0.6-3.2,1-4.8,1c2,0.1,3.9,0,5.9-0.3c1-0.4,0.9-0.7,1.9-1.1c3.2-0.6,1.6,0.1,1,0.5
			c8-1.9,23.2-4.1,38.6-5.9c-10.7,0.5-21.1,2.4-30.1,3c4.5,0.2-10.8,2.3-14.5,2.3c2.2-0.6,4.5-0.9,6.7-1.1
			c-28.2,3-48.8,5.9-75.9,8.9c0.2-0.2,0.9-0.3,1-0.5c-6.8,0.7-10.5,1.4-17.3,1.4c-1.4,0.2,0.4,0.3,0,0.7c-4,0.4-8.4,0.4-12.9,0.4
			c-4.5,0-9,0.2-13,0.6c-0.7,0,14.3-0.7,4.8,0c-3.1,1.2-13.3,0.9-19.2,1.4c3.2-0.9,10.4-1.7,16.3-2.7c9.2,0.7,20.4-1.5,27.8-1.4
			c13.4,0.4,28.6-3.2,46-4.4c-0.9-0.7-3.9,0.4-6.8,0.2c14.5-2.2,32.7-4.1,43.3-5.2c-17.2,1.3-41.1,4-59.6,5.7
			c4.8,0.1,9.6-0.2,14.4-0.8c-6,1-12.1,1.6-18.2,1.7c0.9-0.3,1.9-0.4,2.9-0.4c-2-0.4-8,0.4-11.5,0.6c40.7-3.8,83.2-9.8,123.1-15.6
			c1.9-0.4,3.8-0.6,5.7-0.6l-6.8,0.9c-16.6,2.3-30.5,4.8-47.2,7c2.4,0.4,9-0.9,11.6-0.5c1.5-0.3,0-0.3-1,0
			c29.4-3.8,60.5-8.3,91.2-12.1c19.9-2.5,33.6-3.5,57.8-5.7c-9,0-18.9,1.6-25.5,1.5c21.5-2.4,43.1-3.5,64.8-4.9
			c-2.3-0.3-4.6-0.3-6.9-0.1c10.8-1.2,21.6-1.7,32.4-1.4c-6-0.8,16.9-1.1,4.9-0.6c11.7-0.6,23.6-1,38.4-1.4
			c-1.3,0.7-11.2,0.1-15.7,0.8L1456.9,150.8z M1234.1,196.2c-1.5-1-12.6,1.7-15.6,1.3C1221.5,198.5,1227.1,196.6,1234.1,196.2z
			 M1135.5,198.9c-4.1,0.8-8.3,0-13.6,1.1c1.4,0.1,3,0.1,3,0.8C1128.6,199.8,1135.7,199.6,1135.5,198.9z M1139,188.3
			c-5.4,0.9-10.6,1.7-15.3,2.1c1-0.1,2-0.1,3,0.1c-0.6,0-1.1-0.1-0.9,0.3c1.6-0.2,3.2-0.2,4.8,0.2c0.6-0.5,4.9-0.4,3.8-1.2
			c-1.3,0.2-2.6,0.2-3.9,0.1c3.2,0.2,6-1,3.9-0.1c1.6-0.6,3.2-0.7,4.8-0.3C1139.6,188.9,1142.2,188.2,1139,188.3L1139,188.3z
			 M1500.2,152.1c-3.3-0.1-6.5,0-9.8,0.2C1493.6,152.5,1496.9,152.4,1500.2,152.1L1500.2,152.1z M1256.3,170.8
			c8.8-1.4,15.5-1.3,19.4-2.7C1270.1,168.9,1257.1,170.2,1256.3,170.8z M1082.2,189.4c2.2,0.8,8.3-0.8,3.8-0.7
			C1087.6,189.5,1081.9,188.8,1082.2,189.4z M1151.3,186.3c-6.9,1.1,5.2-0.7,6.8,0.1c-0.8,0.1-1.9,0.2-1.9,0.4
			c2.3-0.2,4.5-0.6,6.7-1.3c-3.8-0.1-7.6,0.2-11.4,0.8L1151.3,186.3z M1176.3,184.1c-1.9-0.1-3.9,0.1-5.8,0.6c2,0.3,4,0.1,5.9-0.6
			L1176.3,184.1z M1111,191.2c3.9,0.1,7.7-0.3,11.5-1.3C1119.4,190.5,1113.1,190.5,1111,191.2z M1109.1,191.8c0.3-0.3,1.4-0.5,0.9-1
			c-2.5-0.1-8.1,0.6-4.8,1c0.3-0.2,4.3-0.7,3.9-0.3S1108,191.8,1109.1,191.8L1109.1,191.8z M1128.7,197.8c3.5-0.4,13.9-0.7,12.6-1.1
			c-2.6,0.3-5.2,0.4-7.7,0.3c2.1-0.2,10.3-0.5,7.7-0.8C1136.2,196.6,1129.9,196.8,1128.7,197.8z M1188.7,194.3
			c-3.9,0.1-7.8,0.5-11.7,1.3c3.1-0.1,6.7-0.9,11.8-1.3L1188.7,194.3z M1184,196.7c-3.6-0.4-7.2-0.2-10.7,0.7
			c3.9-0.3,7.8-0.7,10.8-0.7L1184,196.7z M1115.2,202.8c4.3-0.4,9.3-0.6,12.6-1.1C1123.6,201.6,1119.4,202,1115.2,202.8z
			 M1155.1,200.5c1.8-0.3,5.9-0.2,4.8-0.9l-4.8,0.5L1155.1,200.5z M1184.2,197.3c8.6-1,1-0.7-6.8,0.8
			C1179.7,198,1182,197.7,1184.2,197.3z M1676.1,185.4c2.2,0.5,4.5,0.8,6.8,0.6C1680.6,185.5,1678.3,185.3,1676.1,185.4
			L1676.1,185.4z M1147.3,201.8c2,0.2,4,0.1,6,0C1154.5,200,1141.8,202.7,1147.3,201.8z M1158,200.3c-1.6,0.3-3.2,0.4-4.8,0.4
			C1151.9,201.8,1159.8,201.4,1158,200.3z M1146.4,201.5C1132.9,202.1,1142.5,202.8,1146.4,201.5z M1172.7,199.3
			c5.1-0.9-9,0.5-13.6,1.4c4.5-0.2,9-0.6,13.5-1.4L1172.7,199.3z M1201.4,202.5c8.6-1,17.4-2,29.1-3.7c5.4-0.8,17.7-3.3,23.2-3.5
			c4.1-0.1-3,0.8,1.9-0.3c3.7-0.8,8.7-0.8,11.6-1.5c-3-0.9-16.1,2.3-15.6,0.9c-33.2,5.4-67.7,8.2-111.9,12.8
			c12.8-0.7,26.9-2.5,39.1-3.1c-13.4,1.3-13.4,1.7-1.9,0.4c3.3-0.3,6.5-0.8,9.7-1.5c4.2,0.6,25.2-3,36.1-3.7
			c-6.7,1.2-14.5,1.3-21.5,3.1L1201.4,202.5z M1122.1,209c4.3-0.3,11.1-0.4,13.7-1.1C1131.2,207.9,1126.7,208.3,1122.1,209z
			 M1205.3,205.3c4.1-0.7,11.6-1,12.6-2c-2.8,0.5-2.5-0.1-4.9,0.4C1214.4,204.4,1205.4,204.2,1205.3,205.3L1205.3,205.3z
			 M1291.1,163.2c-16.8,2-4.7,0.5,4.8-1c2,0.1,8.1-0.9,11.7-1.2C1312.2,160.9,1295.4,163,1291.1,163.2z M1120.5,183.8
			c4.5,0.4,9,0.2,13.4-0.4c-3.2,1.1-18,1.2-23,2.3C1112,184.4,1117.3,184.6,1120.5,183.8z M1110.9,184.9c-4.8,0.6-9.5,0.9-14.3,0.9
			C1091.9,186.1,1106,184.9,1110.9,184.9z M1149.4,184.5l7.7-0.7c-1.9,1-7,0.5-7.6,1.3C1147.9,185.2,1149.8,184.8,1149.4,184.5z
			 M1075.5,191.3c-1.9,0.3-3.8,0.5-5.8,0.6c-0.2-0.9,3.6-0.9,5.8-1.2c2.1,0.4-1.2,0.5,0.9,0.7
			C1076.3,191.6,1075.5,191.5,1075.5,191.3L1075.5,191.3z M1150.5,189.5c-1.9,0-3.9,0.1-5.8,0.5c4.4-1.5,8.9-2,13.5-1.6
			c-1.7,0.7-6.6-0.2-7.6,1.3L1150.5,189.5z M1733.3,193.2c-1,0-3.5-1.3-4-0.9c-1.6-1.2-2.4-2.7,4.1,1.1L1733.3,193.2z M1069.6,196.4
			c1.1-0.6,1,0.4-1,0.2c1.2,0.2,3.7,1.3,4.8,0.8c0.6,0.5-5.9,1.2-10.7,1.1c2.6-0.6,5.2-0.9,7.8-1c-0.2-0.2-0.9-0.3-1-0.5
			c-0.7,0-1.3,0.1-1.9,0.4C1065.4,197.3,1068.2,196.5,1069.6,196.4z M1080.2,199.5c0.2,0.7-3.5,0.8-4.9,0.4c0.4,0.4,2.8,0.4,1.9,1.2
			c2.9-0.2,5.8-0.2,8.7,0.2c-0.3,0.6-8-0.7-7.8,0.5c-1.7-0.3-3.7-0.6-1.9-1c-1.6-0.1-3.2,0.1-4.7,0.4c-4.6,0.7,2.6-0.5,1.9-0.6
			c-2.2-0.7-14.2,0,0-0.2c-1.3-0.2-2.6-0.3-3.9-0.2c3-0.3,5.2-0.8,8.8-1C1079,199.5,1079.6,199.6,1080.2,199.5z M1096.7,199.8
			c1.1,0.1,0.6,0.2,0,0.2c1,0.2,2,0.3,3,0.1l-0.1,1.1c-1-0.1-2.1,0.1-3,0.5c-1.1-0.1-0.5-0.2,0-0.2c-1,0-4.3-0.2-3.9,0.3
			c-1.9-0.7-1.5-0.1-4.9,0c1.5-0.4-0.5-1-2.9-1.1c0.6-0.7,6.3-0.5,3.9,0.2l3.9,0c-0.6-0.3-1.3-0.4-2-0.4c2.3-0.7,4.4,0.5,7.8,0.1
			c-1.6-0.2-3.2-0.3-4.9-0.2C1094,200,1096.6,200.2,1096.7,199.8z M1097.7,202c4.7-0.7,11,0,14.6-0.2c-2.8,0.6-9,0.3-6.8,1.8
			c-0.9,0-1.5-0.6-2-0.1c-1.7-0.1,1.4-0.9,1.9-1.2C1102.8,202.1,1100.2,202,1097.7,202z M1092.8,206.2c-1.1,0.5-6.4,0.1-6.8,0.7
			C1084.2,206.6,1090,205.7,1092.8,206.2z M1100.6,212.8c3.7-1.2,20.6-2,29.4-3.4c-7.5,1.4-15,2.3-22.5,2.7c2.5,0.7,8-0.9,10.8-0.2
			c0.5,0.7-4.4,1.1-7.8,1.3c-3.4,0.1-5.1,0,1.9-0.3c1.3-0.2,2.6-0.4,3.9-0.4C1113.3,212,1102.7,212.7,1100.6,212.8z M1132,209.4
			c0.3-0.4,1.7,0.1,1.9-0.4c4.6-0.3,9.2-0.6,13.7-1c-4.2,0.6-8.5,1-12.7,1.2C1134,209.5,1133,209.5,1132,209.4z M1131.1,210.9
			c2-0.3,8.3-0.5,15.7-0.9c-6.8,1.1-13.7,1.6-20.6,1.5c1-0.5,4,0.2,7.8-0.3c-1-0.1-2-0.2-3-0.1L1131.1,210.9z M1109.6,215.6
			c-3.9-0.5,6.2-0.8,6.9-0.6c-0.5,0.5-5.5,0.3-6.9,0.7L1109.6,215.6z M1249,210.1c5.1-1.1,10.3-1.8,15.5-2.3
			c-2,1.3-11.6,1.9-15.5,2.4L1249,210.1z M1577.4,195.1c-1.3-0.3-2.5-0.5-3.8-0.5c2.8-0.4,9.9,0.7,17.3,1c-4.4,0.8-8-0.7-13.5-0.4
			c-1.1,0-0.5-0.1,0-0.1L1577.4,195.1z M1296.8,160.9c1.9-0.6,3.9-0.9,5.8-0.7c-4.1,1.3-8.4,2-12.6,2c1.9-0.5,4.5-0.6,8.8-1.3
			C1298.7,160.7,1297.5,160.9,1296.8,160.9z"/>
	</g>
</g>
</svg>
