<svg xmlns="http://www.w3.org/2000/svg" viewBox="0 0 1653.77 475.57"><title>portfolio-overview-slogan</title><g id="Ebene_2" data-name="Ebene 2"><g id="Ebene_1-2" data-name="Ebene 1"><path d="M180.92,102.24q1.35-3.51,2.22-6.68a42,42,0,0,0,1.26-6.69,69.23,69.23,0,0,0,.39-7.62c0-2.73-.13-6.45-.39-11.14a35.89,35.89,0,0,0,2.42-7.73,25.35,25.35,0,0,0,.49-8.92l-.58-5.15,4.25.46c-.26-.78-.45-1.44-.58-2a12,12,0,0,0-.58-1.76q-.76-2.34-1.35-4.8a13.17,13.17,0,0,1-.2-5,19.37,19.37,0,0,1-5.8-9.84,6,6,0,0,0-1.65-2.58c-.71-.63-1.58-1.33-2.61-2.11l-.78-.47A9.71,9.71,0,0,1,176.08,19a7.16,7.16,0,0,1-1.74-4.69,6.22,6.22,0,0,0-1.07-.7,5.34,5.34,0,0,1-1.06-.7q-2.72-1.63-5.42-2.93a12.55,12.55,0,0,0-5.42-1.29,7.72,7.72,0,0,0-4.84,1.64A59,59,0,0,1,146.07,29.9a197.34,197.34,0,0,1-13.55,14.65q-3.68,3.77-7.07,7.39T118,60.27a12.89,12.89,0,0,0-3.58,1.64,32.42,32.42,0,0,0-4,3c-1.81,1.4-3.74,2.81-5.81,4.22a12.14,12.14,0,0,1-7,2.11,11.63,11.63,0,0,1-6-1.88l-1.35-1.88a18.29,18.29,0,0,1-.49-4.8c.07-1.49.16-2.85.29-4.11a28.42,28.42,0,0,0,.39-4,6,6,0,0,0-1-3L89.35,49a19.6,19.6,0,0,0,0-13.84A106.2,106.2,0,0,0,83,22a21,21,0,0,1-1.45-2.58c-.45-.94-.94-1.87-1.45-2.81a12.93,12.93,0,0,1-4-1.06,33.07,33.07,0,0,0-4.36-1.52,2.75,2.75,0,0,1-1.45-.59A3.54,3.54,0,0,1,69,11.26L68.44,8a14.11,14.11,0,0,0-3.1-3.16,28.66,28.66,0,0,0-4.06-2.47A26.94,26.94,0,0,0,54.7,6.21a30.67,30.67,0,0,0-4.94,5.16,43,43,0,0,0-4.07,6.57c-1.22,2.42-2.55,5-4,7.85-.91,1.73-1.84,3.6-2.81,5.63s-2,4.15-3.2,6.33a128.29,128.29,0,0,0-5.9,12.55q-3.39,8.09-7.07,17.94T15.4,88.29q-3.69,10.2-6.58,18.52T4.07,120.53c-1.23,3.6-1.84,5.47-1.84,5.63a43.78,43.78,0,0,0-2.22,14,91.24,91.24,0,0,0,1.16,15.71A85.2,85.2,0,0,0,4.85,170.6a38.7,38.7,0,0,0,5.51,10.9,38.93,38.93,0,0,0,6,.7,9,9,0,0,0,3.38-.58,7.31,7.31,0,0,0,2.81-2.23,22.52,22.52,0,0,0,2.81-4.81c1-2.11,2.09-4.81,3.39-8.09a7.37,7.37,0,0,0,.58-3.51c.12-.79.25-1.68.38-2.7a20.53,20.53,0,0,1,.58-2.93,16.57,16.57,0,0,1,1.75-2.93c.64-.86,1.29-1.68,1.93-2.47a13.62,13.62,0,0,0,1.36-1.4,4.67,4.67,0,0,0,.77-2.35,16.36,16.36,0,0,1-.58-2.23,4.4,4.4,0,0,1,.19-2.22,22,22,0,0,1,3.2-7.51,53.41,53.41,0,0,1,4.55-5.86,25.09,25.09,0,0,1,.68-8.21q1.05-4.68,2.51-9.14t2.91-7.86c1-2.26,1.64-3.79,2-4.57l1.94-3.75,1.74,4.22Q65.15,125,84.51,125a42.38,42.38,0,0,0,15.58-3.17,98.17,98.17,0,0,0,15.78-8,159.1,159.1,0,0,0,15-10.55q7.26-5.74,13.46-11.14c.26-1.25.64-2,1.16-2.11a5.86,5.86,0,0,1,1.74-.24l1.94.24v2.58A3.93,3.93,0,0,1,148,96.14q-7.37,31.2-7.07,51.36t9.58,28.37a10,10,0,0,0,4.46-1.05,26.2,26.2,0,0,0,4.26-2.7,26,26,0,0,1,3.29-2.11,24.6,24.6,0,0,1,3.87-1.64,24.13,24.13,0,0,1,1-2.82c.38-.93.77-2,1.16-3q4.83-12.9,9-27.67A103.62,103.62,0,0,0,180.92,102.24Z"/><path d="M220,135.3a2.27,2.27,0,0,1,.1-1.4,4.3,4.3,0,0,1,.68-1.41l2.52-.47.77-3.05c.26-1.09.55-2.23.87-3.4a30.25,30.25,0,0,1,1.26-3.63,13.4,13.4,0,0,0,1.55,5.39,7.93,7.93,0,0,0,.58,5.86q1.35,2.35,2.32,3.76l.87,1.05a1.76,1.76,0,0,1,.49,1.06l.58,2.58,2.13.23a37,37,0,0,0,7,.7,38.8,38.8,0,0,0,9.29-1q4.26-1.07,8.71-2.46c2.06-.63,4.13-1.21,6.2-1.76a16.47,16.47,0,0,1,7.93.35q.39,7.5-1.55,10.43t-7.74,4.81L258.12,155l3.87,5.4c.52.62,1,1.21,1.36,1.75a9.74,9.74,0,0,0,1.35,1.53,17.64,17.64,0,0,1,2.81,3.75,4.37,4.37,0,0,1,.1,3.28l-.78,3.52,2.52,1.41a12.09,12.09,0,0,1,2.52,1.87,20.61,20.61,0,0,0,2.22,1.88,11.92,11.92,0,0,0,4,1.64,21,21,0,0,0,9.29-2.7,32,32,0,0,0,8-6.33,42.7,42.7,0,0,0,6.19-8.67,61.69,61.69,0,0,0,4.55-10.91,51.36,51.36,0,0,0,.1-10.43c-.32-3.36-.74-6.61-1.26-9.73a24,24,0,0,1-.48-3.29,19.6,19.6,0,0,0-.49-3,40,40,0,0,0,9.78-7.73,34.64,34.64,0,0,0,6.49-9.62l1.93-4.45-3.48-1.65a4.93,4.93,0,0,1-1-.82,14.13,14.13,0,0,1-1-1.05,23,23,0,0,0-2.42-2.46,7.67,7.67,0,0,0-4.55-1.53,13.43,13.43,0,0,1-1.35-1.4,9.13,9.13,0,0,1-1-1.41L306.71,91l-2.51.24a14.41,14.41,0,0,0-5.42,1.41,6.25,6.25,0,0,0-2.33-.24,83.05,83.05,0,0,1-3.09-11.84q-1.17-6.21-2.13-13c-.52-3.12-1.07-6.29-1.65-9.49s-1.19-6.37-1.84-9.5c-.13-3.91-.39-7.46-.77-10.67s-.84-6.45-1.36-9.73c-.26-1.41-.48-2.81-.68-4.22s-.42-3-.67-4.69l-1-2.11a14.48,14.48,0,0,0-6-4.11c-2.59-1-5.23-1.91-7.94-2.69-1.55-.63-3-1.17-4.45-1.64a11.74,11.74,0,0,1-3.1-1.41l-3.1-2.35-2.32,4a132.71,132.71,0,0,1-10,16.06,35.27,35.27,0,0,1-11.32,10.2l-3.49-.7a6.13,6.13,0,0,0-2.23.35,12,12,0,0,0-1.64.82l-2.13-.23-1.36,2.34a53.75,53.75,0,0,0-5.13,9.15q-2,4.7-3.77,9.38c-1,2.66-2.1,5.24-3.2,7.74a87.38,87.38,0,0,1-4.35,8.44,9.41,9.41,0,0,0-.39,2.46,9,9,0,0,0,.2,2q-1.75,4.7-3.59,9.15T200.43,95q-5.61,13.85-10.74,27t-10,27.43l-.2,4.93L177,156.64l2.9,3.52a10.5,10.5,0,0,1,1.16,4.22,28.08,28.08,0,0,1,.58,3.17,13.35,13.35,0,0,0,1,3.4l1.16,1.87a16.92,16.92,0,0,1,3.39,2.7c1,1,2.23,2.46,3.78,4.34l2.51.23a11.77,11.77,0,0,0,2.42-.23c.71-.16,1.91-.47,3.58-.94l2.91-.47.58-3a8.07,8.07,0,0,1,2.71-1.87c.9-.47,1.84-1,2.81-1.64a7.3,7.3,0,0,0,2.42-2.82l.77-3a29.16,29.16,0,0,1,.87-7q.87-3.53,1.84-7.27c.51-1.56,1-3.13,1.45-4.69a38.29,38.29,0,0,0,1.07-4.93,6.21,6.21,0,0,1,1-.93,4.14,4.14,0,0,0,1-1.18l1.94-2.11Zm18.78-39.63.2-.23a117.17,117.17,0,0,1,7.35-13.84,160.33,160.33,0,0,1,9.3-13.6l1-2.34q2.13,9.15,4,18.17t3.39,17.71a111.1,111.1,0,0,1-12.58,2.34q-5.82.7-12.59,1.17a14.91,14.91,0,0,1-2.61.24,15.89,15.89,0,0,0-2.61.23Q236,100.38,238.76,95.67Z"/><path d="M526.46,163.44q4.54-4.92,8.23-14.07c-1,.16-1.75,0-2.13-.58a5.84,5.84,0,0,1-.87-2.23c-.2-.94-.39-1.95-.58-3.05a6.08,6.08,0,0,0-1.26-2.81,3.49,3.49,0,0,1-3.49-.94,21.49,21.49,0,0,1-2.61-3.4q-1.26-2-2.62-4a6.81,6.81,0,0,0-3.29-2.69,59.42,59.42,0,0,1-11.71,3.16A33,33,0,0,0,495,136.71a71.69,71.69,0,0,0-12.1.47q-4.93.7-9.58,1.41a92.43,92.43,0,0,1-9.88.93,61.66,61.66,0,0,1-13.16-1.17,114.28,114.28,0,0,1,5.42-14.18q3.09-6.69,6.58-12.78a15.79,15.79,0,0,0,6.29,1.17,15.81,15.81,0,0,1,6.3,1.17,8.89,8.89,0,0,1,5.32-.82,8.1,8.1,0,0,0,5.13-.82A2.62,2.62,0,0,0,487,113h1.64a26.57,26.57,0,0,0,10.07-1.41,40,40,0,0,0,8.61-4.22,70.76,70.76,0,0,0,7.65-5.75q3.67-3.16,7.55-6.21a11.31,11.31,0,0,0,.58-5.39,21.52,21.52,0,0,0-1.35-4.93,5.63,5.63,0,0,1-4.07-1.05,19.66,19.66,0,0,1-3.39-3.29q-1.65-2-3.19-4.1a19,19,0,0,0-3.29-3.52,2.64,2.64,0,0,1,.38-1.64,2.11,2.11,0,0,0,.2-1.64q-9.5.47-19.36,1.52a81.22,81.22,0,0,1-18,.12,13.44,13.44,0,0,1-.48-4.45,13.35,13.35,0,0,0-.87-5.16c1.42-.47,2.81-.94,4.16-1.41a8.77,8.77,0,0,0,3.58-2.35,8.27,8.27,0,0,0,4,0q1.65-.46,3-.93a11.41,11.41,0,0,1,2.62-.59,5.55,5.55,0,0,1,2.8.59A39.75,39.75,0,0,1,500,51.59a75.81,75.81,0,0,1,10.36-2.93q5.13-1.06,10.07-2a46.18,46.18,0,0,0,9.39-2.81,30.89,30.89,0,0,0,8.42-5.39,31.49,31.49,0,0,0,7.06-9.85,15.25,15.25,0,0,1-.38-2.93,8.18,8.18,0,0,1,.19-1.88,14.36,14.36,0,0,0,.29-1.76,18.24,18.24,0,0,0-.1-3.05,43.18,43.18,0,0,1-8.13-5.51,24,24,0,0,1-6-8.09c.13.79.07,1.29-.19,1.53a.72.72,0,0,1-.87.11A11.69,11.69,0,0,0,529,6.57a3.5,3.5,0,0,0-1.07-.24,6,6,0,0,0,.1,1.06,8.52,8.52,0,0,1,.09,1.29A2.15,2.15,0,0,1,526,7h-1.25c-.33,0-.55-.23-.68-.7q-9.87,2.12-17.42,3.17T492.1,11.84q-7,1.29-14.33,3.29t-16.65,5.51Q455.9,22,451.25,23.1a46.82,46.82,0,0,0-8.62,2.81,31.69,31.69,0,0,0-7.26,4.46,23.49,23.49,0,0,0-5.61,6.91,60.2,60.2,0,0,1,1.55,9.27c.26,3.05.64,6.06,1.16,9a59,59,0,0,0,2.23,8.79,23.35,23.35,0,0,0,4.74,8.09,85.59,85.59,0,0,1-3.39,9.73q-1.85,4.35-3.58,8.56c-1.16,2.81-2.26,5.71-3.29,8.68s-2,6.17-2.9,9.61c-1-.31-1.65,0-1.84.82a2.29,2.29,0,0,1-.45.94v-3.17a10.47,10.47,0,0,1,.19-2.11l.39-1.87c.13-.63.32-1.41.58-2.35q-.76-15-5.61-26a79.71,79.71,0,0,0-12.1-19.58A121.81,121.81,0,0,0,391.37,40q-8.81-7.15-17.13-14.42a76.11,76.11,0,0,1-11-4.34q-5.61-2.68-11.42-5.63T340,9.61a126.28,126.28,0,0,0-12.19-5.39,25.12,25.12,0,0,0-2.13,7.27,41.47,41.47,0,0,1-2.13,8.21q1.16,5.4,2.42,9.49a28.62,28.62,0,0,1,1.26,8.33h-3.1c-1,0-1.42.7-1.16,2.11a3.39,3.39,0,0,1,0,2.23,18.76,18.76,0,0,0-.58,3.87,189.79,189.79,0,0,1,3.87,26,139.18,139.18,0,0,1-.39,27.43,7.39,7.39,0,0,0-2.32,2.82,88.26,88.26,0,0,1-2.33,14.53q-1.74,7-3.87,14.54a10.4,10.4,0,0,1-1.06,5.87,19.34,19.34,0,0,0-2,5.15q.58,6.81,1.07,13.14a60.87,60.87,0,0,0,1.94,11.6,25.86,25.86,0,0,0,4.45,9.15,16.32,16.32,0,0,0,8.61,5.51q13-7.26,26.62-13.72a273.24,273.24,0,0,0,26.23-14.18,141.13,141.13,0,0,0,23.23-17.83,80.8,80.8,0,0,0,16.76-23.13,8.5,8.5,0,0,1-.24,2.5,19.15,19.15,0,0,1-1.36,3.63c-.58,1.17-1.16,2.39-1.74,3.64a16.65,16.65,0,0,0-1.26,4,43.25,43.25,0,0,0-.29,8.8c.19,3.2.52,6.41,1,9.61s.9,6.33,1.35,9.38.81,5.75,1.07,8.09a7.17,7.17,0,0,1,3.19,4.22,11.5,11.5,0,0,0,2.23,4.46,24.29,24.29,0,0,0,11.62,7.5,55.8,55.8,0,0,0,14.51,2.35,81,81,0,0,0,15-.94c5-.79,9.26-1.56,12.87-2.35a8,8,0,0,1,3,.59,6.07,6.07,0,0,0,3.58.12q8.72-1.87,15.78-3.17a51.43,51.43,0,0,0,12.78-4A33.15,33.15,0,0,0,526.46,163.44ZM395.92,98.72a45.92,45.92,0,0,1-7.36,7.51,56.36,56.36,0,0,1-8.9,5.86q-4.85,2.58-9.68,4.92a16.78,16.78,0,0,1-2.23,2.23,7.33,7.33,0,0,0-2,2.93,16.53,16.53,0,0,0-5.13,1.18,37.5,37.5,0,0,0-4.26,2.11c-1.35.78-2.68,1.48-4,2.11a13.05,13.05,0,0,1-4.45,1.17q1.74-11.49,2.71-21.34a180.46,180.46,0,0,0,.87-19.23,166.64,166.64,0,0,0-1.26-18.76q-1.16-9.37-3.48-19.93a3.08,3.08,0,0,1,2.51-.94,13.86,13.86,0,0,0,6.2,3.64,38.42,38.42,0,0,1,9.1,4.57,13.12,13.12,0,0,1,5.71,1.64q2.42,1.41,4.55,2.93c1.42,1,2.9,2,4.45,3.05a13.34,13.34,0,0,0,5.42,2,22.23,22.23,0,0,0,3.58,6.22c1.49,1.8,3,3.51,4.65,5.16s3.16,3.28,4.65,4.92a22,22,0,0,1,3.77,6A36.58,36.58,0,0,1,395.92,98.72Z"/><path d="M605.27,153.13q1,1.88,1.94,4.22t1.93,4.92a46.09,46.09,0,0,0,6.78,7.27,58.19,58.19,0,0,0,7.35,4.93c.78.46,1.58.93,2.42,1.4s1.78,1,2.81,1.64A43.93,43.93,0,0,0,644.86,174a65.76,65.76,0,0,0,14.42-8.56,121.49,121.49,0,0,0,13-11.73q6.19-6.45,12.2-13.25l2.32-2.81,4.07-4.46,2.71-3,1.93,4.45,3.29,7.27c.52,1.1,1,2.15,1.46,3.17s.87,2.07,1.25,3.16Q706.13,159,711,167.78A32.88,32.88,0,0,0,723.75,181a9.43,9.43,0,0,1,2.61-1.88,8.31,8.31,0,0,1,3.58-.7,19.43,19.43,0,0,1,4.65.7,77.8,77.8,0,0,0,17.13-17.23,150.68,150.68,0,0,0,13.46-22.4,263.59,263.59,0,0,0,10.93-25.67q4.93-13.48,9.59-27.09,3.67-10.55,7.35-20.87T801,45.73a90,90,0,0,0-2.42-14.66,44.47,44.47,0,0,0-4.45-11,48.23,48.23,0,0,0-6.58-8.79,75,75,0,0,0-9-8,75,75,0,0,0-4.74,9.27q-2.41,5.5-4.94,12.19t-4.93,14.07q-2.43,7.38-4.75,14.89-3.28,10.32-6.58,20t-6.68,18.06a136.36,136.36,0,0,1-7,14.77,38.84,38.84,0,0,1-7.45,10l-9.29,8.68a15.19,15.19,0,0,1-1.84-5c-.32-1.8-.61-3.55-.87-5.28a40.87,40.87,0,0,1-.39-5.63c0-2.49,0-4.45.1-5.86s.22-3.12.48-5.16.71-4.84,1.36-8.44,1.61-8.91,2.9-15.94q.59-3.53,1.26-7.27t1.26-7.39q.59-3.63,1.06-6.68c.32-2,.55-3.67.68-4.93A29.54,29.54,0,0,0,726,42.91l-2.8-4.69c-.78-1.25-1.58-2.54-2.42-3.87s-1.72-2.85-2.62-4.57a16.24,16.24,0,0,1-6.09-4c-1.88-1.87-3.52-3.67-4.94-5.39a57.92,57.92,0,0,0-6.78,9.26q-3.68,6-7.55,13t-7.64,14.77q-3.78,7.74-7.26,14.54-3.89,8-6.68,13.72t-5.42,10.55a99.93,99.93,0,0,1-5.71,9.26q-3.1,4.45-7.55,9.85-3.3,4-6.78,7.51a75.18,75.18,0,0,1-6.29,5.86,20.53,20.53,0,0,1-6.1,3.75q1-8.67,2-16t2-12.42q1.15-6.11,2.32-10.79,1.35-5.86,3.68-14t4.74-16.77q2.42-8.67,4.65-17.23t3.38-15.6a60.61,60.61,0,0,1-7.35-7.62,78.69,78.69,0,0,1-6.39-9.5,10.8,10.8,0,0,1-2.52-1.52,10.91,10.91,0,0,1-2.51-2.93q-4.26.93-7.94,5.86a66.13,66.13,0,0,0-6.87,11.84A130.23,130.23,0,0,0,616.79,41q-2.61,8.2-4.74,15.47-2.32,8.22-4.55,19.7t-4.17,22.63Q601.4,110,600,119.36t-2,13.37A95.77,95.77,0,0,0,601.2,143Q603,147.5,605.27,153.13Z"/><path d="M800.18,31.42q1.35,3.28,2.32,6.33a26.91,26.91,0,0,0,2.32,5.4,13,13,0,0,0,3.58,4A11.2,11.2,0,0,0,814.5,49a28.75,28.75,0,0,1,6.39-2.46q4.46-1.29,11.81-2.7a106.85,106.85,0,0,1-2.81,16.53q-1.83,6.93-4.16,15.13A46.72,46.72,0,0,1,824,85.24q-1.37,4.58-3.1,9.14T817.31,104a72.66,72.66,0,0,0-3,10.9q-2.32,6.1-4.84,12.78t-5.42,14a45.67,45.67,0,0,0-7.55.58c-2.32.39-4.65.82-7,1.29s-4.71.94-7.16,1.41a61.57,61.57,0,0,1-8.33.94,31.58,31.58,0,0,0-2.51,2.93,7.93,7.93,0,0,0-1.17,4.81q.78,3.75,1.46,7.85a70.7,70.7,0,0,0,1.74,7.86,39.88,39.88,0,0,0,2.71,7,15.44,15.44,0,0,0,4.35,5.39,55.22,55.22,0,0,0,13.75-2.22q6.78-2,13.26-3.76a68,68,0,0,1,12.78-2.22,27.79,27.79,0,0,1,12.29,1.87,1.48,1.48,0,0,0,.39-1.52,1,1,0,0,1,.77-1.29c3.1-.31,6.45-.7,10.07-1.17a37.52,37.52,0,0,1,11,.23,26.13,26.13,0,0,1,2.91-3.4,3.28,3.28,0,0,1,3.29-1.05q1.35-2.12,2.81-4.93a19.64,19.64,0,0,0,1.93-5.51,8.92,8.92,0,0,0-.48-5q-1-2.34-4.65-3.52a4.2,4.2,0,0,0-1.26-3.4,12.38,12.38,0,0,0-2.8-1.76,17.91,17.91,0,0,1-2.91-1.64,4.94,4.94,0,0,1-1.74-3.52H838.9c1-2.65,1.9-5,2.61-7.15s1.42-4.26,2.13-6.45,1.48-4.53,2.32-7,1.9-5.55,3.2-9.15q-.2-2.34,1.64-10.2t4.36-17.82q2.51-10,4.93-20.4a179.34,179.34,0,0,0,3.39-18.17c2.95-.12,6-.27,9-.44.24.78.47,1.52.69,2.19a17.48,17.48,0,0,1,.68,3.4v2.58L876,50c.64.15,1.35,1.09,2.13,2.81l1.35,1.88a11.08,11.08,0,0,0,4.07,1.76,20.07,20.07,0,0,0,3.48.35h9.87a8.05,8.05,0,0,1,3.68-.71h4.65c.9,0,1.8,0,2.71-.11a6.78,6.78,0,0,0,2.9-1.06,9.43,9.43,0,0,0,2.52.24,18,18,0,0,0,4.84-.71c.77-.15,1.51-.27,2.23-.35a21.6,21.6,0,0,1,2.42-.12,16.13,16.13,0,0,1-.88,3.29c-.45,1.25-.93,2.5-1.45,3.75-.77,2-1.48,4-2.13,6a19.09,19.09,0,0,0-1,6,12.55,12.55,0,0,0-1.75,1.64l-2.13,2.58q-1.35,6.1-3.09,12t-3.68,11.49q-3.49,10.55-6.39,21.69t-2.52,27.55a13,13,0,0,1,1.45,3.76l1.07,4.68a63.22,63.22,0,0,0,1.45,6.34,23.21,23.21,0,0,0,2.42,5.62c0,.63-.07,1.73-.19,3.29l2.13,1.4a10.6,10.6,0,0,0,3.09,1.65,1.66,1.66,0,0,0,1,.58,1.68,1.68,0,0,1,1,.59,5.61,5.61,0,0,0,2.13,2.23c.77.38,1.74.89,2.9,1.52a13,13,0,0,0,1.55,2.11l2.71.24q8.13,0,11.62-5.4,3.29-4.68,2.13-13.13l-1.94-2.81a5.58,5.58,0,0,1-2.9-1.88,2.36,2.36,0,0,0-1-.7,2.38,2.38,0,0,1-1-.71,8.81,8.81,0,0,0-1-2.34c-.38-.63-.77-1.25-1.16-1.88a5.21,5.21,0,0,1-.19-2.46c.13-.86.32-1.84.58-2.93l.39-2.82a22,22,0,0,0,.19-2.81,12.39,12.39,0,0,0,1.16-4,3.87,3.87,0,0,1,.19-2q.39-1.29.78-2.46a43.78,43.78,0,0,0,1.55-5.86,8.65,8.65,0,0,0,1.06-2.11,8.68,8.68,0,0,1,1.65-2.58l.77-3.52c.65-2.19,1.39-4.84,2.23-8a26.26,26.26,0,0,1,4.16-8.68A49.09,49.09,0,0,1,942.43,96a72.46,72.46,0,0,1,3.87-8.09q1.35-5.86,2.9-10.67c1-3.21,2.13-6.37,3.3-9.5s2.25-6.25,3.29-9.38,2.19-6.72,3.48-10.79L967,46.55q4.26-.59,8.91-1.29,6.39-1.17,13.16-2.11a97.9,97.9,0,0,1,10-.89c-.68,5.83-1.16,11.82-1.42,18a208.46,208.46,0,0,1-1.84,20.87,4.05,4.05,0,0,0-1.65-.12q-.67.12-.87,1a17.12,17.12,0,0,1,.78,5.75,49.22,49.22,0,0,1-.58,7.39,39.41,39.41,0,0,1-1.84,7.26,18.62,18.62,0,0,1-3,5.63,102.35,102.35,0,0,1-1.36,13,36.82,36.82,0,0,1-4.84,13.25,6.37,6.37,0,0,1,.58,3.28,15.08,15.08,0,0,1-.67,2.81,28.4,28.4,0,0,0-.87,3,11,11,0,0,0,0,4.22c-.52-.62-.94-.74-1.26-.35a4.6,4.6,0,0,0-.78,1.76q-.29,1.17-.48,2.46a4,4,0,0,1-.78,2,43.12,43.12,0,0,1,2.62,7.5,20.57,20.57,0,0,0,3.19,6.8q-.78-.47-1.26,0a2,2,0,0,0-.58,1.17,3.55,3.55,0,0,0,.1,1.41c.13.47.39.62.77.47a1.85,1.85,0,0,0,1,1.4c.65.47,1.39,1,2.23,1.65a17.14,17.14,0,0,1,2.42,2.22,4.28,4.28,0,0,1,1.16,2.93q4.45,2.82,7.65,2.94a12.56,12.56,0,0,0,5.9-1.18,34.46,34.46,0,0,0,5.32-3.16,23.73,23.73,0,0,1,5.91-3.05,3.12,3.12,0,0,0,0-2.23,7.5,7.5,0,0,1-.78-1.76c1.17.16,2.29-.7,3.39-2.58a40.68,40.68,0,0,0,3-6.44c.9-2.43,1.68-4.73,2.33-6.92a22.75,22.75,0,0,0,1-4q2.91-2.11,7.65-5.28a117.76,117.76,0,0,1,10.26-6.09,119,119,0,0,1,11.33-5.28,45.94,45.94,0,0,1,11.22-3c0,.16-.16,1.22-.48,3.17s-.65,4-1,6.21-.61,4.26-.87,6.22-.39,3-.39,3.16a23.84,23.84,0,0,0,2.62,12.08,59,59,0,0,0,6.68,10l-1,2.11a10.11,10.11,0,0,1,4,2.22,36.37,36.37,0,0,0,3.58,2.93q4.06-1.64,8.23-3.63a24.34,24.34,0,0,0,12.39-13.6,29.69,29.69,0,0,0,1.45-12.08,12.49,12.49,0,0,1-1.26-6.91,15.93,15.93,0,0,0-.29-6.22,15.38,15.38,0,0,0,2.9-4.69,60.14,60.14,0,0,0,2-5.74c.58-2,1.19-3.91,1.83-5.87a18.28,18.28,0,0,1,2.52-5,160.43,160.43,0,0,1,3.2-21.22q2.22-10,4-20.52-.19-9.15-.58-17.7t-1-16.77a26.29,26.29,0,0,1-5.72-8q-2.22-4.7-4.16-10t-3.87-10.43a69.14,69.14,0,0,0-4.45-9.62,13.22,13.22,0,0,0-7.16,5,27.18,27.18,0,0,0-4.36,9,46.51,46.51,0,0,0-1.65,11.14,46.79,46.79,0,0,0,1,11.37,3.73,3.73,0,0,0-2.32,2.11,9.94,9.94,0,0,1-1.94,2.82,80.64,80.64,0,0,1-.38,22.28q-1.76,11-2.91,22.27a62.54,62.54,0,0,1-10.74,5.16A120.32,120.32,0,0,1,1052.25,96c-3.94,1-7.93,2-12,3s-8,2.08-11.71,3.17q.76-2.34-.39-2.7a1.8,1.8,0,0,1-1.36-1.52q1-4.69,2-11.49T1031,72.46c.71-4.84,1.29-9.62,1.74-14.31s.74-8.83.87-12.42a72.92,72.92,0,0,0-5-9.38c-1.58-2.46-3.12-4.92-4.65-7.37,0-3.94-.7-7-2.19-9.28a42.35,42.35,0,0,0-5.71-7l-.26-.25c-.34-1.13-.66-2.28-.94-3.5a15,15,0,0,0-1.7.67,13.91,13.91,0,0,1-1.74-2.78L1009,4.69c-1.81-.31-3.68-.55-5.61-.7s-4-.24-6.2-.24a106.07,106.07,0,0,0-15.48,1.17L966.05,7.27q-5.62.95-10.84,1.76t-10.27,1.29a15.52,15.52,0,0,0-2.71-2.93Q940.49,5.86,936,6.1l-2.13,1.4c-.26.63-.48,1.18-.68,1.65s-.61,1.56-1.26,3.28q-10.26.71-19.16,2.11c-4.89.56-9.65,1.05-14.33,1.49A11.68,11.68,0,0,0,894,9.38a20.41,20.41,0,0,0-8.13-3.05,59.34,59.34,0,0,0-9.1-.7,21.27,21.27,0,0,1-8-1.41q-9.3.71-20.23,1.17l-21,.94a12.16,12.16,0,0,1-5.61,2.46q-3.3.6-6.87.94l-7.26.71a28.62,28.62,0,0,0-7,1.52,6.47,6.47,0,0,1-.2,4.1c-.51,1.8-1.29,2.86-2.32,3.17q1.93,1.88,2.32,6A15,15,0,0,1,800.18,31.42Z"/><path d="M1176,155.47a32.93,32.93,0,0,0,4.26,9.15,15.2,15.2,0,0,0,1,3.4,9.59,9.59,0,0,0,1.36,2.22,16.29,16.29,0,0,0,.77,1.65,22.12,22.12,0,0,1,1.16,2.81q7,7,18.39,7a47.9,47.9,0,0,0,15.4-2.58q7.63-2.57,14.22-5.15a9.49,9.49,0,0,1,1.94-.71c.65-.15,1.74-.39,3.29-.7a49.23,49.23,0,0,0,5.81-.35c1.94-.24,3.87-.51,5.81-.82s3.64-.55,5.51-.71,3.71-.23,5.52-.23a31.12,31.12,0,0,1,12.78,2.58,24.12,24.12,0,0,1,7.94-1.41,38.86,38.86,0,0,0,4.06-.23,24.44,24.44,0,0,1,2.52-2.7,12.27,12.27,0,0,1,4.84-2l-.39-3a6.77,6.77,0,0,0,.78-3.28c.12-.63-.33-1.8-1.36-3.52l-1.6-11a74.39,74.39,0,0,0,6.3,14,48,48,0,0,0,9.49,11.72,35.63,35.63,0,0,0,12.49,7.27,31.76,31.76,0,0,0,15.48.94q8.91,2.34,15.49,1.17a60.14,60.14,0,0,0,13.55-4.22,17.35,17.35,0,0,0,6.59-.35,52.76,52.76,0,0,0,7.35-2.23,75.17,75.17,0,0,0,7.16-3.17,40.57,40.57,0,0,0,6-3.63q3.29-.93,6.38-1.76a18.27,18.27,0,0,0,5.81-2.69,45.85,45.85,0,0,1,8.52-6.92,25.56,25.56,0,0,0,7.74-7.62,16.35,16.35,0,0,0,4.46-5.51,38.85,38.85,0,0,0,3.09-7.86,48.2,48.2,0,0,0,1.55-8.79,47,47,0,0,0,0-8.56,35.13,35.13,0,0,0-1.35-6.1q-1-3-2-6.1a51,51,0,0,1-1.74-6.21,19.63,19.63,0,0,1-.29-6.45,214.07,214.07,0,0,1-10.07-23.1,243.7,243.7,0,0,0-9.87-23.1,6,6,0,0,0,.58-3.51c-.13-1.09-.58-1.68-1.35-1.76s-1.16-.74-1.16-2a6.17,6.17,0,0,0,3.09-4.34c.52-2.11,1.1-4.11,1.75-6a18.57,18.57,0,0,0-.88-2.82c-.32-.78-.64-1.48-1-2.11a12.52,12.52,0,0,1-.87-2.11,27.46,27.46,0,0,1-.78-3.05c-.65-.15-1.06-.07-1.26.24s-.61.47-1.26.47a7.16,7.16,0,0,0-1.74-4c-.9-.94-1.81-1.83-2.71-2.7A22.55,22.55,0,0,1,1392,10.2a7.91,7.91,0,0,1-1.36-4.34,9.06,9.06,0,0,0-6-3.63,14.13,14.13,0,0,1-6.2-2.23A31.51,31.51,0,0,0,1374,4.22a25.89,25.89,0,0,0-3.29,5.86,25.27,25.27,0,0,1-4,.47,31.92,31.92,0,0,0-3.39.24c-1.81,3-3.35,5.39-4.64,7.27a17.7,17.7,0,0,1-6.2,5.15v3.05a10.42,10.42,0,0,0-3.29,1.88,28.81,28.81,0,0,0-2.61,2.58,22.75,22.75,0,0,1-2.71,2.58,8.51,8.51,0,0,1-3.39,1.64,14.08,14.08,0,0,1-2.23,3.52,31.29,31.29,0,0,1-2.71,2.69,36.35,36.35,0,0,0-2.71,2.7,10.65,10.65,0,0,0-2,3.52,4.76,4.76,0,0,0-2,1.64,24.24,24.24,0,0,0-1.55,2.34,6.55,6.55,0,0,1-1.55,1.88,1.92,1.92,0,0,1-2.23,0l-12.87,18.53a145.57,145.57,0,0,0-11.91,20.63,106.49,106.49,0,0,0-7.93,24,92.1,92.1,0,0,0-1,28.41,23.17,23.17,0,0,0-4.66-3.32c-1.61-.86-3.26-1.68-4.93-2.46-1.94-.78-3.75-1.61-5.42-2.47a17.39,17.39,0,0,1-5.23-4.57,7.32,7.32,0,0,0-1.55-.23h-1.16a10.91,10.91,0,0,1-1.94-.12,9,9,0,0,1-2.51-1.76,104.83,104.83,0,0,1-12.59.7q-8.13.24-16.35,1.18a36.94,36.94,0,0,0-15.2,5.16,12.76,12.76,0,0,0-4.84-.94,14.77,14.77,0,0,0-4.26.7,77.45,77.45,0,0,1,2.71-18.41q2.32-8.08,5-16.29,1.56-4.45,3.1-9a56.35,56.35,0,0,0,2.32-11.84,7.71,7.71,0,0,0,1.75-2.7c.38-1,.7-2,1-2.93.26-.78.49-1.56.68-2.35a9.07,9.07,0,0,1,1.45-2.81A70.16,70.16,0,0,1,1229.41,60c.9-2.81,1.87-5.63,2.9-8.44.9-2.5,1.81-5.12,2.71-7.86a95.15,95.15,0,0,0,2.52-9.49,7.53,7.53,0,0,0,1.93-2.58q.78-6.1-1.06-10a48.74,48.74,0,0,0-4.36-7.39l-3.29-3.51a25.89,25.89,0,0,1-9.39-2.23,59.32,59.32,0,0,1-9.58-4.81,3.46,3.46,0,0,0-1.35.24,5.5,5.5,0,0,0-1,.47,9.51,9.51,0,0,0-2.71,1.87q-2.91,14.07-6.49,26.5t-7.45,25.32q-2.13,7-4.36,14.66t-4.55,15.83c-.13.31-.26.67-.38,1A7.85,7.85,0,0,1,1183,91c-.65,1.73-1.3,3.6-1.94,5.63a9.33,9.33,0,0,0-.19,5.63,20.31,20.31,0,0,0-2.91,7.15q-1,4.35-1.93,8.8c-.26,1.72-.58,3.36-1,4.92a84.41,84.41,0,0,0-1.36,10.55,63.65,63.65,0,0,0,.2,11.14A57,57,0,0,0,1176,155.47Zm146.22-32.95a62.66,62.66,0,0,1,4.35-9.49q2.52-4.45,5.13-8.8a54.37,54.37,0,0,0,4.55-9.73c.77-.31,1.23-.39,1.36-.23s.51,0,1.16-.47a75.64,75.64,0,0,1,12.1-14.31q6.68-6.09,13.45-12.66a9.42,9.42,0,0,0,2.62,1.88,6.54,6.54,0,0,0,2.9.7,4.38,4.38,0,0,0,2.61-.82,5.23,5.23,0,0,0,1.74-3.17c.91,1.1,1.75,1.26,2.52.47a6.1,6.1,0,0,0,1.55-2.34,145.39,145.39,0,0,1,8.52,18.88,109.92,109.92,0,0,0,8.71,18.4,22.83,22.83,0,0,0,.29,4.22,16.77,16.77,0,0,0,1.26,3.52,11.19,11.19,0,0,1-1.74,6.1,18.09,18.09,0,0,0-2.52,4.92q-7.54,4.69-14.52,9.26a34.43,34.43,0,0,1-15.1,5.52c-1,0-1.55.7-1.55,2.11a50,50,0,0,0-10.07,1.17,111.66,111.66,0,0,1-11.22,1.76,42.45,42.45,0,0,1-10.94-.24,15.85,15.85,0,0,1-9.2-4.8A37.68,37.68,0,0,1,1322.2,122.52Z"/><path d="M1653.74,22a18.24,18.24,0,0,0-.1-3.05,43.18,43.18,0,0,1-8.13-5.51,24,24,0,0,1-6-8.09c.13.79.06,1.29-.19,1.53a.72.72,0,0,1-.87.11,11,11,0,0,0-1.17-.46,3.39,3.39,0,0,0-1.06-.24,6,6,0,0,0,.1,1.06,8.52,8.52,0,0,1,.09,1.29A2.15,2.15,0,0,1,1634.28,7H1633c-.33,0-.56-.23-.68-.7q-9.87,2.12-17.43,3.17t-14.51,2.34q-7,1.29-14.33,3.29t-16.65,5.51q-5.22,1.39-9.87,2.46a46.82,46.82,0,0,0-8.62,2.81c-.94.42-1.83.89-2.71,1.38.1-.69.18-1.45.23-2.32a4.06,4.06,0,0,0-.48-2.46l-1.74-5.63c-.39-1.25-.71-2.26-1-3s-.55-1.6-.87-2.46-.81-2.22-1.45-4.1a11.56,11.56,0,0,1-4.26.12,12.08,12.08,0,0,1-2.9-1.06l-2.72-1.41a15,15,0,0,0-3.87-1.17,309,309,0,0,0-19.07,24.86q-7.45,11-13.45,21.69t-11.91,22.28q-5.89,11.6-14.42,26.61a66.14,66.14,0,0,1-1.84-12.07q-.48-6.91-1-14.66t-1.16-15.71a109.4,109.4,0,0,0-2.32-15.13,58.68,58.68,0,0,0-4.65-13.13,25.73,25.73,0,0,0-7.84-9.5,8.56,8.56,0,0,0-.29-4.22,14.49,14.49,0,0,0-2.13-4.1,12.57,12.57,0,0,0-8-5,37.93,37.93,0,0,1-4.45,4.57,15.3,15.3,0,0,0-3.88,5.51,26.27,26.27,0,0,0-1.25,8.56q-.11,5.52.38,12.08t1.17,13.71q.67,7.17.67,13.49,0,6.57-.38,13.6a67.09,67.09,0,0,0,.58,13.6,17.1,17.1,0,0,0,1.45,5.28,9.89,9.89,0,0,1,.87,5,80.09,80.09,0,0,0,.58,12.19q.77,6.57,2,13.37t2.52,13.72q1.26,6.92,2,12.78c.52,0,1,.47,1.55,1.4a16.82,16.82,0,0,1,1.36,3.52,32.46,32.46,0,0,1,.87,4.69,17.89,17.89,0,0,1-.1,4.92,5.46,5.46,0,0,1,2.61,1.76q1.07,1.29,2.13,2.82c.71,1,1.39,2.07,2,3.16a7.78,7.78,0,0,0,2.32,2.58,12,12,0,0,0,6.58,2.93,11.14,11.14,0,0,0,6.78-1.52,20.35,20.35,0,0,0,6.09-5.63,30.71,30.71,0,0,0,4.55-9.38,17.52,17.52,0,0,1-.09-3.16c.06-.86.16-1.68.29-2.47a15.38,15.38,0,0,0,.19-2.34,15.7,15.7,0,0,0-.39-3,80,80,0,0,0,8.43-11.37,29.4,29.4,0,0,0,4.54-14.19,1.69,1.69,0,0,0,1.65-.94c.32-.62.64-1.25,1-1.87a8.92,8.92,0,0,1,1.06-1.64,2.14,2.14,0,0,1,1.75-.71,134.12,134.12,0,0,1,10-22.16q5.9-10.42,12.29-20.17t12.78-18.64q3.46-4.85,6.6-9.56c.16,1.16.32,2.32.52,3.47a59,59,0,0,0,2.23,8.79,23.35,23.35,0,0,0,4.74,8.09,85.59,85.59,0,0,1-3.39,9.73q-1.84,4.35-3.58,8.56c-1.16,2.81-2.26,5.71-3.29,8.68s-2,6.17-2.91,9.61c-1-.31-1.64,0-1.83.82a1.82,1.82,0,0,1-1.46,1.53,8.2,8.2,0,0,1-.09,3.75,19.15,19.15,0,0,1-1.36,3.63c-.58,1.17-1.16,2.39-1.74,3.64a16.65,16.65,0,0,0-1.26,4,43.25,43.25,0,0,0-.29,8.8c.19,3.2.51,6.41,1,9.61s.9,6.33,1.35,9.38.81,5.75,1.07,8.09a7.17,7.17,0,0,1,3.19,4.22,11.36,11.36,0,0,0,2.23,4.46,24.31,24.31,0,0,0,11.61,7.5,55.94,55.94,0,0,0,14.52,2.35,81,81,0,0,0,15-.94c5-.79,9.26-1.56,12.87-2.35a8,8,0,0,1,3,.59,6.07,6.07,0,0,0,3.58.12q8.71-1.87,15.78-3.17a51.43,51.43,0,0,0,12.78-4,33.15,33.15,0,0,0,10.26-7.62q4.55-4.92,8.23-14.07c-1,.16-1.75,0-2.13-.58a5.84,5.84,0,0,1-.87-2.23c-.2-.94-.39-1.95-.59-3.05a6,6,0,0,0-1.25-2.81,3.49,3.49,0,0,1-3.49-.94,21.49,21.49,0,0,1-2.61-3.4q-1.26-2-2.62-4a6.81,6.81,0,0,0-3.29-2.69,59.42,59.42,0,0,1-11.71,3.16,33,33,0,0,0-11.13,3.87,71.69,71.69,0,0,0-12.1.47c-3.29.47-6.49.94-9.58,1.41a92.43,92.43,0,0,1-9.88.93,61.66,61.66,0,0,1-13.16-1.17,112.72,112.72,0,0,1,5.42-14.18q3.09-6.69,6.58-12.78a15.76,15.76,0,0,0,6.29,1.17,15.81,15.81,0,0,1,6.3,1.17,8.88,8.88,0,0,1,5.32-.82,8.1,8.1,0,0,0,5.13-.82,2.62,2.62,0,0,0,1.65.94h1.64a26.57,26.57,0,0,0,10.07-1.41,40,40,0,0,0,8.61-4.22,70.76,70.76,0,0,0,7.65-5.75q3.68-3.16,7.55-6.21a11.31,11.31,0,0,0,.58-5.39,21,21,0,0,0-1.36-4.93,5.62,5.62,0,0,1-4.06-1.05,19.66,19.66,0,0,1-3.39-3.29q-1.65-2-3.19-4.1a19,19,0,0,0-3.29-3.52,2.64,2.64,0,0,1,.38-1.64,2.11,2.11,0,0,0,.2-1.64q-9.5.47-19.36,1.52a81.22,81.22,0,0,1-18,.12,13.44,13.44,0,0,1-.48-4.45,13.35,13.35,0,0,0-.87-5.16c1.42-.47,2.81-.94,4.16-1.41a8.77,8.77,0,0,0,3.58-2.35,8.27,8.27,0,0,0,4,0q1.65-.46,3-.93a11.3,11.3,0,0,1,2.62-.59,5.55,5.55,0,0,1,2.8.59,39.75,39.75,0,0,1,10.26-5.63,75.81,75.81,0,0,1,10.36-2.93q5.13-1.06,10.07-2a46.18,46.18,0,0,0,9.39-2.81,30.89,30.89,0,0,0,8.42-5.39,31.49,31.49,0,0,0,7.06-9.85,15.25,15.25,0,0,1-.38-2.93,8.18,8.18,0,0,1,.19-1.88A14.36,14.36,0,0,0,1653.74,22Z"/><path d="M310,436.35a4.2,4.2,0,0,0-1.26-3.4,12.44,12.44,0,0,0-2.81-1.76,18.24,18.24,0,0,1-2.9-1.64,4.91,4.91,0,0,1-1.75-3.52H288.09c1-2.65,1.9-5,2.61-7.15s1.42-4.26,2.13-6.45,1.49-4.53,2.33-7,1.9-5.55,3.19-9.15q-.19-2.34,1.65-10.2t4.35-17.82q2.52-10,4.94-20.4a184.7,184.7,0,0,0,3.39-18.18q5.81-.22,11.9-.58a91.69,91.69,0,0,0,11.71-1.41,63.22,63.22,0,0,0,10.36-2.81,23.69,23.69,0,0,0,7.84-4.58c0-1.56,0-3.16.1-4.8a19.63,19.63,0,0,0-.29-4.46,6.34,6.34,0,0,0-1.84-3.4,7.91,7.91,0,0,0-4.36-1.87q-1.35-5.87-4.93-8.21a20.41,20.41,0,0,0-8.13-3,59.44,59.44,0,0,0-9.1-.7,21.33,21.33,0,0,1-8-1.41q-9.28.7-20.23,1.17l-21,.94a12.15,12.15,0,0,1-5.62,2.46c-2.19.39-4.48.71-6.87.94l-7.26.7a29.32,29.32,0,0,0-7,1.53,6.53,6.53,0,0,1-.19,4.1c-.52,1.8-1.29,2.86-2.32,3.17,1.28,1.25,2.06,3.24,2.32,6a14.8,14.8,0,0,1-.39,6.21q1.35,3.29,2.33,6.33a26.35,26.35,0,0,0,2.32,5.4,12.83,12.83,0,0,0,3.58,4,11.14,11.14,0,0,0,6.1,1.88,28.75,28.75,0,0,1,6.39-2.46q4.44-1.29,11.81-2.7a108.07,108.07,0,0,1-2.81,16.53q-1.84,6.93-4.16,15.13a46.08,46.08,0,0,1-1.75,9.73q-1.35,4.58-3.09,9.14t-3.59,9.62a75.12,75.12,0,0,0-3,10.9q-2.31,6.1-4.84,12.78t-5.42,13.95a45.71,45.71,0,0,0-7.55.59q-3.48.58-7,1.29t-7.16,1.41a61.22,61.22,0,0,1-8.32.94,33.29,33.29,0,0,0-2.52,2.93,8,8,0,0,0-1.16,4.8q.78,3.76,1.45,7.86a73,73,0,0,0,1.74,7.86,40.68,40.68,0,0,0,2.71,7,15.47,15.47,0,0,0,4.36,5.39,55.07,55.07,0,0,0,13.74-2.22q6.78-2,13.27-3.76a68,68,0,0,1,12.77-2.22,27.71,27.71,0,0,1,12.3,1.87,1.48,1.48,0,0,0,.38-1.52,1,1,0,0,1,.78-1.29c3.09-.31,6.45-.71,10.06-1.17a37.59,37.59,0,0,1,11,.23,26.86,26.86,0,0,1,2.9-3.4,3.28,3.28,0,0,1,3.29-1q1.35-2.12,2.81-4.93a19.79,19.79,0,0,0,1.94-5.51,8.83,8.83,0,0,0-.49-5C314,438.31,312.42,437.14,310,436.35Z"/><path d="M451.44,306.21a12,12,0,0,1-5.81-2.82,55.08,55.08,0,0,1-4.45-4.57,37.51,37.51,0,0,0-4.55-4.46,11.6,11.6,0,0,0-5.9-2.46,33.2,33.2,0,0,0-2.42,7.39q-.87,4.09-1.74,8.09a75.82,75.82,0,0,1-2.13,7.74,19.67,19.67,0,0,1-3.39,6.33q-1.74,13.6-3.39,26.73A192,192,0,0,1,413,372.8a91.41,91.41,0,0,1-8.13,20.87,44.19,44.19,0,0,1-13.45,15.24,90.07,90.07,0,0,1-1.55-14.06q-.19-6.81,0-13.25t.39-12.67a98.86,98.86,0,0,0-.39-12.31c.51.16.87.12,1.07-.12a3.11,3.11,0,0,0,.48-.82,3.47,3.47,0,0,1,.48-.82,1.36,1.36,0,0,1,1.07-.35,9.67,9.67,0,0,1-.29-4.81,17.15,17.15,0,0,1,1.26-3.28,13.74,13.74,0,0,0,1.16-3.4,11.43,11.43,0,0,0-.58-5.16c.64.32,1.09.28,1.35-.11s.71-.51,1.36-.36a5.58,5.58,0,0,1-1-2.58,4.94,4.94,0,0,1,.19-1.52,2.46,2.46,0,0,0,.1-1.17,6.43,6.43,0,0,0-1.07-2c.26-.62.59-.78,1-.47s.71,0,1-.93a36.55,36.55,0,0,0-4-12.55,41.59,41.59,0,0,0-7.26-9.73,52.54,52.54,0,0,0-9.39-7.39,83.44,83.44,0,0,0-10.55-5.51q-6,16-12.48,32.48t-13,32.83q-6.49,16.31-12.88,32.13t-12,30.36a11.32,11.32,0,0,1,1.84,4.81,24.15,24.15,0,0,0,1.45,5.28,7.31,7.31,0,0,1-1.26-.12c-.45-.08-.68.2-.68.82a86.54,86.54,0,0,1,3.39,9.38,101.43,101.43,0,0,0,3.87,10.55,55.17,55.17,0,0,0,5.23,9.5,15.49,15.49,0,0,0,7.45,6,7.83,7.83,0,0,0,2.91-1.41c.77-.62,2.06-.78,3.87-.47-.26-1.25-.55-2-.87-2.11s-.23-.62.29-1.4c2.45.15,4.16-.43,5.13-1.76a12.26,12.26,0,0,0,2-4.81c.39-1.88.71-3.79,1-5.75a7.92,7.92,0,0,1,2.32-4.8,8.17,8.17,0,0,1-.48-4.69,14.55,14.55,0,0,1,1.45-3.87c.64-1.17,1.32-2.35,2-3.52a11.37,11.37,0,0,0,1.46-3.87c1,0,1.8-.7,2.32-2.11s1-3,1.55-4.69a49,49,0,0,1,1.74-4.92,5,5,0,0,1,2.9-3.05,92,92,0,0,0,12,26,106.35,106.35,0,0,0,17,19.46q6.39,2.82,10.36,2a15.1,15.1,0,0,0,7-3.4,45.79,45.79,0,0,0,5.52-5.62,20.92,20.92,0,0,1,5.8-4.93c-.64-1.87-.67-3-.09-3.4s.8-1.29.67-2.7c1,.16,1.62.44,1.75.82s.51.28,1.16-.35q2.33-5.15,4.45-10.31a25,25,0,0,1,5.81-8.68,101.49,101.49,0,0,1,3.1-13.25c1.41-4.77,2.71-9.42,3.87-14a93.74,93.74,0,0,1,.58-13.84q.76-6.33,1.74-12.19c.64-3.91,1.36-7.89,2.13-12a124.53,124.53,0,0,0,1.74-13.13,11.2,11.2,0,0,0,3.29-4,24,24,0,0,0,1.84-5.16q.68-2.81,1.26-5.63a21.52,21.52,0,0,1,1.74-5.15,29.37,29.37,0,0,0-3.09-9.74Q454.16,310.9,451.44,306.21Z"/><path d="M1067.26,390.39c.9-2.35,1.64-4.57,2.22-6.68a43.09,43.09,0,0,0,1.26-6.69,69.23,69.23,0,0,0,.39-7.62c0-2.73-.13-6.45-.39-11.14a35.82,35.82,0,0,0,2.42-7.74,25,25,0,0,0,.48-8.91l-.58-5.15,4.26.46c-.26-.78-.45-1.44-.58-2a12,12,0,0,0-.58-1.76q-.78-2.34-1.35-4.8a13.17,13.17,0,0,1-.2-5.05,19.45,19.45,0,0,1-5.81-9.84,5.9,5.9,0,0,0-1.64-2.58c-.71-.63-1.58-1.33-2.61-2.12l-.78-.46a9.71,9.71,0,0,1-1.35-1.18,7.12,7.12,0,0,1-1.75-4.69,5.82,5.82,0,0,0-1.06-.7,5.68,5.68,0,0,1-1.07-.7,58.65,58.65,0,0,0-5.42-2.93,12.52,12.52,0,0,0-5.42-1.29,7.74,7.74,0,0,0-4.84,1.64,58.79,58.79,0,0,1-10.45,19.58,199.51,199.51,0,0,1-13.55,14.65q-3.68,3.76-7.07,7.39t-7.45,8.32a13.24,13.24,0,0,0-3.58,1.65,32.26,32.26,0,0,0-4,3q-2.71,2.11-5.81,4.23a12.14,12.14,0,0,1-7,2.11,11.6,11.6,0,0,1-6-1.88l-1.35-1.88a17.92,17.92,0,0,1-.49-4.8c.06-1.49.16-2.85.29-4.11a28.42,28.42,0,0,0,.39-4,6,6,0,0,0-1-3.05l-.19-2.58a19.71,19.71,0,0,0,0-13.84,106.2,106.2,0,0,0-6.39-13.13,21,21,0,0,1-1.45-2.58c-.46-.94-.94-1.87-1.46-2.81a13.15,13.15,0,0,1-4-1.06,33.07,33.07,0,0,0-4.36-1.52,2.81,2.81,0,0,1-1.45-.59,3.54,3.54,0,0,1-1.26-2.23l-.58-3.28a14.32,14.32,0,0,0-3.1-3.16,28.66,28.66,0,0,0-4.06-2.47,27,27,0,0,0-6.59,3.87,31,31,0,0,0-4.93,5.16,43,43,0,0,0-4.07,6.57q-1.85,3.63-4,7.85c-.9,1.73-1.84,3.6-2.8,5.63s-2,4.15-3.2,6.33a124.91,124.91,0,0,0-5.9,12.55q-3.39,8.08-7.07,17.94t-7.35,20.05q-3.69,10.2-6.59,18.52t-4.74,13.72c-1.23,3.6-1.84,5.47-1.84,5.63a44,44,0,0,0-2.23,13.95c0,2.89.08,5.77.32,8.66l-5.6-.8c-2.07-.31-4-.67-5.81-1.06s-3.84-.94-6.1-1.64-5.39-1.6-9.39-2.7-7.13-2-9.38-2.81a30.27,30.27,0,0,1-6.2-2.93,62.2,62.2,0,0,1-6-4.34q-3.2-2.58-9-6.8c.25-.94.09-1.41-.49-1.41s-.87-.31-.87-.94a145.25,145.25,0,0,1,17.23-7.38A113.09,113.09,0,0,0,863,395.9a48,48,0,0,0,14.32-12.43q5.91-7.62,6.68-20.05a19.69,19.69,0,0,0-.67-5.51,11.17,11.17,0,0,1-.39-2.11,6.83,6.83,0,0,1,.29-2.46,70.3,70.3,0,0,1-3.1-8.68q-1.35-4.68-2.81-9.26a79.32,79.32,0,0,0-3.29-8.68,27.55,27.55,0,0,0-4.55-7.15v-3.52q-1.55-1.17-3-2.46c-1-.86-2-1.68-3-2.46A36.21,36.21,0,0,0,854,299.76q-5.81-4.58-10.46-8.56a25.47,25.47,0,0,0-14.9,7,71.39,71.39,0,0,0-10.75,13.49q-4.74,7.62-9.39,15.59a59.56,59.56,0,0,1-10.64,13.6,7.6,7.6,0,0,0-4-3.16,10,10,0,0,0-5.71-.83,93,93,0,0,0-3.78,13.49q-1.46,7.15-2.61,14.77t-2.62,15.36a105.06,105.06,0,0,1-4,15c.12.94.22,2.15.29,3.63a22.25,22.25,0,0,1-.2,4.22,16.18,16.18,0,0,1-.77,3.29c-.33.86-.81,1.05-1.45.58a16.8,16.8,0,0,1,.67,8.09q-.68,3.87-1.64,8c-.65,2.73-1.2,5.55-1.65,8.44a20.49,20.49,0,0,0-.22,3.45c0-.17-.09-.34-.13-.52-.19-.94-.38-1.95-.58-3a6,6,0,0,0-1.25-2.81,3.49,3.49,0,0,1-3.49-.94,21.49,21.49,0,0,1-2.61-3.4c-.84-1.33-1.72-2.66-2.62-4a6.76,6.76,0,0,0-3.29-2.69A59.42,59.42,0,0,1,744.52,421a32.45,32.45,0,0,0-11.13,3.87,71.69,71.69,0,0,0-12.1.47c-3.29.47-6.49.94-9.58,1.41a92.43,92.43,0,0,1-9.88.93,61.66,61.66,0,0,1-13.16-1.17,113.46,113.46,0,0,1,5.42-14.19q3.09-6.68,6.58-12.78a15.58,15.58,0,0,0,6.29,1.18,15.81,15.81,0,0,1,6.3,1.17,8.8,8.8,0,0,1,5.32-.82,8.1,8.1,0,0,0,5.13-.82,2.68,2.68,0,0,0,1.64.94H727a26.76,26.76,0,0,0,10.07-1.41,40.27,40.27,0,0,0,8.61-4.22,70.76,70.76,0,0,0,7.65-5.75q3.67-3.17,7.55-6.21a11.31,11.31,0,0,0,.58-5.39,21,21,0,0,0-1.36-4.93,5.62,5.62,0,0,1-4.06-1,19.66,19.66,0,0,1-3.39-3.29q-1.65-2-3.19-4.1a19,19,0,0,0-3.29-3.52,2.64,2.64,0,0,1,.38-1.64,2.11,2.11,0,0,0,.2-1.64q-9.5.47-19.36,1.52a81.22,81.22,0,0,1-18,.12,13.44,13.44,0,0,1-.48-4.45,13.35,13.35,0,0,0-.87-5.16c1.42-.47,2.81-.94,4.16-1.41a8.77,8.77,0,0,0,3.58-2.35,8.27,8.27,0,0,0,4,0q1.65-.46,3-.93a11.33,11.33,0,0,1,2.61-.59,5.57,5.57,0,0,1,2.81.59,39.75,39.75,0,0,1,10.26-5.63,75.81,75.81,0,0,1,10.36-2.93q5.13-1.06,10.07-2a46.37,46.37,0,0,0,9.39-2.81,30.89,30.89,0,0,0,8.42-5.39,31.49,31.49,0,0,0,7.06-9.85,15.25,15.25,0,0,1-.38-2.93,8.18,8.18,0,0,1,.19-1.88,14.69,14.69,0,0,0,.29-1.76,18.24,18.24,0,0,0-.1-3.05,43.18,43.18,0,0,1-8.13-5.51,24,24,0,0,1-6-8.09c.13.79.06,1.29-.19,1.53a.72.72,0,0,1-.87.11,12,12,0,0,0-1.17-.46,3.39,3.39,0,0,0-1.06-.24,6,6,0,0,0,.1,1.06,8.52,8.52,0,0,1,.09,1.29,2.15,2.15,0,0,1-2.13-1.65h-1.25c-.33,0-.56-.23-.68-.7q-9.87,2.11-17.43,3.17T730.48,300q-7,1.29-14.32,3.28t-16.65,5.51c-3.48.94-6.78,1.76-9.87,2.47a46.82,46.82,0,0,0-8.62,2.81,31.69,31.69,0,0,0-7.26,4.46,23.49,23.49,0,0,0-5.61,6.91,60.2,60.2,0,0,1,1.55,9.27q.38,4.57,1.16,9a59,59,0,0,0,2.23,8.79,23.35,23.35,0,0,0,4.74,8.09,85.59,85.59,0,0,1-3.39,9.73q-1.85,4.34-3.58,8.56c-1.16,2.81-2.26,5.71-3.29,8.68s-1.93,5.93-2.8,9.21q-1.68-2.06-3.36-4.17c-1.55-2-3.16-3.83-4.84-5.63a23.12,23.12,0,0,0-6-4.57q-3.68-2.58-7.94-5.28t-8.32-5.28q-4.06-2.57-7.74-5.15a56.64,56.64,0,0,1-6.2-4.93l-16.07,12.9a15.42,15.42,0,0,1-1.16,4,12.11,12.11,0,0,0-1,4.23c.52.31.87.31,1.07,0a3,3,0,0,0,.38-.94,5.69,5.69,0,0,1,.3-.94c.12-.31.51-.31,1.16,0a3.85,3.85,0,0,1,1.35,3.05,4.59,4.59,0,0,1-1.35,3.28,21,21,0,0,0,2.42,9.15,16.77,16.77,0,0,0,5.13,5.62,10.3,10.3,0,0,1-2,2.23,1.54,1.54,0,0,0-.09,2.46,66.44,66.44,0,0,1,6.19,2.58l-23.23,7.39a136.85,136.85,0,0,1-24.58,5.28,2.07,2.07,0,0,0-1.17,1.64,3.13,3.13,0,0,1-1,1.87A37.43,37.43,0,0,0,554,424.51a89.34,89.34,0,0,1-13.75.12,7.74,7.74,0,0,0-1.06-2.11,7.82,7.82,0,0,1-1.07-2.12A139.41,139.41,0,0,1,547,404.58q5.22-8.1,11.23-15.71t12.48-14.43q6.49-6.79,12.88-12.42a122,122,0,0,1,12.87-10q6.48-4.33,12.78-8.09t12-7.15a88,88,0,0,0,10.36-7.16,3.91,3.91,0,0,1,.1-2.69,4.42,4.42,0,0,0,.48-2.23c0-1.09-.45-1.64-1.36-1.64s-1.35-.55-1.35-1.64c1.16,0,1.74-.39,1.74-1.18a9.62,9.62,0,0,0-.39-2.57,13.71,13.71,0,0,1-.48-2.58c-.07-.78.35-1.18,1.26-1.18a15.55,15.55,0,0,0-4-6.68A31,31,0,0,0,622,303c-2-1.17-3.94-2.35-5.81-3.52s-3.39-3.24-4.55-6.21a3.37,3.37,0,0,0-2.61.12c-.85.39-2,0-3.39-1.06A96.37,96.37,0,0,1,592.2,304.1q-7.46,5.38-14.81,10.55t-14.13,10.78a65.61,65.61,0,0,0-11.61,12.43,7.19,7.19,0,0,0-3.49,1.76,16.48,16.48,0,0,0-2.42,2.93c-.71,1.1-1.42,2.23-2.13,3.4a16,16,0,0,1-2.81,3.4,102.73,102.73,0,0,0-18.29,23.34,206.61,206.61,0,0,0-13.65,28.72,14.28,14.28,0,0,1-.19,5.39,17.61,17.61,0,0,0-.58,4.69,3.41,3.41,0,0,0,1,.82c.38.24.51.75.38,1.53q1,24.62,10.84,38.69t27.3,15a13.74,13.74,0,0,0,5.42-.7,18.12,18.12,0,0,1,5.61-.94h5.23a39.37,39.37,0,0,0,7-.71,2.82,2.82,0,0,0,.87-1.17c.2-.47.61-.62,1.26-.47a37.42,37.42,0,0,0,4.65-.7l4.26-.94a37.64,37.64,0,0,1,4.45-.7,55.77,55.77,0,0,1,5.61-.24,161.7,161.7,0,0,1,15.39-6.21q7.85-2.7,15.59-5.16t15.1-5.16a76.53,76.53,0,0,0,13.84-6.68,57.74,57.74,0,0,0,5.86-4.14c.42,3,.84,5.88,1.26,8.71q.67,4.57,1.07,8.09a7.17,7.17,0,0,1,3.19,4.22,11.36,11.36,0,0,0,2.23,4.46,24.38,24.38,0,0,0,11.61,7.5A55.94,55.94,0,0,0,691.57,469a81,81,0,0,0,15-.94c5-.79,9.26-1.56,12.87-2.35a8,8,0,0,1,3,.59,6.07,6.07,0,0,0,3.58.12q8.72-1.87,15.78-3.17a51.43,51.43,0,0,0,12.78-4,33.15,33.15,0,0,0,10.26-7.62,36.9,36.9,0,0,0,5.31-7.75c.19.43.38.86.55,1.3.52,1.33,1.1,1.92,1.75,1.76a6.56,6.56,0,0,0-.29,3.29c.19.93.41,1.84.67,2.69a17.33,17.33,0,0,1,.58,2.82,9.53,9.53,0,0,1-.38,3.63c1.67-.15,2.71.43,3.09,1.76s.78,2.7,1.16,4.1a4.52,4.52,0,0,1,3.1.47,19,19,0,0,1,1.74,1.41,11.15,11.15,0,0,0,1.75,1.29,3.91,3.91,0,0,0,2.9.12,13.59,13.59,0,0,0,2.61-2.58c.71-.94,2.1-1.17,4.17-.71a57.3,57.3,0,0,0,5.9-12,69.23,69.23,0,0,0,3-15.24,1.09,1.09,0,0,0,.68-.94,1.07,1.07,0,0,1,.68-.93q4.24,4.69,7.55,8.09a63.11,63.11,0,0,0,7.16,6.33,91.1,91.1,0,0,0,9.1,6,149.23,149.23,0,0,0,13.55,6.8q16.85,7.74,27.68,10.78t17.81-.23a5,5,0,0,0,3.2-1.64,19,19,0,0,0,2.22-3.05L894,465.9a1.64,1.64,0,0,1,.14-.22,28.31,28.31,0,0,0,2.53,4,39,39,0,0,0,6,.7,9.25,9.25,0,0,0,3.39-.58,7.49,7.49,0,0,0,2.81-2.23,22.52,22.52,0,0,0,2.81-4.81q1.44-3.17,3.38-8.09a7.27,7.27,0,0,0,.58-3.52c.13-.78.26-1.67.39-2.69a20.53,20.53,0,0,1,.58-2.93,17.68,17.68,0,0,1,1.74-2.94c.65-.85,1.29-1.67,1.94-2.46a14.71,14.71,0,0,0,1.36-1.4,4.67,4.67,0,0,0,.77-2.35,16.36,16.36,0,0,1-.58-2.23,4.4,4.4,0,0,1,.19-2.22,22,22,0,0,1,3.2-7.51,53.41,53.41,0,0,1,4.55-5.86,25.06,25.06,0,0,1,.67-8.21q1.07-4.68,2.52-9.14t2.9-7.86c1-2.26,1.65-3.79,2-4.57l1.93-3.75,1.75,4.22q9.87,23.91,29.23,23.92A42.42,42.42,0,0,0,986.43,410a98.17,98.17,0,0,0,15.78-8,160.52,160.52,0,0,0,15-10.56q7.26-5.73,13.46-11.13c.25-1.25.64-2,1.16-2.11a5.81,5.81,0,0,1,1.74-.24l1.94.24v2.57a4,4,0,0,1-1.16,3.52q-7.36,31.2-7.07,51.36t9.58,28.37a9.93,9.93,0,0,0,4.45-1,26.45,26.45,0,0,0,4.26-2.7,26.07,26.07,0,0,1,3.3-2.11,24.21,24.21,0,0,1,3.87-1.64,24.06,24.06,0,0,1,1-2.82c.39-.93.78-1.95,1.17-3.05q4.83-12.88,9-27.67A103.53,103.53,0,0,0,1067.26,390.39ZM816.79,374.68a35.91,35.91,0,0,1,3.29-10.91,53.11,53.11,0,0,1,5.32-8.44q3-3.87,6.1-7.5a51.07,51.07,0,0,0,5.61-8.09,21.84,21.84,0,0,1,8.52,7.15q4.07,5.28,5,13.95-7.95,4-16.85,8.33A57.93,57.93,0,0,1,816.79,374.68Z"/><path d="M1442.32,309.72a12.57,12.57,0,0,0-1.16-4.22l-2.13-1.64a75.32,75.32,0,0,1-6.1-4.81,12.06,12.06,0,0,1-3.77-5.74l-1-3.75-3.29.93q-13.76,3.3-22.46,17.36l-1.16,2.11a18.27,18.27,0,0,1-2.91,4.57c-1.16,1.33-2.39,2.62-3.67,3.87l-4.84,5.63.38,2.81-13.55,22.28a12.41,12.41,0,0,0-1.06.94,9.25,9.25,0,0,0-.87.93,9.27,9.27,0,0,1-2.33,2.11,27.63,27.63,0,0,0-.19-7.38,58.47,58.47,0,0,0-1.55-6.69q-.78-3.27-1.35-6.56a43.06,43.06,0,0,1-.59-7.5l-1-3.05a6,6,0,0,1-.78-1.76,14.88,14.88,0,0,1-.19-2.93v-2.82l-.19-3.28-2.13-.7a3,3,0,0,1-.58-1.18,4.14,4.14,0,0,1-.2-1.17l.2-2.58-1.94-1.64q-2.71-1.87-5-3.4c-1.55-1-3.1-2-4.65-2.93l-3.87-2.35a43,43,0,0,1-4.07-2.81l-1.93-1.41-1.94,1.64a11.59,11.59,0,0,0-4.36,5.16,19.57,19.57,0,0,0-1.45,6.34,33.48,33.48,0,0,0,.29,6.68c.29,2,.6,3.91.94,5.73-.2-.43-.39-.86-.61-1.28q-2.33-4.34-5-9a12,12,0,0,1-5.81-2.82,53.52,53.52,0,0,1-4.45-4.57,38.25,38.25,0,0,0-4.55-4.46,11.63,11.63,0,0,0-5.91-2.46,34.27,34.27,0,0,0-2.42,7.39q-.87,4.09-1.74,8.09a73.33,73.33,0,0,1-2.13,7.74,19.85,19.85,0,0,1-3.38,6.33q-1.76,13.6-3.39,26.73a192,192,0,0,1-4.65,24.62,91.41,91.41,0,0,1-8.13,20.87,44.29,44.29,0,0,1-13.45,15.24,88.88,88.88,0,0,1-1.55-14.06q-.2-6.81,0-13.25t.38-12.67a98.86,98.86,0,0,0-.38-12.31c.51.16.87.12,1.06-.12a2.88,2.88,0,0,0,.49-.82,3.16,3.16,0,0,1,.48-.82,1.33,1.33,0,0,1,1.06-.35,9.91,9.91,0,0,1-.29-4.81,17.84,17.84,0,0,1,1.26-3.28,13.34,13.34,0,0,0,1.16-3.4,11.15,11.15,0,0,0-.58-5.16c.65.32,1.1.28,1.36-.11a1.15,1.15,0,0,1,1.35-.36,5.65,5.65,0,0,1-1-2.58,4.94,4.94,0,0,1,.19-1.52,2.46,2.46,0,0,0,.1-1.17,6.43,6.43,0,0,0-1.07-2c.26-.62.58-.78,1-.47s.71,0,1-.93a36.55,36.55,0,0,0-4-12.55,41.59,41.59,0,0,0-7.26-9.73,52.54,52.54,0,0,0-9.39-7.39,83.44,83.44,0,0,0-10.55-5.51q-6,16-12.49,32.48t-13,32.83q-6.48,16.31-12.87,32.13l-.15.37-1.56-.73a4.65,4.65,0,0,1-1-.82c-.39-.39-.71-.74-1-1.05a23,23,0,0,0-2.42-2.46,7.67,7.67,0,0,0-4.55-1.53,13.67,13.67,0,0,1-1.36-1.41,8.52,8.52,0,0,1-1-1.4l-.78-2.82-2.51.24a14.46,14.46,0,0,0-5.43,1.4,6.52,6.52,0,0,0-2.32-.23,84.41,84.41,0,0,1-3.1-11.84q-1.15-6.21-2.13-13c-.51-3.12-1.06-6.29-1.64-9.49s-1.2-6.37-1.84-9.5c-.13-3.91-.39-7.46-.77-10.67s-.85-6.45-1.36-9.73c-.26-1.41-.48-2.81-.68-4.22s-.42-3-.68-4.69l-1-2.11a14.48,14.48,0,0,0-6-4.11c-2.59-1-5.23-1.91-7.94-2.69-1.55-.63-3-1.18-4.45-1.64a11.59,11.59,0,0,1-3.1-1.41l-3.1-2.35-2.32,4a133.5,133.5,0,0,1-10,16.06,35.2,35.2,0,0,1-11.33,10.2l-3.48-.7a6.1,6.1,0,0,0-2.23.35,12,12,0,0,0-1.64.82l-2.13-.23-1.36,2.34a53.37,53.37,0,0,0-5.13,9.15q-2,4.69-3.77,9.38c-1,2.66-2.1,5.24-3.2,7.74a89.71,89.71,0,0,1-4.35,8.44,9.41,9.41,0,0,0-.39,2.46,9.74,9.74,0,0,0,.19,2q-1.74,4.69-3.58,9.15t-3.58,8.91q-5.61,13.85-10.74,27t-10,27.43l-.2,4.93-2.51,2.34,2.9,3.52a10.67,10.67,0,0,1,1.16,4.22,30.51,30.51,0,0,1,.58,3.17,13.35,13.35,0,0,0,1,3.4l1.16,1.87a16.57,16.57,0,0,1,3.39,2.7c1,1,2.23,2.46,3.77,4.34l2.52.23a11.77,11.77,0,0,0,2.42-.23c.71-.16,1.9-.47,3.58-.94l2.91-.47.58-3.05a8.07,8.07,0,0,1,2.71-1.87c.9-.47,1.84-1,2.8-1.65a7,7,0,0,0,2.42-2.81l.78-3.05a29.16,29.16,0,0,1,.87-7q.87-3.52,1.84-7.27c.51-1.56,1-3.13,1.45-4.69a40,40,0,0,0,1.07-4.93,6.58,6.58,0,0,1,1-.93,4,4,0,0,0,1-1.18l1.94-2.11-.78-2.58a2.2,2.2,0,0,1,.1-1.4,4,4,0,0,1,.68-1.41l2.51-.47.78-3.05c.26-1.09.55-2.23.87-3.4a30.25,30.25,0,0,1,1.26-3.63,13.24,13.24,0,0,0,1.55,5.39,7.93,7.93,0,0,0,.58,5.86q1.35,2.36,2.32,3.76l.87,1a1.76,1.76,0,0,1,.49,1.06l.58,2.57,2.13.24a37,37,0,0,0,7,.7,38.82,38.82,0,0,0,9.3-1.05c2.83-.71,5.74-1.53,8.71-2.46,2.06-.63,4.13-1.21,6.19-1.76a16.51,16.51,0,0,1,7.94.35q.39,7.5-1.55,10.43t-7.74,4.81l-6.39,2.11,3.87,5.39c.52.63,1,1.22,1.36,1.76a9.25,9.25,0,0,0,1.35,1.53,17.64,17.64,0,0,1,2.81,3.75,4.42,4.42,0,0,1,.1,3.28l-.78,3.52,2.52,1.41a12.35,12.35,0,0,1,2.52,1.87,20.61,20.61,0,0,0,2.22,1.88,11.92,11.92,0,0,0,4,1.64,21,21,0,0,0,9.29-2.7,32,32,0,0,0,8-6.33,43.09,43.09,0,0,0,6.19-8.67,62.45,62.45,0,0,0,4.55-10.91,51.36,51.36,0,0,0,.1-10.43q-.49-5-1.26-9.74a23.62,23.62,0,0,1-.48-3.28,19.6,19.6,0,0,0-.49-3.05,40.42,40.42,0,0,0,9.78-7.73l.9-1q-3.24,8.19-6.27,16a11.19,11.19,0,0,1,1.84,4.81,24.14,24.14,0,0,0,1.46,5.28,7.22,7.22,0,0,1-1.26-.12c-.45-.08-.68.2-.68.82a88.71,88.71,0,0,1,3.39,9.38,97.05,97.05,0,0,0,3.87,10.55,53.86,53.86,0,0,0,5.23,9.5,15.49,15.49,0,0,0,7.45,6,7.78,7.78,0,0,0,2.9-1.41c.78-.62,2.07-.78,3.88-.47-.26-1.25-.55-2-.87-2.11s-.23-.62.29-1.4c2.45.15,4.16-.43,5.13-1.76a12.41,12.41,0,0,0,2-4.81c.38-1.88.71-3.79,1-5.75a7.86,7.86,0,0,1,2.32-4.8,8.1,8.1,0,0,1-.49-4.69,14.91,14.91,0,0,1,1.46-3.87c.64-1.17,1.32-2.35,2-3.52a11.35,11.35,0,0,0,1.45-3.87c1,0,1.81-.7,2.32-2.11s1-3,1.55-4.69a51.64,51.64,0,0,1,1.75-4.92,5,5,0,0,1,2.9-3.05,92.3,92.3,0,0,0,12,26,106.39,106.39,0,0,0,17,19.46q6.39,2.82,10.36,2a15.15,15.15,0,0,0,7-3.4,46.44,46.44,0,0,0,5.51-5.62,21,21,0,0,1,5.81-4.93c-.65-1.87-.68-3-.1-3.4s.81-1.29.68-2.7c1,.16,1.61.44,1.74.82s.52.28,1.16-.35q2.33-5.15,4.46-10.31a25,25,0,0,1,5.8-8.68,104.84,104.84,0,0,1,3.1-13.25q2.13-7.16,3.87-14a93.68,93.68,0,0,1,.59-13.84q.77-6.33,1.74-12.19t2.13-12a127.22,127.22,0,0,0,1.74-13.13,11.2,11.2,0,0,0,3.29-4,24,24,0,0,0,1.84-5.16c.41-1.72.8-3.45,1.16-5.17l-.14.95a20.55,20.55,0,0,0,1.36,4.22,33.49,33.49,0,0,0,.58,6.33c.39,2,.77,4.07,1.16,6.1a60.53,60.53,0,0,1,1.55,11.49,110.33,110.33,0,0,0,3.39,11.61q2.22,6.45,5.32,13.48a33.88,33.88,0,0,1,5.42,8.21q-1.15,2.11-3,6.1t-4.93,10.78q-3.88,8.68-5.52,13t-2.23,6.45a18,18,0,0,0-3.87,6.91q-1.15,3.87-2.13,7.86-1,3.51-1.74,6.33l-.19,2.58q3.67,19,20.71,21.81l3.29-1.41q.39-.47.87-1.17a5.27,5.27,0,0,1,1.07-1.17c.77-.94,1.58-2,2.42-3.05a22,22,0,0,0,2.42-4.22l.58-2.58c.12-.31.35-.82.67-1.53s.62-1.36.88-2q1.15-2.12,2.22-4.57a15.56,15.56,0,0,0,1.26-5q8.71-12.9,11-24.16a30.34,30.34,0,0,0,3.59-5.63,68,68,0,0,0,2.42-6.56,21.57,21.57,0,0,0,3.48-5.16c.9-1.88,1.74-3.75,2.52-5.63.77-1.72,1.55-3.4,2.32-5a15.79,15.79,0,0,1,2.71-4.1l1.55-1.65-.39-2.57a18.12,18.12,0,0,0,2.71-4.34c.65-1.49,1.23-2.93,1.75-4.34s1.22-2.93,1.74-4.1a13.18,13.18,0,0,1,2.51-3.64l1.17-1.88c.25-.93.48-1.71.67-2.34s.42-1.33.68-2.11l1.06-1.29a38.81,38.81,0,0,0,2.42-3.64,28,28,0,0,1,2.33-5c.51-.7.84-1.05,1-1.05h2.9l.77-3.29a13.79,13.79,0,0,1,6.2-8.91l1.55-2.34a16.27,16.27,0,0,1,2.71-4.69,57,57,0,0,1,3.87-4.22q2.71-2.58,5.23-5.51t4.64-9.73l-1-3.05A12.73,12.73,0,0,0,1442.32,309.72ZM1137.68,392q-5.81.71-12.58,1.17a14.91,14.91,0,0,1-2.61.24,16.11,16.11,0,0,0-2.62.23q2.52-5.15,5.23-9.85l.19-.23a118.83,118.83,0,0,1,7.36-13.84,162.64,162.64,0,0,1,9.29-13.6l1-2.34c1.42,6.09,2.74,12.16,4,18.17s2.35,11.92,3.39,17.71A110.84,110.84,0,0,1,1137.68,392Z"/></g></g></svg>