<svg xmlns="http://www.w3.org/2000/svg" viewBox="0 0 169.22 26.98"><defs><style>.cls-1{fill:#ffda48;}</style></defs><title>dobble-undeline</title><g id="Ebene_2" data-name="Ebene 2"><g id="Ebene_1-2" data-name="Ebene 1"><path class="cls-1" d="M0,15.62c1.12-2.62,3-3.84,6-4,3.38-.16,6.72-1,10.08-1.46q6.27-.88,12.56-1.64c4.84-.59,9.68-1.17,14.53-1.68,3.09-.33,6.21-.54,9.31-.81,5-.45,10-.92,14.93-1.34,3.64-.3,7.28-.52,10.92-.79,6-.45,12.09-.93,18.13-1.36,4.06-.29,8.11-.53,12.17-.77q11.64-.69,23.29-1.36c2.95-.17,5.9-.36,8.85-.38Q152.86,0,165,0c2.14,0,4.59,3,4.17,5.07a2.32,2.32,0,0,1-.95,1.44,18,18,0,0,1-8.66,2.74c-8.92.13-17.83.44-26.74.68a.75.75,0,0,0-.62.35c3.18,0,6.36-.09,9.54,0s6.6.33,9.87.73a5.72,5.72,0,0,1,3,1.57c2,1.92,1.56,3.1-.85,4.42-3.53,1.93-7.3,2.39-11.2,2.49-9.09.23-18.18.5-27.26.7-11.35.26-22.7.44-34,.73-5.61.14-11.21.41-16.8.71-5.17.28-10.35.57-15.5,1.09-4.18.42-8.32,1.24-12.5,1.8-3,.4-6.06.69-9.1,1-4,.38-7.95.72-11.92,1.09-.19,0-.36.22-.54.34H12.42c-.41-2.87,0-3.6,2.65-4.88A10.91,10.91,0,0,1,17,21.31c6.55-1.85,13.12-3.67,19.67-5.51a12.85,12.85,0,0,1-2.12.19c-3.8.34-7.59.66-11.38,1.08-3.37.38-6.72.93-10.08,1.34s-6.64.76-10,1.11c-1.43.15-2.63,0-2.49-2C.69,17.05.23,16.5,0,16Z"/></g></g></svg>