<?xml version="1.0" encoding="utf-8"?>
<!-- Generator: Adobe Illustrator 24.0.1, SVG Export Plug-In . SVG Version: 6.00 Build 0)  -->
<svg version="1.1" id="Ebene_1" xmlns="http://www.w3.org/2000/svg" xmlns:xlink="http://www.w3.org/1999/xlink" x="0px" y="0px"
	 viewBox="0 0 1180.7 208.2" style="enable-background:new 0 0 1180.7 208.2;" xml:space="preserve">
<title>footer-readytotalk</title>
<g>
	<path d="M92.4,156.6c-0.3,0.1-0.7-0.2-0.8-0.7c0,0,0,0,0-0.1c0.7-1.3,1.1-2.9,1.2-4.5c0.1-2,0.1-4-0.2-6c-0.3-2.2-0.8-4.3-1.4-6.3
		c-0.6-2-1.5-3.9-2.6-5.5c-2.6-0.4-4.6-0.8-6.1-1c-1.5-0.3-3-0.6-4.3-0.9c-1.3-0.4-2.8-0.8-4.5-1.5c-1.7-0.6-4-1.5-6.9-2.4
		c-2.9-0.9-5.2-1.8-6.9-2.5c-1.6-0.7-3.1-1.5-4.6-2.6c-1.5-1.2-3-2.5-4.4-3.9c-1.6-1.5-3.8-3.6-6.6-6.1c0.2-0.8,0.1-1.3-0.3-1.3
		s-0.7-0.3-0.7-0.8c4.1-2.5,8.4-4.8,12.7-6.6c4.5-2,8.9-4.4,13.2-7.4c4-2.7,7.5-6.5,10.5-11.1c2.9-4.5,4.5-10.5,4.9-18
		c0-0.9,0-1.9-0.1-2.8c-0.1-0.7-0.2-1.4-0.4-2.1c-0.1-0.6-0.2-1.2-0.3-1.9c0-0.8,0-1.5,0.2-2.2c-0.9-2.5-1.6-5.1-2.3-7.8
		c-0.7-2.8-1.4-5.6-2.1-8.3c-0.7-2.7-1.5-5.3-2.4-7.8c-0.9-2.4-2-4.5-3.4-6.4V25c-0.8-0.7-1.5-1.5-2.2-2.2c-0.7-0.7-1.4-1.5-2.2-2.2
		c-1.8-4.1-4.2-7.6-7-10.2c-2.8-2.7-5.4-5.3-7.7-7.7c-4,0.5-7.8,2.7-11,6.3c-3,3.5-5.6,7.6-7.9,12.1c-2.3,4.5-4.6,9.2-6.9,14
		c-2.2,4.6-4.8,8.7-7.8,12.2c-0.7-1.4-1.8-2.4-2.9-2.8c-1.3-0.7-2.8-1-4.2-0.7c-1.2,3.9-2.1,7.9-2.8,12.1C10.6,60,9.9,64.4,9.4,69
		s-1.2,9.1-1.9,13.7c-0.7,4.6-1.7,9.1-2.9,13.4c0.1,1.1,0.2,2.2,0.2,3.3c0.1,1.3,0,2.5-0.1,3.8c-0.1,1-0.3,2-0.6,2.9
		c-0.2,0.8-0.6,0.9-1.1,0.5c0.7,2.3,0.8,4.8,0.5,7.2c-0.3,2.3-0.7,4.7-1.2,7.1c-0.5,2.4-0.9,5-1.2,7.6c-0.3,2.8-0.1,5.8,0.5,8.5H0
		c0.5,1.1,0.9,2.3,1.3,3.4c0.4,1.2,0.8,1.7,1.3,1.6c-0.3,0.9-0.4,2-0.2,2.9c0.1,0.8,0.3,1.7,0.5,2.4c0.2,0.8,0.3,1.7,0.4,2.5
		c0.1,1.1,0,2.2-0.3,3.3c1.2-0.1,2,0.4,2.3,1.6c0.3,1.2,0.6,2.4,0.9,3.7c0.8-0.2,1.6,0,2.3,0.4c0.5,0.4,0.9,0.8,1.3,1.3
		c0.4,0.4,0.8,0.8,1.3,1.2c0.7,0.4,1.4,0.4,2.1,0.1c0.7-0.6,1.4-1.4,1.9-2.3c0.5-0.8,1.5-1,3.1-0.6c1.8-3.3,3.2-6.9,4.4-10.7
		c1.1-4.4,1.9-9,2.2-13.7c0.3-0.1,0.5-0.4,0.5-0.8c0-0.4,0.2-0.7,0.5-0.8c2.1,2.8,3.9,5.2,5.6,7.3c1.7,2.1,3.4,4,5.2,5.7
		c2.2,2,4.4,3.8,6.7,5.4c2.6,1.8,5.9,3.9,10,6.1c6.6,3.9,13.4,7.1,20.3,9.7c5.3,1.8,9.7,1.7,13.1-0.2c0.9-0.1,1.7-0.6,2.4-1.5
		c0.6-0.8,1.1-1.7,1.6-2.7l1.4-2.9c0.5-1,1-1.8,1.7-2.5C93.3,156.5,92.8,156.5,92.4,156.6z M35.2,77.5c0.4-3.4,1.2-6.8,2.4-9.8
		c1.1-2.7,2.4-5.2,3.9-7.6c1.5-2.3,3-4.5,4.5-6.7c1.6-2.2,3-4.6,4.2-7.2c2.4,1.3,4.6,3.5,6.3,6.4c2.1,3.5,3.4,7.9,3.7,12.5
		c-3.9,2.4-8,4.9-12.4,7.4C43.7,75,39.5,76.7,35.2,77.5z"/>
	<path d="M281.6,93.2l-2.6-1.5c-0.3-0.2-0.5-0.5-0.7-0.7c-0.3-0.4-0.5-0.7-0.7-0.9c-0.6-0.8-1.1-1.5-1.8-2.2c-1-0.9-2.2-1.4-3.3-1.4
		c-0.4-0.4-0.7-0.8-1-1.3c-0.3-0.4-0.5-0.8-0.7-1.3l-0.6-2.5l-1.9,0.2c-1.4,0.1-2.7,0.5-4,1.3c-0.6-0.2-1.1-0.3-1.7-0.2
		c-1-3.4-1.7-7-2.3-10.6c-0.6-3.7-1.1-7.6-1.6-11.7c-0.4-2.8-0.8-5.6-1.2-8.5c-0.4-2.9-0.9-5.7-1.4-8.5c-0.1-3.2-0.3-6.4-0.6-9.6
		c-0.3-2.9-0.6-5.8-1-8.7c-0.2-1.3-0.4-2.5-0.5-3.8s-0.3-2.7-0.5-4.2l-0.7-1.9c-1.3-1.7-2.8-3-4.4-3.7c-1.9-0.9-3.9-1.7-5.8-2.4
		c-1.1-0.6-2.2-1-3.3-1.5c-0.8-0.3-1.6-0.7-2.3-1.3l-2.3-2.1L233.2,8c-2.2,5.1-4.6,9.9-7.3,14.4c-2.3,3.9-5.2,7-8.4,9.1l-2.6-0.6
		c-0.6,0-1.1,0.1-1.6,0.3c-0.4,0.2-0.8,0.5-1.2,0.7l-1.6-0.2l-1,2.1c-1.5,2.5-2.7,5.3-3.8,8.2c-1,2.8-1.9,5.6-2.8,8.4
		c-0.8,2.4-1.6,4.7-2.4,6.9c-1,2.6-2,5.1-3.2,7.6c-0.3,1.3-0.4,2.7-0.1,4c-0.9,2.8-1.7,5.5-2.6,8.2c-0.9,2.7-1.8,5.3-2.6,8
		c-2.8,8.3-5.4,16.3-7.9,24.1s-4.9,16-7.3,24.6l0,0c-0.4,0.1-0.9-0.1-1.2-0.6c-0.3-0.6-0.5-1.3-0.6-2c-0.1-0.8-0.3-1.7-0.4-2.7
		c-0.1-0.9-0.5-1.8-0.9-2.5c-0.9,0.3-1.8,0-2.6-0.8c-0.7-0.9-1.4-1.9-1.9-3.1c-0.6-1.2-1.3-2.4-1.9-3.6c-0.6-1.1-1.5-2-2.4-2.4
		c-2.8,1.3-5.7,2.3-8.6,2.8c-2.8,0.5-5.6,1.7-8.2,3.5c-3-0.2-5.9,0-8.9,0.4c-2.4,0.4-4.8,0.8-7.1,1.3c-2.3,0.4-4.7,0.7-7.3,0.8
		c-3.2,0.1-6.5-0.3-9.7-1c1.1-4.4,2.4-8.6,4-12.7c1.5-4,3.1-7.8,4.9-11.4c1.5,0.7,3,1.1,4.6,1c1.6,0,3.1,0.3,4.6,1.1
		c1.2-0.7,2.6-1,3.9-0.7c1.3,0.3,2.6,0,3.8-0.7c0.3,0.5,0.8,0.8,1.2,0.8h1.2c2.5,0.2,5-0.3,7.4-1.3c2.2-0.9,4.3-2.2,6.3-3.8
		c1.9-1.5,3.8-3.3,5.6-5.1c1.8-1.9,3.7-3.7,5.6-5.6c0.5-1.5,0.6-3.2,0.4-4.8c-0.2-1.5-0.5-3-1-4.4c-1,0.2-2.1-0.2-3-0.9
		c-0.9-0.8-1.8-1.8-2.5-2.9c-0.8-1.2-1.6-2.4-2.4-3.7c-0.7-1.2-1.5-2.3-2.4-3.2c0-0.5,0.1-1.1,0.3-1.5c0.2-0.4,0.3-1,0.1-1.5
		c-4.7,0.3-9.4,0.7-14.3,1.4c-4.4,0.6-8.8,0.7-13.2,0.1c-0.3-1.3-0.4-2.6-0.4-4c0-1.6-0.2-3.2-0.6-4.6c1-0.4,2.1-0.8,3.1-1.3
		c1-0.4,1.9-1.1,2.6-2.1c1,0.3,2,0.3,2.9,0c0.8-0.3,1.5-0.6,2.2-0.8c0.6-0.3,1.3-0.4,1.9-0.5c0.7-0.1,1.4,0.1,2.1,0.5
		c2.4-2.2,4.9-3.9,7.6-5c2.5-1.1,5-2,7.6-2.6c2.5-0.6,5-1.2,7.4-1.8c2.3-0.5,4.7-1.4,6.9-2.5c2.2-1.1,4.3-2.8,6.2-4.8
		c2.1-2.4,3.9-5.4,5.2-8.8c-0.2-0.9-0.3-1.7-0.3-2.6c0-0.6,0-1.1,0.1-1.7c0.1-0.5,0.2-1,0.2-1.6c0-0.9,0-1.8-0.1-2.7
		c-2.1-1.3-4.1-3-6-4.9c-1.8-1.9-3.3-4.4-4.4-7.2c0.1,0.7,0,1.1-0.1,1.4c-0.2,0.2-0.4,0.3-0.6,0.1c-0.2-0.1-0.5-0.3-0.9-0.4
		c-0.3-0.1-0.5-0.2-0.8-0.2c0,0.3,0,0.6,0.1,0.9c0,0.4,0.1,0.8,0.1,1.1c-0.7,0.1-1.3-0.5-1.6-1.5h-0.9c-0.2,0-0.4-0.3-0.5-0.6
		c-4.8,1.2-9.1,2.2-12.8,2.8s-7.3,1.3-10.7,2.1c-3.4,0.8-6.9,1.8-10.5,2.9c-3.6,1.2-7.7,2.9-12.2,5c-2.6,0.8-5,1.6-7.3,2.2
		c-2.2,0.6-4.3,1.4-6.3,2.5c-1.9,1-3.7,2.3-5.3,4c-1.6,1.6-3,3.7-4.1,6.2c0.6,2.7,0.9,5.5,1.1,8.3c0.2,2.7,0.5,5.4,0.8,8.1
		c0.4,2.7,0.9,5.3,1.6,7.9c0.8,2.8,2,5.2,3.5,7.3c-0.7,3-1.5,5.9-2.5,8.7c-0.9,2.6-1.8,5.1-2.6,7.7c-0.9,2.5-1.7,5.1-2.4,7.8
		s-1.5,5.5-2.1,8.6c-0.8-0.3-1.2,0-1.4,0.7c-0.1,0.7-0.6,1.3-1.1,1.4c0.2,1.1,0.2,2.3-0.1,3.4c-0.2,1.1-0.6,2.2-1,3.3
		c-0.4,1-0.8,2.1-1.3,3.2c-0.4,1.1-0.7,2.3-0.9,3.6c-0.3,2.6-0.4,5.2-0.2,7.9c0.2,2.9,0.4,5.7,0.7,8.6c0.3,2.9,0.7,5.7,1,8.4
		s0.6,5.1,0.8,7.2c1.1,0.8,1.9,2.1,2.3,3.8c0.3,1.5,0.9,2.9,1.6,4c2.4,3.3,5.3,5.6,8.5,6.7c3.5,1.3,7.1,2,10.7,2.1
		c3.7,0.1,7.4-0.1,11-0.8c3.7-0.7,6.8-1.4,9.5-2.1c0.8,0,1.5,0.2,2.2,0.5c0.9,0.4,1.8,0.4,2.6,0.1c4.3-1.1,8.1-2.1,11.6-2.8
		c3.2-0.7,6.4-1.9,9.4-3.6c2.8-1.6,5.3-3.9,7.6-6.8c2.3-3.3,4.3-7.2,5.7-11.5l-0.1,3.3l-1.9,2.1l2.1,3.2c0.5,1.1,0.8,2.4,0.9,3.8
		c0.2,0.9,0.3,1.9,0.4,2.8c0.1,1.1,0.4,2.1,0.7,3.1l0.9,1.7c0.9,0.6,1.7,1.5,2.5,2.4c0.7,0.9,1.6,2.2,2.8,3.9l1.9,0.2
		c0.6,0,1.2-0.1,1.8-0.2c0.5-0.1,1.4-0.4,2.6-0.8l2.1-0.4l0.4-2.7c0.6-0.7,1.3-1.3,2-1.7c0.7-0.4,1.4-0.9,2.1-1.5
		c0.7-0.6,1.3-1.5,1.8-2.5l0.6-2.7c0-2.1,0.2-4.3,0.6-6.3c0.4-2.1,0.9-4.3,1.4-6.5c0.4-1.4,0.7-2.8,1.1-4.2c0.3-1.4,0.6-2.9,0.8-4.4
		c0.2-0.3,0.5-0.6,0.7-0.8c0.3-0.3,0.5-0.6,0.7-1l1.4-1.9l-0.6-2.3c-0.1-0.4,0-0.9,0.1-1.2c0.1-0.5,0.3-0.9,0.5-1.3l1.9-0.4l0.6-2.7
		c0.2-1,0.4-2,0.6-3c0.3-1.1,0.6-2.2,0.9-3.3c0.1,1.7,0.5,3.4,1.1,4.8c-0.4,1.8-0.3,3.7,0.4,5.2c0.7,1.4,1.2,2.5,1.7,3.4l0.6,0.9
		c0.2,0.2,0.3,0.6,0.4,0.9l0.4,2.3l1.6,0.2c1.7,0.4,3.4,0.6,5.1,0.6c2.3,0,4.6-0.3,6.8-0.9c2.1-0.6,4.2-1.4,6.4-2.2
		c1.5-0.6,3-1.1,4.5-1.6c1.9-0.5,3.9-0.4,5.8,0.3c0.2,4.4-0.2,7.6-1.1,9.3s-2.9,3.2-5.7,4.3l-4.7,1.9l2.8,4.8c0.4,0.6,0.7,1.1,1,1.6
		c0.3,0.5,0.6,1,1,1.4c0.8,1,1.5,2.1,2.1,3.4c0.3,0.9,0.4,2,0.1,2.9l-0.6,3.1l1.9,1.3c0.7,0.4,1.3,1,1.9,1.7
		c0.5,0.6,1.1,1.2,1.6,1.7c0.9,0.7,1.9,1.2,2.9,1.5c2.4-0.1,4.7-1,6.8-2.4c2.2-1.4,4.2-3.4,5.9-5.7c1.7-2.3,3.3-4.9,4.5-7.8
		c1.4-3.1,2.5-6.3,3.4-9.8c0.3-3.1,0.3-6.2,0.1-9.3c-0.2-3-0.5-5.9-0.9-8.7c-0.2-1-0.3-2-0.4-2.9c-0.1-0.9-0.2-1.8-0.4-2.7
		c2.6-1.8,5-4.1,7.2-6.9c1.9-2.4,3.5-5.3,4.8-8.6L281.6,93.2z M229.5,93c-2.8,0.4-5.9,0.8-9.3,1c-0.6,0.1-1.3,0.2-1.9,0.2
		c-0.6,0-1.3,0.1-1.9,0.2c1.2-3.1,2.5-6,3.8-8.8l0.1-0.2c1.6-4.3,3.4-8.5,5.4-12.4c2.1-4.2,4.4-8.3,6.8-12.2l0.7-2.1
		c1,5.5,2,10.9,2.9,16.2c0.9,5.3,1.7,10.6,2.5,15.9C235.4,91.9,232.3,92.6,229.5,93z"/>
	<path d="M361.7,90.7c-0.2-8.1-1.6-16.1-4.1-23.3c-2.3-6.5-5.3-12.4-8.9-17.5c-3.7-5.2-7.6-9.9-11.8-14c-4.3-4.3-8.5-8.6-12.6-12.9
		c-2.8-1-5.5-2.3-8.1-3.9c-2.8-1.6-5.6-3.3-8.4-5c-2.8-1.7-5.7-3.5-8.7-5.4c-2.9-1.8-5.9-3.4-9-4.8c-0.8,2-1.3,4.2-1.6,6.4
		c-0.3,2.5-0.8,5-1.6,7.4c0.6,3.2,1.2,6,1.8,8.5c0.6,2.4,0.9,4.9,0.9,7.4h-2.2c-0.8,0-1,0.6-0.9,1.9c0.2,0.6,0.2,1.4,0,2
		c-0.2,1.1-0.4,2.3-0.4,3.5c1.4,7.6,2.3,15.4,2.9,23.3c0.6,8.2,0.5,16.4-0.3,24.6c-0.7,0.6-1.3,1.5-1.7,2.5c-0.3,4.4-0.9,8.8-1.7,13
		c-0.9,4.2-1.8,8.5-2.9,13c0.2,1.8-0.1,3.7-0.8,5.2c-0.7,1.4-1.2,3-1.5,4.6c0.3,4.1,0.5,8,0.8,11.8c0.2,3.5,0.7,7,1.4,10.3
		c0.7,3,1.8,5.8,3.3,8.2c1.7,2.5,3.9,4.2,6.3,4.9c6.4-4.3,12.9-8.4,19.6-12.3c6.7-3.9,13.1-8.1,19.3-12.7c6-4.5,11.8-9.8,17.1-16
		c5.3-6.1,9.7-13.6,13-22.2v-2.9c0-0.6,0-1.3,0.1-1.9c0.1-0.6,0.2-1.1,0.3-1.7S361.6,91.6,361.7,90.7z M340.2,88.4
		c-1.6,2.5-3.4,4.8-5.4,6.7c-2.1,2-4.3,3.8-6.6,5.2c-2.4,1.5-4.7,3-7.1,4.4c-0.5,0.7-1.1,1.4-1.6,2c-0.6,0.7-1.2,1.6-1.5,2.6
		c-1.3,0.1-2.6,0.5-3.8,1c-1.1,0.5-2.1,1.2-3.1,1.9c-1,0.7-2,1.3-2.9,1.9c-1.1,0.6-2.2,0.9-3.3,1c0.9-6.9,1.5-13.3,2-19.2
		c0.5-5.7,0.7-11.5,0.6-17.2c-0.1-5.6-0.4-11.2-0.9-16.8c-0.6-6-1.5-12-2.6-17.8c0.5-0.6,1.2-0.9,1.9-0.8c1.3,1.6,2.9,2.7,4.6,3.2
		c2.3,1,4.6,2.4,6.7,4.1c1.5,0.1,2.9,0.6,4.2,1.5c1.2,0.8,2.3,1.7,3.3,2.6c1,0.9,2.1,1.8,3.3,2.7c1.2,1,2.6,1.6,4,1.8
		c0.6,2.1,1.5,4,2.6,5.6c1.1,1.6,2.2,3.1,3.4,4.6c1.2,1.5,2.3,2.9,3.4,4.4c1.1,1.5,2.1,3.3,2.8,5.4
		C343.3,82.7,341.9,85.8,340.2,88.4L340.2,88.4z"/>
	<path d="M442.6,19.3c-0.1-1.3-0.4-2.6-0.9-3.8l-1.6-1.5c-1.6-1.4-3.1-2.8-4.5-4.3c-1.3-1.2-2.2-3-2.8-5.1l-0.7-3.3l-2.4,0.8
		c-6.7,1.9-12.6,7.4-16.5,15.5l-0.9,1.9c-0.6,1.5-1.3,2.9-2.1,4.1c-0.9,1.2-1.8,2.3-2.7,3.5l-3.6,5l0.3,2.5l-10,20
		c-0.3,0.3-0.5,0.5-0.8,0.8c-0.2,0.3-0.4,0.5-0.6,0.8c-0.5,0.8-1.1,1.4-1.7,1.9c0.2-2.2,0.2-4.4-0.1-6.6c-0.3-2-0.7-4-1.1-6
		c-0.4-2-0.7-3.9-1-5.9c-0.3-2.2-0.4-4.5-0.4-6.7l-0.7-2.7c-0.3-0.5-0.5-1-0.6-1.6c-0.1-0.9-0.2-1.7-0.1-2.6v-2.5l-0.1-2.9l-1.6-0.6
		c-0.2-0.3-0.3-0.7-0.4-1c-0.1-0.3-0.1-0.7-0.1-1l0.1-2.3l-1.4-1.5c-1.3-1.1-2.6-2.1-3.7-3.1c-1.1-0.9-2.3-1.8-3.4-2.6l-2.9-2
		c-1-0.8-2-1.6-3-2.5l-1.4-1.3L367.6,4c-1.3,1-2.4,2.6-3.1,4.6c-0.6,1.8-1,3.7-1.1,5.7c-0.1,2,0,4,0.2,6c0.2,2,0.5,4,0.8,5.8
		s0.7,3.9,0.9,5.8c0.3,1.5,0.1,3.1-0.4,4.5l-0.3,2.5c0.2,1.3,0.6,2.6,1,3.8c0,1.9,0.1,3.8,0.4,5.7c0.3,1.8,0.6,3.6,0.9,5.5
		c0.6,3.4,1,6.8,1.1,10.3c0.7,3.5,1.5,7,2.5,10.3c1.1,3.9,2.4,7.9,3.9,12.1c1.6,2.1,2.9,4.6,4,7.4c-0.6,1.3-1.3,3.1-2.2,5.5
		s-2.1,5.6-3.6,9.7c-1.9,5.2-3.3,9.1-4.1,11.6s-1.4,4.5-1.6,5.8c-1.3,1.7-2.3,3.8-2.9,6.2c-0.6,2.3-1.1,4.7-1.6,7
		c-0.5,2.1-0.9,4-1.3,5.7l-0.1,2.3c1.8,11.3,6.9,17.8,15.2,19.5l2.4-1.3c0.2-0.3,0.4-0.6,0.6-1c0.2-0.4,0.5-0.8,0.8-1.1
		c0.6-0.8,1.2-1.7,1.8-2.7c0.7-1.1,1.3-2.4,1.8-3.8l0.4-2.3c0.1-0.3,0.3-0.7,0.5-1.4s0.5-1.2,0.6-1.8c0.6-1.3,1.1-2.7,1.6-4.1
		c0.5-1.4,0.8-2.9,0.9-4.5c4.3-7.7,7-14.9,8.1-21.6c1-1.5,1.9-3.2,2.6-5c0.7-1.9,1.3-3.9,1.8-5.9c1-1.3,1.9-2.9,2.6-4.6
		c0.7-1.7,1.3-3.4,1.9-5c0.6-1.7,1.1-3.1,1.7-4.5c0.5-1.4,1.2-2.6,2-3.7l1.1-1.5l-0.3-2.3c0.8-1.1,1.5-2.5,2-3.9
		c0.5-1.3,0.9-2.6,1.3-3.9s0.9-2.6,1.3-3.7c0.5-1.2,1.1-2.3,1.9-3.2l0.9-1.7c0.2-0.8,0.4-1.5,0.5-2.1s0.3-1.2,0.5-1.9l0.8-1.1
		c0.6-1,1.2-2.1,1.8-3.3c0.4-1.6,1-3.1,1.7-4.5c0.4-0.6,0.6-1,0.7-1h2.1l0.6-2.9c0.7-3.5,2.3-6.4,4.6-8l1.1-2.1c0.5-1.6,1.2-3,2-4.2
		c0.9-1.3,1.8-2.5,2.9-3.8c1.3-1.5,2.6-3.2,3.9-4.9c1.5-2.5,2.7-5.5,3.4-8.7l-0.7-2.7C442.6,20.7,442.6,20,442.6,19.3z"/>
	<path d="M572.3,37.8h2c0.6,0,1.4,0,2.4,0.2l1.6-0.7c0.4-0.2,0.9-0.4,1.3-0.7c0.6-0.4,1.1-0.7,1.7-0.9c0.7-0.3,1.4-0.4,2.1-0.3h1.6
		l1.4-2.7c0.5-0.5,1-1.1,1.4-1.7l0.7-2.1c0.4-4.9-0.1-8.6-1.5-11.1c-1.2-2.3-2.7-4.4-4.2-6.3c-0.7-0.8-1.4-1.6-2-2.5
		c-0.6-0.8-1-1.7-1.4-2.7l-1.7-1.9c-1.3-0.3-2.7-0.5-4.1-0.6c-1.4-0.1-3-0.2-4.6-0.2c-3.8,0-7.6,0.4-11.4,1l-11.5,2.1l-8,1.6
		c-2.6,0.5-5.1,0.9-7.5,1.1c-0.6-1-1.3-1.9-2-2.6c-0.9-0.9-2.4-1.3-4.6-1.2l-1.6,1.3c-0.2,0.6-0.4,1-0.5,1.5s-0.5,1.5-0.9,2.9
		c-5,0.4-9.7,1.1-14.1,1.9c-4,0.6-7.9,1.1-11.7,1.5c-3.8,0.4-7.5,0.6-11.1,0.6h-2.4c-0.8,0-1.6-0.1-2.4-0.2h-2.1l-0.6,3.8
		c-0.3,0.5-0.6,1-0.9,1.6c-0.4,0.9-0.6,2-0.7,3c0,2.3,0.2,4.7,0.6,6.9c0.4,1.9,0.8,3.7,1.3,5.5c0.3,1.1,0.5,2.1,0.8,3
		c0.2,1,0.4,2,0.5,3.1v2.3l1.6,0.6c0.5,0.1,1,1,1.6,2.5l1,1.7c0.9,0.8,1.9,1.3,3,1.6c0.8,0.2,1.7,0.3,2.6,0.3h7.3
		c0.9-0.5,1.8-0.7,2.7-0.6h3.4c0.7,0,1.3,0,2-0.1c0.7-0.1,1.5-0.4,2.1-0.9c0.6,0.2,1.2,0.2,1.8,0.2c1.2,0,2.4-0.2,3.6-0.6
		c0.6-0.1,1.1-0.3,1.6-0.3c0.5-0.1,1.1-0.1,1.8-0.1c-0.1,1-0.3,2-0.6,2.9c-0.3,1.1-0.7,2.2-1.1,3.4c-0.6,1.8-1.1,3.6-1.6,5.4
		c-0.5,1.7-0.7,3.5-0.7,5.4c-0.5,0.4-0.9,0.9-1.3,1.5l-1.6,2.3c-0.7,3.6-1.4,7.2-2.3,10.7s-1.8,6.9-2.7,10.3
		c-1.7,6.3-3.3,12.8-4.7,19.4c-1.5,8-2.2,16.4-1.8,24.7c0.5,1,0.8,2.2,1.1,3.4c0.2,1.3,0.5,2.7,0.8,4.2c0.3,1.9,0.6,3.8,1.1,5.7
		c0.4,1.8,1,3.5,1.8,5c0,0.6,0,1.5-0.2,2.9l1.6,1.3c0.7,0.6,1.5,1.1,2.3,1.5c0.2,0.3,0.4,0.5,0.7,0.5c0.3,0.1,0.5,0.2,0.7,0.5
		c0.4,0.9,0.9,1.6,1.6,2l2.1,1.4c0.3,0.7,0.7,1.3,1.1,1.9l2,0.2c4,0,6.8-1.6,8.5-4.8c1.6-2.8,2.1-6.7,1.6-11.8l-1.4-2.5
		c-0.8-0.2-1.6-0.8-2.1-1.7c-0.2-0.3-0.4-0.5-0.7-0.6c-0.3-0.1-0.5-0.3-0.7-0.6c-0.2-0.8-0.4-1.5-0.7-2.1c-0.3-0.5-0.6-1.1-0.9-1.7
		c-0.2-0.7-0.2-1.5-0.1-2.2c0.1-0.9,0.3-1.8,0.4-2.6c0.1-0.8,0.2-1.7,0.3-2.5c0.1-0.8,0.1-1.7,0.2-2.5c0.4-1.1,0.7-2.3,0.8-3.6
		c-0.1-0.6,0-1.2,0.1-1.8c0.2-0.8,0.4-1.5,0.6-2.2c0.5-1.7,0.9-3.5,1.1-5.2c0.3-0.6,0.6-1.2,0.8-1.9c0.3-0.9,0.7-1.7,1.2-2.3
		l0.6-3.1c0.5-2,1-4.3,1.6-7.1c0.6-2.9,1.7-5.5,3.1-7.8c0.4-2.7,1-5.4,1.8-7.9c0.8-2.5,1.8-4.9,2.8-7.2c0.6-3.2,1.3-6.4,2.1-9.6
		c0.8-2.9,1.6-5.7,2.4-8.5c0.9-2.8,1.7-5.6,2.4-8.4s1.6-6,2.6-9.7l5.7-0.9c2.1-0.4,4.3-0.7,6.5-1.2c3.1-0.7,6.4-1.3,9.7-1.9
		C566.2,38.1,569.3,37.8,572.3,37.8z"/>
	<path d="M658.7,100c-0.5-1.8-1-3.6-1.5-5.5c-0.5-1.8-0.9-3.7-1.3-5.6c-0.3-1.9-0.4-3.8-0.2-5.8c-2.8-6.6-5.3-13.5-7.4-20.6
		c-2.1-7.1-4.6-14-7.3-20.6c0.4-0.9,0.6-2.1,0.4-3.2c0-0.8-0.4-1.5-1-1.6c-0.6,0-0.9-0.7-0.9-1.8c1.1-0.7,2-2.1,2.3-3.9
		c0.4-1.8,0.8-3.6,1.3-5.4c-0.2-0.9-0.4-1.7-0.6-2.5c-0.2-0.7-0.5-1.3-0.7-1.9c-0.3-0.6-0.5-1.2-0.6-1.9c-0.2-0.9-0.4-1.8-0.6-2.7
		c-0.5-0.1-0.8,0-0.9,0.2c-0.2,0.3-0.6,0.5-0.9,0.4c-0.1-1.4-0.6-2.7-1.3-3.7c-0.7-0.8-1.3-1.7-2-2.4c-0.7-0.8-1.3-1.6-1.8-2.5
		c-0.6-1.1-1-2.5-1-3.9c-1.1-1.8-2.7-3-4.4-3.3c-1.6-0.2-3.1-0.9-4.6-2c-1.2,1.1-2.3,2.4-3.3,3.8c-1,1.6-1.8,3.3-2.4,5.2
		c-1,0.2-1.9,0.4-2.9,0.4c-0.6,0-1.5,0.1-2.5,0.2c-1.3,2.7-2.5,4.8-3.4,6.5c-1.3,2-2.8,3.6-4.6,4.6v2.7c-0.9,0.4-1.7,0.9-2.4,1.7
		c-0.7,0.7-1.3,1.5-1.9,2.3c-0.6,0.8-1.3,1.6-2,2.3c-0.8,0.7-1.6,1.2-2.5,1.5c-0.4,1.2-1,2.2-1.6,3.1c-0.6,0.9-1.3,1.7-2,2.4
		c-0.7,0.7-1.4,1.6-2,2.4c-0.6,0.9-1.1,2-1.5,3.1c-0.6,0.3-1.1,0.8-1.5,1.5c-0.4,0.7-0.8,1.4-1.1,2.1c-0.3,0.7-0.7,1.2-1.1,1.7
		c-0.5,0.4-1.1,0.4-1.6,0l-9.5,16.6c-3.3,5.8-6.2,11.9-8.8,18.5c-2.6,6.7-4.6,14-5.8,21.5c-1.3,8.5-1.6,17.3-0.7,26
		c1.2,4.6,2.8,9,4.8,13c1.9,4,4.3,7.6,7,10.5c5.9,6.4,13.3,9.1,20.6,7.4c3.7,1.3,7.6,1.7,11.4,1.1c3.4-0.8,6.8-2,10-3.8
		c1.6,0.3,3.2,0.2,4.8-0.3c1.8-0.5,3.6-1.2,5.4-2c1.8-0.8,3.6-1.8,5.3-2.8c1.5-0.9,3-2,4.4-3.3l4.7-1.6c1.5-0.5,2.9-1.3,4.3-2.4
		c1.9-2.4,4-4.5,6.3-6.2c2.2-1.7,4.1-4,5.7-6.8c1.3-1.3,2.4-3,3.3-4.9c1-2.2,1.7-4.6,2.3-7c0.6-2.6,0.9-5.2,1.1-7.9
		c0.2-2.5,0.2-5.1,0-7.7C659.6,103.6,659.2,101.7,658.7,100z M636.1,102.7c-0.8,1.3-1.4,2.8-1.8,4.4c-3.7,2.8-7.3,5.6-10.7,8.3
		c-3.4,2.7-7.2,4.4-11.1,4.9c-0.8,0-1.1,0.6-1.1,1.9c-2.5,0-5,0.4-7.4,1c-2.8,0.7-5.5,1.2-8.3,1.6c-2.7,0.3-5.3,0.3-8-0.2
		c-2.5-0.4-4.9-1.9-6.8-4.3c0-3.6,0.5-7.2,1.5-10.6c0.9-3,2-5.8,3.2-8.5c1.2-2.7,2.5-5.3,3.8-7.9c1.3-2.7,2.5-5.6,3.3-8.7
		c0.6-0.3,0.9-0.3,1-0.2s0.4,0,0.9-0.4c2.6-4.8,5.6-9.1,8.9-12.8c3.3-3.6,6.6-7.4,9.9-11.3c0.6,0.7,1.2,1.3,1.9,1.7
		c0.7,0.4,1.4,0.6,2.1,0.6c0.7,0,1.3-0.2,1.9-0.7c0.7-0.7,1.1-1.7,1.3-2.8c0.7,1,1.3,1.1,1.9,0.4c0.5-0.6,0.9-1.3,1.1-2.1
		c2.4,5.4,4.5,11,6.3,16.9c1.7,5.8,3.9,11.3,6.4,16.5c0,1.3,0,2.5,0.2,3.8c0.2,1.1,0.5,2.2,0.9,3.2
		C637.4,99.2,637,101.2,636.1,102.7L636.1,102.7z"/>
	<path d="M894.7,93.2l-2.6-1.5c-0.3-0.2-0.5-0.5-0.7-0.7c-0.3-0.4-0.5-0.7-0.7-0.9c-0.6-0.8-1.2-1.5-1.8-2.2c-1-0.9-2.2-1.4-3.3-1.4
		c-0.4-0.4-0.7-0.8-1-1.3c-0.3-0.4-0.5-0.8-0.7-1.3l-0.6-2.5l-1.8,0.2c-1.4,0.1-2.7,0.5-4,1.3c-0.6-0.2-1.1-0.3-1.7-0.2
		c-1-3.4-1.7-7-2.3-10.6c-0.6-3.7-1.1-7.6-1.6-11.7c-0.4-2.8-0.8-5.6-1.2-8.5c-0.4-2.9-0.9-5.7-1.4-8.5c-0.1-3.2-0.3-6.4-0.6-9.6
		c-0.3-2.9-0.6-5.8-1-8.7c-0.2-1.3-0.4-2.5-0.5-3.8s-0.3-2.7-0.5-4.2l-0.7-1.9c-1.3-1.7-2.8-3-4.4-3.7c-1.9-0.9-3.8-1.7-5.8-2.4
		c-1.1-0.6-2.2-1-3.3-1.5c-0.8-0.3-1.6-0.7-2.3-1.3l-2.3-2.1L846.2,8c-2.2,5.1-4.6,9.9-7.3,14.4c-2.3,3.9-5.2,7-8.3,9.1l-2.6-0.6
		c-0.6,0-1.1,0.1-1.6,0.3c-0.4,0.2-0.8,0.5-1.2,0.7H825c0.3-0.4,0.6-0.7,0.8-1l0.7-2.1c0.4-4.9-0.1-8.6-1.5-11.1
		c-1.2-2.3-2.6-4.4-4.2-6.3c-0.7-0.8-1.4-1.6-2-2.5c-0.6-0.8-1-1.7-1.4-2.7l-1.7-1.9c-1.3-0.3-2.7-0.5-4.1-0.6
		c-1.4-0.1-2.9-0.2-4.6-0.2c-3.8,0-7.6,0.4-11.4,1L784,6.5c-2.8,0.6-5.4,1.1-8,1.6S771,9,768.5,9.3c-0.6-1-1.3-1.9-2-2.6
		c-0.8-0.9-2.4-1.3-4.6-1.2l-1.6,1.3c-0.2,0.6-0.4,1-0.5,1.5c-0.1,0.4-0.5,1.5-0.9,2.9c-5,0.4-9.7,1.1-14.1,1.9
		c-4,0.6-7.9,1.1-11.7,1.5c-3.8,0.4-7.5,0.6-11.1,0.6h-2.3c-0.8,0-1.6-0.1-2.3-0.2h-2.1l-0.6,3.8c-0.3,0.5-0.6,1-0.8,1.6
		c-0.4,0.9-0.6,2-0.7,3c0,2.3,0.2,4.7,0.6,6.9c0.3,1.9,0.8,3.7,1.3,5.5c0.3,1.1,0.5,2.1,0.8,3c0.2,1,0.4,2,0.5,3.1v2.3l1.6,0.6
		c0.5,0.1,1,1,1.6,2.5l1,1.7c0.9,0.8,1.9,1.3,3,1.6c0.9,0.2,1.7,0.3,2.6,0.3h7.3c0.9-0.5,1.8-0.7,2.7-0.6h3.4c0.7,0,1.3,0,2-0.1
		c0.7-0.1,1.5-0.4,2.1-0.9c0.6,0.2,1.2,0.2,1.8,0.2c1.2,0,2.4-0.2,3.6-0.6c0.6-0.1,1.1-0.3,1.6-0.3c0.5-0.1,1.1-0.1,1.8-0.1
		c-0.1,1-0.4,2-0.6,2.9c-0.3,1.1-0.7,2.2-1.1,3.4c-0.6,1.8-1.1,3.6-1.6,5.4c-0.5,1.7-0.7,3.5-0.7,5.4c-0.5,0.4-0.9,0.9-1.3,1.5
		l-1.6,2.3c-0.7,3.6-1.4,7.2-2.3,10.7s-1.8,6.9-2.7,10.3c-1.7,6.3-3.3,12.8-4.7,19.4c-1.5,8-2.2,16.4-1.8,24.7
		c0.5,1,0.9,2.2,1.1,3.4c0.2,1.3,0.5,2.7,0.8,4.2c0.3,1.9,0.6,3.8,1.1,5.7c0.4,1.8,1,3.5,1.8,5c0,0.6,0,1.5-0.1,2.9l1.6,1.3
		c0.7,0.6,1.5,1.1,2.3,1.5c0.2,0.3,0.4,0.5,0.7,0.5c0.3,0.1,0.5,0.2,0.7,0.5c0.4,0.9,0.9,1.6,1.6,2l2.1,1.4c0.3,0.7,0.7,1.3,1.1,1.9
		l2,0.2c4,0,6.8-1.6,8.5-4.8c1.6-2.8,2.1-6.7,1.6-11.8l-1.4-2.5c-0.8-0.2-1.6-0.8-2.1-1.7c-0.2-0.3-0.4-0.5-0.7-0.6
		c-0.3-0.1-0.5-0.3-0.7-0.6c-0.2-0.8-0.4-1.5-0.7-2.1l-0.8-1.7c-0.2-0.7-0.2-1.5-0.1-2.2c0.1-0.9,0.2-1.8,0.4-2.6
		c0.1-0.8,0.2-1.7,0.3-2.5c0.1-0.8,0.1-1.7,0.1-2.5c0.4-1.1,0.7-2.3,0.9-3.6c-0.1-0.6,0-1.2,0.1-1.8c0.2-0.8,0.4-1.5,0.6-2.2
		c0.5-1.7,0.9-3.5,1.1-5.2c0.3-0.6,0.6-1.2,0.8-1.9c0.3-0.9,0.7-1.7,1.2-2.3l0.6-3.1c0.5-2,1-4.3,1.6-7.1c0.6-2.9,1.7-5.5,3.1-7.8
		c0.4-2.7,1-5.4,1.8-7.9c0.8-2.5,1.8-4.9,2.8-7.2c0.7-3.5,1.4-6.7,2.1-9.6c0.8-2.9,1.6-5.7,2.4-8.5c0.9-2.8,1.7-5.6,2.4-8.4
		s1.6-6,2.6-9.7l5.7-0.9c2.1-0.4,4.3-0.7,6.6-1.2c3.1-0.7,6.4-1.3,9.7-1.9c3.1-0.5,6.2-0.8,9.3-0.8h2c0.6,0,1.4,0,2.4,0.2l1.6-0.7
		c0.4-0.2,0.9-0.4,1.3-0.7c0.6-0.4,1.1-0.7,1.7-0.9c0.7-0.3,1.4-0.4,2.1-0.3h0.4c-1.1,2.1-2.1,4.4-3,6.7c-1,2.8-1.9,5.6-2.8,8.4
		c-0.8,2.4-1.5,4.7-2.3,6.9c-1,2.6-2,5.1-3.2,7.6c-0.2,0.7-0.3,1.4-0.3,2.2c0,0.6,0,1.2,0.1,1.8c-0.8,2.8-1.7,5.5-2.6,8.2
		c-0.9,2.7-1.8,5.3-2.6,8c-2.7,8.3-5.4,16.3-7.9,24.1s-5,16-7.3,24.6l-0.1,4.4l-1.8,2.1l2.1,3.2c0.5,1.1,0.8,2.4,0.8,3.8
		c0.2,0.9,0.3,1.9,0.4,2.8c0.1,1.1,0.4,2.1,0.7,3.1l0.8,1.7c0.9,0.7,1.7,1.5,2.5,2.4c0.7,0.9,1.6,2.2,2.8,3.9l1.9,0.2
		c0.6,0,1.2-0.1,1.8-0.2c0.5-0.1,1.4-0.4,2.6-0.8l2.1-0.4l0.4-2.7c0.6-0.7,1.3-1.3,2-1.7c0.7-0.4,1.3-0.9,2.1-1.5
		c0.7-0.6,1.3-1.5,1.8-2.5l0.6-2.7c0-2.1,0.2-4.3,0.7-6.3c0.4-2.1,0.9-4.3,1.3-6.5c0.4-1.4,0.7-2.8,1.1-4.2c0.3-1.4,0.6-2.9,0.8-4.4
		c0.2-0.3,0.5-0.6,0.7-0.8c0.3-0.3,0.5-0.6,0.7-1l1.4-1.9l-0.6-2.3c-0.1-0.4-0.1-0.9,0.1-1.3c0.1-0.5,0.3-0.9,0.5-1.3l1.8-0.4
		l0.6-2.7c0.2-1,0.4-2,0.6-3c0.3-1.1,0.6-2.2,0.9-3.3c0.1,1.7,0.5,3.4,1.1,4.8c-0.4,1.8-0.3,3.7,0.4,5.2c0.7,1.4,1.2,2.5,1.7,3.4
		l0.7,0.9c0.2,0.2,0.3,0.6,0.3,0.9l0.4,2.3l1.6,0.2c1.7,0.4,3.4,0.6,5.1,0.6c2.3,0,4.6-0.3,6.8-0.9c2.1-0.6,4.2-1.4,6.4-2.2
		c1.5-0.6,3-1.1,4.6-1.6c1.9-0.5,3.9-0.4,5.8,0.3c0.2,4.4-0.2,7.6-1.1,9.3c-1,1.7-2.8,3.2-5.7,4.3l-4.7,1.9l2.8,4.8
		c0.4,0.6,0.7,1.1,1,1.6c0.3,0.5,0.6,1,1,1.4c0.8,1,1.5,2.1,2.1,3.4c0.3,0.9,0.4,2,0.1,2.9L854,156l1.8,1.3c0.7,0.4,1.3,1,1.8,1.7
		c0.5,0.6,1.1,1.2,1.6,1.7c0.9,0.7,1.9,1.2,2.9,1.5c2.4-0.1,4.7-1,6.8-2.4c2.2-1.4,4.1-3.4,5.9-5.7c1.7-2.3,3.3-4.9,4.6-7.8
		c1.4-3.1,2.5-6.3,3.3-9.8c0.3-3.1,0.3-6.2,0.1-9.3c-0.2-3-0.5-5.9-0.9-8.7c-0.2-1-0.3-2-0.3-2.9c-0.1-0.9-0.2-1.8-0.4-2.7
		c2.6-1.8,5-4.1,7.2-6.9c1.9-2.4,3.5-5.3,4.8-8.6L894.7,93.2z M842.6,93c-2.8,0.4-5.9,0.8-9.3,1c-0.6,0.1-1.3,0.2-1.9,0.2
		c-0.6,0-1.3,0.1-1.9,0.2c1.2-3.1,2.5-6,3.8-8.8l0.1-0.2c1.6-4.3,3.4-8.5,5.4-12.4c2.1-4.2,4.4-8.3,6.8-12.2l0.7-2.1
		c1,5.5,2,10.9,2.9,16.2c0.9,5.3,1.7,10.6,2.5,15.9C848.5,91.9,845.4,92.6,842.6,93L842.6,93z"/>
	<path d="M979.4,140.6l-1.3-10.7c-1.1-1.2-2.3-2.2-3.5-3.1c-1.2-0.8-2.4-1.5-3.6-2.2c-1.4-0.7-2.8-1.5-4-2.2c-1.4-1-2.8-2.4-3.8-4.1
		c-0.4-0.1-0.8-0.2-1.1-0.2h-0.8c-0.5,0-0.9,0-1.4-0.1c-0.7-0.4-1.3-0.9-1.9-1.6c-3.1,0.4-6.2,0.7-9.3,0.6c-4,0.1-8,0.5-12,1
		c-3.9,0.5-7.7,2.1-11.2,4.6c-1.1-0.6-2.4-0.8-3.6-0.8c-1.1,0-2.1,0.2-3.1,0.6c0.1-5.6,0.8-11.2,2-16.5c1.1-4.8,2.4-9.7,3.7-14.6
		c0.8-2.7,1.5-5.3,2.3-8.1c0.9-3.4,1.4-7,1.7-10.6c0.5-0.7,1-1.5,1.3-2.4c0.3-0.9,0.5-1.7,0.7-2.6c0.2-0.7,0.4-1.4,0.5-2.1
		c0.2-0.9,0.6-1.8,1.1-2.5c0.4-3.1,1-6.2,1.7-9.2c0.7-2.5,1.4-5,2.1-7.6c0.7-2.2,1.3-4.6,2-7c0.7-2.8,1.4-5.6,1.8-8.5
		c0.6-0.6,1.1-1.4,1.4-2.3c0.4-3,0.2-6.1-0.8-8.8c-0.9-2.4-2-4.6-3.2-6.6l-2.4-3.2c-2.4-0.1-4.7-0.8-6.9-2c-2.4-1.2-4.7-2.6-7-4.3
		c-0.3,0-0.7,0.1-1,0.2c-0.2,0.1-0.5,0.3-0.7,0.4c-0.7,0.4-1.4,1-2,1.7c-1.4,8.4-3,16.3-4.8,23.7c-1.8,7.4-3.6,14.9-5.6,22.6
		c-1,4.2-2.1,8.6-3.2,13.1c-1.1,4.5-2.2,9.3-3.3,14.2c-0.1,0.3-0.2,0.6-0.3,1c-0.1,0.4-0.3,0.8-0.4,1.1c-0.5,1.5-1,3.2-1.4,5
		c-0.5,1.6-0.5,3.4-0.1,5c-1,1.9-1.8,4.1-2.1,6.4c-0.5,2.6-1,5.2-1.4,7.9c-0.2,1.5-0.4,3-0.7,4.4c-0.5,3.1-0.8,6.3-1,9.4
		c-0.2,3.3-0.2,6.7,0.1,10c0.3,3.3,0.8,6.5,1.6,9.6c0.7,3,1.8,5.7,3.1,8.2c0.1,1.1,0.4,2.1,0.7,3.1c0.3,0.7,0.6,1.4,1,2
		c0.2,0.5,0.4,1,0.6,1.5c0.3,0.8,0.6,1.7,0.8,2.5c3.4,4.2,7.9,6.3,13.5,6.3c3.8,0,7.7-0.8,11.3-2.3c3.8-1.6,7.2-3.1,10.5-4.6
		c0.5-0.3,0.9-0.5,1.4-0.6l2.4-0.6c1.4,0,2.9-0.1,4.3-0.3c1.4-0.2,2.8-0.4,4.3-0.7c1.4-0.3,2.7-0.5,4.1-0.6s2.7-0.2,4.1-0.2
		c3.2,0,6.4,0.7,9.4,2.3c1.9-0.8,3.9-1.2,5.8-1.3c1,0,2-0.1,3-0.2c0.6-0.9,1.2-1.7,1.8-2.4c1.1-0.9,2.3-1.5,3.6-1.8l-0.3-2.7
		c0.4-0.9,0.6-1.9,0.6-2.9C980.5,143.1,980.1,142,979.4,140.6z"/>
	<path d="M1091.3,116.6c-0.9-1.1-1.8-2.2-2.7-3.2c-1.1-1.1-2.3-1.9-3.6-2.5c-0.6-0.1-0.8,0.1-0.8,0.7c0,0.6-0.2,1-0.6,1.1
		c-4.3,0-8.4-0.1-12.4-0.2c-3.7-0.1-7.5-0.8-11.1-2.1c-3.3-1.2-6.5-3.2-9.3-6.1c-3-3.2-5.3-7.4-6.7-12.4c0.3-1.1,0.8-2.1,1.5-2.7
		c0.7-0.7,1.3-1.6,1.6-2.7c0.4-0.1,0.7-0.3,1-0.3c0.3-0.1,0.7-0.1,1-0.1c0.5-1.4,1.1-2.6,1.9-3.6c0.8-1,1.7-1.9,2.6-2.8
		c0.9-0.9,1.8-1.9,2.6-2.8c0.8-0.9,1.6-2.1,2.1-3.3c2.4-2.8,5-5.4,7.6-7.8c2.5-2.2,5-4.4,7.4-6.5s4.8-4.3,7.1-6.6
		c2.4-2.4,4.7-5.1,6.9-8.1c0.3-1.7,0.8-3.4,1.3-4.9c0.5-1.3,1-2.6,1.3-3.7c0-2-0.3-3.9-1-5.6c-0.6-1.2-1.3-2.2-2.1-3
		c-0.8-0.8-1.6-1.7-2.4-2.6c-0.9-1.1-1.6-2.5-2.1-4.1c-1.5,0-2.9-1.1-3.8-2.8c-1-1.8-1.9-3.4-2.8-4.9c-1.4,0.8-2.8,1.8-4.1,2.7
		c-1.4,1-2.8,1.9-4.3,2.5c-0.1,1.1,0,1.8,0.4,2c0.4,0.2,0.5,0.8,0.4,1.8c-0.5-0.4-1-0.8-1.5-1.1c-0.7-0.2-1.5-0.1-2.2,0.4
		c-1.9,2-3.8,3.7-5.6,5.4c-1.9,1.6-3.6,3.3-5.3,5c-1.7,1.8-3.4,3.6-5.1,5.7c-1.7,2-3.6,4.2-5.8,6.4c-2.7,3.2-6,6.7-9.7,10.3
		c-3.5,3.4-6.8,7.4-9.7,11.8c0.1-2,0.3-4,0.6-5.9c0.3-2.2,0.8-4.3,1.4-6.3c0.6-2.1,1.3-4.1,2.1-6c0.8-1.8,1.7-3.4,2.8-4.7
		c-0.3-0.3-0.5-0.8-0.6-1.4c0-0.4,0.1-0.7,0.2-1c0.1-0.4,0.3-0.7,0.3-1.1c0.1-0.6,0.1-1.3,0-1.9c1.6-1,2.8-3,3.3-5.4
		c0.5-2.3,0.5-4.8,0.1-7.1c-0.4-2.5-1.1-4.9-2-7.1c-0.9-2.2-2-4.1-3.3-5.8l-2.6,0.6c-0.5-0.7-0.9-1.5-1.1-2.4
		c-0.3-0.9-0.6-1.7-1-2.4c-0.8,0-1.6-0.1-2.4-0.4c-0.7-0.3-1.4-0.6-2.1-1.1c-0.7-0.4-1.3-0.8-2.1-1.1c-0.8-0.4-1.6-0.6-2.3-0.7
		c-1.8,1.4-3.3,3.4-4.5,5.9c-1.1,2.4-2,4.9-2.8,7.5c-0.8,2.6-1.6,5.1-2.4,7.7c-0.8,2.4-1.8,4.6-3.1,6.5c-1.1,7.4-2.5,14.7-4.3,21.7
		c-1.8,6.7-3.5,13.3-5.3,19.9c-1.8,6.6-3.4,13.3-4.8,20.3c-1.5,7.5-2.5,15.2-2.9,23l-1.4,0.8c-0.5,0.3-0.6,0.9-0.4,1.9
		c0.4,0.4,0.5,0.8,0.5,1s-0.1,0.7-0.2,1.3c-0.3,0.2-0.4,0.6-0.3,1c0,0.4-0.1,0.7-0.5,0.8c-0.4,0.9-0.6,2-0.5,3
		c0.1,0.9,0.4,1.8,0.6,2.6c0.3,0.8,0.4,1.6,0.5,2.5c0,1.1-0.4,2.1-0.9,2.7c1,0.9,2.1,2,3,3.2c-0.7,1.1-1,2.7-0.8,4.2
		c0.3,1.5,0.6,2.9,1.1,4.3c0.5,1.5,1,3.1,1.6,4.8c0.5,1.8,0.8,3.6,0.8,5.6c0.8,0.3,1.6,0.8,2.3,1.5c0.7,0.7,1.3,1.5,2,2.2
		c0.7,0.8,1.4,1.4,2.1,1.9c0.9,0.5,1.8,0.8,2.7,0.7c3.4-2.1,6.4-5.4,8.8-9.6c2.4-4.2,4.6-8.7,6.6-13.3c2.1-4.7,4.2-9.3,6.5-13.9
		c2.2-4.6,5.1-8.5,8.3-11.4c0.5,0.4,1,0.6,1.5,0.6c0.5,0,1,0.4,1.2,1.1c1.4,2.8,3.1,5.4,4.9,7.7c1.9,2.3,3.8,4.7,5.8,7
		c1.6,1.7,3.4,3.5,5.3,5.5c1.3,1.4,2.7,2.7,4.2,3.8c0.8,0.4,1.6,0.6,2.4,0.4c0.9-0.2,1.8,0.1,2.6,0.8c0.3,0.4,0.5,0.9,0.6,1.5
		c0.1,0.6,0.4,1,0.8,1.3c3.9,2.3,7.9,3.9,12.1,4.6c4.8,0.7,9.6,1,14.4,0.6c3.7-2.2,7-5.6,9.6-10c2.5-4.5,3.9-10.2,3.9-16.1
		c-1-1.3-2-2.5-2.8-3.7S1092.1,117.7,1091.3,116.6z"/>
	<path d="M1180.7,21.6c-0.9-0.5-1.7-1.4-2.1-2.6c-0.5-1.2-1.1-2.4-1.7-3.5c-5-2.2-10-4.3-14.7-6.3c-4.7-1.9-9.5-3.5-14.4-4.6
		c-4.8-1.1-9.6-1.8-14.5-2.2c-5-0.3-10-0.1-15,0.7c-1,1.4-2.1,2.7-3.2,3.9c-1.2,1.3-2.5,2.1-3.9,2.6c-0.6,1.7-1.4,3.4-2.3,4.8
		c-0.9,1.5-1.7,2.8-2.6,4.3c-0.8,1.5-1.6,3-2.3,4.6c-0.8,1.8-1.3,3.7-1.6,5.8c0.7,0.7,1,1.3,0.9,1.7s0.4,1,1.3,1.7
		c0.2,1.4,0.1,2.2-0.4,2.5c-0.5,0.3-0.6,0.9-0.4,1.9c1.6,1.1,3,2.7,4.1,4.6c1.2,2,2.8,3.4,4.6,4c0.7-0.6,1.4-1,2.2-1.4l2.4-1.1
		c0.8-0.3,1.6-0.7,2.3-1.1c0.7-0.4,1.3-1,1.9-1.7c0.9,0.3,1.9,0.3,2.8,0.1c1-0.3,1.9-0.4,2.9-0.5c3.5,0.3,6.6,0.6,9.2,0.9
		c2.7,0.4,5.4,1.2,8,2.4c1.4-0.3,2.9-0.3,4.3-0.1c1.2,0.1,2.3,1.3,2.6,3.1c-2,2.5-3.7,4.6-5.1,6.3c-1.4,1.7-2.8,3.2-4.3,4.6
		s-3,2.8-4.6,4.2c-1.6,1.4-3.7,3-6.1,4.8c-1.5,2.1-3.2,4.2-5.1,6.4c-1.5,1.9-3.2,3.5-5.1,4.7c-0.6,2.2-1.5,4.1-2.7,5.6
		c-1,1.2-2,2.3-3,3.3c-0.9,1-1.7,2.2-2.3,3.7c-0.7,2.1-1,4.5-0.9,6.8c-0.1,1-0.6,1.9-1.2,2.4c-0.7,0.6-1.1,1.7-1.1,2.8
		c0.2,3.9,0.6,6.6,1.2,8c0.6,1.4,1.6,2.3,2.6,2.5c1.4,0.3,2.8,0.4,4.3,0.3c2,0,4,0.4,6,1.1l8.1-11.1c0.2-1.5,0.8-2.7,1.7-3.5
		c0.8-0.5,1.5-0.8,2.3-1c0.8-0.2,1.6-0.5,2.4-0.9c0.9-0.5,1.6-1.6,1.9-2.9c1.8-0.3,3.5-1.1,5.1-2.4c1-1,2-2.1,2.8-3.3
		c0.8-1.1,1.7-2.2,2.6-3.2c1.3-1.2,2.8-1.9,4.3-2.1c0.6-0.7,0.9-1.8,0.8-2.9c5.9-2.3,11.4-6.9,15.8-13.1c4.6-6.4,7.5-14.9,8.8-25.5
		c-0.1-3.6-0.2-7-0.4-10.2C1180,28.3,1180.2,24.9,1180.7,21.6z"/>
	<path d="M1121.6,146.8c-0.1-1-0.2-2.1-0.2-3.2c0-0.9,0.1-1.8,0.2-2.7c0.2-1,0.3-2.5,0.5-4.6l-3-1l0.3-3.1h-2.8
		c-0.8-0.2-1.6-0.8-2.3-1.7c-0.5-0.6-1-1.1-1.4-1.6c-1-0.7-2-1.2-3.1-1.4c-2.1,0.6-4.2,1-6.3,1l-1.3,1.5c-0.4,0.6-0.8,1.2-1.1,1.9
		c-0.5,1-0.9,2.1-1.3,3.2l-1.1,2.3l0.8,2.1c0,0.5-0.1,0.9-0.2,1.4c-0.1,0.6-0.3,1.1-0.3,1.6c-0.2,1-0.4,2-0.7,3
		c-0.2,1-0.3,2.2-0.2,3.3l0.9,2.5c0.3,0.5,0.6,0.8,0.9,1.1c0.1,0,0.2,0.2,0.3,0.3c0,0.1,0.1,0.4,0.2,0.6c0.1,0.3,0.3,0.9,0.6,1.9
		c0.5,1.3,0.9,2.5,1.3,3.8c0.4,1.3,0.8,2.5,1.3,3.8l1.7,1.7c0.6,0.6,1.6,1.4,3,2.5c1.3-0.1,2.6-0.8,3.6-2c1.2-1.4,2.5-2.6,3.8-3.7
		c1-0.8,2-1.7,2.9-2.7c0.7-0.8,1.5-1.5,2.3-1.9l2-0.6l-0.4-3.4C1122,150,1121.8,148,1121.6,146.8z"/>
</g>
</svg>
