<svg id="Ebene_1" data-name="Ebene 1" xmlns="http://www.w3.org/2000/svg" viewBox="0 0 1180.65 113.84"><title>footer-readytotalk</title><path d="M113.9,191.85a.64.64,0,0,1-.79-.5,5.38,5.38,0,0,0,1.21-3.06,13.12,13.12,0,0,0-.21-4.06,18.82,18.82,0,0,0-1.43-4.27,12.91,12.91,0,0,0-2.56-3.71c-2.56-.28-4.61-.52-6.12-.71s-3-.4-4.28-.64-2.82-.57-4.48-1-4-1-6.91-1.64-5.25-1.23-6.91-1.7a25.31,25.31,0,0,1-4.56-1.78,46.11,46.11,0,0,1-4.41-2.64q-2.36-1.56-6.63-4.13c.19-.57.07-.86-.35-.86s-.65-.19-.65-.57A120.46,120.46,0,0,1,77.5,156.1a92.42,92.42,0,0,0,13.18-5,34.23,34.23,0,0,0,10.54-7.55q4.34-4.62,4.91-12.18a11.53,11.53,0,0,0-.14-1.92,9.79,9.79,0,0,0-.36-1.42,6.69,6.69,0,0,1-.28-1.28,3.52,3.52,0,0,1,.21-1.5,39.23,39.23,0,0,1-2.28-5.27q-1-2.85-2.06-5.63a45.28,45.28,0,0,0-2.42-5.27,16.94,16.94,0,0,0-3.35-4.34v-2.14c-.76-.47-1.5-1-2.21-1.49s-1.45-1-2.21-1.5a23.59,23.59,0,0,0-7-6.91q-4.26-2.77-7.69-5.2a20.61,20.61,0,0,0-11,4.28,45.8,45.8,0,0,0-7.9,8.19q-3.5,4.62-6.91,9.47a38.33,38.33,0,0,1-7.83,8.26,5.49,5.49,0,0,0-2.92-1.92,8.83,8.83,0,0,0-4.21-.5,48.35,48.35,0,0,0-2.77,8.19q-1.08,4.35-1.93,9T29,141.78a55.06,55.06,0,0,1-2.92,9.12,20.06,20.06,0,0,1,.21,2.21,11.25,11.25,0,0,1-.14,2.56,8.31,8.31,0,0,1-.57,2c-.24.52-.59.64-1.07.35a8.46,8.46,0,0,1,.5,4.91q-.5,2.35-1.21,4.85c-.47,1.66-.88,3.37-1.21,5.13a11.66,11.66,0,0,0,.5,5.76H21.52A25.68,25.68,0,0,1,22.81,181c.37.81.8,1.17,1.28,1.07a3.37,3.37,0,0,0-.22,2c.15.57.31,1.12.5,1.64a9.39,9.39,0,0,1,.43,1.7,4.8,4.8,0,0,1-.29,2.21c1.24-.09,2,.27,2.28,1.07s.57,1.64.86,2.49a3.91,3.91,0,0,1,2.28.29c.47.28.9.57,1.28.85a7.94,7.94,0,0,0,1.28.79,3.5,3.5,0,0,0,2.14.07,9.28,9.28,0,0,0,1.92-1.57c.52-.57,1.54-.71,3.06-.43A33,33,0,0,0,44,185.94a36.28,36.28,0,0,0,2.21-9.26.68.68,0,0,0,.49-.57.71.71,0,0,1,.5-.57q3.14,2.85,5.56,4.92A44.86,44.86,0,0,0,58,184.3a68.88,68.88,0,0,0,6.69,3.63q3.85,1.86,10,4.13A166.07,166.07,0,0,0,95,198.62q8,1.84,13.11-.15a3.93,3.93,0,0,0,2.35-1,12.35,12.35,0,0,0,1.63-1.85l1.43-2a7.31,7.31,0,0,1,1.71-1.71A4.48,4.48,0,0,0,113.9,191.85ZM56.71,138.22a19.09,19.09,0,0,1,2.42-6.62A32.17,32.17,0,0,1,63,126.47c1.48-1.57,3-3.08,4.49-4.56A31.67,31.67,0,0,0,71.66,117a15.8,15.8,0,0,1,6.27,4.34,15,15,0,0,1,3.7,8.48q-5.84,2.42-12.39,5.05A49.09,49.09,0,0,1,56.71,138.22Z" transform="translate(-21.52 -85.66)"/><path d="M303.13,148.9l-2.56-1a4,4,0,0,1-.71-.5c-.29-.24-.53-.45-.72-.64a14.65,14.65,0,0,0-1.78-1.5,6.37,6.37,0,0,0-3.34-.92,8.89,8.89,0,0,1-1-.86,5.33,5.33,0,0,1-.71-.85l-.57-1.71-1.85.14a12.35,12.35,0,0,0-4,.86,5.32,5.32,0,0,0-1.71-.15,43.7,43.7,0,0,1-2.28-7.19c-.57-2.52-1.09-5.15-1.57-7.91-.38-1.89-.78-3.82-1.21-5.76s-.88-3.87-1.35-5.77a64.63,64.63,0,0,0-.57-6.48q-.43-2.92-1-5.92c-.19-.85-.35-1.71-.5-2.56s-.31-1.8-.5-2.85l-.71-1.28a10.92,10.92,0,0,0-4.41-2.49c-1.9-.62-3.85-1.16-5.84-1.64-1.14-.38-2.24-.71-3.28-1a9.68,9.68,0,0,1-2.28-.85l-2.28-1.43-1.71,2.42a79.89,79.89,0,0,1-7.33,9.76A25,25,0,0,1,239,107l-2.57-.43a5.4,5.4,0,0,0-1.64.21,10.94,10.94,0,0,0-1.21.5l-1.56-.14-1,1.42a31.42,31.42,0,0,0-3.78,5.56c-1,1.9-1.92,3.8-2.77,5.7-.76,1.61-1.55,3.18-2.35,4.7a50.79,50.79,0,0,1-3.21,5.13,4.56,4.56,0,0,0-.14,2.7q-1.29,2.85-2.64,5.56c-.9,1.8-1.78,3.61-2.63,5.41q-4.14,8.4-7.91,16.38T198.3,176.4v0a1.46,1.46,0,0,1-1.22-.38,3.27,3.27,0,0,1-.64-1.35q-.21-.85-.42-1.86a3.43,3.43,0,0,0-.93-1.7,2.92,2.92,0,0,1-2.56-.57,13.35,13.35,0,0,1-1.93-2.07c-.62-.81-1.26-1.61-1.92-2.42a5,5,0,0,0-2.42-1.64,49.77,49.77,0,0,1-8.62,1.92,27.58,27.58,0,0,0-8.19,2.35,63.2,63.2,0,0,0-8.9.29c-2.42.28-4.77.57-7.05.85s-4.7.48-7.27.57a54.49,54.49,0,0,1-9.68-.71,62.25,62.25,0,0,1,4-8.62q2.28-4.05,4.85-7.76A13.61,13.61,0,0,0,150,154a13.64,13.64,0,0,1,4.63.72,7.58,7.58,0,0,1,3.91-.5,7.12,7.12,0,0,0,3.78-.5,2.1,2.1,0,0,0,1.21.57h1.21a23.35,23.35,0,0,0,7.41-.86,32.82,32.82,0,0,0,6.34-2.56,54.23,54.23,0,0,0,5.62-3.49c1.8-1.28,3.66-2.54,5.56-3.78a5.75,5.75,0,0,0,.42-3.27,11.18,11.18,0,0,0-1-3,4.86,4.86,0,0,1-3-.64,13.29,13.29,0,0,1-2.5-2c-.81-.8-1.59-1.64-2.35-2.49a12.32,12.32,0,0,0-2.42-2.14,1.33,1.33,0,0,1,.29-1,1.1,1.1,0,0,0,.14-1q-7,.28-14.25.92a72.58,72.58,0,0,1-13.24.08,6.68,6.68,0,0,1-.36-2.71,6.77,6.77,0,0,0-.64-3.13c1-.29,2.07-.57,3.06-.86a6.76,6.76,0,0,0,2.64-1.42,7.5,7.5,0,0,0,2.92,0c.8-.19,1.54-.38,2.21-.57a9.79,9.79,0,0,1,1.92-.36,4.73,4.73,0,0,1,2.06.36,31.52,31.52,0,0,1,7.55-3.42,66.38,66.38,0,0,1,7.62-1.78q3.78-.64,7.41-1.21a39.9,39.9,0,0,0,6.91-1.71,23.56,23.56,0,0,0,6.2-3.28,19.77,19.77,0,0,0,5.19-6,7.79,7.79,0,0,1-.28-1.78,4.34,4.34,0,0,1,.14-1.14,6.74,6.74,0,0,0,.22-1.07,9.23,9.23,0,0,0-.08-1.85,33.14,33.14,0,0,1-6-3.35,15.22,15.22,0,0,1-4.41-4.91c.09.47,0,.78-.15.92a.59.59,0,0,1-.64.07c-.24-.09-.52-.18-.85-.28a3.39,3.39,0,0,0-.78-.14,3.12,3.12,0,0,0,.07.64,4.71,4.71,0,0,1,.07.78,1.57,1.57,0,0,1-1.57-1h-.93a.51.51,0,0,1-.49-.42q-7.27,1.27-12.82,1.92t-10.69,1.42q-5.12.8-10.54,2T144.52,98.2c-2.56.57-5,1.06-7.26,1.49a40.38,40.38,0,0,0-6.34,1.71,24.35,24.35,0,0,0-5.34,2.71,15,15,0,0,0-4.13,4.2,30.24,30.24,0,0,1,1.14,5.63,52.49,52.49,0,0,0,.85,5.48,31.57,31.57,0,0,0,1.64,5.34,13.91,13.91,0,0,0,3.49,4.92,46.92,46.92,0,0,1-2.49,5.91c-.91,1.75-1.78,3.49-2.64,5.2s-1.66,3.46-2.42,5.27-1.47,3.75-2.14,5.84c-.76-.19-1.21,0-1.35.49a1.21,1.21,0,0,1-1.07.93,4.12,4.12,0,0,1-.07,2.28,10.38,10.38,0,0,1-1,2.21c-.42.71-.85,1.45-1.28,2.2a9.16,9.16,0,0,0-.92,2.43,21.5,21.5,0,0,0-.22,5.34c.15,1.95.38,3.89.72,5.84s.66,3.84,1,5.7.59,3.49.79,4.91a4.59,4.59,0,0,1,2.35,2.56,6.53,6.53,0,0,0,1.63,2.71,18.61,18.61,0,0,0,8.55,4.56,49.1,49.1,0,0,0,10.68,1.42,70.06,70.06,0,0,0,11-.57c3.66-.47,6.81-.95,9.47-1.42a7.15,7.15,0,0,1,2.21.35,5.32,5.32,0,0,0,2.64.08q6.41-1.14,11.61-1.93a43.9,43.9,0,0,0,9.4-2.42,24.67,24.67,0,0,0,7.55-4.63,26.44,26.44,0,0,0,5.66-7.78l-.11,2.23-1.85,1.42,2.14,2.14a5.67,5.67,0,0,1,.85,2.56,13.7,13.7,0,0,1,.43,1.92,7.27,7.27,0,0,0,.71,2.07l.86,1.14a11.94,11.94,0,0,1,2.49,1.64c.71.62,1.64,1.49,2.78,2.63l1.85.14a9.59,9.59,0,0,0,1.78-.14q.78-.14,2.64-.57l2.13-.28.43-1.85a6.08,6.08,0,0,1,2-1.14c.67-.29,1.36-.62,2.07-1a4.76,4.76,0,0,0,1.78-1.71l.57-1.85a14.64,14.64,0,0,1,.64-4.27c.43-1.43.88-2.9,1.35-4.42.38-.95.74-1.9,1.07-2.85a21.1,21.1,0,0,0,.79-3,4,4,0,0,1,.71-.57,2.66,2.66,0,0,0,.71-.71l1.42-1.28-.57-1.57A1.13,1.13,0,0,1,228,167a2.41,2.41,0,0,1,.49-.85l1.86-.28.57-1.86c.18-.66.4-1.35.64-2.06a16,16,0,0,1,.92-2.21,7.3,7.3,0,0,0,1.14,3.28,4.09,4.09,0,0,0,.43,3.56q1,1.43,1.71,2.28l.64.64a1,1,0,0,1,.36.64l.42,1.57,1.57.14a33.42,33.42,0,0,0,5.13.42,33.81,33.81,0,0,0,6.83-.64q3.14-.63,6.42-1.49c1.51-.38,3-.74,4.55-1.07a14.76,14.76,0,0,1,5.84.21c.19,3-.19,5.16-1.14,6.34s-2.85,2.16-5.69,2.92l-4.7,1.28,2.84,3.28c.38.38.72.74,1,1.07a6.31,6.31,0,0,0,1,.92,11.5,11.5,0,0,1,2.06,2.28,2.21,2.21,0,0,1,.07,2l-.56,2.13,1.85.86a9,9,0,0,1,1.85,1.14,15.51,15.51,0,0,0,1.64,1.14,9.78,9.78,0,0,0,2.92,1,18.25,18.25,0,0,0,6.83-1.64,23.47,23.47,0,0,0,5.92-3.85,26.86,26.86,0,0,0,4.55-5.27,33.88,33.88,0,0,0,3.35-6.62,25.45,25.45,0,0,0,.07-6.34q-.36-3.06-.92-5.91a12,12,0,0,1-.36-2,10,10,0,0,0-.36-1.85,29.31,29.31,0,0,0,7.2-4.7,21.16,21.16,0,0,0,4.77-5.84ZM251,148.76q-4.27.44-9.26.71a12.81,12.81,0,0,1-1.92.15,14.23,14.23,0,0,0-1.92.14q1.84-3.13,3.84-6l.14-.15a69.91,69.91,0,0,1,5.42-8.4,98.6,98.6,0,0,1,6.83-8.26l.72-1.43q1.56,5.56,2.92,11t2.49,10.76C256.93,148,253.85,148.48,251,148.76Z" transform="translate(-21.52 -85.66)"/><path d="M383.26,147.2a38.56,38.56,0,0,0-4.13-15.82,48.1,48.1,0,0,0-8.9-11.89A85.07,85.07,0,0,0,358.4,110q-6.48-4.35-12.6-8.76a63.81,63.81,0,0,1-8.12-2.64q-4.14-1.64-8.41-3.42t-8.69-3.63q-4.41-1.84-9-3.27A13.71,13.71,0,0,0,310,92.64a21.18,21.18,0,0,1-1.56,5q.86,3.27,1.78,5.77a14.53,14.53,0,0,1,.92,5H308.9c-.76,0-1,.43-.85,1.28a1.68,1.68,0,0,1,0,1.36,10.12,10.12,0,0,0-.43,2.35,95.59,95.59,0,0,1,2.85,15.81,69.58,69.58,0,0,1-.28,16.66,4.93,4.93,0,0,0-1.71,1.71,46,46,0,0,1-1.71,8.83q-1.29,4.28-2.85,8.84a5.47,5.47,0,0,1-.78,3.56,10.59,10.59,0,0,0-1.5,3.13c.28,2.76.55,5.41.78,8a31.77,31.77,0,0,0,1.43,7,14.82,14.82,0,0,0,3.27,5.55,12.54,12.54,0,0,0,6.34,3.35q9.54-4.41,19.59-8.33t19.3-8.62a103.66,103.66,0,0,0,17.09-10.83,51.14,51.14,0,0,0,13-15.09v-2a5.05,5.05,0,0,1,.15-1.28c.09-.38.19-.76.28-1.14S383.07,147.77,383.26,147.2Zm-21.51-1.57a31.64,31.64,0,0,1-5.41,4.56,43.51,43.51,0,0,1-6.56,3.56q-3.55,1.56-7.12,3a11.24,11.24,0,0,1-1.64,1.35,4.69,4.69,0,0,0-1.49,1.78,15.13,15.13,0,0,0-3.78.71,30.16,30.16,0,0,0-3.13,1.29c-1,.47-2,.9-2.92,1.28a10.93,10.93,0,0,1-3.28.71q1.29-7,2-13a89.72,89.72,0,0,0,.64-11.68,84.24,84.24,0,0,0-.93-11.4,111.2,111.2,0,0,0-2.56-12.1,2.55,2.55,0,0,1,1.85-.57,10.79,10.79,0,0,0,4.56,2.2,31.46,31.46,0,0,1,6.69,2.78,11.29,11.29,0,0,1,4.21,1c1.18.57,2.3,1.16,3.34,1.78s2.14,1.23,3.28,1.85a11.18,11.18,0,0,0,4,1.21,13,13,0,0,0,2.63,3.78q1.63,1.63,3.42,3.13c1.19,1,2.33,2,3.42,3a13.56,13.56,0,0,1,2.78,3.63A21.5,21.5,0,0,1,361.75,145.63Z" transform="translate(-21.52 -85.66)"/><path d="M464.1,98.77a6.61,6.61,0,0,0-.86-2.57l-1.57-1c-1.61-.95-3.11-1.93-4.48-2.93a7.29,7.29,0,0,1-2.78-3.49l-.71-2.27-2.42.57a26.49,26.49,0,0,0-16.53,10.54l-.85,1.28a11.15,11.15,0,0,1-2.14,2.78c-.85.8-1.76,1.59-2.7,2.35l-3.57,3.41.29,1.71-10,13.54a8.78,8.78,0,0,0-.78.57,7.56,7.56,0,0,0-.65.57,6.8,6.8,0,0,1-1.71,1.28,13.88,13.88,0,0,0-.14-4.49,28.8,28.8,0,0,0-1.14-4.06q-.57-2-1-4A21.55,21.55,0,0,1,410,108l-.71-1.85a3.12,3.12,0,0,1-.57-1.07,7.06,7.06,0,0,1-.15-1.78v-1.71l-.14-2-1.57-.43a1.68,1.68,0,0,1-.42-.71,2.15,2.15,0,0,1-.14-.71l.14-1.57-1.43-1c-1.33-.76-2.56-1.45-3.7-2.07s-2.28-1.21-3.42-1.78L395,89.93a32.65,32.65,0,0,1-3-1.7l-1.42-.86-1.43,1A7.5,7.5,0,0,0,386,91.5a10.05,10.05,0,0,0-1.07,3.85,16.41,16.41,0,0,0,.21,4.06c.24,1.37.5,2.68.79,3.91s.68,2.64.92,3.92a4.24,4.24,0,0,1-.35,3.06l-.29,1.71a11.39,11.39,0,0,0,1,2.57,16.68,16.68,0,0,0,.43,3.84c.28,1.24.57,2.47.85,3.71a31.07,31.07,0,0,1,1.14,7,58.56,58.56,0,0,0,2.49,7q1.64,3.92,3.92,8.19a20.78,20.78,0,0,1,4,5c-.57.86-1.31,2.09-2.21,3.71s-2.11,3.79-3.63,6.55c-1.9,3.51-3.26,6.15-4.06,7.9s-1.35,3.07-1.64,3.92a10.69,10.69,0,0,0-2.85,4.2q-.86,2.35-1.57,4.77c-.47,1.43-.9,2.71-1.28,3.85l-.14,1.57q2.7,11.53,15.24,13.24l2.42-.85c.19-.19.41-.43.64-.71a3.56,3.56,0,0,1,.79-.72c.57-.57,1.16-1.18,1.78-1.85a13,13,0,0,0,1.78-2.56l.43-1.57c.09-.19.26-.5.49-.92s.45-.83.64-1.21a30.42,30.42,0,0,0,1.64-2.78,8.32,8.32,0,0,0,.93-3.06q6.41-7.84,8.12-14.68a18.16,18.16,0,0,0,2.63-3.41,34.46,34.46,0,0,0,1.78-4,13.32,13.32,0,0,0,2.57-3.14c.66-1.14,1.28-2.28,1.85-3.41s1.14-2.07,1.71-3.07a9.78,9.78,0,0,1,2-2.49l1.14-1-.28-1.56a11.16,11.16,0,0,0,2-2.64c.48-.9.9-1.78,1.28-2.63s.9-1.78,1.29-2.5a8,8,0,0,1,1.85-2.2l.85-1.14c.19-.57.36-1,.5-1.43s.31-.8.5-1.28l.78-.78a26,26,0,0,0,1.78-2.21,15.08,15.08,0,0,1,1.71-3.06c.38-.43.62-.65.71-.65h2.14l.57-2a8.52,8.52,0,0,1,4.56-5.41l1.14-1.43a9.79,9.79,0,0,1,2-2.85c.86-.85,1.8-1.7,2.85-2.56a50.44,50.44,0,0,0,3.85-3.35,16.27,16.27,0,0,0,3.42-5.91l-.72-1.85A5.66,5.66,0,0,0,464.1,98.77Z" transform="translate(-21.52 -85.66)"/><path d="M593.86,111.3h2c.57,0,1.37,0,2.42.14l1.57-.5a7.94,7.94,0,0,0,1.28-.49,14.26,14.26,0,0,1,1.71-.64,7.54,7.54,0,0,1,2.13-.22h1.57l1.43-1.85a9.28,9.28,0,0,0,1.42-1.14l.71-1.42c.38-3.33-.12-5.84-1.49-7.55a27.62,27.62,0,0,0-4.21-4.28,18.52,18.52,0,0,1-2-1.71A8.3,8.3,0,0,1,601,89.79l-1.71-1.28c-1.33-.19-2.71-.33-4.13-.43s-2.95-.14-4.56-.14a95.17,95.17,0,0,0-11.4.71l-11.53,1.43-8,1.07c-2.57.33-5.08.59-7.55.78a11.3,11.3,0,0,0-2-1.78c-.86-.62-2.38-.88-4.56-.79l-1.57.86c-.19.38-.36.71-.5,1s-.45,1-.92,2q-7.56.44-14.11,1.28-6,.57-11.68,1c-3.79.28-7.5.43-11.11.43h-2.35a18.08,18.08,0,0,1-2.35-.15h-2.13l-.57,2.57a6.68,6.68,0,0,0-.86,1.07,6,6,0,0,0-.71,2.06,17.18,17.18,0,0,0,.57,4.7,34.91,34.91,0,0,0,1.28,3.71c.29.76.55,1.45.79,2.06a9,9,0,0,1,.49,2.07v1.56l1.57.43c.48.1,1,.67,1.57,1.71l1,1.14a9.15,9.15,0,0,0,3,1.07,17.59,17.59,0,0,0,2.56.21h7.26a7.14,7.14,0,0,1,2.71-.43h3.42c.66,0,1.33,0,2-.07a5.58,5.58,0,0,0,2.14-.64,8.22,8.22,0,0,0,1.85.14,16.05,16.05,0,0,0,3.56-.42c.57-.1,1.12-.17,1.64-.22s1.12-.07,1.78-.07a8.57,8.57,0,0,1-.64,2c-.33.76-.69,1.52-1.07,2.28q-.85,1.85-1.56,3.63a9.63,9.63,0,0,0-.72,3.63,9.87,9.87,0,0,0-1.28,1l-1.57,1.56c-.66,2.47-1.42,4.9-2.28,7.27s-1.75,4.7-2.7,7q-2.57,6.4-4.7,13.17a51.27,51.27,0,0,0-1.85,16.74,7.13,7.13,0,0,1,1.06,2.28c.24.85.5,1.8.79,2.85a30.94,30.94,0,0,0,1.07,3.84,12.65,12.65,0,0,0,1.78,3.42c0,.38-.05,1.05-.15,2l1.57.85a8.76,8.76,0,0,0,2.28,1,1.23,1.23,0,0,0,.71.35,1.27,1.27,0,0,1,.71.36,3.69,3.69,0,0,0,1.57,1.35l2.14.93a7.31,7.31,0,0,0,1.14,1.28l2,.14q6,0,8.55-3.27,2.41-2.85,1.57-8l-1.43-1.71a4.25,4.25,0,0,1-2.14-1.14,1.68,1.68,0,0,0-.71-.42,1.88,1.88,0,0,1-.71-.43,5.16,5.16,0,0,0-.71-1.43c-.29-.37-.57-.76-.86-1.14a2.6,2.6,0,0,1-.14-1.49,17.31,17.31,0,0,1,.43-1.78c.09-.57.19-1.14.28-1.71a9.88,9.88,0,0,0,.15-1.71,6.71,6.71,0,0,0,.85-2.42,1.89,1.89,0,0,1,.14-1.21q.28-.78.57-1.5a21.12,21.12,0,0,0,1.14-3.56,4.72,4.72,0,0,0,.78-1.28,5.47,5.47,0,0,1,1.22-1.57l.57-2.13q.71-2,1.63-4.85a14.9,14.9,0,0,1,3.07-5.27,25.91,25.91,0,0,1,1.85-5.34,41.56,41.56,0,0,1,2.85-4.91,66.66,66.66,0,0,1,2.13-6.48q1.14-2.92,2.42-5.77c.86-1.9,1.66-3.8,2.43-5.7s1.61-4.08,2.56-6.55l5.7-.64q3.14-.36,6.55-.79,4.7-.7,9.69-1.28A81.78,81.78,0,0,1,593.86,111.3Z" transform="translate(-21.52 -85.66)"/><path d="M680.26,153.46c-.48-1.23-1-2.47-1.5-3.7a26.69,26.69,0,0,1-1.28-3.78,9.89,9.89,0,0,1-.21-3.91,117.71,117.71,0,0,1-7.41-14,135.41,135.41,0,0,0-7.27-14,3.1,3.1,0,0,0,.43-2.14,1.07,1.07,0,0,0-1-1.07c-.57,0-.86-.45-.86-1.21a3.86,3.86,0,0,0,2.28-2.63,34.45,34.45,0,0,1,1.28-3.64,10.09,10.09,0,0,0-.64-1.71c-.24-.47-.48-.9-.71-1.28a7.64,7.64,0,0,1-.64-1.28,14.48,14.48,0,0,1-.57-1.85c-.48-.09-.79,0-.93.14a1.12,1.12,0,0,1-.92.29A4,4,0,0,0,659,95.21c-.66-.57-1.33-1.12-2-1.64a15,15,0,0,1-1.85-1.71,4.29,4.29,0,0,1-1-2.64A7.08,7.08,0,0,0,649.78,87a11.7,11.7,0,0,1-4.56-1.35,21.71,21.71,0,0,0-3.28,2.57,14.91,14.91,0,0,0-2.42,3.56,22.85,22.85,0,0,1-2.92.28c-.62,0-1.45.05-2.49.14q-2,2.72-3.42,4.42a12.71,12.71,0,0,1-4.56,3.13v1.85a8.36,8.36,0,0,0-2.42,1.14,19.07,19.07,0,0,0-1.92,1.57,17.08,17.08,0,0,1-2,1.57,6.93,6.93,0,0,1-2.49,1,8.59,8.59,0,0,1-1.64,2.13,23.15,23.15,0,0,1-2,1.64,21.86,21.86,0,0,0-2,1.64,6.37,6.37,0,0,0-1.49,2.13,3.64,3.64,0,0,0-1.5,1,14.26,14.26,0,0,0-1.14,1.43A4.41,4.41,0,0,1,606.4,118a1.69,1.69,0,0,1-1.64,0l-9.47,11.25a86.71,86.71,0,0,0-8.76,12.53,57.53,57.53,0,0,0-5.84,14.6A46.73,46.73,0,0,0,580,174a41.47,41.47,0,0,0,4.77,8.84,31.24,31.24,0,0,0,7,7.12,27.35,27.35,0,0,0,20.58,5,32.37,32.37,0,0,0,11.4.72,51.41,51.41,0,0,0,10-2.57,15.59,15.59,0,0,0,4.84-.21,44.75,44.75,0,0,0,5.42-1.36q2.7-.86,5.27-1.92a30.12,30.12,0,0,0,4.41-2.21l4.7-1.07a14.92,14.92,0,0,0,4.27-1.63,33,33,0,0,1,6.27-4.2,17.64,17.64,0,0,0,5.7-4.63,10.62,10.62,0,0,0,3.28-3.35,21.39,21.39,0,0,0,2.28-4.77,25.47,25.47,0,0,0,1.13-5.34,23.76,23.76,0,0,0,0-5.2A18.21,18.21,0,0,0,680.26,153.46Zm-22.65,1.85a10.59,10.59,0,0,0-1.85,3c-3.7,1.9-7.27,3.77-10.68,5.62A28.89,28.89,0,0,1,634,167.28c-.76,0-1.13.43-1.13,1.28a44.48,44.48,0,0,0-7.41.71q-4.14.72-8.26,1.07a37.84,37.84,0,0,1-8-.14,12.63,12.63,0,0,1-6.77-2.92,19.29,19.29,0,0,1,1.5-7.19,35.48,35.48,0,0,1,3.2-5.77q1.86-2.72,3.78-5.34a31.53,31.53,0,0,0,3.35-5.92c.56-.18.9-.23,1-.14s.38,0,.86-.28a49.06,49.06,0,0,1,8.9-8.69q4.92-3.7,9.9-7.69a7.39,7.39,0,0,0,1.92,1.14,5.82,5.82,0,0,0,2.14.42,3.76,3.76,0,0,0,1.92-.49,3.16,3.16,0,0,0,1.28-1.93c.67.67,1.29.76,1.86.29a4,4,0,0,0,1.14-1.43,80.71,80.71,0,0,1,6.26,11.47,63,63,0,0,0,6.41,11.18,10.85,10.85,0,0,0,.22,2.56,9.28,9.28,0,0,0,.92,2.14A5.89,5.89,0,0,1,657.61,155.31Z" transform="translate(-21.52 -85.66)"/><path d="M916.22,148.9l-2.57-1a4.34,4.34,0,0,1-.71-.5c-.28-.24-.52-.45-.71-.64a16.37,16.37,0,0,0-1.78-1.5,6.38,6.38,0,0,0-3.35-.92,8.74,8.74,0,0,1-1-.86,5.42,5.42,0,0,1-.72-.85l-.57-1.71-1.85.14a12.35,12.35,0,0,0-4,.86,5.32,5.32,0,0,0-1.71-.15,42.74,42.74,0,0,1-2.27-7.19c-.58-2.52-1.1-5.15-1.57-7.91-.38-1.89-.79-3.82-1.21-5.76s-.88-3.87-1.36-5.77a59.22,59.22,0,0,0-.57-6.48q-.42-2.92-1-5.92c-.19-.85-.36-1.71-.5-2.56s-.31-1.8-.5-2.85l-.71-1.28a11,11,0,0,0-4.42-2.49c-1.9-.62-3.84-1.16-5.84-1.64-1.14-.38-2.23-.71-3.27-1a9.51,9.51,0,0,1-2.28-.85l-2.28-1.43-1.71,2.42a78.88,78.88,0,0,1-7.34,9.76,25,25,0,0,1-8.33,6.2l-2.56-.43a5.36,5.36,0,0,0-1.64.21,10.2,10.2,0,0,0-1.21.5h-.18c.3-.24.58-.47.82-.7l.71-1.42c.38-3.33-.12-5.84-1.5-7.55a27.58,27.58,0,0,0-4.2-4.28,18.52,18.52,0,0,1-2-1.71,8.66,8.66,0,0,1-1.43-1.85l-1.71-1.28c-1.33-.19-2.7-.33-4.13-.43s-2.94-.14-4.56-.14a95,95,0,0,0-11.39.71l-11.54,1.43c-2.75.38-5.41.73-8,1.07s-5.08.59-7.55.78a10.62,10.62,0,0,0-2-1.78c-.85-.62-2.37-.88-4.56-.79l-1.56.86c-.2.38-.36.71-.5,1s-.45,1-.93,2q-7.54.44-14.1,1.28-6,.57-11.68,1c-3.8.28-7.5.43-11.11.43H741.3a18,18,0,0,1-2.35-.15h-2.14l-.57,2.57a6.66,6.66,0,0,0-.85,1.07,5.82,5.82,0,0,0-.71,2.06,17.18,17.18,0,0,0,.57,4.7,31,31,0,0,0,1.28,3.71c.28.76.54,1.45.78,2.06a9,9,0,0,1,.5,2.07v1.56l1.57.43q.71.15,1.56,1.71l1,1.14a9,9,0,0,0,3,1.07,17.72,17.72,0,0,0,2.57.21h7.26a7.1,7.1,0,0,1,2.71-.43h3.41c.67,0,1.33,0,2-.07A5.68,5.68,0,0,0,765,119a8.1,8.1,0,0,0,1.85.14,16.12,16.12,0,0,0,3.56-.42c.57-.1,1.11-.17,1.64-.22s1.11-.07,1.78-.07a9.08,9.08,0,0,1-.64,2c-.34.76-.69,1.52-1.07,2.28-.57,1.23-1.1,2.44-1.57,3.63a9.61,9.61,0,0,0-.71,3.63,9.87,9.87,0,0,0-1.28,1L767,132.52c-.67,2.47-1.43,4.9-2.28,7.27s-1.76,4.7-2.71,7q-2.55,6.4-4.7,13.17a51.55,51.55,0,0,0-1.85,16.74,7.15,7.15,0,0,1,1.07,2.28q.36,1.28.78,2.85a32.78,32.78,0,0,0,1.07,3.84,12.94,12.94,0,0,0,1.78,3.42c0,.38,0,1.05-.14,2l1.57.85a8.76,8.76,0,0,0,2.28,1,1.2,1.2,0,0,0,.71.35,1.31,1.31,0,0,1,.71.36,3.64,3.64,0,0,0,1.57,1.35l2.13.93a8.37,8.37,0,0,0,1.14,1.28l2,.14c4,0,6.83-1.09,8.54-3.27q2.43-2.85,1.57-8l-1.42-1.71a4.21,4.21,0,0,1-2.14-1.14,1.74,1.74,0,0,0-.71-.42,1.74,1.74,0,0,1-.71-.43,5.16,5.16,0,0,0-.72-1.43l-.85-1.14a2.6,2.6,0,0,1-.14-1.49,17,17,0,0,1,.42-1.78c.1-.57.19-1.14.29-1.71a11,11,0,0,0,.14-1.71,6.7,6.7,0,0,0,.86-2.42,1.89,1.89,0,0,1,.14-1.21q.29-.78.57-1.5a23.1,23.1,0,0,0,1.14-3.56,4.72,4.72,0,0,0,.78-1.28,5.39,5.39,0,0,1,1.21-1.57l.57-2.13c.48-1.33,1-2.95,1.64-4.85a15,15,0,0,1,3.06-5.27,26.51,26.51,0,0,1,1.85-5.34,41.56,41.56,0,0,1,2.85-4.91q1-3.57,2.14-6.48t2.42-5.77c.86-1.9,1.66-3.8,2.42-5.7s1.61-4.08,2.57-6.55l5.69-.64q3.13-.36,6.56-.79,4.7-.7,9.68-1.28a81.81,81.81,0,0,1,9.26-.57h2c.57,0,1.38,0,2.43.14l1.56-.5a7.6,7.6,0,0,0,1.28-.49,15.65,15.65,0,0,1,1.71-.64,7.66,7.66,0,0,1,2.14-.22h.42a29.65,29.65,0,0,0-3,4.56c-1,1.9-1.92,3.8-2.78,5.7q-1.14,2.41-2.35,4.7a50.52,50.52,0,0,1-3.2,5.13,4.53,4.53,0,0,0-.29,1.49,5.21,5.21,0,0,0,.14,1.21q-1.27,2.85-2.63,5.56c-.9,1.8-1.78,3.61-2.64,5.41q-4.12,8.4-7.9,16.38t-7.34,16.67l-.14,3-1.85,1.42,2.14,2.14a5.67,5.67,0,0,1,.85,2.56,17.27,17.27,0,0,1,.43,1.92,7,7,0,0,0,.71,2.07l.85,1.14a12.29,12.29,0,0,1,2.5,1.64c.71.62,1.63,1.49,2.77,2.63l1.86.14a9.67,9.67,0,0,0,1.78-.14c.52-.09,1.4-.28,2.63-.57l2.14-.28.43-1.85a6,6,0,0,1,2-1.14c.66-.29,1.35-.62,2.07-1a4.76,4.76,0,0,0,1.78-1.71l.56-1.85a14.66,14.66,0,0,1,.65-4.27c.42-1.43.87-2.9,1.35-4.42.38-.95.73-1.9,1.07-2.85a19.83,19.83,0,0,0,.78-3,4.9,4.9,0,0,1,.71-.57,2.7,2.7,0,0,0,.72-.71l1.42-1.28-.57-1.57a1.12,1.12,0,0,1,.07-.86,2.41,2.41,0,0,1,.5-.85l1.85-.28L844,164c.19-.66.4-1.35.64-2.06a17.48,17.48,0,0,1,.93-2.21,7.07,7.07,0,0,0,1.14,3.28,4.12,4.12,0,0,0,.42,3.56q1,1.43,1.71,2.28l.65.64a1,1,0,0,1,.35.64l.43,1.57,1.57.14a33.4,33.4,0,0,0,5.12.42,34,34,0,0,0,6.84-.64c2.09-.42,4.22-.92,6.41-1.49,1.52-.38,3-.74,4.56-1.07a14.77,14.77,0,0,1,5.84.21c.19,3-.19,5.16-1.14,6.34s-2.85,2.16-5.7,2.92l-4.7,1.28,2.85,3.28c.38.38.71.74,1,1.07a5.83,5.83,0,0,0,1,.92,11.31,11.31,0,0,1,2.07,2.28,2.27,2.27,0,0,1,.07,2l-.57,2.13,1.85.86a8.74,8.74,0,0,1,1.85,1.14,16.62,16.62,0,0,0,1.64,1.14,9.89,9.89,0,0,0,2.92,1,18.34,18.34,0,0,0,6.84-1.64,23.59,23.59,0,0,0,5.91-3.85,26.58,26.58,0,0,0,4.56-5.27,34.44,34.44,0,0,0,3.35-6.62,26.45,26.45,0,0,0,.07-6.34q-.36-3.06-.93-5.91a11.9,11.9,0,0,1-.35-2,10,10,0,0,0-.36-1.85,29.07,29.07,0,0,0,7.19-4.7,20.8,20.8,0,0,0,4.77-5.84Zm-52.14-.14c-2.84.29-5.93.53-9.25.71a13,13,0,0,1-1.93.15,14.35,14.35,0,0,0-1.92.14c1.23-2.09,2.52-4.08,3.85-6l.14-.15a69.75,69.75,0,0,1,5.41-8.4,98.69,98.69,0,0,1,6.84-8.26l.71-1.43q1.56,5.56,2.92,11t2.49,10.76C870,148,866.93,148.48,864.08,148.76Z" transform="translate(-21.52 -85.66)"/><path d="M1000.9,181l-1.28-7.26a17.79,17.79,0,0,0-3.49-2.07c-1.19-.52-2.4-1-3.63-1.49-1.43-.48-2.76-1-4-1.5a12.42,12.42,0,0,1-3.85-2.77,5.75,5.75,0,0,0-1.14-.15h-.85a9.35,9.35,0,0,1-1.42-.07,6.72,6.72,0,0,1-1.86-1.07,91.75,91.75,0,0,1-9.26.43c-4,.1-8,.33-12,.71a31.31,31.31,0,0,0-11.18,3.14,11.2,11.2,0,0,0-3.56-.57,13.27,13.27,0,0,0-3.14.42,39.5,39.5,0,0,1,2-11.18q1.71-4.91,3.7-9.9,1.14-2.7,2.28-5.48a29.11,29.11,0,0,0,1.71-7.19,4.64,4.64,0,0,0,1.28-1.64,18.81,18.81,0,0,0,.71-1.78c.19-.48.36-.95.5-1.43a5.18,5.18,0,0,1,1.07-1.71,35.8,35.8,0,0,1,1.71-6.26q1-2.56,2.14-5.13,1-2.28,2-4.77a49.94,49.94,0,0,0,1.85-5.77,4.57,4.57,0,0,0,1.42-1.57,9.14,9.14,0,0,0-.78-6,28.55,28.55,0,0,0-3.2-4.49l-2.42-2.14a22.49,22.49,0,0,1-6.91-1.35,46.78,46.78,0,0,1-7-2.92,3.31,3.31,0,0,0-1,.14,5.15,5.15,0,0,0-.71.29,7.43,7.43,0,0,0-2,1.14q-2.13,8.55-4.77,16.09T928.26,121q-1.57,4.28-3.21,8.9t-3.34,9.61a6.64,6.64,0,0,0-.29.65,5.28,5.28,0,0,1-.43.78c-.47,1-1,2.18-1.42,3.42a4.73,4.73,0,0,0-.14,3.42,11.11,11.11,0,0,0-2.14,4.34q-.72,2.64-1.42,5.34a28.44,28.44,0,0,1-.72,3,42.61,42.61,0,0,0-1,6.41,31.22,31.22,0,0,0,.14,6.77,29.2,29.2,0,0,0,1.57,6.48,18.4,18.4,0,0,0,3.13,5.55,8.12,8.12,0,0,0,.71,2.07,6.07,6.07,0,0,0,1,1.35,8.9,8.9,0,0,0,.57,1,13,13,0,0,1,.85,1.71q5.13,4.28,13.53,4.27A42.23,42.23,0,0,0,947,194.49q5.63-1.58,10.47-3.14a8.53,8.53,0,0,1,1.42-.43l2.42-.42a40.9,40.9,0,0,0,4.28-.22c1.42-.14,2.85-.3,4.27-.49s2.68-.34,4.06-.43,2.73-.15,4.06-.15a27.22,27.22,0,0,1,9.4,1.57,21.16,21.16,0,0,1,5.84-.85c.95,0,1.95-.05,3-.14a15.94,15.94,0,0,1,1.85-1.64,10.17,10.17,0,0,1,3.56-1.21l-.28-1.86a3.5,3.5,0,0,0,.57-2C1002,182.71,1001.66,182,1000.9,181Z" transform="translate(-21.52 -85.66)"/><path d="M1112.79,164.72a28.32,28.32,0,0,0-2.71-2.14,14.06,14.06,0,0,0-3.56-1.71c-.57-.09-.83.07-.78.5s-.17.69-.64.78q-6.4,0-12.39-.14a50.11,50.11,0,0,1-11.11-1.43,28,28,0,0,1-9.26-4.13,20.05,20.05,0,0,1-6.7-8.4,3.81,3.81,0,0,1,1.5-1.85,4.79,4.79,0,0,0,1.64-1.85c.38-.1.71-.17,1-.22a7.23,7.23,0,0,1,1-.07,7.57,7.57,0,0,1,1.92-2.42c.81-.66,1.66-1.3,2.57-1.92s1.78-1.26,2.63-1.93a9.57,9.57,0,0,0,2.14-2.27,76.93,76.93,0,0,1,7.62-5.27c2.52-1.52,5-3,7.41-4.42s4.79-2.92,7.12-4.49a59,59,0,0,0,6.91-5.48,15.14,15.14,0,0,1,1.35-3.35q.78-1.35,1.35-2.49a7.33,7.33,0,0,0-1-3.78,8.62,8.62,0,0,0-2.07-2.06c-.81-.57-1.61-1.16-2.42-1.78a7.07,7.07,0,0,1-2.06-2.78,5,5,0,0,1-3.85-1.92c-1-1.19-1.9-2.3-2.85-3.35-1.42.57-2.78,1.19-4.06,1.85a23.65,23.65,0,0,1-4.34,1.71q-.15,1.14.42,1.35c.38.15.52.55.43,1.22a8.28,8.28,0,0,0-1.5-.72,3.23,3.23,0,0,0-2.2.29q-2.85,2-5.63,3.63t-5.34,3.42q-2.57,1.79-5.06,3.84t-5.77,4.35q-4.12,3.27-9.68,7a58.25,58.25,0,0,0-9.69,8,27.4,27.4,0,0,1,.64-4,29.43,29.43,0,0,1,1.36-4.28,22.78,22.78,0,0,1,2.13-4.06,14.62,14.62,0,0,1,2.85-3.2,1.56,1.56,0,0,1-.57-.93,1.34,1.34,0,0,1,.22-.71,3.7,3.7,0,0,0,.35-.78,2.7,2.7,0,0,0,0-1.28,6,6,0,0,0,3.28-3.64,9.33,9.33,0,0,0,.14-4.84,16.52,16.52,0,0,0-2-4.84,16,16,0,0,0-3.28-3.92l-2.56.43a5.49,5.49,0,0,1-1.14-1.64,8.24,8.24,0,0,0-1-1.64,10,10,0,0,1-2.42-.28,13.43,13.43,0,0,1-2.14-.72c-.66-.28-1.35-.54-2.06-.78a12.49,12.49,0,0,0-2.35-.5,12.65,12.65,0,0,0-4.49,4,36,36,0,0,0-2.85,5.06q-1.21,2.64-2.42,5.2a15.63,15.63,0,0,1-3.06,4.41,95.3,95.3,0,0,1-4.35,14.74q-2.64,6.78-5.27,13.47t-4.84,13.74a71.47,71.47,0,0,0-2.92,15.6l-1.43.57c-.47.19-.62.62-.42,1.28.38.28.54.52.5.71s-.12.48-.22.86a.68.68,0,0,0-.35.71c0,.28-.13.47-.5.57a2.72,2.72,0,0,0-.5,2.06,7.57,7.57,0,0,0,.64,1.78,4.83,4.83,0,0,1,.5,1.71,2.51,2.51,0,0,1-.93,1.85,26.93,26.93,0,0,1,3,2.14,3.19,3.19,0,0,0-.78,2.85,13.53,13.53,0,0,0,1.14,2.92c.52,1,1,2.09,1.57,3.28a9.26,9.26,0,0,1,.78,3.77,6.18,6.18,0,0,1,2.28,1c.66.47,1.33,1,2,1.49a10.41,10.41,0,0,0,2.14,1.29,6.76,6.76,0,0,0,2.71.49,23.08,23.08,0,0,0,8.76-6.48,100.93,100.93,0,0,0,6.62-9q3.13-4.77,6.48-9.4a29.57,29.57,0,0,1,8.33-7.76,2.94,2.94,0,0,0,1.5.42,1.35,1.35,0,0,1,1.21.72,31.26,31.26,0,0,0,4.91,5.19q2.79,2.35,5.77,4.78,2.43,1.71,5.34,3.7a30.41,30.41,0,0,0,4.21,2.56,4.86,4.86,0,0,0,2.42.29,4,4,0,0,1,2.56.57,4,4,0,0,1,.64,1,1.54,1.54,0,0,0,.79.85,46,46,0,0,0,12.1,3.13,96.59,96.59,0,0,0,14.39.43,25.93,25.93,0,0,0,9.61-6.76,17.21,17.21,0,0,0,3.92-10.9c-1-.86-2-1.69-2.78-2.49S1113.65,165.48,1112.79,164.72Z" transform="translate(-21.52 -85.66)"/><path d="M1202.18,100.33a4.17,4.17,0,0,1-2.14-1.78,16.68,16.68,0,0,0-1.71-2.35q-7.56-2.28-14.74-4.27a132.26,132.26,0,0,0-14.39-3.14,137.55,137.55,0,0,0-14.46-1.49,93.37,93.37,0,0,0-15,.5,40.62,40.62,0,0,1-3.21,2.63,10.8,10.8,0,0,1-3.91,1.78,17,17,0,0,1-2.28,3.28c-.86,1-1.71,1.92-2.57,2.92a30.79,30.79,0,0,0-2.35,3.13,13,13,0,0,0-1.64,3.92q1,.72.93,1.14t1.35,1.14q.29,1.42-.42,1.71c-.48.19-.62.62-.43,1.28a12.4,12.4,0,0,1,4.13,3.13,8.46,8.46,0,0,0,4.56,2.71,9.88,9.88,0,0,1,2.2-.92l2.43-.72c.8-.23,1.56-.5,2.28-.78a7.12,7.12,0,0,0,1.92-1.14,8,8,0,0,0,2.78.07,20.43,20.43,0,0,1,2.92-.35q5.26.28,9.18.64a38.86,38.86,0,0,1,8,1.63,19.42,19.42,0,0,1,4.35-.07,3,3,0,0,1,2.63,2.07q-3,2.56-5.13,4.27c-1.42,1.14-2.85,2.19-4.27,3.14s-3,1.9-4.63,2.84-3.68,2.05-6.05,3.28q-2.28,2.13-5.06,4.34a23.12,23.12,0,0,1-5.06,3.21,9.52,9.52,0,0,1-2.7,3.77c-1,.81-2,1.55-3,2.21a8.46,8.46,0,0,0-2.35,2.49,9,9,0,0,0-.93,4.63,2.44,2.44,0,0,1-1.21,1.64,2.26,2.26,0,0,0-1.07,1.93c.19,2.65.59,4.46,1.21,5.41a3.75,3.75,0,0,0,2.64,1.71,22.59,22.59,0,0,0,4.27.21,22.36,22.36,0,0,1,6,.78l8.12-7.55a3.49,3.49,0,0,1,1.71-2.35,10.27,10.27,0,0,1,2.35-.71,14.43,14.43,0,0,0,2.42-.64,3.47,3.47,0,0,0,1.93-2,13.7,13.7,0,0,0,5.05-1.64,20.55,20.55,0,0,0,2.85-2.21,24.38,24.38,0,0,1,2.64-2.14,10.27,10.27,0,0,1,4.27-1.42,2.21,2.21,0,0,0,.85-2,36.36,36.36,0,0,0,15.81-8.91q6.84-6.48,8.84-17.3-.15-3.7-.43-6.91A23.57,23.57,0,0,1,1202.18,100.33Z" transform="translate(-21.52 -85.66)"/><path d="M1143.13,185.23a13.75,13.75,0,0,1-.21-2.14,9,9,0,0,1,.21-1.85c.15-.66.31-1.71.5-3.14l-3-.71.29-2.13h-2.85a4.83,4.83,0,0,1-2.28-1.14c-.48-.38-1-.74-1.43-1.07a9.26,9.26,0,0,0-3.13-.93,33.18,33.18,0,0,1-6.27.71l-1.28,1a14.14,14.14,0,0,0-1.14,1.28,22,22,0,0,0-1.28,2.14l-1.14,1.57.85,1.42a3.48,3.48,0,0,1-.21.93c-.14.42-.26.78-.35,1.07-.2.66-.41,1.35-.65,2.06a5,5,0,0,0-.21,2.21l.86,1.71a3.8,3.8,0,0,0,.92.78.51.51,0,0,1,.29.21c0,.1.11.24.21.43s.28.62.57,1.28c.47.86.9,1.71,1.28,2.57s.81,1.71,1.28,2.56l1.71,1.14c.57.38,1.57.95,3,1.71a6,6,0,0,0,3.64-1.35,32.84,32.84,0,0,1,3.77-2.5,32.51,32.51,0,0,0,2.92-1.85,7.88,7.88,0,0,1,2.35-1.28l2-.43-.42-2.28C1143.54,187.41,1143.28,186.08,1143.13,185.23Z" transform="translate(-21.52 -85.66)"/></svg>