<svg xmlns="http://www.w3.org/2000/svg" width="630.15" height="102.3" viewBox="0 0 630.15 102.3">
  <path id="Pfad_146" data-name="Pfad 146" d="M-255.525-100.05h-57.3V0h25.95V-39.3h28.5V-61.35h-28.5V-78h31.35Zm15.45,0V0h25.95V-38.4l24.9,38.4h32.25l-31.35-40.95a28.027,28.027,0,0,0,13.8-6.9c4.95-4.8,7.95-12.3,7.95-20.85,0-7.95-2.85-16.65-8.55-22.5-7.35-7.65-16.95-8.85-24.45-8.85Zm25.95,20.1h4.95c5.7,0,10.05,1.5,12.45,3.9a11.8,11.8,0,0,1,3.45,8.4,12.456,12.456,0,0,1-3.3,8.4c-3.15,3-8.7,4.05-12.6,4.05h-4.95Zm124.95-20.1h-56.85V0h56.85V-22.05h-30.9V-39.3h29.25V-61.35h-29.25V-78h30.9Zm16.5,0V-42.6c0,10.65,1.05,23.4,9.75,32.85,6.15,6.6,17.4,12,33.15,12,14.1,0,24.6-3.9,33-12.45,10.8-10.95,11.25-21.9,11.25-32.4v-57.45h-25.95v57c0,5.55.15,12.9-5.85,18.15a18.876,18.876,0,0,1-12,4.35,18.751,18.751,0,0,1-12.3-4.8c-4.95-4.8-5.1-11.25-5.1-15.45v-59.25ZM61.425,0V-61.2L109.275,0h25.95V-100.05h-25.95v61.2l-47.85-61.2H35.475V0Zm131.1,0c17.1,0,30.45-7.2,38.4-15.15,9.75-9.75,13.05-21.45,13.05-34.65,0-10.8-2.25-25.2-13.95-36.45-12.9-12.45-29.7-13.8-39.75-13.8h-34.05V0Zm-10.35-78h6.3c6.45,0,14.55.6,20.7,6.3,4.95,4.65,7.8,12.6,7.8,21.9,0,11.1-4.35,17.4-7.65,20.55-6.75,6.6-15.6,7.2-21.9,7.2h-5.25Zm135.15-22.05h-56.85V0h56.85V-22.05h-30.9V-39.3h29.25V-61.35h-29.25V-78h30.9Z" transform="translate(312.825 100.05)" fill="#f8f8f8"/>
</svg>
