<svg xmlns="http://www.w3.org/2000/svg" viewBox="0 0 217.21 90.34"><defs><style>.cls-1{fill:#f8f8f8;}</style></defs><title>grey-background-texture</title><g id="Ebene_2" data-name="Ebene 2"><g id="Ebene_1-2" data-name="Ebene 1"><path class="cls-1" d="M121,1.46a8.32,8.32,0,0,0-3,.5C119,2,121.23,1.75,121,1.46Z"/><path class="cls-1" d="M190.66,1.38c-.74.11-1.9-.64-2.42.08C189.24,1.1,190.1,2.13,190.66,1.38Z"/><path class="cls-1" d="M205.25,29.06a1.12,1.12,0,0,0,.47-.18A1.92,1.92,0,0,1,205.25,29.06Z"/><path class="cls-1" d="M99,3c1.37,0,3.1-.45,4,.49-.54.57-2.65-.3-2.69.72,2.21.49,5-2.49,5.92-1,1.73-.8,3.58-.19,6.19-.5h.8c.32,0,.76,0,.81-.26a99.77,99.77,0,0,0-15.87,0C98.88,2.45,99.53,2.44,99,3Z"/><path class="cls-1" d="M103,4.2c2.63,0,5.21.06,6.46-.74C107,3.46,104.42,3.31,103,4.2Z"/><path class="cls-1" d="M186.91,3.69c-.21-1-2.87-.35-3.23.09C185.13,3.94,186,3.31,186.91,3.69Z"/><path class="cls-1" d="M163.23,3.31c.63,0,2.5.42,2.42-.54,0-.15,0-.29-.27-.23-7.6.34-13.61-.35-21.78.63C149.61,2.59,157.18,3.61,163.23,3.31Z"/><path class="cls-1" d="M123.15,1.44c3.36.19.42-.75-.81,0C122.73,1.54,122.8,1.74,123.15,1.44Z"/><path class="cls-1" d="M185,.58c-.9.18-2.5-.25-2.95.32C183.25,1.13,184.36,1.18,185,.58Z"/><path class="cls-1" d="M72.05,2.34c-.81,0-2.39-.76-2.69.21C70.47,2.06,71.09,2.82,72.05,2.34Z"/><path class="cls-1" d="M49.71,5.68c-1.59,0-3.39.09-3.76-.56-.94.73-2.38.29-2.7,1.41C44.61,5.73,48.79,6.54,49.71,5.68Z"/><path class="cls-1" d="M86.31,2.45a10,10,0,0,0-4.58.22A12.6,12.6,0,0,0,86.31,2.45Z"/><path class="cls-1" d="M39.21,6.2c2.09-.21,3.34.35,4-.4C41.87,5.6,37.89,6.25,39.21,6.2Z"/><path class="cls-1" d="M33.53,11.91c-.61-.15.33-.37-.27-.73-.6.42-1.67.4-1.62,1.42.82,0,1-.49,1.62-.69C33.26,12,33.47,12.19,33.53,11.91Z"/><path class="cls-1" d="M98.14,3.7c-1-.15-2.68.32-3.23-.24-2.64.37-6,.37-1.34.48C94.75,4.33,99.38,4.18,98.14,3.7Z"/><path class="cls-1" d="M88.19,4.89c-1.53.15-3.76-.34-4.85.22,1.62.17,3.94-.3,5.11.27.42-.45,3.22,0,2.7-.47L89,4.89C88.88,4.48,88.65,5,88.19,4.89Z"/><path class="cls-1" d="M96.8,2.24c0-.4-1.66-.4-1.62,0,.21,0,.53,0,.54.24a10.88,10.88,0,0,0-2.42.24A3.3,3.3,0,0,0,96.8,2.24Z"/><path class="cls-1" d="M89.53,2.46c-1.08,0-2,0-2.15.24C88,3.44,89,3,89.53,2.46Z"/><path class="cls-1" d="M90.61,3.93a4.45,4.45,0,0,0-3.23,0C88.31,4.33,89.16,3.72,90.61,3.93Z"/><path class="cls-1" d="M196,.73a4.18,4.18,0,0,0-3-.64C194.16.06,195.47,1.09,196,.73Z"/><path class="cls-1" d="M54,8.91c.18-.85,1.61.19,2.16-.69L54,8.18C54.11,8.6,53.6,8.8,54,8.91Z"/><path class="cls-1" d="M214.48,14.7c.08-.57.83-.57,1.07-1C213.61,13.28,213.94,14,214.48,14.7Z"/><path class="cls-1" d="M52.93,8.65c-.72,0-1.59-.16-1.62.46C51.87,9,53.18,9.54,52.93,8.65Z"/><path class="cls-1" d="M56.4,13.33c-2-.87-2.78-.52-3.77.43a2.07,2.07,0,0,1,1.62,0C54.54,12.39,55.91,13.89,56.4,13.33Z"/><path class="cls-1" d="M211.59,22.35a11.41,11.41,0,0,0-4.86-.32c.35-.43.55-1,1.35-1-.53.48,3.84.61,5.12.07-2.12-.28-6.18,0-8.37-.93a34.16,34.16,0,0,0,12.38-1.89,6.7,6.7,0,0,1-1.62-.92c.71-.27,1.52-.45,1.6-1.27-1.66-.65-4.4-.26-6.21-.76.88.11,1.36-.12,1.62-.54.22-.8-.71-.49-.82-.95,1.3.39,1.84-.24,2.68-.83-.52-.31-.83-.84-1.62-.91-2.92,1.65-8-.66-11.86-.57,5.54-.68,11.06-.56,14.8-1.73-.39-1.21-4.92-1.28-5.94-1,.21.05.53,0,.55.23a12.48,12.48,0,0,1-6.2.7c.2-.4,1.32,0,1.08-.77-.82-.12-2.32.4-2.7-.14,1-.16,1.55-.46,2.42-.09.16-.83,1.81-.37,2.42-.81.59.15,1.71-.31.54-.27-1.87,0-3.73.1-4.32-1.06-.51-.22-.9.75-1.08,0,0-.32.47-.24.53-.5-3.8-.23-10.73-.26-13.74-1.26.39-.14,1.4.24,1.35-.28-2.22.06-2.83,1.45-4.84.63.72.12,2.24-.28,1.61-.53A6.29,6.29,0,0,1,184,5c-5.43-.19-11.89.37-18,0,3.31-.29,7.29.14,9.42-.47-.4,0-1,.11-1.08-.22,2.85.49,3.48-.39,7.26-.43.09.56-.77.29-.8.75,1.68.09.88-.88,1.61-1.26a83.78,83.78,0,0,0-9.14,1c-.11-.34-.33-.4,0-.73-5,1.14-12.38-.06-16.14.1.21.06.53,0,.54.24-5.87-.15-11-.43-15.06.49V3.67c-.5.5-2.46.42-3.49,0,1.22-.67,3.93,0,4.3-.78l-9.62.56c.76-.13-3.61-.35-2.22.55-2.56-.87-6.23-.67-8.87-.16a2.58,2.58,0,0,1,1.88.47c-5.94.3-11.85-.48-17.75.08,1.8.78,4.52,0,7,.72-6.63.26-10.38-.16-15.87,0-8.44.29-17.08.37-25.29.35.29,0,.68.12.27.24-.67-.69-2.57-.29-3.23-1,4.67,0,8.58-.77,13.19-.86h1.88c0-.54-1.14-.11-1.61-.25-11.09.49-23,.66-34.44,1.76,1,.18,2.68-.26,3.22.3-.31,0-.76,0-.8.24,1.18-.14,3.63.91,5.11-.17-2-.15-3,.15-4-.55C57.34,5.05,64,5,68.81,6a47.08,47.08,0,0,0-12.11.33c.8.56,1.65-.33,1.89.52-4.87-.6-9.17,1.94-12.92.74-2.06-.65-5.23,1.31-7.81.33-1.66,1-3.68,1.73-4.59,2.82,1.63-.6,4.51,0,5.39-1.34,2.49-.34-1-.07-1.33,0,2.25-.88,5,.11,7.25-.09.11-.42-.4-.63,0-.73,1.9.37,2.94-.22,4.85-.39,0,.24-.22.28-.27.48,7.66-1,13.41-1.69,21.26-1.15-.56.13-1.76-.33-1.88.22,1,.47,5.28.35,4-.45,2.53.55,5.39.07,8.34,1C76.65,8,72.4,8.2,70.15,9.13c.16-.22.63-.88-.27-.73-.28.3-.26.67-.54,1-.47-.15-1.58.27-1.61-.27a1.35,1.35,0,0,0,1.34-.47c-2.22-.48-3.71-.72-5.65-.06,1.35.39,2.8-.77,3.23.28-5.63,1.51-8.75,0-14.27,1.26-.21-.06-.31-.21-.27-.5a3.57,3.57,0,0,0-1.89.94c.48.15,1.59-.26,1.62.28-.76-.06-1.85.17-1.88-.52a1.88,1.88,0,0,0,.81-.48c-1.39,0-2.18.19-2.16.94-4-.36-5.55,1.42-8.62,1.29.36.68-4,.32-3,1.64.22-.22,1.39-.79,1.61-.21-.89-.19-.43.49-.27.73-1-.29-.77.58-1.62.44-.42-1-1.36.21-1.88-1,.43-1.23,2.73-.72,3.25-1.88-.64,1.07-4.4.09-3,1.15-2.13.22-3.55.08-5.12.37.48.13-.12.26-.27.49.63.43,3.4-.08,2.68.78.78-.44,3.69-.23,3,.56-.75-1-2.5,0-3-.07.83.27-.77.22-.54.72.86-.19.36.81,1.07.76.11-.42-.4-.64,0-.74.87.17.5.53.81.75.4-.91,1.44.2,1.62-.69-.21-.06-.53,0-.54-.26,1.17-.22,1.59-1.43,1.62-.2,1.22-1.4,3.58-.23,4.58-1.85.45.58,1.57.56,2.7.54,0-.9,1.9-1.31,2.69-.68-.49.39-.91-.24-1.35.46,1.83-.47,5,.43,6.74-.6-.59,0-.86-.21-.81-.74-.85-.38-.13-.56-1.34,0,.28.91-.91.46-1.08.95-.33-.28-.49-.7-1.35-.51,0-.21.11-.22.27-.24,0-.28-.49-.21-.8-.25A19.61,19.61,0,0,0,51,11.3c.93.19.18.73,0,1.22,2.63-.56,6.78-.21,11.31-.8-.19,1.32,3.49-.26,3.5,1.5.34-.92,2,.25,3,.28-2.48.22-5.52-.52-6.19.41-1.82-.81-5-.65-6.19-.82.18.57,1.22.37,1.34,1-.51,0-.57.18-.27.49-1.95.27-2.28-.19-3.5-.3-.11.42.39.63,0,.73s-2.26-.43-2.42-.28c-1.11,1.15-5.1.67-4.31,1.62-2.16.21-4,.69-5.93.37.4,0,1,.11,1.08-.22-.73.08-3.28-.29-2.7.19.39.14,1.39-.25,1.35.27-2,.95-5.4.4-6.88,1.29l-2,.22c-.29-.23-.61-.63-.8-.75.56.14.58-.94.28-.24-.36.06-1,.82-.68,1.12-1.5.17-3,.35-4.48.55.81.16,2.19-.31,2.63.25-.26,0-.62-.05-.66.24a5.44,5.44,0,0,1,1.4.14l-.12.09.5,0a2.79,2.79,0,0,0,2.4-.46c-.29,0-.54,0-.78,0a1.94,1.94,0,0,0,.81-.63l1,0c-.14.09-.21.26-.12.53a1.24,1.24,0,0,1,.22-.54l.82,0c.38.12.64.36.31.59.94-.73,3-.37,3.77-.16a.59.59,0,0,0-.5.05,23,23,0,0,0-5.06.71c.66.55,1.34-.36,1.54.48-.17,0-.34,0-.51,0L34,20.2l-.28.1c-3.63-.07-6.86,2.08-9.7,1-1.67-.62-4.26,1.34-6.36.37-1.35,1-3,1.72-3.75,2.8,1.33-.57,3.68,0,4.4-1.32,2.17-.37-1.26,0-1.1,0,1.84-.88,4.12.1,5.93-.12.09-.42-.32-.63,0-.73,1.55.35,2.4-.26,4-.46,0,.24-.18.29-.22.49,1.86-.35,3.58-.66,5.25-.92.25,0,.47.05.52.24l-.42,0a1,1,0,0,1,.32.14H30.84c.09.41-.32.62,0,.73.15-.85,1.3.12,1.75-.72a.15.15,0,0,1,.06.05c.18.19-1.83,1.56-.54.71.51-.09.49-.68,1.35-.45-.49.41,0,.74.5,1a16.52,16.52,0,0,0-4.43.66c-.18-.06-.26-.21-.23-.49a2.79,2.79,0,0,0-1.54,1c.39.14,1.3-.29,1.33.25-.63,0-1.52.21-1.55-.49a1.55,1.55,0,0,0,.66-.49c-1.13,0-1.78.23-1.76,1-3.24-.31-4.53,1.49-7,1.36.29.69-3.28.33-2.43,1.64.19-.22,1.14-.78,1.32-.2-.73-.19-.36.49-.23.72-.81-.28-.63.59-1.32.45-.34-1-1.11.2-1.53-1,.36-1.23,2.23-.72,2.65-1.87-.52,1.07-3.58.09-2.42,1.15-1.74.2-2.9,0-4.18.32.39.13-.1.25-.23.48.52.44,2.78,0,2.19.81.64-.42,3-.2,2.42.59-.61-1-2.05,0-2.43-.09.68.27-.63.2-.44.7.71-.18.29.82.87.77.09-.41-.32-.64,0-.73.71.17.4.53.65.76.33-.9,1.18.21,1.33-.69-.17-.06-.44,0-.44-.25,1-.23,1.31-1.44,1.33-.21,1-1.39,2.93-.23,3.75-1.85.36.58,1.28.55,2.2.53,0-.91,1.56-1.34,2.21-.71-.41.39-.75-.23-1.11.47,1.5-.48,4.07.36,5.52-.7-.49.05-.71-.2-.67-.73-.7-.36-.1-.56-1.1,0,.23.91-.74.48-.88,1-.27-.27-.4-.69-1.1-.49,0-.21.08-.23.22-.25,0-.28-.4-.2-.66-.24A13.28,13.28,0,0,0,28.42,25c.76.18.15.74,0,1.22a36.09,36.09,0,0,1,5.64-.59A.53.53,0,0,0,34,26c.82.21.52-.65,1.35-.45a.31.31,0,0,1,0-.1c.56-.06,1.13-.13,1.7-.23a.67.67,0,0,1,.19.13c.11.59-1.22-.16-.81.71.82.82,1.92-.13,2.7.3a3.92,3.92,0,0,1-3.24-.07c-.14.1-.17.31-.23.48-1.11-.09-2.21,0-2.79-.14.15.57,1,.35,1.1,1-.41,0-.47.19-.22.49a4.46,4.46,0,0,1-.88.1.63.63,0,0,1-.23-.23,2.2,2.2,0,0,1-.32.21c-.5-.08-.85-.26-1.44-.31-.09.42.33.63,0,.73s-1.86-.38-2-.24a1.55,1.55,0,0,1-.35.32c-1.42.12-2.91.41-2.07.38a10,10,0,0,1,1.31,0c-1.27.39-2.89.35-2.42,1-1.76.23-3.23.74-4.85.42.33,0,.81.1.88-.23-.59.08-2.69-.27-2.21.2.32.14,1.14-.26,1.1.27-1.8,1.08-5.1.26-6,1.67.45-.17,1.35.26.89.63.77-.73,2.43-.37,3.09-.15-.36-.19-1,.45-.44.47a2.75,2.75,0,0,0,1.77-1.17,5.47,5.47,0,0,0,2.43.45,6.07,6.07,0,0,0-.66.52v-.45c-.57.47-1-.27-1.33.22.13.41,1,0,1.09.48l0,0c-1.27,0-2.44,0-3.07.67,2.39,0,3.58-.73,5.09.1a8.66,8.66,0,0,0-2.07.47c-.07-.15.37-.35-.06-.63-.55.41-1.53.39-1.49,1.42a1.34,1.34,0,0,0,.52-.1c.11.34.06.49,0,.58l-.63,0V35.6c-.26,0-.63,0-.66-.26.12,0,.25-.19,0-.24,0,.4-.62.12-.67.47.36.13.82.16,1,.44l-.42,0c-.51-.2-.89-.85-1.28-.26.24.06.34.28.44.5l-.89,0c.55-.74-.74-1-.89-.27.56.12,1,.86.66,1.23.76,0,.67-.78,1.11,0-.09-.65.67-.47.89-.22-.13,0-.26.19,0,.24a.59.59,0,0,1,.39-.43c.79,0,1.53,0,1.17.55a2,2,0,0,0-1.33.13c.68.47,1.23-.12,1.63.33a.81.81,0,0,1-.31.05c.76.27-.72.21-.51.71.32-.07.44,0,.5.2-.11.22-.17.41,0,.44,0-.11.05-.16.08-.16a.36.36,0,0,0,.23.26.49.49,0,0,0,.13.15.79.79,0,0,1,0-.13h.07a.85.85,0,0,0-.12-.54.66.66,0,0,1,0-.14l.11-.05c.62.13.56.38.63.59-.71.38-1.23,1-2,.49.26,0,.62,0,.66-.23-1.27-.34-2.92-.26-4.2-1.57.19.85,1.16,1,1.32,1.26.08.58-1-.17-.67.7.67.82,1.57-.12,2.22.31A2.72,2.72,0,0,1,16,40.13c-.24.22-.08.9-.67.72-1-.15.9.26,2,0,0,.61.65.68,1.5.55a.33.33,0,0,0,.13.09.33.33,0,0,1,0-.12l.53-.12a.76.76,0,0,1,.16.26,3.78,3.78,0,0,0-1.79,1,.76.76,0,0,0-.37-.18c-2.81.89-.23.09,1.1,1-.58.54-.75,0-1.34.45.88.38,0,.38-.22.72,1.54.12,2.67-1.61,4.05-1.28-.61.27-1.07.7-1.7,1,.37.05.91-.06,1,.27l-.39,0a.74.74,0,0,1,.26.1,2,2,0,0,1-.76,0,.61.61,0,0,0,.45.7c-.39.36-.79.66-.07.15a.59.59,0,0,0,.24-.11,2.72,2.72,0,0,0,.84-.08c0,.24.18.44.44.61l-1.57.17c.86.12,2.18-.18,3,0-.21.1-.43.19-.64.31a1.53,1.53,0,0,0-1.54.34,4.7,4.7,0,0,1,1.16.06s0,.05-.05.09c.64-.13,1.31-.22,2-.29.48.06,1,.13,1.54.16-.48.13-.82.45-.44.82l-.72.15a4.27,4.27,0,0,1-1-.68,1.28,1.28,0,0,0,.59.76l-.86.16c0-.21,0-.4-.23-.45,0,.28-.39.26-.74.23a.77.77,0,0,1,0,.42l-.64.16a10.7,10.7,0,0,1-4.51,0c-2.17-.58-5.5,1.47-8.24.61-1.74,1.09-3.86,1.86-4.81,3,1.72-.66,4.76-.21,5.67-1.55,2.63-.44-1.09,0-1.4,0,2.37-1,5.31-.07,7.65-.35.11-.42-.43-.62,0-.73a11.34,11.34,0,0,0,4.31-.43,1.61,1.61,0,0,0-.42.4l1-.07s0,0,0,0l.32-.05a5,5,0,0,1,2.07.24.39.39,0,0,0-.09.17,1,1,0,0,0-.56.2c-2.13,0-.67.39.43.17a8.49,8.49,0,0,0,2.22,0,.46.46,0,0,0,.17.4l-1.14.24c-.23,0-.34-.2-.29-.48a3.77,3.77,0,0,0-2,1c.5.13,1.66-.32,1.7.22-.8,0-1.95.23-2-.46a2.11,2.11,0,0,0,.85-.5c-1.46.05-2.3.26-2.27,1C15.67,51.18,14,53,10.78,53c.39.66-4.23.48-3.11,1.75.23-.23,1.45-.84,1.7-.27-.95-.15-.46.51-.28.74-1.06-.25-.81.61-1.71.51-.45-1-1.43.26-2-.94.45-1.25,2.87-.83,3.4-2C8.13,53.87,4.16,53,5.67,54c-2.24.3-3.74.21-5.39.57.51.11-.12.26-.28.49.68.41,3.59-.2,2.84.69.82-.47,3.89-.38,3.13.44-.8-1-2.64.09-3.13.05.88.23-.81.24-.56.73.91-.22.39.8,1.14.72.11-.42-.43-.62,0-.73.93.13.54.5.86.72.41-.93,1.52.14,1.7-.76-.22-.05-.56,0-.57-.24,1.23-.27,1.66-1.49,1.7-.27,1.28-1.44,3.78-.37,4.82-2,.47.57,1.66.51,2.84.45,0-.91,2-1.38,2.84-.77-.52.4-1-.21-1.42.51,1.93-.53,5.24.25,7.1-.82-.52,0-.79-.13-.84-.49a1,1,0,0,0,.16-.12h-.17s0-.08,0-.12c-.9-.36-.14-.56-1.42,0a.57.57,0,0,1,0,.33,1.35,1.35,0,0,0-.45.22h.28c-.31.16-.87.11-1,.43-.34-.27-.51-.68-1.42-.46-.05-.21.11-.24.28-.25,0-.29-.51-.2-.85-.23a21.64,21.64,0,0,0,4.54-1.28c.47.08.53.25.45.46-.56-.25-2.15-.22-1.39.36.22-.29.8-.06,1.2,0a2.46,2.46,0,0,0-.26.43A22,22,0,0,1,26,52.65c-.4.15-.64-.09-1.16.25,1,.39,0,.38-.25.72a2,2,0,0,0,.43,0,5.25,5.25,0,0,0-.84.66,2.3,2.3,0,0,1,1.71,0c.18-.89.85-.62,1.43-.46.05,1,1.5.6,2.17.47a.56.56,0,0,1,.09.19c-.53,0-.6.2-.28.49-2.06.33-2.41-.12-3.7-.2-.11.42.43.62,0,.73s-2.39-.36-2.55-.21c-1.16,1.18-5.37.84-4.54,1.77-2.27.27-4.14.82-6.24.56.42,0,1,.08,1.13-.26-.76.1-3.45-.17-2.83.29.41.13,1.46-.31,1.41.22-2.3,1.15-6.55.49-7.67,2,.59-.2,1.75.18,1.16.58,1-.77,3.12-.49,4-.31-.46-.17-1.23.5-.57.5a3.91,3.91,0,0,0,2.27-1.25,6.8,6.8,0,0,0,4,.18c-.76-.52-2,.06-3.41-.44,2.22.16,4.6-1.31,7.66-.34-1.44.35-2.91-.54-3.69.05,1.89,0-.31.4-.56.73,1.75.27,4.33-.62,6.8-1.55.62.38,3.95,0,5.57.17l0,0-14,2.35v-.73c-.72.49-1.3-.23-1.7.27.17.41,1.35,0,1.42.46-1.64,0-3.17.09-4,.79,3.06-.11,4.59-.87,6.53-.09a14.44,14.44,0,0,0-3.4.77c2,.08,2.4.27,3.69-.53,0,.36-1.2.79,0,.73.14-.78,2-1.41,2.83-.77-.5.14-1.18.14-1.41.51.42,0,1-.11,1.13.23-1.56.63-1.24-.66-2-.22.22,0,.33.2.29.48-1.91.27-3.49-.1-5.11.07.41.92-.78.48-.56,1.23,1.55.07,3.07-1,3.4-.05l.85-.74c1.57.42,2,.6,2.56,1.42-1.25.15-1.24.36-1.42-.22-.24.53-1.46.22-1.7.75.62.59,2.2-.5,3.41.2-1.77.67-4,0-5.11.8.59.14,1.87-.33,2,.22-2-.4-2.75,1.56-4.25.79.33-.05.8,0,.85-.26-1.63-.29-3.74-.13-5.4-1.38.25.85,1.51,1,1.71,1.2.11.58-1.3-.12-.85.73.87.79,2-.19,2.84.2a4.31,4.31,0,0,1-3.41.06c-.3.23-.08.9-.85.74-1.26-.09,1.16.23,2.56,0-.08,1.25,3.74.09,5.11-.32-1.18-.59-3.32.77-4.83.32,3.22-1.67,8.11-.51,11.63-.9-.72-.42-2.92.26-3.69-.67,2.66.53,2.72-.55,4.54-.55.25.77-.73.51-.85,1,.51.14,1.18-.73,1.42,0-1.18.05-.06.17,0,.49a26,26,0,0,1-6.34.33c.38,0,.62-.18.67-.5-1.09.74-2.13-.2-2.27.52.08.5.76-.37.85.47-1,.35-3.57.22-4.82,1,.32.5,0,.21.57.48-.75.68-1-.17-1.7-.22-3.57,1-.29.1,1.42,1-.74.57-1,.06-1.7.51,1.11.35,0,.38-.28.74,2.44,0,4.05-2.71,6.52-.83-1.44,0-1.56.09-.56.5-1.14-.07-1.58.45-2.84.28,0,1.4,2.62.31,2.84.45.47-.72,3.62-.14,5.1-1-.59-.14-1.86.32-2-.22,1.91-.29,3.46,0,5.1-.8-1.17.13.22-.62-.57-1-.92.12-2.46-.28-2.55.53.42,0,1-.11,1.13.22-1.08.85-2.37,0-3.4.78.79-1-1.12-.11-.85-1,1.8.08,2.43.22,3.12-.53a12.17,12.17,0,0,0-5.39.8c.42,0,1-.1,1.13.23-1.05-.22-2.69.07-3.12-.69,3.17-1.6,9.19.49,9.64-1.59.53.46.52.19.29,1,1,.17,2.26-.82,2.83-.77-.28.93,2.2.35,3.13.7,0-.29-.05-.69.28-.74.67.07.53.84,1.42.72.68-.31,4.15-1.13,4,0l.85-.74c.16.51.81.78.29,1.22,1.94-1.12,6.15.64,6.52-.31.12.71,1.67.18,2,.72L22.2,69.39c.94.61,1.72.49,3.12.93.53-.06-.16-.39.28-.49,3,.72,5.34-.44,8.23.64-.13-.82,2.58-.89,1.42,0A3.6,3.6,0,0,0,37.52,70c-.08,1.32,2.92-.49,3.41.7-2.82.08-6.9,0-8.8.09.3.09.6.13.9.19a5.27,5.27,0,0,0-1.64.38,7.67,7.67,0,0,0,2.43-.2c4.22.56,8.77-1.34,11.65.23-5.09.35-11.63.56-16.74-.32.22-.06.56,0,.56-.25-3.65,1.15-6.77.25-9.92.61.22.05.33.2.28.48a14.91,14.91,0,0,0-5.67,1c.76.27,1.67-.49,1.7,0-.53.35-1.47.37-1.69,1,5.21-.95,11.56-.54,16.73-.21-.77,0-1,.35-1.4.61a6.21,6.21,0,0,1,3.46-.54.17.17,0,0,1-.07-.09,14.55,14.55,0,0,1,5.95-.06c-3.75.55-7.57.6-10.2,1.57,2.81.27,5.8-.6,7.66-.33a.11.11,0,0,1,0,.12,4,4,0,0,1,3.39.09c-1,.28-3.42-.63-3.12.76,1.19-.72,3.38,0,4.26,0-2.52.77-4.34-.16-6,.79,2.32-.07,4.61-.32,6.53.67-1.25.08-2.12,0-2-.47-1.65,1.41-4.31.35-6.24,1,.92.23,5.19-.13,3.41.69,3.25-.18,6.93-.54,9.08.4C39,78.51,30.1,79,21,78.27c.61,0,1.21-.18.94-.35-1.27,0-4.05,0-3.68.53.63-.11,1.53-.58,1.7.22-1.52.32-2.79-.63-3.4.29.77.14,2.25-.34,2.55.21a2.86,2.86,0,0,0-2,.51c2.15-1,10.32-.24,12.76-.16,0,0,3.14-.62,3.12,0,0,.08-3.19-.15-1.42.26a50.92,50.92,0,0,1,12.48.12c-1.23.17-3.21-.29-4,.28,1.65.1,3,0,5.11.2-.08,1.58,3.58.6,5.1,1.41-3.27.29-9.6.8-13.32.37a9.42,9.42,0,0,1,4.25,0,20,20,0,0,1,2.55-.51c-2.27-.69-9.4.46-10.77.34-.07-.18,0-.47-.29-.48-.53.49-1,.43-1.7.26.87,1.41,5.08-.25,6.52,1.15-.67.15-2-.28-2.26.27,5.89.39,9.27,0,14.18,1.08-1.42.17-3.59-.28-4.54.28,1.11.42,5-.09,6.81.44l-2.27,0c0,1.45,4.63,0,5.39.93-1.71.17-4.16-.29-5.39.28.37.44,3.26,1.28,2,.23,12.39.27,22.49-.42,31.47.82-.22.06-.56,0-.57.25,4.61-.06,11.16-.13,15,.48-1.47.13-5-.29-5.11.24,1.89-.16,4.53.32,6-.24a50.81,50.81,0,0,1,13.32-.47c-3.48.15-5.61.2-10.49.22-.3,0-.72.12-.28.25,1,.14,2.7-.23,3.49.14.46-.06.94-.11,1.33-.13,2.22-.17,4.93.13,6.23,0,.67-1.34,2.5.63,3.4-.23-.42,0-1,.08-1.13-.25,2.21-.35,2.68.79,4.82.51.36-.61-.14-.77.28-1,4.54-.06,9.79-.07,14.46.08-4,.71-11.49-.44-14.17.65.72,1,1.15-.26,2.27-.23a42.41,42.41,0,0,0,10.48.3c-.42,0-1,.08-1.13-.25,4,1,7.56-.84,13,.34-1.19.11-4.46-.3-4.25.21l2.55,0,19.25.91c-.41.08-.79.49-.26.5.61-.43,1.61-.14,1.42-.72.43.52,1.68.11.56.74,1.57,0,1.83,0,2-.71a10.07,10.07,0,0,0,4.82.06c.68-.14,2,.34,2.27-.21-9.13-.17-17.92-.44-25.8-.78,6.9-.53,15,.32,19.56-.27l2,0c1,.19,1-.4,0-.24l-2,0c-7.48-.2-13.89.17-20.12-.47,1.59-.81,4.74-.25,6.8-.66,1-.32-3.48-.06-4.25-.53,2.25-.28,4.82.45,6,.31-.33,0-.8,0-.85-.26,5.23-.1,15-.58,21.83.51.44-1.09-1.85.1-1.41-1,5.32.39,8-1,11.92-2.26-4.25-.85-10.28.87-12.47-1.16,1.84-.43,4.53-.09,6.52-.39.49-.23.58-.8,1.14-1,2-.7,4.1-.86,2-.7a5,5,0,0,1-2.84,0c1.19-.43,2.91-.39,4-.92a18.15,18.15,0,0,1-2.26-.76c2.11-.11,5,.46,6.24-.39.23-.84-.42-.94-.27-1.71-.87-.11-1.45.62-1.71-.27a2.61,2.61,0,0,0,1.71-.46c-1.59-.54-5.65,0-7.94-.61.86.19,1-.23,1.7-.22,3.73-.16-.85-.08-1.7-.51,3.38-.38,6.16,1.06,8.8-.35-1.23-.1-3,.23-3.4-.54a5.37,5.37,0,0,0,2-.21c.47,0,2.57.17,1.71-.22-1.57-.23-5.31.62-3.12-.54-1.24,0-2.57,0-3.12-.53.81-.14,1.38-.23,1.77-.31-.71,0-.13-1.29,2.2-.6,1.24,0,.05-.42-.56-.26-2.11-.39-3,.9-4.26-.06.38-.24,1.06-.22,1.14-.72-.53-.23-1,.72-1.14,0,.56.08.57-.32.86-.48,1.61-.13,4,.39,5.11-.16-.34,0-.81,0-.85-.26.33,0,.8.06.85-.23-1.48.34-3.57.21-4.54-.56a26.4,26.4,0,0,0,6-.39c-1.3-.35-5.12.35-6.81-.35,3-.4,6.92-1.19,9.37-1.31a.24.24,0,1,1,0-.48,3.42,3.42,0,0,0,2.55-.2c-1.3-.35-4.63.56-3.12-.3a12.62,12.62,0,0,0-5.11-.57c.37-.41.6-1,1.43-1-.56.45,4,.81,5.39.33-2.22-.38-6.5-.32-8.79-1.36a37.43,37.43,0,0,0,13.06-1.24,7.28,7.28,0,0,1-1.7-1c.76-.23,1.62-.37,1.71-1.19-1.74-.72-4.63-.48-6.52-1.08.91.15,1.42-.05,1.7-.45.25-.79-.73-.53-.85-1,1.37.45,1.94-.15,2.84-.69-.54-.35-.86-.89-1.69-1-3.1,1.5-8.45-1.08-12.49-1.18,5.85-.41,11.66,0,15.62-1-.39-1.23-5.16-1.54-6.24-1.32.22.06.56,0,.57.25a13.65,13.65,0,0,1-6.54.38c.21-.39,1.39.08,1.14-.71-.86-.17-2.45.28-2.84-.29,1-.1,1.65-.37,2.56,0,.18-.82,1.91-.28,2.56-.69.61.19,1.81-.22.57-.23-2-.06-3.94-.1-4.54-1.29a.57.57,0,0,0-.51.06,5,5,0,0,0-.62-.06v0c0-.32.5-.22.57-.48L180,47.92l.63-.12,2.85,0c-.39.09-.76.52-.25.51.58-.45,1.53-.2,1.34-.77.42.5,1.61.05.55.72,1.5-.08,1.74-.12,1.88-.79a9.28,9.28,0,0,0,4.59-.14c.65-.17,2,.25,2.16-.31-3.23.09-6.43.15-9.55.18.42-.05.83-.09,1.19-.11a.24.24,0,0,1,0-.48,2.61,2.61,0,0,0,2.23-.19,2.58,2.58,0,0,0-.53-.08l.71-.11,1.89-.06c1,.15,1-.45,0-.24l-1.89.06-3,.07a9.51,9.51,0,0,0-4.31-.55c.32-.42.52-.95,1.25-.95-.5.46,3.52.84,4.7.37-1-.21-2.48-.3-4-.48a87,87,0,0,1,14.27,0c.41-1.11-1.76.19-1.36-.93,5.08.14,7.56-1.42,11.31-2.83-4-.65-9.77,1.37-11.88-.57,1.75-.5,4.32-.3,6.21-.69.45-.25.53-.83,1.07-1,1.85-.79,3.89-1,1.87-.8a4.49,4.49,0,0,1-2.69.1c1.12-.49,2.76-.53,3.76-1.11a17,17,0,0,1-2.16-.65c2-.21,4.74.21,5.93-.7.21-.85-.41-.92-.29-1.69-.82-.07-1.36.69-1.62-.19a2.43,2.43,0,0,0,1.62-.54c-1.52-.46-5.37.28-7.56-.22.83.14,1-.29,1.62-.31,3.54-.33-.81,0-1.62-.43,3.2-.54,5.86.76,8.35-.77-1.17-.05-2.82.37-3.24-.38a4.9,4.9,0,0,0,1.88-.31c.45,0,2.45,0,1.62-.3-1.49-.15-5,.88-3-.38-1.18.05-2.44.17-3-.38l1.68-.39c-.68,0-.15-1.29,2.08-.72,1.18,0,0-.42-.54-.22-2-.29-2.81,1-4,.14.36-.26,1-.27,1.07-.77-.5-.22-.89.76-1.08,0,.53,0,.54-.35.81-.52,1.53-.21,3.77.19,4.85-.41-.32,0-.77.07-.81-.22.31,0,.76,0,.8-.27-1.4.41-3.38.39-4.32-.34a24,24,0,0,0,5.66-.68c-1.24-.28-4.86.61-6.47,0,2.88-.54,6.55-1.53,8.88-1.77a.24.24,0,0,1,0-.48,3.1,3.1,0,0,0,2.42-.33C213.32,22.21,210.17,23.29,211.59,22.35ZM35.16,9.76c-.08-.65,1.5.26,1.08-.71C37.5,9.05,35.76,10.7,35.16,9.76Zm7.51,3.33c-.3-.06-.14-.25,0-.24.11-.4-1,0-1.08.22-.91-.63.64-1,1.35-1C43.06,12.63,42.76,12.76,42.67,13.09Zm.55-.48c.58-.68,2.33-.28,3.23-.67C46.11,12.86,44.55,12.63,43.22,12.61Zm12.65-1.23c0-.24.34-.19.54-.24-.41-1.06-3.8-.26-1.88-.76a4.51,4.51,0,0,1,3.23.3C57.15,10.92,56.8,11.42,55.87,11.38Zm4.05-.91c.27-.68,1.14.08,1.61,0C61.12,11.17,60.37,10.91,59.92,10.47ZM15.47,23.56c-.07-.65,1.22.27.88-.7C17.37,22.85,16,24.5,15.47,23.56Zm6.12,3.32c-.25-.06-.12-.25,0-.24.09-.41-.83,0-.89.22-.74-.62.53-1,1.11-.95C21.91,26.42,21.67,26.55,21.59,26.88ZM22,26.4c.47-.68,1.91-.31,2.64-.7C24.41,26.61,23.13,26.41,22,26.4ZM5.66,50.88c-.09-.65,1.59.2,1.13-.75C8.12,50.07,6.31,51.79,5.66,50.88Zm8,3c-.32,0-.15-.24,0-.24.12-.4-1.06,0-1.13.26-1-.6.66-1,1.42-1C14,53.45,13.71,53.59,13.62,53.92Zm.57-.49c.61-.7,2.46-.36,3.41-.78C17.25,53.58,15.6,53.4,14.19,53.43Zm3.2,19.67c.14-.41,2.76-.55,4-.29C20.6,73.38,18.62,72.93,17.39,73.1ZM27.92,50.66a5.71,5.71,0,0,0-1.45.34c-.86,0-1.51.15-.36-.16A5.29,5.29,0,0,1,27.92,50.66ZM38.79,49c-.44.12-.87.22-1.28.31C37,49.17,36.91,48.78,38.79,49Zm-6.35,0a1.13,1.13,0,0,1-.43-.35c.1,0,.17,0,.26,0a.33.33,0,0,0-.06.1C32.34,48.84,32.45,48.87,32.44,49Zm-6.14.26-.06,0L26,49.18A.94.94,0,0,1,26.3,49.29Zm2-.42-.7,0,.05-.06s0,0,.07-.06.05,0,.06-.07h0s0,0,0,0c-.46-.11-1-.18-1.48-.27L28,48.12c-.05.13,0,.23.09.25.13-.43.27.11.5.25a2.28,2.28,0,0,1-.11-.56L30,47.9c.39,0,.76,0,.81.27C29.66,47.88,29,48.55,28.32,48.87ZM22.65,36.16l.05,0a1.08,1.08,0,0,1,.24-.18c1.12.42,1.45.62,1.88,1.37l-.12.11-.56.1c-.39-.94-1.23.22-1.7-1A1.07,1.07,0,0,1,22.65,36.16Zm.1-3.65a3.64,3.64,0,0,0,1.23,0c-.29.36-.94.67-1.26.14A.17.17,0,0,1,22.75,32.51Zm2.66-.38c.24-.08.48-.16.73-.26A14.42,14.42,0,0,1,29,32l-3.5.65a1.51,1.51,0,0,0,.44-.43C27.59,32,26.33,32.06,25.41,32.13ZM40.79,21.75c.12.53-.42.44-.57.71l-.29.09v-.67A2,2,0,0,1,40.79,21.75Zm2.48.84c-.38,0-1,.21-1.14-.07C42.63,22.41,43,22.36,43.27,22.59Zm1-.46.19.06a2.84,2.84,0,0,0-.35.16,1.07,1.07,0,0,0,.07-.15Zm3.89-1.57a24.52,24.52,0,0,1,3.27.2c-.56.16-2.6-.09-3.38,0A1.08,1.08,0,0,1,48.13,20.56ZM36.69,52.68a1.18,1.18,0,0,1-.39,0,2.92,2.92,0,0,0,.34-.13A.17.17,0,0,1,36.69,52.68ZM29.52,51c-.33.14-.58.33-.88.49l-.6-.07,0,0A5.37,5.37,0,0,1,29.49,51ZM30.26,47a3,3,0,0,1-.88-.12C29.75,46.77,30.07,46.69,30.26,47Zm-5.07-.82h-.51C24.89,46,25,45.85,25.19,46.13Zm-1-1.44a3.19,3.19,0,0,0,1.55-.48c-.35-.11-1,.11-1.35,0,.71,0,1.31,0,1.45-.27l-.34-.08a4.81,4.81,0,0,0,2.69-.6c-.37,0-.41,0-.37-.19.39,0,.76-.09,1.11-.11.44.17.92.25,1.56.49a9.34,9.34,0,0,0-2.18.56c1.79.14,2.09.33,3.22-.43,0,.36-1.05.75,0,.73A1.71,1.71,0,0,1,34,43.6c-.44.13-1,.11-1.24.47.18,0,.38,0,.56,0-.22.07-.44.15-.65.2-.21-.2-.3-.46-.65-.24a.35.35,0,0,1,.23.32,12.26,12.26,0,0,1-2.88.13l-.68,0a16.94,16.94,0,0,0-2.36,0h0c.13,0,.28-.19,0-.24,0,.4-.69.11-.75.46a5.66,5.66,0,0,0,.59.15.81.81,0,0,1,0,.16,1.58,1.58,0,0,0-.32,0c-.38-.25-.69-.49-1-.05A.37.37,0,0,1,25,45l-.54.07C24.5,44.86,24.38,44.74,24.2,44.69Zm.34-8.21c.35-.25,1.18-.61,1.36-.1-.8-.19-.42.45-.27.7h0a.77.77,0,0,0-.55,0A1,1,0,0,0,24.54,36.48Zm6.21,6.62a4,4,0,0,1,.54.21l-.48.08C30.83,43.3,30.73,43.19,30.75,43.1Zm4.38,2.84c.12,0,.3,0,.55-.07l-.3.07Zm-2.21-.48h0Zm3.26.09,0,.08a16.27,16.27,0,0,0-1.86-.15C34.93,45.49,35.56,45.52,36.18,45.55Zm1.67-2.48c0,.06-.09.09-.24.1Zm-6.37-2.28a1.18,1.18,0,0,0-.6-.09l.67-.1a.92.92,0,0,1,0,.16Zm.49-1.7h1.11a.69.69,0,0,1,0,.22L32,39.47Zm.44,1.46a.61.61,0,0,1-.4,0Zm3.78-2.47a1.77,1.77,0,0,1,1.27-.26,3.19,3.19,0,0,1-.72.32Zm4.46,11.1a2.3,2.3,0,0,0,.28-.06c.46.11.32.09,1,0l0,.06v0a5.87,5.87,0,0,1-1.28.12Zm1.12-.35-.4,0,0,0Zm-2-12.27a4.6,4.6,0,0,0-.74,0,1.56,1.56,0,0,1,.61-.07A.41.41,0,0,1,39.73,36.56ZM39,36.32l-.24.25a3.93,3.93,0,0,1-1.73,0A3,3,0,0,1,39,36.32Zm-1.49,4.94h0l0,0S37.54,41.25,37.55,41.26Zm2.47,8h.32l.12.05H40S40,49.25,40,49.23ZM30,41.3s0,0,0,.05h-.24A.55.55,0,0,1,30,41.3Zm6.38.14-1.89.28A5.17,5.17,0,0,1,36.36,41.44Zm-1.49,1.73a7.54,7.54,0,0,1,.94.06c.14.2.48.22.87.19a6.34,6.34,0,0,1,.64.24.42.42,0,0,1,.06-.27,1.83,1.83,0,0,1,.35,0c.32.51-2.33.09-3.22.19A.87.87,0,0,1,34.87,43.17Zm-1.15,1.1-.4-.07c.08,0,.19,0,.28-.06A.3.3,0,0,1,33.72,44.27Zm-1.56,1.19.05,0-1.68,0,0,0Zm-.8-14.08.39.07-.52.11C31.2,31.48,31.21,31.42,31.36,31.38ZM29,41.73a3.65,3.65,0,0,0,1.19,0c.47.26,1.72,0,2.27.27,0-.13,0-.29,0-.42l.53-.1a2.64,2.64,0,0,0,.32.41c-1.23.19-2.53.4-4,.65h0v-.73a.85.85,0,0,1-.8.11A3.49,3.49,0,0,0,29,41.73Zm1.19,3.75v0h0ZM48,18.06a7.26,7.26,0,0,1-2.55-.22c.36,0,.71-.07,1.05-.12A6.58,6.58,0,0,1,48,18.06Zm-3.41.34a1.43,1.43,0,0,1-1-.43c.38,0,.75,0,1.11-.07a1.63,1.63,0,0,0-.19.09C45.74,18,45.18,18.2,44.62,18.4Zm1.55.25c.2,0,.37.12.09.24a.75.75,0,0,0-.26-.21ZM43,19.21l-.58,0v-.07Zm3.28-.57a28.09,28.09,0,0,0,4.23-1.26c.55.38,3.48.14,5.07.29a1.77,1.77,0,0,0-.49.17c-1.45.23-2.82.43-4.19.62ZM37,24c-.33.68-1,.44-1.32,0C35.92,23.28,36.63,24,37,24Zm3.29,2a.8.8,0,0,1,.15.21,1.51,1.51,0,0,1-.55-.19ZM28.86,33.75c.6.43-1.29.18-1.77.24.17.55,1.25.1,1.77.25.3.49-2.08.13-2.87.24C26.28,33.5,27.72,33.78,28.86,33.75ZM25.32,35.2a1.05,1.05,0,0,1-.71.14,1.71,1.71,0,0,0,.56-.32A.23.23,0,0,1,25.32,35.2Zm-2,2.78c.16,0,.33-.07.51-.09a1.55,1.55,0,0,1,0,.38,1.6,1.6,0,0,1,.46-.41,1.18,1.18,0,0,1,.72.26,5.85,5.85,0,0,1-2.45.27A2.23,2.23,0,0,0,23.36,38Zm2.4.63a10.17,10.17,0,0,1-2.89.46C23.22,38.31,25.31,38.49,25.76,38.61Zm1.55.49a1,1,0,0,1,0,.22c-.43,0-.69,0-.48.25a.9.9,0,0,0,.38,0c-.18.18-.53.17-.59.48.37.14.87-.63,1.08-.07l-.28.09-.1,0a5.35,5.35,0,0,1-.74.17c-.59-.39-2.27.21-2.85-.73C25.83,40.15,25.89,39.09,27.31,39.1Zm-1.64,3.26a3.48,3.48,0,0,0,1-.48,1,1,0,0,0,.72-.56l.43.13a2.55,2.55,0,0,1-.12.58h.09c.14.43,1.16,0,1.23.51l-.87,0,0,0h-.28a.32.32,0,0,0-.19-.26c-.72.1-1.92-.32-2,.48.17,0,.38,0,.56,0a2,2,0,0,0-.71.42l.81,0c-.73.47-1.56,0-2.27.43H24c.4-.77-.93-.06-.73-.86C24.65,42.84,25.16,43,25.67,42.36Zm-2,2.37a.48.48,0,0,0-.29.34,1,1,0,0,1,.33.13q-.37.09-.72.21a8.93,8.93,0,0,0-1.09-.4A4,4,0,0,1,23.65,44.73Zm1.69,1.41c.1-.4.77-.23,1,0a.21.21,0,0,0-.13,0h-.15Zm1.08,0a.68.68,0,0,1,.65-.28v-.07a4.17,4.17,0,0,1,.46.09,1.2,1.2,0,0,1-.65.26Zm3.06.29-.86.16a4.74,4.74,0,0,0-1.34-.17.31.31,0,0,0,.1-.05Zm.78.49a.61.61,0,0,1,.1.18c-.22,0-.43,0-.65,0A2.09,2.09,0,0,0,30.26,47ZM31,48.18a1.24,1.24,0,0,1,.89-.47l1.15-.09a7.12,7.12,0,0,1,1.18.12A12.47,12.47,0,0,1,31,48.18Zm2.11,2.92a1.06,1.06,0,0,1-1-.07Zm-.75,1.47.31,0a1.25,1.25,0,0,0-.45.22A1.34,1.34,0,0,0,32.38,52.57Zm.1.5c1.08-.15,2-.06,3-.18l.14,0c.67-.09,1.38-.16,2.12-.22a.73.73,0,0,1,.35.67c.36-.93,2.1.2,3.13.21a31.67,31.67,0,0,1-3.89,0,16.6,16.6,0,0,0-2.82,0c.2.06.29.21.25.49h0l-.42,0A9,9,0,0,0,33,53.75a3,3,0,0,0,1.19-.41C33.7,53.19,32.59,53.62,32.48,53.07Zm4.46,10.31c-1.49-.14-2.57.32-3.41,0A4.94,4.94,0,0,1,36.94,63.38ZM150.87,5.25c-.37.56-1.87.12-2.69.28C148.55,5,150.05,5.41,150.87,5.25ZM89.26,7.09c-1.1,1-2.93-.09-5.38.21C84.1,6.77,87.7,7.22,89.26,7.09ZM31.6,18.2a.4.4,0,0,0,.15.3l-.65.07A.91.91,0,0,1,31.6,18.2Zm-1.2,1.13a2,2,0,0,1-1.1-.43l2.3-.13A4,4,0,0,0,30.4,19.33Zm9.45-.55c.77.06,1.51.16,2.22.28-.54.13-1-.31-1.29.06H39.36A2.8,2.8,0,0,0,39.85,18.78Zm-6.12,3.61c.22-.74-.35-.77-.51-1.17h.06a.88.88,0,0,0,1.17-.15l.92-.12c-.17.07-.35.15-.56.26,1.33.05,3.5.32,3.78-.16-.58-.13-1-.22-1.4-.27a52.94,52.94,0,0,1,6-.16,12.53,12.53,0,0,0-1.9.48,7.81,7.81,0,0,0,2.56,0,5.61,5.61,0,0,0,.58,0c-.19.17-.27.29.36.28a.81.81,0,0,1,.15-.31c.84-.08,1.51-.29,1.25-.63a3.11,3.11,0,0,1,.43,0l.33,0a1.4,1.4,0,0,1,.54.24c-.48.12-1.12.1-1.35.46.39,0,.94-.05,1.06.24-.3,0-.57.09-.84.15-.52-.12-.51-.71-1-.41a.37.37,0,0,1,.27.49,8.37,8.37,0,0,1-1.31.06c0-.11-.15-.17-.43-.1,0,0,0,.05,0,.08-.79-.05-1.54-.12-2.28-.13a5.19,5.19,0,0,0-2.25.14.25.25,0,0,1-.16-.17c.15,0,.31-.19,0-.25,0,.41-.75.12-.82.47.16,0,.33.08.49.12l-.25.09a1.7,1.7,0,0,0,.74.05.68.68,0,0,1,.37.26c-1,.25-1.53-1.06-2.16-.29.31.06.42.28.54.5l-1.08,0c.67-.74-.9-1-1.08-.27a1.18,1.18,0,0,1,.95.85c-1,.05-1.88,0-2.83.07,0-1.25,2.08.24,2.15-.43C35.18,22.63,34,21.67,33.73,22.39ZM32.39,25c0-.23.27-.19.44-.24-.34-1.06-3.12-.18-1.54-.73a3.07,3.07,0,0,1,2.64.23C33.43,24.49,33.15,25,32.39,25Zm5.3.19Zm2.85,1.24,0,.16a.48.48,0,0,1,.1-.17c.32,0,.65-.05,1-.05a7.15,7.15,0,0,0,1.13.38s-.08,0-.1.07c-.24,0-.48,0-.73,0a2.69,2.69,0,0,0-.94,0c-1.28,0-2.42-.1-2.92.35l-.35-.07A7.75,7.75,0,0,1,40.54,26.4Zm-3.07.7s0,0,0,.07l-.13-.06ZM20,32c1.24.17,2.55-.5,4.06-.53l-.28.16a.85.85,0,0,0-.68.18l.32,0-1,.59C21.84,32.11,21,32.43,20,32Zm1.42,1.47.45-.09ZM20,35.37a5.7,5.7,0,0,0,.71-.45c1.35.13,1.66.26,2.6-.47,0,.36-.94.76,0,.73a1.45,1.45,0,0,1,2.21-.71c-.39.13-.92.12-1.1.48.19,0,.42,0,.6,0a2.31,2.31,0,0,1-.7.19c-.18-.2-.26-.45-.57-.23a.32.32,0,0,1,.2.27c-.82,0-1.63,0-1.56.26A14.9,14.9,0,0,0,20,35.37Zm.22,2.05a3.49,3.49,0,0,1,2.66.11.87.87,0,0,0-.34.14,1.88,1.88,0,0,0-1.36,0A9,9,0,0,0,20.24,37.42ZM21.91,39l-.16,0A.41.41,0,0,1,21.91,39Zm-4.38,1.87a5.29,5.29,0,0,1,2-.66l0,.08a1.16,1.16,0,0,0-.63.63A2.13,2.13,0,0,1,17.53,40.91Zm1.9-.1a1.79,1.79,0,0,0-.24-.24c.28.08.41-.19.43-.35,2.2-.31,4.77.29,6.81.11-1.11.17-2.34.17-3.34.34a.49.49,0,0,0,.22-.38c-.85.72-1.66-.25-1.78.46,0,.41.41,0,.58.19a1.72,1.72,0,0,0-.66.47l-1.05.11a.28.28,0,0,0,0-.18c-.14.27-.37.13-.61-.11.59-.16,1.15-.36,1.5-.48C20.83,40.42,20.15,40.62,19.43,40.81Zm-1.37,1.88a3.89,3.89,0,0,0,.65-.12l.14.08C18.5,43.05,18.29,42.9,18.06,42.69ZM20,42.43A3.81,3.81,0,0,1,21.14,42s0,0,0,.09,0-.07,0-.1a7.45,7.45,0,0,1,1.35-.12.26.26,0,0,1-.13.25,1.46,1.46,0,0,1,.46-.25c.9,0,1.81.11,2.59.13a.57.57,0,0,0-.29.25,7.27,7.27,0,0,0-3.64.7c.33,0,.82-.08.89.25a5.5,5.5,0,0,0-.76-.12h0C20.94,43,20.21,43,20,42.43Zm2.22,1.5h-.14l0-.08ZM20.9,44a.76.76,0,0,0,.56.21,2,2,0,0,0,.28.17,2.17,2.17,0,0,0-.58,0A.74.74,0,0,1,20.9,44Zm.49,1.14h.05s-.05.05-.06.1A.28.28,0,0,0,21.39,45.17Zm1.16.38c-.26.09-.5.18-.72.28l-.18,0C21.71,45.4,22.11,45.43,22.55,45.55Zm3.77,1.31a.62.62,0,0,0-.25-.14,3.7,3.7,0,0,0,.57-.07c.78.44,1.41-.2,1.86.45l-.46,0h-1c0,.06,0,.06,0,.09l-.27,0h-.05l-.83.13a3.61,3.61,0,0,0,.3-.25,9.53,9.53,0,0,1-1.35.39C25.06,47,26.11,47.37,26.32,46.86ZM21.52,49l.67-.11A2.13,2.13,0,0,1,21.52,49ZM23,48.8l.72-.11a.66.66,0,0,0,.07.29,1.16,1.16,0,0,0,.22.18H23.5s0-.06,0-.1A.68.68,0,0,0,23,48.8Zm-.38,1.13a1.57,1.57,0,0,0,.4-.14C23,49.9,22.88,50,22.66,49.93Zm1.69-.38a.36.36,0,0,0,.07-.24,2.87,2.87,0,0,0,1-.09c0,.07,0,.13.15.16a.47.47,0,0,1,.08-.14,2.32,2.32,0,0,0,.37.13A4,4,0,0,1,24.35,49.55Zm.71.44a5.79,5.79,0,0,1,1.43-.51,8.85,8.85,0,0,0,3-.23l1,0-.06,0H31a26.75,26.75,0,0,0,4.23.13c-.48-.34-1.72-.06-2.57-.33v-.32c1.39.21,1.8-.32,2.68-.49l.39,0H36a.59.59,0,0,1,0,.38l-.5.15.31,0c-.21.1-.49.13-.55.39.44.16,1-.7,1.24,0-.81,0-.38.11-.14.31a34.39,34.39,0,0,1-5.11.35h-.3a.57.57,0,0,0,.59-.49c-1,.71-1.86-.26-2,.45a.24.24,0,0,0,0,.07l-.58,0,.31-.09C28.26,49.23,26.37,50.5,25.06,50Zm3,3.75a5.22,5.22,0,0,0-2-.44c.54-.24,1.05-.55,1.57-.75l1.67-.1a2.93,2.93,0,0,1,.93.58c-1.26-.06-1.37,0-.5.48a2.56,2.56,0,0,0-.69,0l-1,0a.46.46,0,0,0,.18.21ZM15.38,66.07c.43-.77,3.11-.65,3.68-.53A16.62,16.62,0,0,1,15.38,66.07Zm2.83-1.74c0-.61-.44-.76-.86-1,1.55-.92,2.79.3,4-.3C21.38,63.92,19.26,63.56,18.21,64.33Zm1.12-2.93c.37-1,2.22-.73,3.69-.78.76.42-1.66.19-2.27.27.21.55,1.59.07,2.27.21C23.4,61.6,20.35,61.27,19.33,61.4Zm5.13,5.28c-1.17,1-3.95-.38,0,0Zm2,.95c-.6-.27-1.11.16-1.71-.47C23.12,67.62,26.86,65.79,26.45,67.63Zm0-1a2,2,0,0,0,1.42,0C28.36,67.8,26.06,67.55,26.44,66.66Zm.57-.25v-.49h1.42C28.72,66.72,27.54,66.29,27,66.41Zm5.11.43a7.55,7.55,0,0,1-4,0C29.49,66.43,33.62,66.45,32.12,66.84Zm.28-2c.66-.48,2.82-.34,3.08.39H35.3A16.63,16.63,0,0,0,32.4,64.89Zm3.12,1.18c-1,.05-2.66.22-2,0C35.84,65.43,38,66,35.52,66.07Zm9.95,4.54c.86.79,4.14-.52,4.54.69C48,70.7,46.34,72.05,45.47,70.61Zm-4,6.61c0-1.23,2.61.25,2.27-.76.68-.1.62.44,1.42.24C44.87,77.63,42.71,77,41.51,77.22ZM56.25,73l-.32.11a1.62,1.62,0,0,0-.25-.11c-1.59-.56-5.23.45-6.8.54-3.44.19-6,.08-8.51.07,2.06-1.08,4.33-.07,6.24-.54-2.91-.69-8.37.29-10.13-.42a3.31,3.31,0,0,0,1.89-.45,3.89,3.89,0,0,0-2.07.36l-.19-.12c-.89.75-1.8.14-2.84.51-3.34.18-3.33-.34.57-.24-3.54-.73-7.65-.17-11.35-.36,12.85-1.43,22.92.86,32.63-.56-.19,1.45,3.71-.18,4.54,1.19C58.8,73.35,57.35,72.63,56.25,73ZM179.4,67.61c.17-.75,1.4-.56,2-.94C181.13,67.34,180.24,67.46,179.4,67.61Zm3-18.71.32,0C182.64,48.92,182.53,49,182.45,48.9ZM200,25.67c.15-.75,1.32-.63,1.88-1C201.68,25.32,200.83,25.48,200,25.67Z"/><path class="cls-1" d="M217.17,14.12c-.07-.92-1.42-1.51-1.89-.66C216,14.12,216.3,13.89,217.17,14.12Z"/><path class="cls-1" d="M48.6,12.23c.08.33.67.21,1.08.26C50.29,11.64,49.49,12.46,48.6,12.23Z"/><path class="cls-1" d="M192.83,3.51c.06-.89-2.61-.47-3-.16C191.45,3.77,191.66,3.44,192.83,3.51Z"/><path class="cls-1" d="M205.54,9.41c.8-.32,1.5,0,2.42-.57C207.06,8.78,205.86,8.45,205.54,9.41Z"/><path class="cls-1" d="M32.24,21.67c-1-.24-2.75.26,0,0Z"/><path class="cls-1" d="M27.33,19.38c-1.3.08-2.77.14-3.07-.5-.76.74-1.94.32-2.2,1.43C23.17,19.5,26.58,20.27,27.33,19.38Z"/><path class="cls-1" d="M14.13,25.71c-.5-.16.27-.37-.21-.74-.5.41-1.37.38-1.34,1.4.67,0,.86-.48,1.33-.67C13.91,25.83,14.08,26,14.13,25.71Z"/><path class="cls-1" d="M13,35.45c-.8-.25-2.26.23,0,0Z"/><path class="cls-1" d="M18.78,20c1.7-.22,2.71.33,3.28-.43C20.94,19.39,17.7,20.07,18.78,20Z"/><path class="cls-1" d="M13.4,32.25c-.25.55-.83-.56-1.1-.78.46.15.48-.92.23-.23-.33.06-1,1-.46,1.2,0-.27.25-.37.45-.47,0,.24.17.3.21.5A3.6,3.6,0,0,0,11,33.61C12,33.64,13.53,32.82,13.4,32.25Z"/><path class="cls-1" d="M15.12,37.43c-.4-.46-1.25-.18-1.56.18C14,37.49,15,38,15.12,37.43Z"/><path class="cls-1" d="M15.54,39.39c0-.37.09-.89-.21-1,0,.28-.36.26-.67.22.18.7-.32.62-.23,1.21C15.11,40.05,14.86,39.19,15.54,39.39Z"/><path class="cls-1" d="M14.92,34.5c-.25,0-.34-.28-.44-.5-.81.21-1.28.81-2,1.13.33.06.82-.05.88.28l-.34,0a.62.62,0,0,1,.34.21c.15.19-1.52,1.55-.45.71.42-.09.41-.68,1.11-.44-.41.41.05.76.44,1-.06-1.28,1.71.24,1.77-.43-.79-.06-1.8-1-2-.31.2-.77-.34-.77-.43-1.23A.63.63,0,0,0,14.92,34.5Z"/><path class="cls-1" d="M17.74,41.89c-.62-.59-2,.24-1.56.68C16.28,41.87,17.49,42.42,17.74,41.89Z"/><path class="cls-1" d="M18.24,34.84c-1.62-.41-2-.53-3.1.16C16.23,35.05,18,35.33,18.24,34.84Z"/><path class="cls-1" d="M32.84,26.92c-1.7-.84-2.29-.46-3.09.5a1.4,1.4,0,0,1,1.32,0C31.3,26,32.43,27.49,32.84,26.92Z"/><path class="cls-1" d="M30,22.31c-.58,0-1.29-.14-1.32.48C29.1,22.65,30.17,23.19,30,22.31Z"/><path class="cls-1" d="M14.05,33a1.3,1.3,0,0,1,.22-.59C14.07,32.49,14,32.67,14.05,33Z"/><path class="cls-1" d="M26.44,26c.07.33.55.2.88.24C27.82,25.33,27.17,26.17,26.44,26Z"/><path class="cls-1" d="M45.58,15.49c-.67,0-2-.68-2.21.3C44.27,15.26,44.79,16,45.58,15.49Z"/><path class="cls-1" d="M17.33,38.47c.19-.52,1.14-.17,1.33-.69C18.12,37.27,16.71,37.83,17.33,38.47Z"/><path class="cls-1" d="M20,44.54c-.89-.24-2.52.25,0,0Z"/><path class="cls-1" d="M14.17,47.34C15.6,46.5,20,47.17,21,46.28c-1.68.09-3.58.2-4-.44C16,46.61,14.49,46.22,14.17,47.34Z"/><path class="cls-1" d="M4,63.32c-.52.44.08.75.57,1-.08-1.29,2.2.15,2.27-.53-1,0-2.32-.93-2.55-.2.23-.78-.45-.75-.58-1.21.41.36,1.48.21,1.42-.51-.32,0-.44-.26-.57-.48A18.9,18.9,0,0,0,2,62.62c.42,0,1-.1,1.14.22l-.44.06a.89.89,0,0,1,.44.19c.19.19-1.92,1.64-.57.74C3.13,63.72,3.1,63.13,4,63.32Z"/><path class="cls-1" d="M10,62.25c0,.41-.79.15-.85.5.5.13,1.18.11,1.42.47-1,.29-1.62-1-2.27-.21a.78.78,0,0,1,.57.48l-1.14,0c.69-.77-1-.94-1.14-.23.72.09,1.31.81.86,1.2,1-.06.85-.81,1.42,0-.12-.64.85-.5,1.13-.26-.15,0-.32.2,0,.24a.79.79,0,0,1,.85-.5V62.73c-.33,0-.81.05-.85-.23C10.12,62.49,10.29,62.3,10,62.25Z"/><path class="cls-1" d="M3.14,59.68c-.3.56-1.06-.5-1.42-.71.59.12.6-1,.28-.25C1.58,58.8.79,59.77,1.44,60c.06-.27.31-.38.57-.49,0,.24.22.28.28.48A5.06,5.06,0,0,0,0,61.19C1.43,61.15,3.33,60.25,3.14,59.68Z"/><path class="cls-1" d="M2.72,62.9c-1-.2-2.89.37,0,0Z"/><path class="cls-1" d="M14.52,64.87c-1,.11-2.88-.81-4.26-.19,1,.5,1.74-.33,2.27.46-.14.31-1.06,1.17-.56,1.22.14-.43.3.1.57.24C11.9,64.93,13.69,65.3,14.52,64.87Z"/><path class="cls-1" d="M9.91,47.16c2.2-.29,3.52.23,4.25-.55C12.7,46.46,8.51,47.26,9.91,47.16Z"/><path class="cls-1" d="M4,53.1c-.65-.13.34-.39-.29-.73-.63.44-1.76.47-1.7,1.49.87,0,1.1-.54,1.7-.76C3.68,53.23,3.91,53.37,4,53.1Z"/><path class="cls-1" d="M36.13,75l-.25.13C36,75.05,36.1,75,36.13,75Z"/><path class="cls-1" d="M195.63,56.18c.74.71,1.07.5,2,.77C197.55,56,196.13,55.37,195.63,56.18Z"/><path class="cls-1" d="M104.47,88.18a.72.72,0,0,0-.19-.11C102.6,88.27,101.09,88.55,104.47,88.18Z"/><path class="cls-1" d="M8.28,65.69c.24-.53,1.46-.23,1.7-.76C9.28,64.44,7.49,65.08,8.28,65.69Z"/><path class="cls-1" d="M149.54,89.16c.43,0,1.05-.08,1.14.25-.16,0-.33.2,0,.24,1.62-.63,2.69.73,4-.44C152.45,89.42,150.37,88.56,149.54,89.16Z"/><path class="cls-1" d="M194.77,57.39c.09-.57.88-.53,1.14-1C193.87,55.92,194.21,56.68,194.77,57.39Z"/><path class="cls-1" d="M78.11,87.46c.86-.15,2.44.31,2.83-.25C80.08,87.37,78.5,86.91,78.11,87.46Z"/><path class="cls-1" d="M74.7,87.47c1-.16,2.64.31,3.12-.25C76.38,87.11,75.75,86.84,74.7,87.47Z"/><path class="cls-1" d="M98.8,88.41c-5,.42,1.32.88,2.55,0C100.41,88.45,99.39,88.36,98.8,88.41Z"/><path class="cls-1" d="M137.35,89.3c1.6.33,7,.71,8.51.07C142.83,88.75,139.75,89.47,137.35,89.3Z"/><path class="cls-1" d="M185.42,51.63c.85-.28,1.59.09,2.56-.45C187,51.08,185.77,50.68,185.42,51.63Z"/><path class="cls-1" d="M35.55,75.32a2,2,0,0,1,.33-.24C35.48,75.16,34.83,75.1,35.55,75.32Z"/><path class="cls-1" d="M19.87,52.87c.09.33.71.19,1.13.22C21.64,52.22,20.8,53.07,19.87,52.87Z"/><path class="cls-1" d="M27.89,76.14v-.49c0-.24-.5-.3-.57,0,.18,0,.34,0,.29.24-.73-.07-1.82-.33-2.55.27Z"/><path class="cls-1" d="M66.77,88.24c0,.54-.72-.32-1.42,0C64.87,89.21,68.07,88.69,66.77,88.24Z"/><path class="cls-1" d="M27.89,74.19c.21-.85-2.35-.54-2.56-.22C26.45,74.31,26.87,73.77,27.89,74.19Z"/><path class="cls-1" d="M33.07,73.72l-.29,0C32.85,73.79,32.94,73.77,33.07,73.72Z"/><path class="cls-1" d="M4,60.4a1.21,1.21,0,0,1,.26-.6A.4.4,0,0,0,4,60.4Z"/><path class="cls-1" d="M33.07,73.72c.15,0,.31,0,.49-.08A.82.82,0,0,0,33.07,73.72Z"/><path class="cls-1" d="M29.32,74.28l-.3.14A1,1,0,0,0,29.32,74.28Z"/><path class="cls-1" d="M185.34,71.11a2.71,2.71,0,0,1-.5.14A1.23,1.23,0,0,0,185.34,71.11Z"/><path class="cls-1" d="M24.77,74l-4,0c-.06.46-.46-.13-.56.25.4.09.48.29.85,0C22.22,74.11,24.1,74.55,24.77,74Z"/><path class="cls-1" d="M15.7,76.54a1.77,1.77,0,0,0-1.14.26c-4,0,2,.85,1.7-.76-.8-.81-2.39.59-3.12-.2,2.16-.61,5.14-.52,6.52-1.79-2.55.85-7.45,1-8.5,2.31C11.76,76.32,14.8,75.92,15.7,76.54Z"/><path class="cls-1" d="M15.14,80.2a6.31,6.31,0,0,0-2.55.52A3.73,3.73,0,0,0,15.14,80.2Z"/><path class="cls-1" d="M18.53,76c1.44.81,5.17.24,6-.08A22.33,22.33,0,0,0,20,75.75a2,2,0,0,1,.85.48C19.69,76.61,18.83,75.54,18.53,76Z"/><path class="cls-1" d="M5.44,64.76a1.78,1.78,0,0,0-2,.27C4,64.88,5.32,65.3,5.44,64.76Z"/><path class="cls-1" d="M6.88,69.85c.11-.71,1.66-.22,2-.76C8.05,68.53,6.36,69.43,6.88,69.85Z"/><path class="cls-1" d="M13.72,79.73c.41-.44,1.85.24,2-.27C15.52,79.07,12.6,79.08,13.72,79.73Z"/><path class="cls-1" d="M5.43,62.32c1.39,0,3.68.19,4-.3C7.31,61.68,6.84,61.59,5.43,62.32Z"/><path class="cls-1" d="M6,66.7c0-.37.1-.9-.29-1,0,.28-.44.27-.85.25.24.69-.39.64-.27,1.22C5.47,67.38,5.14,66.53,6,66.7Z"/><path class="cls-1" d="M24,89.82a4.6,4.6,0,0,0-2.55.52A4.78,4.78,0,0,0,24,89.82Z"/><path class="cls-1" d="M42.39,87.92c-.09-.58-.57.45-.85.49,3.62.21,7-.4,10.49.16C48.82,87.34,45.21,88.52,42.39,87.92Z"/><path class="cls-1" d="M19.43,88.66a9.59,9.59,0,0,0-3.4.53A7.72,7.72,0,0,0,19.43,88.66Z"/><path class="cls-1" d="M54,88.31c1.14.11,3.92.73,4.54-.27C57,87.41,54.28,88.35,54,88.31Z"/><path class="cls-1" d="M33.88,84.84c.76-.16,2.25.28,2.55-.28C36.21,84.25,33.39,84.61,33.88,84.84Z"/><path class="cls-1" d="M44.08,85.47c.43-.94-3.17-.44-2.27-.22C42.63,85.27,43.67,85.1,44.08,85.47Z"/><path class="cls-1" d="M60.53,88.51c.89,0,2.08-.18,2.55.23C62.92,87.77,61.05,88,60.53,88.51Z"/><path class="cls-1" d="M20,83.3c1.15.26,6.12-.09,3.68-.3C22.65,83.13,19.6,82.8,20,83.3Z"/><path class="cls-1" d="M30.47,82.93c-4.14-.24-3.54.78,0,0Z"/></g></g></svg>