<svg xmlns="http://www.w3.org/2000/svg" viewBox="0 0 218.7 87.36"><defs><style>.cls-1{fill:#f8f8f8;}</style></defs><title>grey-background-texture</title><g id="Ebene_2" data-name="Ebene 2"><g id="Ebene_1-2" data-name="Ebene 1"><path class="cls-1" d="M141.29,0H143c.32.29.64.56.94.85,1.52,1.45,2.74,2.88,1.46,4.71s-2.11,3.58-3.14,5.38q-1.77,3.08-3.52,6.17l.66.33a11.57,11.57,0,0,0,2.28-1.21c2.5-2.34,4.77-4.77,7.34-7.08,2.24-2,7.9-2.25,9.64-.42,1.24,1.3,2,2.67.94,4.27s-2,3.51-3,5.27c-.51.9-1,1.81-1.58,2.84,2.11-1.19,4-2.28,5.91-3.31,1.27-.68,2.74-1.23,4-1.93,3.41-1.91,8.32-1.28,10,1.32.27.41.57.81.92,1.3a12.78,12.78,0,0,1,8.7-1.76c3.6.51,3.55,2.92,4.71,4.74,2-1.64,3.71-3.22,5.69-4.68,2.8-2.07,8.85-2,10.6,0,1.4,1.64,1.87,3.33.68,5.13s-2.09,3.48-3,5.1A45.68,45.68,0,0,1,209,24.63c3.5-1,6.57-.4,8,1.36a29.12,29.12,0,0,1,1.73,2.69v.53a10.7,10.7,0,0,1-.79,2.15c-4.89,8-9.58,16-14.81,23.83-4.26,6.41-9.18,12.65-13.81,19A3.88,3.88,0,0,1,185.81,76a2,2,0,0,0-1.12.33c-1.16,1.21-3.19,1.3-5.07,1.52-2.69.32-3,.14-3.16-1.53a1.88,1.88,0,0,0-.35-1c-1.06-1.31-.59-2.57.19-3.83.56-.91,1.08-1.83,1.62-2.74a19.59,19.59,0,0,1-6,3.24,29.37,29.37,0,0,1-6.28,1.46c-2,.17-2.44-.4-2.59-1.49a30.07,30.07,0,0,0-1.09-4l-4.22,1.33a20,20,0,0,1-3.54,1.12c-5.14.66-4.27.29-4.77-1.84l-5.85.39-1.18,1.19a6.2,6.2,0,0,1-4.25,2.34c-1.85.23-3.42,1.27-5.28,1.56-3.3.51-3.41.36-3.72-1.76a3.86,3.86,0,0,0-.35-.7c-2.9,2.54-4.9,5.22-9.62,6.56A27.68,27.68,0,0,1,112,79.41a2.52,2.52,0,0,1-1.5-.76,3.41,3.41,0,0,1-.62-1.17c-2.07-.27-4.57,1.22-5.82-.69l-4.93.41c-1.22.1-1.63-.27-1.77-1-.33-1.76-.81-3.51-1.22-5.24-.7,1.13-1.43,2.37-2.26,3.57a5.42,5.42,0,0,1-3.13,2c-2.12.68-4.92,1.15-5.87,2.83C83.47,81.8,80.11,83,76.7,84.07c-3.88,1.22-8,2.21-12,3.29H63a9.85,9.85,0,0,1-1.54-8.84c.51-1.85,1.17-3.68,1.78-5.61-.74.16-1.28.31-1.83.4s-1.28.14-1.93.21c-2.72.27-2.86.2-3.3-1.53-.15-.56-.37-1.12-.48-1.47-2.58,1-4.83,2.33-7.46,2.73s-4.38,1.85-7,2.25c-1.54.23-2.86,1-4.4,1.25-3.13.51-3.49.3-4-1.6-5.28,1.07-5.61,1-7-.77l-4.5.52c-1.38.16-2-.24-2.21-1-.36-1.38-.77-2.75-1.21-4.28-.76.22-1.43.43-2.12.61-1.82.46-3.6,1-5.47,1.33-1.51.29-2.21-.26-2.44-1.17-.3-1.21-.72-2.41-1.1-3.61-4.56.58-4.89.62-5.7-1.9S.32,60,0,57.53a.65.65,0,0,1,0-.13,46.16,46.16,0,0,1,1.25-5.26c1.64-4.66,1.08-9.65,5.61-13.87,1.08-1,1.85-2.18,4-2.45a2.06,2.06,0,0,0,1.9-1.19c2.92-5.43,5.71-10.89,9-16.24,1.83-3,4.53-5.73,6.89-8.57,1.43-1.71,7.75-2.23,8.95-.53a8,8,0,0,1,1.73,3.91c.06,1.66-.66,3.33-1.08,5-.32,1.29-.71,2.56-1.1,3.92a17.66,17.66,0,0,1,3.33.05,10.23,10.23,0,0,1,2.44,1.2c.5-.61,1-1.15,1.41-1.71,2.32-3.06,4.59-6.13,6.94-9.18,1.74-2.26,4.12-4,8.76-3.59a33.35,33.35,0,0,0,3.88.52c2.11-.07,3.25.52,3.95,1.61.57.89,1.05,1.8,1.57,2.7,4-.68,6-.32,7.26,1.18,1.47,1.69,1.29,3.37.23,5.11,4.33-2.79,8.12-2.92,11.58-.35.93-1.41,1.75-2.83,2.78-4.18,2.76-3.61,5.48-7.23,8.49-10.76,1.48-1.72,7-2,8.68-.58C110,5.41,111,6.87,110.19,8.51c-1.15,2.38-2.38,4.74-3.57,7.11-.23.46-.42.93-.63,1.39a23.21,23.21,0,0,0,3.18-2.91c1-1,2-1.95,3.09-2.9,2.8-2.44,8.29-2.31,11,.53,1.16-.87,2.33-1.61,3.24-2.45,1.78-1.67,3.47-3.39,5.11-5.12A11.8,11.8,0,0,1,141.29,0Z"/></g></g></svg>