<svg xmlns="http://www.w3.org/2000/svg" viewBox="0 0 573.65 215.57"><defs><style>.cls-1{opacity:0.03;}</style></defs><title>ideen-handwritting_1</title><g id="Ebene_2" data-name="Ebene 2"><g id="Ebene_1-2" data-name="Ebene 1"><path class="cls-1" d="M570.55,28.26q-2.32-5.25-5-10.94a11.26,11.26,0,0,1-5.81-3.4,60.87,60.87,0,0,1-4.45-5.54A42.66,42.66,0,0,0,550.71,3a10.63,10.63,0,0,0-5.91-3,48,48,0,0,0-2.42,9q-.87,5-1.74,9.8t-2.13,9.37a25.84,25.84,0,0,1-3.39,7.67q-1.74,16.47-3.38,32.37A277.65,277.65,0,0,1,527.09,98,125.66,125.66,0,0,1,519,123.26a51.85,51.85,0,0,1-13.45,18.46,129.5,129.5,0,0,1-1.55-17c-.13-5.49-.13-10.83,0-16.05s.25-10.31.38-15.33A144.81,144.81,0,0,0,504,78.39c.51.19.87.14,1.06-.14a4,4,0,0,0,.49-1,3.8,3.8,0,0,1,.48-1,1.18,1.18,0,0,1,1.06-.43,14.43,14.43,0,0,1-.29-5.82A23.75,23.75,0,0,1,508,66a18.67,18.67,0,0,0,1.16-4.11,16.2,16.2,0,0,0-.58-6.25c.65.38,1.1.33,1.36-.15a1,1,0,0,1,1.35-.42,7.85,7.85,0,0,1-1-3.13,7.16,7.16,0,0,1,.19-1.84,3.6,3.6,0,0,0,.1-1.42,8.53,8.53,0,0,0-1.07-2.42c.26-.75.58-.94,1-.56s.71,0,1-1.14a50,50,0,0,0-11.23-27,55.42,55.42,0,0,0-9.39-8.95A78.87,78.87,0,0,0,480.34,2q-6,19.32-12.49,39.33t-13,39.77Q448.4,100.83,442,120t-12,36.78a15.17,15.17,0,0,1,1.84,5.82,39.46,39.46,0,0,0,.77,4,8,8,0,0,0-.44-.74,3.08,3.08,0,0,1-3.48-1.13,25.51,25.51,0,0,1-2.62-4.12q-1.26-2.42-2.61-4.83a7.29,7.29,0,0,0-3.29-3.27,50.9,50.9,0,0,1-11.71,3.84A29.08,29.08,0,0,0,397.33,161a59.37,59.37,0,0,0-12.1.57q-4.94.85-9.59,1.71a76,76,0,0,1-9.87,1.13A51.36,51.36,0,0,1,352.61,163,156.52,156.52,0,0,1,358,145.84q3.09-8.1,6.58-15.48a13.32,13.32,0,0,0,6.29,1.42,13.44,13.44,0,0,1,6.29,1.42,7.54,7.54,0,0,1,5.33-1,6.88,6.88,0,0,0,5.13-1c.64.76,1.19,1.14,1.64,1.14h1.65a22.31,22.31,0,0,0,10.06-1.7,38.1,38.1,0,0,0,8.62-5.12,76,76,0,0,0,7.65-7q3.68-3.84,7.55-7.53a16.62,16.62,0,0,0,.58-6.53,29.81,29.81,0,0,0-1.36-6A4.89,4.89,0,0,1,420,97.27a20.78,20.78,0,0,1-3.39-4c-1.1-1.61-2.16-3.27-3.2-5a20.79,20.79,0,0,0-3.29-4.26,3.7,3.7,0,0,1,.39-2,3,3,0,0,0,.19-2q-9.48.57-19.36,1.85a67.61,67.61,0,0,1-18,.14,19.22,19.22,0,0,1-.48-5.4,19.21,19.21,0,0,0-.87-6.24c1.41-.57,2.8-1.14,4.16-1.71a8.9,8.9,0,0,0,3.58-2.84,7,7,0,0,0,4,0c1.09-.38,2.09-.75,3-1.13a9.66,9.66,0,0,1,2.61-.72,4.83,4.83,0,0,1,2.81.72,38.08,38.08,0,0,1,10.26-6.82,66.18,66.18,0,0,1,10.36-3.55q5.13-1.28,10.06-2.42a40.52,40.52,0,0,0,9.39-3.4A30.62,30.62,0,0,0,440.59,42a38.65,38.65,0,0,0,7.07-11.92,22.49,22.49,0,0,1-.39-3.55,11.94,11.94,0,0,1,.2-2.28c.12-.66.22-1.37.29-2.13a26.68,26.68,0,0,0-.1-3.69,44,44,0,0,1-8.13-6.67,29.48,29.48,0,0,1-6-9.8c.12,1,.06,1.56-.2,1.84a.63.63,0,0,1-.87.15,9.68,9.68,0,0,0-1.16-.57,3,3,0,0,0-1.06-.29,10.1,10.1,0,0,0,.09,1.28,10.86,10.86,0,0,1,.1,1.56q-1.55,0-2.13-2H427c-.32,0-.55-.29-.68-.86Q416.49,5.69,408.94,7T394.42,9.8q-7,1.56-14.32,4a163,163,0,0,0-16.65,6.68q-5.24,1.71-9.88,3A41.21,41.21,0,0,0,345,26.84a31,31,0,0,0-7.26,5.4,27.8,27.8,0,0,0-5.61,8.37,88.87,88.87,0,0,1,1.55,11.22q.38,5.54,1.16,10.94A83.9,83.9,0,0,0,337,73.42a30.38,30.38,0,0,0,4.75,9.8A122.55,122.55,0,0,1,338.38,95q-1.85,5.27-3.58,10.37t-3.29,10.51q-1.56,5.4-2.91,11.64c-1-.38-1.64,0-1.84,1a2,2,0,0,1-1.45,1.84,12,12,0,0,1-.1,4.55,25.73,25.73,0,0,1-1.35,4.4q-.87,2.13-1.74,4.4a22.68,22.68,0,0,0-1.26,4.83,62.24,62.24,0,0,0-.29,10.65q.29,5.82,1,11.64c.21,1.89.43,3.74.65,5.58a1.65,1.65,0,0,1-1.68-.75,7.92,7.92,0,0,1-.87-2.7c-.2-1.13-.39-2.36-.58-3.69a8.23,8.23,0,0,0-1.26-3.41,3.1,3.1,0,0,1-3.49-1.13,26.21,26.21,0,0,1-2.61-4.12q-1.26-2.42-2.61-4.83a7.38,7.38,0,0,0-3.29-3.27,51,51,0,0,1-11.72,3.84A29.21,29.21,0,0,0,283,161a59.45,59.45,0,0,0-12.1.57q-4.94.85-9.58,1.71a76.42,76.42,0,0,1-9.87,1.13A51.39,51.39,0,0,1,238.23,163a158.7,158.7,0,0,1,5.42-17.18q3.1-8.1,6.59-15.48a13.29,13.29,0,0,0,6.29,1.42,13.47,13.47,0,0,1,6.29,1.42,7.51,7.51,0,0,1,5.32-1,6.87,6.87,0,0,0,5.13-1q1,1.14,1.65,1.14h1.64a22.35,22.35,0,0,0,10.07-1.7,38.1,38.1,0,0,0,8.62-5.12,74.85,74.85,0,0,0,7.64-7q3.67-3.84,7.55-7.53a16.25,16.25,0,0,0,.58-6.53,30.51,30.51,0,0,0-1.35-6,4.91,4.91,0,0,1-4.07-1.28,21.12,21.12,0,0,1-3.38-4q-1.65-2.42-3.2-5a21.14,21.14,0,0,0-3.29-4.26,3.7,3.7,0,0,1,.39-2,3,3,0,0,0,.19-2q-9.49.57-19.36,1.85a67.61,67.61,0,0,1-18,.14,19.56,19.56,0,0,1-.49-5.4,18.69,18.69,0,0,0-.87-6.24c1.42-.57,2.81-1.14,4.16-1.71a8.93,8.93,0,0,0,3.59-2.84,7,7,0,0,0,4,0c1.09-.38,2.09-.75,3-1.13a9.66,9.66,0,0,1,2.61-.72,4.83,4.83,0,0,1,2.81.72A38.08,38.08,0,0,1,288,57.94a66.07,66.07,0,0,1,10.35-3.55q5.13-1.28,10.07-2.42a40.52,40.52,0,0,0,9.39-3.4A30.77,30.77,0,0,0,326.22,42a38.84,38.84,0,0,0,7.07-11.92,22.49,22.49,0,0,1-.39-3.55,12,12,0,0,1,.19-2.28,18.59,18.59,0,0,0,.29-2.13,26.26,26.26,0,0,0-.09-3.69,44.43,44.43,0,0,1-8.14-6.67,29.48,29.48,0,0,1-6-9.8c.13,1,.07,1.56-.19,1.84a.63.63,0,0,1-.87.15,9.68,9.68,0,0,0-1.16-.57,3,3,0,0,0-1.07-.29A8.64,8.64,0,0,0,316,4.4a12.53,12.53,0,0,1,.1,1.56q-1.56,0-2.13-2h-1.26c-.32,0-.55-.29-.68-.86Q302.12,5.69,294.57,7T280.05,9.8q-7,1.56-14.33,4a164.83,164.83,0,0,0-16.65,6.68q-5.22,1.71-9.87,3a41,41,0,0,0-8.61,3.41,31,31,0,0,0-7.26,5.4,27.82,27.82,0,0,0-5.62,8.37,85.37,85.37,0,0,1,1.55,11.22q.39,5.54,1.16,10.94a85.7,85.7,0,0,0,2.23,10.65,30.56,30.56,0,0,0,4.74,9.8A117.05,117.05,0,0,1,224,95q-1.83,5.27-3.58,10.37t-3.29,10.51q-1.55,5.4-2.9,11.64c-1-.38-1.65,0-1.84,1a2.91,2.91,0,0,1-.45,1.13v-3.83a15.21,15.21,0,0,1,.2-2.56c.12-.75.25-1.51.38-2.27s.32-1.71.58-2.84q-.76-18.18-5.61-31.53a101.55,101.55,0,0,0-12.1-23.71,136.69,136.69,0,0,0-16.07-19q-8.81-8.66-17.13-17.47a69.1,69.1,0,0,1-11-5.25q-5.62-3.27-11.43-6.82T127.92,7.1A113.15,113.15,0,0,0,115.73.57c-.31.79-.58,1.62-.83,2.46a49.06,49.06,0,0,0-8.52-.76,18.18,18.18,0,0,1-8-1.7Q89.06,1.42,78.11,2t-21,1.13a11.2,11.2,0,0,1-5.61,3q-3.3.7-6.88,1.13t-7.26.85a25.16,25.16,0,0,0-7,1.85,9.51,9.51,0,0,1-.19,5q-.78,3.27-2.32,3.84c1.29,1.51,2.06,3.93,2.32,7.24a21.55,21.55,0,0,1-.39,7.52c.9,2.66,1.68,5.21,2.33,7.67a36,36,0,0,0,2.32,6.53A15,15,0,0,0,38,52.54a9.89,9.89,0,0,0,6.1,2.27,26.51,26.51,0,0,1,6.39-3,114.3,114.3,0,0,1,11.81-3.26,156.27,156.27,0,0,1-2.81,20Q57.68,77,55.37,86.91a66.36,66.36,0,0,1-1.75,11.78q-1.35,5.55-3.09,11.08T47,121.42a102.7,102.7,0,0,0-3,13.2q-2.33,7.4-4.84,15.48T33.68,167a38.12,38.12,0,0,0-7.55.71q-3.48.71-7,1.56T12,171a51.69,51.69,0,0,1-8.32,1.13,42.16,42.16,0,0,0-2.52,3.55A11.32,11.32,0,0,0,0,181.48Q.78,186,1.45,191c.46,3.31,1,6.49,1.74,9.51A57,57,0,0,0,5.9,209a18.61,18.61,0,0,0,4.36,6.54A46.73,46.73,0,0,0,24,212.87q6.76-2.42,13.26-4.55A57.46,57.46,0,0,1,50,205.63a23.43,23.43,0,0,1,12.3,2.27,2.08,2.08,0,0,0,.38-1.85q-.19-1.28.78-1.56,4.65-.57,10.06-1.42a31.13,31.13,0,0,1,11,.28,32.36,32.36,0,0,1,2.9-4.12c1-1.22,2.13-1.65,3.29-1.27.91-1.71,1.84-3.7,2.81-6a27.38,27.38,0,0,0,1.94-6.67,12.84,12.84,0,0,0-.49-6.11q-1-2.84-4.64-4.26a5.72,5.72,0,0,0-1.26-4.12,12.33,12.33,0,0,0-2.81-2.13,17.9,17.9,0,0,1-2.9-2q-1.36-1.14-1.74-4.27H68.53q1.55-4.81,2.61-8.66T73.27,146q1.07-4,2.33-8.52c.84-3,1.9-6.72,3.19-11.07q-.2-2.83,1.65-12.36t4.35-21.58q2.52-12.08,4.94-24.71t3.39-22q5.8-.28,11.9-.71c2.06-.15,4.07-.36,6-.65a5.67,5.67,0,0,1-.17,1.78,28.3,28.3,0,0,0-.58,4.69,273.27,273.27,0,0,1,3.87,31.52,204.08,204.08,0,0,1-.39,33.23,8.79,8.79,0,0,0-2.32,3.41,129.48,129.48,0,0,1-2.32,17.61q-1.75,8.52-3.88,17.61a14.86,14.86,0,0,1-1.06,7.1,26.21,26.21,0,0,0-2,6.25q.57,8.24,1.06,15.9a88.35,88.35,0,0,0,1.94,14.06,34.71,34.71,0,0,0,4.45,11.08,16.38,16.38,0,0,0,8.62,6.67q13-8.79,26.61-16.61a261.9,261.9,0,0,0,26.24-17.19,148.48,148.48,0,0,0,23.23-21.58,99.81,99.81,0,0,0,16.76-28,12.41,12.41,0,0,1-.25,3,24.9,24.9,0,0,1-1.36,4.4q-.87,2.13-1.74,4.4a23.29,23.29,0,0,0-1.26,4.83,64.35,64.35,0,0,0-.29,10.65q.3,5.82,1,11.64t1.36,11.36c.45,3.7.8,7,1.06,9.8a8.73,8.73,0,0,1,3.2,5.11,15.13,15.13,0,0,0,2.22,5.4,24.35,24.35,0,0,0,11.62,9.09,47.1,47.1,0,0,0,14.52,2.84,66.31,66.31,0,0,0,15-1.14q7.46-1.42,12.87-2.84a6.75,6.75,0,0,1,3,.71,5,5,0,0,0,3.59.15q8.7-2.28,15.77-3.84a45.17,45.17,0,0,0,12.78-4.83,34.31,34.31,0,0,0,10.26-9.23c2.9-3.79,5.53-9.16,7.89-16.07.2,1.63.39,3.26.59,4.85.45,3.7.8,7,1.07,9.8a8.72,8.72,0,0,1,3.19,5.11,15,15,0,0,0,2.23,5.4A24.32,24.32,0,0,0,341,211.59a47.22,47.22,0,0,0,14.52,2.84,66.31,66.31,0,0,0,15-1.14q7.46-1.42,12.88-2.84a6.81,6.81,0,0,1,3,.71,5,5,0,0,0,3.58.15q8.71-2.28,15.78-3.84a45,45,0,0,0,12.77-4.83,34.31,34.31,0,0,0,10.26-9.23A48.94,48.94,0,0,0,435,182c1.06,4.09,2.27,8.09,3.67,12a70.12,70.12,0,0,0,5.23,11.5,16.38,16.38,0,0,0,7.45,7.24,7.27,7.27,0,0,0,2.9-1.7c.78-.75,2.07-.94,3.88-.57-.27-1.51-.56-2.36-.88-2.55s-.22-.76.29-1.71c2.45.19,4.17-.52,5.13-2.13a16.58,16.58,0,0,0,2-5.82c.38-2.27.71-4.59,1-7a10.46,10.46,0,0,1,2.32-5.82,11.74,11.74,0,0,1-.49-5.68,20.75,20.75,0,0,1,1.46-4.69q1-2.13,2-4.26a15.7,15.7,0,0,0,1.45-4.68c1,0,1.81-.85,2.32-2.56s1-3.59,1.55-5.68,1.1-4.07,1.75-6a5.71,5.71,0,0,1,2.9-3.69,123.88,123.88,0,0,0,12,31.52,124.57,124.57,0,0,0,17,23.57q6.39,3.42,10.35,2.42a14.36,14.36,0,0,0,7-4.12,52,52,0,0,0,5.52-6.82,22.63,22.63,0,0,1,5.81-6c-.65-2.27-.68-3.64-.1-4.12s.81-1.56.68-3.27c1,.2,1.61.53,1.74,1s.52.33,1.16-.43q2.32-6.24,4.46-12.49a31.34,31.34,0,0,1,5.8-10.51,150,150,0,0,1,3.1-16.05q2.13-8.66,3.87-16.9a139.37,139.37,0,0,1,.58-16.76q.78-7.66,1.75-14.76t2.13-14.49q1.15-7.38,1.74-15.9a13.51,13.51,0,0,0,3.29-4.83,35,35,0,0,0,1.84-6.25q.68-3.4,1.26-6.82a29.34,29.34,0,0,1,1.74-6.24A41,41,0,0,0,570.55,28.26ZM183.87,115a52.08,52.08,0,0,1-7.35,9.08,55.78,55.78,0,0,1-8.91,7.1q-4.85,3.14-9.68,6a20.79,20.79,0,0,1-2.22,2.7,9.08,9.08,0,0,0-2,3.55,14.21,14.21,0,0,0-5.13,1.42,36.62,36.62,0,0,0-4.26,2.55c-1.35.95-2.68,1.8-4,2.56a11.11,11.11,0,0,1-4.45,1.42q1.74-13.92,2.71-25.85t.87-23.29q-.09-11.35-1.25-22.72T134.7,55.38a2.84,2.84,0,0,1,2.52-1.13,13.58,13.58,0,0,0,6.19,4.4,36.32,36.32,0,0,1,9.1,5.54,11.4,11.4,0,0,1,5.71,2,56.75,56.75,0,0,1,4.55,3.55c1.42,1.23,2.91,2.46,4.45,3.69a12.1,12.1,0,0,0,5.42,2.41,28.85,28.85,0,0,0,3.59,7.53q2.22,3.27,4.64,6.25t4.65,6a28.13,28.13,0,0,1,3.77,7.24A47.68,47.68,0,0,1,183.87,115Z"/></g></g></svg>