<svg xmlns="http://www.w3.org/2000/svg" width="100.05" height="397.65" viewBox="0 0 100.05 397.65">
  <path id="Pfad_145" data-name="Pfad 145" d="M-198.825-100.05V0h25.95V-100.05ZM-115.575,0c17.1,0,30.45-7.2,38.4-15.15,9.75-9.75,13.05-21.45,13.05-34.65,0-10.8-2.25-25.2-13.95-36.45-12.9-12.45-29.7-13.8-39.75-13.8h-34.05V0Zm-10.35-78h6.3c6.45,0,14.55.6,20.7,6.3,4.95,4.65,7.8,12.6,7.8,21.9,0,11.1-4.35,17.4-7.65,20.55-6.75,6.6-15.6,7.2-21.9,7.2h-5.25ZM9.225-100.05h-56.85V0H9.225V-22.05h-30.9V-39.3H7.575V-61.35h-29.25V-78h30.9Zm73.35,0H25.725V0h56.85V-22.05h-30.9V-39.3h29.25V-61.35H51.675V-78h30.9ZM125.025,0V-61.2L172.875,0h25.95V-100.05h-25.95v61.2l-47.85-61.2H99.075V0Z" transform="translate(100.05 198.825) rotate(-90)" fill="#f8f8f8"/>
</svg>
