<svg xmlns="http://www.w3.org/2000/svg" viewBox="0 0 43.08 83.13"><defs><style>.cls-1{opacity:0.03;}</style></defs><title>ideen-handwritten-90deg_1</title><g id="Ebene_2" data-name="Ebene 2"><g id="Ebene_1-2" data-name="Ebene 1"><g class="cls-1"><path d="M.2,1A1.93,1.93,0,0,0,1.56,3.69a31.16,31.16,0,0,0,3.8,1.1c4.38,1,8.75,2,13.16,2.72,2.9.49,5.86.54,8.87.79-.61.53-1.17,1-1.75,1.52a53.29,53.29,0,0,1-12.26,7c-.69.31-1.08.73-1,1.46s.67,1,1.42,1.14a11.07,11.07,0,0,0,5.62-.92,3.17,3.17,0,0,1,1.88,0c1.78.59,3.52,1.3,5.29,1.94.06.19.13.39.2.57a44.28,44.28,0,0,0,4.92,9.52,8.83,8.83,0,0,1,.44.81c-1-.21-1.76-.42-2.56-.54a1.5,1.5,0,0,1-1.27-1.05c-.86-2-1.84-4-2.72-6a1.82,1.82,0,0,0-2.12-1c-.93.09-1.23.87-1.26,1.61a4.63,4.63,0,0,0,.4,1.92c.46,1.14,1,2.23,1.62,3.52-2.38-.45-4.62-.85-6.85-1.31-.25-.05-.52-.38-.67-.64-1.65-2.87-3.26-5.77-4.92-8.63a2,2,0,0,0-1.09-.95,2.47,2.47,0,0,0-1.83.34,2.06,2.06,0,0,0-.44,2.48l3.72,7a29,29,0,0,0,1.63,3c.7,1,1.62,1.82,2.38,2.78A3.27,3.27,0,0,0,19,35.31l.45-2.44c2.22.42,4.45.81,6.67,1.26.34.07.63.44.95.68l2.12,1.55a10.53,10.53,0,0,0,2.11,4c1.05,1.34,2.17,2.63,3.41,4.13-2-.44-3.73-.86-5.5-1.22a3,3,0,0,1-2-1.32c-1.34-1.87-2.74-3.69-4.09-5.54a1.22,1.22,0,0,0-1.36-.6,1.09,1.09,0,0,0-1,1.13,5.18,5.18,0,0,0,.26,1.85c.42,1,1,2,1.5,3a26.73,26.73,0,0,0-3.77-.55,4,4,0,0,1-3.4-2.06c-1.34-2-2.68-4-4-6.07-.3-.47-.32-1.13-1.13-1.06s-1.49.26-1.52,1.23a4.44,4.44,0,0,0,.13,1.94,24.91,24.91,0,0,0,2.51,4.27A60.69,60.69,0,0,0,16.28,45c.45.45,1.39.45,2.12.54a5.76,5.76,0,0,0,.38-1.17.8.8,0,0,1,.14-.18,2.15,2.15,0,0,1,.44,0l1.57.33a13.36,13.36,0,0,0-1.51,1c-3,2.26-4,5.61-4.75,9a21.15,21.15,0,0,0-.45,4.66l-.78-2.09c.25-.48.65-.88.58-1.16a6.11,6.11,0,0,0-.9-2.22,1.7,1.7,0,0,0-1.45-.48,1.53,1.53,0,0,0-.89,1.12,15.43,15.43,0,0,0,0,4.84,87.32,87.32,0,0,0,3.1,9.56c1.82,4.75,3.16,9.72,5.86,14.12l.64.21c1.69-.13,2-.49,1.59-2.24s-1-3.58-1.62-5.35c-.51-1.53-1.1-3-1.68-4.65,2.41.49,4.63,1,6.86,1.38,3.59.64,7.19,1.21,10.77,1.84a1.43,1.43,0,0,1,.94.53c1,2,1.91,4,2.85,6,.18.37.29.88.59,1a4.5,4.5,0,0,0,1.87.62c.17,0,.62-.84.57-1.24a18.71,18.71,0,0,0-1-4.55c-1.52-3.65-3.25-7.22-4.92-10.82a5.12,5.12,0,0,0-.68-1.15.89.89,0,0,0-1.6.2,5.81,5.81,0,0,0-.33,2.18,31.7,31.7,0,0,0,.55,3.41C30,69.57,24.89,68.24,19.62,68a1.64,1.64,0,0,0-.41-.48,2.26,2.26,0,0,1-.56-1,19.53,19.53,0,0,1,.32-15,17.28,17.28,0,0,1,1.6-3A4.24,4.24,0,0,1,26,46.8a12.32,12.32,0,0,1,5.21,3.66C34.43,54.06,37,58,37.42,63a2.7,2.7,0,0,0,0,.28,1.76,1.76,0,0,0,1.94,1.26c.88,0,.9-.69,1-1.15A15.21,15.21,0,0,0,40.42,60a17,17,0,0,0-3.51-8.3,27.37,27.37,0,0,0-3.72-4.24c.26,0,.51.11.77.15,1.76.27,3.56.72,5.32,0l.27-.92a6.08,6.08,0,0,0-2-3.64A69.61,69.61,0,0,1,33,37.78c-.7-.84-1.29-1.76-1.92-2.66l.49.12a27.5,27.5,0,0,0,3.83.72c1.21.15,1.84-.25,2-1.44a4.35,4.35,0,0,0-.69-3.69,26.87,26.87,0,0,1-3.21-4.28c-.83-1.53-1.59-3.09-2.34-4.66l4.29,1.23a1,1,0,0,0,.88-.34,3,3,0,0,0-1.63-3.92c-3.12-1.12-6.26-2.2-9.41-3.3A4.71,4.71,0,0,0,26,15c2.18-2,4.38-3.94,6.51-6,1.22-1.15.82-2.69.17-3.88-.35-.62-1.68-1-2.6-1.09-3.91-.4-7.87-.43-11.75-1C14.05,2.43,9.86,1.27,5.62.41a19.07,19.07,0,0,0-4-.41A2,2,0,0,0,.2,1Z"/><path d="M29.11,58.11c-1.5-.06-3,0-4.5,0s-2,.69-1.56,2c.24.65,1.06,1.11,1.52,1.56,1.66.21,3,.41,4.37.54,1.17.11,1.63-.51,1.69-1.57C30.73,58.94,30.34,58.16,29.11,58.11Z"/></g></g></g></svg>