<svg xmlns="http://www.w3.org/2000/svg" viewBox="0 0 410.33 588.95"><defs><style>.cls-1{fill:#1d1d1b;}</style></defs><title>Element 2</title><g id="Ebene_2" data-name="Ebene 2"><g id="final_Kopie_Kopie" data-name="final Kopie Kopie"><path class="cls-1" d="M202.74,59.71c-11.45,18-23.11,23.94-40.25,27.71C150,90.17,120.74,89.1,100.81,96c-14.6,5-21.58,10.42-27,16.11-8.07,8.49-16.47,20.4-27,38.27-11.06,18.73-17,25.35-17.49,25.92a.12.12,0,0,0,0,.1A41.8,41.8,0,0,0,34.6,190c3.87,6.22,11.5,6.67,12.91,6.7a.39.39,0,0,0,.36-.18l22.7-31.59a.18.18,0,0,0-.12-.29c-14.2-3.65-15.6-16.54-15.6-19.84s3.08-8.06,18-14.93,52.68-8.11,71.34-14.22c13-4.27,28.23-17.29,40.06-26.31,16.43-12.53,28.2-32.35,34.12-47.28s3.92-26.61,1.09-38a.18.18,0,0,0-.09-.13L212.47,0a.19.19,0,0,0-.27.24C222.7,25.56,209.1,49.75,202.74,59.71Z"/><path class="cls-1" d="M27,237.89a.17.17,0,0,0,.17,0l1.9-1.28a.14.14,0,0,0,0-.21c-1.34-1.49-14.74-17.14-12.93-43.49,1.89-27.73,16.82-50,25.83-65.41S66.23,95.74,80.68,89.81c13.14-5.38,28.64-1.69,61.63-8.77,21-4.5,34.12-11.19,41.71-19.9h0l24.82-31.84a.24.24,0,0,0-.2-.39h-3a.41.41,0,0,0-.29.13c-10.54,11.78-25.95,19.08-56.41,22.15s-36.19,2.43-52.14,8.53c-19.16,7.34-41.39,41.35-41.48,41.48h0c-.12.16-42,55.4-42,94.09C13.34,226.41,26,237,27,237.89Z"/><path class="cls-1" d="M292.08,477.79l-36.5,30c3,.21,5.92.37,8.71.47L301,478.1C298.08,478.05,295.1,478,292.08,477.79Z"/><path class="cls-1" d="M410.12,416.45c-33.33-2.68-60.55-22.6-68.45-47l-33.54,22.68c-5.72,5.95-15,29.32-13.79,47.33.59,8.89,4.48,16.61,11.57,23a.23.23,0,0,0,.39-.17,23.83,23.83,0,0,0-.23-3.79c-4.26-5.13-7.68-9.27-8.2-19.17-.79-15,5.42-31.57,10.69-38.53a.25.25,0,0,1,.43.1c6.58,24.68,36.36,45.15,61.74,44.27a.49.49,0,0,1,.4.79c-14.33,18.27-29.72,27.4-42.77,30.18a95.13,95.13,0,0,1-13.52,1.68l-37,30.46a121.24,121.24,0,0,0,36.79-7.49c24.65-8.77,39.3-25.85,46.22-32.71,5.09-5.05,45-46.68,49.44-51.27A.21.21,0,0,0,410.12,416.45Z"/><path class="cls-1" d="M279.6,476.89c-16.76-1.55-33.31-4.4-44.48-7.6l-.19-.24V418.91l.17-.24c2.19-.84,4.55-1.7,4.26-2.09a3,3,0,0,1-.43-2.27,4.06,4.06,0,0,1,2.18-2.27,3.63,3.63,0,0,0,1.57-2.79c.09-1-1.13-.94-.52-2.37.77-1.8,3.32-1.4,5.46-1.66s1.27-1.66,1.27-1.66-2.49-.66-.7-2.71c1.44-1.65,5.68-1.3,7.31-1.1a.25.25,0,0,0,.22-.41,10,10,0,0,0-3.82-3c-2.62-1.16-4.09-1.39-3.1-3.15,1.17-2.06,3.89.74,6.91,1.4a9.56,9.56,0,0,0,5.76-.74l-.17-1.49s-2-.27-1.09-2.4c.52-1.27,1.6-1.75,5.55-.92,2.87.6,4.39.07,5-.25a.22.22,0,0,0,0-.37,2.57,2.57,0,0,1-.92-2.5c.82-3.85,5-.69,8.79-.72a17.68,17.68,0,0,0,7.33-1.75.23.23,0,0,0-.09-.43c-38.5-4.26-42-32.86-42.33-37.75a.25.25,0,0,0-.46-.13l-7.7,10.3a.26.26,0,0,1-.47-.16V138.49a.26.26,0,0,1,.48-.14,100.5,100.5,0,0,0,8.39,11.25c10.3,12.39,10.88,31.1,10.92,38.21.05,8.89-2.56,17.72-5.76,23.23s-4.44,13.39-4.62,16.42,1.42,3.2,1.42,2.13,3-6.58,5.33-10.13,2.31-3.2,4.62-13.34.91-9,3.38-32c2.85-26.49-1.95-45.68-1.95-45.68-1.43-6.76-3.3-9.16-13.35-25.78-4.52-7.45-8.15-21.25-8.83-28-.1-1,0-3.74,0-3.74a.23.23,0,0,0-.23-.24h-3.23a.26.26,0,0,0-.26.26V361l-.05.15-21.35,28.56,0,.22c5.84,24.26,17.3,30,21.07,30.31a.39.39,0,0,1,.37.38v47.25a.24.24,0,0,1-.31.23c-21.66-6.52-47.71-16.46-74-22.86-6.68-1.63-30.93-5.72-48.44-4.06a.26.26,0,0,1-.18-.47c46.89-32.84,90.92-73.71,81.68-128.59-10.46-62.19-23.78-77.71-29.62-112.54-8.77-52.26,37.64-95.81,40.53-98.36,1.92-1.7,15.64-7.14,16.91-7.64L217,91.73a0,0,0,0,0,0,0L111,135.55h0c-39.56,22.52-47.36,66.81-46.2,89.82,1,20.38,7.38,39,14.41,56.89,0,0,0,0,0,0L117.1,261a0,0,0,0,0,0,0c-7.5-24.61-14.19-46.79-13.91-60.72.59-29.86,16.2-61.82,33.5-72.16l0,0,20.46-9.28a.26.26,0,0,1,.28.42c-7.46,7-47.11,47.31-33.39,96.17,13.11,46.69,25.28,83.19,28.89,115.7,3.73,33.61-10.46,58.94-50.28,101.12a.26.26,0,0,1-.42-.31c7-10.82,37.59-46.07,34.58-85.64-1.44-19-6.66-41.05-12.93-62.59,0,0,0,0,0,0l-36,20.26s0,0,0,0c9.29,24,16.37,47.58,9.55,73.75C89.86,406.62,62.64,445.05,54,455.92c-13.59,17.19-34.25,32.87-44.29,45.49S-2,528.4,2,543.36c9.24,34.08,53.74,39.54,64,40.39,39.46,3.23,68.91-6.68,92.28-45.16a.24.24,0,0,0-.28-.35s-4.48,1.66-4.77,2.14c-28.2,46.85-74.41,40.86-86.53,39.83-9.8-.83-52.6-7.4-60.94-37.59-6.6-23.89,4.54-42.43,23.82-56.53,22.16-16.2,55.81-18.13,71.2-16.59,40.56,4.06,94.43,29.74,130.19,35.72a.26.26,0,0,1,.21.25v83.22a.25.25,0,0,0,.26.26h3.18a.27.27,0,0,0,.28-.28V505.81c.49.06,1,.14,1.47.19q3.6.4,7,.75h0l36.24-29.82A0,0,0,0,0,279.6,476.89Z"/><path class="cls-1" d="M119.67,269.41,82.43,290.34q1.11,2.78,2.21,5.53l36.78-20.68C120.84,273.25,120.25,271.33,119.67,269.41Z"/></g></g></svg>