<svg xmlns="http://www.w3.org/2000/svg" viewBox="0 0 1020.83 245.81"><defs><style>.cls-1{opacity:0.03;}</style></defs><title>menschen-handwritten</title><g id="Ebene_2" data-name="Ebene 2"><g id="Ebene_1-2" data-name="Ebene 1"><g class="cls-1"><path d="M184.4,119.08q.39-4.77.39-10.35t-.39-15.12a62.28,62.28,0,0,0,2.42-10.51,46.38,46.38,0,0,0,.49-12.1l-.58-7,4.25.64c-.25-1.06-.45-2-.58-2.71a20.07,20.07,0,0,0-.58-2.39q-.76-3.18-1.35-6.53a24,24,0,0,1-.2-6.84q-4.07-4.79-5.8-13.37a9,9,0,0,0-1.65-3.51c-.71-.84-1.58-1.8-2.61-2.86l-.78-.64a10.86,10.86,0,0,1-1.35-1.59,12,12,0,0,1-1.74-6.37,6.13,6.13,0,0,0-1.07-.95,5.52,5.52,0,0,1-1.06-1,61.8,61.8,0,0,0-5.42-4,10,10,0,0,0-5.42-1.75,6.54,6.54,0,0,0-4.84,2.23Q152.64,28.34,146.07,39T132.52,58.9q-3.68,5.1-7.07,10T118,80.24a11.83,11.83,0,0,0-3.58,2.23,35.7,35.7,0,0,0-4,4.14c-1.81,1.91-3.74,3.82-5.81,5.73a10,10,0,0,1-7,2.86,9.54,9.54,0,0,1-6-2.55l-1.35-2.54a33.67,33.67,0,0,1-.49-6.53c.07-2,.16-3.87.29-5.57a52.41,52.41,0,0,0,.39-5.41,10.34,10.34,0,0,0-1-4.14L89.35,65a35.56,35.56,0,0,0,0-18.78A170.3,170.3,0,0,0,83,28.34a33,33,0,0,1-1.45-3.5c-.45-1.28-.94-2.55-1.45-3.82a10.43,10.43,0,0,1-4-1.44,27.37,27.37,0,0,0-4.36-2.07,2.44,2.44,0,0,1-1.45-.79,5.37,5.37,0,0,1-1.26-3l-.58-4.46a17.72,17.72,0,0,0-3.1-4.29,28.42,28.42,0,0,0-4.06-3.35A26.41,26.41,0,0,0,54.7,6.85a38.75,38.75,0,0,0-4.94,7,64.35,64.35,0,0,0-4.07,8.92c-1.22,3.29-2.55,6.84-4,10.66-.91,2.34-1.84,4.89-2.81,7.64s-2,5.63-3.2,8.6q-2.51,6.06-5.9,17T22.75,91.06q-3.67,13.38-7.35,27.23T8.82,143.44q-2.91,11.31-4.75,18.63t-1.84,7.64A79,79,0,0,0,0,188.65,167.62,167.62,0,0,0,1.17,210a150.69,150.69,0,0,0,3.68,20.06,61.25,61.25,0,0,0,5.51,14.8,29.21,29.21,0,0,0,6,1,6.92,6.92,0,0,0,3.38-.8,8.14,8.14,0,0,0,2.81-3,34.74,34.74,0,0,0,2.81-6.53c1-2.87,2.09-6.53,3.39-11a13.2,13.2,0,0,0,.58-4.77c.12-1.06.25-2.28.38-3.66a37.33,37.33,0,0,1,.58-4,25,25,0,0,1,1.75-4c.64-1.17,1.29-2.28,1.93-3.35a16.42,16.42,0,0,0,1.36-1.91,7.85,7.85,0,0,0,.77-3.18,29.13,29.13,0,0,1-.58-3,8,8,0,0,1,.19-3,36.15,36.15,0,0,1,3.2-10.19,75,75,0,0,1,4.55-8,45.86,45.86,0,0,1,.68-11.14q1.05-6.37,2.51-12.42t2.91-10.67q1.44-4.61,2-6.21l1.94-5.09,1.74,5.73q9.87,32.48,29.23,32.48a33,33,0,0,0,15.58-4.3A91.19,91.19,0,0,0,115.87,153a168.94,168.94,0,0,0,15-14.33q7.26-7.78,13.46-15.12c.26-1.7.64-2.65,1.16-2.87a4.77,4.77,0,0,1,1.74-.31l1.94.31v3.51A6.57,6.57,0,0,1,148,129q-7.37,42.36-7.07,69.73t9.58,38.53a7.92,7.92,0,0,0,4.46-1.43,26.69,26.69,0,0,0,4.26-3.67,26.86,26.86,0,0,1,3.29-2.86A21.38,21.38,0,0,1,166.4,227c.26-1.27.58-2.55,1-3.82s.77-2.65,1.16-4.14q4.83-17.51,9-37.57a189,189,0,0,0,3.39-44.26c.9-3.18,1.64-6.21,2.22-9.07A75.56,75.56,0,0,0,184.4,119.08Z"/><path d="M520.17,141.37a50.84,50.84,0,0,0-4.36-11.3,32.44,32.44,0,0,1-3.58-10c-.77-1.48-1.45-2-2-1.59s-1.13-.43-1.65-2.55a36.08,36.08,0,0,0-3.1-15.92,24.48,24.48,0,0,0-4.25-6.53,9.12,9.12,0,0,0-6-3,9.1,9.1,0,0,0-2.51-5.58,14.28,14.28,0,0,0-4.36-2.7q-2.42-1-4.74-2.07a7.92,7.92,0,0,1-3.68-4c.26-1.28.19-2.12-.19-2.55a2.77,2.77,0,0,1-.39-2.23,50.41,50.41,0,0,0,7.36-1.75,10.4,10.4,0,0,0,5.61-4.3,8.82,8.82,0,0,0,5.81-.79c2.06-1,4.16-1.91,6.29-2.87a17.42,17.42,0,0,1,6.1-1.59q2.89-.17,5,3.66,7-1.27,15.68-2.23A35.85,35.85,0,0,1,548.63,64a64.08,64.08,0,0,0,4.84-4.78c1.54-1.69,3-3.39,4.45-5.09q1-6.69-.49-10.67A35.22,35.22,0,0,0,553.66,36a23.08,23.08,0,0,0-1.36-6.69q-1.15-3.18-2.61-6.52t-2.81-6.85a45.82,45.82,0,0,1-2.13-7.32q-12.76-6-24.39-4.94a75.05,75.05,0,0,0-22.65,5.89,217.46,217.46,0,0,0-21.58,10.83,102.27,102.27,0,0,1-21,9.23c-.26,1.07-.13,1.59.39,1.59s.77.43.77,1.28q-4.06,1.91-8.71,4.61a49.7,49.7,0,0,0-8.9,6.69c-.64.6-1.27,1.24-1.88,1.89a48.79,48.79,0,0,0-2.73-10.49q-2.32-5.88-5-12.26a11,11,0,0,1-5.8-3.82,67.89,67.89,0,0,1-4.46-6.2,45.72,45.72,0,0,0-4.55-6.05,10.19,10.19,0,0,0-5.9-3.35,58.3,58.3,0,0,0-2.42,10q-.87,5.58-1.74,11T402,35a30.62,30.62,0,0,1-3.39,8.6q-1.74,18.47-3.39,36.3t-4.64,33.43a154.89,154.89,0,0,1-8.13,28.34q-5.14,12.74-13.46,20.69a166.77,166.77,0,0,1-1.55-19.1q-.19-9.22,0-18c.13-5.83.26-11.57.39-17.19s0-11.2-.39-16.72c.52.22.87.16,1.07-.16a4.94,4.94,0,0,0,.48-1.11A4.79,4.79,0,0,1,369.5,89a1.12,1.12,0,0,1,1.06-.47,17.9,17.9,0,0,1-.29-6.53,28.72,28.72,0,0,1,1.26-4.46,23.45,23.45,0,0,0,1.16-4.62,20.51,20.51,0,0,0-.58-7c.64.43,1.09.37,1.35-.16a1,1,0,0,1,1.36-.48,9.44,9.44,0,0,1-1-3.5A9,9,0,0,1,374,59.7a4.5,4.5,0,0,0,.1-1.59,10.41,10.41,0,0,0-1.06-2.71c.25-.84.58-1.06,1-.63s.71,0,1-1.28a62.79,62.79,0,0,0-4-17,58.54,58.54,0,0,0-7.26-13.22,59.2,59.2,0,0,0-9.38-10,79.23,79.23,0,0,0-10.56-7.48q-6,21.66-12.48,44.1t-13,44.58q-6.5,22.13-12.88,43.62t-12,41.23a18.61,18.61,0,0,1,1.84,6.53,43.17,43.17,0,0,0,.77,4.49,9.28,9.28,0,0,0-.44-.83,2.93,2.93,0,0,1-3.49-1.27,29.94,29.94,0,0,1-2.61-4.62c-.84-1.8-1.71-3.61-2.61-5.41a7.75,7.75,0,0,0-3.29-3.67,47.38,47.38,0,0,1-11.72,4.3A27.68,27.68,0,0,0,260.83,184a53.19,53.19,0,0,0-12.1.63q-4.93,1-9.58,1.91a69.52,69.52,0,0,1-9.87,1.28,46.46,46.46,0,0,1-13.17-1.59A192.5,192.5,0,0,1,221.53,167q3.1-9.08,6.59-17.35a12.17,12.17,0,0,0,6.29,1.59,12.22,12.22,0,0,1,6.29,1.59,6.84,6.84,0,0,1,5.32-1.11,6.24,6.24,0,0,0,5.13-1.12c.65.85,1.19,1.28,1.65,1.28h1.64A20.25,20.25,0,0,0,264.51,150a37.5,37.5,0,0,0,8.62-5.73,79.61,79.61,0,0,0,7.64-7.8q3.68-4.31,7.55-8.44a20.39,20.39,0,0,0,.58-7.33,37.46,37.46,0,0,0-1.35-6.68,4.64,4.64,0,0,1-4.07-1.43,24.37,24.37,0,0,1-3.39-4.46c-1.09-1.8-2.16-3.66-3.19-5.57a23.61,23.61,0,0,0-3.29-4.78,4.59,4.59,0,0,1,.39-2.23,3.77,3.77,0,0,0,.19-2.23q-9.48.64-19.36,2.07a60.21,60.21,0,0,1-18,.16,24.51,24.51,0,0,1-.49-6,23.34,23.34,0,0,0-.87-7q2.13-1,4.17-1.91a9.25,9.25,0,0,0,3.58-3.19,6.2,6.2,0,0,0,4,0c1.1-.42,2.1-.84,3-1.27a9,9,0,0,1,2.61-.8,4.41,4.41,0,0,1,2.81.8,38.07,38.07,0,0,1,10.26-7.64,60.51,60.51,0,0,1,10.35-4q5.13-1.44,10.07-2.71A37.9,37.9,0,0,0,295.68,58a31.45,31.45,0,0,0,8.42-7.32,45,45,0,0,0,7.07-13.38,27.89,27.89,0,0,1-.39-4,14.86,14.86,0,0,1,.19-2.54,23.69,23.69,0,0,0,.29-2.39,33,33,0,0,0-.09-4.14A45.2,45.2,0,0,1,303,16.72a33.68,33.68,0,0,1-6-11,3,3,0,0,1-.19,2.07A.59.59,0,0,1,296,8a10.79,10.79,0,0,0-1.16-.64A2.78,2.78,0,0,0,293.74,7a11,11,0,0,0,.1,1.43,15.46,15.46,0,0,1,.1,1.75c-1,0-1.75-.74-2.13-2.23h-1.26c-.32,0-.55-.32-.68-1Q280,9.88,272.45,11.3t-14.52,3.19a143.11,143.11,0,0,0-14.33,4.45A152.55,152.55,0,0,0,227,26.43q-5.22,1.91-9.87,3.34a38.93,38.93,0,0,0-8.61,3.82A30.43,30.43,0,0,0,195.59,49a106.63,106.63,0,0,1,1.55,12.58q.39,6.21,1.16,12.26a106.83,106.83,0,0,0,2.23,11.94,36,36,0,0,0,4.74,11q-1.54,7.33-3.39,13.22t-3.58,11.62q-1.74,5.73-3.29,11.78t-2.9,13.06c-1-.43-1.65-.05-1.84,1.11s-.68,1.86-1.45,2.07a15.26,15.26,0,0,1-.1,5.09,30,30,0,0,1-1.36,4.94c-.58,1.59-1.16,3.24-1.74,4.93a29,29,0,0,0-1.26,5.42,80.84,80.84,0,0,0-.29,11.94q.3,6.53,1,13.05t1.36,12.74q.67,6.21,1.06,11a10,10,0,0,1,3.2,5.73,18.12,18.12,0,0,0,2.22,6.05,25,25,0,0,0,11.62,10.19A42.75,42.75,0,0,0,219,243.9a60.17,60.17,0,0,0,15-1.28q7.46-1.59,12.88-3.18a6.29,6.29,0,0,1,3,.79,4.48,4.48,0,0,0,3.58.16q8.7-2.53,15.77-4.3A42,42,0,0,0,282,230.68a36.13,36.13,0,0,0,10.26-10.35,57.84,57.84,0,0,0,6.17-12.81q1.57,6.87,3.67,13.45a85.06,85.06,0,0,0,5.22,12.9q3,5.9,7.46,8.12a7.21,7.21,0,0,0,2.9-1.91c.77-.85,2.06-1.06,3.87-.64-.26-1.7-.55-2.65-.87-2.87s-.23-.84.29-1.91q3.67.33,5.13-2.39a19.92,19.92,0,0,0,2-6.52q.58-3.83,1-7.8a12.59,12.59,0,0,1,2.32-6.53,14.82,14.82,0,0,1-.48-6.37,24.57,24.57,0,0,1,1.45-5.25c.65-1.59,1.32-3.19,2-4.78a19.5,19.5,0,0,0,1.45-5.25c1,0,1.8-1,2.32-2.87s1-4,1.55-6.37,1.09-4.56,1.74-6.68,1.61-3.5,2.91-4.14q4.44,20.39,12,35.34a140.43,140.43,0,0,0,17,26.43q6.39,3.83,10.36,2.7a14.1,14.1,0,0,0,7-4.61,58.69,58.69,0,0,0,5.52-7.64,24.07,24.07,0,0,1,5.81-6.69c-.65-2.55-.68-4.08-.1-4.62s.8-1.75.68-3.66c1,.22,1.61.59,1.74,1.12s.51.37,1.16-.48q2.32-7,4.45-14a36.54,36.54,0,0,1,5.81-11.78q1-8.28,3.1-18t3.87-18.95a172.27,172.27,0,0,1,.58-18.78q.76-8.59,1.74-16.56c.32-2.64.66-5.32,1-8,.37.86.76,1.69,1.17,2.45,1,1.8,1.9,3.77,2.81,5.89,1.42-.42,2.32-.16,2.71.79a18.93,18.93,0,0,1,1,3.35,43.45,43.45,0,0,0,14,6.68,86.14,86.14,0,0,0,15.39,2.55,47.82,47.82,0,0,1,5.62,2.55q2.31,1.28,4.64-1.27a43.58,43.58,0,0,0,9.49,6.36,59.14,59.14,0,0,1,10.65,7,1.7,1.7,0,0,1,.87.32c.32.21.67.42,1.06.63a3.71,3.71,0,0,0,.39,1.91,9.87,9.87,0,0,0,.77,1.12,3.27,3.27,0,0,1,.58,1.11,4.61,4.61,0,0,1,0,1.91,21.09,21.09,0,0,1-1.74,5.89,39.5,39.5,0,0,1-2.51,4.46c-.91,1.38-1.78,2.82-2.62,4.3a17.37,17.37,0,0,0-1.84,5.41q-5.42,4.47-11.13,9.71a120.68,120.68,0,0,1-12,9.71,55.62,55.62,0,0,1-13.36,7,29.64,29.64,0,0,1-15,1.27,10.53,10.53,0,0,0-3.29,6.21,38.09,38.09,0,0,0-.39,7.8q.19,4.14.48,8.12a17.45,17.45,0,0,1-.67,6.85,1.82,1.82,0,0,0,.29,1.59,9.14,9.14,0,0,0,1,1.11,1.91,1.91,0,0,1,.58,1c.07.32-.16.8-.67,1.43L434,228a7,7,0,0,0-.19,1.91c.64,0,.93.58.87,1.75s.22,1.86.87,2.07a26.29,26.29,0,0,0,2,6c.84,1.69,1.77,3.39,2.81,5.09a13.81,13.81,0,0,1,5.13-.32c1.74.21,3.48.37,5.23.48a14.12,14.12,0,0,0,4.84-.48,7.45,7.45,0,0,0,4-3.18c-.38,1.48-.22,2.12.49,1.91a2.63,2.63,0,0,1,1.84,0,121.32,121.32,0,0,0,17.23-10.35,109.28,109.28,0,0,0,16.55-14.65,99.68,99.68,0,0,0,14-19.58,97.49,97.49,0,0,0,9.49-25.15,50.85,50.85,0,0,0,1.65-15Q520.55,150.93,520.17,141.37Z"/><path d="M771.76,98.39q-.19-12.42-.58-24t-1-22.77a37.53,37.53,0,0,1-5.71-10.82q-2.24-6.37-4.16-13.54t-3.88-14.17A110.73,110.73,0,0,0,752,0q-4.26,1.59-7.16,6.85a43.42,43.42,0,0,0-4.36,12.25,85.5,85.5,0,0,0-1.64,15.13,84.87,84.87,0,0,0,1,15.44,4.41,4.41,0,0,0-2.33,2.87,14.54,14.54,0,0,1-1.93,3.82,148.29,148.29,0,0,1-.39,30.25q-1.74,15-2.9,30.24a57,57,0,0,1-10.75,7,97.59,97.59,0,0,1-11.61,4.93c-3.94,1.39-7.94,2.76-12,4.14s-8,2.82-11.71,4.3q.78-3.18-.39-3.66a2.33,2.33,0,0,1-1.35-2.07q1-6.36,2-15.6t2.13-19.11q1.07-9.86,1.74-19.42t.87-16.87a111,111,0,0,0-5-12.74Q683.47,42,680.87,36.3T676,24.52a78.36,78.36,0,0,1-3.58-14Q665.28,13.69,662,24.68a137.28,137.28,0,0,0-4.74,25.47q-1.46,14.49-1.94,30.09t-1.84,28.34a3,3,0,0,0-1.64-.16c-.45.11-.75.58-.87,1.43a31.46,31.46,0,0,1,.77,7.8,87.78,87.78,0,0,1-.58,10,69.69,69.69,0,0,1-1.84,9.87,29.34,29.34,0,0,1-3,7.64q-.19,8-1.35,17.67a62.37,62.37,0,0,1-4.84,18,11.87,11.87,0,0,1,.58,4.46,26.86,26.86,0,0,1-.68,3.82c-.32,1.27-.61,2.66-.87,4.14a20.89,20.89,0,0,0,0,5.73q-.78-1.26-1.26-.48a7.34,7.34,0,0,0-.77,2.39c-.2,1.07-.36,2.18-.49,3.35,0,.29-.07.56-.12.82a31.67,31.67,0,0,0-1.87-4.49,79.44,79.44,0,0,0-4.07-6.84,52.61,52.61,0,0,1-4-7.17q-17-.32-34.36-2.07a94.86,94.86,0,0,1-32.81-9.39q-1.36-4.45-2.62-8.76A48.18,48.18,0,0,1,555.17,156q1.35-2.86,2.52-5.73a23.07,23.07,0,0,0,1.16-8.28q3.48-5.73,7-11.62t7.26-11.31a77.66,77.66,0,0,1,8.13-9.87,33.57,33.57,0,0,1,9.77-7,45.42,45.42,0,0,1,7.26-10,55.4,55.4,0,0,1,8.91-7.49A91.21,91.21,0,0,1,617,79q5.13-2.53,11.13-5.09,5-2.22,9.2-9.07a45,45,0,0,0,5.71-15,35.27,35.27,0,0,0-.39-15.6,16.41,16.41,0,0,0-8.9-11,11.72,11.72,0,0,1,.58-3.18,3,3,0,0,0-.58-2.55,6.45,6.45,0,0,1-4-2.39A2.64,2.64,0,0,0,626.6,14c.13-.42.42-1.27.88-2.55s.16-2-.88-2.23c-.38,1.49-.74,2.13-1.06,1.91a4.46,4.46,0,0,1-1.16-1.43,21.67,21.67,0,0,0-1.45-2.07A1.75,1.75,0,0,0,621,7a30.33,30.33,0,0,1-3.87,1.75Q615,9.56,613.83,7a16.59,16.59,0,0,1-4,6,56.2,56.2,0,0,1-5,4.14q-2.61,1.92-5.22,4.14a19.2,19.2,0,0,0-4.36,5.42,26.1,26.1,0,0,0-8.52,5.41,95.7,95.7,0,0,0-7.16,7.64,84,84,0,0,1-7.26,7.64,27.2,27.2,0,0,1-8.61,5.41,18.31,18.31,0,0,1-2.91,4.94l-3.48,4.14A36.82,36.82,0,0,0,554,66.55a19.68,19.68,0,0,0-2.33,6,3,3,0,0,0-2.13-1q-3.28,6.06-6.67,11.94T536.39,96a136.92,136.92,0,0,0-5.61,13.69,118.46,118.46,0,0,0-4.26,15.76q-.19,11.46.48,24a210,210,0,0,0,2.71,24.36,146.46,146.46,0,0,0,5.62,22.29,57.26,57.26,0,0,0,9.19,17.51,13.12,13.12,0,0,1,6.2,5.25c1.55,2.44,3,5,4.45,7.8a139.71,139.71,0,0,0,23.62,10.35,93.55,93.55,0,0,0,25,4.94,12.58,12.58,0,0,1,4.94-2.07,28.8,28.8,0,0,1,5.22-.48,39.06,39.06,0,0,1,5,.32,13.72,13.72,0,0,0,4.16,0q3.87-4.78,7.74-9.71A106.93,106.93,0,0,0,638,219.7c.12-1.38.17-2.67.18-3.93.09.47.19.95.26,1.38a33.27,33.27,0,0,0,3.2,9.23q-.78-.63-1.26,0a3,3,0,0,0-.58,1.6,6.15,6.15,0,0,0,.09,1.91c.13.63.39.85.78.63a2.7,2.7,0,0,0,1,1.91l2.22,2.23a19.72,19.72,0,0,1,2.42,3,7,7,0,0,1,1.16,4q4.46,3.81,7.65,4a9.8,9.8,0,0,0,5.9-1.59,34.9,34.9,0,0,0,5.33-4.3,22.28,22.28,0,0,1,5.9-4.14,5.67,5.67,0,0,0,0-3,12.19,12.19,0,0,1-.77-2.39q1.74.33,3.39-3.5a69.41,69.41,0,0,0,3-8.75q1.35-4.94,2.32-9.4a41.12,41.12,0,0,0,1-5.41q2.9-2.87,7.65-7.16a116.47,116.47,0,0,1,10.26-8.28,109.65,109.65,0,0,1,11.32-7.17,36.84,36.84,0,0,1,11.23-4.14c0,.22-.17,1.65-.49,4.3s-.64,5.47-1,8.44-.62,5.79-.87,8.44-.39,4.09-.39,4.3a42.17,42.17,0,0,0,2.61,16.39,87.37,87.37,0,0,0,6.68,13.54l-1,2.86a9.81,9.81,0,0,1,4,3,45.93,45.93,0,0,0,3.58,4q4.07-2.23,8.23-4.94a26.66,26.66,0,0,0,7.36-7.32,37.2,37.2,0,0,0,5-11.15,53.5,53.5,0,0,0,1.45-16.39,22.44,22.44,0,0,1-1.26-9.4,28.75,28.75,0,0,0-.29-8.43,23.42,23.42,0,0,0,2.91-6.37q1.15-3.82,2-7.8c.58-2.65,1.19-5.31,1.84-8a28.17,28.17,0,0,1,2.52-6.85q1-15.28,3.19-28.81T771.76,98.39Z"/><path d="M1017.73,35.18q-2.31-5.88-5-12.26a11,11,0,0,1-5.81-3.82,69.8,69.8,0,0,1-4.45-6.2,46.61,46.61,0,0,0-4.55-6.05A10.19,10.19,0,0,0,992,3.5a57.39,57.39,0,0,0-2.42,10q-.87,5.58-1.75,11T985.69,35a30.62,30.62,0,0,1-3.38,8.6q-1.74,18.47-3.39,36.3t-4.65,33.43a153.32,153.32,0,0,1-8.13,28.34q-5.13,12.74-13.45,20.69a164.54,164.54,0,0,1-1.55-19.1q-.2-9.22,0-18c.13-5.83.26-11.57.39-17.19s0-11.2-.39-16.72c.51.22.87.16,1.06-.16a4.54,4.54,0,0,0,.49-1.11,5.24,5.24,0,0,1,.48-1.12,1.15,1.15,0,0,1,1.07-.47A17.68,17.68,0,0,1,954,82a29.87,29.87,0,0,1,1.25-4.46,22.76,22.76,0,0,0,1.17-4.62,20.77,20.77,0,0,0-.58-7c.64.43,1.09.37,1.35-.16a1,1,0,0,1,1.36-.48,9.44,9.44,0,0,1-1-3.5,9,9,0,0,1,.19-2.07,4.5,4.5,0,0,0,.1-1.59,10.18,10.18,0,0,0-1.07-2.71c.26-.84.58-1.06,1-.63s.71,0,1-1.28a62.79,62.79,0,0,0-4-17,57.74,57.74,0,0,0-16.65-23.25,79.15,79.15,0,0,0-10.55-7.48q-6,21.66-12.49,44.1t-13,44.58q-6.48,22.13-12.87,43.62t-12,41.23a18.83,18.83,0,0,1,1.84,6.53c.19,1.59.45,3.08.76,4.49a9.23,9.23,0,0,0-.43-.83,2.92,2.92,0,0,1-3.49-1.27,29.94,29.94,0,0,1-2.61-4.62c-.84-1.8-1.71-3.61-2.61-5.41a7.76,7.76,0,0,0-3.3-3.67,47.31,47.31,0,0,1-11.71,4.3A27.62,27.62,0,0,0,844.51,184a53.15,53.15,0,0,0-12.1.63q-4.93,1-9.58,1.91a69.47,69.47,0,0,1-9.88,1.28,46.43,46.43,0,0,1-13.16-1.59A192.5,192.5,0,0,1,805.21,167q3.09-9.08,6.58-17.35a12.2,12.2,0,0,0,6.29,1.59,12.24,12.24,0,0,1,6.3,1.59,6.84,6.84,0,0,1,5.32-1.11,6.24,6.24,0,0,0,5.13-1.12c.64.85,1.19,1.28,1.65,1.28h1.64A20.27,20.27,0,0,0,848.19,150a37.22,37.22,0,0,0,8.61-5.73,78.57,78.57,0,0,0,7.65-7.8q3.67-4.31,7.55-8.44a20.61,20.61,0,0,0,.58-7.33,37.46,37.46,0,0,0-1.35-6.68,4.63,4.63,0,0,1-4.07-1.43,24.37,24.37,0,0,1-3.39-4.46q-1.65-2.7-3.19-5.57a24,24,0,0,0-3.29-4.78,4.61,4.61,0,0,1,.38-2.23,3.75,3.75,0,0,0,.2-2.23q-9.5.64-19.36,2.07a60.28,60.28,0,0,1-18,.16,24.55,24.55,0,0,1-.48-6,24,24,0,0,0-.87-7q2.13-1,4.16-1.91a9.11,9.11,0,0,0,3.58-3.19,6.23,6.23,0,0,0,4,0c1.1-.42,2.1-.84,3-1.27a9,9,0,0,1,2.62-.8,4.39,4.39,0,0,1,2.8.8,38.38,38.38,0,0,1,10.26-7.64,60.92,60.92,0,0,1,10.36-4Q865,63,870,61.77A37.9,37.9,0,0,0,879.36,58a31.6,31.6,0,0,0,8.42-7.32,44.81,44.81,0,0,0,7.06-13.38,27.6,27.6,0,0,1-.38-4,14.86,14.86,0,0,1,.19-2.54c.13-.75.22-1.54.29-2.39a33.52,33.52,0,0,0-.1-4.14,45.54,45.54,0,0,1-8.13-7.48,33.86,33.86,0,0,1-6-11,3.11,3.11,0,0,1-.19,2.07.59.59,0,0,1-.87.16,11,11,0,0,0-1.17-.64A2.7,2.7,0,0,0,877.42,7a11,11,0,0,0,.1,1.43,15.59,15.59,0,0,1,.09,1.75c-1,0-1.74-.74-2.13-2.23h-1.25c-.33,0-.55-.32-.68-1q-9.87,2.87-17.42,4.29t-14.52,3.19a142.31,142.31,0,0,0-14.33,4.45,151.71,151.71,0,0,0-16.65,7.49q-5.22,1.91-9.87,3.34a39.21,39.21,0,0,0-8.62,3.82A30.35,30.35,0,0,0,779.27,49a108.77,108.77,0,0,1,1.55,12.58q.39,6.21,1.16,12.26a104.6,104.6,0,0,0,2.23,11.94,35.5,35.5,0,0,0,4.74,11c-1,4.89-2.16,9.29-3.39,13.22s-2.42,7.8-3.58,11.62-2.26,7.75-3.29,11.78-2,8.39-2.91,13.06c-1-.43-1.64-.05-1.83,1.11s-.68,1.86-1.46,2.07a15,15,0,0,1-.09,5.09,32.12,32.12,0,0,1-1.36,4.94c-.58,1.59-1.16,3.24-1.74,4.93A29,29,0,0,0,768,170a79.49,79.49,0,0,0-.29,11.94q.29,6.53,1,13.05t1.35,12.74q.67,6.21,1.07,11a9.94,9.94,0,0,1,3.19,5.73,17.91,17.91,0,0,0,2.23,6.05,25,25,0,0,0,11.62,10.19,42.75,42.75,0,0,0,14.51,3.19,60.21,60.21,0,0,0,15-1.28c5-1.06,9.26-2.12,12.87-3.18a6.29,6.29,0,0,1,3,.79,4.48,4.48,0,0,0,3.58.16q8.72-2.53,15.78-4.3a42,42,0,0,0,12.78-5.41A36.38,36.38,0,0,0,876,220.33a58.29,58.29,0,0,0,6.17-12.81q1.58,6.87,3.66,13.45a85.07,85.07,0,0,0,5.23,12.9q3,5.9,7.45,8.12a7.32,7.32,0,0,0,2.91-1.91c.77-.85,2.06-1.06,3.87-.64-.26-1.7-.55-2.65-.87-2.87s-.23-.84.29-1.91q3.68.33,5.13-2.39a20.17,20.17,0,0,0,2-6.52q.58-3.83,1-7.8a12.59,12.59,0,0,1,2.32-6.53,14.51,14.51,0,0,1-.48-6.37,24.57,24.57,0,0,1,1.45-5.25c.64-1.59,1.32-3.19,2-4.78a19.14,19.14,0,0,0,1.45-5.25c1,0,1.81-1,2.33-2.87s1-4,1.55-6.37,1.09-4.56,1.74-6.68,1.61-3.5,2.9-4.14q4.46,20.39,12,35.34a140.43,140.43,0,0,0,17,26.43q6.39,3.83,10.36,2.7a14.14,14.14,0,0,0,7-4.61,57.71,57.71,0,0,0,5.51-7.64,24.4,24.4,0,0,1,5.81-6.69c-.64-2.55-.68-4.08-.1-4.62s.81-1.75.68-3.66c1,.22,1.61.59,1.74,1.12s.52.37,1.17-.48q2.33-7,4.45-14a36.34,36.34,0,0,1,5.81-11.78q1-8.28,3.09-18t3.88-18.95a172.27,172.27,0,0,1,.58-18.78q.76-8.59,1.74-16.56T1011,93.29q1.15-8.28,1.74-17.83a15.21,15.21,0,0,0,3.29-5.41,40.91,40.91,0,0,0,1.84-7q.67-3.81,1.26-7.64a36.75,36.75,0,0,1,1.74-7A50.15,50.15,0,0,0,1017.73,35.18Z"/></g></g></g></svg>