<svg xmlns="http://www.w3.org/2000/svg" width="100.3" height="793.5" viewBox="0 0 100.3 793.5">
  <path id="Pfad_144" data-name="Pfad 144" d="M-373.2-4.159l8.55-55.259,23.1,55.259h10.35l24.15-55.259,7.35,55.259h25.95l-15-95.983H-314.7l-21.45,51.229-20.25-51.229h-25.65L-399-4.159Zm172.8-95.983h-56.85V-4.159h56.85V-25.312h-30.9V-41.861h29.25V-63.015H-231.3V-78.988h30.9Zm42.45,95.983V-62.871L-110.1-4.159h25.95v-95.983H-110.1v58.712l-47.85-58.712H-183.9V-4.159Zm90.3-8.634A71.015,71.015,0,0,0-52.5-5.166,55.531,55.531,0,0,0-32.85-2c10.65,0,21-1.583,29.55-9.785,7.2-6.907,9.45-15.4,9.45-24.176C6.15-42.58,4.8-47.9-.3-53.085c-5.25-5.468-11.85-7.627-18.15-9.5l-7.95-2.3c-6.15-1.727-7.95-3.454-8.7-4.317a6.241,6.241,0,0,1-1.35-4.317A6.992,6.992,0,0,1-33.9-78.7a12.8,12.8,0,0,1,8.55-2.878c3.45,0,9.3.576,17.1,6.476L2.1-94.529c-9.45-4.749-21-7.771-30.9-7.771-12.15,0-20.55,4.173-25.65,9.066-4.35,4.173-9.15,11.368-9.15,23.168,0,4.893.6,11.656,5.7,16.98,4.05,4.317,10.2,6.476,14.4,7.771l6.75,2.015c6.45,1.871,10.35,2.878,12.9,5.037A7.376,7.376,0,0,1-21-32.507a8.408,8.408,0,0,1-2.55,6.044c-1.65,1.727-4.8,3.31-10.05,3.31-9,0-17.4-4.749-22.95-9.785Zm162-23.456C85.2-26.607,75.6-26.176,71.7-26.176c-7.35,0-14.25-2.734-18.6-6.62A25.948,25.948,0,0,1,45-51.5a26.277,26.277,0,0,1,8.7-19.715c4.8-4.173,10.5-6.332,18-6.332a28.39,28.39,0,0,1,22.65,10.5V-96.832c-10.8-4.173-18.6-4.893-23.4-4.893a54.22,54.22,0,0,0-37.8,14.966A50.355,50.355,0,0,0,18-51.359,49.335,49.335,0,0,0,33.15-16.39C41.4-8.62,54.45-2,71.85-2,78.3-2,84-3.151,94.35-6.749Zm42.45-63.893H110.85V-4.159H136.8V-43.012h37.5V-4.159h26.1v-95.983H174.3V-64.31H136.8Zm141.45,0H221.4V-4.159h56.85V-25.312h-30.9V-41.861H276.6V-63.015H247.35V-78.988h30.9ZM320.7-4.159V-62.871L368.55-4.159H394.5v-95.983H368.55v58.712L320.7-100.141H294.75V-4.159Z" transform="translate(-2 399) rotate(90)" fill="#f8f8f8"/>
</svg>
