<svg xmlns="http://www.w3.org/2000/svg" viewBox="0 0 40.54 128.58"><defs><style>.cls-1{opacity:0.03;}</style></defs><title>menschen-handwritten-90deg</title><g id="Ebene_2" data-name="Ebene 2"><g id="Ebene_1-2" data-name="Ebene 1"><g class="cls-1"><path d="M40.36,127.68a1.75,1.75,0,0,0-1.23-2.44,29.21,29.21,0,0,0-3.43-1c-4-.86-7.9-1.79-11.89-2.46-2.61-.44-5.29-.48-8-.71.56-.48,1.06-.94,1.59-1.37a48.41,48.41,0,0,1,11.06-6.34c.63-.28,1-.66.89-1.32s-.62-.91-1.29-1a10,10,0,0,0-5.08.83,2.79,2.79,0,0,1-1.69,0c-1.61-.54-3.19-1.18-4.78-1.75l-.18-.52a40.5,40.5,0,0,0-4.44-8.6,6.31,6.31,0,0,1-.4-.73c.88.19,1.59.38,2.31.49a1.34,1.34,0,0,1,1.14.95c.78,1.83,1.67,3.61,2.47,5.42a1.63,1.63,0,0,0,1.91.94c.83-.08,1.1-.78,1.14-1.45a4.22,4.22,0,0,0-.37-1.74c-.41-1-.92-2-1.46-3.18,2.15.41,4.17.77,6.18,1.18.24.05.47.34.61.58,1.49,2.6,2.94,5.21,4.45,7.8a1.71,1.71,0,0,0,1,.85,2.16,2.16,0,0,0,1.65-.3,1.85,1.85,0,0,0,.4-2.24l-3.36-6.33a28.19,28.19,0,0,0-1.47-2.71c-.63-.9-1.46-1.65-2.15-2.51a3.3,3.3,0,0,0-1.52-1.17c0-.62,0-1.26,0-1.91,2.46.16,4.9.35,7.35.47,1.47.07,1.71-.2,1.72-1.67,0-1.13-.54-1.7-2-1.95-2.38-.41-4.77-.77-7.16-1.19-.29,0-.73-.21-.79-.41-.48-1.69-.89-3.4-1.35-5.24,2,.36,3.84.72,5.69,1,2.08.35,4.16.73,6.26.94,1.32.13,2.15-.71,1.82-1.89a3,3,0,0,0-1.6-1.88c-3.59-1-7.23-1.9-10.86-2.79-1.78-.44-3.81-.35-4.61-2.6-.1-.29-.73-.46-1.14-.58a1.58,1.58,0,0,0-.66-.06c-.12-.73-.24-1.46-.33-2.2-.15-1.36-.45-2.77.47-4.08L18,71a3.06,3.06,0,0,1,.41.1,29.21,29.21,0,0,1,11.2,8,1.9,1.9,0,0,0,1.3.53c.65,0,1-.46,1.11-1.18A2.77,2.77,0,0,0,31.29,76a42.16,42.16,0,0,0-3.88-4c-1.95-1.64-4.07-3.08-6.16-4.63,1.31-5,.23-10.21.55-15.52a43.66,43.66,0,0,1,7.9,12.05c-.19.68-.46,1.13-.39,1.51A6.05,6.05,0,0,0,30,67.1a1.49,1.49,0,0,0,1.82.88c.92-.22,1.64-.68,1.63-1.66a11.35,11.35,0,0,0-.39-3.3,32.66,32.66,0,0,0-5-9.71c-1.3-1.73-2.74-3.36-4.17-5,2.07.31,4.14.62,6.21,1,1.59.26,3.14.72,4.72,1.06,1.13.24,1.74-.15,1.93-1.12s-.42-1.67-1.54-1.94c-1.51-.37-3-.81-4.54-1.08-3-.52-6.05-1-9.1-1.39s-6-.56-9-.84a10.37,10.37,0,0,1,2.42-1.17c3.26-1,6.53-2,9.8-3,.88-.27,1.82-.1,2.63-.84s1-1.69-.14-2.3a18.84,18.84,0,0,0-2.77-1.2A88.81,88.81,0,0,0,12.81,32.4a14.68,14.68,0,0,0-1.94-3.5C9.47,27,8,25.2,6.55,23.33c.09,0,.19-.16.29-.16,1.71-.05,3.42-.12,5.13-.12a2.91,2.91,0,0,1,1.79.34c1.68,1.63,3.48,3.18,4.42,5.43a1.57,1.57,0,0,0,.83.63c.36-.3.88-.76.84-1.09a7.11,7.11,0,0,0-.84-2.5,21.88,21.88,0,0,0-1.94-2.5c2.3-.17,4.62.14,6.77-.88,1.29,1.73,2.56,3.42,3.79,5.12S30.3,30.71,31,32.7a2.35,2.35,0,0,0,.53.71,1,1,0,0,0,1.37.22c.53-.27,1.12-.53,1-1.23a7,7,0,0,0-.76-2.62c-1.68-2.39-3.47-4.7-5.31-7a27.7,27.7,0,0,0-3.23-3.27c-.79-.7-1.57-.37-1.86.62l-1.24-.1c-2.11-.13-4.21-.23-6.32-.39-2.87-.23-5.74-.64-8.62,0C5.3,20,5,20.26,4.9,21.5c-1.42.59-1.65,1.11-1.08,2.58a2.16,2.16,0,0,0,.24.48c.66,1.05,1.27,2.12,2,3.12,1,1.37,2,2.72,2.91,4.14a37.45,37.45,0,0,0-4-.11c-.87,0-1.14.5-1.06,1.43.12,1.42.32,1.66,1.24,1.75,1.7.17,3.41.34,5.1.6l.5.08c.05.16.11.31.16.47a8.49,8.49,0,0,0,.64,1.28.7.7,0,0,0,1.18.28,1.84,1.84,0,0,0,.77-1.55l2.43.46c1.27.26,2.52.61,3.9,1-2.23.8-4.34,1.42-6.32,2.32A18.12,18.12,0,0,0,9.4,42.39a2.2,2.2,0,0,0,.68,3.74,3.21,3.21,0,0,1,.5.31L12.4,47c.08,0,.16-.09.23-.08,1.85.21,3.7.41,5.54.63a14.87,14.87,0,0,0-.49,3.28c0,3.31.26,6.61.33,9.92,0,1.37-.16,2.73-.25,4.1l-.44,0a30.56,30.56,0,0,1-7-14.5c1.13-.73,1.42-1.52,1-2.49-.7-1.48-2-1.4-3.35-1.32a1.76,1.76,0,0,0-1.68,1.76,18,18,0,0,0,.33,5,31.38,31.38,0,0,0,7.09,13.24c-.25,1-.53,1.84-.66,2.7a20.64,20.64,0,0,0,1.11,9.19c-.74-.14-1.48-.27-2.22-.37C9.46,77.77,7,77,4.6,78.4l-.35.86a11,11,0,0,1,.13,1.81c-.09,1,.46,1.25,1.33,1.25a17.89,17.89,0,0,1,2.74.09c2.85.45,5.68,1,8.51,1.48.28,0,.68.24.74.46.6,1.85,1.12,3.72,1.72,5.75l-1.73-.16c-3-.27-5.89-.55-8.84-.79-.36,0-.95,0-1,.24a4.43,4.43,0,0,0-.53,2A1.69,1.69,0,0,0,8.84,93c3,.43,6,1,9,1.34,2.62.33,2.62.26,3.23,2.76.05.23.12.45.16.68a2.51,2.51,0,0,0,.27.8c-1.51-.27-3-.55-4.53-.86-.31-.06-.57-.4-.86-.61L14,95.6c-.29,1.52-1,1.4-1.94,1.16A25.44,25.44,0,0,0,8.6,96.1c-1.1-.14-1.66.23-1.8,1.3a3.92,3.92,0,0,0,.63,3.34,24.43,24.43,0,0,1,2.89,3.86c.75,1.38,1.44,2.8,2.12,4.22-1.29-.39-2.58-.76-3.88-1.12a.91.91,0,0,0-.8.3,2.74,2.74,0,0,0,1.48,3.55c2.82,1,5.65,2,8.49,3a6.66,6.66,0,0,0-.65.48c-2,1.79-4,3.56-5.88,5.39-1.1,1-.75,2.42-.15,3.5.31.56,1.51.9,2.34,1,3.53.36,7.11.38,10.62.92,3.84.59,7.63,1.63,11.45,2.41a17.46,17.46,0,0,0,3.6.37A1.83,1.83,0,0,0,40.36,127.68Z"/><path d="M3.87,18.77a8.09,8.09,0,0,1,2.25-.31c3,0,6,0,9,0,4.51,0,9,.18,13.53.14a15.13,15.13,0,0,0,4.15-.72,1.61,1.61,0,0,0,.38-2.9,11.47,11.47,0,0,0-3.28-1.35c-3.22-.75-6.48-1.35-9.72-2.06-1.14-.25-2.25-.63-3.37-.95v-.28A6.55,6.55,0,0,1,18,9.87C21.58,9,25.17,8.21,28.73,7.31c2.21-.56,4.57-.69,6.42-2.34a1.38,1.38,0,0,0,.41-1.66,1.24,1.24,0,0,0-1.34-.86c-2.51.26-5,.58-7.53.78-1.57.12-3.16.06-4.75.09a23.75,23.75,0,0,1,3.74-.4c1.14,0,2.3.05,3.43-.06a2.25,2.25,0,0,0,1.44-.73c.19-.26,0-1-.23-1.35s-.7-.45-1.07-.67L26.46,0a1.71,1.71,0,0,1-.38.13c-2.47.13-5,.2-7.43.4-3.75.3-7.49.63-11.22,1.06A11,11,0,0,0,1.71,3.81a1.88,1.88,0,0,0-.69,1A2.22,2.22,0,0,0,3.25,7.28c3.69-.25,7.37-.62,11.06-.93,1.54-.12,3.08-.2,4.62-.3a1.61,1.61,0,0,1-.73.38c-1.13.39-2.28.73-3.37,1.2a1.94,1.94,0,0,0-1.38,2,4.1,4.1,0,0,0,2.23,3.63,10.65,10.65,0,0,0,1.9.73c2,.53,4,1,6.28,1.56l-.65,0c-5-.13-10-.36-14.93-.35a38.25,38.25,0,0,0-6.55.77c-1.51.26-2,1.23-1.59,2.65a5.47,5.47,0,0,0,.42.79c.47,1,1.15,1,1.92.28A3.38,3.38,0,0,1,3.87,18.77Z"/></g></g></g></svg>