<svg xmlns="http://www.w3.org/2000/svg" viewBox="0 0 30.05 22.11"><title>quote-open</title><g id="Ebene_2" data-name="Ebene 2"><g id="Ebene_1-2" data-name="Ebene 1"><path d="M0,7C0,3.11,1.7,0,5.11,0c4,0,7.25,4.47,7.25,8.54,0,3-1.7,5.43-4.52,5.59v.48c0,2.31,3.19,6.22,6.66,6.22.15,0,.37.32.37.64s-.22.64-1,.64C4.66,22.11,0,13.49,0,7Z"/><path d="M15.1,7c0-3.91,1.7-7,5.11-7,4,0,7.32,4.47,7.32,8.54,0,3-1.7,5.43-4.51,5.59a1.1,1.1,0,0,0-.08.48c0,2.31,3.19,6.22,6.74,6.22.15,0,.37.32.37.64s-.22.64-1,.64c-9.33,0-14-8.62-14-15.09Z"/></g></g></svg>