<svg xmlns="http://www.w3.org/2000/svg" viewBox="0 0 30.05 22.11"><title>quote-close</title><g id="Ebene_2" data-name="Ebene 2"><g id="Ebene_1-2" data-name="Ebene 1"><path id="Pfad_153" data-name="Pfad 153" d="M30.05,7c0-3.91-1.7-7-5.11-7-4,0-7.25,4.47-7.25,8.54,0,3,1.7,5.43,4.51,5.59v.48c0,2.31-3.18,6.22-6.66,6.22-.14,0-.37.32-.37.64s.23.64,1,.64C25.39,22.11,30.05,13.49,30.05,7ZM15,7c0-3.91-1.7-7-5.11-7-4,0-7.32,4.47-7.32,8.54,0,3,1.7,5.43,4.51,5.59a1,1,0,0,1,.07.48c0,2.31-3.18,6.22-6.73,6.22-.15,0-.37.32-.37.64s.22.64,1,.64c9.33,0,14-8.62,14-15.09Z"/></g></g></svg>