<svg xmlns="http://www.w3.org/2000/svg" viewBox="0 0 225.65 27.47"><defs><style>.cls-1{fill:#ffda48;}</style></defs><title>double-underline</title><g id="Ebene_2" data-name="Ebene 2"><g id="Ebene_1-2" data-name="Ebene 1"><path class="cls-1" d="M111.44,2.32c4.1-.32.5-.25-1,.09A3.44,3.44,0,0,0,111.44,2.32ZM183.37.05A33.13,33.13,0,0,1,187,.1,18.92,18.92,0,0,1,183.37.05ZM66.89,8.3c-1.48.33-4.19.79-5.46.92A52.53,52.53,0,0,1,66.89,8.3ZM191,.55a15.54,15.54,0,0,1,3,.18C193.3.88,192.25.52,191,.55ZM94.83,4.61C93.35,5,90.22,5.37,87,5.8A67.19,67.19,0,0,1,94.83,4.61ZM68.24,8.49a23.8,23.8,0,0,1,3.87-.6C70.36,8.11,69.37,8.43,68.24,8.49ZM189.31,1.05c-1.14-.15-2.21-.05-4-.15C185.77.79,189.06.77,189.31,1.05Zm3.67.14c.44-.07,3.77.08,3.67.33C195.19,1.36,194.93,1.44,193,1.19ZM72.79,8.05c.66,0-2.73.43-3.2.63-1.43.06-4.19.63-6.13.89,1.27-.35,4-.65,5.78-1,.56-.07.82-.24,1-.15ZM27.43,15.79c.33.19-1.24.24-1.9.34C25.55,16,26.59,15.89,27.43,15.79Zm187.7-9.86c-1.17-.12-2-.4-3-.54A9.23,9.23,0,0,1,215.13,5.93Zm8.39,3.88c.63,0,2.16.76,2.13,1A14.16,14.16,0,0,1,223.52,9.81ZM10.7,20.68A41.31,41.31,0,0,1,6.18,21,22,22,0,0,1,10.7,20.68Zm-4.5.94a11.71,11.71,0,0,1-2.27.14A7.93,7.93,0,0,1,6.2,21.62Zm5.2-.2c-.27.17-1.67.15-1.94.3C8.55,21.59,10.6,21.35,11.4,21.42Zm-6.15.89c-.14-.15.59-.16.32-.34a2.51,2.51,0,0,0,1-.11c.44,0,.27.15.33.25C5.87,22.11,6.26,22.32,5.25,22.31Zm23.91,0c.23-.12,3.15-.54,2.93-.28C30.92,22.08,30.44,22.28,29.16,22.34Zm2.33.19a1,1,0,0,1,.65-.08v.13L28.9,23a16.15,16.15,0,0,1,2.92-.4C31.87,22.49,31.69,22.51,31.49,22.53Zm-13.92,2.6a14.07,14.07,0,0,1-3,.36C15.32,25.34,16.46,25.26,17.57,25.13Zm5.65.36A42.49,42.49,0,0,1,27.48,25C30.29,24.74,24.57,25.44,23.22,25.49ZM35.31,24c-4,.71-4.76.53,0,0Zm6.89-.46a26.72,26.72,0,0,1-2.92.47A16.49,16.49,0,0,1,42.2,23.58Zm8.78-1a21.66,21.66,0,0,0-2.6.32C47.35,23,51.44,22.23,51,22.56Zm38.25-5.24c-.53.22-2.44.34-3.51.54A18.73,18.73,0,0,1,89.23,17.32Zm.32,0a28.52,28.52,0,0,1,3.19-.48A31.07,31.07,0,0,1,89.55,17.34ZM60.14,22c-4,.47-7.81,1.21-12,1.76.32-.06.83-.41,1-.27C52.39,23.18,56.45,22.25,60.14,22Zm12.53-1.9a27.94,27.94,0,0,0-2.89.38C70.34,20.25,72.44,19.88,72.67,20.11ZM22.7,27a31.77,31.77,0,0,1-3.95.48C19.78,27.28,21.19,27.15,22.7,27Zm52.51-7.4c.78-.21,1.57-.09,1.6-.24C78.3,19.25,74.7,19.93,75.21,19.59Zm40.61-4.87c-1.37.36-8.54.91-2.88.27Zm50.48-2.05c-1.75.17-7.83.15-9.65.1C159.37,12.77,162.86,12.51,166.3,12.67ZM28,26.77a19.39,19.39,0,0,1-3,.44A25.57,25.57,0,0,1,28,26.77ZM197.06.63a19.68,19.68,0,0,1,3.69.54C200,1.2,198.43.73,197.06.63ZM108.82,2.56a30.34,30.34,0,0,1-3.58.5C106.15,2.86,107.48,2.7,108.82,2.56Zm-27.7,3.6C85,5.49,93.63,4.29,100.35,3.71a3.84,3.84,0,0,1-1,.18L98.4,4c-3.16.43-5.42.57-7.49,1-1.19-.26-4.44,1-7.13,1.21,0-.28,2.6-.39,3.23-.63a28.47,28.47,0,0,0-4.9.54C82.79,5.91,82,6,81.12,6.16ZM46.69,11.5c.31-.31,2.22-.41,3.19-.55C48.76,11.25,48,11.17,46.69,11.5Zm21.5-3.34a23.92,23.92,0,0,1,2.57-.46A6.4,6.4,0,0,1,68.19,8.16Zm94.8-8c.28,0,.31,0,.33.07.08.25-2.19.14-3,.16-7.38.12-16.64.11-24,.63C146.36.31,153.71.33,163,.19Zm-32.17,1.3a27.81,27.81,0,0,0,4.27-.24v.19c5-.51,11.21-.67,18.37-.77,0-.06-.4,0-.66-.05,4.6-.16,13.54.12,19.7-.09-.39.08-.13.1,0,.19,3.29-.11,6.33,0,11.17,0-.89.08.07.37-2,.28,0-.12,1.09,0,1-.17-4.62-.12-5.39.11-8.87-.09a5.34,5.34,0,0,0,1.32.08c-2.61.12-7.46-.05-11.49,0,7.48.09,15.34.08,22,.39.89,0,2.6.2,4.31.11.77.11-1.11.11-2,0,2.46.34,3.25,0,6,.19,0,.15-1.19-.05-1.68,0,1.85.27,4.92.54,8.13,1s6.54.94,8.89,1.4c-.1.06-.68-.06-.69,0,.18.24.72.05,1.33.24.66.44,3,.9,5.27,1.45,1.44.38,0,.11-.68-.09s-2.78-.65-3-.46a17.84,17.84,0,0,0-3-.55c.43.2,2.31.44,3.31.68.25.27-1.1-.12-1.37-.06,2.37.57,5.13,1.11,7.63,1.64,0-.07-.39-.17-.64-.25.63.14,2.32.62,3.89,1.17.78.29,1.53.58,2.11.83a3.85,3.85,0,0,1,1.05.61A107,107,0,0,0,206.4,4.89c4.73.71,10.75,2.79,14.36,3.57a12.79,12.79,0,0,1,1.84.89,14.75,14.75,0,0,1-3.26-.84c.09.15,1.23.41.88.53a6.55,6.55,0,0,1-2-.44,69.06,69.06,0,0,1,7.2,2.72c-.18.16-1.14-.15-2-.4.6.32,1,.6,1.77.95-4.41-1.43-9.14-2.63-14.68-3.84,2.56.75,7.36,1.93,9.78,2.85-.76-.2-2.42-.65-3.8-1.06a8.1,8.1,0,0,1-2.18-.7A4.42,4.42,0,0,0,212.7,9a30.88,30.88,0,0,1,3,.72c.84.23,1.62.5,2.65.88-1.72-.27,2,.56,3.4,1.15a20.38,20.38,0,0,1-2.81-.84c-.4-.1-.35,0,0,.12A81.63,81.63,0,0,0,208.4,9c1.87.51,6.17,1.24,7.58,1.75-1.92-.4-4.21-.92-6.66-1.37a40.07,40.07,0,0,0,5,1.22,4.32,4.32,0,0,1-1-.16,4.3,4.3,0,0,0,.92.28c-1.29-.17-3.88-.85-5.69-1.14a3.06,3.06,0,0,1-1,0c.17.24.69,0,1.26.23-.11.11-.86,0-1.3,0,1.39.5,2.42.32,4.73.93.69.11,2,.52.61.21-3-.91-3.46-.38-1.9-.29-.31,0-1.07-.15-2.54-.37a24.46,24.46,0,0,0,3.42.83c-2.47-.2,1.71.41,3.38.95.92.35-1.35-.3-1.87-.41-.73-.14-1.19-.16-2.19-.42a28.31,28.31,0,0,0,3.69,1c-2.95-.36-5.92-1.37-9.7-1.83.94.24,6,1.1,1.87.44-.74-.12-.94-.05-1.9-.24,2.53.51,7,1.26,8.7,1.83A11.07,11.07,0,0,1,212,12c.22.31.9.24,1.83.5-.2.16.49.36.19.52-1.4-.13-4.48-.94-6.8-1.29.86.2,1.5.44,2.44.66-1.18-.1-3.06-.42-4.37-.51a26.56,26.56,0,0,0,3.09.52c2.3.42,0,0-2.19-.17a10.09,10.09,0,0,0-1.28.06c-2.19-.25-5.15-.68-7.21-.74,2.39.73,9.08,1.05,13.57,2.31-4.31-.55-7.18-.65-13-1.33-.51.25,2,.16,1.53.41-7.48-1.14-18.51-1.22-24.48-1.24a3.08,3.08,0,0,0,1,.08c-1.29,0-4.21-.19-6.77-.13.88.13,5.91.09,4.83.17-2.33.1-5.92-.08-7.73.16l10.91.17c3.77.05,7.71.12,11.88.33l2.22.12c1.14,0,1.13.19,0,.06l-2.22-.11c-5-.09-14.31-.48-22.14-.3,4.47,0,9.21.11,14.11.24s9.91.34,14.93.78a19.75,19.75,0,0,1-2.5-.13c-1.27,0-4.13-.14-5.36-.31-.19.17-.47.17-2.23.11,1.25-.12-.15-.07-.63-.22.21.16-.91.05-1.61.14s.13-.17.64-.11c-6.35-.24-15.15-.42-22.18-.42l-2.9,0c-.24-.13,3.48-.09,4.83-.11-6.24-.27-10.27.33-14.81.19a5.34,5.34,0,0,0,1.29,0c-4.93.24-7.62.33-11.91.39-1.27.06-1.73.43-2.57.2,3-.49,11.52-.52,16.08-.83-5.31.11-11.27.34-16.41.65-.49.08.09.09-.31.28-2.42.2-3-.07-5.48.18a5,5,0,0,0,1.29,0c-1,.3-3.12-.1-3.85.31-1.48.14-4.55.27-7.06.52-2,.2-6.16.7-1.28.17-.77-.09-2.89.21-4.18.28-.49,0,0-.07.32-.1l11.87-1c-5.28.24-12.23.89-15.07,1.35-1.6.29-4.59.46-6.73.73,0-.15,4.11-.47,5.77-.64-4.39.24-11.79,1-17,1.72,0-.06.39-.1.64-.14-10.18.87-21.49,2.8-35.57,4.93,1.48.06-1.84.34-2.27.29,1.38-.37,4.18-.68,6.1-1-.89-.12-6.11,1.09-6.15.69l2.58-.4c-2.11.18-6.48,1-7.76,1.07,1.06-.31,3.54-.57,5.15-.86-5.62.57-9.46,1.26-16.22,2.08a19,19,0,0,1,2.59-.43c-1.7-.15-6.46,1-7.51.69a7,7,0,0,0,1.94-.32c.32,0,.26.05.34.09,1.58-.17,9.7-1.61,12.3-1.84-.14,0-1.2.24-2.89.57-1.28.1-4.07.52-4.85.71,4.27-.48,11.47-1.69,15.16-2.35-1.76.05-5.88.94-5.86.5l-5.82.81c.85-.28,3.12-.48,4.51-.74-4.07.45-9.81,1.28-14.25,2-1,.08-.62,0,0-.07l1-.13.54-.07a27.61,27.61,0,0,0-3.58.46c-1.4.18-4.45.46-7.46.78s-6,.59-7.23.82a12.4,12.4,0,0,1,2.28-.34,25.15,25.15,0,0,0-2.95.2c.68-.32,2.18-.16,3.92-.43-.21-.2-1.24,0-2,.13-.43-.11,2.77-.41,4.24-.56a9.17,9.17,0,0,1-2.28.3c10.93-.8,21.54-2.5,29.24-3.55-2.47.11-6.65.83-10.36,1.39,2-.49-2.86.26-3.91.34,2.17-.48,5.25-.6,7.08-1.26-.13.16.87,0,2.28-.2A70.51,70.51,0,0,0,40,21.7c1.82-.5,3.93-.54,6.77-1.17-1,.17-3.51.33-4.85.7-.39-.32,2.39-.46,3.53-.7a17.49,17.49,0,0,0-4.52.71c-1.22.07.95-.14.63-.22-2.12.22-5.51.9-8.74,1.22,3-.63,7.35-1.2,11.6-2-1.53.12-5.29.63-6.79.95.16.08.41-.08,1-.14-1.85.36-2.68.23-5.16.87a12.92,12.92,0,0,1,1.93-.44c-5.92.67-13.2,1.33-19.2,2a12.09,12.09,0,0,1,1.94-.43c0-.12-1.09.18-2,.17,1.69-.3,4.85-.72,6.5-.84,0-.08-.09-.11-.34-.09,3.6-.45,7.19-.58,11.34-1.41,0,.07-.39.11-.64.15,5.86-.46,13.3-1.58,19.06-2.55-3.77.09-9.84,1.71-15.19,2,2.16-.31,6.81-.91,10-1.41-.6-.24-3.94.74-3.9.37a16.35,16.35,0,0,1-2.57.49c1.3-.42-1.79,0-1.61.22-3.33.14-5.94.8-9.41,1-.5.08.3.08-.31.17-1.6.06-2.5.19-3.59.13,7.57-.76,14.24-1.61,23.6-3-.38-.09-2.12.31-2.28.14-.39.31-5.24.53-7.41,1.12.59-.2-.16-.17-.36-.28l-1,.33c.18-.31-3.75.4-4.52.58-1,.16-.87-.06-1.64,0-.38.05-.26.15-.3.23-1.07,0-3.88.51-3.58.22-.66.07-2,.48-3.22.55.25-.24.26-.17-.35-.23-.47.62-7.39.72-11,1.34A22.37,22.37,0,0,0,17,22.48a5.9,5.9,0,0,0-1.3,0c1.55-.28,3.64-.52,6.16-.72a13.9,13.9,0,0,1-3.57.44c-.29.26,1.89-.17,1,.18,1.17-.29,2.67-.2,3.88-.56a5.41,5.41,0,0,0-1.3.07c.09-.23,1.86-.29,2.9-.43.92,0-.65.36.68.2-1.85.4-3.64.51-5.83.76a13.37,13.37,0,0,0,2.29-.14c-1.69.4-5.32.54-5.84.77-.25,0-3.31.47-3.28.09,1.46-.05,2-.22,3.26-.29-1.15,0-1-.06.64-.18-2.87-.32-4.67.58-7.49.68.38-.11,1.6-.17.32-.21.84-.16,1.1,0,2-.24-2-.12-5.74.28-1.65-.17a5.63,5.63,0,0,0,2-.05c-.68,0-.28,0-.66-.08,1.42-.32,4.33-.46,5.51-.65-.11-.22-.87.08-1-.06.15-.19,1.36,0,2.59-.34-.07.12-.55.2-1.29.24,2.51-.22,5.26-.37,7.78-.79-.08-.08-1.36,0,0-.13-.29-.16-1,.15-1.61.17.11-.14,1.24-.18.94-.36a43.06,43.06,0,0,1-5.17.62,36.67,36.67,0,0,0,4.23-.2c-2,.27-4.42.38-6.78.58a64.16,64.16,0,0,0-6.52.66c1.74.05,4.17-.51,5.53-.42-1.56.21-5.93.8-5.85.43-1.61.14-4.39.18-2.93.14.87,0,.62-.17,1-.24a18.92,18.92,0,0,0,3.91-.2,29.13,29.13,0,0,1-3.26.1c-.52-.21,1.1-.09,1-.24a8.68,8.68,0,0,1-2-.24,40,40,0,0,0,6.19.05,3.61,3.61,0,0,1-1,.13c1.74.09,2.54-.46,4.86-.55a16.16,16.16,0,0,0-2.28.11c1.22-.29,3.81-.34,5.82-.67-1.4-.08-3.17.36-3.89.26.26-.16,1.66-.19,1.92-.36.22.14.21.08,1.63-.07a10.64,10.64,0,0,0-2.95-.15l-1,.28c-.4-.21-2.11.18-3.89.28-.25-.19,1.11-.16.63-.38,1.84-.15,3.64-.18,5.82-.45,0-.08-.09-.11-.34-.1.85-.19.51.19,2.27-.13a5.64,5.64,0,0,0-1.3.05,9.66,9.66,0,0,1,1.6-.27,7.94,7.94,0,0,0-3.21.47c-1.36.13,0-.1,0-.19a19.16,19.16,0,0,1-4.19.45c2.13-.3,1.54-.21,3.86-.49-2.23,0-4,.28-7.43.53a29.48,29.48,0,0,1,4.51-.5c-.1-.13-1.42.08-1.63,0,.45-.17,1.12,0,1.94-.2V20c6.31-.74,10.62-1.31,16-2.19-1.78.16-5.71.71-6.43.66a58.33,58.33,0,0,1-7.7,1.11c.29-.11,2.77-.42.63-.25.88-.23,2.56-.12,4.19-.37-3.49,0-6.16.67-8.69.78,1.66,0,3-.22,3.87-.16a27.06,27.06,0,0,1-4.51.27,11.1,11.1,0,0,1-2.57.48c-.75,0,.11-.18.64-.16a28.48,28.48,0,0,0-4.52.28c.95-.18-2.11-.22-1.61.06.38-.61,6.09-.56,9-1.12.05-.15-1.14,0-1.61,0-.71-.08,2.35-.2,3.22-.28a6.43,6.43,0,0,1-1.29.15c2.39-.07,4.51-.42,7.07-.7-1-.15,3.81-.53,5.09-1,.18-.05,2.52-.18,2.9-.27s-.14-.06,0-.19a38.42,38.42,0,0,0,4.18-.44c-.37,0-.29-.09.31-.17-.17-.15-1.4.07-1.64-.05,1.49-.16,5.21-.68,7.4-.78.77-.35,4.41-.67,7.35-1.18-1.16.17-3.16.15-3.53.45-.08-.46-4.4.58-4.22.19-5.37.92-10.31,1.43-13.42,1.92,0,.14.28.18,1,.09-2.08.5-5.83.67-8,1a10.66,10.66,0,0,1,1.6-.27c-1-.08-3.22.23-3.2.48a15.55,15.55,0,0,1-3.22.1c-1.15.53-4,.4-5.43.84-.06-.33-.53,0-1.92.16,0,.06.39,0,.64,0-.2.25-1.46,0-1.92.28-.37-.05.07-.16-1-.17-.48,0,.13.08,0,.19-.84,0-.26-.24-1.29-.16-.28-.13,1.63-.17.64-.21a17.86,17.86,0,0,1,3.53-.12c.86-.25-2.61-.14-3.54,0,.85-.25-2.44,0-3.21-.11.18-.07.89-.12.32-.14,1.86-.15,3.56-.13,6.09-.31-1.72-.2,2.77-.17,3.51-.5-.59.35-3.33.35-3.83.71.65.3,1.74-.09,2.26.16,1,0,.72-.24,1.92-.22-.2-.06-.75-.21.32-.22a6,6,0,0,0-1.93.16c-1.27-.27,3.95-.48,3.51-.66,3.66-.22,5.49-.86,10.21-1.23-.05-.19.88-.34,2.53-.52a7.19,7.19,0,0,1-.94.23c.06.18,1.34,0,2.25-.1a9.57,9.57,0,0,0-1.93.13,12.94,12.94,0,0,1,2.21-.49c0,.08.09.11.34.09,6.51-1.1,10.27-1.22,16.9-2.59-.55-.2-2.23.36-3.85.48a54.2,54.2,0,0,1,6.72-1,5.46,5.46,0,0,1-1.58.37A10,10,0,0,0,47,13.32c.32-.13.28-.22.6-.35,1.06-.21.54,0,.35.14,2.64-.66,7.69-1.5,12.79-2.24-3.56.3-7,1-10,1.28,1.51,0-3.57.81-4.79.86a13.31,13.31,0,0,1,2.23-.4C38.8,13.88,32,15,23,16.26c.06-.06.31-.1.31-.16-2.26.29-3.48.55-5.74.66-.47.07.13.07,0,.19-1.32.16-2.81.22-4.3.29s-3,.18-4.33.36c-.23,0,4.75-.39,1.6-.07-1,.39-4.44.46-6.38.67,1.07-.31,3.45-.65,5.4-1,3.08.07,6.8-.73,9.25-.8,4.49-.07,9.5-1.32,15.29-1.93-.31-.19-1.28.18-2.25.16,4.82-.85,10.86-1.64,14.36-2.11-5.72.61-13.66,1.74-19.82,2.48a40.18,40.18,0,0,0,4.8-.42,44.31,44.31,0,0,1-6.05.75,3.46,3.46,0,0,1,.95-.16c-.66-.09-2.65.24-3.83.32,13.53-1.67,27.61-4,40.83-6.24A10.63,10.63,0,0,1,65,9l-2.26.36c-5.5.9-10.11,1.83-15.66,2.69.8.07,3-.39,3.88-.32.48-.11,0-.08-.33,0,9.76-1.5,20.08-3.25,30.25-4.78,6.61-1,11.17-1.48,19.2-2.45-3,.12-6.28.74-8.5.8,7.13-1,14.34-1.61,21.55-2.32a12.13,12.13,0,0,0-2.3.08,90.23,90.23,0,0,1,10.8-.85c-2-.15,5.64-.55,1.63-.25,3.89-.35,7.86-.62,12.78-.93C135.62,1.24,132.3,1.21,130.82,1.49ZM57.17,17.75c-.5-.26-4.17.66-5.18.6C53,18.58,54.86,17.94,57.17,17.75ZM24.3,19.89c-1.34.29-2.77.12-4.51.5.47,0,1,0,1,.18C22,20.26,24.39,20.1,24.3,19.89Zm1-3.14c-1.8.34-3.5.65-5.09.83a3.41,3.41,0,0,1,1,0c-.2,0-.38,0-.31.09a4.74,4.74,0,0,1,1.61,0c.19-.15,1.62-.18,1.26-.39a5.92,5.92,0,0,1-1.29.07c1.06,0,2-.38,1.29-.07a3.25,3.25,0,0,1,1.6-.16C25.51,16.92,26.38,16.68,25.27,16.75Zm120-15.51a31.26,31.26,0,0,0-3.27.2A31.07,31.07,0,0,0,145.27,1.24ZM64.19,10.05c2.92-.54,5.16-.6,6.44-1.06C68.76,9.31,64.44,9.87,64.19,10.05ZM6.37,17.86c.74.21,2.77-.34,1.27-.26C8.16,17.83,6.26,17.69,6.37,17.86Zm23-1.84c-2.28.41,1.73-.29,2.26-.07-.25.05-.63.08-.63.14a13.13,13.13,0,0,0,2.21-.47A24.41,24.41,0,0,0,29.41,16Zm8.31-1a8.22,8.22,0,0,0-1.92.25A4.06,4.06,0,0,0,37.72,15ZM16,18a15.49,15.49,0,0,0,3.83-.53C18.79,17.68,16.7,17.76,16,18Zm-.63.18c.09-.1.45-.16.3-.29-.85,0-2.68.28-1.59.37.09-.06,1.41-.27,1.28-.15S15,18.2,15.39,18.19ZM22,19.66c1.15-.15,4.63-.4,4.18-.49a18.29,18.29,0,0,1-2.58.2c.69-.09,3.44-.3,2.57-.33C24.5,19.22,22.4,19.36,22,19.66Zm20-1.84a22.82,22.82,0,0,0-3.87.54C39.15,18.3,40.36,18,42.05,17.82Zm-1.54.75a11.63,11.63,0,0,0-3.56.35C38.21,18.79,39.5,18.62,40.51,18.57ZM17.58,21.31c1.43-.17,3.11-.29,4.2-.5A24.15,24.15,0,0,0,17.58,21.31Zm13.29-1.22c.6-.1,1.95-.15,1.59-.33l-1.61.2Zm9.67-1.33c2.85-.41.33-.22-2.26.32A22.58,22.58,0,0,0,40.54,18.76Zm164-10.29a9.1,9.1,0,0,0,2.29.09A10,10,0,0,0,204.53,8.47ZM28.3,20.58a14.22,14.22,0,0,0,2-.09C30.68,19.94,26.47,20.91,28.3,20.58ZM31.84,20a9.69,9.69,0,0,1-1.61.19C29.81,20.52,32.44,20.29,31.84,20ZM28,20.49c-4.5.37-1.3.43,0,0Zm8.73-1c1.7-.32-3,.27-4.52.59A36.59,36.59,0,0,0,36.69,19.48Zm9.62.52c2.84-.41,5.77-.82,9.66-1.47,1.78-.3,5.87-1.21,7.7-1.34,1.37-.1-1,.28.64-.1,1.23-.28,2.9-.34,3.86-.6-1-.22-5.34.9-5.2.48C52,19,40.53,20.29,25.86,22.24c4.25-.38,8.93-1.11,13-1.45-4.45.55-4.45.69-.64.15a32.33,32.33,0,0,0,3.22-.57c1.41.12,8.35-1.23,12-1.57C51.22,19.25,48.61,19.37,46.31,20ZM20,23c1.42-.15,3.69-.27,4.55-.5A38.55,38.55,0,0,0,20,23Zm27.72-2.23c1.36-.25,3.84-.46,4.18-.76-.91.19-.85,0-1.63.18C50.72,20.41,47.72,20.46,47.74,20.78ZM75.67,7.35c-5.57.82-1.57.2,1.59-.37.68,0,2.7-.37,3.9-.5C82.68,6.39,77.1,7.24,75.67,7.35ZM19.05,15.7a23.66,23.66,0,0,0,4.47-.29c-1.06.37-6,.61-7.63,1C16.24,16,18,16,19.05,15.7Zm-3.17.47a38,38,0,0,1-4.77.46C9.54,16.76,14.23,16.24,15.88,16.17Zm12.82-.66,2.55-.3c-.61.31-2.34.24-2.53.49C28.24,15.73,28.84,15.6,28.7,15.51Zm-24.54,3a14.42,14.42,0,0,1-1.92.24c-.07-.27,1.2-.3,1.91-.44.71.08-.4.17.32.19C4.42,18.6,4.16,18.56,4.16,18.53Zm25-1.56a11.29,11.29,0,0,0-1.92.22,12.61,12.61,0,0,1,4.47-.65C31.17,16.76,29.49,16.56,29.19,17Zm194.62-7c-.33,0-1.2-.33-1.36-.21C221.88,9.41,221.57,9,223.81,10ZM2.27,20.09c.35-.2.35.09-.32.07.4.05,1.27.32,1.62.16.21.15-1.95.44-3.55.48a16,16,0,0,1,2.58-.39c-.07-.05-.32-.06-.33-.13a1.79,1.79,0,0,0-.64.15C.89,20.4,1.79,20.12,2.27,20.09Zm3.58.75c.07.2-1.15.28-1.62.19.15.12.93.09.66.31a16,16,0,0,1,2.92-.06c-.08.18-2.69-.09-2.59.25-.56-.05-1.25-.12-.65-.25A7.54,7.54,0,0,0,3,21.45c-1.54.28.86-.17.64-.21-.75-.16-4.73.19,0-.07a6,6,0,0,0-1.3,0c1-.12,1.72-.31,2.91-.4A1.45,1.45,0,0,0,5.85,20.84Zm5.5-.14c.37,0,.19.05,0,.07a3.4,3.4,0,0,0,1,0l0,.33a2.19,2.19,0,0,0-1,.2c-.37,0-.18-.05,0-.06-.33,0-1.44,0-1.3.14-.66-.19-.51,0-1.62.07.51-.13-.17-.29-1-.28.2-.2,2.09-.24,1.3,0l1.3-.06a1.72,1.72,0,0,0-.66-.1c.74-.24,1.46.08,2.6-.08a11.53,11.53,0,0,0-1.63,0C10.46,20.8,11.35,20.81,11.35,20.7Zm.37.63c1.56-.27,3.68-.14,4.86-.27-.94.2-3,.22-2.23.62-.31,0-.51-.15-.66,0-.57,0,.47-.27.63-.37A23.93,23.93,0,0,0,11.72,21.33Zm-1.56,1.28c-.36.16-2.15.11-2.27.31C7.3,22.83,9.23,22.5,10.16,22.61Zm2.73,1.81c1.21-.41,6.86-.87,9.76-1.39a62.45,62.45,0,0,1-7.47,1.1c.85.17,2.66-.36,3.6-.22.19.2-1.45.39-2.57.48s-1.69.06.62-.12a8.64,8.64,0,0,1,1.31-.17C17.1,24,13.59,24.37,12.89,24.42ZM23.31,23c.1-.11.58,0,.64-.13,1.52-.16,3.05-.3,4.56-.49a40.75,40.75,0,0,1-4.22.52A3.14,3.14,0,0,1,23.31,23Zm-.29.43c.67-.11,2.77-.27,5.22-.49a44.78,44.78,0,0,1-6.84.71c.33-.15,1.34,0,2.61-.19A5.93,5.93,0,0,0,23,23.46Zm-7.11,1.68c-1.31-.08,2.07-.33,2.29-.26C18.05,25,16.37,25,15.91,25.14Zm46.47-3.55a45.81,45.81,0,0,1,5.13-.87C66.85,21.09,63.67,21.41,62.38,21.59Zm109.39-8.9a5.65,5.65,0,0,0-1.29-.08c.94-.15,3.3.07,5.8.06-1.47.29-2.67-.08-4.51.08C171.41,12.74,171.59,12.69,171.77,12.69ZM77.54,6.61a5.82,5.82,0,0,1,1.94-.29,16.55,16.55,0,0,1-4.19.76c.64-.17,1.48-.25,2.91-.5C78.18,6.52,77.79,6.59,77.54,6.61Z"/></g></g></svg>