<svg xmlns="http://www.w3.org/2000/svg" viewBox="0 0 572.61 438.33"><defs><style>.cls-1{fill:#fff;}</style></defs><title>logo</title><g id="Ebene_2" data-name="Ebene 2"><g id="Ebene_1-2" data-name="Ebene 1"><path class="cls-1" d="M421.49,324.91c-7.87,17-19.62,23.94-36.73,23.1-15.42-.76-30.92-.68-46.35,0-13.17.58-22.91-3.16-27.32-17.79-8.22,19.4-22.44,25.91-41.62,24.79-13.74-.81-27.56-.4-41.34-.08s-24.67-3-27.51-21.18c-10.73,19.12-26.27,22.21-44,21.24-13.33-.72-26.73,0-40.09-.16-19.91-.18-27.77-10.25-23.65-29.91,1.6-7.65,3-15.35,4.1-21.35-24.14,0-47.65.31-71.15-.09-18-.31-25.22-8.63-22-26.49,5.4-30.27,11.46-60.44,17.9-90.51,2.78-13,12.09-22.31,24.9-23.17,22.86-1.54,45.9-.48,68.87-.26,2.31,0,4.6,1.78,8.67,3.46,3.38-15.63,6.82-30.81,9.95-46,5.18-25.24,10.09-50.54,15.27-75.78C153,27,164.62,17.62,182.9,17.5c15-.11,30.07.19,45.11-.09,13.27-.26,26.47-.95,33.24,14.79.67-3.47,1.17-7,2-10.4C267.55,5,274,0,291.22,0c21.72,0,43.44,0,65.16,0,13,0,17.23,4,16,17.28-1,11.09-3.6,22-4.74,34.66,13.17-18.66,32.16-14.39,49.93-14.58,12.11-.12,24.23-.28,36.33.09,14.18.43,22.08,10.22,19.81,24.15-.94,5.74-2.43,11.39-3.53,17.1a104,104,0,0,0-2,17.27c12.42-17.8,30.47-16,48.13-15.79,12.53.17,25.07-.3,37.58.15,13.49.48,20.21,6.35,18.46,19.23-4.29,31.63-9.6,63.15-15.52,94.52-7.56,40-16.19,79.8-24.22,119.72-4,19.68-14.53,28.86-34.48,29.06-16.7.16-33.43-.44-50.11.19C435.14,343.56,426,339.41,421.49,324.91ZM237.7,272.28c2.82-10.76,5.72-19,7-27.44,2-13.26,8.95-18.41,22.27-17.21a186.79,186.79,0,0,0,30-.15c2.69-.19,5.12-3.86,7.67-5.94-2.62-1.44-5.2-4-7.87-4.12-12.51-.44-25.06-.62-37.55-.06-14.33.65-21.45,6.95-25.53,21.09-2.41,8.38-4.95,16.72-7.16,25.14-3.07,11.78,1.33,18.64,13.63,19.19a459.66,459.66,0,0,0,47.54-.11c15-.89,28.57-19.23,25.37-33.09-.41-1.81-3.13-4.36-4.85-4.41-12.09-.35-24.21-.47-36.28.19-2.17.12-4.13,4.19-6.19,6.43,2.36,1.2,4.68,3.31,7.1,3.44,8.23.44,16.5.17,24.75.17l2.53,3.29c-4.27,4.53-8.17,12.47-12.86,13C271.74,273.3,255.89,272.28,237.7,272.28Zm176-35.73H357.32c.94-3.7,2.33-6.5,2.18-9.22-.17-3.26-1.66-6.45-2.57-9.67-3.21,1.9-8.46,3.17-9.29,5.81-5.88,18.87-10.87,38-16.47,58.28,4.32.34,9.05,1.5,9.45.64,5.13-11,9.63-22.24,14.53-34h55.12c-2.25,8.72-4.64,16.63-6.17,24.7-.56,2.94.94,6.28,1.51,9.43,3.28-1.63,8.71-2.58,9.5-5,5.61-17.36,10.43-35,15-52.64.52-2-1.87-6.83-2.82-6.81-2.88.07-7.1,1.09-8.29,3.17C416.45,225.81,415.4,231.25,413.65,236.55ZM31.2,280.17c7.91,5.09,12.11,2.65,14.34-4.26,2.05-6.31,4.35-12.64,5.36-19.14,1.15-7.44,4.91-9.31,11.91-9,12.07.49,24.2.52,36.25-.14,3.28-.18,6.39-3.5,9.58-5.39-3.31-1.63-6.57-4.54-9.94-4.67-13.71-.54-27.45-.22-41.17-.22-.51-1.25-1-2.49-1.54-3.73,3.8-1.93,7.52-5.32,11.41-5.52,13.3-.7,26.68.09,40-.55,3.18-.15,6.2-3.63,9.3-5.58-2.87-1.57-5.7-4.44-8.6-4.51-16.67-.44-33.38-.76-50,.17-4.07.23-10.18,4.5-11.41,8.22C40.83,243.45,36.35,261.53,31.2,280.17Zm458-52.39c-2.49,8.92-4.53,16.08-6.49,23.26s-4.31,14.36-5.51,21.69c-.51,3.13,1.48,6.66,2.33,10,3.08-2.06,7.81-3.47,8.93-6.3,3.33-8.45,5.24-17.45,7.71-26.24,6.23-22.17,6.23-22.17,29.19-22.4,2.09,0,4.51.63,6.18-.21,2.64-1.33,4.77-3.65,7.12-5.55-2.35-1.61-4.67-4.57-7-4.61-22.52-.35-45.06-.4-67.58.08-2.71.06-5.33,3.81-8,5.85,2.59,1.48,5.1,4,7.78,4.22C471.65,228.15,479.57,227.78,489.17,227.78Zm-336.7,50c1,1.15,3.55,5.11,4.44,4.77,3.37-1.27,8.06-3.35,9-6.17,5.14-16.14,9.6-32.52,13.61-49,.71-2.9-1.84-6.59-2.88-9.91-3,2.22-7.89,3.87-8.82,6.77C162.38,241.15,157.9,258.37,152.47,277.75Z"/><path class="cls-1" d="M428.87,410.84c-10.2-.75-19.66-1.41-29.1-2.21-.56,0-1-1.21-3.08-3.84,15-8.56,30.45-2.18,44.9-4.34,2.45,25-7.8,36.8-31.08,37-10.84.1-21.7.31-32.53-.07-15.37-.53-19.87-6.82-16-21.43,2-7.62,4.28-15.19,5.83-22.91,2.54-12.57,11.11-18.6,22.72-19.62,12.42-1.1,25-.54,37.52-.22,2.26.06,4.46,2.47,6.69,3.8-2.2,1.86-4.32,5.19-6.63,5.32-10.4.61-20.85.49-31.27.28-9.59-.18-16.21,2.85-17.46,13.43-.39,3.26-1.7,6.41-2.57,9.61-6,22.3-6,22.3,17.76,22.31,5.42,0,10.86-.29,16.26.06C422.7,428.79,429,423.76,428.87,410.84Z"/><path class="cls-1" d="M122.9,437.49c-40.3,0-40.82-.67-30.05-38.83,6.09-21.6,11.48-25.61,34.57-25.64,10.43,0,20.91-.48,31.3.21,13.07.85,17.69,7.66,14.61,20.17-1.49,6.05-3.26,12-4.88,18-5.86,21.66-11.56,26-34.28,26.05Zm14.71-54.82c-28.47,0-28.47,0-35.85,27-.76,2.8-1.34,5.65-2.22,8.4-2.06,6.43.51,9.66,7,9.84,7.9.21,15.81.09,23.72.1,21.51,0,21.32-.06,27-20.26C164.53,381.47,166.92,382.58,137.61,382.67Z"/><path class="cls-1" d="M472.94,393c13.29,0,26.58-.21,39.86.18,2.7.08,5.34,2.4,8,3.69-2.64,1.88-5.18,5.2-7.93,5.38-10,.66-20.14,1.16-30,0-11.61-1.3-16.89,3.32-18,14.32-.34,3.23-1.38,6.39-2.42,11h55.19c-3.94,4.95-5.75,9.25-7.65,9.29-20.19.49-40.4.31-62.53.31,5.73-21.25,10.45-40,16.14-58.51.81-2.64,6.21-5.34,9.58-5.47,15-.59,30.07-.51,45.1,0,2.79.09,5.49,3.1,8.23,4.77-3,1.55-5.88,4.29-8.9,4.43-11.68.53-23.42-.26-35.06.51-3.83.25-7.44,3.76-11.15,5.77Z"/><path class="cls-1" d="M288.94,394.28c-7.22,12.54-3.45,32.55-17,44.05l-5.78-2.2c1.94-8.18,3.77-16.39,5.84-24.54,2.55-10,5-20.11,8-30s7.33-11.2,14.76-3.68c13.38,13.56,26.42,27.46,41.07,42.74,4.14-14.48,7.3-27.11,11.57-39.35,1.14-3.26,5.73-5.31,8.73-7.92.66,3.57,2.52,7.42,1.77,10.68-3.35,14.53-7.28,28.94-11.32,43.31-3.42,12.15-7.43,12.83-16.93,4C316.26,418.84,302.59,406.68,288.94,394.28Z"/><path class="cls-1" d="M188.55,426.83c17.9,0,33.9.5,49.81-.47,2.8-.17,6.31-6.17,7.58-10.09,3.59-11,5.63-22.61,9.45-33.56,1.32-3.77,6.1-6.34,9.29-9.46.68,3.87,2.58,8,1.82,11.56-2.34,10.95-6.27,21.56-8.52,32.53-2.87,14-12.34,19.28-25,19.94-12.92.68-25.92.62-38.85,0-14-.63-18.39-7-14.89-20.19,3.32-12.44,6.38-25,10.46-37.17.94-2.82,5.58-4.41,8.52-6.57.74,3.22,2.71,6.72,2,9.6C197,396.72,193.05,410.28,188.55,426.83Z"/><path class="cls-1" d="M10.06,427.86H75.23c.29,1.78.58,3.55.88,5.33-3.52,1.43-7,4-10.56,4.1-16.23.44-32.48.54-48.71.07C2.1,436.94-2.42,430.7,1.17,416.82c3.2-12.43,6.3-24.91,10.36-37.06.92-2.74,5.61-4.23,8.56-6.29.67,3.2,2.48,6.66,1.8,9.54C18.68,396.69,14.8,410.22,10.06,427.86Z"/></g></g></svg>