<svg id="Ebene_1" data-name="Ebene 1" xmlns="http://www.w3.org/2000/svg" viewBox="0 0 614.1 475.1"><defs><style>.cls-1{fill:#dc001b;}</style></defs><title>logo</title><path class="cls-1" d="M967,403.92c-3.87,4.82-7.33,10.31-11.92,14.57-8.2,7.6-18.75,8.5-29.4,8.44q-25.12-.14-50.25-.16c-14.08,0-20.32-4.28-25.49-17.51a8.52,8.52,0,0,0-.79-1.18c-.82,1.69-1.52,3.12-2.21,4.57-6.85,14.28-18.64,21-34,21.37-18,.39-36,.22-54,.14-9.33,0-18-2-23.53-10.54-1.91-3-3.12-6.38-4.73-9.76-.64.86-1.29,1.62-1.84,2.45-8,11.93-18.71,18.16-33.45,17.75-19.33-.54-38.69-.36-58-.6a31.45,31.45,0,0,1-7.64-1.14c-8.78-2.36-14.13-8.5-13.88-17.55.2-7.47,1.78-14.91,2.91-22.33.81-5.31,1.89-10.57,2.94-16.37-4.64,1-8.83,2.37-13.09,2.62-9.54.57-19.1.7-28.66.75-12.26.07-24.53-.07-36.79-.21a28.25,28.25,0,0,1-6-.75c-12.16-2.83-18.38-12.34-15.84-25.24Q531.38,302.15,542,251.16c2.93-14,12.34-22,26.55-22.28,26.21-.49,52.42-.41,78.63-.57h4.32c1.6-7.87,3.17-15.55,4.71-23.24,6.93-34.61,13.71-69.25,20.84-103.82,3.9-19,16.2-28.67,35.62-28.77,10.68-.06,21.37.24,32.06.23,8.09,0,16.19-.21,24.29-.41C780.44,72,789,76.53,794.18,87a5.78,5.78,0,0,0,.55.84c.06.07.19.1.52.25.7-3.2,1.28-6.37,2.1-9.48,3.37-12.71,10.56-22.53,22.33-28.62a17.61,17.61,0,0,1,7.63-2c22.73-.15,45.47-.09,68.2-.09,8.31,0,18.67,8.54,19.11,16.9.34,6.4-.69,13-1.67,19.34-1.37,9-3.26,17.88-5,27.2,2.92-2.85,5.54-5.4,8.14-8a34.08,34.08,0,0,1,25.48-10.31c19.92.3,39.84.11,59.76.17,12.5,0,22,9.09,21.31,21.55-.48,8.68-2.77,17.26-4.18,25.89-.69,4.25-1.22,8.54-2,13.73,1.84-1.74,3-2.81,4.08-3.84,8.85-8.05,19.62-10.69,31.16-10.69,13.94,0,27.89.37,41.83.53,6.05.07,12.15-.48,18.14.12,8,.8,13.86,5.52,18.17,12.13a9.82,9.82,0,0,1,1,3.8c1.32,8.94-2.06,17.22-3.76,25.71q-15.94,79.83-32,159.62c-3.39,16.85-6.64,33.73-10.23,50.53a46.4,46.4,0,0,1-4.33,11.64c-6.65,12.81-18.17,17.64-31.79,17.9-18.56.35-37.14.25-55.71.12-11.77-.09-20.46-5.3-25.15-16.44A13.88,13.88,0,0,0,967,403.92ZM842.35,290.84c-3.22-1.29-6.19-3.47-9.21-3.53-13.94-.28-27.89-.12-41.83.19-10.93.24-18.81,5.62-22.26,16-3.84,11.49-7.17,23.19-10,35-2.45,10.19,2.35,16.76,12.67,18.16a109.86,109.86,0,0,0,15.82.72c12.36-.11,24.74-.14,37.08-.82,10.89-.6,18.6-6.3,22.27-16.75a143.35,143.35,0,0,0,4.42-15.19c1.37-5.92-.52-8.27-6.62-8.36-10.46-.14-20.93.11-31.39-.1-5.22-.1-8.61,2.4-11.39,6.36a14.43,14.43,0,0,0,12.37,5.72c4.16-.14,8.33,0,12.49,0H835c.55,10.47-4.4,17.8-12.76,18-14.5.4-29,.23-43.52.05-4.58-.06-6.85-3.3-6.15-7.81a43.15,43.15,0,0,1,1.14-4.58c2.18-7.78,4.49-15.54,6.55-23.36,2.38-9,6.79-12.62,16.07-12.64,11.25,0,22.5-.22,33.74.08C835.42,298.09,839,295.93,842.35,290.84Zm57.34,17.08c0-5.69.13-10.92-.06-16.14-.07-2-.86-4.4-3.41-4.24a10.6,10.6,0,0,0-5.92,2.08c-1.41,1.17-2.2,3.38-2.73,5.27-4.77,16.85-9.5,33.71-14,50.63a16,16,0,0,0,.16,7.58,5.46,5.46,0,0,0,9.71,2.09,17.49,17.49,0,0,0,2.87-6c2.6-8.48,5.12-17,7.46-25.54.65-2.38,1.68-3.15,4.15-3.14,18,.11,36,.06,54,.07,1,0,1.93.13,3.1.22-2.15,8-4.1,15.72-6.35,23.34-1.32,4.47-.14,8.32,1.88,12.42a19.4,19.4,0,0,1,2.87-1.16c4.89-1.18,7.35-4.25,8.62-9.15,4.2-16.19,8.66-32.31,13.27-48.39,1.24-4.31-.45-7.26-2.54-10.11-7.11.85-10.53,4.56-11.47,11.41-.82,6-4.78,8.7-10.88,8.73q-23.79.11-47.57.16C901.72,308.07,900.62,308,899.69,307.92ZM642.4,291.2c-3.22-2.52-6.49-4.2-10.78-4.14-17.08.27-34.16.23-51.24.38-6.76.06-11,3.19-12.89,9.63-4.5,15.64-8.73,31.36-13.32,47-1.37,4.69,0,8.52,2,12.45,7.49-2.66,9.19-4,11.63-11a93.89,93.89,0,0,0,3.72-14c1.76-9.58,5.45-12.27,15.26-11.94,11.44.38,22.9-.05,34.35.13,5.42.08,8.26-3.61,11.75-6.49-4.47-4.26-9.58-5.23-15.18-5.18-11.69.09-23.38-.07-35.08-.12-1.08,0-2.16,0-3.21,0-.55-7.3,2-10.09,8.75-10.09,13.27,0,26.54-.19,39.79.14C634,298.12,638.73,296.35,642.4,291.2ZM1039,297.87c-.26,1-.41,1.68-.58,2.32-4,14.85-7.91,29.72-12,44.53-1.21,4.35-.08,8,1.95,11.9,2.53-1.25,5.15-2,7.07-3.64s3.94-3.87,4.61-6.21c4-13.92,7.49-28,11.25-41.94,1.45-5.4,3.92-7.1,9.51-7,6.39.06,12.79-.11,19.18.15,5.27.21,8.49-2.7,12.15-7.16-3.42-1.42-6.4-3.69-9.4-3.73-22.37-.28-44.75.06-67.12-.21-5.3-.06-8.19,2.57-11.05,6.11,4.4,4.29,5.68,4.89,11.09,4.91C1023.29,297.89,1030.92,297.87,1039,297.87ZM684.6,356.35c6.87-1.39,10.86-5.35,11.76-12.19,0-.11.1-.2.13-.31q6.91-24.8,13.82-49.58c.65-2.34-1.83-6.39-3.83-6.41-3.46,0-8.93,4-9.93,7.46-4.54,16-8.84,32-13.62,47.87C681.47,348.07,682.34,352.17,684.6,356.35Z" transform="translate(-517.06 -47.9)"/><path class="cls-1" d="M648.7,522.82c-8.33,0-16.65,0-25,0-7.32,0-15.08-8.22-13.4-15.27,3.14-13.19,6.6-26.36,11-39.17,3.26-9.48,11.27-14.25,21.23-14.47,15.16-.34,30.33-.13,45.5-.05a22.93,22.93,0,0,1,6,1c7,2,10.58,7.27,9.73,14.49a72.16,72.16,0,0,1-1.79,8.55c-1.79,7.29-3.75,14.54-5.44,21.85-2.41,10.5-8.53,17.9-18.28,22.31a10.63,10.63,0,0,1-4.24.75C665.57,522.86,657.13,522.82,648.7,522.82ZM659.24,512v.49c2.7,0,5.39.1,8.08,0,9.59-.42,14.06-4.61,16.15-14,1.8-8.07,4.07-16.06,6.45-24,1.93-6.43.21-9.89-6.43-10.09-12.79-.39-25.6-.58-38.39-.2-8.66.25-12.1,4-14.22,12.53s-4.44,16.91-6.86,25.32c-1.87,6.51,0,9.68,6.66,9.86C640.19,512.23,649.72,512,659.24,512Z" transform="translate(-517.06 -47.9)"/><path class="cls-1" d="M981,457.23c-3.08,5.75-7.36,6.75-12.45,6.65-9.45-.18-18.9,0-28.35,0-10.88,0-16,4.39-18.49,14.86-2.25,9.61-4.91,19.13-7.38,28.69-.14.54-.22,1.09-.47,2.3,4.08.9,8,2.45,12,2.53,11.68.25,23.4.23,35.07-.28,8.28-.37,10.86-3.09,12.78-11.27.48-2,.75-4.13,1.21-6.67-6.45,0-12.5,0-18.55,0-4.73,0-9.21-.56-12.64-4.29-.21-.23-.38-.51-.58-.77,2.69-4.14,6-6.56,11.32-6.43,9.22.24,18.45-.19,27.67-.19,6.16,0,8.28,2.25,7.47,8.35-1.15,8.55-3.38,16.83-9.2,23.53-4.74,5.46-10.44,8.79-18.17,8.64-15.3-.32-30.61-.1-45.92-.1A14.36,14.36,0,0,1,902.06,510a30.83,30.83,0,0,1,.89-10c2.19-8.82,4.84-17.53,7.15-26.32,3.24-12.32,11.92-19.6,24.76-19.87s25.63-.26,38.43.07C975.89,454,978.44,456.08,981,457.23Z" transform="translate(-517.06 -47.9)"/><path class="cls-1" d="M827.3,472.38c-3.59,11.5-7,22.51-10.46,33.52-1.37,4.4-2.93,8.75-4,13.21-.72,2.91-2.06,4.21-5.09,3.75a31.85,31.85,0,0,0-4.43,0c0-4.09-.74-8,.12-11.53,4-16.25,8.33-32.41,12.76-48.55,3-10.84,7.89-12.17,15.65-4.17q18,18.53,35.52,37.45c2.34,2.52,3.94,5.71,6.44,9.41,1.22-2,2.69-3.51,3.21-5.32,3.71-12.84,7.22-25.74,10.83-38.61,1.37-4.86,3.49-6.56,7.88-7,2.66-.26,4.18.84,4.52,3.31a12.61,12.61,0,0,1-.19,4.94c-5.28,19.16-10.69,38.29-16,57.45-.55,2-1.48,2.56-3.48,2.68a10.63,10.63,0,0,1-9.36-3.83C857.64,504.2,843.76,489.62,830,475,829.29,474.22,828.53,473.56,827.3,472.38Z" transform="translate(-517.06 -47.9)"/><path class="cls-1" d="M1078.61,457.79a15.42,15.42,0,0,1-13.25,6.18c-11.36-.3-22.73-.09-34.09-.06-7.31,0-10.18,3.09-9.8,10.86,4.31,0,8.65,0,13,0,9.22.14,18.44.23,27.64.61a21.53,21.53,0,0,1,7.1,2c1.26.53,3.21,2.08,3.06,2.76-.38,1.68-1.46,3.75-2.88,4.52a14.26,14.26,0,0,1-6.5,1.26q-21.42.17-42.85,0c-2.19,0-3.13.66-3.65,2.84-1.76,7.32-3.75,14.57-5.62,21.86a16.46,16.46,0,0,0-.25,2.52h58.7c-2,3.36-3.61,6.23-5.41,9-.31.48-1.38.67-2.1.67q-31.21,0-62.45,0a5.65,5.65,0,0,1-1.15-.28,24.59,24.59,0,0,1-.3-12.86c4.19-15.62,8.19-31.3,12.35-46.93,1.78-6.67,5.44-9.37,12.2-9.33l32.38.25c4.39,0,8.78.3,13.16.11S1075.35,455.54,1078.61,457.79Z" transform="translate(-517.06 -47.9)"/><path class="cls-1" d="M799.23,454.14c2.49,4.62,4,9,2.43,14.46-3.57,12.17-6.41,24.56-10,36.72a21.78,21.78,0,0,1-5.75,9.27c-5.65,5.28-12.09,8.72-20.52,8.39-14.26-.56-28.57-.16-42.86-.16a14.77,14.77,0,0,1-14.89-14.4,25.72,25.72,0,0,1,.85-7.67c3.21-11.69,6.86-23.27,9.87-35,1.53-5.95,5.62-8.79,10.72-11.32,1.75,4.48,3,8.72,1.57,13.49-3,10.35-5.79,20.77-8.67,31.16-.27,1-.63,1.93-.85,2.91-1.46,6.43.85,10.24,7.35,10.37,12.7.27,25.43.26,38.11-.33,8.35-.4,12-4.52,14-12.6,2.85-11.43,6.25-22.73,9.06-34.17C791,459.74,794.79,456.9,799.23,454.14Z" transform="translate(-517.06 -47.9)"/><path class="cls-1" d="M599.24,513.5c-1.61,3.19-2.8,5.83-4.28,8.28a3.46,3.46,0,0,1-2.59,1c-20.58.05-41.16.11-61.74,0-7.43,0-15.11-9.1-13.3-16.32,3.72-14.8,7.93-29.48,12.34-44.09.77-2.56,3.13-5,5.39-6.64,1.47-1.06,4.31-1.16,6.15-.54,2.48.83,2,3.39,1.44,5.55-3.5,13.12-7,26.24-10.49,39.37-2.62,10-1.06,12.11,9.34,12.23,16,.2,31.93.16,47.9.31C592.41,512.68,595.42,513.16,599.24,513.5Z" transform="translate(-517.06 -47.9)"/></svg>