<?xml version="1.0" encoding="utf-8"?>
<!-- Generator: Adobe Illustrator 24.0.1, SVG Export Plug-In . SVG Version: 6.00 Build 0)  -->
<svg version="1.1" id="Ebene_1" xmlns="http://www.w3.org/2000/svg" xmlns:xlink="http://www.w3.org/1999/xlink" x="0px" y="0px"
	 viewBox="0 0 614.1 475.1" style="enable-background:new 0 0 614.1 475.1;" xml:space="preserve">
<style type="text/css">
	.st0{fill:#DC001B;}
</style>
<title>logo</title>
<path class="st0" d="M449.9,356c-3.9,4.8-7.3,10.3-11.9,14.6c-8.2,7.6-18.8,8.5-29.4,8.4c-16.7-0.1-33.5-0.1-50.3-0.2
	c-14.1,0-20.3-4.3-25.5-17.5c-0.2-0.4-0.5-0.8-0.8-1.2c-0.8,1.7-1.5,3.1-2.2,4.6c-6.8,14.3-18.6,21-34,21.4c-18,0.4-36,0.2-54,0.1
	c-9.3,0-18-2-23.5-10.5c-1.9-3-3.1-6.4-4.7-9.8c-0.6,0.9-1.3,1.6-1.8,2.5c-8,11.9-18.7,18.2-33.5,17.8c-19.3-0.5-38.7-0.4-58-0.6
	c-2.6-0.1-5.1-0.4-7.6-1.1c-8.8-2.4-14.1-8.5-13.9-17.5c0.2-7.5,1.8-14.9,2.9-22.3c0.8-5.3,1.9-10.6,2.9-16.4
	c-4.6,1-8.8,2.4-13.1,2.6c-9.5,0.6-19.1,0.7-28.7,0.8c-12.3,0.1-24.5-0.1-36.8-0.2c-2,0-4-0.3-6-0.8C8,327.8,1.7,318.2,4.3,305.3
	c6.7-34.1,13.6-68.1,20.7-102.1c2.9-14,12.3-22,26.5-22.3c26.2-0.5,52.4-0.4,78.6-0.6h4.3c1.6-7.9,3.2-15.6,4.7-23.2
	c6.9-34.6,13.7-69.2,20.8-103.8c3.9-19,16.2-28.7,35.6-28.8c10.7-0.1,21.4,0.2,32.1,0.2c8.1,0,16.2-0.2,24.3-0.4
	c11.4-0.3,20,4.2,25.2,14.7c0.2,0.3,0.3,0.6,0.5,0.8c0.1,0.1,0.2,0.1,0.5,0.3c0.7-3.2,1.3-6.4,2.1-9.5c3.4-12.7,10.6-22.5,22.3-28.6
	c2.4-1.2,5-1.9,7.6-2C333-0.1,355.7,0,378.5,0c8.3,0,18.7,8.5,19.1,16.9c0.3,6.4-0.7,13-1.7,19.3c-1.4,9-3.3,17.9-5,27.2
	c2.9-2.8,5.5-5.4,8.1-8c6.7-6.9,15.9-10.6,25.5-10.3c19.9,0.3,39.8,0.1,59.8,0.2c12.5,0,22,9.1,21.3,21.6
	c-0.5,8.7-2.8,17.3-4.2,25.9c-0.7,4.3-1.2,8.5-2,13.7c1.8-1.7,3-2.8,4.1-3.8c8.8-8.1,19.6-10.7,31.2-10.7c13.9,0,27.9,0.4,41.8,0.5
	c6.1,0.1,12.2-0.5,18.1,0.1c8,0.8,13.9,5.5,18.2,12.1c0.6,1.2,0.9,2.5,1,3.8c1.3,8.9-2.1,17.2-3.8,25.7
	c-10.6,53.2-21.3,106.4-32,159.6c-3.4,16.9-6.6,33.7-10.2,50.5c-0.9,4.1-2.4,8-4.3,11.6c-6.7,12.8-18.2,17.6-31.8,17.9
	c-18.6,0.4-37.1,0.3-55.7,0.1c-11.8-0.1-20.5-5.3-25.2-16.4C450.6,357.1,450.3,356.5,449.9,356z M325.3,242.9
	c-3.2-1.3-6.2-3.5-9.2-3.5c-13.9-0.3-27.9-0.1-41.8,0.2c-10.9,0.2-18.8,5.6-22.3,16c-3.8,11.5-7.2,23.2-10,35
	c-2.5,10.2,2.3,16.8,12.7,18.2c5.2,0.6,10.5,0.9,15.8,0.7c12.4-0.1,24.7-0.1,37.1-0.8c10.9-0.6,18.6-6.3,22.3-16.8
	c1.8-5,3.2-10,4.4-15.2c1.4-5.9-0.5-8.3-6.6-8.4c-10.5-0.1-20.9,0.1-31.4-0.1c-5.2-0.1-8.6,2.4-11.4,6.4c2.9,3.9,7.5,6,12.4,5.7
	c4.2-0.1,8.3,0,12.5,0h8.2c0.5,10.5-4.4,17.8-12.8,18c-14.5,0.4-29,0.2-43.5,0c-4.6-0.1-6.8-3.3-6.2-7.8c0.3-1.5,0.7-3.1,1.1-4.6
	c2.2-7.8,4.5-15.5,6.5-23.4c2.4-9,6.8-12.6,16.1-12.6c11.3,0,22.5-0.2,33.7,0.1C318.4,250.2,321.9,248,325.3,242.9z M382.6,243.9
	c-0.1-2-0.9-4.4-3.4-4.2c-2.1,0.1-4.2,0.8-5.9,2.1c-1.4,1.2-2.2,3.4-2.7,5.3c-4.8,16.9-9.5,33.7-14,50.6c-0.6,2.5-0.5,5.1,0.2,7.6
	c0.7,3.4,4.4,5.3,7.8,3.7c0.8-0.4,1.5-1,2-1.7c1.3-1.8,2.2-3.8,2.8-5.9c2.6-8.5,5.1-17,7.5-25.5c0.7-2.4,1.7-3.1,4.2-3.1
	c18,0.1,36,0.1,54,0.1c1,0,1.9,0.1,3.1,0.2c-2.2,8-4.1,15.7-6.3,23.3c-1.3,4.5-0.1,8.3,1.9,12.4c0.9-0.5,1.9-0.9,2.9-1.2
	c4.9-1.2,7.3-4.3,8.6-9.1c4.2-16.2,8.7-32.3,13.3-48.4c1.2-4.3-0.5-7.3-2.5-10.1c-7.1,0.9-10.5,4.6-11.5,11.4
	c-1.9,10.5,0.1,8.9-10.9,8.7c-15.9,0.1-34.7,0.1-50.6,0.2c-0.8,0-1.5,0-2.2-0.1c-0.6,0-1-0.5-1-1.1L382.6,243.9z M125.3,243.3
	c-3.2-2.5-6.5-4.2-10.8-4.1c-17.1,0.3-34.2,0.2-51.2,0.4c-6.8,0.1-11,3.2-12.9,9.6c-4.5,15.6-8.7,31.4-13.3,47
	c-1.4,4.7,0,8.5,2,12.5c7.5-2.7,9.2-4,11.6-11c1.6-4.6,2.8-9.2,3.7-14c1.8-9.6,5.5-12.3,15.3-11.9c11.4,0.4,22.9,0,34.3,0.1
	c5.4,0.1,8.3-3.6,11.8-6.5c-4.5-4.3-9.6-5.2-15.2-5.2c-11.7,0.1-23.4-0.1-35.1-0.1c-1.1,0-2.2,0-3.2,0c-0.5-7.3,2-10.1,8.8-10.1
	c13.3,0,26.5-0.2,39.8,0.1C116.9,250.2,121.7,248.5,125.3,243.3z M521.9,250c-0.3,1-0.4,1.7-0.6,2.3c-4,14.9-7.9,29.7-12,44.5
	c-1.2,4.4-0.1,8,1.9,11.9c2.5-1.3,5.2-2,7.1-3.6s3.9-3.9,4.6-6.2c4-13.9,7.5-28,11.3-41.9c1.4-5.4,3.9-7.1,9.5-7
	c6.4,0.1,12.8-0.1,19.2,0.1c5.3,0.2,8.5-2.7,12.2-7.2c-3.4-1.4-6.4-3.7-9.4-3.7c-22.4-0.3-44.8,0.1-67.1-0.2
	c-5.3-0.1-8.2,2.6-11,6.1c4.4,4.3,5.7,4.9,11.1,4.9C506.2,250,513.9,250,521.9,250z M167.5,308.5c6.9-1.4,10.9-5.4,11.8-12.2
	c0-0.1,0.1-0.2,0.1-0.3c4.6-16.5,9.2-33.1,13.8-49.6c0.7-2.3-1.8-6.4-3.8-6.4c-3.5,0-8.9,4-9.9,7.5c-4.5,16-8.8,32-13.6,47.9
	C164.4,300.2,165.3,304.3,167.5,308.5z"/>
<path class="st0" d="M131.6,474.9c-8.3,0-16.7,0-25,0c-7.3,0-15.1-8.2-13.4-15.3c3.1-13.2,6.6-26.4,11-39.2
	c3.3-9.5,11.3-14.3,21.2-14.5c15.2-0.3,30.3-0.1,45.5,0c2,0.1,4.1,0.4,6,1c7,2,10.6,7.3,9.7,14.5c-0.4,2.9-1,5.7-1.8,8.5
	c-1.8,7.3-3.8,14.5-5.4,21.9c-2.4,10.5-8.5,17.9-18.3,22.3c-1.3,0.5-2.8,0.8-4.2,0.8C148.5,475,140.1,474.9,131.6,474.9z
	 M142.2,464.1v0.5c2.7,0,5.4,0.1,8.1,0c9.6-0.4,14.1-4.6,16.2-14c1.8-8.1,4.1-16.1,6.5-24c1.9-6.4,0.2-9.9-6.4-10.1
	c-12.8-0.4-25.6-0.6-38.4-0.2c-8.7,0.3-12.1,4-14.2,12.5s-4.4,16.9-6.9,25.3c-1.9,6.5,0,9.7,6.7,9.9
	C123.1,464.3,132.7,464.1,142.2,464.1z"/>
<path class="st0" d="M463.9,409.3c-3.1,5.8-7.4,6.8-12.5,6.6c-9.5-0.2-18.9,0-28.3,0c-10.9,0-16,4.4-18.5,14.9
	c-2.3,9.6-4.9,19.1-7.4,28.7c0,0,0,0,0,0c-0.3,1.2,0.4,2.5,1.7,2.8c3.3,0.9,6.6,1.9,9.9,2c11.7,0.3,23.4,0.2,35.1-0.3
	c8.3-0.4,10.9-3.1,12.8-11.3c0.5-2,0.8-4.1,1.2-6.7c-6.5,0-12.5,0-18.5,0c-4.7,0-9.2-0.6-12.6-4.3c-0.2-0.2-0.4-0.5-0.6-0.8
	c2.7-4.1,6-6.6,11.3-6.4c9.2,0.2,18.5-0.2,27.7-0.2c6.2,0,8.3,2.3,7.5,8.4c-1.2,8.5-3.4,16.8-9.2,23.5c-4.7,5.5-10.4,8.8-18.2,8.6
	c-15.3-0.3-30.6-0.1-45.9-0.1c-7.3,0-13.5-5.5-14.3-12.8c-0.3-3.4,0-6.7,0.9-10c2.2-8.8,4.8-17.5,7.2-26.3
	c3.2-12.3,11.9-19.6,24.8-19.9s25.6-0.3,38.4,0.1C458.8,406.1,461.4,408.2,463.9,409.3z"/>
<path class="st0" d="M310.3,424.6c0,0-0.1,0-0.1,0c-3.6,11.5-7,22.4-10.4,33.4c-1.4,4.4-2.9,8.8-4,13.2c-0.7,2.9-2.1,4.2-5.1,3.8
	c-0.7,0-1.8-0.1-3-0.1c-2,0-3.4-1.8-3.1-3.7c0.4-2.7,1.2-5.3,1.8-7.8c4-16.3,8.3-32.4,12.8-48.5c3-10.8,7.9-12.2,15.7-4.2
	c12,12.4,23.8,24.8,35.5,37.5c2.1,2.3,3.9,4.5,6.1,7.6c0.4,0.5,1.1,0.5,1.5,0.1c1.1-1.3,1.3-2,1.9-3.3c0.1-0.1,0.1-0.3,0.2-0.5
	c3.7-12.8,7.2-25.6,10.8-38.4c1.4-4.9,3.5-6.6,7.9-7c2.7-0.3,4.2,0.8,4.5,3.3c0.3,1.6,0.2,3.3-0.2,4.9c-5.3,19.2-10.7,38.3-16,57.5
	c-0.5,2-1.5,2.6-3.5,2.7c-3.6,0.4-7.1-1.1-9.4-3.8c-13.6-14.9-27.5-29.5-41.2-44.1C312.2,426.3,311.5,425.7,310.3,424.6z"/>
<path class="st0" d="M559.4,408.5c1.2,0.7,1.4,2.4,0.4,3.4c-3.1,2.9-7.2,4.5-11.5,4.2c-11.4-0.3-22.7-0.1-34.1-0.1
	c-7.1,0-10.6,2.9-10.5,10.2c0,0.3,0.3,0.6,0.6,0.6c4.2,0,8.9,0,13.1,0c9.2,0.1,18.4,0.2,27.6,0.6c2.5,0.3,4.9,0.9,7.1,2
	c0.3,0.1,0.6,0.3,0.8,0.4c1.7,1.1,2.1,3.3,1.1,5c-0.5,0.8-1,1.4-1.8,1.8c-2,0.9-4.3,1.4-6.5,1.3c-14.3,0.1-28.6,0.1-42.8,0
	c-2.2,0-3.1,0.7-3.7,2.8c-1.8,7.3-3.8,14.6-5.6,21.9c-0.1,0.8-0.2,1.7-0.3,2.5l55.9,0c1.2,0,2,1.4,1.4,2.4c-1.4,2.4-2.6,4.5-4,6.6
	c-0.3,0.5-1.4,0.7-2.1,0.7c-20.8,0-41.6,0-62.5,0l0,0c-1.3-0.2-2.3-1.2-2.5-2.4c-0.5-3.5,0.2-7.2,1-10.7
	c4.2-15.6,8.2-31.3,12.3-46.9c1.8-6.7,5.4-9.4,12.2-9.3l32.4,0.3c4.4,0,8.8,0.3,13.2,0.1C554.3,405.7,556.9,406.9,559.4,408.5z"/>
<path class="st0" d="M282.2,406.2c2.5,4.6,4,9,2.4,14.5c-3.6,12.2-6.4,24.6-10,36.7c-1.1,3.5-3.1,6.7-5.8,9.3
	c-5.7,5.3-12.1,8.7-20.5,8.4c-14.3-0.6-28.6-0.2-42.9-0.2c-8.1,0.1-14.7-6.3-14.9-14.4c-0.1-2.6,0.2-5.2,0.8-7.7
	c3.2-11.7,6.9-23.3,9.9-35c1.5-6,5.6-8.8,10.7-11.3c1.8,4.5,3,8.7,1.6,13.5c-3,10.4-5.8,20.8-8.7,31.2c-0.3,1-0.6,1.9-0.8,2.9
	c-1.5,6.4,0.8,10.2,7.3,10.4c12.7,0.3,25.4,0.3,38.1-0.3c8.3-0.4,12-4.5,14-12.6c2.8-11.4,6.3-22.7,9.1-34.2
	C273.9,411.8,277.7,409,282.2,406.2z"/>
<path class="st0" d="M79.8,470.4c-0.5,1-1,1.9-1.5,2.8c-0.5,0.9-1.5,1.7-2.6,1.8c-0.2,0-0.3,0-0.5,0c-20.6,0-41.2,0.1-61.7,0
	c-7.4,0-15.1-9.1-13.3-16.3c3.7-14.8,7.9-29.5,12.3-44.1c0.8-2.6,3.1-5,5.4-6.6c1.5-1.1,4.3-1.2,6.2-0.5c2.5,0.8,2,3.4,1.4,5.5
	c-3.5,13.1-7,26.2-10.5,39.4c-2.6,10-1.1,12.1,9.3,12.2c16,0.2,31.9,0.2,47.9,0.3c1.5,0,3,0.1,4.6,0.3
	C79.5,465.3,81,468.1,79.8,470.4z"/>
</svg>
