<svg xmlns="http://www.w3.org/2000/svg" xmlns:xlink="http://www.w3.org/1999/xlink" width="1935" height="1193" viewBox="0 0 1935 1193"><defs><clipPath id="a"><rect width="1935" height="1193" transform="translate(16066 121)" fill="#fff" stroke="#707070" stroke-width="1"/></clipPath></defs><g transform="translate(-16066 -121)" opacity="0.9" clip-path="url(#a)"><g transform="translate(14326.745 -2836.805)"><path d="M2075.957,2719.036c-3.845-6.492-8.429-16.96-17.084-20.089l17.039,23.708,3.466-2.5c1.753-1.285-.781-5.726-3.4-4.738C2076.928,2716.933,2077.732,2718.4,2075.957,2719.036Z" transform="translate(59.653 124.48)" fill="#ffda48"/><path d="M2048.1,2685.349c-9.289-7.539-6.517-20.248-11.674-20.365,2.536,16.259,28.421,45.171,35.4,50.088-11.054-19.033-20.832-35.093-25.275-39.364C2047.683,2679.149,2048.5,2682.454,2048.1,2685.349Z" transform="translate(45.039 102.367)" fill="#ffda48"/><path d="M2069.405,2693.578c4.187,11.076,10.59,11.888,13.57,22.538C2090.38,2713.574,2072.98,2693.721,2069.405,2693.578Z" transform="translate(66.51 120.984)" fill="#ffda48"/><path d="M2049.959,2668.484c1.707,3.881.685,5.5,5.02,7.15,7.78,8.875,15.613,26.93,23.7,29.647q-11.96-16.507-23.624-33.258C2051.357,2673.777,2053.281,2667.4,2049.959,2668.484Z" transform="translate(53.849 104.563)" fill="#ffda48"/><path d="M2033.111,2554.392c4.369,4.255,8.3,17.216,12.955,15.586C2046.44,2563.417,2038.076,2555.924,2033.111,2554.392Z" transform="translate(42.879 30.36)" fill="#ffda48"/><path d="M2038.822,2577.727c2.409-2.2,7.148-3.545,5.528-7.179-2.327.984-4.463-2.5-6.586-6.007-3.717,5.352-6.867-.3-10.484,3.55C2030.86,2576.388,2035.229,2569.449,2038.822,2577.727Z" transform="translate(39.082 36.968)" fill="#ffda48"/><path d="M2039.938,2600.305c-.54-9.569-16.541-19.612-16.737-13.181C2028.983,2584.633,2034.169,2600.24,2039.938,2600.305Z" transform="translate(36.427 50.348)" fill="#ffda48"/><path d="M2037.45,2550.659c3.791,4.073,7.972.964,11.536,9.584-6.1-2.316-5.114,4.313-3.949,9.568,8.919-6.972,11,19.409,16.334,16.738-5.483-8.786-5.952-24.293-12.573-22.716,7.044-1.764,3.007-7.432,5.721-10.719-.424,5.239,6.58,13.6,11.525,9.529-1.422-2.91-.5-5.006.373-7.125-7.61-7.61-15.5-9.51-23.211-15.543,2.067,3.766,6.484,8.391,4.583,10.727-1.078-1.3-1.933-2.352-2.846-3.47a9.532,9.532,0,0,1,1.039,4.672C2045.671,2554.43,2023.382,2543.54,2037.45,2550.659Z" transform="translate(42.675 20.973)" fill="#ffda48"/><path d="M2003.063,2743c-6.417-9.079-12.635-16.2-18.985-19.316C1990.313,2732.891,1996.626,2739.961,2003.063,2743Z" transform="translate(10.954 140.585)" fill="#ffda48"/><path d="M1993.718,2718.661c-7.954-11.121-15.948-20.976-23.974-26.7C1977.681,2703.73,1985.677,2713.6,1993.718,2718.661Z" transform="translate(1.621 119.935)" fill="#ffda48"/><path d="M2055.553,2544.393a10.723,10.723,0,0,1,5.878-.679C2059.473,2542.042,2057.31,2541.69,2055.553,2544.393Z" transform="translate(57.491 22.558)" fill="#ffda48"/><path d="M2043.809,2549.351c-4.19-9.692-18.583-22.766,0,0Z" transform="translate(43.808 18.853)" fill="#ffda48"/><path d="M2013.405,2667.829c-6.157-7.808-12.245-15.968-18.525-19.409C2001,2657.9,2007.086,2666.056,2013.405,2667.829Z" transform="translate(17.987 91.582)" fill="#ffda48"/><path d="M2039.864,2652.953c-11.82-12.814-22.988-23.771-30.732-25.08,3.713,5.046,23.953,29.167,24.75,39.807-2.8-4.258-5.6-7.2-8.44-8.4-23.464-34.187,5.331,21.461,15.316,10.719,1.152-10.793-18.121-17.492-16.534-27.643,16.653,15.547,33.594,41.1,50.715,46.49C2064.477,2680.185,2051.806,2665.667,2039.864,2652.953Z" transform="translate(27.266 78.204)" fill="#ffda48"/><path d="M2009.672,2694.944c4.806,11.327,36.83,51.873,23.847,30.059C2026.521,2717.069,2011.031,2689.182,2009.672,2694.944Z" transform="translate(27.618 121.368)" fill="#ffda48"/><path d="M2016.68,2668.505c1.681-3.484-15.184-28.6-13.435-15.712C2008.748,2654.084,2012.128,2669.9,2016.68,2668.505Z" transform="translate(23.35 92.053)" fill="#ffda48"/><path d="M2092.816,2525.4a1.411,1.411,0,0,0,1.563,2.347c-2.543-5.966,4.682,1,3.789-5.913-6.659-3.1-12.935-12.39-20.122-6.993C2082.752,2522.054,2087.91,2521.463,2092.816,2525.4Z" transform="translate(72.137 3.533)" fill="#ffda48"/><path d="M2100.851,2750.932a21.554,21.554,0,0,1,3.715,1.5C2101.569,2749.5,2098.089,2743.784,2100.851,2750.932Z" transform="translate(86.33 156.083)" fill="#ffda48"/><path d="M2038.853,2525.581c8.011,11.689,25.026,23.364,28.168,19.085-5.787.137-2.119-11.465-2.556-15.435,2.343,5.558,10.313.41,3.378,1.2-2.879-3.157-14.336-5.261-12.114,1.147,2.354-.812,4.534.8,6.75,2.4-1.792,1.188-.879,3.309-1.993,4.735C2053.437,2531.451,2046.169,2528.332,2038.853,2525.581Z" transform="translate(46.618 11.601)" fill="#ffda48"/><path d="M2105.111,2751.9c-.8-.5-1.6-1.021-2.407-1.42C2103.619,2751.371,2104.479,2751.974,2105.111,2751.9Z" transform="translate(88.192 158.033)" fill="#ffda48"/><path d="M2161.727,2567.576c-6.927-12.781-35.733-43.361-27.321-32.343C2148.543,2551.93,2152.024,2565.424,2161.727,2567.576Z" transform="translate(107.84 16.354)" fill="#ffda48"/><path d="M2101.887,2735.742a9.667,9.667,0,0,0-3.639-3.8A50.347,50.347,0,0,0,2101.887,2735.742Z" transform="translate(85.29 145.963)" fill="#ffda48"/><path d="M2147.148,2556.261c13.975,7.559,33.965,47.025,45.769,50.412-10.037-13.263-21.537-28.252-19.11-34.68C2162.761,2567.781,2157.064,2553.38,2147.148,2556.261Z" transform="translate(117.129 31.331)" fill="#ffda48"/><path d="M2051.732,2556.6c7.551,11.915,19.052,32.107,24.276,32.074C2066.754,2569.478,2064.913,2565.033,2051.732,2556.6Z" transform="translate(55.003 31.8)" fill="#ffda48"/><path d="M2099.009,2732.855c-.673-.778-1.314-1.55-1.909-2.318C2096.928,2731.514,2097.827,2732.068,2099.009,2732.855Z" transform="translate(84.53 145.049)" fill="#ffda48"/><path d="M2084.248,2715.861c-1.121-.7-2.3-1.412-3.576-2.128A14.136,14.136,0,0,0,2084.248,2715.861Z" transform="translate(73.847 134.108)" fill="#ffda48"/><path d="M2845.282,3402.719c1.394,9.631,5.157,10.489,10.4,18.436C2860.746,3414.816,2853.98,3400.873,2845.282,3402.719Z" transform="translate(571.688 582.601)" fill="#ffda48"/><path d="M2837.009,3407.337c4.141-3.056,9.826,2.576,14.312,1.6C2838.973,3391.719,2837.042,3399,2837.009,3407.337Z" transform="translate(566.301 579.924)" fill="#ffda48"/><path d="M2515.641,3337.865c2.909,3.306,8.323,6.956,6.937,9.682-1.174-1.133-3.586-1.057-1.466,1.519,16.016,7.5,15.733,23.68,32.5,25.373C2535.814,3360.209,2525.443,3339.937,2515.641,3337.865Z" transform="translate(357.057 540.483)" fill="#ffda48"/><path d="M2079.371,2589.049c-2.949,1.952-5.467-5.909-8.395-4.712,1.9,4.9,5.824,10.467,4.569,14.272-7.749-7.025-1.79-18.559-11.226-20.155,1.45,2.9.566,5.011-.289,7.141l-6.5-9.486c9.451,2.1,1.534-12.679-4.643-10.77,3.233,6.557,1.294,15.083-4.085,13.189,5.928,7.858,10.747,3.172,8.135,11.88,3.991-4.181,8.393,4.717,8.257,8.3-.887-1.317-3.27-1.732-1.755,1.2,2.887-.553,5.717.6,8.417,4.709l8.855-6.053c-1.658-2.974-4.922-6.515-3.1-8.315C2078.507,2591.553,2080.876,2591.968,2079.371,2589.049Z" transform="translate(53.099 37.377)" fill="#ffda48"/><path d="M2460.02,3285.316c9.794,13.759,47.505,54.794,62.971,61.75C2504.147,3321.469,2476.827,3303.815,2460.02,3285.316Z" transform="translate(320.842 506.268)" fill="#ffda48"/><path d="M2741.6,3417.134a13.256,13.256,0,0,0,4.654,2.48A25.319,25.319,0,0,1,2741.6,3417.134Z" transform="translate(504.179 592.095)" fill="#ffda48"/><path d="M2057.622,2617.089c8.545-13.59,15.927,3.3,23.765,8.134-6.7-8.2-10.394-28.277-22.635-36.841,1.841,10.714,12.154,13.039,9.471,21.417-3.074.39-14.508-3.127-12.1,1.319C2060.08,2610.115,2057.1,2614.19,2057.622,2617.089Z" transform="translate(57.646 52.491)" fill="#ffda48"/><path d="M2046.391,2582.634c5.2-.578,9.9,11.208,15.086,10.649C2061.121,2585.009,2046.384,2572.969,2046.391,2582.634Z" transform="translate(51.526 46.414)" fill="#ffda48"/><path d="M2066.466,2821.355c20.957,31.477,46.016,56.229,64.474,88.44-5.838-16.624-16.461-30.846-27.337-44.267-10.742-13.519-21.727-26.244-28.386-39.661C2078.768,2822.113,2068.563,2823.47,2066.466,2821.355Z" transform="translate(64.597 204.181)" fill="#ffda48"/><path d="M2114.176,2884.072c6.306,10.037,19.9,36.28,30.77,35.989C2139.329,2903.789,2115.508,2886.593,2114.176,2884.072Z" transform="translate(95.661 245.016)" fill="#ffda48"/><path d="M2159.371,2940.407c-9.831,1.342,14.587,24.732,9.259,11.544C2164.633,2954.6,2166.15,2944.4,2159.371,2940.407Z" transform="translate(123.552 281.696)" fill="#ffda48"/><path d="M2220.957,3007.782c-8.863-12.286-11.142-18.887-22.32-23.821C2206,2990.816,2213.921,3006.98,2220.957,3007.782Z" transform="translate(150.654 310.055)" fill="#ffda48"/><path d="M2081.219,2813.327c4.89,6.941,12.5,14.728,12.44,20.143C2102.935,2832.109,2077.139,2804.68,2081.219,2813.327Z" transform="translate(73.915 197.858)" fill="#ffda48"/><path d="M2070.847,2791.372c.926-3.435-18.79-25.355-17.464-20.084C2059.2,2776.936,2065.061,2791.743,2070.847,2791.372Z" transform="translate(56.037 171.052)" fill="#ffda48"/><path d="M2056.464,2756.866c-23.015-36.308-26.751-25.965,0,0Z" transform="translate(45.916 146.884)" fill="#ffda48"/><path d="M2160.826,2640.679c11.744-4.742,9.672,14.662,16.755,15.971-6.676-22.027-13.767-26.33-26.725-29.84C2157.285,2632.461,2157.522,2632.793,2160.826,2640.679Z" transform="translate(119.544 77.511)" fill="#ffda48"/><path d="M2179.324,2617.076c-4.412-6.081-8.744-14.206-13.4-11.3C2170.4,2609.757,2174.6,2623.745,2179.324,2617.076Z" transform="translate(129.356 63.418)" fill="#ffda48"/><path d="M2195.542,2634.786l-13.2-18.365c-2.325,3.062-6.9-.193-5.211,3.731C2184.353,2617.3,2185.862,2634.753,2195.542,2634.786Z" transform="translate(136.413 70.747)" fill="#ffda48"/><path d="M2138.524,2917.326c5.351,7.574,14.53,16.194,14.756,22.28C2158.914,2932.906,2145.678,2918.578,2138.524,2917.326Z" transform="translate(111.514 266.668)" fill="#ffda48"/><path d="M2232.82,3022.047c-6.9-5.978-14.161-21.389-20.535-21.448C2219,3006.711,2226.351,3022.053,2232.82,3022.047Z" transform="translate(159.54 320.888)" fill="#ffda48"/><path d="M2381.8,2822.053c2.991-1.841-8.125-15.7-10.537-13.139.971,2.011,3.39,4.339,1.841,5.728-8.729-8.917-12.292-15.383-17.513-18.362C2357.84,2807.991,2370.191,2818.011,2381.8,2822.053Z" transform="translate(252.847 187.854)" fill="#ffda48"/><path d="M2783.97,3251.218c-6.228-4.881-10.347-18.271-18.7-17.654C2774.99,3238.818,2775.258,3251.756,2783.97,3251.218Z" transform="translate(519.591 472.559)" fill="#ffda48"/><path d="M2739.125,3203.382c7.651,10.445,15.708,19.031,24.225,20.04C2755.434,3217.818,2746.028,3203.2,2739.125,3203.382Z" transform="translate(502.568 452.92)" fill="#ffda48"/><path d="M2760.769,3245.382c4.5-7.967-19.473-23.7-24.859-23.577C2745.842,3233.642,2756.093,3235.98,2760.769,3245.382Z" transform="translate(500.475 464.915)" fill="#ffda48"/><path d="M2787.136,3271.362c5.816-5.171-16.871-22.486-21.437-23.138C2775.123,3262.717,2778.691,3262.138,2787.136,3271.362Z" transform="translate(519.871 482.117)" fill="#ffda48"/><path d="M2281.413,2697.779c-5.035-6.9-9.872-23.865-18.629-21.173C2273.287,2683.129,2271.925,2692.382,2281.413,2697.779Z" transform="translate(192.42 109.747)" fill="#ffda48"/><path d="M2388.931,2845.194c-5.508-8.87-19.717-20.084-19.5-27.616-19.821-19.468-41.789-46.563-12.115-8.292C2362.327,2821.124,2393.832,2857.973,2388.931,2845.194Z" transform="translate(244.539 183.735)" fill="#ffda48"/><path d="M2339.318,2793.429c-10.994-11.726-22.1-32.727-33.025-38.582,9.364,14.189,27.716,30.733,31.387,43.457,5.69.991,20.882,26.464,20.88,19.423l-14.039-17.667C2346.679,2796.916,2341.927,2797.51,2339.318,2793.429Z" transform="translate(220.749 160.877)" fill="#ffda48"/><path d="M2142.478,2601.241c-1.869,2.383,2.627,6.833,4.775,10.521C2157.168,2612.573,2146.315,2609.987,2142.478,2601.241Z" transform="translate(113.799 60.863)" fill="#ffda48"/><path d="M2347.926,2783.307c-7.062-8.807-12.846-16.063-15.583-16.343C2331.027,2775.858,2340.423,2781.786,2347.926,2783.307Z" transform="translate(237.63 168.767)" fill="#ffda48"/><path d="M2341.425,2775.1c-9.416-14.5-18.331-27.119-31.191-36.288C2315.367,2748.826,2331.036,2766.688,2341.425,2775.1Z" transform="translate(223.315 150.44)" fill="#ffda48"/><path d="M2815.253,3343.028c8.036,4,11.371,11.358,21.886,14.538C2830.616,3350.407,2823.531,3339.28,2815.253,3343.028Z" transform="translate(552.136 543.355)" fill="#ffda48"/><path d="M2792.391,3250.206c8.473,7.917,12.04,24.266,18.547,26.216C2809.879,3269.342,2797.916,3252.075,2792.391,3250.206Z" transform="translate(537.25 483.408)" fill="#ffda48"/><path d="M2348.115,2797.492c-.334-5.937-15.122-24.932-20.908-26.52C2330.407,2780.849,2340.024,2784.613,2348.115,2797.492Z" transform="translate(234.366 171.376)" fill="#ffda48"/><path d="M2029.916,3475.024c-4.086-6.051-8.175.058-12.266-1.231,5.194-1.678,10.866-11.7,5.287-14.849-2.323,2.521-4.658,2.465-6.992,2.475-4.782,10.355-3.933,18.669-7.116,28.427,2.929-3.476,5.885-9.54,8.786-8.655-.882,1.545-1.608,2.784-2.376,4.1a10.508,10.508,0,0,1,4.153-2.853c2.526-.687-.3,24.844,1.72,8.63,2.622-5.224-1.8-7.986,5.287-14.809-.15,6.751,5.894,3.182,10.542.01-9.722-5.81,14.9-18.146,10.537-22.222C2040.907,3462.737,2026.153,3469.3,2029.916,3475.024Z" transform="translate(27.068 616.131)" fill="#ffda48"/><path d="M2016.276,3472.972c-7.915,7.858-15.6,26.8,0,0Z" transform="translate(26.03 628.452)" fill="#ffda48"/><path d="M1999.057,3356.839c-1.174,12.6-14.061,23.787-8.292,32.551,3.545-16.873,37.665-51.7,37.812-64.831C2018.036,3339.629,2006.188,3356.791,1999.057,3356.839Z" transform="translate(14.345 531.82)" fill="#ffda48"/><path d="M2024.773,3483.006c2.592-5.838,13.675-14.655,10.534-18.474C2028.891,3466.731,2024.537,3477.678,2024.773,3483.006Z" transform="translate(37.445 622.956)" fill="#ffda48"/><path d="M2006.253,3460.792c2.1,5.5-10.4,6.688-14.12,8.741,4.608-4.516-3.094-10.057.016-3.727-2.1,4.063-.234,15.865,5.236,11.125-1.593-1.919-.77-4.661.035-7.437,1.76,1.232,3.512-.508,5.273-.02-4.651,9.7-5.193,17.906-5.338,25.973C2005.928,3483.1,2011.453,3462.092,2006.253,3460.792Z" transform="translate(15.662 620.522)" fill="#ffda48"/><path d="M1973.209,3401.708c12.076-21.073,24.73-29.695,24.07-40.194C1986.21,3373.227,1964.885,3414.648,1973.209,3401.708Z" transform="translate(2.651 555.881)" fill="#ffda48"/><path d="M2854.326,2554.69c10.069-.084,11.693-3.793,20.814-8.023C2869.748,2540.613,2854.2,2545.578,2854.326,2554.69Z" transform="translate(577.576 23.599)" fill="#ffda48"/><path d="M2654.6,2624.779c-7.2,7.7-23.758,16.7-24.552,23.946C2641.944,2641.227,2652.14,2633.473,2654.6,2624.779Z" transform="translate(431.544 76.189)" fill="#ffda48"/><path d="M2038.215,3453.58c2.328-2.506,4.651-2.457,6.984-2.442l-7.03,9.872c-1.086-9.928-12.741,3.41-8.8,8.65,5.188-5.7,14.054-7.08,14-1.187,5.624-8.675-.464-11.546,8.779-12.326-5.333-2.262,1.808-9.884,5.3-11.1-.979,1.354-.6,3.809,1.72,1.245-1.471-2.583-1.28-5.753,1.8-9.915l-8.678-6.306c-2.328,2.736-4.689,7.244-7.012,6.164.969-1.362.608-3.819-1.722-1.246,2.833,2.115-3.938,7.545-1.833,9.919,4.113-3.7,8.212-9.618,12.277-9.837C2049.754,3445.218,2036.686,3443.857,2038.215,3453.58Z" transform="translate(39.915 600.519)" fill="#ffda48"/><path d="M2677.138,2629.445c-7.577-5.224-27.77,18.4-28.454,23.954C2662.563,2644,2666.614,2633.6,2677.138,2629.445Z" transform="translate(443.682 78.74)" fill="#ffda48"/><path d="M2857.2,2564.707c-2.284-4.629,4.581-9.632,4.489-14.334C2841.7,2560.561,2848.732,2563.522,2857.2,2564.707Z" transform="translate(573.947 27.742)" fill="#ffda48"/><path d="M2475.862,2856.571c14-12.85,28.858-25.62,43.726-38.388,29.857-25.422,59.541-51.019,85.034-74.778,5.264-4.986,24.005-16.184,17.781-21.88-1.022-.845-2.054-1.57-3.735.485-15.915,15.046-31.479,28.785-46.573,42.328l-44.54,40.336c-14.792,13.483-29.607,27.248-44.684,42.017-15.046,14.8-29.947,31.011-45.532,48.742C2448.966,2882.581,2462.038,2869.592,2475.862,2856.571Z" transform="translate(306.074 138.629)" fill="#ffda48"/><path d="M2717.811,2577.108c-7.663.315-27.572,11.36-30.438,16.952C2697,2585.875,2714.529,2583.539,2717.811,2577.108Z" transform="translate(468.872 45.15)" fill="#ffda48"/><path d="M2687,2603.278c-6.089,6.071-20.7,9.332-21.417,18.017C2672.636,2611.629,2686.122,2612.339,2687,2603.278Z" transform="translate(454.682 62.19)" fill="#ffda48"/><path d="M2680.893,2623.334c16.557-8.61,16.534-12.345,27.473-20.316C2703.985,2596.552,2682.3,2618.658,2680.893,2623.334Z" transform="translate(464.654 61.255)" fill="#ffda48"/><path d="M2171.921,3113.51c-13.515,13.485-25.251,25.952-32.646,41.613C2148.774,3147.165,2164.824,3126.437,2171.921,3113.51Z" transform="translate(112.003 394.404)" fill="#ffda48"/><path d="M3499.6,2826.713c-38.7,22.425-77.391,73.983-106.181,74.954,12.168-15.309,35.773-30.818,49.992-46.092,2.65-4.75.17-9.266,3.822-14.075,11.818-17.8,28.2-33.21,12.046-18.042-5.158,4.875-10.364,13.8-23,18.6,7.134-10.818,21.233-21.988,26.875-32.733-7.884,4.779-14.871,6.24-22.447,9.894,8.173-7.407,18.828-14.942,28.117-22.407,9.324-7.417,17.46-14.515,20.275-21.588-2.723-7.3-8.585-3.763-11.61-9.966-7.7,4.892-8.472,13.706-15.445,9.234,5.867-4.86,10.458-9.627,11.463-14.3-16.116,6.419-45.819,37.648-67.789,48.75,8.041-4.521,7.057-8.542,12.537-12.941,29.3-26.1-7.338,5.15-16.589,7.929,25.247-25.252,55.515-34.236,69.648-61-10.631,7.375-23.251,20.969-30.894,18.649,8.32-5.122,10.03-9.7,15.141-14.564,3.739-3.264,22.09-15.658,12.837-12.667-14.257,8.521-40.112,39.259-28.645,16.764-10.142,8.238-20.537,17.617-28.28,17.331,5.818-6.4,9.946-10.815,12.613-13.933-5.645,4.622-8.084-8.212,14.788-18.976,10.365-7.988-1.886-3.2-6.068,1.985-19.354,11.447-19.311,26.158-35.031,28.215,1.769-4.175,7.418-8.589,5.31-12.564-5.612,1.93-3.8,11.3-9.337,7.548,5.006-3.216,2.821-6.024,4.333-9.012,12.342-11.884,34.432-24.157,41.011-35.32-3,1.92-6.521,5.509-8.465,3.829,2.6-2.405,6.982-4.929,5.813-7.207-10.518,11.982-28.244,25.214-40.375,26.548,17.966-14.657,34.771-28.617,46.964-42.511-6.335,3.089-16.469,12.169-27.253,21.254-10.673,9.231-21.875,18.625-30.76,21.917,22.425-23.569,50.488-54.541,70.28-71.63-2.424,1.834-5.319-.632-2.623-3.388,7.993-3.146,16.1-10.822,20.16-18.344-12.649,6.211-35.428,34.664-27.572,18.667-18.6,9.22-27.806,13.838-45.668,29.994.781-5.288-.271-10.464,6.662-16.037-2.183,6.886,38.125-21.215,46.8-33.556-20.544,12.242-56.205,40.754-80.665,49.424,43.363-29.486,74.255-62.906,102.347-96.028-7.113,3.291-13.052,2.82-19.614,4.342,5.064-6.673,11.56-13.414,7.955-19.721-18.492,6.54-41.54,27.645-60.726,36.22,8.561-5.1,11.751-9.921,11.883-14.6-2.1-7.129-9,1.311-12.5-1.17,14.033-6.028,15.585-14.026,20.262-23.87-6.5,1.281-12.119-.332-19.75,4.481-9.058,15.649-28.338,27.995-49.766,39.793-21.394,11.824-44.412,23.695-61.588,37.208,46.07-43.569,98.107-79.358,126.362-113.03-9.953-5.922-52.2,24.28-60.171,33.059,2.209-1.076,4.853-3.668,6.211-2.1-15.252,18.037-33.08,36.64-53.091,47.2-.37-4.121,12.016-9.1,5.574-12.793-8.122,4.848-18.913,18.846-25.29,17.727,7.932-7.749,11.664-13.954,21.572-17.437-3.094-6.923,14.469-15.17,17.781-22.292,6.271-2.883,14.195-13.784,3.57-5.486-17.185,12.86-33.676,26.389-45.379,22.405-5.766,2-4.033,11.483-9.614,7.77-1.752-2.239,2.971-4.965,2.122-7.239-17.815,12.656-43.007,30.55-67.271,47.789-24.329,17.163-47.87,33.456-64.187,40.853,2.691-3.791,13.853-8.379,10.47-11.614-19.509,16.379-17.282,30.195-39.882,39.169,7.157-4.4,18.573-18.046,11.438-15.24-8.422,14.622-22.77,22.483-29.4,27.55-49.013,38.783-103.021,89.9-157.989,134.055,26.872-26.951,63.766-54.237,79.2-73.817-3.736,2.777-8.1,8.094-10.758,6.57,27.946-17.9,28.41-28.389,61.536-56.653,3.946,3.114-5.167,7.7-2.767,10.977,15.306-11.8,2.739-12.41,6.971-20.34-32.857,31.594-54.62,50.507-75.035,74.141-2.937-1.491-5.2-.252-4.278-4.821-18.828,22.553-45.447,46.109-71.7,67.418l-37.648,30.265c-11.449,9.562-21.6,18.3-29.354,25.861,2.079-1.281,4.486-4.134,5.965-2.675-25.359,22.282-49.263,42.911-70.466,62.689-21.082,19.9-39.093,39.321-53.382,58.4l-4.488-4.6c-1.123,7.123-17.93,22.217-28.809,28.074,5.994-13.976,32.943-31.072,30.993-39.153-16.354,17.242-31.28,32.562-45.222,47.116-1.227-1.449-2.472-2.975-3.692-4.4-19.2-23.013-37.255-43.105-49-55.216,5.127,5.777,9.474,10.964,2.008,9.241,8.8,11.358,23.589,22.541,23.391,35.282-7.425-1.169-15.588-23.044-22.782-17.668,10.17,18.311,41.674,24.889,45.653,37.4-1.243,1.3-2.5,2.62-3.731,3.915-8.163-8.863-16.227-16.165-24.086-19.572,6.771,8.354,13.486,16.6,19.987,23.918-2.11,2.239-4.225,4.479-6.294,6.7-1.541-1.9-3.078-3.8-4.6-5.68-15.9-20.15-30.793-39.169-49.644-60.835-57.578-67.038-114.4-137.753-166.726-206.046,1.889,2.335,3.5,6.321-.013,3.537.6-9.294-14.338-22.974-13.478-32.218,29.772,38.842,60.168,67.038,90.552,104.556l12.159,15.492c3.5-3.176-6.649-9.946-8.731-14.605-75.278-88.443-151.815-186.785-230.117-278.035,4.859,9.29,18.289,21.367,17.7,28.847-2.229-2.5-4.359-6.72-6.659-5.64,8.277,9.358,16.125,35.362,32.964,42.235-11.28-17.475-19.5-24.146-21.175-36.8,33.587,42.96,76.043,98.766,99.647,143.626-8.6-12.779-20.352-30.224-33.887-48.224-13.559-17.985-29.117-36.4-44.77-51.52,1.016,9.654,12.583,12.19,8.053,18.567-13.034-22.083-30.757-38.875-47.141-54.916-16.229-16.115-30.991-31.541-38.3-50.474-8.132-20.568-41.086-38.009-49.885-64.836-17.644-9-34.5-22.967-48.009-25.428,14.076,11.143,27.266,38.707,42.172,39.626,17.67,19.565-5.744-9.154-7.857-11.543,20.17,14.844,29.712,43.68,44.75,61.53,3.677-1.2,2.113-6.562,5.28-3.668,9,17.98,19.732,23.8,32.707,39.131-1.752,1.237-3.413-.4-5.127.154,54.926,59.626,95.474,104.569,141.9,172.864-4.531-3.944-9-16.429-13.594-14.53,3.124,10.845,31.254,45.977,28.917,31.3,12.208,24.138,34.287,45.146,46.415,74.875-25.825-36.729-54.536-70.966-75.408-84.908,2.607.193,10.267.528,3.42-6.116-3.871-.761-6.373,1.369-10.255.613-1.995-4.714-12.068-11.745-8.482-14.875q5.926,8.715,11.941,8.756c-10.891-21.121-18.578-34.913-35.431-47.721,5.749,13.432,23.066,19.5,18.388,28.642-23.089-19.7-36.948-38.116-50.517-56.526-13.478-18.482-26.439-37.1-48.187-57.229-.892-2.079-.447-3.731,1.853-4.807-6.109-7.093-12.276-8.619-18.45-11.206,1.841,4.8,11.675,12.111,8.071,15.129-4.412-6.711-12.7-14.829-7.937-18.679,2.738,2.135,5.533,3.941,8.375,4.477-8.624-11.788-14.8-17.571-20.021-13.589-22-35.543-44.547-40-62.247-67.12-2.675,6.484-26.894-32.833-30.012-17.32,2.983.87,14.2,8.038,11.381,12.861-4.118-8.612-6.243-1.3-6.928,1.268-4.075-10.05-8.962-3.693-13.161-11.68,4.778-8.678-9.69-10.731-3.91-21.312,11.473-2.326,21.618,19.993,33.2,18.613-11.772-.068-27.143-37.373-26.305-19.82-14.317-17.332-21.826-30.314-33.423-42.422,1.941,4.765-2.577.241-5.16.008.664,7.661,21.005,29.08,10.4,27.131,7.912,4.593,23.906,30.79,13.736,28.4,2.979-11.581-15-21.656-17.333-26.006,3.094,8.493-6.2-5.668-8.481-1.193,6.619,6.576-3.736,7.157.944,13.037,3.691-1.11,2.23-6.55,5.364-3.572,4.059,8.373-.8,6.931-.626,10.683,9.03-1.039,7.234,13.5,14.824,10.62-.827-2.1-3.091-4.678-1.38-5.923,8.716,9.035,19.988,6.628,11.246,13.008,17.581,3.609,23.693,29.685,41.419,30.233-1.488,6.718,5.554,16.306,12.51,25.881,6.5-4.58,21.3,9.627,21.631,19.587-5.84-2.273-3.921-8.992-11.7-9.188,14.759,13.225,27.722,44.6,46.13,54.45-3.969-4.8-3.808-8.4.294-10.671-2.585-9.272,3.213-3.981-8.156-11.619-4.793,7.047-8.937-5.42-13.508-4.371.005-4.187,2.024-7.711-4.679-14.058,1.188-1.509,2.289-.272,3.4,1.055,1.779-1.787-1.495-5.242-3.139-8.167a237.566,237.566,0,0,0,34.824,30.955c4.376,8.878-4.163,5.284-8.738,6.2,20.532,19.4,43.687,56.593,76.852,91.62-10.582,5.252,23.892,28.087,11.533,37.41,8.594-1.909,10.952,17.988,17.031,26.343-17.667-19.593-31.492-49.219-42.418-50.037-5.767-19.608-26.862-45.161-33.349-56.667-2.888,4.466,5,12.291,1.371,16.546-3.033-4.382-4.863-3.921-5.147.223-14.211-15.154-12.987-20.36-19.879-31.316-3.634,1.238-1.989,6.636-5.2,3.723-3.177-1.886-11.214-21.469-13.227-22.059-15.157-3.547-36.509-40.228-38.485-28.6-14.921-17.395-29.505-30.3-39.287-49.107,2.71,3.3,5.312,9.111,8.211,8.189-4.983-5.881-17.993-29.739-17.883-22.316,1.359,4.077,10.384,10.752,6.268,12.978-11.8-7.632-22.967-23.139-33.377-35.761-8.125-10.029-15.859-18.106-23.3-19.137,4.667,3.986,8.154,15.64,2.055,12.582,10.92,4.669,20.718,23.99,24.192,31.99-1.343-4.73-10.539-7.874-6.776-2.313,7.138,7.024,14.375,11.929,21.78,12.839,5.277,12.743,9.083,24.4,20.855,34.242-.442-8.97-11.316-16.034-15.854-30.742,11.186,19.49,35.277,31.961,45.775,62.165-10.71-10.212-12.645-26.855-21.351-30.412,10.679,15.689-4.663-.574-8.571-1.01,8.076,15.968,29.208,32.92,49.953,48.762.639,7.26,23.787,33.821,31.533,47.715-34.331-35.021-59.6-64.231-98.239-105.758l5.295-3.652c-7.64-3.619-5.614-12.107-11.474-12.957-2.066,3.529,7.792,11.1,4.557,14.239-9.151-13.854-18.332-26.186-27.968-29.46,17.953,25.181,31.952,34.214,37.312,54.353-14.026-15.366-9.922-11.862-24.775-24.7,11.013,17.655,11.472,21.545,24.665,28.278-2.549,1.811-12.53-6.052-5.271,3.665,6.473-2.7,21.391,9.286,21.737,19.789-3.875-3.484-7.718-9.122-11.727-9.286,2.168,3.71,6.717,8.214,4.836,10.645-13.471-9.841-2.351-13.63-9.777-17.684.875,2.1.433,3.751-1.871,4.793-12.979-14.558-18.994-29.738-29.375-42.526-4.341,8.023-7.861-4.172-12.086,1.316,8.163,13.486,24.549,20.9,19.491,28.467,3.4,1.071,6.768,2.242,10.189,3.456,5.871,15.2,6.814,19.327,4.339,28.53-8.208-9.717-9.71-8.6-6.53-13-5.173.631-10.018-11.118-15.179-10.506-.732,8.151,16.25,15.855,18.089,29.542-15.023-11.422-22.764-33.973-34.917-38.93,2.341,5.646,12.878,14.119,9.664,17.872-8.513-19.043-26.9-15.474-29.771-32.071,2.2,2.614,4.314,6.953,6.652,5.933-6.948-15.245-20.213-32.21-20.2-52.52-4.8,6.3,1.321,17.533.763,20.355-3.631,3.839-6.388-11.556-10.159-3.575-.887,11.285,12.794,16.1,14.526,25.056-10.5-9.654-16.925-15.749-19.521-28.7-3.376-1.431-7.073,3.7-10.154-3.6-6.251-11.318,4.665,11.033,14.538,21.61-9.562,5.411,20.47,32.205,31.2,41.745-2.33-12.89-24.349-24.306-29.566-39.364,15.18,9.548,27.541,26.071,38.975,43.731,11.492,17.614,22.3,36.2,33.821,50.063-1.061-8.181-18.723-23.262-16.334-34.4,11.417,24.945,19.575,20.1,30.042,35.315-4.151,6.027-7.932-3.551-11.96-2.146,1.889,4.953,12.023,6.2,8.292,11.812-7.141-9.632-1.5.352-3.525,2.5-15.509-14.668-26.858-34.158-38.7-51.418,2.364,2.8,4.793,3.992,7.286,2.87-11.665-5.388-10.674-19-16.7-16.581-3.188,3.243,7.023,4.661,1.374,9.589-8.465-7.106-21.755-29.239-34.873-35.746-1.818,5.184-1.689.895-.268,7.194-9.243-3.045-4.458-9.276-8.056-15.57-27.63-25.361-2.416-1.868,1.1,16.8-8.348-3.51-5.927-7.917-13.382-11.964,3.806,11.18-2.464,2.318-6.973,1.2,13.529,21.111,42.717,21.138,43.064,51.51-8.031-12.382-9.524-12.873-6.8-2.343-5.985-9.988-12.282-11.16-18.2-22.777-10.445,6.543,12.692,23.9,12.928,26.419,7.789.487,21.851,29.966,36.967,38-2.411-5.675-13.13-14.111-9.921-17.87,13.136,14.662,19.8,29.434,35.276,39.05-7.688-9.184,5.706-1.258,3.652-9.712-6.129-7.151-12.093-22.123-18.479-18.862,2.192,3.748,6.773,8.318,4.9,10.724-12.332-4.834-13.927-19.838-25.27-24.8,11.9,1.626-5.693-9.978,2.047-12.018,9.817,15.647,12.477,21.619,21.826,23.632-12.144-18.816-24.537-33.03-36.8-41.494,2.151,3.778,6.688,8.4,4.8,10.788-4.4-10.061-15.791-22.509-12.73-29.976,29.4,19.189,49.279,80.106,66.781,73.462-.279,6.77,1.661,5.318-5.328,7.3,4.762,9.7,19.025,14.825,22.031,19.856-8.295,2.363,10.4,20.068,13.354,29.6,2.308-1.1,4.638-3.954,6.9-1.417,3.444,5.936-2.885,8.743,3.236,15.519,6.132,4.178,32.669,28.675,23.872,32.738l10.342,3.211c-2.635,3.95-.708,10.759-6.928,8.665,19.417,10.318,32.28,54.2,41.355,52.26-4.331,4.691,8.837,14.6,7.025,20.057-49.246-68.245-83.357-117.331-121.346-173.256.971,11.026,6.519,16.945,11.556,30.894,3.6,4.115,1.909-3.373,5.169-.147,12.633,28.84,34.493,42.355,44.156,71.869,5.041-5.373,21.761,16.769,8.584,11.675,5.717,9.9,11.46,12.486,17.193,16.133-9.915,6.372,21.06,21.58,15.647,31.757-17.878-22.622-41.254-57.189-53.455-72.323,8.472,23.2,25.6,42.626,41.595,60.622,16.113,17.919,30.935,34.542,34.6,52.675-33.577-39.818-74.521-92.956-98.379-140.211,1.679,1.537,3.386,4.59,5.117,3.439-29.783-24.71-41.8-55.312-62.475-80.245.923,2.122.472,3.806-1.83,4.849-6.956-13.037-27.776-33.063-40.363-42.777,2.264,7.828,13.1,11.754,9.933,14.365-5.718-2.7-11.183-10.66-16.981-9.494,18.4,19.9,36.286,43.58,52.822,68.166,16.759,24.409,32.477,49.477,46.564,72.042-3.921-6.335-7.885-6.584-11.85-8.29,14.545,9.111,16.926,17.074,23.535,25.617a2.532,2.532,0,0,1,.383-.908c10.958,8.883,30.99,36.127,36.2,49.241-26.419-28.373-49.886-59.818-72.284-77.065,14.611,25.146,39,45.436,48.161,62.33a.947.947,0,0,1-.789.748c9.03,5.66,17.624,17.439,19.848,28.653-8.175-6.876-16.183-31.709-24.23-21.97,12.2,6.23,19.988,28.381,26.079,35.137-20.912-16.7-25.1-36.894-41.631-45.43,14.425,19.082,29.994,36.821,34.833,57.8-8.229-9.839-13.2-17.361-8.879-18.907-20.043-6.381-28.488-34.153-44.989-46.672,3.843,8.873,32.119,42.7,15.616,32.082,20.809,26.373,46.186,54.77,52.635,77.565-37.592-55.692-94.892-127.177-142.892-208.252,3.859,4.922,8.229,9.084,7.912,6.025-7.341-10.914-23.445-34.622-25.377-28.711,4.5,4.807,13.166,10.174,8.345,15.625-11.146-11.393-11.751-26.961-21.968-27.556,3.474,7.275,15.609,17.479,13.435,22.815-5.074-7.559-10.159-12.768-15.324-14.35,10.007,6.6,25.457,28.368,40.315,51,14.981,22.518,29.207,46.052,36.179,56.549,0,0,5.732,5.838,11.087,11.964,5.326,6.152,10.115,12.666,7.947,14.09-.586.372-18.192-27.45-10.432-10.545,26.438,30.486,57.353,72.2,75.127,104.815-8.757-9.37-17.655-28.144-26.379-31.492,9.386,14.2,18.068,25.159,29.992,43.467-11.635,7.78,17.88,32.9,21.776,49.757-22.587-25.316-65.139-75.434-84.751-108.94,6.348,4.206,21.636,24.482,26.311,35.345,11.465,10.709,18.842,17.368,19.316,18.55-4.547-11.254-19.924-30.118-34.895-47.882-14.911-17.81-29.647-34.339-33.362-40.422.943-1.519,3.352-2.571,1.714-4.9-6.724-1.973-9.033-6.145-12.167-12.946-4.755,14.591,32.535,41.357,31.4,60.8-5.211-4.871-10.473-18.778-15.666-17.678,16.407,25.866,30.663,45.245,43.61,64a500.756,500.756,0,0,1,36.128,60.14c-10.165-10.854-20.386-31.267-30.207-36.237,3.807,11.544,31.573,40.805,39.44,58.817l-14.342-18.674c-10.27,7.595,29.139,38.294,27.3,49.632-11.894-13.231-24.068-35.979-35.812-43.124-.766,5.333,11.515,33.828,10.884,17.662,76.161,104.291,146.821,182.218,198.478,261.294-1.863-1.458-3.831-4.433-5.47-3.173,2.447,2.891,5,5.9,7.606,8.96-14,16.016-25.832,30.326-33.626,40.792,5.447-6.589,10.361-12.235,9.4-4.1,9.461-10.314,18.666-25.111,29.857-30.078.86,1.01,1.735,2.039,2.607,3.061-5.366,7.671-19.533,17.326-14.234,22.6,6.647-5.2,11.351-13.108,15.3-21.352q3.685,4.326,7.464,8.769c-11.406,12.121-22.87,24.681-34.878,39.166-62.773,74.032-126.914,150.028-186.521,223.41,2.006-2.621,5.75-5.439,3.6-1.03-9.586,2.14-20.583,21.444-30.21,23.352,16.817-21.041,31.041-41.342,45.187-61.641,14.423-20.025,28.882-39.934,45.7-60.554l14.084-16.513c-3.824-2.781-9.227,9.414-13.711,12.763-19.672,25.258-40.373,50.324-60.245,76.663q-29.878,39.386-60.271,79.451c-20.082,26.734-39.218,54.5-58.442,81.954l-28.351,41.433c-9.117,14.038-18.015,28.179-26.8,42.284,7.986-8.354,16.384-26.479,24.088-28.58-1.937,3.144-5.591,6.847-3.887,8.772,7.03-11.953,31.5-28.741,34.328-48-14.885,17.429-19.784,27.793-31.987,34.145,17.34-24.595,37.969-52.069,59.015-78.458,10.577-13.141,21.2-26.065,31.914-37.881,10.832-11.708,21.529-22.521,31.806-31.871-11.269,12.609-26.954,29.568-41.928,49.351-15.073,19.688-30.22,41.453-41.61,62.461,9.5-4.326,9.265-16.85,16.787-14.45-19.032,20.741-31.97,44.051-43.69,66.277s-22.969,42.722-39.891,57.125c-9.235,7.888-15.773,21.762-23.011,36.021-7.275,14.237-14.708,29.335-26.677,39.091-3.459,21.058-11.581,43.655-9.609,57.8,6.307-18.486,29.077-42.906,25.425-57.875,13.778-25.416-7.224,9.393-8.923,12.456,4.172-12.925,12.582-24.721,21.578-36.009,9.2-11.2,19.131-21.747,25.869-32.607-2.24-3.179-7.169.4-5.168-3.827,15.449-15.686,18.255-28.511,29.979-47.193,1.71,1.294.535,3.563,1.557,5.068,21.969-38.646,42.846-71.177,64.827-103.316,11.059-16.006,22.422-31.891,34.891-47.885,12.666-15.81,26.266-31.89,41.321-48.719-3.1,5.759-14.925,14.01-12.045,18.084,10.423-6.39,40.472-45.268,26.044-38.611,11.023-9.775,20.849-21.772,31.5-33.84,10.828-11.9,22.4-23.946,36.559-34.067-33.549,35.644-62.595,75.029-72.416,100.3-.34-2.695-1.554-10.557-6.923-1.661.017,4.142,2.7,6.044,2.729,10.19-4.391,3.406-9.455,15.639-13.4,12.956,5.1-5.708,7.235-10.592,6.452-14.646-19.24,17.286-31.924,29.083-40.866,50.354,12.061-10.237,14.688-29.378,24.947-27.5-15.25,29.1-30.025,49.422-45.538,68.927-15.327,19.653-30.924,38.925-45.6,67.505-1.833,1.631-3.6,1.778-5.28-.139-5.474,8.625-5.269,15.4-6.146,22.5,4.233-3.6,8.824-16.079,12.817-13.531-5.529,6.768-11.227,18.057-16.374,14.7,1.366-3.517,2.389-6.971,2.148-10.01-9.339,12.945-13.381,21.231-7.973,24.958-29.18,35.031-27.432,58.644-48.51,86.812,7.166.056-23.723,39.572-7.509,36.353-.1-3.25,3.373-17.1,8.98-16.269-7.126,7.473.7,6.627,3.427,6.276-8.534,7.988-.763,10.222-7.23,17.493-10-1.127-7.257,13.828-19.457,12.548-6.059-10.253,12.458-29.343,7.519-40.077,3.533,11.454-27.808,41.948-10.953,33.853-12.225,21.136-22.438,33.838-30.415,50.1,4.02-3.878,1.1,2.376,1.752,4.948,7.285-3.858,21.422-32.416,23.058-21.36,1.846-9.551,22.108-35.9,23.107-25-12.245,1.849-16.128,23.454-19.572,27.486,7.247-6.5-3.454,8.327,1.681,8.667,4.187-9.089,8.228.646,12.377-6.272-2.313-3.107-7.121.538-5.271-3.71,6.794-7.357,7.012-2.067,10.6-3.771-4.012-8.313,10.7-12.494,5.4-18.689-1.765,1.657-3.522,4.906-5.3,3.753,5.893-12.142-.111-22.183,8.931-16.241-2.141-18.593,21.408-34.869,16.4-52.538,7.057-1.146,14.46-11.624,21.846-22.067-6.482-4.686,3.435-24.47,13.214-28.451-.589,6.582-7.806,7.161-5.769,14.878,8.934-19.364,36.21-43.571,40.927-65.359-3.7,5.619-7.276,6.77-10.651,3.492-8.444,5.917-4.823-1.763-9.227,12.321,8.3,2.219-2.871,10.844-.551,14.993-4.141,1.509-8.2.8-12.6,9.744-1.829-.623-.915-2.163.089-3.745-2.272-1.108-4.778,3.4-7.215,6.094a279.84,279.84,0,0,0,20.976-45.9c7.615-7.559,6.352,2.252,8.53,6.49,13.659-27.382,45.274-62.727,72.6-107.2,7.667,8.931,22.613-32.953,34.94-23.2-3.862-8.1,15.874-16.267,23.031-24.764-8.1,11.639-18.824,23.168-27.329,33.186-8.472,10.047-14.469,18.8-13.646,24.363-18.286,11.925-38.816,41.261-48.613,51.594,5.2,1.4,11.046-9.043,16.2-6.815-3.617,4.459-2.7,6.128,1.511,5.057-11.551,19.1-17.062,19.6-26.284,30.066,2.176,3.179,7.161-.238,5.069,3.9-1.164,3.675-18.509,18.317-18.469,20.594.661,16.314-29.386,50.514-17.363,48.276-12.928,20.893-21.381,39.8-36.89,56.394,2.438-3.874,7.371-8.572,5.594-11.059-4.457,6.915-23.472,29-16.288,26,3.528-2.913,7.166-14.354,10.615-11.178-6.556,25.99-38.221,59.534-34.825,76.718,2.29-6.1,12.4-14.149,11.47-7.027.8-12.462,16.341-29.586,23.018-36-4.157,3.138-4.235,13.265-.061,7.468,4.5-9.631,6.935-18.559,5.463-26.142,10.554-10.156,21.077-17.911,27.118-33.052-8.644,3.733-12.39,16.839-25.313,26.817,15.491-18.23,20.821-46.233,47.565-67.276-6.953,14.123-22.8,21.968-23.77,31.75,12.357-16.052.791,4.759,1.518,8.708,13.369-13.579,23.875-40.219,33.587-66.333,3.427-1.626,10.1-10.425,17.409-20.338,7.493-9.762,15.6-20.655,21.5-26.751l-19,32.358c-6.051,10.534-12,20.885-18.071,31.456-12.179,21.1-24.866,43.036-39.475,69.316l-5.184-3.807c-1.214,8.765-10.23,9.878-9.147,15.972,3.987.614,8.448-11.708,12.5-9.722-10.873,13.9-19.579,27.813-19.724,38.334,18.408-27.147,23.142-44,41.307-56.433-10.9,19.118-8.634,13.94-16.681,32.978,13.929-17.074,17.479-18.97,20.231-34.139,2.53,1.841-2.235,14.3,5.156,3.826-4.575-5.316,2.845-24.111,13.037-28.128-2.287,5.008-6.693,10.736-5.68,14.7,3-3.413,6.086-9.426,9.012-8.437-5.691,16.567-12.665,7.063-14.463,15.72,1.8-1.588,3.552-1.738,5.25.136-10.473,17.687-23.467,28.988-32.649,43.786,9.1,1.2-1.5,9.215,5.143,11.247,10.242-13.021,12.747-31.354,21.575-29.231,0-3.687.125-7.374.309-11.1,13.161-11.027,16.919-13.379,26.636-14.153-7.067,11.333-5.521,12.4-10.769,10.843,2.161,4.8-7.916,13.558-5.734,18.351,8.153-2.145,10.653-21.24,23.461-27.753-6.717,18.471-26.407,33.8-27.407,47.344,4.764-4.253,9.737-17.446,14.381-15.644-15.849,15-6.837,31.265-21.661,40.191,1.785-3.083,5.245-6.727,3.512-8.612-12.284,12.391-24.336,31.31-43.7,39.177,7.638,2.155,16.3-8.011,19.232-8.508,4.859,2.019-8.949,10.486-.04,11.082,11.071-3.408,11.193-18.271,19.2-23.275-5.756,13.7-9.57,22-20.973,29.449-.214,3.778,5.928,5.358.038,11.073-8.6,10.3,8.814-8.709,15.7-22.045,8.471,7.227,23.738-31.653,29.925-45.172-11.957,6.673-15.478,32.226-28.186,42.732,7.866-36.479,48.11-71.33,68.032-103.126-7.63,3.8-17.033,26.018-28.59,27.518,20.875-19.561,13.742-25.823,25.47-41.192,7.052,2.029-1.131,8.938,1.415,12.39,4.243-3.5,2.5-13.813,9.018-12.048-7.243,10.194.779,1.348,3.441,2.609-9.661,20.044-25.229,37.6-38.451,54.943,2.044-3.269,2.493-6.026.631-8.065-1.772,13.04-15.169,16.9-10.981,21.837,4.128,1.936,2.334-8.4,8.851-4.674-2.121,5.313-7.5,13.1-12.623,21.4-4.973,8.411-9.606,17.4-10.554,24.871,5.546-.152,1.414,1.291,6.948-2.369.155,9.964-7.365,7.649-12.184,13.4-14.914,35.736-1.007,2.939,15.652-7.187-.571,9.257-5.574,8.547-6.941,17.132,9.38-7.7,3.03,1.505,3.486,6.195,15.526-20.434,5.828-48.724,35.191-59.45-9.413,11.958-9.412,13.544-.127,7.32-7.692,9.195-7.007,15.482-16,25.357,9.512,7.565,18.724-20.5,21.161-21.56-2.075-7.7,22.208-30.953,25.4-48.189-4.757,4.205-9.674,17.323-14.279,15.489,10.224-17.538,22.47-28.84,27.177-47.039-6.588,10.5-2.884-5.148-10.43-.366-5.1,8.322-17.812,19.1-12.756,24.19,2.972-3.37,6.03-9.326,8.9-8.311-1,13.54-15.021,20.068-16.405,32.651-2.026-11.993-7.943,8.819-12.272,2.072,12.213-14.718,17.183-19.265,16.348-28.985-14.564,18.062-24.753,34.738-29,49.478,2.972-3.37,6.011-9.324,8.906-8.332-8.292,7.726-16.851,22.854-24.877,22.662,9.007-35.2,62.545-74.635,50.833-89.493,6.626-1.978,4.653-3.383,8.616,2.771,7.923-7.853,8.834-23.409,12.924-27.94,4.58,7.306,16.93-16.3,25.493-22.092-1.7-1.914-5.118-3.315-3.231-6.3,4.909-5.179,9.339.154,14.352-7.882,2.353-7.311,19.723-40.549,25.94-33.086.178-3.65.357-7.333.54-11.11,4.539,1.443,10.722-2.422,10.239,4.31,4.928-22.406,45.669-46.768,41.69-55.112,5.635,3.028,12.484-12.55,18.291-12.186L2312,3846.995c-12.12,14.828-23.57,28.84-34.682,42.435l-32.625,39.988c-10.816,13.143-21.571,26.315-32.262,40.171,10.387-4.524,14.371-11.939,26.759-21.037,3.058-4.75-3.829-.821-1.55-4.967,24.837-21.017,32.185-46.521,58.731-64.479-6.543-3.4,10.9-26.224,9.236-11.782,8.2-8.465,9.3-14.855,11.579-21.444,8.578,7.963,16.427-26.485,27.813-23.813-9.175,11.726-21,25.588-31.7,38.784-10.61,13.267-20.452,25.6-26.338,33.726,40.642-30.181,59.355-88.841,93.372-105.506-15.933,21.638-34.584,45.99-54.331,69.5-19.363,23.806-39.59,46.953-59.518,65.6,1.052-2.1,3.575-4.674,1.99-6.02-8.056,18.226-18.819,32.47-29.753,45.76-10.691,13.46-21.692,25.865-30.567,40.012,1.77-1.59,3.528-1.706,5.222.175-10.438,11.034-23.631,37.6-28.922,52.947,6.768-4.837,7.222-16.494,10.732-14.333-.887,6.338-6.781,14.272-3.833,19.411,13.323-24.253,30.871-49.123,49.477-73.078,18.405-24.1,39.176-46.361,57.122-66.813-5.079,5.651-4.283,9.573-4.855,13.9,4.915-16.784,12.111-21.357,18.73-30.219a2.49,2.49,0,0,1-.991-.116c5.824-13.2,27.149-40.61,38.987-49.031-21.476,33.407-45.8,65.385-56.466,92.137,20.3-21.568,33.93-50.857,47.928-64.6a.934.934,0,0,1,.918.556c3.223-10.394,12.735-21.914,23.279-26.953-4.884,9.692-27.266,24.136-15.677,29.416,2.979-13.649,22.979-26.956,28.219-34.578-11.63,24.538-30.243,34.049-34.187,52.619,14.54-19.481,28.482-39.106,47.937-49.1-7.729,10.493-13.948,17.223-16.5,13.42-1.6,21.015-26.231,36.8-34.016,56.359,7.588-6.186,32.953-42.985,26.956-23.981,20.386-27.2,42.7-58.779,63.325-70.73-46.286,50.172-101.531,124.691-164.789,195.937,3.654-5.371,6.514-11.2,3.626-9.912-8.175,10.483-25.893,33.417-19.645,33.372,3.205-5.812,5.682-15.814,12.352-12.914-7.44,14.238-22.142,19.777-19.538,29.682,5.872-5.615,11.875-20.422,17.634-20.029-5.646,7.225-9.051,13.723-8.954,19.13,3.213-11.583,19.155-33.265,36.262-54.5,17.247-21.143,36.313-41.382,44.428-51.143,0,0,4.014-7.217,8.557-14.062s9.583-13.273,11.533-11.562c.515.466-21.745,25.143-7.438,12.986,11.3-16.916,24.658-35.988,39.373-53.481,14.675-17.521,29.936-34.006,43.845-46.6-7.091,10.826-23.352,24.111-24.552,33.412,11.662-12.621,20.32-23.758,35.378-39.837,10.265,9.528,27.74-25.441,43.709-32.78-20.138,27.567-58.485,81.206-86.343,108.5,2.444-7.237,18.5-27.091,28.033-34.229,7.706-13.723,12.461-22.525,13.5-23.269-9.855,7.161-24.722,26.646-38.355,45.6-13.7,18.9-25.359,37.84-30.337,42.992-1.717-.5-3.373-2.543-5.185-.332-.112,7.027-3.512,10.379-9.243,15.251,15.417.684,31.07-42.709,50.319-46.535-3.52,6.188-15.39,15.032-12.984,19.761,41.354-45.167,61.638-74.1,101.313-107.276-8.356,12.27-25.75,26.979-28.219,37.748,10.176-6.472,32.17-40.234,48.414-51.508l-15.263,17.886c9.649,8.367,31.338-36.4,42.8-36.943-10.415,14.328-30.1,30.925-34.579,43.819,5.406-.4,30.63-18.224,14.962-14.262,21.448-23.9,41.491-47.022,60.567-69.262,19.031-22.277,37.953-43.008,55.84-63.124,10.442-11.511,20.566-22.752,30.669-33.621a19.941,19.941,0,0,1,7.353,4.842c12.375,15.922,22.979,28.9,34.516,41.068,11.535,12.1,24.2,24.167,41.251,38.968-2.859-3.377-8.235-7.14-6.814-9.836,23.165,35.659,61.112,49.723,94.653,96.557-9.545-7.841-31.313-33.995-32.956-29.265l18.874,18.5c43.482,45.742,97.942,101.683,138.731,142.513-3.548-2.361-8.838-2.412-4.926,1.362,7.221,1.592,13.013,10.393,15.024,5.379.145,6.355,12.053,12.484-.205,8.688,12.014,10.851,14.033,12.5,19.25,9.375,5.569,10.742,25.584,27.972,36,34.008,5.971,3.837,13.526,16.427,18.418,14.4-67.879-64.476-132.467-128.063-189.278-186.549,54.771,45.954,110.956,108.754,148.57,136.372l14.82,13.99c6.589,8.371,10.2,4.544,1.458-1.545l-14.819-13.988c-55.208-53.46-105.6-96.5-148.25-145.066,16.825,6.33,37.059,32.192,54.916,44.223,9.042,4.656-25.636-25.112-28.562-33.557,18.586,14.2,33.331,37.084,42.7,44.157-2.25-2.635-6.236-5.483-4.824-7.635,39.73,36.484,115.894,101.46,161.226,155.887,9.86-4.027-14.607-12.16-4.726-16.212,37.9,39.306,66.347,48.239,103.524,67.519-26.992-34.626-82.867-65.1-87.189-93.357,16.414,9.985,34.793,30.707,51.563,42.476,5,1.9,9.114-1.2,14.293,1.663,18.943,8.934,36.09,22.656,19.2,9.107-5.424-4.321-14.826-8.094-21.134-19.753,11.5,5.371,24.224,17.513,35.428,21.4-5.677-7-7.995-13.628-12.521-20.487,16.534,13.772,34.838,37.1,49.436,40.265,6.753-3.868,2.46-8.967,8.1-12.941-5.872-6.635-14.619-5.914-11.212-13.413,5.582,4.867,10.894,8.516,15.606,8.7-8.761-14.28-42.661-38.624-56.227-58.329,5.392,7.148,9.2,5.576,14.156,10.246,29.033,24.568-5.924-6.37-9.753-14.953,27.668,20.7,40.074,49.031,68.372,57.974-8.643-9.051-23.788-18.859-22.415-26.765,6,7.313,10.823,8.087,16.242,12.23,3.7,3.063,18.337,18.671,14.133,10.238-10.392-12.193-43.671-32.264-20.3-24.8-9.27-8.545-19.634-17.221-20.3-24.806,6.972,4.709,11.8,8.051,15.147,10.149-5.383-4.788,6.7-9.25,20.24,11.159,9.194,8.625,2.87-2.366-2.755-5.507-13.557-16.882-27.74-14.606-31.65-29.552,4.266,1.063,9.226,5.863,12.827,3.184-2.539-5.148-11.417-1.915-8.436-7.884,3.717,4.358,6.181,1.793,9.258,2.789,12.908,10.179,27.578,29.587,39.439,33.884-2.273-2.559-6.239-5.328-4.864-7.489,2.691,2.087,5.734,5.871,7.792,4.348-13.169-7.934-28.151-23.025-30.838-34.632,16.192,15.228,32.1,28.9,47.235,38.184-7.7-11.109-40.688-32.644-49.173-48.8,25.224,18.25,59.244,39.525,78.391,55.549-2.1-2.007-.105-5.235,2.921-3.135,4.118,7.131,12.638,13.562,20.44,16.1-7.709-11.052-38.266-27.861-21.75-23.175-11.4-16.233-17.076-24.235-35.068-38.525,5.237-.173,10.125-2.092,16.42,3.564-6.976-.88,25.542,32.809,38.609,38.908-14.454-17.644-47.064-46.4-58.089-68.778,33.638,36.813,70.38,60.083,105.806,81.017-4.12-6.232-4.468-12.037-6.8-18.058,7.077,3.619,14.4,8.6,19.954,3.933-8.724-16.534-31.995-34.689-42.691-51.46,6,7.249,11.044,9.412,15.552,8.667,6.573-3.335-2.411-8.361-.47-12.167,7.57,12.293,15.456,12.291,25.48,14.908-2.064-5.984-1.238-11.655-6.818-18.039-32.284-11.429-57.176-64.484-86.771-92.7,46.205,37.257,87.486,79.491,123.13,100.2,4.357-10.663-29.72-45.133-39.086-51.062,1.3,1.9,4.1,3.923,2.762,5.508-19.123-11.146-39.283-24.482-51.371-42.027,3.9-1.059,9.976,9.959,12.821,3.148-5.5-6.945-20-14.89-19.581-21.179,8.236,6.273,14.535,8.776,18.912,17.667,6.256-4.117,16.025,11.229,23.327,12.962,3.5,5.408,14.891,10.889,5.685,2.365-14.464-13.739-28.947-27.432-26.362-39.237-2.495-5.158-11.383-1.884-8.394-7.846,1.964-2.054,5.044,1.985,7.131.784-27.443-29.987-79.781-82.213-96.36-111.032,3.825,2,9.035,11.974,11.881,8.26-17.074-16.161-30.229-12.026-40.373-32.256,4.708,6.182,18.59,15.071,15.4,8.685-14.6-5.9-23.124-18.428-28.429-24-39.694-41.935-91.6-86.757-134.543-135.417,26.266,23.063,53.337,55.594,73,67.723-2.832-3.218-8.113-6.735-6.748-9.454,18.379,24.449,28.4,23.637,57.081,51.663-2.775,4.182-7.623-3.951-10.633-1.233,12.066,13.138,12,1.02,19.784,4.039-31.84-27.331-50.9-45.732-74.392-62.349,1.321-2.969.049-4.977,4.473-4.638-44.731-30.557-91.58-93.229-120.131-120.562,1.2,1.894,3.9,3.981,2.5,5.51-21.084-22.568-40.44-43.921-58.956-62.8-13.61-14.165-26.768-26.833-39.918-37.584,2.2-2.107,4.293-4.126,6.229-6.038,44.007,40.714,92.668,102.848,137.971,145.15,4.844,4.529,15.833,21.318,21.2,14.811.8-1.058,1.475-2.115-.515-3.513-29.2-27.42-53.7-53.545-79.043-79.773-12.725-13.086-25.52-26.28-39.384-39.6-12.392-12.2-25.587-24.529-40.132-37.168,3.333-3.294,6.216-6.274,8.318-8.792-3.571-13.364,22.262-14.287,23.631-26.258-3.413,2.809-7.235,8.115-9.926,6.67,14.206-18.252,24.748-14.493,38.8-31.784-1.072-6.471-5.764-3.781-3.877-8.2,16.683-16.61,34.467-34.744,53.014-52.317,18.582-17.535,37.442-35.028,55.467-51.226-12.978,16.645-35.223,36.458-55.953,55.381-20.58,19.08-39.31,37.616-45.95,50.716,11.632,1.144,6.9-9.991,15.351-17.959,30.986-24.3,49.61-40.306,80.243-73.392-3.458,2.744-7.377,7.987-10.032,6.482,18.137-10.981,31.032-25.82,45.457-41.892,14.5-15.971,30.859-32.794,55.231-48.2-8.4,9.055-35.793,29.263-31.146,31.158q9.771-8.862,19.567-17.743c24.654-20.553,51.762-44.36,79.2-66.529l73.917-60.858c-2.714,3.329-3.289,8.668.844,5.094,2.239-7.131,11.681-11.935,6.894-14.446,6.375.535,13.8-10.6,8.665,1.134,12.152-10.732,14.02-12.555,11.484-18.08,11.325-4.362,30.827-22.312,38.055-32.015,4.521-5.518,17.967-11.594,16.549-16.719-72.617,59.945-142.332,118.28-204.446,171.239,24.483-26.2,54.323-51.239,81.46-74.671,13.6-11.682,26.6-22.868,38.164-33.326,11.731-10.23,22.026-19.73,30-28.33l15.7-13.208c9.123-5.631,5.741-9.664-1.367-1.626l-15.705,13.212c-30.055,24.315-56.479,48.785-82.229,71.512-12.865,11.379-25.513,22.391-38.2,32.976-12.662,10.611-25.063,21.166-37.922,31.029,7.379-16.511,34.632-35.122,48.333-51.767,5.454-8.61-27.417,23.423-35.89,26.015,15.456-17.838,39.907-30.4,47.77-39.232-2.841,2.024-6.05,5.764-8.081,4.179,20.093-18.206,47.933-45.4,78.931-72.083,31.112-26.512,64.375-53.892,94.673-72.967-2.667-10.293-14.19,12.9-16.866,2.62C3461.612,2888.464,3474.627,2861.355,3499.6,2826.713Zm-1307.67-292.047c4.25-3.933,7.082,14.223,11.583,5.781C2211.088,2551.215,2188.754,2544.551,2191.932,2534.665Zm21.567,81.15c-1.466-2.9.867-2.515,1.758-1.214,3.6-1.008-6.122-8.626-8.176-8.161-1.014-10.968,11.257.386,15.074,6.852C2219.162,2616.82,2216.4,2614.911,2213.5,2615.816Zm6.75,2.23c8.363,1.629,16.422,18.535,24.752,24.255C2236.4,2644.063,2228.234,2629.6,2220.249,2618.046Zm87.474,101.474c1.729-1.149,3.375,1.851,5.042,3.357,4.979-8.986-22-33.59-6.341-19.868a56.241,56.241,0,0,1,18.091,28.852C2318.9,2727.935,2313.218,2727.635,2307.723,2719.52Zm31.866,29.43c6.571-1.235,6.664,10.053,10.077,13.7C2342.289,2762.774,2339.328,2755.063,2339.589,2748.949Zm-204.427-58c8.125-.183,22.592,22.873,25.056,28.232C2151.779,2713.077,2143.5,2700.667,2135.162,2690.949Zm83.176,36.409c1.327,8.46-10.957-12.8-14.929-17.5-2.726,4.524,8.534,13.658,11.437,19.98-1.413,5.706-16.468-21.418-23.188-29.246C2200.876,2698.707,2209.515,2715.432,2218.338,2727.358Zm-6.408,71.83c-4.108,6.634-7.936-5.358-11.9-9.2l3.489-2.508Zm-47.909-93.24c4.664-2.678,2.944-7.479,2.061-11.979,15.521,8.338,13.73,24.818,24.886,31.711C2185.229,2730.445,2175.666,2710.926,2164.022,2705.948Zm19.1,64.185c-14.269-4.509-20.274-34.8,0,0Zm4.849,21.408c-1.544-6.361-7.646-8.389-6.625-16.58C2168.584,2763.764,2203.63,2785.6,2187.975,2791.541Zm6.951-4.991c3.969,8.1,2.019,5.386,8.419,11.715C2197.972,2808.331,2186.284,2787.856,2194.926,2786.55Zm32.116,48.059c-4.427-3.769-17.941-16.5-23.728-32.75C2214.285,2810.781,2238.752,2845.013,2227.042,2834.608Zm-131.2-91.567c3.794-.827,20,20.594,25.143,32.141C2112.45,2771.6,2104.224,2752.641,2095.838,2743.041ZM2303.7,3005.065c-8.279-19.625-27.891-25.969-23.036-40.822C2280.263,2975.635,2309.709,2995.428,2303.7,3005.065Zm-45.8-150.153c-3.127-8.746-9.455-18.481-15.319-28.071C2250.165,2829.855,2262.638,2849.663,2257.906,2854.912Zm-5.188,3.822c-6.43-8.3-17.361-20.837-11.969-16.28C2259.188,2857.945,2268.419,2878.982,2252.718,2858.735Zm7.063-30.224c5.794,1.9,20.363,21.712,20.457,27.825C2272.457,2843.437,2262.794,2836.9,2259.781,2828.51Zm-49.819,137.953c8.777-6.256,14.124,22.924,19.177,14.811,4.906,5.1.694,7.439,7.037,12.98C2227.626,2996.479,2218.687,2975.371,2209.962,2966.464ZM2352.4,3092.323c-8.285-4.683-12.314-20.352-21.55-27.459-1.163-.9-2.031-1.5-2.772-1.966a19.125,19.125,0,0,0-.817-2.61c-6.02-15.963-35.606-40.36-45.967-52.74-22.627-27.034-37.343-49.083-52.6-69.648,20.221,11.277,26.9,35.3,41.864,48.576-13.911-29.945-60.059-74.155-59.242-90-10.676-3.519-11.836-14.246-20.662-20.931-21.324-26.874-17.53-29.428,5.158,3.45-16.169-33.036-44.172-64.742-64.652-96.764,85.39,100.622,130.624,195.443,201,266.893C2320.908,3055.495,2356.683,3078.191,2352.4,3092.323Zm-377.423,921.939c-5.228-2.515,11.665-12.94,1.945-13.82C1985.047,3988.461,1985.68,4013.242,1974.977,4014.261Zm71.3-55.083c-2.065-3.155-6.732,9.294-5.655,11.122-10.575,5.188-2.966-11.176,2.321-17.4,4.375,1.6,3.3,5.049,5.054,7.547C2045.555,3962.985,2045.248,3960.549,2046.274,3959.179Zm1.935-6.211c-.9-8.909,13.688-23.048,16.99-33.394C2069.41,3927.451,2057.292,3940.713,2048.208,3952.968Zm77.1-123.1c-1.588-1.339,1.016-3.986,2.11-6.155-10.267-1.955-28.28,33.255-18.393,13.017a66.244,66.244,0,0,1,24.5-27.771C2130.974,3815.891,2132.084,3821.667,2125.312,3829.865Zm21.747-41.647c-2.8-6.19,8.548-9.95,11.411-14.553C2160.325,3781.048,2153.282,3786.491,2147.059,3788.217Zm9.431,127.422c7.889-4.208-9.437,15.19-12.867,20.751,5.212,1.121,10.883-13.146,16.275-18.152,5.916-.6-16.224,23.6-21.958,32.908C2133.437,3942.784,2147.306,3928.423,2156.49,3915.639Zm-5.261,60.63c-3.985-3.616-8.168-.281-12.309,2.143,3.609-18.022,20.221-21.97,23.707-35.253C2168.919,3947.162,2152.669,3963.218,2151.229,3976.27Zm-6.064,33.131c-2.623-7.769,15.589-29.747,20.076-33.965C2161.783,3985.727,2152.154,3997.995,2145.165,4009.4Zm127.12-172.513c-7.828,5.67-15.848,14.817-23.844,23.466C2249.516,3851.983,2265.968,3833.73,2272.285,3836.888Zm-4.021-22.582c-10.893,11.5-14.908,23.086-22.462,28.564C2246.257,3836.585,2262.2,3816.135,2268.265,3814.306Zm-39.171,84.613c7.6,1.981-3.173,9.424-5.9,14.49l-3.4-2.63Zm-20.95,37.145c-.4,15.378-28.14,31.169,0,0Zm5.244.216c-7.608,15.91,4.5-25,14.546-11.591C2222.088,3928.163,2221.738,3934.721,2213.388,3936.28Zm7.775-16.821c6.917-6.383,4.762-3.636,9.291-11.849C2241.766,3909.775,2224.768,3927.469,2221.163,3919.458Zm38.859-46.117c-2.646,5.442-11.639,22.521-26.026,33.194C2239.76,3892.973,2267.279,3858.706,2260.022,3873.342Zm17.3-32.433c-6.565,8.8-16.163,23.281-13.028,16.615C2274.943,3834.735,2293.335,3819.421,2277.323,3840.908Zm20.985-283.83c-1.81-4.943,27.653-34.132,38.643-48.26C2335.139,3523.959,2314.545,3533.9,2298.308,3557.079Zm948.924,398.877c-5.922,2.594-13.329-2.734-20.617-7.534C3232.374,3944.766,3240.538,3954.383,3247.232,3955.956ZM2816.9,2990.029c.268,6.5-15.152,15.273-20.964,22.759C2795.546,3006.218,2811.012,2997.465,2816.9,2990.029Zm-265.014-14.867c-14.049-3.622-18.478-24.616-36.549-43.155C2520.471,2930.991,2540.854,2963.013,2551.885,2975.162Zm-176.52,809.814c11.259-2.5,24.405-36.7,35.437-32.875C2392.9,3764.9,2391.069,3786.029,2375.365,3784.976ZM2207.6,4029.646c-1.957-3.36,13.8-26,23.352-34.718C2230.064,4004.34,2214.314,4018.432,2207.6,4029.646Zm186.051-175.679c-8.183-7.016,19.194-19.526,10.075-22.46,3.867-6.081,7.125-2.521,11.094-10.122C2418.951,3829.247,2400.366,3843.209,2393.654,3853.968Zm71.313-142.25c-.674,1.344-1.1,2.336-1.433,3.172a19.95,19.95,0,0,0-2.446,1.374c-14.7,9.512-33.117,44.288-43.206,57.373-21.77,28.876-39.872,49.1-56.71,69.271,6.467-22.721,28.623-35.43,38.291-53.529-26.293,21.347-59.489,77.823-74.9,81.564-.72,11.479-10.864,15.64-15.123,26.175-20.718,28.474-24.213,25.524,2.041-6.024-28.092,25.239-51.766,61.753-76.78,91.684,73.758-114.314,156.838-183.644,214.333-268.931,8.46,9.76,24.389-30.67,39.21-29.417C2485.127,3693.67,2470.313,3701.017,2464.967,3711.718Zm245.245-15.177c-14.059-14.907-27.577-28.934-39.067-38.352q1.217-1.3,2.432-2.6l40.827,41.345c18.051,18.151,36.086,36.547,52.886,54.019C2750.214,3738.557,2729.717,3716.817,2710.212,3696.541ZM2983.9,3449.28c-6.246.644-14.508-13.417-21.134-18.466C2968.8,3430.086,2976.773,3444.086,2983.9,3449.28Zm-38.188-66.849-.155-.137c.049.046.1.1.15.14q-3.118,3.391-6.112,6.623c-.479-.381-.959-.734-1.44-1.109,4.706-4.346,9.378-8.531,13.949-12.478C2949.9,3377.878,2947.785,3380.175,2945.709,3382.431Zm413.919-616.143c-2.779-6.254,8.316-13.351,11.013-19.934C3372.291,2752.66,3365.676,2759.5,3359.628,2766.289Z" fill="#ffda48"/><path d="M2036.555,3356.618c2.881.989,6.033-5.092,9.083-8.566C2043.691,3337.889,2044.142,3349.628,2036.555,3356.618Z" transform="translate(45.122 544.53)" fill="#ffda48"/><path d="M2852.935,2654.491a27.756,27.756,0,0,1-3.342,4.478A13.808,13.808,0,0,0,2852.935,2654.491Z" transform="translate(574.495 95.535)" fill="#ffda48"/><path d="M2782.033,2854.46c-15.731,16.5-36.889,25.038-39.618,34.771,3.464-2.714,7.542-7.8,10.17-6.188-1.227,1.071-1.342,3.469,1.4,1.579C2762.77,2869.327,2778.893,2870.976,2782.033,2854.46Z" transform="translate(504.71 225.736)" fill="#ffda48"/><path d="M2686.775,2951.116c14.092-9.167,57.153-44.13,65.082-59.125C2725.175,2909.2,2705.938,2935.291,2686.775,2951.116Z" transform="translate(468.483 250.173)" fill="#ffda48"/><path d="M2082.589,3311.941c-20.37,13.958-22.968,22.455-23.09,36.458,3.968-8.285,4.281-8.607,11.336-14.518C2063.087,3323.821,2083.075,3319.407,2082.589,3311.941Z" transform="translate(60.061 523.603)" fill="#ffda48"/><path d="M2194.814,3347.526a21.489,21.489,0,0,1,.476-4.014C2193.209,3347.253,2188.609,3352.2,2194.814,3347.526Z" transform="translate(146.131 544.16)" fill="#ffda48"/><path d="M2194.648,3341.815a28.377,28.377,0,0,0-.778,2.8C2194.52,3343.448,2194.9,3342.417,2194.648,3341.815Z" transform="translate(147.55 543.054)" fill="#ffda48"/><path d="M2177.695,3353.054c-.579.87-1.162,1.7-1.751,2.493C2176.929,3355.435,2177.239,3354.416,2177.695,3353.054Z" transform="translate(135.878 550.372)" fill="#ffda48"/><path d="M2007.969,3460.649a10.42,10.42,0,0,1-2.632-5.386C2004.375,3457.825,2004.76,3460.051,2007.969,3460.649Z" transform="translate(24.495 616.922)" fill="#ffda48"/><path d="M2165.037,3372.866c-.383,1.311-.756,2.686-1.111,4.156A14.813,14.813,0,0,0,2165.037,3372.866Z" transform="translate(128.054 563.272)" fill="#ffda48"/><path d="M2177,3354.89a52.025,52.025,0,0,0,2.772-4.656A10.176,10.176,0,0,0,2177,3354.89Z" transform="translate(136.568 548.536)" fill="#ffda48"/><path d="M2196.279,3122.573c.154-6.128,24.591-27.643,17.3-25.988l-16.448,18.55c-3.55-1.448-2.313,3.24-6.1,6.963-10.356,14.307-30.255,31.118-34.561,43.835C2169.6,3152.688,2183.775,3129.552,2196.279,3122.573Z" transform="translate(123.196 383.325)" fill="#ffda48"/><path d="M2215.813,3057.714c-2.265-2.7-15.322,12.021-12.36,13.935,1.97-1.466,4.093-4.507,5.725-3.216-8.191,11.087-14.472,16.26-16.915,22.343C2204.167,3085.751,2213.011,3070.709,2215.813,3057.714Z" transform="translate(146.504 357.86)" fill="#ffda48"/><path d="M2205.562,3096.99c11.625-7.9,45.955-48.749,33.347-40.83-8.594,7.653-18.4,24.948-26.261,26.416C2194.913,3107.518,2169.576,3136.36,2205.562,3096.99Z" transform="translate(143.28 356.404)" fill="#ffda48"/><path d="M2194.324,3095.943c-6.229,1.653-23.84,21.5-24.5,27.976C2179.454,3118.073,2181.959,3107.261,2194.324,3095.943Z" transform="translate(131.891 382.966)" fill="#ffda48"/><path d="M2787.173,2581.271c5.523-7.85,13.851-10.209,19.181-20.519C2797.674,2566.453,2784.807,2572.286,2787.173,2581.271Z" transform="translate(533.667 34.501)" fill="#ffda48"/><path d="M2049.217,3453.084c9.723-5.756,8.5-16.714,17.571-17.091,1.277,2.793,1.572,15.139,5.069,11.182-2.252-3.476,2.67-2.046,5.313-3.582-15.874-3.37-1.734-16.506.566-25.809C2071.806,3427.135,2053.351,3437.918,2049.217,3453.084Z" transform="translate(53.366 592.519)" fill="#ffda48"/><path d="M2179.6,3096.434c-8.239,9.35-14.791,17.26-14.67,20.161C2174.236,3115.638,2179.007,3104.5,2179.6,3096.434Z" transform="translate(128.705 383.286)" fill="#ffda48"/><path d="M1977.417,3439.4c.966.68,3.425-.63,1.783-2.5-5.01,4.979-.555-4.98-7.042-1.2-.855,7.79-7.891,17.792-.2,22.46C1977.46,3450.578,1975.172,3445.828,1977.417,3439.4Z" transform="translate(0.745 603.612)" fill="#ffda48"/><path d="M2042.566,3315.962c-4.953,6.558-11.891,13.851-7.76,17.447C2037.588,3327.492,2050.438,3318.3,2042.566,3315.962Z" transform="translate(43.163 526.221)" fill="#ffda48"/><path d="M2084.12,3215.315c4.617-12.707,14.371-14.128,18.044-25.467C2096.087,3197.078,2079.618,3207.211,2084.12,3215.315Z" transform="translate(75.591 444.108)" fill="#ffda48"/><path d="M2056.831,3296.7q-7.616,9.721-15.268,19.481c3.675,1.265,1.536,6.938,5.077,3.91C2041.951,3313.863,2059.193,3306.392,2056.831,3296.7Z" transform="translate(48.382 513.678)" fill="#ffda48"/><path d="M2139.175,3458.28c-3.952-.532-22.372,23.705-10.683,17.813C2127.932,3470.449,2141.9,3462.116,2139.175,3458.28Z" transform="translate(102.488 618.88)" fill="#ffda48"/><path d="M2128.993,3434.472c3.21-2.9,5.066-2.429,5.346-7.145,6.16-10.385,21.125-23.692,21.594-32.246l-25.075,33.336C2133.646,3431.42,2126.951,3431.621,2128.993,3434.472Z" transform="translate(105.052 577.737)" fill="#ffda48"/><path d="M2173.869,3387.766l-3.375-2.62c-1.725-1.321-5.349,2.434-3.67,4.679,1.21-1.367,2.412-2.572,3.518-1.045-5.246,5.608-14.173,13.125-14.81,22.367Z" transform="translate(122.588 571.089)" fill="#ffda48"/><path d="M2147.39,3400.508c9.652-7.341,8.691-13.77,18.25-19.808C2161.157,3374.269,2146.54,3397.028,2147.39,3400.508Z" transform="translate(117.264 567.631)" fill="#ffda48"/><path d="M2132.942,3459.908c-10.8,2.4-11.092,23-21.286,24.881,9.439-21.125,29.013-45.475,28.957-63.741-10.2,25.821-40.683,67.271-37.766,83.039,3.307-5.407,20.023-32.649,30-36.881-3.236,4.043-5.174,7.668-5.405,10.782C2102.3,3511.606,2146.186,3465.836,2132.942,3459.908Z" transform="translate(88.157 594.644)" fill="#ffda48"/><path d="M2043.488,3435.279c-15.59,16.271-19.242,19.876-22.917,35.9C2029.422,3459.139,2045.192,3440.31,2043.488,3435.279Z" transform="translate(34.714 603.91)" fill="#ffda48"/><path d="M2145.623,3435.011c-4.391,11.323-17.4,12.736-15.948,17.721,14.805-7.643,34.518-41.729,37.395-49.9-15.185,16.457-27.394,31.153-30.2,36.749C2139.82,3437.386,2142.735,3435.545,2145.623,3435.011Z" transform="translate(105.679 582.78)" fill="#ffda48"/><path d="M2047.771,3459.942c-2.267-4.78,7.524-13.732,5.3-18.525C2045.227,3444.876,2038.466,3463.6,2047.771,3459.942Z" transform="translate(49.489 607.906)" fill="#ffda48"/><path d="M2037.827,3466.46c1.73,1.848-.873,5.238-3.505,8.625,6.39,1.478,2.064,6.666,6.984,8.625,6.7-6.6-1.422-8.105,5.259-14.726C2043.647,3467.525,2040.753,3463.5,2037.827,3466.46Z" transform="translate(43.668 623.522)" fill="#ffda48"/><path d="M2066.764,3460.276c-9.03,4.021-13.173,23.083-6.958,20.858C2055.419,3476.518,2068.613,3465.807,2066.764,3460.276Z" transform="translate(58.33 620.185)" fill="#ffda48"/><path d="M2349.086,3278.261c6.233-6.715,12.935-17.246,18.907-18.494C2360.32,3255.37,2348.8,3270.95,2349.086,3278.261Z" transform="translate(248.609 489.132)" fill="#ffda48"/><path d="M2139.341,3463.448c-5.452,8.353-11.222,16.777-12.454,23.814C2133.911,3478.4,2139.663,3470,2139.341,3463.448Z" transform="translate(103.937 622.251)" fill="#ffda48"/><path d="M2226.912,3394.641c3.865-7.1,16.478-16.637,14.594-22.145C2237.973,3372.5,2222.206,3397.317,2226.912,3394.641Z" transform="translate(168.498 563.031)" fill="#ffda48"/><path d="M2274.045,3383.646c-4.5-2.554-.7,6.979-2.234,9.489,25.4-27.422,42.772-57.774,70.631-82C2312.217,3329.08,2296.88,3364.692,2274.045,3383.646Z" transform="translate(198.263 523.078)" fill="#ffda48"/><path d="M2321.638,3315.456c8.361-8.255,31.282-26.429,28.792-37.029C2335.661,3287.026,2323.728,3313.612,2321.638,3315.456Z" transform="translate(230.74 501.782)" fill="#ffda48"/><path d="M2377.738,3240.987c3.3,3.476-6.994,3.675-9.73,10.97C2371.061,3261.335,2389.753,3233.612,2377.738,3240.987Z" transform="translate(260.932 476.582)" fill="#ffda48"/><path d="M2260.464,3356c5.558-6.375,11.289-15.6,16.547-16.8C2273.491,3330.5,2253.042,3362.009,2260.464,3356Z" transform="translate(189.861 540.352)" fill="#ffda48"/><path d="M2187.664,3431.879c-5.509,9-27,32.352-21.157,31.86C2175.6,3455.636,2204.443,3412.978,2187.664,3431.879Z" transform="translate(129.085 598.581)" fill="#ffda48"/><path d="M2213.668,3450.641c-6.627,8.642-11.307,16.63-12.228,23.538C2208.061,3465.587,2212.743,3457.594,2213.668,3450.641Z" transform="translate(152.479 613.912)" fill="#ffda48"/><path d="M2193.7,3469.291c-7.937,10.8-14.675,21.273-17.485,30.5C2184.753,3488.825,2191.488,3478.377,2193.7,3469.291Z" transform="translate(136.054 626.055)" fill="#ffda48"/><path d="M2212.124,3396.277c-28.442,32.211-17.459,32.9,0,0Z" transform="translate(148.072 578.516)" fill="#ffda48"/></g></g></svg>