<svg xmlns="http://www.w3.org/2000/svg" viewBox="0 0 188.09 198.61"><defs><style>.cls-1{fill:#ffda48;}</style></defs><title>marker</title><g id="Ebene_2" data-name="Ebene 2"><g id="Ebene_1-2" data-name="Ebene 1"><path class="cls-1" d="M104.19,86.86c2.65,3.35,1-.14-.68-.77C103.76,86.53,103.66,86.73,104.19,86.86ZM156.43,141c.85,0,2,1.77,3,2.46C158.36,143.31,157.37,142.26,156.43,141ZM73.34,51.28a18.53,18.53,0,0,1-3.83-4.45A15.47,15.47,0,0,1,73.34,51.28Zm88.39,95.81c1-.07,1.53,1.57,2.3,2.17C163,149.33,162.92,147.74,161.73,147.09ZM91.2,75c-1.68-.67-3.77-3.23-5.89-5.85C87.21,69.93,89.2,72.6,91.2,75ZM73,53.34a6.88,6.88,0,0,1,2.57,3.26C74.52,55,73.34,54.56,73,53.34Zm85.88,94.27c-.57-1.16-1.83-1.45-3.05-2.9C156.44,144.7,159.38,146.63,158.83,147.61Zm3,2.46c.56.08,3.34,2.2,2.63,2.84C163.41,151.77,163,151.84,161.82,150.07ZM75.13,57.79c0,.87-1.87-2.26-2.57-2.38-.45-1.56-2.7-3.59-3.85-5.33,1.34.71,2.71,3.29,4.06,4.73.32.5.9.43.63.82ZM41.91,21.2c-.58.82-1.1-.9-1.65-1.39C40.84,19.46,41.37,20.46,41.91,21.2ZM174.55,171c-1.29-.39-1.7-1.29-2.69-1.78C172.88,168.76,173.75,170.13,174.55,171Zm3.4,10.36c1.06-.22,1.89,1.49,1.27,2.27C178.58,182.65,178.12,182.55,178,181.36ZM20.1,13.84c-.64,0-2.05-2.48-3-3.94C18.74,10.93,19,11.48,20.1,13.84Zm-5.16-2.48c-.57.2-1.06-1.39-1.59-1.91C14,9.64,15,10.56,14.94,11.36Zm3,4.83c-.64.07-1.21-1.37-1.85-1.3C16,13.7,17.85,15.18,17.89,16.19Zm-5.73-4.25c.45-.47.84.22,1.29-.43.26.43.52.85.81.73.2.45-.38.62-.68.89C13.14,12.11,12.6,13,12.16,11.94ZM20.7,37.66c.44,0,2.58,2.45,1.67,2.76C22,39.12,21.22,39,20.7,37.66Zm0,3.11c.32-.12.63.42.41.58l-.42.31-2.09-2.91c1.06.38,1.62,1.67,2.09,2.46C20.88,41.13,20.78,41,20.67,40.77ZM7.87,30.89c-.77-.22-1.52-1.22-2.27-2.38A9.32,9.32,0,0,1,7.87,30.89Zm.73,7c.16-.7,2.06,2.72,2.92,3.69C13.12,44.24,9.19,39.26,8.6,37.87Zm8,10.74c-3.29-3.19-2.83-4.46,0,0Zm3,7.2c-.71,0-1.43-1.77-2.14-2.47C17.29,52.7,19.71,55.39,19.59,55.81Zm5,8.46c0-.67-.93-1.63-1.53-2.48C22.56,60.73,25.73,64.1,24.59,64.27Zm25,35.16c-.86-.1-1.83-2.08-2.74-2.92C48.27,97.11,48.55,97.92,49.63,99.43Zm0,.45c.78,0,1.67,1.9,2.52,2.63C51.39,102.51,50.48,100.63,49.66,99.88ZM28,74.41c-2.26-4-5.34-7-7.91-10.86.25.26,1.51.1,1.07.56A30.34,30.34,0,0,0,24.67,69,18.75,18.75,0,0,1,28,74.41Zm8.5,11.33c0-.75-1.15-1.81-1.81-2.74C35.59,83.16,37.21,84.92,36.52,85.74ZM3.45,40.61A11.52,11.52,0,0,1,.5,37.33,14.23,14.23,0,0,1,3.45,40.61Zm35.3,47.07c.83.49.64,1.74,1.13,1.42C40.54,90.72,37.54,87.85,38.75,87.68ZM68.3,123.29c-1.77-.56-6.81-7-2.18-2.47C66.66,121.36,67.46,122.4,68.3,123.29Zm39.3,41.87c-1.9-.85-6.53-5.89-7.73-7.58C101.93,159.85,105.28,162,107.6,165.16ZM5.74,46.13a6.66,6.66,0,0,1-2.33-2.37A7.29,7.29,0,0,1,5.74,46.13ZM167.23,150.47a6.53,6.53,0,0,1,2.27,3.22C168.7,153.45,168.27,151.44,167.23,150.47ZM102.38,84.81c-.06.44-2-1.54-2.85-2.51A12.72,12.72,0,0,1,102.38,84.81ZM82.8,63.14c1.44,1.49,3.65,4,6,6.78s4.91,6,7,8.83c-.27.16-.57-.33-.87-.61l-.66-.79c-2.4-2.34-3.41-4.58-5.49-5.72.48-2-4.23-2.67-5.63-5.19.88-.66,1.88,2,2.79,2.17,0-1.57-1.79-2.94-2.87-4.33C84,64.49,83.43,63.85,82.8,63.14ZM59.89,34.2c1.08-.33,1.67,1.75,2.29,2.59C61,36.13,61.18,35,59.89,34.2ZM74,52.53c.34,0,1,.93,1.91,2C75,54.35,73.82,53.62,74,52.53Zm66,74.39c.25.17.17.3.07.43-.66.8-2-1.26-2.6-1.82-5.7-5.32-11.83-13.2-17.34-18.19,2,1.68,3.7,3.31,5.34,4.93s3.27,3.25,4.83,4.86C133.36,120.35,136.37,123.55,140,126.92Zm-24.2-23.4c.58,1.23,2.2,3.12,3,3.22l-.57.54a48.87,48.87,0,0,1,6.43,5.79c2.27,2.32,4.64,4.94,7.23,7.71.17-.19-.16-.45-.3-.68,3.5,3.36,9.25,11.05,14.74,14.8-.54,0-.39.21-.55.57,2.89,2,5.23,4.3,9.13,7.65-1-.37-.94,1.12-2.42-.49.36-.34,1,.66,1.3.15-3.52-3.44-4.75-3.34-7-6.34-.16.33.48.76.83,1.16-2.41-1.49-5.73-5.48-9-8.31,5.27,6,11.64,11.47,16.52,16.62a9.69,9.69,0,0,0,3.49,2.94c.39.79-1.32-.3-1.89-1.06,1.24,2.48,2.86,2,5,4-.35.45-1-.77-1.46-1,2,3.54,8.46,10,11.83,13.63-.26.15-.63-.35-.87-.1-.37.74.72.33,1,1-.32,1.45,1.46,3.13,3.23,4.81,1.13,1.05-.27.38-.7-.29-.89-.21-2.09-2.09-2.86-1.59-.54-1.09-1.31-1.4-2.32-2.17-.05.78,1.73,1.75,2.4,2.6-.35.84-1.09-.51-1.57-.38,1.48,2.15,4,3.79,6.3,5.16.17-.2-.18-.45-.33-.68,1.14.73,5.33,5,4.79,6.27-4.37-2.54-9.44-7.73-15.11-12.3,3.63,3.46,6.69,10,10.65,11.38.68.78.58,1.48.84,2.21-1.23-.32-2.2-.32-3.13-1.83-.24.47.86,1.08.06,1.49-.56.1-1.18-.17-1.91-1.06,1.31,2.06,4.17,4.29,5.24,6.32-.68.57-1.58,0-2.45-.49a9.9,9.9,0,0,0,.83,2.22,53.36,53.36,0,0,1-13-9.94c1.35,2.74,5.35,6.27,7.13,8.44-1.61-.75-5.6-4.89-4.74-4.78-.77-.69-1.37-.46-2-.43a18,18,0,0,1,4.31,4.72c-2-.57,1.72,1.49,2.67,2.85a4.79,4.79,0,0,1-2.51-2c-.37-.26-.62.14-.36.39-2.35-2-6.53-4.58-9.62-6.82,1,2,5.09,4.63,6,6a38.63,38.63,0,0,1-5.8-4.69c.33,1.43,2.17,3.28,3.79,4.25-.25.19-.63-.27-1-.53-.17.26.32.6.6.92-1.46-.53-3.26-2.91-4.84-4.16-.38-.12-.68.19-1.14-.34-.36.73.73.33,1,1-.44.32-1.05-.26-1.58-.4.48,1.84,2.23,1.56,3.89,3.63.69.39,1.47,1.74.34.68-2-3-3.69-1.66-1.92-1.07a19,19,0,0,1-2.43-1.55c.08.93,1.36,2,2.49,3-2.86-.92,1.22,1.55,2.5,3,.51,1-1.28-.88-1.74-1.26a7.62,7.62,0,0,1-2-1.5c-.17,1,1.69,2.18,2.75,3.29-3.47-1.1-5-4.58-8.39-7.12.47,1.06,4.76,4.85,1.19,1.84-.6-.57-1.07-.38-1.73-1.26,1.66,2.42,5.82,5.41,6.9,7.16a3.58,3.58,0,0,1-1.92-1.07c-.42.92.66.83,1.38,1.65-.69.49-.17,1.11-1,1.59-1.79-.39-4-3.25-6.06-4.94A26.4,26.4,0,0,0,151,190c-1.37-.48-2.93-2-4.35-2.63a7.21,7.21,0,0,0,2.6,2.43c2.07,1.66,0,0-2.36-1.12-.63-.35-1.14,0-1.75-.2-2.06-1.45-4.32-4-6.33-5.22.53,3.47,7.39,7.21,10.7,11.46-4.56-2.37-8.05-3.46-12.71-8.29-1.21.5,1.79,1.5.58,2-5.56-6.68-14.91-14.65-19.79-19.13-.17.26.32.61.6.94-1.15-.87-3-3.68-5.24-5.42.35,1,4.61,4.69,3.5,4.12-2.19-1.48-4.67-4.66-6.74-5.43,5.24,6,11.42,11.24,18.2,17.8l1.82,1.72c1.07.75.63,1.22-.18.19l-1.82-1.72c-4.62-3.39-11.52-11.1-18.24-16.74,7,7.18,14.9,15,23.23,22.9-.6.25-1.52-1.29-2.26-1.77a15,15,0,0,1-4.41-4.17c-.64.38-.89.18-2.37-1.15,1.51.47,0-.29,0-1.07-.25.62-1-.46-1.85-.66-.6-.58.59-.43.88.11-5-5-11.87-12.05-17.3-17.77l-2.32-2.27c.2-.58,2.88,2.63,4.05,3.59-4.12-5.74-8.78-7.47-11.62-11.85-.17.33.49.8.84,1.21-2.1-1.82-3.65-3.3-5.07-4.78s-2.71-3.09-4.23-5c-1-1.07-2.39-.51-2.26-1.95,1.65.85,4,3.23,6.38,5.81a63.84,63.84,0,0,0,7,6.68c-2.06-2.15-4.27-4.41-6.49-6.63l-6.59-6.67c-.55-.25-.21.34-1,.45-2.13-1.81-1.65-3.1-3.9-4.93-.19.32.47.82.81,1.25-1.48-.22-1.56-3.4-3.22-3-1.25-1.15-3.36-4-5.44-6-1.68-1.62-5.27-4.74-1.18-.91-.14-1-2.11-2.52-3-3.73-.27-.52.19-.2.44.1,4.19,4.7,6.14,6.67,9.28,9.89a87.43,87.43,0,0,0-6.37-7.25A51.93,51.93,0,0,0,66,119.93c-1.68-1-3.51-3.89-5.22-5.62.49-.32,3.12,3.48,4.5,4.8-2.79-4.19-8.33-10.52-12.15-15,.2-.15.44.22.67.39-6.34-9.7-15-19.27-24.36-32.07.07,2-1.43-1.51-1.34-2.17,1.44.88,2.93,3.67,4.4,5.3.22-1.39-4.62-5.16-3.36-6.1l1.76,2.3c-1-2.21-4.37-5.81-4.84-7.22,1.21.61,2.46,3.11,3.71,4.45a63,63,0,0,0-4.43-7.39C23.77,59.26,22,56.88,20,53.71c.64-.14,1.29,1.57,1.93,2.17.14-2.39-4.44-5.67-3.86-7.47.39.84.67,1.35,1.5,1.59.2.29-.1.42-.21.6.45.75,2.26,2.78,4.09,5s3.73,4.49,4.28,5.87a31.23,31.23,0,0,0-2.37-2.27,14.74,14.74,0,0,0-3.23-4.34c2.41,4.11,7.63,10.26,10.41,13.37-.48-2.07-4.1-5.15-2.68-6.11-1.46-2.24-2.53-3.59-3.68-5.33,1.07.41,2.17,2.71,3.24,3.86A82.55,82.55,0,0,0,20.2,47.76c-.95-2.08,1.21,1.34,1.28,1.29.27-.17-.32-1-1-1.73s-1.36-1.47-1.36-1.47c-.85-1.28-2.6-4.17-4.44-6.94S11,33.46,9.75,32.65a4.13,4.13,0,0,1,1.88,1.76c.27-.65-1.22-1.9-1.64-2.8,1.25.08,1.32,2,2.69,3.39.59-.67-.47-1.33-1-1.92.23-.73,2.21,2.18,3.11,3.52.07.65-1.6-1.36-1.66-1.91,6,10.44,13.44,19.63,18.23,26.74-.79-2.8-3.91-6.29-6.46-9.53,2,1.31-1.45-2.84-1.92-3.93,2,1.53,3.07,4.94,5.53,5.73-.53.18.08,1.11,1.09,2.32-.6-2.58-2.51-4.76-4.28-7.1,2,1,2.54,3.53,5.11,5.58-.75-.83-1.7-3.55-3.2-4.32,1-1.19,2,1.86,3,2.7A5.45,5.45,0,0,0,27,49c-.49-1.29.66.82.85.26-1.12-2.07-4.11-4.56-5.91-7.65,2.75,2.12,5.63,6,8.87,9.46a21.45,21.45,0,0,0-4.44-6c-.22.35.36.3.63.86-1.53-1.43-1.34-2.66-4-4.16.63.53,1.26.27,1.89,1.28-1.73-2.77-3.66-5.85-5.72-8.84a69.63,69.63,0,0,0-6.48-8.37c.71-.14,1.38.84,2.08,1.17.39-.32-.94-.81-1.21-1.77a22.49,22.49,0,0,1,4.95,5.25.39.39,0,0,0,.22-.59c2.54,3.06,4,6.82,7.67,9.85-.21.14-.42-.23-.63-.42,2.93,5.8,8,12.32,12.08,17.21-.45-2.23-2.27-4.27-4.25-6.47s-4.06-4.59-5.1-7.44c1.49,1.86,4.36,6.1,6.56,8.88.66-1.25-3.14-3.12-1.92-3.9a5,5,0,0,1-2.11-2c1.61.62-.44-2.09-1.06-1.43-1.18-3.63-3.87-5.29-5.42-8.83-.4-.39-.19.53-.63,0-.62-1.71-1.3-2.44-1.42-3.79,4.66,6.87,8.85,12.89,14.9,21.27.22-.67-1.4-1.89-.87-2.46-1.11.23-2.69-5.15-5.07-6.42.76.26.52-.58.85-1.06L31,42.5c1.08-.5-2.18-3.5-2.93-4-.75-.83,0-1.17-.4-1.9-.28-.31-.56,0-.85.17-.36-1.17-2.65-3.34-1.64-3.63-.36-.62-2.12-1.25-2.7-2.44.86-.24.62-.06.65-.89-2.14.81-4.58-6.67-8.19-9-.38.92,1,2.44,1.56,3.68.23-.29-.33-.86-.59-1.33a18,18,0,0,1,4.52,5.1c-1.15-.25-1.48-1-2.68-2.9-1,.25,1.21,1.67-.25,1.47,1.39.61,1.59,2.45,3.1,3.05.23-.3-.33-.86-.6-1.32.78-.4,1.51,1.44,2.26,2.32.26,1-1.39.06-.44,1.19-1.9-1.18-2.72-3-4.33-4.8-.4.47.92,1.5,1.21,2.2-1.85-1-3.58-4.61-4.53-4.67,0-.31-2.87-2.44-1.59-3.24.73,1.43,1.5,1.57,2.23,2.8-.33-1.3-.15-1.24.84.28,0-3.72-3.63-3.73-5.29-6.32.56.14,1.33,1.23.86-.15.91.5.62,1,1.64,1.47-.43-2.29-3.53-5.17-.13-2.06.44.77-.15,1.54,1,1.91-.18-.77-.2-.25,0-.88,1.61.8,3.24,3.51,4.28,4.39.69-.61-.56-.78-.17-1.18.74-.3.62,1.37,2.05,2-.43.2-.85-.15-1.25-.86,1.59,2.24,3,4.88,5.11,6.82.24-.26-.45-1.49.43-.3.46-.69-.79-.84-1-1.45.49-.18,1,1,1.47.26C23.39,26.41,22.39,27,21,24c-.29,1.36,1.88,3.21,2,4.22A69.72,69.72,0,0,1,18.84,22a17.31,17.31,0,0,0-4.78-5.36c.64,1.84,3.34,3.24,3.63,4.83-1.32-1.17-5-4.46-3.83-5.13-1.21-1.3-2.55-4-1.78-2.65.37.9.83.27,1.24.44.32,1.59,1.11,2.34,2.4,3.52-.21-1.1-1.89-1.69-1.78-3.07.46-1,.8.91,1.24.44.07-.35-.68-1.73-.09-2.5,0,2.49,1.63,4.57,2.48,6.45-.29.12-.55-.41-.82-.73.35,2,2.61,1.6,3.66,3.93.39-.46-.9-1.5-1.19-2.19,1.49.61,2.44,3.38,4.29,4.78-.23-1.68-2.31-2.63-2.22-3.63.63-.07,1.22,1.37,1.86,1.29-.39.54-.21.41.8,1.6.3-1.13.19-1.64-.53-3.5-.42-.15-.84-.3-1.25-.43.62-.93-1.39-1.84-2.4-3.49.52-.68.95.82,1.49-.16,1.27,1.57,2,3.43,3.6,5.22a.4.4,0,0,0,.23-.59c.91.5-.45,1,1.2,2.17.23-.3-.32-.85-.59-1.31.49,0,1,.71,1.44,1.14,0-1.29-1.87-2.76-2.67-2.43-.89-1.19.33-.23.65-.45-1.62-.82-1.68-1.3-3-3.47a21.73,21.73,0,0,1,3,3c-.66-2.47-2.38-3.58-4.58-6.67,1.18.4,2.31,1.92,3.43,3.62.4-.39-.81-1.32-.55-1.75.71.1.47,1.15,1.4,1.59l-.65.45c4.75,5.1,7.85,8.68,12.06,13-1-1.71-3.79-5-3.87-5.86-2.55-1.94-5.14-4-6.13-6,.48.05,2.36,2.05,1.05.12,1.07.44,1.31,2.48,2.62,3.73-1.29-3.7-4.24-5.23-5.62-7.63.56,1.81,1.9,2.68,1.95,3.78-1.45-1.21-1.91-2.64-2.56-4.21A4.89,4.89,0,0,1,21,12.37c-.47-.68.66-.3.83.28-.43-1-1.63-3.35-3-3.92,1.06.53-.25-2.59-1-1.46,1.13-.5,2.31.7,3.58,2.26s2.64,3.45,4.09,4.39c.51-.27-.6-1.09-.77-1.59,0-.91,1.59,2,2.2,2.74-.36.11-.68-.6-1-1,1.2,2.31,3,3.89,4.82,6,.25-1.43,2.87,3.07,4.73,3.51.24.07,1.23,2.48,1.62,2.71s.19-.31.64-.46c.85,1.35.69,2,2.44,3.84,0-.5.26-.56.63,0,.45-.53-.52-1.49-.17-2,.8,1.41,3.39,4.54,4.1,7,1.34.1,3,3.74,5.2,6.14-.74-1-1-3.46-2.09-3.23,1.52-1.14-2.71-4-1.41-4.59-4.07-4.3-6.92-8.87-9.44-11.25-.5.28-.52.72,0,1.31-2.26-1.21-3.85-5.06-5.66-6.68.95,0,.71.85,1.43,1.13,0-1.23-1.86-3-2.65-2.41-.86-1.17-1.72-2.35-1.54-3.17-2.18-.07-2.93-3.27-5.08-3.72,1.07-.78-.31-.48-1.38-1.59-.21.15.06.47.17.72-.94.36-.72-1.43-1.82-1.3,0-.46.57-.28.07-1.31-.38-.37-.2.3-.66.44-.57-.72.7-.79-.11-1.6.28-.55,1.42,1.19,1,.14.29.54,2.49,1.78,2.13,3.2,1.25.29-.72-2.92-1.69-3.49C22.58,3.57,20.09.94,20,0c.31,0,.87.58.63,0,1.42,1.49,2.34,3.08,4.1,5.21-.1-2.16,1.78,2.42,3.23,2.43-1.42.17-2.67-2.57-4.08-2.28C23.18,6.65,25,6.91,24.37,8c.52,1,1.12.2,1.62,1.43.08-.31.34-1.21.85-.15.35-.59-1-1.47-1.4-1.58.39-1.9,3.36,2.92,3.69,2.13,2.17,3.33,4.94,3.87,7.64,8.24.64-.49,1.4.22,2.45,1.66a2.39,2.39,0,0,1-1-.55c-.59.48.43,1.47,1,2.3.44-.37-.76-1.27-1-1.86A4.92,4.92,0,0,1,40.45,21a.4.4,0,0,0-.23.59,43,43,0,0,1,5.91,7,38,38,0,0,0,6.2,6.94c.58-1.12-1.55-1.87-2.25-3.52,2.06,1.57,3,3.27,4.35,5.86q-.75,0-1.47-1.08c-.44.39.8,1.25,1,1.83.48.09.78-.17,1.26-.07.84.81-.1.77-.42.75C57.4,41,60.93,45.2,64.1,49.71c-1.49-3.65-4.2-6.23-5.7-9.19.29,1.8-3.17-2.51-3.55-3.84.56-.24,1.11,1.29,1.67,1.78-5.7-8.38-10.68-13.9-17.42-21.22.21-.07.41.13.63,0-1.59-1.88-2.91-2.59-4-4.8-.38-.36-.19.3-.64.45-1.85-2.2-3-5.75-5.51-7.57-.15-.2,3.3,4,1,1.43-1.83-.11-3.45-3.49-5.18-4.86,1.66.3,3.73,2,5.89,3.12,1.08,3.29,5.13,5.43,6.13,8,.89,2.32,2.71,4.22,4.7,6.19a33.1,33.1,0,0,1,5.79,6.75c.55-.79-.87-1.1-1-2.28a54.11,54.11,0,0,1,5.49,6.32c1.66,2.21,3.11,4.35,4.16,5.92-2.9-5.51-8.11-12.36-12.23-17.63.21,1.55,1.21,2.37,2.6,4.52-2.07-.85-3-4-4-5.19.29-.13.55.39.82.69.07-.91-1.57-2.4-2.17-3.54C51.11,25.9,60.5,38,69.74,48.83c.26.57,1.51,1.4,1.08,1.79l-1.5-1.9c-3.73-4.6-7.46-8.06-11.11-12.83-.11,1.13,1.73,2.81,1.65,4,.43.35.24-.14,0-.43,6.43,8.38,13.4,17.06,20.47,25.29,2.31,2.66,4.14,5,6.09,7.47s4.08,5,6.93,8.19c-1.44-2.94-4.33-5-5.17-7.37,5.31,5.42,9.54,11.76,14.78,17.24a3.75,3.75,0,0,0-1.2-2.15c2.64,2.18,5.84,5.57,7.33,8.6-.53-2.31,4.37,4,1.53.91,2.89,2.86,5.76,5.79,9.42,9.33C119.07,107.22,117.32,104.15,115.75,103.52ZM41.3,61c.73-1.18-2.88-3.61-2.83-5C37.87,57.85,40.28,58.63,41.3,61ZM27.46,26.75c-1.37-.85-1.15-2.87-3.05-3.89.1.55.31,1.14-.26,1.47C25.58,24.94,26.76,27.33,27.46,26.75ZM38.14,20.9a29,29,0,0,1-4.28-3.8c.2.36.61.78.39,1-.14-.16-.27-.31-.42-.13a1.64,1.64,0,0,1,.57,1.73c.57-.13,1.07,1.4,1.66.54-.26-.46-.81-1-.58-1.3.47,1.08,1.8,1.4.58,1.3,1.4.93.69.28,1,1.42C37.63,21.55,38.67,22,38.14,20.9Zm86.65,94.67c-.88-.64-1.86-2.36-2.6-2.27C123,113.92,124,115.65,124.79,115.57ZM67.27,52.07c2.22,2.28,2.77,4.86,4.49,5.3C70.41,55.88,67.9,52,67.27,52.07ZM27.58,3.3c-.39,1.22,2.35,2,1.42.71C28.45,5.05,28.1,2.82,27.58,3.3ZM41.63,24c-1.92-1.69,1.39,1.33.78,2.43-.2-.18-.41-.55-.62-.41.68,1,1.37,1,2.06,1.52A6.81,6.81,0,0,0,41.63,24Zm5.31,7.32c-.42-.45-.43-1.84-1.24-1.69C45.67,30.35,46,31.3,46.94,31.29ZM31.05,13.54c1,1.42,2,3.19,3,3C33.07,15.81,32.08,13.74,31.05,13.54Zm-.82-.28c.35-.11.69.13,1.06-.31-.47-.79-2-2.18-1.85-.84.25-.06,1.44.88,1,1C30.33,13,30.05,12.91,30.23,13.26ZM27.54,23.67c.83,1,2.68,4.29,2.85,3.59-.36-.78-1.74-1.9-1.4-2.45.48.57,2,3.18,1.83,2.14C29.74,25.49,28.68,23.44,27.54,23.67ZM38.42,42.79a7,7,0,0,0-2.51-3.42C36.28,40.4,37.46,41.2,38.42,42.79Zm-2.74-.18c.58-.64-1-3.07-1.88-3.44A21.2,21.2,0,0,1,35.68,42.61ZM20.61,22.49A23.26,23.26,0,0,0,23.69,26C23.38,25.29,21.61,22.46,20.61,22.49Zm8,12.15c.49.47,1,2,1.46,1.13l-1-1.44ZM35,43.08c1.93,2.49.79-.1-1.47-2C32.91,40.52,34.25,42.06,35,43.08ZM154.58,176.83c.9.59,1.8,1.25,2.53.93C156.29,177.57,155.29,176.39,154.58,176.83ZM26.28,32.8c-.13,1,.62,1.25.81,2C29,34.1,24.71,31.42,26.28,32.8ZM29,35.66a2.86,2.86,0,0,1-1-1.44C26.88,34.38,28.32,36.89,29,35.66ZM26.5,32.2c-2.49-4.27-1.75-.55,0,0Zm5.39,7.92c1.44,1.28-1.57-2.93-2.91-4A10.42,10.42,0,0,0,31.89,40.12Zm.2,12.68C34,55.32,35.77,58,38.55,61.35c1.27,1.52,4.9,4.51,5.64,6.47.56,1.47-1.07-.6.44.56,1.13.87,1.63,2.8,2.64,3.37.53-1.73-3.86-4.52-2.48-5.3C36.15,57.68,30.6,46,20.12,33.69c2.51,3.93,5.95,7.82,7.93,11.88-2.78-4-3.25-3.73-.63-.43,1.08.82,1.23,2.14,2.54,2.57-.1,1.95,5.56,7.37,7.27,11C35.39,57.13,34.57,54.18,32.09,52.8ZM15.78,28.88c1,1.18,2,3.51,3.09,3.94C18.24,31.41,16.25,28.78,15.78,28.88Zm14,27.42C30.86,57.4,32,60,33,59.71c-.78-.68-.26-1-.86-1.59C31.53,59.12,30.87,55.54,29.79,56.3Zm48.1,3.26c-3.64-4.69-.94-1.37,1.49,1,0,.93,1.72,2.3,2.39,3.39C82.38,65.54,78.51,61,77.89,59.56ZM39.73,11.73c-.3.79,1.11,2.63,2.35,4.26-1.45-.42-3.91-5.26-5.62-6.19C37.68,9.44,38.37,11.21,39.73,11.73ZM37.11,9.35c-1.19-.27-1.62-1.92-3.36-4C32.72,4,36.26,7.78,37.11,9.35Zm6,12.67,1.62,2.26c-1.19,0-1.38-2.15-2.26-1.8C42.3,22,42.86,22.4,43.15,22ZM24.27,2.6c-.61-.48-1.24-.41-1.82-1.3.89-.66,1.66.48,2.47.86.11.85-.77,0-.46.73C24.17,3,24.15,2.68,24.27,2.6ZM38.43,25.83a3.13,3.13,0,0,0-1.22-1.7c1.59.43,2.46,1,3.28,3.66C39.62,27.63,39.88,25.25,38.43,25.83ZM178,181.8c-.55.12-1.25-.57-1.76-.2C176.27,180.58,176.51,179.68,178,181.8ZM18.07,4.21c.85-.1-.13.53-.42-.15C17.71,4.55,17.26,6,18,6c-.39.53-2.48-.9-3.46-2.34a6.7,6.7,0,0,1,2.66,1.61c.13-.17,0-.43.24-.58-.27-.2-.54-.39-.83-.29C16.31,3.56,17.72,3.82,18.07,4.21Zm-.71,5.1c-.6.5-1.46-.53-1.41-1.17-.33.4.16,1.1-.7,1.32.81-.2.87,1.71,1.54,2.78-.65.33-.91-2.91-2-2.05-.15-.64-.27-1.46.48-1.17-.44-1.06-.95-.68-1.42-1.18-1.72-.87,1,.46,1.05.15.15-1.07-3.09-4.13.22-.15.24-.28-.31-.85-.56-1.31.95.74,1.92,1,2.85,1.91A.94.94,0,0,0,17.36,9.31Zm2.92,5.26c.18.35-.11.3-.22.14-.22.22.18.66.38,1l-1.08.75c-.33-.51-.68-.65-1-.58-.18-.36.11-.31.22-.15,0-.44-.52-1.53-1-1,.32-1.07-.27-.49-1-1.46.66.24.9-.81.5-1.62.76-.23,1.73,1.58.57,1.33l.8,1.16a1,1,0,0,0,0-.88c1.16.2.43,1.62,1.38,2.48.15-.47-.33-1.15-.56-1.75C19.61,13.84,19.92,14.8,20.28,14.57Zm-2,1.77c1.5,1.05,2,3.51,2.77,4.52-1-.59-1.86-2.67-2.91-1-.07-.35.3-.85-.19-.73-.29-.55,1.11-.11,1.49-.16C19.8,17.94,18.53,17.65,18.31,16.34Zm-4.92,1.2c-.71,0-1.34-1.92-2.05-1.62C11.36,15.13,13.33,16.36,13.39,17.54Zm-4.9,6.8c.95.16,2.32,1.51,3.77,3.08a61.2,61.2,0,0,0,4.3,4.41c-2.1-.67-4.18-3.8-6.22-5.71-.2,1.25,2.17,2.07,2,3.39C11.14,30.83,7.61,24,10.49,28.2a2.65,2.65,0,0,1,1,1C11.43,27.92,8.94,25,8.49,24.34Zm8.27,8.22c.41-.13.17.65.63.44q1.42,2.05,2.9,4.08c-1-.33-2-2.55-2.91-3.64C16.85,33.24,17,33,16.76,32.56Zm-1.5.62A33.78,33.78,0,0,1,18.36,38c-.85-.6-4-4.15-4.34-6.15.63,0,.29,1.58,1.43,2.5A2.72,2.72,0,0,0,15.26,33.18Zm-8-4.08C7.07,27.52,9.14,30.6,8.93,31,8.37,31.2,8,29.26,7.28,29.1Zm22.5,47.16c.16.31,3.08,2.42,3.77,4.42C32.22,80.72,30.55,77.5,29.78,76.26ZM112,169.42c.17-.33-.49-.78-.85-1.19,1.2.26,2.48,2.75,4.66,4.49-2.06-.21-2-2.19-4-3.11C111.55,169.29,111.85,169.28,112,169.42ZM80.63,60c.29-.31,1.66,1.39,1.29,1.62a4.88,4.88,0,0,1-3.22-3.17c.64.37,1.08,1.16,2.15,2.26C81,60.56,80.75,60.27,80.63,60Z"/><path class="cls-1" d="M73.34,83.56c3.46-3.28-.17-1-.79.82C73,84.06,73.22,84.14,73.34,83.56Zm61-56.91c.1-.88,2.13-2,3-2.93C137,24.78,135.79,25.73,134.32,26.65ZM38.87,122.76a23,23,0,0,1-4,5.11A18.86,18.86,0,0,1,38.87,122.76ZM141.53,21.57c.08-1.07,1.88-1.47,2.63-2.21C144.05,20.47,142.39,20.38,141.53,21.57Zm-80,77.52c-.56,1.89-3.09,4.52-5.61,7.25C56.58,104.2,59.21,101.61,61.52,99.09ZM41.05,122.64c.08-.8,2.25-3.23,3-3.44C42.54,120.59,42.24,121.92,41.05,122.64Zm100.54-98c-1.29.51-1.78,1.79-3.49,2.94C138.19,26.86,140.67,24,141.59,24.6Zm3-2.9c.17-.57,2.83-3.28,3.37-2.49C146.66,20.19,146.66,20.65,144.63,21.7ZM45.36,119.33c.89-.21-2.11,2.43-2.13,3.19-1.53.85-3.27,3.69-4.88,5.32.53-1.56,3-3.63,4.24-5.38.46-.46.31-1,.75-.86ZM14.54,163.79c1,.29-.61,1.42-.95,2.15C13.08,165.49,13.93,164.6,14.54,163.79Zm154-153c-.65,1.26-1.68,1.55-2.35,2.52C165.86,12.15,167.44,11.44,168.5,10.74Zm11.28-2.08c0-1.12,1.89-1.73,2.55-1C181.21,8.19,181,8.65,179.78,8.66ZM13.62,188c.21.61-1.73,2.92-2.81,4.4C11.26,190.42,11.7,190,13.62,188ZM13,193.9c.38.47-1,1.55-1.29,2.27A2.69,2.69,0,0,1,13,193.9Zm3.66-4.68c.27.59-.93,1.69-.65,2.27C14.82,191.94,15.65,189.64,16.61,189.22Zm-2.16,7.11c-.6-.24-.07-.88-.86-1.06.33-.42.64-.83.43-1.06.36-.36.72.13,1.08.31C14.27,195.33,15.27,195.52,14.45,196.33ZM36.5,179.25c-.1-.42,1.69-3.22,2.24-2.43C37.57,177.56,37.69,178.35,36.5,179.25Zm3-.88c-.2-.28.24-.74.45-.58l.42.32L38.16,181c.08-1.13,1.17-2,1.82-2.74C39.84,178.05,39.69,178.2,39.54,178.37Zm-5.66,15.31c0,.81-.67,1.84-1.53,2.93A9.42,9.42,0,0,1,33.88,193.68Zm6.42-2.87c-.71.07,1.92-2.8,2.6-3.91C45,184.58,41.42,189.82,40.3,190.81Zm7.93-10.74c-2.14,4-3.49,4,0,0Zm6.12-4.82c.23.68-1.32,1.85-1.8,2.72C52,178.3,53.91,175.25,54.35,175.25Zm7-6.87c-.65.15-1.35,1.28-2,2.06C58.38,171.18,60.89,167.31,61.33,168.38Zm29.68-31c0,.87-1.79,2.1-2.49,3.1C88.91,139,89.68,138.61,91,137.33Zm.44-.08c-.1-.77,1.63-1.91,2.25-2.83C93.8,135.19,92.07,136.33,91.45,137.25ZM70.39,162.82c-3.42,3-5.55,6.69-8.67,10.06.19-.31-.28-1.48.27-1.16C64.8,169.39,66.68,165,70.39,162.82Zm9.31-10.48c-.73.16-1.55,1.45-2.32,2.27C77.35,153.72,78.76,151.8,79.7,152.34ZM44.5,194.87a11.21,11.21,0,0,1-2.15,3.74A13.47,13.47,0,0,1,44.5,194.87Zm36.72-45c.33-.89,1.6-.92,1.19-1.34C83.89,147.59,81.59,151,81.22,149.84Zm31.28-33.37c-.45,1.75-6.33,7.25-2.26,2.33C110.71,118.21,111.67,117.35,112.5,116.47Zm41.31-38.6c-1,1.84-6.26,6.13-8,7.26C148.17,83.18,150.54,80,153.81,77.87ZM49,191.09a6.75,6.75,0,0,1-1.5,2.89A6.75,6.75,0,0,1,49,191.09Zm97-175a7.36,7.36,0,0,1,3.74-2.08C149.28,14.84,147.12,15.13,145.94,16.13ZM71.23,85.76c.46,0-1.53,2.37-2.51,3.39A15.32,15.32,0,0,1,71.23,85.76ZM50,110.18c1.37-1.84,3.74-4.63,6.48-7.65s5.81-6.27,8.72-8.89c.19.26-.31.66-.59,1l-.79.83c-2.25,2.94-4.51,4.41-5.54,6.79-2.11-.13-2.4,4.92-4.89,6.87-.78-.79,1.93-2.36,2-3.33-1.63.29-2.91,2.43-4.22,3.87C51.22,108.68,50.62,109.37,50,110.18ZM23.62,141.36c-.55-1,1.47-2.24,2.22-3.13C25.39,139.63,24.19,139.8,23.62,141.36Zm16.44-19.58a8,8,0,0,1,1.8-2.48C41.79,120.29,41.2,121.66,40.06,121.78Zm77.47-78.47c.2-.25.33-.16.46-.06.76.7-1.54,2.08-2.19,2.69-3.13,2.92-6.77,6.06-10.43,9.18-1.83,1.57-3.65,3.13-5.37,4.71S96.7,63,95.27,64.6c1.91-2.18,3.74-4.17,5.59-6s3.67-3.5,5.48-5.16l5.47-5C113.66,46.85,115.57,45.16,117.53,43.31ZM91,69.48c1.34-.72,3.4-2.57,3.54-3.44l.55.56a57.54,57.54,0,0,1,6.55-7.17c2.6-2.42,5.54-5,8.65-7.69-.18-.18-.48.17-.73.33,1-.93,2.19-2,3.6-3.18l4.62-3.71a66.47,66.47,0,0,0,8.8-8.28c-.11.56.17.41.53.59,2.5-2.9,5.17-5.22,9.21-9.1-.52,1,1,1.05-.86,2.5-.29-.4.83-1,.34-1.35-4.06,3.47-4.12,4.76-7.55,7,.32.18.86-.47,1.32-.81-1.9,2.4-6.42,5.75-9.72,9.06,6.74-5.42,13.37-11.69,19.39-16.45a11.64,11.64,0,0,0,3.61-3.39c.87-.34-.53,1.34-1.41,1.88,2.78-1.11,2.5-2.8,4.9-4.81.41.39-1,1-1.29,1.42a57.34,57.34,0,0,0,7.88-5l8.26-5.87c.1.28-.48.62-.26.89.68.46.47-.71,1.18-.95,1.44.49,3.46-1.17,5.57-2.75,1.3-1,.33.32-.44.67-.4.87-2.56,1.89-2.18,2.74-1.22.42-1.68,1.19-2.65,2.14.78.13,2.11-1.58,3.11-2.18.79.45-.73,1.07-.69,1.57a23.67,23.67,0,0,0,6.52-5.79c-.17-.2-.49.12-.76.26,1-1.08,6.16-4.79,7.38-4.06-3.47,4.13-9.85,8.52-15.51,13.87A59.13,59.13,0,0,1,170,14.36c2.63-1.44,5-3,6.11-4.88a5.33,5.33,0,0,1,2.42-.55c-.57,1.21-.76,2.19-2.48,2.93.43.3,1.27-.73,1.53.14,0,.58-.41,1.17-1.46,1.8,2.36-1.06,5.19-3.65,7.46-4.45.44.77-.36,1.6-1,2.42a10.82,10.82,0,0,0,2.41-.53A61.47,61.47,0,0,1,172.47,23c3-1.06,7.38-4.56,9.91-6.06-1.07,1.51-6,5-5.75,4.12-.85.68-.72,1.32-.82,2a20,20,0,0,1,5.61-3.68c-1,2,1.83-1.53,3.38-2.29a5.19,5.19,0,0,1-2.47,2.25c-.33.34,0,.64.32.42-2.43,2.1-5.87,5.9-8.63,8.79a15.3,15.3,0,0,0,3.78-2.69,24.75,24.75,0,0,1,3.34-2.61,48.24,48.24,0,0,1-5.76,5.22c1.49-.16,3.67-1.79,5-3.26.14.28-.4.59-.72.89.24.2.67-.24,1-.47-.81,1.37-3.52,2.87-5,4.33-.19.37.08.71-.53,1.11.68.46.45-.69,1.14-.93.26.49-.43,1-.65,1.54,1.93-.25,1.92-2.05,4.3-3.46.51-.64,2-1.22.74-.24-3.33,1.56-2.29,3.5-1.4,1.78a21.24,21.24,0,0,1-2,2.26c.95,0,2.23-1.12,3.47-2.13-1.4,2.76,1.77-1,3.52-2.06,1.13-.37-1.12,1.16-1.58,1.56a8.42,8.42,0,0,1-1.86,1.78c.94.29,2.49-1.38,3.8-2.29-1.74,3.29-5.45,4.39-8.55,7.49,1.13-.34,5.63-4.18,2-1-.67.54-.55,1-1.54,1.59,2.7-1.37,6.35-5.2,8.33-6a3.81,3.81,0,0,1-1.41,1.76c.85.55,1-.53,1.89-1.13.38.76,1.1.32,1.43,1.22a7.93,7.93,0,0,1-2.49,2.65c-1.14.92-2.45,1.84-3.45,2.75A26.06,26.06,0,0,0,183.61,37c-.69,1.32-2.42,2.69-3.29,4a7.43,7.43,0,0,0,2.82-2.28c2-1.86,0,0-1.48,2.21-.45.59-.14,1.15-.47,1.73-1.74,1.88-4.64,3.78-6.13,5.66,3.53-.12,8.28-6.45,13-9.2C185,43.4,183.43,46.73,178,50.73c.33,1.26,1.75-1.59,2.07-.33a110.14,110.14,0,0,0-11.62,9c-3.8,3.28-7.22,6.61-9.69,8.85.25.19.65-.27,1-.51-1,1.08-4,2.62-5.87,4.81,1-.32,5.08-4.25,4.41-3.19-1.68,2-5,4.33-5.93,6.35,1.57-1.21,3.1-2.5,4.65-3.81s3.11-2.65,4.69-4c3.16-2.79,6.4-5.8,10.09-8.78l1.93-1.62c.87-1,1.29-.5.17.2l-1.93,1.62a49.93,49.93,0,0,1-3.68,3.47c-1.42,1.29-3,2.66-4.69,4.09a131.52,131.52,0,0,0-10,9.17c7.63-6.5,16.19-13.66,25.1-21,.17.63-1.48,1.38-2,2A15.17,15.17,0,0,1,172,60.93c.31.68.08.91-1.41,2.22.63-1.44-.28-.07-1.07-.14.59.31-.57.9-.84,1.78-.64.55-.37-.64.19-.88l-9.37,7.72c-3.37,2.72-6.69,5.64-9.72,8.17L147.33,82c-.57-.24,2.79-2.72,3.82-3.83a31.82,31.82,0,0,0-6.78,5.92,25.13,25.13,0,0,1-5.58,5.14c.33.18.81-.46,1.23-.8a71.56,71.56,0,0,1-9.85,9c-1,1-.45,2.35-1.88,2.21.81-1.61,3.11-3.89,5.64-6.23a66.15,66.15,0,0,0,6.87-6.8c-2.22,2-4.53,4.14-6.81,6.29s-4.46,4.38-6.51,6.42c-.23.55.35.22.48,1-1.73,2.12-3,1.66-4.77,3.9.34.18.8-.47,1.22-.82-.16,1.47-3.34,1.58-2.9,3.22-1.07,1.28-3.72,3.51-5.58,5.64-1.51,1.72-4.32,5.48-.83,1.21-1,.18-2.35,2.24-3.48,3.15-.49.29-.22-.18.06-.44,4.35-4.45,6.21-6.4,9.21-9.67-4.5,3.88-9.81,9.63-11.53,12.44-.81,1.73-3.5,3.8-5,5.66-.36-.45,3.11-3.43,4.3-4.88a138.12,138.12,0,0,0-13.51,13.54c-.18-.18.15-.46.3-.71-2.19,1.87-4.34,3.89-6.51,6.06s-4.28,4.52-6.5,7-4.52,5-6.85,7.75-4.81,5.56-7.44,8.5c1.92-.49-1.17,1.7-1.84,1.75.55-1.58,3-3.62,4.25-5.38-1.41.07-4.07,5.56-5.25,4.53l1.87-2.19c-2,1.38-4.69,5.53-5.94,6.32.3-1.32,2.43-3.13,3.46-4.63-4.87,4.07-7.36,7.62-12.44,13.17-.29-.58,1.17-1.67,1.6-2.43-2.36.47-4.29,5.8-6.18,5.71.7-.6,1.12-1,1.14-1.87.22-.27.42,0,.63,0,.61-.63,2-3,3.73-5.28s3.49-4.71,4.7-5.59c-.12.09-.71,1.17-1.65,2.85a14.64,14.64,0,0,0-3.44,4.2c3.42-3.35,8.12-9.93,10.59-13.31-2,.9-4.1,5.19-5.36,4-1.85,2-2.91,3.34-4.34,4.89.14-1.14,2.14-2.77,3-4.1a58.26,58.26,0,0,0-5.38,5.72,74,74,0,0,0-4.83,6.56c-1.76,1.49,1-1.53.91-1.59-.24-.21-.86.58-1.42,1.42s-1,1.72-1,1.72c-1,1.2-3.33,3.69-5.45,6.28s-4.06,5.27-4.45,6.69a4.13,4.13,0,0,1,1.1-2.35c-.71-.05-1.45,1.77-2.17,2.46-.32-1.21,1.49-1.89,2.4-3.64-.82-.36-1.12.87-1.51,1.58-.77,0,1.4-2.81,2.41-4.09.6-.27-.82,2-1.32,2.19,8.13-9,15.21-18.64,21.1-25-2.53,1.47-5.27,5.35-7.77,8.68.73-2.33-2.38,2.19-3.31,3,1-2.4,4-4.34,4.17-6.92.31.47,1.08-.36,2-1.65-2.39,1.23-4.1,3.64-5.89,6,.49-2.28,2.77-3.45,4.2-6.46-.64.94-3.1,2.57-3.46,4.25-1.43-.65,1.32-2.43,1.92-3.61a5.51,5.51,0,0,0-3,4.14c-1.12.84.63-.87,0-.9-1.72,1.68-3.39,5.28-5.88,7.92,1.31-3.28,4.29-7.2,6.93-11.31a21.16,21.16,0,0,0-4.79,6c.41.12.21-.43.68-.86-1,1.9-2.26,2.07-3,5.1.34-.77-.08-1.31.73-2.22-2.2,2.51-4.75,5.24-7,8.2a69.8,69.8,0,0,0-6.07,9c-.37-.63.36-1.6.47-2.38-.43-.27-.49,1.16-1.32,1.76a22.67,22.67,0,0,1,3.55-6.5.4.4,0,0,0-.64,0,55.49,55.49,0,0,1,3.75-4.91A24.22,24.22,0,0,0,37,173.12c.2.16-.11.48-.24.74a82.88,82.88,0,0,0,7.3-8.05c2.43-2.89,4.72-5.88,6.67-8.54-4.17,2-6.47,9.25-11.46,12.95.72-1,1.93-2.51,3.23-4.13s2.77-3.33,3.9-4.77C45,161,44,165.23,43,164.25a5.58,5.58,0,0,1-1.42,2.63c.21-1.77-1.94,1-1.13,1.45-3.26,2.2-4.16,5.33-7.21,7.91-.28.51.56,0,.19.61-1.52,1.12-2,2-3.29,2.58,1.32-1.7,2.64-3.32,4-4.93l4-4.91,4.26-5.21,4.86-5.71c-.71,0-1.55,1.86-2.24,1.49.49,1-4.51,4-5.12,6.77.06-.83-.7-.35-1.26-.53l-.06,1.36c-.77-.91-2.9,3.17-3.19,4.06-.61,1-1.16.34-1.76,1-.23.37.19.54.4.77-1.05.72-2.57,3.61-3.13,2.72-.5.55-.61,2.46-1.59,3.43-.48-.76-.24-.59-1.05-.34,1.43,1.82-5.14,6.66-6.24,11,1,0,2-1.83,3-2.78-.36-.12-.73.61-1.09,1a18.55,18.55,0,0,1,3.56-6.07c.1,1.19-.51,1.75-2,3.56.53.82,1.26-1.73,1.51-.26.17-1.54,1.89-2.34,2-4-.35-.12-.73.61-1.09,1-.62-.62.94-1.94,1.56-3,.93-.59.47,1.33,1.28,0-.58,2.23-2.08,3.62-3.33,5.77.56.23,1.17-1.38,1.75-1.9-.39,2.12-3.37,5-3.12,5.92-.3.13-1.43,3.57-2.6,2.64,1.11-1.21,1-2,2-3.11-1.14.77-1.14.57,0-.9-3.6,1.32-2.41,4.79-4.32,7.3,0-.58.73-1.7-.42-.76.16-1.05.78-1,.85-2.1-2.05,1.24-3.75,5.27-1.92.88.59-.71,1.51-.42,1.49-1.65-.68.45-.17.28-.85.29a9.07,9.07,0,0,1,1.29-3,23.41,23.41,0,0,0,1.55-2.62c-.8-.46-.58.81-1.08.57-.52-.61,1.13-1.08,1.35-2.68.32.35.1.87-.47,1.5,1.7-2.3,3.83-4.6,5.11-7.26-.33-.15-1.31.94-.42-.32-.81-.21-.59,1-1.11,1.48-.31-.42.69-1.27-.18-1.52-1.43,1.89-.56,2.66-3.12,5.06,1.42-.19,2.57-2.91,3.51-3.38-2.45,3.9-7.39,8.18-8.35,12.66,1.56-1.29,2-4.43,3.46-5.25-.76,1.66-2.64,6.44-3.68,5.55-.84,1.64-3,4-1.92,2.7.72-.7,0-.89,0-1.35,1.4-.92,1.87-1.94,2.58-3.62-1,.61-1,2.44-2.36,2.86-1.09-.08.6-1.12,0-1.36-.36.06-1.42,1.31-2.36,1,2.38-1,3.86-3.29,5.37-4.81.21.23-.21.68-.43,1.06,1.82-1.1.71-3.09,2.66-4.93-.57-.22-1.19,1.39-1.77,1.92.12-1.67,2.54-3.55,3.36-5.81-1.57.79-1.87,3.14-2.88,3.4-.26-.59,1-1.66.71-2.25.64.19.45.06,1.32-1.33-1.19.09-1.65.38-3.27,1.74,0,.45,0,.91,0,1.36-1.08-.26-1.39,2-2.65,3.59-.81-.25.49-1.24-.63-1.38,1.13-1.82,2.73-3.21,4-5.38a.4.4,0,0,0-.64,0c.22-1.07,1.07.1,1.77-1.93-.36-.13-.74.61-1.1,1-.13-.48.41-1.19.69-1.8-1.25.49-2.16,2.8-1.6,3.45-.9,1.29-.32-.24-.63-.47-.34,1.86-.77,2.09-2.48,4.19a22.29,22.29,0,0,1,2-4.05c-2.23,1.53-2.81,3.6-5.07,6.93,0-1.29,1.09-3,2.42-4.71-.49-.24-1,1.27-1.53,1.2-.13-.75,1-.89,1.12-2l.64.46c1.79-3.22,3.35-5.91,4.84-8.5l2.22-3.86,2.34-4c-.73.75-1.72,2.09-2.64,3.29A11.53,11.53,0,0,1,20,172.25c-1.19,3.21-2.48,6.48-4.12,8.15-.09-.49,1.33-3-.19-1.07.12-1.2,2.06-2.17,2.92-3.9-3.29,2.58-3.94,6-5.84,8.26,1.59-1.23,2-2.84,3.11-3.29-.75,1.85-2,2.81-3.33,4a5.48,5.48,0,0,1-.67,3.21c-.52.71-.51-.53,0-.92-.82.79-2.72,2.89-2.82,4.42.16-1.24-2.42,1.28-1.09,1.53-1.71-1.79,3.06-6.52,4-10.08-.43-.39-.87,1-1.31,1.37-.88.37,1.46-2.34,2-3.19.22.31-.39.88-.68,1.36,1.9-2,2.94-4.36,4.52-6.92-1.47.27,2.22-3.93,2.13-5.93,0-.28,2.13-2.08,2.27-2.53s-.35-.09-.62-.48C21.4,165,22.08,165,23.5,162.6c-.52.13-.63-.07-.19-.62-.63-.27-1.35,1-2,.84,1.2-1.27,3.72-4.87,6-6.33-.1-.69.63-1.76,1.67-3s2.36-2.64,3.36-4.07c-.88,1-3.3,2.05-2.83,3-1.51-1.2-3.35,3.95-4.29,2.85-3.35,5.46-7.23,9.8-8.91,13.16.42.4.86.26,1.31-.43-.58,2.67-3.93,5.64-5,8-.25-.95.63-1,.7-1.82-1.2.48-2.41,2.91-1.62,3.49-.9,1.28-1.81,2.57-2.68,2.71.62,2.17-2.28,4.16-2,6.45-1.11-.73-.38.5-1.1,2,.22.14.43-.26.65-.46.65.76-1.15,1.27-.66,2.29-.44.21-.47-.44-1.3.46-.23.53.36.08.64.46-.5.85-1-.35-1.51.77-.63,0,.68-1.86-.21-1.06.42-.5.9-3.15,2.4-3.38-.12-1.34-2.61,1.9-2.83,3.07-.21-1.36-1.94,2.15-2.83,2.62-.08-.31.27-1.08-.22-.6,1-2,2.23-3.56,3.73-6.15-2.07,1,1.78-2.75,1.35-4.16.6,1.32-1.67,3.66-.93,4.92,1.5.16,1.17-1.68,2.39-1.54.8-.89-.16-1.17.89-2.15-.33.05-1.29.15-.42-.77-.69-.1-1.12,1.6-1.1,2-2,.39,1.8-4.46.92-4.46,2.59-3.46,2.37-6.36,5.95-10.66-.66-.46-.16-1.47,1-3.06a2.93,2.93,0,0,1-.26,1.23c.63.41,1.33-1,2-1.81-.49-.31-1.06,1.22-1.57,1.66a5.5,5.5,0,0,1,.75-2.76.4.4,0,0,0,.65,0,48.83,48.83,0,0,1,5.59-8.29,50,50,0,0,0,5.59-8.46c-1.25-.23-1.58,2.12-3.06,3.38,1.1-2.61,2.66-4.06,5-6.18a2.3,2.3,0,0,1-.79,1.79c.48.33,1.1-1.17,1.64-1.59,0-.51-.33-.74-.33-1.25.65-1.09.8-.12.85.21,1.2-3.1,4.77-7.94,8.88-12.31a28.92,28.92,0,0,0-4.48,4.18A48.75,48.75,0,0,1,30.38,141c1.77-.82-1.92,4-3.2,4.74-.35-.5,1.1-1.51,1.48-2.22-1.85,2.07-3.52,4-5.07,6s-2.93,3.91-4.28,5.88c-2.7,3.94-5.26,7.94-8,12.68-.13-.19,0-.46-.19-.62-1.44,2.29-1.78,3.87-3.68,5.79-.25.52.36.08.63.47a39.81,39.81,0,0,1-3.17,4,14.57,14.57,0,0,0-2.66,4.44c-.16.23,2.91-4.88,1.1-1.55.45,1.84-2.34,4.84-3.12,7.11C0,186,1,183.18,1.44,180.59a14.47,14.47,0,0,0,3.28-4.8,14.77,14.77,0,0,1,2.82-4.42c2.08-1.76,3.46-4.28,4.9-7a37.43,37.43,0,0,1,5.36-8.13c-.92-.3-.89,1.24-2.06,1.77a61.21,61.21,0,0,1,5.11-7.67c1.84-2.43,3.76-4.51,5.14-6.05-1.26,1.14-2.57,2.47-3.9,3.91s-2.62,3-3.92,4.65c-2.58,3.24-5.11,6.61-7.24,9.63,1.5-.78,2.1-2.05,3.93-4.19-.35,2.36-3.35,4.42-4.22,5.89-.21-.24.24-.69.48-1.08-.95.26-2,2.48-3,3.51,1.08-1.73,2.17-3.47,3.29-5.19l3.48-5.09c2.36-3.37,4.71-6.77,7.18-10.06l7.39-9.75c2.44-3.23,5-6.31,7.4-9.41.55-.41,1.21-1.91,1.68-1.56l-1.73,2c-2.06,2.53-3.84,5-5.61,7.43s-3.48,5-5.54,7.57c1.18-.23,2.53-2.6,3.7-2.87.27-.54-.19-.19-.44.13,7.32-9,15.19-18.33,22.9-27.42,2.47-3,4.76-5.31,7.14-7.82s4.88-5.19,8-8.68c-3,2-4.93,5.41-7.29,6.7,5.16-6.58,11.63-12,17.21-18.22a4.45,4.45,0,0,0-2.22,1.56,33.65,33.65,0,0,1,9-8.76c-2.44.82,4.2-5.05,1-1.72,3-3.39,6.25-6.64,10.18-10.78C95.05,65.67,91.75,67.77,91,69.48ZM54.44,152.74c-1.35-.47-3,3.72-4.35,4C52,156.9,52.25,154.31,54.44,152.74ZM24,176.19c-.43,1.63-2.47,2.11-2.91,4.33.51-.3,1-.71,1.51-.27C22.76,178.65,24.75,176.68,24,176.19Zm-8.73-8.52a33.93,33.93,0,0,1-2.58,5.63c.3-.33.61-.88.89-.74-.13.19-.24.38,0,.46a1.87,1.87,0,0,1,1.54-1.2c-.28-.51,1.09-1.57.07-1.84-.37.43-.76,1.17-1.12,1.05.94-.86.88-2.3,1.12-1.05.54-1.73.1-.79,1.13-1.51C16,168,16.18,166.74,15.25,167.67Zm89-108.47c-.72.91-2.62,2-2.57,2.79C102.43,61.07,104.32,60,104.29,59.2ZM40.64,128.8c2-2.85,4.52-4.07,4.74-5.92C44,124.61,40.41,128.19,40.64,128.8ZM1,184.92c1.31-.13,1.23-3.17.24-1.7C2.38,183.33.31,184.61,1,184.92Zm16.45-21.8c-1.21,2.49,1-1.83,2.26-1.59-.13.26-.45.59-.26.75.83-1,.7-1.71,1-2.56A8.1,8.1,0,0,0,17.4,163.12Zm6.07-7.74c-.35.57-1.74,1-1.4,1.79C22.83,157,23.7,156.29,23.47,155.38Zm-13.53,22c1.11-1.5,2.6-3.13,2.08-4.1C11.62,174.56,9.83,176.3,9.94,177.39Zm0,.92c-.21-.31-.08-.73-.62-.93-.65.77-1.58,2.78-.28,2.14-.14-.22.44-1.75.69-1.37C9.57,178.32,9.61,178.62,9.91,178.31Zm11-1.14c.7-1.14,3.42-4.11,2.7-4-.67.61-1.36,2.36-2,2.23.42-.69,2.55-3.07,1.58-2.55C22.1,174.38,20.4,176.14,21,177.17Zm16-16.8a7.75,7.75,0,0,0-2.76,3.51C35.12,163.21,35.61,161.78,37,160.37Zm.49,2.77c-.77-.38-2.79,1.86-2.93,2.88A23.85,23.85,0,0,1,37.44,163.14Zm-15.6,21.18a25.37,25.37,0,0,0,2.46-4.17C23.75,180.67,21.52,183.37,21.84,184.32Zm9.58-11.78c.33-.63,1.65-1.54.72-1.78L31,172.21Zm6.64-8.9c2-2.64-.29-.76-1.6,2C36.08,166.5,37.25,164.72,38.06,163.64ZM170.91,31.73c.74-.83,1.55-1.67,1.35-2.44C171.93,30.09,170.57,31,170.91,31.73ZM30.21,175.34c1-.19,1.07-1,1.79-1.42C30.76,172.28,29.28,177.3,30.21,175.34Zm2.1-3.52a3.16,3.16,0,0,1-1.14,1.46C31.61,174.26,33.7,172.09,32.31,171.82Zm-2.74,3.5c-3.46,3.82-.05,1.89,0,0Zm6.37-7.7c.89-1.8-2.49,2.41-3.2,4.07A11.79,11.79,0,0,0,35.94,167.62Zm12.41-3.74c2.07-2.47,4.29-5,7-8.5,1.24-1.61,3.5-5.87,5.31-7,1.36-.88-.4,1.18.47-.56.66-1.31,2.48-2.22,2.86-3.35-1.82-.15-3.78,4.81-4.81,3.61-7.06,10.47-17.26,19-26.31,33,3.07-3.67,6-8.15,9.42-11.25-3.22,3.87-2.79,4.23-.25.74.52-1.3,1.77-1.81,1.86-3.22,1.89-.46,6-7.39,9.19-10C51.86,159.53,49.15,161.09,48.35,163.88ZM29.5,186.8c.83-1.37,2.76-3.1,2.87-4.26C31.2,183.61,29.26,186.39,29.5,186.8Zm22.84-21.56c.82-1.32,3.1-3,2.6-4-.49.93-.89.5-1.36,1.24C54.69,162.84,51.33,164.38,52.34,165.24Zm-5.5-49.17c-4.42,4.83-1.31,1.29.87-1.77,1-.18,2.17-2.3,3.22-3.24C52.48,110.09,48.27,115.1,46.84,116.07ZM5.66,169.5c.88,0,2.33-2.11,3.63-4,0,1.61-4.21,5.88-4.64,8C3.94,172.42,5.52,171.05,5.66,169.5ZM4,173c.08,1.28-1.47,2.34-2.95,4.93C0,179.55,2.65,174.46,4,173Zm11.05-10.75,1.87-2.39c.29,1.19-1.82,2.11-1.25,2.87C15.25,163.13,15.51,162.44,15.06,162.28ZM1.34,188.45c-.28.78,0,1.37-.67,2.3-.95-.58-.08-1.8,0-2.76.8-.46.25.76.87.15C1.76,188.37,1.46,188.53,1.34,188.45Zm18.75-22.78a3.71,3.71,0,0,0-1.4,1.78c0-1.71.34-2.76,2.84-4.47C21.59,163.9,19.14,164.44,20.09,165.67Zm160.15-157c0,.57-.83,1.19-.55,1.75C178.65,10.25,177.78,9.89,180.24,8.64ZM5,193.76c-.38-.78.56-.1,0,.46.45-.25,2-.4,1.73-1.07.64.16,0,2.73-1.09,4.25a7.14,7.14,0,0,1,.65-3.19c-.21-.06-.43.16-.64,0-.1.35-.2.68,0,.92C5,195.71,4.72,194.26,5,193.76Zm5.18-1.38c.68.39,0,1.62-.65,1.82.5.16,1-.59,1.5.15-.46-.7,1.35-1.5,2.16-2.57.53.5-2.49,2-1.29,2.73-.57.39-1.32.82-1.3,0-.87.83-.33,1.17-.65,1.81-.25,2,.1-1.14-.21-1.06-1.09.29-2.93,4.6-.22-.15-.35-.11-.72.64-1.07,1.06.39-1.19.28-2.21.87-3.49A1,1,0,0,0,10.16,192.38Zm4.11-4.86c.28-.31.33,0,.21.16.28.13.57-.42.86-.76l1.06.77a1.06,1.06,0,0,0-.22,1.22c-.28.32-.33,0-.21-.15-.43.15-1.3,1.08-.65,1.36-1.13.1-.39.45-1.08,1.51,0-.72-1.08-.55-1.72.15-.48-.64,1-2.28,1.08-1.06l.87-1.21a1,1,0,0,0-.86.3c-.19-1.2,1.42-1,1.94-2.28-.5,0-1,.76-1.51,1.21C13.78,188.45,14.61,187.78,14.27,187.52Zm2.34,1.24c.51-1.86,2.77-3.18,3.5-4.33-.28,1.14-2,2.75-.07,3.17-.32.19-.93,0-.65.44-.43.48-.47-1-.62-1.37C17.65,186.71,17.8,188.06,16.61,188.76ZM19.37,193c.23.68-1.39,2-.85,2.56C17.76,195.87,18.27,193.53,19.37,193Zm8.09,2.24c-.35-1.93,3.39-7,4.64-10.19,0,2.24-2.4,5.23-3.55,7.83,1.25-.24,1.28-2.76,2.61-3.06,1.62.73-3.76,6.35-.68,2.22a2.61,2.61,0,0,1,.67-1.32C29.92,191.28,27.87,194.62,27.46,195.28Zm5.29-10.62c-.25-.35.57-.37.23-.74l3.07-4.09c0,1-1.89,2.68-2.65,4C33.37,184.37,33.14,184.31,32.75,184.66Zm1,1.25a32.37,32.37,0,0,1,3.71-4.51c-.36,1-2.77,5.19-4.59,6.12-.18-.61,1.42-.78,2-2.17A2.67,2.67,0,0,0,33.79,185.91Zm-1.42,8.91c-1.43.73.83-2.25,1.31-2.18C34,193.11,32.3,194.13,32.37,194.82Zm39.45-34.09c.26-.22,1.72-3.49,3.54-4.54C75.66,157.49,72.85,159.72,71.82,160.73Zm86.53-87c-.33-.2-.83.43-1.25.76.33-1.19,2.93-2.24,4.86-4.27-.38,2-2.36,1.83-3.44,3.71C158.18,74.2,158.2,73.9,158.35,73.77ZM47,113.14c-.36-.23,1.24-2,1.52-1.71a5.89,5.89,0,0,1-2.89,4.06,19.3,19.3,0,0,1,2.08-2.74C47.48,112.59,47.22,113,47,113.14Z"/></g></g></svg>