<svg id="Ebene_1" data-name="Ebene 1" xmlns="http://www.w3.org/2000/svg" viewBox="0 0 224.45 228.05"><defs><style>.cls-1{fill:#ffda48;}</style></defs><title>marker</title><path class="cls-1" d="M88.37,114.42C76.93,102.74,65.64,91.09,54.2,79.6,47.66,73,40.82,66.78,34.2,60.3c-3-2.89-5.87-5.74-5.65-10.58.09-2-2.22-3.91-1.33-6.35.09-.23,0-.57.11-.75C28.85,40.68,30.09,38.3,32,37s4.72-2,7.21-2.62a33.77,33.77,0,0,1,6-.5c3.79-.21,6.88,1.66,9.76,3.72C69.34,47.77,81.72,60.12,93.8,72.79c4.8,5,9.64,10,14.65,15.26,3.17-4,6.12-7.86,9.29-11.57,10-11.75,20-23.51,30.22-35.1C153.51,35.07,159.37,29,165.29,23a151.41,151.41,0,0,1,11.86-10.79c3.59-2.92,7.69-5,12.62-4.39a10.62,10.62,0,0,0,1.78,0c5.49-.27,8.72,2.12,10.36,7.62A20.08,20.08,0,0,0,203,18c2.51,5.44,2.13,8-2.35,11.87C181.1,46.7,164.29,66.07,147.8,85.75c-6.31,7.53-12.44,15.2-18.75,22.92,5.7,5.52,11.42,10.72,16.76,16.29,6.64,6.91,13.32,13.83,19.29,21.31A22.34,22.34,0,0,1,170,160.34c0,2.78-1.65,4-4,5.35-4.08,2.4-8.34,2.88-12.84,2.76A17.87,17.87,0,0,1,143,165.16a230.11,230.11,0,0,1-33.59-28.4c-.23-.24-.52-.42-1-.83-4.33,6.5-8.71,12.84-12.85,19.33-6.24,9.81-12.12,19.85-18.52,29.54-5.84,8.84-12.13,17.38-18.28,26a7.58,7.58,0,0,1-6.12,3.61,4,4,0,0,0-2.35,1.27c-4.13,4.24-9.62,4.19-14.88,4.62-.62,0-2-1.84-2-2.86a28.38,28.38,0,0,0-1.87-8,7.55,7.55,0,0,1,.81-5.25c4-7.6,8.23-15.13,12.52-22.59,12.82-22.29,26.91-43.77,41.78-64.74C87.12,116.26,87.54,115.63,88.37,114.42Z"/></svg>